<svg width="12rem" xmlns="http://www.w3.org/2000/svg" xmlns:xlink="http://www.w3.org/1999/xlink" viewBox="0 0 946.8 252.3" style="enable-background:new 0 0 946.8 252.3;" xml:space="preserve" class="svelte-153n1yj">
  <g>
    <rect x="388" y="0" class="" width="1" height="252.3"></rect>
    <g>
      <g transform="translate(0.000000, -10.000000)">
        <g transform="translate(0.000000, 10.000000)">
          <path class="" d="M57,50c18.7-0.1,37.6,8.2,37.7,26.3c0.1,15.7-9.2,22-18.7,22.1c-9.5,0-10.1-4.8-10.1-4.8S77,85.3,77,77.4
            c0-4.1-3.1-15.4-20.3-15.3c-23.9,0.1-36.9,11.4-36.9,31.7c0.1,23.4,69.7,31.3,69.8,61.5c0.1,32.3-33.5,46.9-63.3,47
            c-15.6,0.1-25.9-9.1-26-23.7c-0.1-17.2,8.1-34.8,28.5-34.9c7.9,0,9.1,6.8,9.1,8.4c0,0-20.5,5.7-20.4,26.4
            c0,3.8,4,10.7,13.6,10.7s38.2-6.9,38.1-32.3c0-23.6-69.1-26.8-69.2-63.4C-0.1,52.3,41.3,50.1,57,50z M218.7,72.8
            c2.4-1.2,17.7-4.1,17.1,8.1c-0.6,12.2-9.8,33.4-11.1,42.7c12.5-6.3,30.1-27.7,30.1-27.7s12.5,1.7,8.6,9.3
            c-3.9,7.6-29.1,26.4-29.1,26.4S240,186,273,185.8c18.1-0.1,25.9-8,29.2-10.8c0.9-0.7,1.5-0.9,1.8-0.3c0.7,1.7,1.5,7.3-2.6,11.9
            c-3.6,4-12.2,8.8-28.9,8.9c-30,0.1-46.7-23.9-51.1-59.7c-3.3,10.5-2.9,27.4-3.5,35.7c-0.9,1.6-17.9,8.4-19.2-3.1
            c-0.1-0.7-0.1-1.7,0-2.8c-3.1,4.4-7.4,9.1-11.5,9.1c-7.3,0-10.5-6.1-11.8-9.3c-1,1.1-9.1,9.4-19.5,9.4c-4.6,0-11.5-2-14.3-9.3
            c-5.3,3.9-14.7,9.4-25.5,9.4c-11.6,0-14.3-6.9-14.4-12.8c0-9.2,6.9-36.9,6.9-36.9s-13.5,5.5-18.2,5.6c-6.4,0-9.6-12-9.6-12.3
            c0-0.2,0.1-0.4,0.4-0.5c3.8-1.4,31.3-10.9,31.3-10.9s5.1-20.3,5.9-22.9c0.7-2.6,4.4-8.2,9-9.8c3-1.1,7.6-2.5,10.2-2.5
            c1.1,0,1.9,0.3,1.9,0.9s-6.9,30.2-6.9,30.2s14.3-3.4,19.6-3.4c4.1,0,6.2,2.5,4,5.7s-4.9,6.8-6.3,8.5c-1.4,1.7-2.4,2-6,2.7
            c-4.7,0.9-15.6,3.7-15.6,3.7s-8.5,31.3-8.5,36.6c0,3,0.9,6.5,4.7,6.5c3.6,0,10.6-4.2,15.6-7.5c0.8-24.4,19.7-40.6,34.5-40.7
            c4.8,0,3.1,4.6,8.4,4.6c0.5,0,3-0.1,3.4-0.1c2.1,0,4.5,0.3,4.5,5.6c0,7.7-4.3,20.3-4.3,28.2c0,5.7,0.8,9.6,2.9,9.6
            c3.7,0,7.8-5.3,10.7-9.9C205.2,126.6,218.7,78.2,218.7,72.8z M285.5,114.8c-12.3,0-31.1,37.4-16.7,37.3
            c15.8-0.1,16.7-29.9,16.7-36.6V125.7z M290.8,122.1c-8.4,0.3-17.7,16.2-18.5,23.3c12.5,0.5,19.1-11.7,19.8-16.4
            C292.7,125.4,292.9,122,290.8,122.1z"></path>
        </g>
      </g>
    </g>
    <g>
      <path class="" d="M476.3,99.9h55.6c13.6,0,20,1.5,24.4,6c3.6,3.5,5,7.5,5.7,15.7c0.2,3,0.4,7.4,0.4,10.5c0,5.8-0.4,12.5-1,16.1
        c-1.1,7.7-6.5,13.7-13.5,15.1c-3.7,0.8-6.6,1-13.4,1h-58.2V99.9z M528.7,148.9c5.3,0,5.7,0,8-0.8c4.7-1.4,6-4.8,6-15.9
        c0-13.5-2.3-16.3-13.6-16.3h-33.2v33H528.7z"></path>
      <path class="" d="M577.9,99.9h55.5c11.4,0,16.4,1,20.1,4.1c3.8,3,5.5,8.5,5.5,17.2c0,12-2.9,16.7-11.1,18.5
        c8,1.4,10.4,4.7,10.2,14.5v10.1h-19.9v-8c-0.1-7-2-8.4-10.8-8.2h-30v16.2h-19.5V99.9z M628,132.3c9.5,0,11.3-1.2,11.3-7.5
        c0-4.2-0.4-5.9-1.6-7.2c-1.4-1.5-3.1-1.8-9-1.8h-31.3v16.6H628V132.3z"></path>
      <path class="" d="M705.8,99.9h26.3l35.2,64.4h-21.4l-6.4-11.5H698l-6.2,11.5h-22.2L705.8,99.9z M732.7,139.3l-13.9-25.7
        l-13.7,25.7H732.7z"></path>
      <path class="" d="M776.3,99.9h19.6v24h10.2l26.6-24h26.9l-37,31.9l40.5,32.5h-28.5l-29.1-24.7h-9.8v24.7h-19.6V99.9H776.3z"></path>
      <path class="" d="M946.1,99.9v14.6h-52v11.1h49v12.7h-49v11.4h52.7v14.6h-72V99.9H946.1z"></path>
    </g>
  </g>
</svg>
