<svg width="22" height="22" viewBox="0 0 22 22" xmlns="http://www.w3.org/2000/svg">
<path d="M9.21222 2.70312H3.03032C2.46129 2.70312 2 3.15866 2 3.7206V9.82543C2 10.3874 2.46129 10.8429 3.03032 10.8429H9.21222C9.78125 10.8429 10.2425 10.3874 10.2425 9.82543V3.7206C10.2425 3.15866 9.78125 2.70312 9.21222 2.70312Z" fill="white"/>
<path opacity="0.4" d="M20.4651 5.3577L16.8337 1.72628C16.4326 1.32517 15.7808 1.31961 15.3779 1.71386L11.7302 5.28316C11.3273 5.67741 11.3258 6.32219 11.7269 6.7233L15.3583 10.3547C15.7595 10.7558 16.4112 10.7614 16.8142 10.3671L20.4619 6.79785C20.8648 6.40359 20.8662 5.75882 20.4651 5.3577Z" fill="white"/>
<path d="M9.21222 11.8594H3.03032C2.46129 11.8594 2 12.3149 2 12.8768V18.9817C2 19.5436 2.46129 19.9992 3.03032 19.9992H9.21222C9.78125 19.9992 10.2425 19.5436 10.2425 18.9817V12.8768C10.2425 12.3149 9.78125 11.8594 9.21222 11.8594Z" fill="white"/>
<path d="M18.4857 11.8594H12.3038C11.7347 11.8594 11.2734 12.3149 11.2734 12.8768V18.9817C11.2734 19.5436 11.7347 19.9992 12.3038 19.9992H18.4857C19.0547 19.9992 19.516 19.5436 19.516 18.9817V12.8768C19.516 12.3149 19.0547 11.8594 18.4857 11.8594Z" fill="white"/>
</svg>
