<svg width="22" height="22" viewBox="0 0 22 22" fill="none" xmlns="http://www.w3.org/2000/svg">
<path opacity="0.4" fill-rule="evenodd" clip-rule="evenodd" d="M14.1799 7.84189C16.064 9.72604 18.5311 10.6671 21.0004 10.6745C21.0105 8.19517 20.0716 5.71258 18.18 3.82146C16.2937 1.93463 13.8191 0.994693 11.3467 1.00002C11.3483 3.47675 12.2904 5.95238 14.1799 7.84189Z" fill="#F7B500"/>
<path opacity="0.4" fill-rule="evenodd" clip-rule="evenodd" d="M7.7289 14.2914C5.86883 12.4313 3.43816 11.4962 1 11.4727C1.01713 13.9065 1.95118 16.3345 3.80857 18.1914C5.67025 20.0536 8.1068 20.9882 10.5471 21.0005C10.5182 18.5693 9.58415 16.1466 7.7289 14.2914Z" fill="#F7B500"/>
<path fill-rule="evenodd" clip-rule="evenodd" d="M13.0332 8.98885C10.8498 6.80547 9.75034 3.95141 9.72518 1.08984C7.60551 1.36069 5.55488 2.30009 3.92659 3.92839C2.27527 5.58024 1.32998 7.66673 1.0752 9.81905C3.9116 9.86241 6.73462 10.9586 8.89873 13.1233C11.0569 15.281 12.1521 18.0944 12.2014 20.9227C14.3473 20.6642 16.4257 19.7205 18.0722 18.074C19.6952 16.4511 20.6335 14.4079 20.9081 12.2952C18.0545 12.2647 15.2101 11.1658 13.0332 8.98885Z" fill="#F7B500"/>
</svg>
