<svg width="22" height="22" viewBox="0 0 22 22" fill="none" xmlns="http://www.w3.org/2000/svg">
<path opacity="0.4" fill-rule="evenodd" clip-rule="evenodd" d="M7.41699 9.69855C7.41699 9.69855 10.4287 6.68697 10.7623 1.57617C12.899 1.73715 14.2623 2.32801 14.2623 2.32801C14.2623 2.32801 14.6639 4.36933 13.5092 7.20089C12.0237 6.21669 8.64751 8.19995 10.7751 11.3427C10.7751 11.3427 9.81131 12.2472 9.2345 12.6637C8.15941 11.6373 7.41699 9.69855 7.41699 9.69855Z" fill="white"/>
<path fill-rule="evenodd" clip-rule="evenodd" d="M18.8786 6.30103C17.3564 3.70527 15.251 2.63477 15.251 2.63477C15.251 2.63477 15.3372 4.60693 14.4814 7.08686C16.2361 5.27479 18.8786 6.30103 18.8786 6.30103Z" fill="white"/>
<path d="M10.7185 10.0636C10.3773 9.03594 10.9246 7.92849 11.9623 7.5467C12.7043 7.29879 13.5264 7.51854 14.0343 8.10049C14.6212 7.4724 15.4037 7.04926 16.2616 6.89605C17.2663 6.71952 18.302 6.93533 19.1445 7.49675C20.0588 8.10471 20.6915 9.03783 20.9062 10.0953C21.1362 11.1616 20.9395 12.2731 20.3564 13.2031C20.0008 13.7733 19.5054 14.2487 18.9146 14.5867C18.8191 14.6406 18.6978 14.6216 18.6243 14.5413C18.5509 14.461 18.5456 14.3415 18.6117 14.2553C18.6363 14.2215 18.6612 14.1942 18.6855 14.1665C18.7245 14.1283 18.7562 14.0836 18.7791 14.0346C19.0574 13.1041 19.1143 12.1242 18.9455 11.1691C18.7983 10.244 18.2689 9.41768 17.4802 8.88207C16.8081 8.3974 15.9601 8.20468 15.1371 8.34954C15.3474 8.37392 15.5539 8.42357 15.7517 8.49735C16.3878 8.73721 16.9072 9.20244 17.2056 9.79966C17.8833 11.1198 17.3879 12.7254 16.0751 13.4636C15.6965 13.6664 15.2715 13.7733 14.8393 13.7744H14.8046C14.6948 13.7728 14.601 13.6967 14.5796 13.5918C14.5582 13.4869 14.615 13.3817 14.7159 13.3394C14.7789 13.3129 14.8407 13.2837 14.901 13.2517C15.4069 12.9789 15.7586 12.4976 15.8574 11.9429C15.9683 11.3452 15.874 10.7285 15.5891 10.1881C15.4011 9.75657 15.0777 9.39395 14.6653 9.15205C14.1603 9.91481 13.8682 10.7925 13.8177 11.6986C13.78 12.508 13.8941 13.3173 14.1543 14.0869C14.436 14.9447 14.9052 15.9912 15.4328 16.731C13.3783 17.4431 12.1002 17.4431 11.5986 16.731C10.8989 15.7376 11.5175 11.7892 11.7585 11.2599C11.2533 11.0226 10.8753 10.5878 10.7185 10.0636ZM13.298 8.97859C13.2772 8.98466 13.2568 8.99074 13.2363 8.99782C12.6307 9.21742 12.2234 9.77377 12.2078 10.4027L12.2258 10.372C12.5238 9.86689 12.8838 9.39897 13.298 8.97859Z" fill="white"/>
<path fill-rule="evenodd" clip-rule="evenodd" d="M2.29492 6.32218C2.29492 6.32218 4.95624 3.63912 9.12997 4.56085C9.67055 3.29465 9.87052 1.5 9.87052 1.5C9.87052 1.5 5.03941 1.96931 2.29492 6.32218Z" fill="white"/>
<path opacity="0.4" fill-rule="evenodd" clip-rule="evenodd" d="M1.06975 12.5232C1.06975 12.5232 2.20324 8.92448 6.52695 8.66824C7.5955 7.76951 8.75188 5.70501 8.79206 5.47692C8.39772 5.32111 6.84981 5.01089 4.9538 5.7327C3.96469 6.10955 3.14797 6.41742 1.63416 8.01589C0.980047 9.54491 0.916037 11.745 1.06975 12.5232Z" fill="white"/>
<path fill-rule="evenodd" clip-rule="evenodd" d="M6.35532 9.54021C6.35532 9.54021 8.20507 17.0454 18.0874 17.0051C16.8852 18.4942 14.1916 19.9453 14.1916 19.9453C14.1916 19.9453 5.98528 19.5497 3.2207 10.8773C3.88183 10.133 5.00644 9.48671 6.35532 9.54021Z" fill="white"/>
<path opacity="0.4" fill-rule="evenodd" clip-rule="evenodd" d="M1.77245 14.3845C1.77245 14.3845 1.36924 12.7508 2.43031 11.7441C2.58403 12.5157 4.79821 18.5956 12.0229 20.4062C10.0998 20.6747 4.02355 20.7887 1.77245 14.3845Z" fill="white"/>
</svg>
