<svg width="22" height="22" viewBox="0 0 22 22" fill="none" xmlns="http://www.w3.org/2000/svg">
<path opacity="0.4" fill-rule="evenodd" clip-rule="evenodd" d="M1.81934 14.9699L5.96687 13.8202C6.04892 13.7974 6.13542 13.796 6.21816 13.8161L11.1156 15.0026C11.367 15.0635 11.63 15.0584 11.8788 14.9877L15.9882 13.8198C16.0689 13.7969 16.154 13.7946 16.2358 13.8132L20.2797 14.7331C18.8003 18.4065 15.203 20.9993 11 20.9993C6.88803 20.9993 3.3557 18.5174 1.81934 14.9699Z" fill="white"/>
<path fill-rule="evenodd" clip-rule="evenodd" d="M1.46741 14.0304C1.16381 13.0746 1 12.0564 1 11C1 5.47715 5.47715 1 11 1C16.5228 1 21 5.47715 21 11C21 11.9657 20.8631 12.8994 20.6077 13.7828L16.4576 12.8388C16.2123 12.783 15.9568 12.7898 15.7148 12.8586L11.6054 14.0264C11.5225 14.05 11.4348 14.0517 11.351 14.0314L6.45359 12.8449C6.20534 12.7847 5.94584 12.789 5.6997 12.8572L1.46741 14.0304ZM15.0603 7.80042C16.0879 7.80042 16.9202 8.63271 16.9202 9.66032C16.9202 10.6879 16.0879 11.5202 15.0603 11.5202C14.0327 11.5202 13.2004 10.6879 13.2004 9.66032C13.2004 8.63271 14.0349 7.80042 15.0603 7.80042ZM7.14791 6.84162C7.04803 7.16566 7.22559 7.50967 7.54963 7.60955L10.0687 8.51287L10.466 9.27192L6.39995 11.4137C6.88675 11.3885 7.63175 11.7141 8.63494 12.3903C9.11879 12.8741 9.90224 12.7827 10.3928 12.3903C11.6771 11.6786 12.6255 11.4144 13.2381 11.5979L11.902 9.04776L11.1873 7.65172C11.1119 7.50745 10.9831 7.40092 10.8278 7.35209L7.91584 6.43989C7.59402 6.34002 7.24778 6.51757 7.14791 6.84162Z" fill="white"/>
</svg>
