<svg width="22" height="22" viewBox="0 0 22 22" fill="none" xmlns="http://www.w3.org/2000/svg">
<g opacity="0.1">
<path fill-rule="evenodd" clip-rule="evenodd" d="M15.6706 10.8015L11 6.10337V3.90803C11 2.86632 10.1438 2 9.1075 2H2.8575C1.82187 2 1 2.86632 1 3.90803V15.8529C1 16.5476 1.54188 17.0882 2.2325 17.0882L19.75 17.1102C20.375 17.1096 21 16.5476 21 15.8529V13.3382C21 11.9494 19.8637 10.8015 18.4825 10.8015H15.6706ZM13.3 11.8966L14.5769 10.6122C14.8206 10.3671 14.8206 9.96911 14.5769 9.7233C14.3325 9.47749 13.9369 9.47749 13.6925 9.7233L12.4156 11.0077C12.1719 11.2535 12.1719 11.6515 12.4156 11.8966C12.66 12.1424 13.0556 12.1424 13.3 11.8966ZM12.7019 8.72626L10.8 10.6393C10.5556 10.8851 10.16 10.8851 9.9156 10.6393C9.67185 10.3941 9.67185 9.99619 9.9156 9.75038L11.8175 7.83731C12.0619 7.5915 12.4575 7.5915 12.7019 7.83731C12.9456 8.08313 12.9456 8.48108 12.7019 8.72626ZM19.7325 13.3381H2.23248C1.88748 13.3381 1.60748 13.6198 1.60748 13.9668C1.60748 14.3138 1.88748 14.5955 2.23248 14.5955H19.7325C20.0781 14.5955 20.3575 14.3138 20.3575 13.9668C20.3575 13.6198 20.0781 13.3381 19.7325 13.3381ZM8.04064 8.75315C7.79689 8.50797 7.79689 8.11002 8.04064 7.8642L9.94251 5.95114C10.0288 5.86439 10.1356 5.81975 10.2469 5.79397H7.85751C7.51251 5.79397 7.23251 5.51233 7.23251 5.1653C7.23251 4.81827 7.51251 4.53662 7.85751 4.53662H10.3575C10.7031 4.53662 10.9825 4.81827 10.9825 5.1653C10.9825 5.48341 10.7438 5.73614 10.4388 5.77763C10.58 5.7902 10.7188 5.84238 10.8269 5.95114C11.0706 6.19696 11.0706 6.59491 10.8269 6.84009L8.92501 8.75315C8.68064 8.99897 8.28501 8.99897 8.04064 8.75315Z" fill="black"/>
<path d="M19.9688 17.8828H2.4375C1.86796 17.8828 1.40625 18.3569 1.40625 18.9416C1.40625 19.5264 1.86796 20.0005 2.4375 20.0005H19.9688C20.5383 20.0005 21 19.5264 21 18.9416C21 18.3569 20.5383 17.8828 19.9688 17.8828Z" fill="#666666"/>
<path fill-rule="evenodd" clip-rule="evenodd" d="M4.5 17.1094H7.59375V18.9403H4.5V17.1094Z" fill="#666666"/>
<path fill-rule="evenodd" clip-rule="evenodd" d="M13.7812 17.1094H16.875V18.9403H13.7812V17.1094Z" fill="#666666"/>
</g>
</svg>
