<svg width="22" height="22" viewBox="0 0 22 22" fill="none" xmlns="http://www.w3.org/2000/svg">
<g opacity="0.1">
<path d="M17.168 19.3729C14.637 19.4757 12.6388 19.1724 11.1734 18.463C9.08028 17.2095 5.90796 14.9972 2.10247 12.2772C1.49028 11.7003 1.40726 10.839 1.85339 9.69357L3.2959 10.6L1.85339 9.62698C3.04771 7.23799 4.29271 5.29451 5.58839 3.79655C6.49937 2.76119 7.82342 1.4423 8.82568 3.79655C9.39808 5.53499 10.8183 5.53499 12.063 5.65171C13.6542 5.53405 14.0617 4.98202 14.3042 6.71176C14.5 8.37421 15.8139 12.4398 19.0357 14.9275C20.8057 16.5394 20.8588 17.7983 20.0318 18.9028C19.49 19.5136 18.5354 19.6704 17.168 19.3729Z" fill="white"/>
<path d="M15.4083 10.2473C16.1617 11.8563 17.331 13.6122 19.0352 14.9278C20.8053 16.5396 20.8583 17.7985 20.0313 18.903C19.4125 19.5995 18.2559 19.7048 16.5615 19.2188C15.9951 18.9595 15.3704 18.6478 14.6872 18.2837L3.11133 10.476C3.8377 9.18321 4.72393 7.92086 5.77003 6.68895C6.27502 6.0941 7.55155 4.78838 8.31026 6.27011C9.01372 7.64359 10.4982 7.12215 11.5257 7.21839C12.84 7.12192 14.25 6.96308 14.4502 8.39069C14.4975 8.79401 14.8571 9.45899 15.4083 10.2473Z" fill="#D7E4F6"/>
<path d="M18.3783 20C17.5935 20 16.6102 19.784 15.4572 19.3578L15.4077 19.3395L15.3635 19.3096L1.25586 9.79497L1.453 9.4006C2.65991 6.98658 3.93909 4.99118 5.25429 3.47086L5.25694 3.4678C5.75774 2.8993 6.68994 1.84089 7.70856 2.02019C8.32273 2.1282 8.83679 2.65929 9.23681 3.59863L9.24499 3.61793L9.25162 3.63793C9.68789 4.96294 10.6866 5.04977 11.8429 5.14954C11.9175 5.15597 11.9916 5.16248 12.0655 5.16907C12.3771 5.14554 12.6401 5.10319 12.8732 5.06624C13.3771 4.98647 13.7754 4.92365 14.1248 5.16036C14.4024 5.34861 14.6152 5.67286 14.7509 6.64092L14.7522 6.65198C14.8444 7.43461 15.2035 8.80056 15.9351 10.2865C16.5335 11.5026 17.6034 13.2279 19.3003 14.5376L19.3149 14.5489L19.3286 14.5613C20.2592 15.4085 20.7892 16.2085 20.949 17.0048C21.1006 17.7608 20.9106 18.5004 20.3843 19.2032L20.3724 19.2193L20.3591 19.2341C19.9087 19.7423 19.2417 20 18.3783 20Z" fill="black"/>
<path d="M11.4132 5.59439C11.6318 5.61792 11.8501 5.63346 12.0636 5.65346C13.6548 5.5358 14.0624 4.98377 14.3048 6.71351C14.5006 8.37596 15.8145 12.4416 19.0363 14.9293C20.8064 16.5411 20.8594 17.8 20.0324 18.9045C19.3034 19.7251 17.8281 19.7251 15.6065 18.9045L3.5498 10.7711C9.86644 13.755 13.7909 15.2469 15.3232 15.2469C17.106 15.2469 15.8831 13.2277 11.6545 9.18918C11.4843 7.99967 11.4036 6.79759 11.4132 5.59439Z" fill="#666666"/>
<path d="M12.1792 8.56445H14.6686C14.9186 8.56445 15.1212 8.78021 15.1212 9.04636C15.1212 9.31251 14.9186 9.52827 14.6686 9.52827H12.1792C11.9292 9.52827 11.7266 9.31251 11.7266 9.04636C11.7266 8.78021 11.9292 8.56445 12.1792 8.56445Z" fill="white"/>
<path d="M13.0845 10.7324H15.5739C15.6941 10.7322 15.8094 10.7828 15.8945 10.8732C15.9796 10.9636 16.0274 11.0864 16.0274 11.2143C16.0274 11.4805 15.8247 11.6962 15.5747 11.6962H13.0845C12.8345 11.6962 12.6318 11.4805 12.6318 11.2143C12.6318 10.9482 12.8345 10.7324 13.0845 10.7324ZM14.2151 12.6603H16.7054C16.8255 12.6603 16.9406 12.7111 17.0255 12.8014C17.1103 12.8918 17.158 13.0144 17.158 13.1422C17.158 13.4084 16.9554 13.6241 16.7054 13.6241H14.2151C13.9651 13.6241 13.7625 13.4084 13.7625 13.1422C13.7625 13.0144 13.8102 12.8918 13.8951 12.8014C13.98 12.7111 14.0951 12.6603 14.2151 12.6603Z" fill="white"/>
<path d="M16.2485 19.8736C14.0879 19.8736 12.3214 19.5477 10.9863 18.9014L10.9686 18.8929L10.9516 18.8828C8.68566 17.5258 5.23798 15.0986 1.84996 12.6768L1.82476 12.6589L1.80266 12.6375C1.39049 12.249 1.12462 11.7706 1.03401 11.2541C0.927482 10.6466 1.07224 10.007 1.45392 9.40625L2.20534 9.94487C1.94367 10.3583 1.62188 11.1579 2.38214 11.8953C8.05734 15.9518 10.1189 17.2775 11.3777 18.0324C12.443 18.5439 13.8268 18.9106 15.5137 18.8969C15.741 19.0325 15.9859 19.1468 16.2485 19.2398L17.27 19.8506C16.9203 19.866 16.5798 19.8736 16.2485 19.8736Z" fill="black"/>
</g>
</svg>
