<svg width="22" height="22" viewBox="0 0 22 22" fill="none" xmlns="http://www.w3.org/2000/svg">
<path fill-rule="evenodd" clip-rule="evenodd" d="M15.3048 14.8845C17.0085 13.8195 18.9181 13.4387 20.6375 13.6821C19.5155 17.7334 15.9101 20.7506 11.5645 20.992C11.6279 18.7009 12.9767 16.3398 15.3048 14.8845Z" fill="#666666"/>
<path fill-rule="evenodd" clip-rule="evenodd" d="M1 11.004C1 16.3937 5.26049 20.7879 10.5961 21C10.5527 18.5263 12.075 15.8484 14.735 14.1856C16.7141 12.9484 18.9219 12.5239 20.8301 12.8502C20.9417 12.2519 21 11.6348 21 11.004C21 5.47895 16.5228 1 11 1C5.47715 1 1 5.47895 1 11.004ZM13.3405 12.0402C11.2753 14.3347 7.74695 14.5246 5.45966 12.4643C3.17236 10.404 2.99232 6.87365 5.05751 4.5791C7.1227 2.28455 10.6511 2.09467 12.9384 4.15498C15.2257 6.2153 15.4057 9.74561 13.3405 12.0402Z" fill="black"/>
<path d="M7.74556 5.37639C7.91688 5.07952 8.15922 4.84643 8.47257 4.67712C8.78592 4.5078 9.14453 4.43489 9.54841 4.45837C9.95228 4.48185 10.3634 4.61443 10.7818 4.8561C11.135 5.06006 11.4185 5.28518 11.6325 5.53146C11.8464 5.77775 11.9957 6.0332 12.0804 6.29783C12.1651 6.56246 12.1918 6.8213 12.1605 7.07436C12.1292 7.32742 12.0476 7.56824 11.9156 7.79683C11.7477 8.08776 11.5229 8.30424 11.2411 8.44627C10.9593 8.5883 10.6281 8.64635 10.2474 8.62042C10.4431 8.86407 10.5782 9.1133 10.6527 9.3681C10.7273 9.62291 10.7464 9.87938 10.7102 10.1375C10.674 10.3957 10.5822 10.6524 10.4349 10.9077C10.219 11.2817 9.93274 11.5686 9.57612 11.7684C9.21949 11.9681 8.81641 12.0529 8.36688 12.0229C7.91735 11.9928 7.45519 11.8407 6.98039 11.5664C6.48779 11.2819 6.1161 10.9524 5.86531 10.578C5.61451 10.2036 5.48704 9.81429 5.48289 9.41013C5.47874 9.00597 5.5846 8.61687 5.80047 8.24282C6.26134 7.44425 6.9543 7.11421 7.87937 7.25268C7.43551 6.61633 7.39091 5.9909 7.74556 5.37639ZM9.23579 10.1676C9.36943 9.93607 9.43845 9.70678 9.44286 9.47975C9.44727 9.25272 9.38998 9.04349 9.27097 8.85205C9.15197 8.66061 8.98564 8.50319 8.77198 8.37978C8.4693 8.20496 8.15733 8.15935 7.83608 8.24296C7.51482 8.32656 7.24968 8.54945 7.04066 8.91163C6.90703 9.14319 6.83746 9.37513 6.83196 9.60747C6.82647 9.83981 6.87897 10.0522 6.98946 10.2447C7.09996 10.4371 7.25759 10.5925 7.46234 10.7108C7.67007 10.8307 7.88528 10.8897 8.108 10.8877C8.33072 10.8858 8.54095 10.8231 8.73871 10.6999C8.93646 10.5766 9.10216 10.3992 9.23579 10.1676ZM10.3177 5.72204C10.0387 5.56093 9.76385 5.51793 9.49299 5.59305C9.22213 5.66816 9.0079 5.84227 8.85028 6.11539C8.70465 6.36773 8.67098 6.62832 8.74926 6.89717C8.82754 7.16603 9.00466 7.38015 9.28064 7.53955C9.42011 7.6201 9.55982 7.67111 9.69977 7.69257C9.83971 7.71403 9.97319 7.70899 10.1002 7.67745C10.2272 7.64591 10.3442 7.58882 10.4513 7.50618C10.5583 7.42353 10.6495 7.3169 10.7249 7.18628C10.826 7.01112 10.8775 6.83108 10.8794 6.64613C10.8813 6.46118 10.8341 6.2875 10.7379 6.12508C10.6418 5.96265 10.5017 5.82831 10.3177 5.72204Z" fill="#666666"/>
</svg>
