<svg width="22" height="22" viewBox="0 0 22 22" xmlns="http://www.w3.org/2000/svg">
<g opacity="0.1">
<path fill-rule="evenodd" clip-rule="evenodd" d="M10.2302 2.21289C11.4585 2.21289 12.6307 2.45705 13.7026 2.90029L12.5274 4.05457L13.1928 6.21078C12.2992 5.70158 11.2848 5.42664 10.2302 5.42664C6.87645 5.42664 4.1577 8.1936 4.1577 11.6068C4.1577 15.02 6.87645 17.787 10.2302 17.787C13.5839 17.787 16.3027 15.02 16.3027 11.6068C16.3027 10.6736 16.0986 9.77028 15.7147 8.95061L17.9268 9.745L19.0055 8.6859C19.3007 9.60525 19.4604 10.587 19.4604 11.6068C19.4604 16.7948 15.3279 21.0006 10.2302 21.0006C5.1325 21.0006 1 16.7948 1 11.6068C1 6.41867 5.1325 2.21289 10.2302 2.21289ZM10.2302 6.90988C7.68135 6.90988 5.6151 9.01277 5.6151 11.6068C5.6151 14.2009 7.68135 16.3037 10.2302 16.3037C12.779 16.3037 14.8453 14.2009 14.8453 11.6068C14.8453 10.8551 14.6719 10.1309 14.3465 9.48018L12.1734 11.6159C12.1685 12.704 11.3004 13.5845 10.2302 13.5845C9.15699 13.5845 8.28699 12.699 8.28699 11.6068C8.28699 10.5146 9.15699 9.62915 10.2302 9.62915C10.3747 9.62915 10.5155 9.6452 10.6509 9.67563L12.7145 7.64755C11.9814 7.16977 11.126 6.90988 10.2302 6.90988Z" fill="black"/>
<path d="M10.1718 12.6066C10.7084 12.6066 11.1434 12.1638 11.1434 11.6177C11.1434 11.0716 10.7084 10.6289 10.1718 10.6289C9.63519 10.6289 9.2002 11.0716 9.2002 11.6177C9.2002 12.1638 9.63519 12.6066 10.1718 12.6066Z" fill="#666666"/>
<path fill-rule="evenodd" clip-rule="evenodd" d="M15.0332 7.75778L10.2716 12.2783L9.59668 11.567L14.2806 7.02145L13.4924 4.31446L16.8047 1L17.2727 4.71025L20.9997 5.69369L17.6289 8.70238L15.0332 7.75778Z" fill="#666666"/>
</g>
</svg>
