<svg width="22" height="22" viewBox="0 0 22 22" fill="none" xmlns="http://www.w3.org/2000/svg">
<mask id="mask0_12_1582" style="mask-type:alpha" maskUnits="userSpaceOnUse" x="1" y="1" width="20" height="20">
<path d="M11 21C16.5228 21 21 16.5228 21 11C21 5.47715 16.5228 1 11 1C5.47715 1 1 5.47715 1 11C1 16.5228 5.47715 21 11 21Z" fill="white"/>
</mask>
<g mask="url(#mask0_12_1582)">
<path d="M11 21C16.5228 21 21 16.5228 21 11C21 5.47715 16.5228 1 11 1C5.47715 1 1 5.47715 1 11C1 16.5228 5.47715 21 11 21Z" fill="black"/>
<path d="M24.6839 6.78906H17.3154V15.2101H24.6839V6.78906Z" fill="#666666" stroke="white"/>
<path d="M4.68385 6.78906H-2.68457V15.2101H4.68385V6.78906Z" fill="#666666" stroke="white"/>
<path fill-rule="evenodd" clip-rule="evenodd" d="M11.5263 14.6841V20.9999H10.4736V14.6841H11.5263ZM11.5263 -0.0527344V8.36832H10.4736V-0.0527344H11.5263Z" fill="white"/>
<path d="M11.0339 14.2201C12.7779 14.2201 14.1918 12.8062 14.1918 11.0622C14.1918 9.31814 12.7779 7.9043 11.0339 7.9043C9.28981 7.9043 7.87598 9.31814 7.87598 11.0622C7.87598 12.8062 9.28981 14.2201 11.0339 14.2201Z" stroke="white"/>
</g>
</svg>
