<svg width="22" height="22" viewBox="0 0 22 22" fill="none" xmlns="http://www.w3.org/2000/svg">
<path d="M12.4988 3.63771C12.9063 4.78114 13.1914 6.14114 13.3348 7.62856C14.4637 7.66558 15.5872 7.80114 16.6926 8.03371C16.7388 7.73142 16.8074 7.46628 16.8823 7.24228C17.104 6.57714 17.4651 5.99885 17.9286 5.56742C18.2223 5.28825 18.5716 5.07408 18.9537 4.93885C18.6822 4.58338 18.3874 4.24626 18.0714 3.92971C17.1603 3.01673 16.0808 2.2892 14.8926 1.78743C13.6709 1.26882 12.3575 1.00104 11.0303 1C11.616 1.66 12.1086 2.54228 12.4988 3.63771Z" fill="black"/>
<path d="M19.6256 6.04763C18.9931 6.09906 18.3468 6.74992 18.0542 7.62992C17.9784 7.86015 17.9256 8.0973 17.8965 8.33792C18.9475 8.64423 19.9581 9.0751 20.9068 9.62134C20.7881 8.75651 20.5552 7.91123 20.2142 7.10763C20.0588 6.74154 19.8823 6.38476 19.6856 6.03906C19.6657 6.04264 19.6457 6.0455 19.6256 6.04763Z" fill="#666666"/>
<path d="M6.20929 5.16429C7.16701 5.69629 7.84929 6.53172 8.18472 7.58029C8.22072 7.69571 8.25329 7.81229 8.28072 7.93C9.29485 7.7813 10.3157 7.68289 11.3396 7.63514C11.5933 7.62543 11.8447 7.618 12.0933 7.61514C11.9561 6.28257 11.6984 5.07 11.3356 4.05286C10.8407 2.66429 10.1584 1.67172 9.36357 1.18429C9.34284 1.17204 9.32315 1.15808 9.30472 1.14258C7.004 1.53852 4.91443 2.72724 3.39844 4.50257C4.47558 4.50372 5.41958 4.72543 6.20929 5.16429Z" fill="black"/>
<path d="M20.9866 11.1277C20.0455 10.4854 19.0232 9.99801 17.9443 9.64258C17.9906 9.89915 18.0615 10.1706 18.1615 10.458C18.5718 11.6294 19.3826 12.7866 20.5729 13.9014C20.8443 13.0089 20.9878 12.0831 21.0003 11.1369C20.9955 11.1341 20.991 11.1311 20.9866 11.1277Z" fill="#666666"/>
<path d="M12.1982 9.1257L12.1867 8.8457C10.9353 8.86056 9.66903 8.97427 8.41646 9.15827C8.41418 9.42056 8.39418 9.68799 8.35532 9.9617C8.23703 10.8057 7.94789 11.6583 7.49932 12.4983C6.55818 14.2571 4.99818 15.8017 2.98047 16.9743C3.27016 17.3622 3.58756 17.7287 3.93018 18.0708C4.84106 18.9841 5.92068 19.7116 7.10904 20.2131C7.96122 20.5738 8.85962 20.8136 9.77818 20.9257C11.4353 17.6434 12.3405 13.232 12.1982 9.1257Z" fill="black"/>
<path d="M7.05915 8.12895C7.04431 8.07012 7.02754 8.01181 7.00886 7.95409C6.49172 6.33295 4.88886 5.53923 2.61058 5.77809C2.56401 5.78286 2.51706 5.78248 2.47058 5.77695C1.74432 6.95908 1.27365 8.28019 1.08887 9.65523C3.16887 8.98152 5.16429 8.4718 7.05915 8.12895Z" fill="#666666"/>
<path d="M20.0573 15.1012C18.5407 13.7612 17.511 12.3349 16.9973 10.8664C16.8158 10.3561 16.7002 9.82478 16.6533 9.28523C15.5911 9.0477 14.5095 8.90713 13.4218 8.86523L13.431 9.08238C13.5019 11.1327 13.3236 13.3149 12.9121 15.3978C12.5081 17.4424 11.9036 19.3235 11.1133 21.0001C13.7269 20.9741 16.2259 19.9228 18.0721 18.0727C18.9209 17.2259 19.6099 16.2328 20.1058 15.1412C20.0885 15.1293 20.0723 15.1159 20.0573 15.1012Z" fill="black"/>
<path d="M6.41031 11.9153C6.8686 11.0581 7.12745 10.1781 7.17259 9.36328C5.05888 9.75185 3.01488 10.3181 1.18517 10.9233C1.12532 10.9426 1.06293 10.953 1.00001 10.9541V10.9993C0.997031 12.7314 1.44653 14.4343 2.30403 15.9393C4.63145 14.6016 5.82117 13.017 6.41031 11.9153Z" fill="#666666"/>
</svg>
