<svg width="22" height="22" viewBox="0 0 22 22" fill="none" xmlns="http://www.w3.org/2000/svg">
<mask id="mask0_12_1621" style="mask-type:alpha" maskUnits="userSpaceOnUse" x="0" y="0" width="22" height="22">
<path d="M22 0H0V22H22V0Z" fill="white"/>
</mask>
<g mask="url(#mask0_12_1621)">
<path d="M8.35934 13.6408C10.9074 16.1889 15.4216 15.691 18.4579 12.6548C21.4941 9.61852 21.992 5.10426 19.4439 2.55624C16.8959 0.00821115 12.3817 0.506045 9.3454 3.5423C6.30914 6.57855 5.81131 11.0928 8.35934 13.6408ZM8.93791 13.0623C6.7411 10.8655 7.18258 6.86226 9.92397 4.12087C12.6654 1.37948 16.6686 0.938002 18.8654 3.13481C21.0622 5.33161 20.6207 9.33481 17.8793 12.0762C15.1379 14.8176 11.1347 15.2591 8.93791 13.0623Z" fill="#F7B500"/>
<path opacity="0.4" fill-rule="evenodd" clip-rule="evenodd" d="M11.3281 8.68359L13.317 10.6724L10.089 13.9004C9.66906 13.6847 9.28155 13.4057 8.93818 13.0624C8.59481 12.719 8.31589 12.3315 8.10014 11.9116L11.3281 8.68359Z" fill="#F7B500"/>
<path opacity="0.4" fill-rule="evenodd" clip-rule="evenodd" d="M12.0045 8.00718L14.0352 5.97656L16.024 7.9654L13.9934 9.99601L12.0045 8.00718Z" fill="#F7B500"/>
<path fill-rule="evenodd" clip-rule="evenodd" d="M16.0942 13.4507C14.4399 14.4041 12.6052 14.694 11.0452 14.2702L13.9795 11.3359L16.0942 13.4507Z" fill="#F7B500"/>
<path fill-rule="evenodd" clip-rule="evenodd" d="M16.9116 12.9123L14.6569 10.6576L16.6875 8.62695L18.9046 10.8441C18.6097 11.274 18.2677 11.6873 17.8797 12.0754C17.5715 12.3836 17.2473 12.6627 16.9116 12.9123Z" fill="#F7B500"/>
<path fill-rule="evenodd" clip-rule="evenodd" d="M8.5498 5.90625L10.6645 8.02098L7.73025 10.9553C7.30645 9.39524 7.59636 7.56054 8.5498 5.90625Z" fill="#F7B500"/>
<path fill-rule="evenodd" clip-rule="evenodd" d="M9.08673 5.08839C9.33631 4.75265 9.61544 4.42851 9.92364 4.12031C10.3117 3.73226 10.725 3.39029 11.1549 3.09537L13.3721 5.31249L11.3414 7.34311L9.08673 5.08839Z" fill="#F7B500"/>
<path opacity="0.4" fill-rule="evenodd" clip-rule="evenodd" d="M19.7035 4.28584L16.7012 7.2882L14.7124 5.29936L17.7147 2.297C18.1346 2.51275 18.5221 2.79167 18.8655 3.13504C19.2089 3.47841 19.4878 3.86592 19.7035 4.28584Z" fill="#F7B500"/>
<path fill-rule="evenodd" clip-rule="evenodd" d="M20.0723 5.24219C20.4713 6.71122 20.2375 8.42382 19.4128 9.99999L17.3636 7.95084L20.0723 5.24219Z" fill="#F7B500"/>
<path fill-rule="evenodd" clip-rule="evenodd" d="M16.7581 1.92805L14.0495 4.63671L12.0003 2.58756C13.5765 1.76277 15.2891 1.52897 16.7581 1.92805Z" fill="#F7B500"/>
<path fill-rule="evenodd" clip-rule="evenodd" d="M8.65448 13.5478L11.0456 15.0905C9.26889 14.9939 8.11293 15.4973 7.22573 16.3845L5.92595 15.0905L6.10889 14.8654C6.99609 13.9782 7.21129 13.0896 7.05047 11.4593L8.65448 13.5478Z" fill="#F7B500"/>
<path d="M6.72625 14.4811L7.8524 15.6073C8.3317 16.0866 8.3317 16.8637 7.8524 17.343L5.02154 20.1738C4.54224 20.6532 3.76513 20.6532 3.28583 20.1739L2.15968 19.0477C1.68038 18.5684 1.68038 17.7913 2.15968 17.312L4.99054 14.4811C5.46985 14.0018 6.24695 14.0018 6.72625 14.4811ZM3.60611 18.1799L4.15368 18.7274L6.40597 16.4751L5.8584 15.9276L3.60611 18.1799Z" fill="#F7B500"/>
</g>
</svg>
