<svg width="22" height="22" viewBox="0 0 22 22" fill="none" xmlns="http://www.w3.org/2000/svg">
<path fill-rule="evenodd" clip-rule="evenodd" d="M4.29037 14.6955L5.46111 14.7568L7.0834 20.8795L5.67328 20.9901C3.99836 21.1208 2.49883 19.9451 2.20743 18.2727L2.03335 17.2737C1.82488 16.0772 2.61539 14.9365 3.799 14.7258C3.96113 14.6969 4.12597 14.6868 4.29037 14.6955ZM6.60357 14.8172L7.66769 14.8733L9.21491 20.7135L8.18669 20.7938L6.60357 14.8172ZM8.81015 14.9338L9.87536 14.9899L11.3475 20.5474L10.3193 20.6277L8.81015 14.9338ZM17.5853 11.9984L16.1593 17.7643C16.1255 17.9012 16.067 18.0267 15.9895 18.1364C15.5422 19.1268 14.6949 19.9274 13.585 20.2746C13.3066 20.3616 13.0195 20.417 12.729 20.4397L12.4508 20.4616L11.0167 15.0493L11.1572 15.0522C12.0797 15.0269 12.8949 14.4121 13.174 13.5095L13.64 11.9984H17.5853ZM18.1294 9.79869L17.8573 10.8985H13.9806L14.3201 9.79869H18.1294ZM18.9119 1C19.5129 1 20 1.49241 20 2.09984C20 2.18976 19.9891 2.27935 19.9675 2.36659L18.4014 8.69885H14.6606L16.8027 1.77178C16.9447 1.31263 17.3654 1 17.8413 1H18.9119Z" fill="#F7B500"/>
<path fill-rule="evenodd" clip-rule="evenodd" d="M3.38965 10.1094L10.4515 7.22533L11.2666 9.26483C11.7169 10.3912 10.501 11.95 8.55092 12.7464C6.60086 13.5428 4.65505 13.2753 4.20484 12.1489L3.38965 10.1094Z" fill="#F7B500"/>
<path d="M7.73549 10.7073C9.68556 9.91089 10.9014 8.35216 10.4512 7.22577C10.001 6.09939 8.05518 5.83189 6.10512 6.62829C4.15506 7.4247 2.93919 8.98343 3.38941 10.1098C3.83962 11.2362 5.78543 11.5037 7.73549 10.7073Z" fill="#F2D78F"/>
<path d="M9.49589 8.60796C10.0531 8.38042 10.3222 7.7394 10.0971 7.17621C9.87202 6.61301 9.23787 6.34092 8.6807 6.56846C8.12354 6.79601 7.85436 7.43703 8.07947 8.00022C8.30458 8.56341 8.93873 8.83551 9.49589 8.60796Z" fill="white"/>
</svg>
