<svg width="22" height="22" viewBox="0 0 22 22" fill="none" xmlns="http://www.w3.org/2000/svg">
<path opacity="0.4" d="M11.0004 1C16.5232 1 21.0004 5.47715 21.0004 11C21.0004 14.258 19.4424 17.152 17.0308 18.9778L16.8066 12.777L12.9021 7.48436C10.8998 5.15504 9.78661 3.02774 9.5625 1.10247C10.0331 1.03491 10.5127 1 11.0004 1Z" fill="white"/>
<path d="M10.5985 5.29702C11.4523 6.69305 13.4509 8.34357 14.8977 10.1731C16.9904 12.8209 16.7491 14.331 16.9881 18.1038C17.0663 14.1884 17.6891 12.1555 14.9138 9.20892C13.5623 7.77472 12.1477 6.92545 10.9915 5.09591C9.83545 3.26521 9.61364 1.65633 9.61364 1.65633C9.61364 1.59132 9.25139 3.09427 10.5985 5.29702Z" fill="white" stroke="white" stroke-width="0.5" stroke-linejoin="round"/>
<path fill-rule="evenodd" clip-rule="evenodd" d="M12.9017 7.48437C10.8998 5.15547 9.78663 3.02852 9.56225 1.10352L9.32338 1.13995C4.59876 1.93751 1 6.04849 1 11C1 16.5229 5.47715 21 11 21C13.2649 21 15.3539 20.2471 17.0304 18.9778C17.0304 18.9778 17.278 15.2948 16.5 13C15.6753 10.5675 12.9017 7.48437 12.9017 7.48437ZM5.42078 10.5363L5.49759 10.5712C5.56131 10.5999 5.6089 10.6215 5.64666 10.6391C5.61733 10.669 5.58107 10.7051 5.5373 10.7473L5.51993 10.764C5.1473 11.1235 5.00391 11.3424 5.03854 11.7045C5.07724 12.1045 5.21568 12.3043 5.5089 12.472C5.41685 12.6086 5.37867 12.7154 5.37867 12.8701C5.37867 13.1236 5.49891 13.2741 5.73628 13.4317L5.77073 13.4542L5.8033 13.4752L5.83272 13.4941L5.85884 13.5112C5.95103 13.5724 5.98336 13.608 5.98437 13.6184C5.99446 13.725 5.97123 13.8758 5.91467 14.0881C5.90097 14.1395 5.89079 14.1755 5.86506 14.2644L5.84879 14.32C5.77258 14.5821 5.74468 14.6903 5.72497 14.826L5.72119 14.8621C5.69234 15.1494 5.81375 15.4767 6.03197 15.7453C6.26805 16.0338 6.58887 16.2288 6.93149 16.266C7.54918 16.2582 8.00064 16.2073 8.65131 16.0976L8.70686 16.0881L8.70805 16.0879L8.71112 16.0874C8.85042 16.0637 8.93446 16.0494 8.99584 16.0391C9.12279 16.018 9.22543 16.002 9.32359 15.9884C10.0854 15.8827 10.6937 15.9213 11.5765 16.1842C11.8946 16.2789 12.0536 15.8142 11.7441 15.6943C10.8851 15.3612 10.4654 15.2368 10.0237 15.2002L9.95711 15.1945C9.88896 15.1886 9.83389 15.1839 9.77871 15.1816C9.54624 15.172 9.31197 15.2059 8.09078 15.3824L7.94283 15.4038C7.55826 15.435 7.21814 15.4416 7.0189 15.4204L7.01876 15.4202C7.0181 15.4193 7.01646 15.4191 6.99407 15.4168C6.89735 15.402 6.77571 15.323 6.6785 15.2041C6.59551 15.102 6.55173 14.9938 6.55647 14.9457L6.5544 14.9587C6.56727 14.8686 6.58859 14.7872 6.65427 14.5615C6.7993 14.071 6.8479 13.8292 6.81968 13.5365C6.78939 13.2149 6.6292 13.0106 6.34719 12.8198L6.31633 12.7993C6.35011 12.7544 6.36419 12.7332 6.38545 12.6969C6.56575 12.3935 6.5273 12.0945 6.20265 11.8868L6.20254 11.8867L6.2025 11.8867L6.20246 11.8867C6.18021 11.8726 6.18015 11.8725 6.15772 11.8591C6.11292 11.8327 6.07223 11.8112 6.00158 11.7751L5.99556 11.772C5.92988 11.7387 5.90232 11.7247 5.8892 11.7022C5.87971 11.686 5.87777 11.6654 5.87443 11.6298L5.87395 11.6246C5.87348 11.6199 5.94025 11.5334 6.11503 11.3654C6.41592 11.0767 6.52966 10.9308 6.57346 10.6775C6.64886 10.2414 6.43631 10.0654 5.83849 9.79603L5.78887 9.77368C5.683 9.72582 5.60231 9.68483 5.5476 9.65481C5.62485 9.58234 5.71768 9.50665 5.93951 9.33187C6.4977 8.89217 6.86777 8.4497 7.09356 7.9699C7.34766 7.42995 7.40047 7.00977 7.41399 6.0287C7.42754 5.04496 7.48099 4.51774 7.70225 3.8703C7.58768 7.71875 8.91113 9.00079 10.2739 10.3209C10.9238 10.9505 11.5826 11.5887 12.0987 12.5181C13.6455 15.3049 12.3883 16.831 10.3748 18.8732C10.3748 18.8732 12.4388 17.5551 13.0697 15.9565C13.8558 13.9672 12.918 12.1963 11.9136 11.0724C11.6524 10.7802 11.3737 10.4904 11.0891 10.1944L11.0891 10.1944C9.58322 8.62853 7.91033 6.88891 7.76355 3.69914L7.7774 3.66236C7.81209 3.571 7.79701 3.48938 7.75484 3.42768C7.75159 3.25021 7.75297 3.06837 7.75924 2.88196C7.74475 3.05582 7.73281 3.22511 7.72333 3.38999C7.61157 3.27939 7.40144 3.26747 7.30569 3.44999C6.80658 4.40134 6.62118 4.96193 6.57578 5.57231C6.5647 5.72136 6.5616 5.84088 6.559 6.11123C6.55486 6.54069 6.50558 7.25819 6.4683 7.39651C6.40458 7.63294 6.2895 7.87015 6.10983 8.09238C5.94295 8.29878 5.72748 8.48241 5.45641 8.63724C4.84555 8.98615 4.49638 9.45167 4.68746 9.92295C4.79899 10.1994 5.00793 10.3474 5.42078 10.5363ZM11.7195 9.25948C10.8647 8.45388 9.9888 7.62846 9.34976 6.58467C8.14193 4.61263 8.64646 2.60266 8.64646 2.60266C8.4678 5.31572 10.247 7.03449 12.002 8.72993C13.1752 9.86337 14.3377 10.9864 14.8972 12.3891C15.2128 13.18 15.3366 14.0599 15.1625 15.0808C14.6246 18.233 12.2665 20.343 12.2665 20.343C12.2665 20.343 13.7742 18.5525 14.3982 16.0783C15.2732 12.6083 13.5443 10.9791 11.7195 9.25948Z" fill="white"/>
</svg>
