<svg width="22" height="22" viewBox="0 0 22 22" xmlns="http://www.w3.org/2000/svg">
<mask id="mask0_12_1569" style="mask-type:alpha" maskUnits="userSpaceOnUse" x="0" y="0" width="22" height="22">
<path d="M22 0H0V22H22V0Z" fill="white"/>
</mask>
<g mask="url(#mask0_12_1569)">
<path fill-rule="evenodd" clip-rule="evenodd" d="M17.7807 14.9282C14.898 19.9384 7.71799 21.1941 5.78073 20.0718C3.84347 18.9495 1.33719 12.082 4.21988 7.0718C7.10257 2.06158 14.2826 0.80586 16.2199 1.9282C18.1571 3.05055 20.6634 9.91799 17.7807 14.9282ZM13.7343 7.53741L14.3419 6.48149L13.3733 5.92032L12.7651 6.97594L10.3124 5.5551L9.73242 6.56307L12.1853 7.98382L11.0255 9.99957L8.57252 8.57903L7.99256 9.58701L10.4456 11.0074L9.28578 13.0232L6.83266 11.603L6.2527 12.6109L8.70588 14.0311L8.15371 14.9921L9.12234 15.5533L9.67503 14.5926L12.0645 15.978L12.6445 14.97L10.2549 13.5847L11.4147 11.5689L13.8044 12.954L14.3843 11.9461L11.9946 10.561L13.1544 8.54529L15.5442 9.9301L16.1242 8.92213L13.7343 7.53741Z" fill="black"/>
<path fill-rule="evenodd" clip-rule="evenodd" d="M12.5866 19.3545C9.79526 20.5743 6.90478 20.724 5.78039 20.0726C4.65601 19.4212 3.33994 16.8345 2.99707 13.7988L12.5866 19.3545Z" fill="#666666"/>
<path fill-rule="evenodd" clip-rule="evenodd" d="M16.2196 1.92838C17.2436 2.5216 18.4265 4.71982 18.8886 7.40047L9.93751 2.43026C12.5592 1.41107 15.1655 1.31769 16.2196 1.92838Z" fill="#666666"/>
</g>
</svg>
