<svg width="22" height="22" viewBox="0 0 22 22" xmlns="http://www.w3.org/2000/svg">
<path fill-rule="evenodd" clip-rule="evenodd" d="M2.15104 15.6622C1.41609 14.2701 1 12.6837 1 11C1 5.47715 5.47715 1 11 1C13.7747 1 16.2854 2.13007 18.0971 3.95507C15.52 11.4622 10.2517 15.3116 2.15104 15.6622Z" fill="#F7B500"/>
<path opacity="0.4" fill-rule="evenodd" clip-rule="evenodd" d="M18.9968 4.99414C16.2499 12.3391 10.8744 16.2823 2.87012 16.8235C4.68482 19.3522 7.65008 20.9995 11.0001 20.9995C16.5229 20.9995 21.0001 16.5224 21.0001 10.9995C21.0001 8.74589 20.2546 6.66638 18.9968 4.99414ZM18.6652 14.8608C18.6652 15.5512 18.1055 16.1108 17.4152 16.1108C16.7248 16.1108 16.1652 15.5512 16.1652 14.8608C16.1652 14.1705 16.7248 13.6108 17.4152 13.6108C18.1055 13.6108 18.6652 14.1705 18.6652 14.8608ZM15.6125 18.4304C16.1647 18.4304 16.6125 17.9827 16.6125 17.4304C16.6125 16.8781 16.1647 16.4304 15.6125 16.4304C15.0602 16.4304 14.6125 16.8781 14.6125 17.4304C14.6125 17.9827 15.0602 18.4304 15.6125 18.4304ZM15.0279 14.5566C15.0279 15.1089 14.5802 15.5566 14.0279 15.5566C13.4756 15.5566 13.0279 15.1089 13.0279 14.5566C13.0279 14.0044 13.4756 13.5566 14.0279 13.5566C14.5802 13.5566 15.0279 14.0044 15.0279 14.5566ZM19.7267 12.0693C20.279 12.0693 20.7267 11.6216 20.7267 11.0693C20.7267 10.5171 20.279 10.0693 19.7267 10.0693C19.1744 10.0693 18.7267 10.5171 18.7267 11.0693C18.7267 11.6216 19.1744 12.0693 19.7267 12.0693ZM18.3393 11.5121C18.3393 12.0644 17.8916 12.5121 17.3393 12.5121C16.787 12.5121 16.3393 12.0644 16.3393 11.5121C16.3393 10.9598 16.787 10.5121 17.3393 10.5121C17.8916 10.5121 18.3393 10.9598 18.3393 11.5121Z" fill="#F7B500"/>
</svg>
