<svg width="22" height="22" viewBox="0 0 22 22" xmlns="http://www.w3.org/2000/svg">
<path fill-rule="evenodd" clip-rule="evenodd" d="M7.76771 1C7.93743 1 8.11164 1.0775 8.23121 1.19375C8.35143 1.31063 8.42857 1.4825 8.42857 1.64688V2.27188C8.42857 3.65125 9.71429 4.76938 11 4.77188C12.2857 4.76938 13.5714 3.65125 13.5714 2.27188V1.64688C13.5714 1.4825 13.6312 1.31063 13.7508 1.19375C13.8704 1.0775 14.0272 1 14.1963 1H16.7677C16.9374 1 17.1116 1.0775 17.2312 1.19375C17.3514 1.31063 17.4286 1.4825 17.4286 1.64688V4.64C17.4286 6.66938 18.614 8.7075 19.8592 10.2163C19.9505 10.3269 20 10.4644 20 10.6063V20.3969C20 20.5613 19.9229 20.7113 19.8026 20.8281C19.6831 20.9444 19.5089 21 19.3391 21H2.62486C2.45579 21 2.29893 20.9444 2.17936 20.8281C2.05979 20.7113 2 20.5613 2 20.3969V10.6063C2 10.4394 2.06814 10.28 2.18964 10.1625C3.69393 8.71125 4.57143 6.735 4.57143 4.64V1.64688C4.57143 1.4825 4.63121 1.31063 4.75079 1.19375C4.87036 1.0775 5.02721 1 5.19629 1H7.76771ZM13.5534 12.8969V10.3969C13.5528 10.0519 13.2654 9.77248 12.9106 9.77185C12.5564 9.77248 12.2684 10.0519 12.2677 10.3969V12.8969C12.2684 13.2419 12.5564 13.5212 12.9106 13.5219C13.2654 13.5212 13.5528 13.2419 13.5534 12.8969ZM10.982 12.8969V10.3969C10.9827 9.36123 11.8454 8.52248 12.9106 8.52185C13.9764 8.52248 14.8392 9.36123 14.8392 10.3969V12.8969C14.8392 13.9325 13.9764 14.7712 12.9106 14.7719C11.8454 14.7712 10.9827 13.9325 10.982 12.8969ZM8.59894 8.70497L7.31323 9.95497C7.06252 10.1993 7.06252 10.595 7.31323 10.8387C7.56459 11.0831 7.97152 11.0831 8.22287 10.8387L8.41059 10.6556V14.1468C8.41059 14.4918 8.69859 14.7718 9.05344 14.7718C9.40894 14.7718 9.6963 14.4918 9.6963 14.1468V9.14685C9.6963 8.89435 9.54009 8.66622 9.29966 8.56935C9.05987 8.47247 8.7828 8.52622 8.59894 8.70497ZM18.6963 18.5219H3.26773V17.2719H18.6963V18.5219Z" fill="white"/>
</svg>
