<svg width="22" height="22" viewBox="0 0 22 22" fill="none" xmlns="http://www.w3.org/2000/svg">
<path d="M9.21222 2.70312H3.03032C2.46129 2.70312 2 3.15866 2 3.7206V9.82543C2 10.3874 2.46129 10.8429 3.03032 10.8429H9.21222C9.78125 10.8429 10.2425 10.3874 10.2425 9.82543V3.7206C10.2425 3.15866 9.78125 2.70312 9.21222 2.70312Z" fill="#F7B500"/>
<path opacity="0.4" d="M19.9592 4.05242L15.4977 1.50874C15.005 1.22777 14.3748 1.39451 14.0903 1.88116L11.5145 6.28694C11.23 6.77359 11.3988 7.39587 11.8916 7.67684L16.353 10.2205C16.8458 10.5015 17.476 10.3347 17.7605 9.8481L20.3363 5.44231C20.6208 4.95566 20.4519 4.33338 19.9592 4.05242Z" fill="#F7B500"/>
<path d="M9.21222 11.8594H3.03032C2.46129 11.8594 2 12.3149 2 12.8768V18.9817C2 19.5436 2.46129 19.9992 3.03032 19.9992H9.21222C9.78125 19.9992 10.2425 19.5436 10.2425 18.9817V12.8768C10.2425 12.3149 9.78125 11.8594 9.21222 11.8594Z" fill="#F7B500"/>
<path d="M18.4857 11.8594H12.3038C11.7347 11.8594 11.2734 12.3149 11.2734 12.8768V18.9817C11.2734 19.5436 11.7347 19.9992 12.3038 19.9992H18.4857C19.0547 19.9992 19.516 19.5436 19.516 18.9817V12.8768C19.516 12.3149 19.0547 11.8594 18.4857 11.8594Z" fill="#F7B500"/>
</svg>
