<svg width="22" height="22" viewBox="0 0 22 22" fill="none" xmlns="http://www.w3.org/2000/svg">
<path opacity="0.4" fill-rule="evenodd" clip-rule="evenodd" d="M1.81934 14.9699L5.96687 13.8202C6.04892 13.7974 6.13542 13.796 6.21816 13.8161L11.1156 15.0026C11.367 15.0635 11.63 15.0584 11.8788 14.9877L15.9882 13.8198C16.0689 13.7969 16.154 13.7946 16.2358 13.8132L20.2797 14.7331C18.8003 18.4065 15.203 20.9993 11 20.9993C6.88803 20.9993 3.3557 18.5174 1.81934 14.9699Z" fill="#F7B500"/>
<path fill-rule="evenodd" clip-rule="evenodd" d="M1.46741 14.0304C1.16381 13.0746 1 12.0564 1 11C1 5.47715 5.47715 1 11 1C16.5228 1 21 5.47715 21 11C21 11.9657 20.8631 12.8994 20.6077 13.7828L16.4576 12.8388C16.2123 12.783 15.9568 12.7898 15.7148 12.8586L11.6054 14.0264C11.5225 14.05 11.4348 14.0517 11.351 14.0314L6.45359 12.8449C6.20534 12.7847 5.94584 12.789 5.6997 12.8572L1.46741 14.0304Z" fill="#F7B500"/>
<path d="M15.0601 7.80078C16.0877 7.80078 16.92 8.63308 16.92 9.66069C16.92 10.6883 16.0877 11.5206 15.0601 11.5206C14.0325 11.5206 13.2002 10.6883 13.2002 9.66069C13.2002 8.63308 14.0347 7.80078 15.0601 7.80078Z" fill="white"/>
<path d="M7.55007 7.60955C7.22603 7.50967 7.04847 7.16566 7.14835 6.84162C7.24822 6.51757 7.59446 6.34002 7.91628 6.43989L10.8282 7.35209C10.9836 7.40092 11.1123 7.50745 11.1878 7.65172L11.9024 9.04776L13.2385 11.5979C12.626 11.4144 11.6775 11.6786 10.3932 12.3903C9.90268 12.7827 9.11923 12.8741 8.63539 12.3903C7.63219 11.7141 6.88719 11.3885 6.40039 11.4137L10.4664 9.27192L10.0692 8.51287L7.55007 7.60955Z" fill="white"/>
</svg>
