<svg width="22" height="22" viewBox="0 0 22 22" xmlns="http://www.w3.org/2000/svg">
<path fill-rule="evenodd" clip-rule="evenodd" d="M14.7231 2.11719L14.6704 2.84153C14.6653 2.91228 14.7012 2.97981 14.7629 3.01581C15.4507 3.41661 15.9527 3.73614 16.269 3.97442C16.5866 4.21366 16.9765 4.60308 17.4386 5.14266C17.4775 5.188 17.5359 5.21235 17.5959 5.20819L18.6982 5.13175C17.9828 4.30939 17.3523 3.6891 16.8066 3.27089C16.261 2.85267 15.5665 2.46811 14.7231 2.11719Z" fill="#F7B500"/>
<path opacity="0.4" fill-rule="evenodd" clip-rule="evenodd" d="M16.1169 18.7865C16.0082 18.7496 15.9045 18.7077 15.8058 18.6608L15.8057 18.661C15.7501 18.6346 15.685 18.6367 15.6313 18.6667C14.6725 19.2021 13.8085 19.5071 13.0392 19.5817C13.0392 19.6197 13.0392 19.7479 12.9701 19.9564C12.9352 20.0617 12.867 20.203 12.7656 20.3803C14.0719 20.203 15.3345 19.6894 16.5535 18.8394C16.5535 18.8394 16.3287 18.8584 16.1169 18.7865Z" fill="#F7B500"/>
<path fill-rule="evenodd" clip-rule="evenodd" d="M2.47015 8.7466L1.92102 7.63086C1.37595 9.40781 1.25411 11.1848 1.55551 12.9617C1.66688 12.6555 1.88444 12.4126 2.20821 12.233C2.16323 11.5822 2.16323 10.9921 2.20821 10.4626C2.25319 9.93308 2.34051 9.36109 2.47015 8.7466Z" fill="#F7B500"/>
<path opacity="0.4" d="M11.3491 1.51028C11.3614 1.51453 11.3614 1.51453 11.3884 1.51768C11.5148 1.53168 11.6179 1.54179 11.8489 1.56348L11.8628 1.56478C12.3215 1.60785 12.5345 1.63185 12.7871 1.67413C13.9504 1.86482 15.0338 2.26889 16.032 2.88501C17.1823 3.59579 18.137 4.5393 18.908 5.71068C19.4177 6.48644 19.8002 7.25185 20.0575 8.03766C20.2691 8.68006 20.3939 9.37706 20.4545 10.1765C20.462 10.2731 20.469 10.3496 20.4854 10.5208L20.4843 11.5332C20.4747 11.5694 20.4747 11.5694 20.4712 11.6208L20.472 11.6005C20.4671 11.6621 20.4635 11.7115 20.4559 11.8205C20.441 12.0331 20.4334 12.1279 20.4206 12.2431C20.329 13.1158 20.1335 13.9042 19.8159 14.6337C19.272 15.882 18.5531 16.9433 17.6331 17.8263C16.7599 18.6639 15.7426 19.3128 14.5791 19.7824C13.9286 20.0448 13.4999 20.1803 13.0439 20.2444C12.8166 20.2769 12.6289 20.3007 12.2261 20.3496C12.0198 20.3746 11.9267 20.386 11.8123 20.4005C11.7624 20.4065 11.7212 20.4126 11.6353 20.4263C11.5853 20.4342 11.5853 20.4342 11.5377 20.4414C11.4433 20.4551 11.3748 20.4609 11.3118 20.4594C10.8812 20.4504 10.4746 20.4301 10.0857 20.3972C9.98709 20.3886 9.98709 20.3886 9.88854 20.3796C9.47678 20.3417 9.20773 20.302 8.94373 20.2312C7.94188 19.963 7.10864 19.6468 6.36506 19.2311C5.07793 18.5109 4.00997 17.5151 3.15302 16.2536C2.21597 14.8751 1.67725 13.3772 1.54535 11.7569C1.53784 11.676 1.53048 11.609 1.51412 11.4662L1.51568 10.5932C1.52213 10.5654 1.52213 10.5654 1.52753 10.5261C1.53546 10.4487 1.54127 10.3859 1.55364 10.2474C1.57778 9.9771 1.59013 9.85688 1.61106 9.7104C1.75891 8.66293 2.07334 7.66041 2.55238 6.70463C3.29621 5.22353 4.36951 4.02413 5.77438 3.09834C7.14272 2.19924 8.60688 1.68172 10.1846 1.5551C10.249 1.54999 10.3133 1.5432 10.3993 1.53288L10.4679 1.52453C10.5303 1.51688 10.535 1.51631 10.5875 1.51028H11.3491ZM10.5726 1.25514L10.5439 1.00159C10.4731 1.00972 10.4731 1.00972 10.4045 1.01812L10.3372 1.02632C10.2575 1.03587 10.1996 1.04201 10.1432 1.04648C8.4764 1.18024 6.9288 1.72725 5.48878 2.67345C4.00886 3.64869 2.87472 4.91609 2.09043 6.47775C1.58679 7.48262 1.25583 8.53783 1.10035 9.63939C1.0778 9.79718 1.06484 9.92334 1.03991 10.2024C1.02784 10.3376 1.02225 10.398 1.01476 10.4714L1.01205 10.4829L1.00491 10.5145L1 11.4947L1.00165 11.5235C1.01787 11.6652 1.02473 11.7277 1.03153 11.8008C1.17037 13.5064 1.73921 15.0881 2.72503 16.5384C3.62583 17.8643 4.75283 18.9152 6.11127 19.6754C6.89644 20.1142 7.76862 20.4452 8.80893 20.7237C9.1078 20.8039 9.40188 20.8473 9.8407 20.8877C9.94132 20.8968 9.94132 20.8968 10.041 20.9056C10.4422 20.9395 10.8597 20.9603 11.3001 20.9695C11.3967 20.9719 11.4918 20.9638 11.6127 20.9462C11.6661 20.9382 11.6661 20.9382 11.7171 20.9301C11.7997 20.917 11.8333 20.912 11.8761 20.9068C11.9909 20.8923 12.083 20.8811 12.2889 20.8561C12.6953 20.8067 12.8855 20.7826 13.1171 20.7495C13.6242 20.6782 14.0871 20.5319 14.7739 20.2549C15.9975 19.761 17.0707 19.0765 17.9921 18.1926C18.9627 17.2611 19.7196 16.1437 20.2895 14.8357C20.6289 14.0561 20.8369 13.2177 20.9334 12.2973C20.947 12.1746 20.955 12.0752 20.9704 11.8558C20.977 11.7612 20.9805 11.713 20.9844 11.6629C20.9858 11.6588 20.9875 11.6531 20.9903 11.6446L21 10.4966L20.9988 10.4724C20.9827 10.3045 20.9759 10.2301 20.9688 10.138C20.9053 9.3008 20.7734 8.56447 20.548 7.87998C20.276 7.04937 19.8736 6.24408 19.3403 5.43239C18.529 4.1998 17.5206 3.20321 16.3051 2.45214C15.2491 1.80036 14.1016 1.37237 12.8723 1.17086C12.6042 1.12599 12.3825 1.10102 11.9116 1.05679L11.8976 1.05548C11.6695 1.03406 11.5683 1.02414 11.4429 1.01028L11.4203 1.00723C11.4019 1.00444 11.4019 1.00444 11.375 1.00129L10.5726 1V1.25514Z" fill="#F7B500"/>
<path d="M14.3115 10.2137C14.3077 10.1508 14.3096 10.086 14.3003 10.0232C14.2928 9.96426 14.2816 9.90731 14.2257 9.86607C13.2785 9.16891 12.3313 8.47174 11.386 7.77065C11.3487 7.74316 11.3207 7.74512 11.2834 7.76476C11.0933 7.85706 10.9031 7.9474 10.7129 8.0397L8.22375 9.23568C8.18086 9.25728 8.16035 9.27888 8.15662 9.33191C8.14357 9.49491 8.12306 9.65987 8.10628 9.82287C8.05221 10.357 7.99814 10.8932 7.94407 11.4273C7.89372 11.9261 7.84338 12.423 7.79117 12.9218C7.78558 12.9729 7.8005 13.0023 7.83965 13.0318C8.76073 13.7368 9.68181 14.4438 10.6029 15.1488C10.6346 15.1724 10.6588 15.1802 10.698 15.1626C11.2834 14.9112 11.8708 14.6637 12.4544 14.4104C12.9578 14.1924 13.4482 13.9509 13.9162 13.6602C13.9591 13.6327 13.9777 13.6013 13.9814 13.5502C13.9889 13.4246 14.0038 13.3008 14.015 13.1771C14.0597 12.694 14.1045 12.2089 14.1511 11.7258C14.1772 11.4489 14.2052 11.174 14.235 10.8991C14.2611 10.6673 14.2928 10.4434 14.3226 10.2156C14.3189 10.2156 14.3152 10.2137 14.3115 10.2137Z" fill="#F7B500"/>
<path d="M17.3044 7.439C17.3008 6.98662 17.2934 6.52858 17.22 6.07619C17.1686 5.77083 17.0842 5.47867 16.8512 5.25624C16.7557 5.16577 16.664 5.0734 16.5649 4.9867C16.0583 4.54939 15.4968 4.18748 14.9517 3.80295C14.7792 3.68043 14.5902 3.58053 14.3846 3.52587C14.3406 3.51456 14.2929 3.49948 14.2488 3.50513C13.9515 3.54283 13.6542 3.57676 13.3606 3.63143C12.9532 3.70682 12.5457 3.7973 12.1603 3.95752C12.0135 4.01784 11.8796 4.1102 11.7419 4.19125C11.7217 4.20256 11.7034 4.23649 11.7052 4.25911C11.7089 4.54939 11.7181 4.83967 11.7236 5.12807C11.7327 5.52013 11.7401 5.91032 11.7474 6.30238C11.7511 6.47203 11.7437 6.64167 11.7493 6.81132C11.7511 6.88106 11.7639 6.9508 11.83 6.99793C12.7623 7.68216 13.6946 8.36828 14.6287 9.05251C14.6507 9.06759 14.6893 9.07513 14.715 9.06759C15.55 8.79993 16.385 8.53038 17.22 8.26461C17.2677 8.24953 17.2806 8.22691 17.2806 8.18167C17.2861 7.93286 17.2971 7.6897 17.3044 7.439Z" fill="#F7B500"/>
<path opacity="0.4" d="M14.0865 14.522C14.0865 14.4959 11.9183 15.4973 11.2812 15.7471C11.2345 15.7653 11.2128 15.7918 11.2028 15.8381C11.1645 16.025 11.1244 16.2103 11.0844 16.3973C10.966 16.9448 10.8459 17.4924 10.7292 18.04C10.7258 18.0582 10.7358 18.0896 10.7492 18.0979C11.001 18.26 11.2562 18.4172 11.508 18.5793C11.7915 18.7629 12.0801 18.9366 12.4036 19.0475C12.6721 19.1401 12.9117 19.17 13.1908 19.0905C13.2914 19.0618 13.59 18.9645 14.0865 18.7984C14.0865 16.0312 14.0865 14.6057 14.0865 14.522Z" fill="#F7B500"/>
<path d="M5.34469 6.89062C5.04268 7.07606 4.74852 7.25949 4.45239 7.43888C4.07783 7.66866 3.70522 7.90046 3.38557 8.20483C3.20907 8.37213 3.0463 8.53942 2.99139 8.80549C2.88157 9.33157 2.75998 9.85363 2.74037 10.3918C2.7188 11.0146 2.71488 11.6375 2.70703 12.2603C2.70703 12.2946 2.72468 12.3389 2.75018 12.3631C3.08356 12.7098 3.4189 13.0525 3.75425 13.3971C3.93859 13.5886 4.11901 13.7821 4.30335 13.9736C4.40141 14.0764 4.49946 14.1792 4.6034 14.278C4.6485 14.3223 4.69753 14.3243 4.75636 14.284C5.48196 13.7862 6.20756 13.2903 6.93316 12.7924C6.9567 12.7763 6.98023 12.74 6.98219 12.7098C7.04494 12.1333 7.10378 11.5568 7.16261 10.9804C7.23125 10.3092 7.30185 9.63594 7.37245 8.96473C7.37637 8.91837 7.3646 8.89216 7.33322 8.85991C6.90375 8.43663 6.47819 8.01132 6.05068 7.58602C5.81339 7.35624 5.57806 7.12242 5.34469 6.89062Z" fill="#F7B500"/>
<path opacity="0.4" d="M20.657 12.0298C20.6699 11.2497 20.6442 10.4716 20.5285 9.69772C20.4215 8.97348 20.3358 8.21985 20.021 7.54941C19.8176 7.11279 19.6452 6.7106 19.4139 6.2864C19.3561 6.1788 19.2474 6.01703 19.1746 5.9177C18.8897 5.52247 18.3293 5.48468 17.8604 5.67712C17.8818 5.73713 17.9053 5.79921 17.9246 5.85922C18.0531 6.24203 18.0959 6.63727 18.1152 7.03664C18.128 7.31185 18.1237 7.58913 18.1173 7.86641C18.113 8.04023 18.0895 8.21198 18.0766 8.3858C18.0638 8.54514 18.0895 8.68792 18.2073 8.81828C18.2972 8.91761 18.37 9.03762 18.4321 9.15764C18.552 9.3894 18.6805 9.61909 18.7705 9.86119C19.0253 10.5544 19.2608 11.2517 19.5028 11.9491C19.5199 11.9988 19.5435 12.0174 19.5992 12.0194C19.7405 12.0236 19.8797 12.036 20.021 12.0443C20.2287 12.0546 20.4386 12.067 20.6527 12.0815C20.6549 12.0588 20.657 12.0443 20.657 12.0298Z" fill="#F7B500"/>
<path d="M2.68421 8.05727C2.80396 7.9266 2.90998 7.77726 3.0474 7.66941C3.38311 7.40392 3.7306 7.15087 4.07809 6.90405C4.2803 6.76093 4.48644 6.61575 4.70632 6.50582C4.88301 6.4187 5.00865 6.30877 5.10682 6.1304C5.41111 5.57038 5.74093 5.02903 6.16303 4.55406C6.44573 4.23672 6.7088 3.90071 6.98169 3.57507C7.02488 3.52321 7.0347 3.47551 7.00917 3.40914C6.92672 3.1872 6.85212 2.96112 6.77555 2.73712C6.70095 2.51726 6.68082 2.41705 6.48253 2.5332C6.15075 2.7261 5.78064 2.95009 5.4626 3.16373C4.93842 3.51633 4.34712 3.97229 3.91914 4.4452C3.43815 4.97617 3.0901 5.58616 2.70727 6.19596C2.5404 6.46352 2.37809 6.60123 2.276 6.90405C2.22889 7.04302 2.34064 7.32925 2.38776 7.47029C2.4604 7.68392 2.53696 7.89549 2.61746 8.12157C2.64494 8.0946 2.66654 8.07801 2.68421 8.05727Z" fill="#F7B500"/>
<path d="M7.97965 3.03366C8.56231 2.96925 9.14498 2.97304 9.72366 3.04881C10.1413 3.10375 10.5549 3.18331 10.9685 3.25908C11.3384 3.32727 11.3404 3.33106 11.6208 3.18899C11.6288 3.1852 11.6387 3.17952 11.6467 3.17573C11.8057 3.09996 11.9609 3.01282 12.1259 2.9541C12.5753 2.7893 13.0486 2.71163 13.5259 2.65291C13.7228 2.62828 13.9196 2.60934 14.1324 2.58661C14.1185 2.53357 14.1105 2.48243 14.0926 2.43696C14.027 2.27406 13.9674 2.10736 13.8878 1.95013C13.858 1.89331 13.7901 1.76362 13.7265 1.74658C13.4501 1.6708 13.177 1.60384 12.8946 1.5489C12.2404 1.4182 11.5024 1.39816 10.8362 1.3849C10.522 1.37732 8.31175 1.70009 7.94783 1.81375C7.79471 1.863 7.69714 1.99566 7.54004 2.04681C7.65737 2.34421 7.8305 2.73815 7.94783 3.03366H7.97965Z" fill="#F7B500"/>
<path d="M1.93117 13.2824C1.82502 13.4008 1.78515 13.55 1.81358 13.6955C1.94437 14.3863 2.23824 14.9978 2.57753 15.609C3.06277 16.486 3.61383 17.2899 4.36254 17.9535C4.54451 18.1146 4.71858 18.246 4.90244 18.4051C4.93276 18.4303 5.02459 18.4555 5.06061 18.4051C5.22172 18.1878 5.38473 17.9724 5.54964 17.757C5.57618 17.7221 5.57049 17.7007 5.54964 17.6677C5.47572 17.5591 5.40558 17.4504 5.33545 17.3398C4.90328 16.6762 4.49575 16.0009 4.31379 15.2131C4.25692 14.9667 4.12424 14.7688 3.94227 14.5883C3.47978 14.1304 3.00591 13.6841 2.60027 13.1699C2.49981 13.0496 2.38229 12.9468 2.23445 12.8691C2.13209 13.0108 2.043 13.1563 1.93117 13.2824Z" fill="#F7B500"/>
<path opacity="0.4" d="M12.5363 19.6399C12.2409 19.6173 11.9576 19.5246 11.6819 19.4037C11.0863 19.1427 10.523 18.8121 9.97615 18.4387C9.93318 18.4103 9.87695 18.3921 9.82655 18.3942C9.18757 18.3992 8.5498 18.4639 7.9084 18.3954C7.55498 18.3572 7.19954 18.3651 6.85254 18.2619C6.74028 18.2279 6.62742 18.2101 6.51557 18.1807C6.472 18.1684 6.45091 18.1818 6.42802 18.2206C6.28686 18.479 6.14148 18.7355 6.00032 18.9939C5.96177 19.0616 5.93044 19.118 6.00032 19.1533C6.21238 19.2637 6.41786 19.405 6.6247 19.5251C6.93416 19.7075 7.29016 19.8317 7.62291 19.9569C8.34242 20.2232 9.07772 20.4506 9.82655 20.5442C10.34 20.6077 10.8546 20.6028 11.3695 20.5442C11.6618 20.5096 11.9478 20.4479 12.2064 20.2828C12.4167 20.1426 12.5614 19.9483 12.5877 19.6493C12.5653 19.6466 12.5506 19.641 12.5363 19.6399Z" fill="#F7B500"/>
<path fill-rule="evenodd" clip-rule="evenodd" d="M7.13512 13.5029L5.15047 14.942C5.0846 14.9897 5.05723 15.0739 5.08261 15.1507C5.45478 16.2767 5.84893 17.1212 6.26506 17.6842C7.60228 17.8923 8.84748 17.9252 10.0007 17.7827L10.2596 16.0002C10.2689 15.9358 10.2438 15.8713 10.1932 15.8298L7.36728 13.5098C7.30065 13.4551 7.20495 13.4523 7.13512 13.5029Z" fill="#F7B500"/>
<path fill-rule="evenodd" clip-rule="evenodd" d="M7.79011 3.76553C7.29525 4.26566 6.72442 5.09013 6.07761 6.23895C6.03798 6.30926 6.04836 6.39677 6.10334 6.45611L7.92644 8.4239C7.98223 8.48412 8.0711 8.50148 8.14585 8.46676L10.9478 7.16516C11.0141 7.13438 11.0564 7.06849 11.0564 6.99607V4.20842C11.0565 4.12321 10.9983 4.04879 10.9149 4.02746C9.78448 3.73832 8.74288 3.65101 7.79011 3.76553Z" fill="#F7B500"/>
<path opacity="0.4" fill-rule="evenodd" clip-rule="evenodd" d="M15.6906 11.4609H17.9831C18.5527 11.4609 19.0145 11.9179 19.0145 12.4815V16.2521C18.3348 17.1434 17.7258 17.8158 17.1877 18.2691C16.6496 18.7224 15.8067 19.2153 14.6592 19.7479V12.4815C14.6592 11.9179 15.121 11.4609 15.6906 11.4609Z" fill="#F7B500"/>
<path fill-rule="evenodd" clip-rule="evenodd" d="M16.8918 14.4258C17.4615 14.4258 17.9233 14.8827 17.9233 15.4463V17.6305C17.6048 17.9555 17.2968 18.2258 16.9992 18.4415C16.7017 18.6572 16.322 18.8958 15.8604 19.1572V15.4463C15.8604 14.8827 16.3222 14.4258 16.8918 14.4258Z" fill="white"/>
<path opacity="0.4" d="M18.0211 9.55469H15.4425C15.1577 9.55469 14.9268 9.78315 14.9268 10.065V10.5752C14.9268 10.8571 15.1577 11.0855 15.4425 11.0855H18.0211C18.306 11.0855 18.5369 10.8571 18.5369 10.5752V10.065C18.5369 9.78315 18.306 9.55469 18.0211 9.55469Z" fill="#F7B500"/>
</svg>
