<svg width="22" height="22" viewBox="0 0 22 22" fill="none" xmlns="http://www.w3.org/2000/svg">
<g opacity="0.1">
<mask id="mask0_12_1654" style="mask-type:alpha" maskUnits="userSpaceOnUse" x="0" y="0" width="22" height="22">
<path d="M22 0H0V22H22V0Z" fill="white"/>
</mask>
<g mask="url(#mask0_12_1654)">
<path d="M18.8948 19.0419H2.58067C2.33493 19.0426 2.13589 19.2537 2.1352 19.5142V19.5277C2.13589 19.7882 2.33493 19.9993 2.58067 20H18.8948C19.1406 19.9993 19.3396 19.7882 19.3403 19.5277V19.5142C19.3396 19.2537 19.1406 19.0426 18.8948 19.0419ZM11.4914 2.00688C7.98456 1.8727 5.09152 3.71508 3.16282 6.26732L8.5376 5.92246C8.5376 5.92246 10.9421 5.72654 11.1218 6.70611C11.4914 7.09793 14.0769 12.9713 11.4914 14.1468C9.07546 15.0606 4.72451 16.8305 1 16.4186C1.24477 17.0988 1.60989 17.7233 2.07572 18.2583H19.0594C19.3735 17.8452 19.6246 17.3824 19.8035 16.8869C23.6799 6.31428 17.4002 2.22292 11.4914 2.00688Z" fill="black"/>
<path d="M1.79497 15.5144C1.76966 14.2853 1.4963 11.4097 3.08962 7.28341V7.23242L2.44799 7.26328C2.05061 8.19454 0.507905 12.1356 1.19763 15.654C1.41151 15.607 1.61906 15.5533 1.79497 15.5144Z" fill="#666666"/>
<path d="M11.3067 12.6774C11.4914 11.5033 10.7536 7 9.82978 7C8.72116 7 5.0283 7 4.84353 7.19591C4.84353 7.19591 2.81232 9.1537 2.07324 15.4189C3.18186 15.223 11.1219 13.8529 11.3067 12.6774Z" fill="#666666"/>
<path d="M8.53747 10.4251C7.97675 10.4256 7.47098 10.0678 7.25616 9.51863C7.04134 8.96945 7.15982 8.33714 7.55632 7.91673C7.95281 7.49633 8.54916 7.3707 9.0671 7.59848C9.58505 7.82625 9.92249 8.36252 9.92198 8.95706C9.92198 9.76781 9.30211 10.4251 8.53747 10.4251Z" fill="white"/>
<path d="M8.53783 8.07617C8.20142 8.07563 7.89785 8.29008 7.76876 8.61947C7.63966 8.94887 7.71049 9.32828 7.94818 9.5807C8.18588 9.83311 8.54361 9.90879 8.85446 9.77241C9.16531 9.63603 9.36803 9.31448 9.36803 8.95778C9.36803 8.47141 8.99654 8.07691 8.53783 8.07617Z" fill="#666666"/>
</g>
</g>
</svg>
