<svg width="22" height="22" viewBox="0 0 22 22" xmlns="http://www.w3.org/2000/svg">
<mask id="mask0_12_1620" style="mask-type:alpha" maskUnits="userSpaceOnUse" x="2" y="1" width="18" height="20">
<path d="M11.527 1.00005C15.1128 1.18634 18.1988 3.26403 19.8091 6.25583L16.7899 6.25672V15.7433L19.8091 15.7442C18.1988 18.736 15.1128 20.8137 11.527 20.9999L11.5275 14.7181C13.3291 14.4768 14.7186 12.9317 14.7186 11.0616C14.7186 9.19153 13.3291 7.64645 11.5275 7.40514L11.527 1.00005ZM10.4749 1L10.4745 7.41471C8.70552 7.68479 7.35022 9.21471 7.35022 11.0616C7.35022 12.9085 8.70552 14.4384 10.4745 14.7085L10.4749 21C6.77571 20.8082 3.60823 18.6034 2.04395 15.4586L2.19151 15.7437L5.21097 15.7433V6.25672L2.19192 6.25555C3.80245 3.26361 6.88883 1.18593 10.4749 1ZM11.0344 8.42645C12.4878 8.42645 13.666 9.60625 13.666 11.0616C13.666 12.517 12.4878 13.6968 11.0344 13.6968C9.58105 13.6968 8.40285 12.517 8.40285 11.0616C8.40285 9.60625 9.58105 8.42645 11.0344 8.42645Z" fill="white"/>
</mask>
<g mask="url(#mask0_12_1620)">
<path d="M11.527 1.00005C15.1128 1.18634 18.1988 3.26403 19.8091 6.25583L16.7899 6.25672V15.7433L19.8091 15.7442C18.1988 18.736 15.1128 20.8137 11.527 20.9999L11.5275 14.7181C13.3291 14.4768 14.7186 12.9317 14.7186 11.0616C14.7186 9.19153 13.3291 7.64645 11.5275 7.40514L11.527 1.00005ZM10.4749 1L10.4745 7.41471C8.70552 7.68479 7.35022 9.21471 7.35022 11.0616C7.35022 12.9085 8.70552 14.4384 10.4745 14.7085L10.4749 21C6.77571 20.8082 3.60823 18.6034 2.04395 15.4586L2.19151 15.7437L5.21097 15.7433V6.25672L2.19192 6.25555C3.80245 3.26361 6.88883 1.18593 10.4749 1ZM11.0344 8.42645C12.4878 8.42645 13.666 9.60625 13.666 11.0616C13.666 12.517 12.4878 13.6968 11.0344 13.6968C9.58105 13.6968 8.40285 12.517 8.40285 11.0616C8.40285 9.60625 9.58105 8.42645 11.0344 8.42645Z" fill="#F7B500"/>
</g>
<path fill-rule="evenodd" clip-rule="evenodd" d="M4.15789 7.31021V14.6886L1.70046 14.6884C1.24844 13.5468 1 12.3022 1 10.9994C1 9.69599 1.2487 8.45071 1.70118 7.30859L4.15789 7.31021Z" fill="#F7B500" fill-opacity="0.5"/>
<path fill-rule="evenodd" clip-rule="evenodd" d="M17.8421 7.31021V14.6886L20.2995 14.6884C20.7516 13.5468 21 12.3022 21 10.9994C21 9.69599 20.7513 8.45071 20.2988 7.30859L17.8421 7.31021Z" fill="#F7B500" fill-opacity="0.5"/>
</svg>
