<svg width="22" height="22" viewBox="0 0 22 22" xmlns="http://www.w3.org/2000/svg">
<path fill-rule="evenodd" clip-rule="evenodd" d="M20.8749 12.5838C17.2663 13.1265 14.4996 16.2401 14.4996 20C14.4996 20.1231 14.5025 20.2455 14.5084 20.3671C13.4166 20.7763 12.2342 21 10.9996 21C6.51003 21 2.71149 18.0415 1.44727 13.9676C2.75177 14.7035 4.25822 15.1234 5.86274 15.1234C10.8333 15.1234 14.8627 11.0939 14.8627 6.12338C14.8627 4.3516 14.3508 2.69939 13.4667 1.30664C17.7964 2.40526 20.9996 6.32857 20.9996 11C20.9996 11.539 20.9569 12.0679 20.8749 12.5838Z" fill="white"/>
<path opacity="0.4" fill-rule="evenodd" clip-rule="evenodd" d="M20.6472 13.6406C19.8958 16.3923 17.9985 18.671 15.5 19.9323C15.5315 16.8361 17.7277 14.2585 20.6472 13.6406Z" fill="white"/>
<path opacity="0.4" fill-rule="evenodd" clip-rule="evenodd" d="M1.1222 12.5679C1.04176 12.0571 1 11.5334 1 11C1 5.47715 5.47715 1 11 1C11.3556 1 11.7069 1.01856 12.0529 1.05477C13.1842 2.4347 13.8632 4.19975 13.8632 6.12338C13.8632 10.5417 10.2814 14.1234 5.86316 14.1234C4.08861 14.1234 2.449 13.5456 1.1222 12.5679Z" fill="white"/>
<path d="M6.39452 4.26112C6.60727 3.93351 6.89706 3.68272 7.26389 3.50874C7.63072 3.33476 8.04332 3.27318 8.5017 3.324C8.96009 3.37482 9.42023 3.55021 9.88216 3.85019C10.272 4.10336 10.5814 4.37646 10.8103 4.6695C11.0392 4.96253 11.1939 5.26214 11.2745 5.56834C11.3552 5.87453 11.3701 6.17068 11.3194 6.45679C11.2686 6.7429 11.1614 7.01208 10.9975 7.26434C10.7891 7.58539 10.5202 7.81833 10.1909 7.96314C9.86166 8.10796 9.48111 8.15426 9.04925 8.10204C9.25751 8.39099 9.39646 8.68266 9.4661 8.97707C9.53574 9.27148 9.54224 9.56448 9.48562 9.85608C9.429 10.1477 9.30921 10.4343 9.12624 10.7161C8.85818 11.1289 8.5152 11.4383 8.09729 11.6443C7.67938 11.8503 7.21544 11.9228 6.70547 11.8618C6.1955 11.8007 5.67843 11.6 5.15426 11.2596C4.61043 10.9064 4.20694 10.5093 3.94375 10.0683C3.68057 9.62723 3.55867 9.17662 3.57805 8.71645C3.59743 8.25627 3.74115 7.8198 4.00921 7.40702C4.58151 6.52575 5.39009 6.19152 6.43496 6.40429C5.96761 5.65365 5.95413 4.93927 6.39452 4.26112ZM7.80532 9.80237C7.97126 9.54683 8.06351 9.29003 8.08207 9.03193C8.10064 8.77384 8.04789 8.53232 7.92383 8.30737C7.79977 8.08241 7.6198 7.89335 7.38392 7.74017C7.04977 7.52316 6.69733 7.45265 6.32661 7.52862C5.95589 7.6046 5.64076 7.84242 5.3812 8.2421C5.21526 8.49764 5.12223 8.75744 5.10211 9.02151C5.082 9.28558 5.1291 9.53042 5.24342 9.75603C5.35773 9.98164 5.52791 10.1678 5.75396 10.3146C5.98329 10.4636 6.22478 10.5435 6.47845 10.5546C6.73212 10.5656 6.97519 10.5069 7.20767 10.3784C7.44016 10.2499 7.63937 10.0579 7.80532 9.80237ZM9.30212 4.80793C8.99417 4.60794 8.68378 4.54261 8.37095 4.61193C8.05811 4.68125 7.80383 4.8666 7.6081 5.168C7.42726 5.44647 7.37339 5.74101 7.44647 6.05163C7.51956 6.36225 7.70843 6.61649 8.01311 6.81434C8.16708 6.91434 8.32309 6.98072 8.48113 7.01348C8.63917 7.04625 8.79143 7.04848 8.9379 7.02017C9.08437 6.99186 9.221 6.93388 9.34779 6.84621C9.47459 6.75855 9.58479 6.64264 9.6784 6.4985C9.80392 6.30521 9.87327 6.10339 9.88645 5.89304C9.89963 5.68268 9.85631 5.48222 9.7565 5.29165C9.65669 5.10107 9.50523 4.93983 9.30212 4.80793Z" fill="white"/>
</svg>
