<svg width="22" height="22" viewBox="0 0 22 22" fill="none" xmlns="http://www.w3.org/2000/svg">
<path fill-rule="evenodd" clip-rule="evenodd" d="M8.23121 1.19375C8.11164 1.0775 7.93743 1 7.76771 1H5.19629C5.02721 1 4.87036 1.0775 4.75079 1.19375C4.63121 1.31063 4.57143 1.4825 4.57143 1.64688V4.64C4.57143 6.735 3.69393 8.71125 2.18964 10.1625C2.06814 10.28 2 10.4394 2 10.6063V20.3969C2 20.5613 2.05979 20.7113 2.17936 20.8281C2.29893 20.9444 2.45579 21 2.62486 21H19.3391C19.5089 21 19.6831 20.9444 19.8026 20.8281C19.9229 20.7113 20 20.5613 20 20.3969V10.6063C20 10.4644 19.9505 10.3269 19.8592 10.2163C18.614 8.7075 17.4286 6.66938 17.4286 4.64V1.64688C17.4286 1.4825 17.3514 1.31063 17.2312 1.19375C17.1116 1.0775 16.9374 1 16.7677 1H14.1963C14.0272 1 13.8704 1.0775 13.7508 1.19375C13.6312 1.31063 13.5714 1.4825 13.5714 1.64688V2.27188C13.5714 3.65125 12.2857 4.76938 11 4.77188C9.71429 4.76938 8.42857 3.65125 8.42857 2.27188V1.64688C8.42857 1.4825 8.35143 1.31063 8.23121 1.19375Z" fill="#F7B500"/>
<path fill-rule="evenodd" clip-rule="evenodd" d="M13.5539 10.3965V12.8965C13.5532 13.2415 13.2659 13.5209 12.911 13.5215C12.5568 13.5209 12.2688 13.2415 12.2681 12.8965V10.3965C12.2688 10.0515 12.5568 9.77211 12.911 9.77148C13.2659 9.77211 13.5532 10.0515 13.5539 10.3965ZM10.9824 10.3965V12.8965C10.9831 13.9321 11.8458 14.7709 12.911 14.7715C13.9769 14.7709 14.8396 13.9321 14.8396 12.8965V10.3965C14.8396 9.36086 13.9769 8.52211 12.911 8.52148C11.8458 8.52211 10.9831 9.36086 10.9824 10.3965Z" fill="white"/>
<path fill-rule="evenodd" clip-rule="evenodd" d="M8.59875 8.70473L7.31304 9.95473C7.06232 10.1991 7.06232 10.5947 7.31304 10.8385C7.56439 11.0829 7.97132 11.0829 8.22268 10.8385L8.41039 10.6554V14.1466C8.41039 14.4916 8.69839 14.7716 9.05325 14.7716C9.40875 14.7716 9.69611 14.4916 9.69611 14.1466V9.1466C9.69611 8.8941 9.53989 8.66598 9.29946 8.5691C9.05968 8.47223 8.78261 8.52598 8.59875 8.70473Z" fill="white"/>
<path fill-rule="evenodd" clip-rule="evenodd" d="M3.26758 18.5215H18.6961V17.2715H3.26758V18.5215Z" fill="white"/>
</svg>
