<svg width="22" height="22" viewBox="0 0 22 22" xmlns="http://www.w3.org/2000/svg">
<path fill-rule="evenodd" clip-rule="evenodd" d="M3.18672 15.2513L8.06458 19.3969C8.22903 19.5367 8.28034 19.7709 8.1897 19.968L7.48125 21.5086C7.37062 21.7491 7.08837 21.8533 6.85083 21.7413C6.81361 21.7237 6.77881 21.7014 6.74728 21.6747L1.15091 16.9475C0.949666 16.7776 0.922579 16.4745 1.09041 16.2707C1.11981 16.235 1.15419 16.2038 1.19245 16.1781L2.6194 15.219C2.79467 15.1012 3.02559 15.1143 3.18672 15.2513Z" fill="white"/>
<path fill-rule="evenodd" clip-rule="evenodd" d="M19.5604 12.2124L8.65665 2.94531L4.69192 7.73106L3.37449 7.82605L1.83015 9.6902C0.819537 10.9101 0.976634 12.7288 2.18103 13.7524L9.45023 19.9305C10.6546 20.9541 12.4503 20.7949 13.4609 19.5751L19.5604 12.2124ZM11.5515 13.4521L12.1614 12.7158C12.5707 12.2218 12.6927 11.5805 12.5455 11.0002C12.477 11.2694 12.3495 11.5276 12.1614 11.7547L11.5515 12.491C10.8777 13.3042 9.68063 13.4103 8.8777 12.7279L6.97477 11.1008L6.50029 11.7547L8.8777 13.689C9.68063 14.3714 10.8777 14.2653 11.5515 13.4521Z" fill="white"/>
<path fill-rule="evenodd" clip-rule="evenodd" d="M12.5505 1.23561L20.5466 8.03144C21.3496 8.71385 21.4543 9.92633 20.7806 10.7396L18.9507 12.9484C17.2663 14.9815 14.2736 15.2467 12.2663 13.5407L6.45094 8.5983C5.64801 7.91589 5.54327 6.70341 6.21702 5.89015L9.87676 1.47254C10.5505 0.659278 11.7476 0.5532 12.5505 1.23561Z" fill="white" fill-opacity="0.4"/>
<path fill-rule="evenodd" clip-rule="evenodd" d="M7.55345 5.77076L11.915 9.47758C12.7179 10.16 12.8226 11.3725 12.1489 12.1857L11.5389 12.922C10.8652 13.7353 9.66811 13.8413 8.86518 13.1589L3.04982 8.2165L4.87969 6.00769C5.55343 5.19443 6.75052 5.08836 7.55345 5.77076Z" fill="white"/>
</svg>
