<svg width="22" height="22" viewBox="0 0 22 22" xmlns="http://www.w3.org/2000/svg">
<path fill-rule="evenodd" clip-rule="evenodd" d="M3.18575 15.2513L8.06361 19.3969C8.22805 19.5367 8.27936 19.7709 8.18873 19.968L7.48028 21.5086C7.36964 21.7491 7.08739 21.8533 6.84985 21.7413C6.81264 21.7237 6.77783 21.7014 6.7463 21.6747L1.14993 16.9475C0.94869 16.7776 0.921602 16.4745 1.08943 16.2707C1.11884 16.235 1.15321 16.2038 1.19147 16.1781L2.61843 15.219C2.79369 15.1012 3.02461 15.1143 3.18575 15.2513Z" fill="black"/>
<path d="M4.87145 18.8737L4.14453 18.2559L3.53457 18.9921L4.26149 19.6099L4.87145 18.8737Z" fill="white"/>
<path fill-rule="evenodd" clip-rule="evenodd" d="M8.65661 2.94593L19.5604 12.213L13.4608 19.5757C12.4502 20.7956 10.6546 20.9547 9.45019 19.9311L2.18099 13.753C0.976592 12.7294 0.819496 10.9107 1.83011 9.69082L3.37445 7.82667L4.69188 7.73168L8.65661 2.94593Z" fill="black"/>
<path fill-rule="evenodd" clip-rule="evenodd" d="M12.5495 1.23561L20.5457 8.03144C21.3486 8.71385 21.4533 9.92633 20.7796 10.7396L18.9497 12.9484C17.2654 14.9815 14.2727 15.2467 12.2653 13.5407L6.44996 8.5983C5.64703 7.91589 5.5423 6.70341 6.21604 5.89015L9.87579 1.47254C10.5495 0.659278 11.7466 0.5532 12.5495 1.23561Z" fill="#666666"/>
<path fill-rule="evenodd" clip-rule="evenodd" d="M7.55345 5.77076L11.915 9.47758C12.7179 10.16 12.8226 11.3725 12.1489 12.1857L11.5389 12.922C10.8652 13.7353 9.66811 13.8413 8.86518 13.1589L3.04982 8.2165L4.87969 6.00769C5.55343 5.19443 6.75052 5.08836 7.55345 5.77076Z" fill="black"/>
<path fill-rule="evenodd" clip-rule="evenodd" d="M12.1486 12.1867L11.5386 12.923C10.8649 13.7362 9.6678 13.8423 8.86487 13.1599L6.48745 11.2256L6.96193 10.5717L8.86487 12.1988C9.6678 12.8812 10.8649 12.7751 11.5386 11.9619L12.1486 11.2256C12.3367 10.9985 12.4642 10.7403 12.5326 10.4711C12.6798 11.0515 12.5578 11.6927 12.1486 12.1867Z" fill="white"/>
</svg>
