<svg width="22" height="22" viewBox="0 0 22 22" fill="none" xmlns="http://www.w3.org/2000/svg">
<g opacity="0.97905">
<g opacity="0.97905">
<path opacity="0.97905" fill-rule="evenodd" clip-rule="evenodd" d="M10.8888 20L2.05263 19.9988C1.47128 19.9988 1 19.6038 1 19.1165V15.5873C1 15.1 1.47128 14.705 2.05263 14.705L7.39056 14.7061C7.71057 16.954 9.0335 18.8764 10.8888 20ZM7.31579 13.6463H2.05263C1.47128 13.6463 1 13.2513 1 12.764V9.2348C1 8.74753 1.47128 8.35251 2.05263 8.35251L9.52806 8.35185C8.16288 9.69706 7.31579 11.5722 7.31579 13.6463ZM16.7895 2C17.3708 2 17.8421 2.39502 17.8421 2.88229V6.41146C17.8421 6.58201 17.7844 6.74126 17.6844 6.87622C16.7677 6.46368 15.7525 6.23501 14.6842 6.23501C13.295 6.23501 11.9957 6.62166 10.8867 7.29382L2.05263 7.29376C1.47128 7.29376 1 6.89874 1 6.41146V2.88229C1 2.39502 1.47128 2 2.05263 2H16.7895Z" fill="black"/>
<path opacity="0.97905" d="M14.684 19.998C18.1721 19.998 20.9997 17.1539 20.9997 13.6455C20.9997 10.1371 18.1721 7.29297 14.684 7.29297C11.1958 7.29297 8.36816 10.1371 8.36816 13.6455C8.36816 17.1539 11.1958 19.998 14.684 19.998Z" fill="#666666"/>
<path opacity="0.97905" d="M12 11H13.8791L14.8207 13.0596L15.75 11H17.6332L16.1982 13.6138H17.4194V14.5278H15.6883V15.0282H17.4194V15.9546H15.6883V17.063H13.9778V15.9546H12.2179V15.0282H13.9778V14.5278H12.2179V13.6138H13.4762L12 11Z" fill="white"/>
</g>
</g>
</svg>
