<svg width="22" height="22" viewBox="0 0 22 22" xmlns="http://www.w3.org/2000/svg">
<path d="M7.70856 2.02019C8.32273 2.1282 8.83679 2.65929 9.23681 3.59863L9.24499 3.61793L9.25162 3.63793C9.68789 4.96294 10.6866 5.04977 11.8429 5.14954C11.9175 5.15597 11.9916 5.16248 12.0655 5.16907C12.3771 5.14554 12.6401 5.10319 12.8732 5.06624C13.3771 4.98647 13.7754 4.92365 14.1248 5.16036C14.4024 5.34861 14.6152 5.67286 14.7509 6.64092L14.7522 6.65198C14.8444 7.43461 15.2035 8.80056 15.9351 10.2865C16.5335 11.5026 17.6034 13.2279 19.3003 14.5376L19.3149 14.5489L19.3286 14.5613C20.2592 15.4085 20.7892 16.2085 20.949 17.0048C21.1006 17.7608 20.9106 18.5004 20.3843 19.2032L20.3724 19.2193L20.3591 19.2341C19.9087 19.7423 19.2417 20 18.3783 20C17.5935 20 16.6102 19.784 15.4572 19.3578L15.4077 19.3395L15.3635 19.3096L1.25586 9.79497L1.453 9.4006C2.65991 6.98658 3.93909 4.99118 5.25429 3.47086L5.25694 3.4678C5.75774 2.8993 6.68994 1.84089 7.70856 2.02019ZM12.0628 5.65263C11.8493 5.63263 11.631 5.6171 11.4124 5.59357C11.4028 6.79676 11.4835 7.99884 11.6537 9.18835L11.8654 9.39393C11.875 9.40372 11.885 9.41306 11.8954 9.42193C12.3797 9.88649 12.8212 10.3238 13.2213 10.7333L13.0841 10.7329C12.8341 10.7329 12.6315 10.9487 12.6315 11.2148C12.6315 11.481 12.8341 11.6967 13.0841 11.6967L14.134 11.6978C14.4499 12.0443 14.7281 12.3654 14.9684 12.6611L14.2147 12.6608C14.0947 12.6608 13.9796 12.7115 13.8947 12.8019C13.8098 12.8923 13.7621 13.0149 13.7621 13.1427C13.7621 13.4088 13.9648 13.6246 14.2147 13.6246L15.6763 13.6252C16.3626 14.7058 16.2446 15.2461 15.3224 15.2461C13.8242 15.2461 10.0389 13.8197 3.96658 10.967L3.54901 10.7703L15.6058 18.9037C17.8273 19.7243 19.3026 19.7243 20.0316 18.9037C20.8586 17.7992 20.8056 16.5403 19.0355 14.9284C18.3139 14.3712 17.6879 13.7348 17.1488 13.0639C17.136 12.9648 17.0921 12.8733 17.0251 12.8019C16.9784 12.7522 16.9225 12.7144 16.8616 12.6905C16.5404 12.261 16.2536 11.8195 15.9987 11.3788L16.0197 11.3014L16.027 11.2148C16.027 11.0868 15.9792 10.9641 15.8941 10.8737C15.809 10.7833 15.6937 10.7327 15.5735 10.7329L15.6505 10.7407C15.4049 10.2627 15.196 9.79223 15.0208 9.34401C15.0843 9.26313 15.1209 9.15922 15.1209 9.04622C15.1209 8.78007 14.9182 8.56432 14.6682 8.56432L14.7435 8.57069C14.4993 7.82266 14.3585 7.17482 14.304 6.71269C14.0616 4.98294 13.6541 5.53497 12.0628 5.65263Z" fill="white"/>
<path opacity="0.403646" d="M3.55176 10.7711C9.86839 13.755 13.7929 15.2469 15.3252 15.2469C16.2476 15.2469 16.3654 14.7063 15.6784 13.6251L16.7051 13.6244C16.955 13.6244 17.1577 13.4086 17.1577 13.1425C17.1577 13.1149 17.1555 13.0876 17.1512 13.0609C17.6888 13.7337 18.3155 14.3712 19.0383 14.9293C20.8083 16.5411 20.8614 17.8 20.0344 18.9045C19.3053 19.7251 17.83 19.7251 15.6085 18.9045L3.55176 10.7711ZM16.6705 12.426L16.8644 12.6914C16.814 12.6712 16.76 12.6606 16.7051 12.6606L14.9703 12.661C14.7299 12.3652 14.4518 12.0441 14.1358 11.6976L15.5744 11.6965C15.7709 11.6965 15.9381 11.5632 16.0007 11.3769C16.2027 11.7278 16.426 12.0795 16.6705 12.426ZM15.6528 10.7406L15.5735 10.7327L13.2238 10.7339C12.8259 10.3267 12.387 9.89189 11.9071 9.42957C11.982 9.49171 12.0765 9.52791 12.1789 9.52791H14.6683C14.813 9.52791 14.9418 9.45564 15.0246 9.34315C15.1977 9.79063 15.4068 10.2618 15.6528 10.7406ZM14.3068 6.71351C14.3612 7.17565 14.502 7.82349 14.7462 8.57152L14.6683 8.56409H12.1789C11.9289 8.56409 11.7263 8.77985 11.7263 9.046C11.7263 9.17194 11.7716 9.2866 11.8459 9.37245C11.7845 9.31161 11.7208 9.25063 11.6565 9.18918C11.4863 7.99967 11.4055 6.79759 11.4151 5.59439C11.6337 5.61792 11.8521 5.63346 12.0656 5.65346C13.6568 5.5358 14.0643 4.98377 14.3068 6.71351Z" fill="white"/>
<path d="M16.2485 19.8736C14.0879 19.8736 12.3214 19.5477 10.9863 18.9014L10.9686 18.8929L10.9516 18.8828C8.68566 17.5258 5.23798 15.0986 1.84996 12.6768L1.82476 12.6589L1.80266 12.6375C1.39049 12.249 1.12462 11.7706 1.03401 11.2541C0.927482 10.6466 1.07224 10.007 1.45392 9.40625L2.20534 9.94487C1.94367 10.3583 1.62188 11.1579 2.38214 11.8953C8.05734 15.9518 10.1189 17.2775 11.3777 18.0324C12.443 18.5439 13.8268 18.9106 15.5137 18.8969C15.741 19.0325 15.9859 19.1468 16.2485 19.2398L17.27 19.8506C16.9203 19.866 16.5798 19.8736 16.2485 19.8736Z" fill="white"/>
</svg>
