<svg width="22" height="22" viewBox="0 0 22 22" xmlns="http://www.w3.org/2000/svg">
<path fill-rule="evenodd" clip-rule="evenodd" d="M14.7231 2.11914L14.6704 2.84457C14.6653 2.91543 14.7012 2.98306 14.7629 3.01912C15.4507 3.42052 15.9527 3.74053 16.269 3.97917C16.5866 4.21877 16.9765 4.60877 17.4386 5.14917C17.4775 5.19458 17.5359 5.21897 17.5959 5.2148L18.6982 5.13824C17.9828 4.31464 17.3523 3.69342 16.8066 3.27458C16.261 2.85573 15.5665 2.47059 14.7231 2.11914Z" fill="#F7B500"/>
<path fill-rule="evenodd" clip-rule="evenodd" d="M2.47015 8.75804L1.92102 7.64062C1.37595 9.42025 1.25411 11.1999 1.55551 12.9795C1.66688 12.6729 1.88444 12.4296 2.20821 12.2497C2.16323 11.5979 2.16323 11.0069 2.20821 10.4766C2.25319 9.94632 2.34051 9.37346 2.47015 8.75804Z" fill="#F7B500"/>
<path opacity="0.4" d="M11.3491 1.51104C11.3614 1.5153 11.3614 1.5153 11.3884 1.51846C11.5148 1.53248 11.6179 1.5426 11.8489 1.56433L11.8628 1.56563C12.3215 1.60877 12.5345 1.6328 12.7871 1.67515C13.9504 1.86612 15.0338 2.2708 16.032 2.88785C17.1823 3.59969 18.137 4.54463 18.908 5.71778C19.4177 6.4947 19.8002 7.26126 20.0575 8.04825C20.2691 8.69162 20.3939 9.38968 20.4545 10.1903C20.462 10.2871 20.469 10.3637 20.4854 10.5351L20.4843 11.5491C20.4747 11.5853 20.4747 11.5853 20.4712 11.6368L20.472 11.6164C20.4671 11.6781 20.4635 11.7276 20.4559 11.8368C20.441 12.0497 20.4334 12.1447 20.4206 12.26C20.329 13.1341 20.1335 13.9236 19.8159 14.6543C19.272 15.9044 18.5531 16.9673 17.6331 17.8516C16.7599 18.6905 15.7426 19.3404 14.5791 19.8107C13.9286 20.0734 13.4999 20.2092 13.0439 20.2734C12.8166 20.3059 12.6289 20.3298 12.2261 20.3787C12.0198 20.4038 11.9267 20.4152 11.8123 20.4297C11.7624 20.4357 11.7212 20.4419 11.6353 20.4555C11.5853 20.4635 11.5853 20.4635 11.5377 20.4706C11.4433 20.4844 11.3748 20.4902 11.3118 20.4887C10.8812 20.4797 10.4746 20.4594 10.0857 20.4264C9.98709 20.4178 9.98709 20.4178 9.88854 20.4088C9.47678 20.3708 9.20773 20.331 8.94373 20.2601C7.94188 19.9915 7.10864 19.6748 6.36506 19.2586C5.07793 18.5372 4.00997 17.5399 3.15302 16.2766C2.21597 14.896 1.67725 13.3958 1.54535 11.7731C1.53784 11.6921 1.53048 11.625 1.51412 11.482L1.51568 10.6076C1.52213 10.5798 1.52213 10.5798 1.52753 10.5404C1.53546 10.4629 1.54127 10.4 1.55364 10.2613C1.57778 9.99062 1.59013 9.87022 1.61106 9.72351C1.75891 8.67447 2.07334 7.67044 2.55238 6.71322C3.29621 5.22989 4.36951 4.02868 5.77438 3.1015C7.14272 2.20104 8.60688 1.68274 10.1846 1.55594C10.249 1.55082 10.3133 1.54402 10.3993 1.53369L10.4679 1.52532C10.5303 1.51766 10.535 1.51708 10.5875 1.51104H11.3491ZM10.5726 1.25552L10.5439 1.0016C10.4731 1.00974 10.4731 1.00974 10.4045 1.01815L10.3372 1.02636C10.2575 1.03593 10.1996 1.04207 10.1432 1.04655C8.4764 1.18051 6.9288 1.72834 5.48878 2.67597C4.00886 3.65268 2.87472 4.92199 2.09043 6.486C1.58679 7.49238 1.25583 8.54918 1.10035 9.6524C1.0778 9.81042 1.06484 9.93678 1.03991 10.2163C1.02784 10.3516 1.02225 10.4122 1.01476 10.4857L1.01205 10.4972L1.00491 10.5288L1 11.5105L1.00165 11.5394C1.01787 11.6813 1.02473 11.7438 1.03153 11.817C1.17037 13.5252 1.73921 15.1093 2.72503 16.5617C3.62583 17.8897 4.75283 18.9422 6.11127 19.7035C6.89644 20.143 7.76862 20.4745 8.80893 20.7534C9.1078 20.8337 9.40188 20.8771 9.8407 20.9177C9.94132 20.9268 9.94132 20.9268 10.041 20.9355C10.4422 20.9695 10.8597 20.9904 11.3001 20.9996C11.3967 21.0019 11.4918 20.9939 11.6127 20.9763C11.6661 20.9683 11.6661 20.9683 11.7171 20.9601C11.7997 20.947 11.8333 20.942 11.8761 20.9368C11.9909 20.9223 12.083 20.911 12.2889 20.886C12.6953 20.8366 12.8855 20.8124 13.1171 20.7793C13.6242 20.7079 14.0871 20.5613 14.7739 20.2839C15.9975 19.7892 17.0707 19.1037 17.9921 18.2185C18.9627 17.2856 19.7196 16.1665 20.2895 14.8565C20.6289 14.0758 20.8369 13.2361 20.9334 12.3143C20.947 12.1914 20.955 12.0919 20.9704 11.8722C20.977 11.7774 20.9805 11.7292 20.9844 11.679C20.9858 11.6748 20.9875 11.6692 20.9903 11.6606L21 10.5109L20.9988 10.4867C20.9827 10.3185 20.9759 10.244 20.9688 10.1518C20.9053 9.3133 20.7734 8.57586 20.548 7.89034C20.276 7.05848 19.8736 6.25197 19.3403 5.43906C18.529 4.20461 17.5206 3.20653 16.3051 2.45433C15.2491 1.80156 14.1016 1.37293 12.8723 1.17112C12.6042 1.12618 12.3825 1.10117 11.9116 1.05688L11.8976 1.05557C11.6695 1.03411 11.5683 1.02417 11.4429 1.01029L11.4203 1.00724C11.4019 1.00445 11.4019 1.00445 11.375 1.00129L10.5726 1V1.25552Z" fill="#F7B500"/>
<path d="M11.386 7.78045C11.3487 7.75291 11.3207 7.75488 11.2834 7.77455C11.0933 7.86699 10.9031 7.95746 10.7129 8.0499L8.22375 9.24768C8.18086 9.26932 8.16035 9.29095 8.15662 9.34405C8.14357 9.5073 8.12306 9.67251 8.10628 9.83575C8.05221 10.3707 7.99814 10.9077 7.94407 11.4426C7.89372 11.9422 7.84338 12.4398 7.79117 12.9394C7.78558 12.9905 7.8005 13.02 7.83965 13.0495C8.76073 13.7556 9.39953 14.092 10.3206 14.7982C10.3392 14.8119 9.37517 12.3747 10.428 10.7747C11.7044 8.8349 12.8388 9.02539 12.8512 8.93074C12.5046 8.63198 12.0162 8.24855 11.386 7.78045Z" fill="#F7B500"/>
<path d="M17.3044 7.44883C17.3008 6.99577 17.2934 6.53704 17.22 6.08397C17.1686 5.77815 17.0842 5.48554 16.8512 5.26279C16.7557 5.17217 16.664 5.07967 16.5649 4.99284C16.0583 4.55487 15.4968 4.19242 14.9517 3.80731C14.7792 3.68461 14.5902 3.58455 14.3846 3.52981C14.3406 3.51848 14.2929 3.50338 14.2488 3.50904C13.9515 3.5468 13.6542 3.58078 13.3606 3.63552C12.9532 3.71103 12.5457 3.80165 12.1603 3.96211C12.0135 4.02252 11.8796 4.11502 11.7419 4.19619C11.7217 4.20752 11.7034 4.2415 11.7052 4.26415C11.7089 4.55487 11.7181 4.84559 11.7236 5.13442C11.7327 5.52708 11.7401 5.91785 11.7474 6.3105C11.7511 6.4804 11.7437 6.6503 11.7493 6.8202C11.7511 6.89005 11.7639 6.9599 11.83 7.00709C12.7623 7.69236 13.6946 8.37951 14.6287 9.06477C14.6507 9.07987 14.6893 9.08742 14.715 9.07987C15.55 8.81181 16.385 8.54186 17.22 8.27568C17.2677 8.26058 17.2806 8.23792 17.2806 8.19262C17.2861 7.94343 17.2971 7.69991 17.3044 7.44883Z" fill="#F7B500"/>
<path d="M5.34469 6.90039C5.04268 7.08611 4.74852 7.26981 4.45239 7.44947C4.07783 7.6796 3.70522 7.91175 3.38557 8.21657C3.20907 8.38412 3.0463 8.55167 2.99139 8.81814C2.88157 9.34501 2.75998 9.86785 2.74037 10.4068C2.7188 11.0306 2.71488 11.6544 2.70703 12.2782C2.70703 12.3125 2.72468 12.3569 2.75018 12.3811C3.08356 12.7283 3.4189 13.0715 3.75425 13.4167C3.93859 13.6085 4.11901 13.8023 4.30335 13.994C4.40141 14.097 4.49946 14.1999 4.6034 14.2989C4.6485 14.3433 4.69753 14.3453 4.75636 14.3049C5.48196 13.8063 6.20756 13.3097 6.93316 12.8111C6.9567 12.7949 6.98023 12.7586 6.98219 12.7283C7.04494 12.151 7.10378 11.5736 7.16261 10.9963C7.23125 10.3241 7.30185 9.64983 7.37245 8.97761C7.37637 8.93118 7.3646 8.90494 7.33322 8.87264C6.90375 8.44872 6.47819 8.02278 6.05068 7.59684C5.81339 7.36671 5.57806 7.13254 5.34469 6.90039Z" fill="#F7B500"/>
<path d="M20.657 12.0473C20.6699 11.266 20.6442 10.4868 20.5285 9.71176C20.4215 8.98642 20.3358 8.23166 20.021 7.56021C19.8176 7.12294 19.6452 6.72014 19.4139 6.2953C19.3561 6.18754 19.2474 6.02552 19.1746 5.92605C18.8897 5.53022 18.3293 5.49237 17.8604 5.68511C17.8818 5.7452 17.9053 5.80738 17.9246 5.86748C18.0531 6.25087 18.0959 6.64669 18.1152 7.04666C18.128 7.32229 18.1237 7.59999 18.1173 7.87769C18.113 8.05177 18.0895 8.22378 18.0766 8.39786C18.0638 8.55744 18.0895 8.70043 18.2073 8.83099C18.2972 8.93047 18.37 9.05066 18.4321 9.17086C18.552 9.40297 18.6805 9.63301 18.7704 9.87547C19.0253 10.5697 19.2608 11.2681 19.5028 11.9665C19.5199 12.0163 19.5435 12.0349 19.5992 12.037C19.7405 12.0411 19.8797 12.0536 20.021 12.0618C20.2287 12.0722 20.4386 12.0846 20.6527 12.0991C20.6549 12.0764 20.657 12.0618 20.657 12.0473Z" fill="#F7B500"/>
<path d="M2.68421 8.06956C2.80396 7.9387 2.90998 7.78913 3.0474 7.68112C3.38311 7.41523 3.7306 7.1618 4.07809 6.91461C4.2803 6.77128 4.48644 6.62587 4.70632 6.51578C4.88301 6.42853 5.00865 6.31844 5.10682 6.13979C5.41111 5.57894 5.74093 5.03677 6.16303 4.56108C6.44573 4.24326 6.7088 3.90674 6.98169 3.58062C7.02488 3.52868 7.0347 3.48091 7.00917 3.41444C6.92672 3.19217 6.85212 2.96575 6.77555 2.7414C6.70095 2.52122 6.68082 2.42086 6.48253 2.53718C6.15075 2.73037 5.78064 2.9547 5.4626 3.16866C4.93842 3.52179 4.34712 3.97844 3.91914 4.45205C3.43815 4.98383 3.0901 5.59474 2.70727 6.20545C2.5404 6.47342 2.37809 6.61133 2.276 6.91461C2.22889 7.05379 2.34064 7.34045 2.38776 7.4817C2.4604 7.69566 2.53696 7.90754 2.61746 8.13396C2.64494 8.10695 2.66654 8.09034 2.68421 8.06956Z" fill="#F7B500"/>
<path d="M7.97965 3.03614C8.56231 2.97164 9.14498 2.97543 9.72366 3.05132C10.1413 3.10634 10.5549 3.18602 10.9685 3.2619C11.3384 3.3302 11.3404 3.33399 11.6208 3.19171C11.6288 3.18791 11.6387 3.18222 11.6467 3.17843C11.8057 3.10254 11.9609 3.01527 12.1259 2.95646C12.5753 2.79141 13.0486 2.71363 13.5259 2.65482C13.7228 2.63016 13.9196 2.61119 14.1324 2.58842C14.1185 2.5353 14.1105 2.48408 14.0926 2.43855C14.027 2.27539 13.9674 2.10845 13.8878 1.95099C13.858 1.89407 13.7901 1.76419 13.7265 1.74712C13.4501 1.67123 13.177 1.60417 12.8946 1.54915C12.2404 1.41825 11.5024 1.39818 10.8362 1.3849C10.522 1.37731 8.31175 1.70056 7.94783 1.81439C7.79471 1.86372 7.69714 1.99658 7.54004 2.0478C7.65737 2.34565 7.8305 2.74019 7.94783 3.03614H7.97965Z" fill="#F7B500"/>
<path d="M1.93117 13.3006C1.82502 13.4192 1.78515 13.5686 1.81358 13.7144C1.94437 14.4062 2.23824 15.0185 2.57753 15.6307C3.06277 16.5091 3.61383 17.3141 4.36254 17.9788C4.54451 18.14 4.71858 18.2717 4.90244 18.431C4.93276 18.4563 5.02459 18.4815 5.06061 18.431C5.22172 18.2134 5.38473 17.9976 5.54964 17.7819C5.57618 17.747 5.57049 17.7256 5.54964 17.6925C5.47572 17.5837 5.40558 17.4749 5.33545 17.3641C4.90328 16.6995 4.49575 16.0232 4.31379 15.2342C4.25692 14.9874 4.12424 14.7892 3.94227 14.6085C3.47978 14.1499 3.00591 13.7029 2.60027 13.1879C2.49981 13.0674 2.38229 12.9645 2.23445 12.8867C2.13209 13.0286 2.043 13.1743 1.93117 13.3006Z" fill="#F7B500"/>
<path fill-rule="evenodd" clip-rule="evenodd" d="M7.79011 3.76951C7.29525 4.27039 6.72442 5.09611 6.07761 6.24666C6.03798 6.31707 6.04836 6.40471 6.10334 6.46414L7.92644 8.43489C7.98223 8.4952 8.0711 8.51259 8.14585 8.47782L10.9479 7.17426C11.0141 7.14343 11.0564 7.07744 11.0564 7.00491V4.21307C11.0565 4.12773 10.9983 4.0532 10.9149 4.03184C9.78448 3.74226 8.74288 3.65482 7.79011 3.76951Z" fill="#F7B500"/>
<path opacity="0.4" fill-rule="evenodd" clip-rule="evenodd" d="M5.04004 18.4599C9.69423 21.5713 14.0261 21.256 18.0355 17.5142C13.672 16.5244 9.34019 16.8396 5.04004 18.4599Z" fill="#F7B500"/>
<path opacity="0.4" d="M18.6807 12.0274C18.9501 11.2016 18.518 10.3116 17.6987 10.0048C17.1129 9.80556 16.4638 9.98215 16.0628 10.4498C15.5995 9.94507 14.9817 9.60503 14.3044 9.4819C13.5112 9.34004 12.6935 9.51347 12.0284 9.96464C11.3065 10.4532 10.8071 11.2031 10.6375 12.0529C10.456 12.9098 10.6112 13.803 11.0716 14.5504C11.3523 15.0086 11.7434 15.3907 12.2098 15.6623C12.2853 15.7056 12.3811 15.6903 12.4391 15.6258C12.497 15.5613 12.5012 15.4652 12.4491 15.396C12.4296 15.3689 12.4099 15.3469 12.3908 15.3246C12.36 15.2939 12.335 15.258 12.3169 15.2186C12.0972 14.4709 12.0523 13.6834 12.1855 12.9158C12.3017 12.1724 12.7197 11.5083 13.3424 11.0779C13.873 10.6884 14.5424 10.5336 15.1922 10.65C15.0262 10.6696 14.8632 10.7095 14.707 10.7687C14.2048 10.9615 13.7947 11.3354 13.5591 11.8153C13.0241 12.8762 13.4152 14.1665 14.4516 14.7597C14.7506 14.9228 15.0861 15.0086 15.4273 15.0095H15.4547C15.5414 15.0082 15.6154 14.9471 15.6323 14.8628C15.6492 14.7785 15.6044 14.694 15.5248 14.6599C15.475 14.6387 15.4262 14.6151 15.3786 14.5894C14.9792 14.3702 14.7016 13.9835 14.6235 13.5377C14.536 13.0573 14.6104 12.5618 14.8353 12.1275C14.9838 11.7807 15.2391 11.4893 15.5647 11.2949C15.9634 11.9079 16.194 12.6132 16.2339 13.3414C16.2636 13.9918 16.1736 14.6422 15.9681 15.2606C15.7458 15.95 15.3753 16.791 14.9588 17.3855C16.5808 17.9578 17.5898 17.9578 17.9858 17.3855C18.5382 16.5872 18.0498 13.4141 17.8596 12.9888C18.2584 12.7981 18.5569 12.4487 18.6807 12.0274ZM16.6441 11.1555C16.6606 11.1604 16.6767 11.1652 16.6929 11.1709C17.171 11.3474 17.4926 11.7945 17.5049 12.2999L17.4907 12.2753C17.2554 11.8693 16.9711 11.4933 16.6441 11.1555Z" fill="#F7B500"/>
<path opacity="0.4" d="M6.93098 16.5858C7.78548 16.5858 8.47818 15.8994 8.47818 15.0527C8.47818 14.2059 7.78548 13.5195 6.93098 13.5195C6.07649 13.5195 5.38379 14.2059 5.38379 15.0527C5.38379 15.8994 6.07649 16.5858 6.93098 16.5858Z" fill="#F7B500"/>
<path opacity="0.4" fill-rule="evenodd" clip-rule="evenodd" d="M6.93077 15.5645H10.0252C10.31 15.5645 10.5409 15.7933 10.5409 16.0755C10.5409 16.3577 10.31 16.5865 10.0252 16.5865H6.93077C6.64594 16.5865 6.41504 16.3577 6.41504 16.0755C6.41504 15.7933 6.64594 15.5645 6.93077 15.5645Z" fill="#F7B500"/>
</svg>
