<svg width="22" height="22" viewBox="0 0 22 22" xmlns="http://www.w3.org/2000/svg">
<g opacity="0.1">
<path fill-rule="evenodd" clip-rule="evenodd" d="M19.1949 1.46361C20.0247 2.16701 20.133 3.4168 19.4367 4.25508L15.6544 8.80862L16.4057 9.44543L18.2968 7.16866L19.0481 7.80547L18.4177 8.5644L19.1689 9.20121L19.7993 8.44229C20.6291 9.14569 20.7374 10.3955 20.0411 11.2338L16.6252 15.3472C15.9413 13.4436 14.1351 12.0837 12.0144 12.0837C9.30633 12.0837 7.11097 14.3014 7.11097 17.0372C7.11097 17.5788 7.19701 18.1001 7.35603 18.5879L2.20068 14.2169C1.37086 13.5135 1.26263 12.2637 1.95892 11.4255L9.52348 2.31838C10.2198 1.4801 11.4569 1.37076 12.2868 2.07416L8.50447 6.6277L9.25573 7.26451L13.038 2.71097L13.7893 3.34779L11.8981 5.62456L12.6494 6.26137L16.4317 1.70783C17.128 0.869546 18.3651 0.760204 19.1949 1.46361Z" fill="black"/>
<path d="M12.0146 20.9999C14.1811 20.9999 15.9374 19.2256 15.9374 17.037C15.9374 14.8484 14.1811 13.0742 12.0146 13.0742C9.84809 13.0742 8.0918 14.8484 8.0918 17.037C8.0918 19.2256 9.84809 20.9999 12.0146 20.9999Z" fill="#666666"/>
</g>
</svg>
