<svg width="22" height="22" viewBox="0 0 22 22" fill="none" xmlns="http://www.w3.org/2000/svg">
<g opacity="0.1">
<path fill-rule="evenodd" clip-rule="evenodd" d="M10.2965 20.9845C5.10155 20.6212 1 16.2919 1 11.0046C1 10.448 1.04544 9.90214 1.13281 9.37036C1.5752 9.45795 2.03258 9.50388 2.50068 9.50388C6.36844 9.50388 9.50388 6.36844 9.50388 2.50068C9.50388 2.03258 9.45795 1.5752 9.37036 1.13281C9.90214 1.04544 10.448 1 11.0046 1C16.2919 1 20.6212 5.10155 20.9845 10.2965C19.933 9.78859 18.7535 9.50388 17.5075 9.50388C13.0872 9.50388 9.50388 13.0872 9.50388 17.5075C9.50388 18.7535 9.78859 19.933 10.2965 20.9845Z" fill="black"/>
<path fill-rule="evenodd" clip-rule="evenodd" d="M11.4355 20.9996C10.8429 19.9716 10.5039 18.7789 10.5039 17.5071C10.5039 13.6393 13.6393 10.5039 17.5071 10.5039C18.7789 10.5039 19.9716 10.8429 20.9996 11.4355C20.7797 16.6177 16.6177 20.7797 11.4355 20.9996Z" fill="#666666"/>
<path fill-rule="evenodd" clip-rule="evenodd" d="M1.34473 8.39142C2.26889 4.96573 4.96671 2.26791 8.3924 1.34375C8.4654 1.71788 8.50364 2.10444 8.50364 2.49993C8.50364 5.81515 5.81613 8.50267 2.5009 8.50267C2.10541 8.50267 1.71885 8.46442 1.34473 8.39142Z" fill="#666666"/>
<path fill-rule="evenodd" clip-rule="evenodd" d="M8.73316 16.3497L11.2475 16.5085L11.2126 17.5084L8.69824 17.3495L8.73316 16.3497ZM10.7209 12.0106L12.6026 13.4443L11.9866 14.2327L10.105 12.7989L10.7209 12.0106ZM14.2489 9.40024L15.3686 11.5725L14.4619 11.9953L13.3421 9.82305L14.2489 9.40024ZM17.5489 8.83008L18.5439 8.93465L18.3528 11.1301L17.3578 11.0255L17.5489 8.83008Z" fill="white"/>
<path fill-rule="evenodd" clip-rule="evenodd" d="M9.63244 4.44528L7.42832 3.94663L7.68879 2.99824L9.87598 3.37576L9.63244 4.44528ZM7.23635 8.38599L5.6724 6.54581L6.50053 5.85156L8.05444 7.68426L7.23635 8.38599ZM3.60943 10.1094L2.98571 7.88217L3.95588 7.58504L4.6826 9.82397L3.60943 10.1094Z" fill="white"/>
</g>
</svg>
