<svg width="22" height="22" viewBox="0 0 22 22" xmlns="http://www.w3.org/2000/svg">
<path fill-rule="evenodd" clip-rule="evenodd" d="M19.0823 8.1689L14.4714 18.1063L14.4658 18.1037L13.9004 19.322C13.4266 20.3428 12.219 20.7844 11.2031 20.3084L8.9979 19.2746L8.69751 13.5091L10.5939 14.3974L13.246 8.68182L19.0823 8.1689ZM5.57588 12.0458L7.65527 13.0207L7.95566 18.7871L5.87627 17.8123L5.57588 12.0458ZM4.53529 11.56L4.83505 17.3249L2.46547 16.2144C1.19556 15.6194 0.646141 14.1026 1.23831 12.8266C1.81892 11.5755 3.28143 11.0204 4.53529 11.56ZM17.6546 1.59578L20.4138 2.88863C20.9218 3.12663 21.1415 3.73334 20.9047 4.24375L19.5775 7.10229L13.7412 7.6152L16.3059 2.08901C16.5428 1.5786 17.1466 1.35778 17.6546 1.59578Z" fill="#F7B500"/>
<path d="M6.86246 10.595C8.82413 10.595 10.4144 8.99711 10.4144 7.02602C10.4144 5.05492 8.82413 3.45703 6.86246 3.45703C4.90079 3.45703 3.31055 5.05492 3.31055 7.02602C3.31055 8.99711 4.90079 10.595 6.86246 10.595Z" fill="#F7B500"/>
<path d="M6.35468 6.51598C6.91515 6.51598 7.36951 6.05944 7.36951 5.49627C7.36951 4.9331 6.91515 4.47656 6.35468 4.47656C5.7942 4.47656 5.33984 4.9331 5.33984 5.49627C5.33984 6.05944 5.7942 6.51598 6.35468 6.51598Z" fill="#F2D78F"/>
<path d="M8.46308 6.08239C9.02355 6.08239 9.47791 5.62585 9.47791 5.06268C9.47791 4.49951 9.02355 4.04297 8.46308 4.04297C7.9026 4.04297 7.44824 4.49951 7.44824 5.06268C7.44824 5.62585 7.9026 6.08239 8.46308 6.08239Z" fill="#F2D78F"/>
<path d="M4.50214 7.4359C5.06261 7.4359 5.51697 6.97936 5.51697 6.41619C5.51697 5.85302 5.06261 5.39648 4.50214 5.39648C3.94166 5.39648 3.4873 5.85302 3.4873 6.41619C3.4873 6.97936 3.94166 7.4359 4.50214 7.4359Z" fill="#F2D78F"/>
<path d="M5.87909 8.90465C6.43957 8.90465 6.89392 8.44811 6.89392 7.88494C6.89392 7.32177 6.43957 6.86523 5.87909 6.86523C5.31861 6.86523 4.86426 7.32177 4.86426 7.88494C4.86426 8.44811 5.31861 8.90465 5.87909 8.90465Z" fill="#F2D78F"/>
</svg>
