<svg width="22" height="22" viewBox="0 0 22 22" fill="none" xmlns="http://www.w3.org/2000/svg">
<g opacity="0.1">
<path fill-rule="evenodd" clip-rule="evenodd" d="M9.53395 12.7531C8.41979 11.6727 7.65039 9.6319 7.65039 9.6319C7.65039 9.6319 10.7716 6.46182 11.1173 1.08203C13.3316 1.25148 14.7445 1.87344 14.7445 1.87344C14.7445 1.87344 15.1943 8.60188 9.53395 12.7531Z" fill="#666666"/>
<path fill-rule="evenodd" clip-rule="evenodd" d="M10.3984 13.5486C10.3984 13.5486 12.2481 15.205 14.7224 15.7381C16.3624 14.838 19.1475 12.4376 19.5417 6.1893C17.9641 3.45692 15.7823 2.33008 15.7823 2.33008C15.7823 2.33008 16.0728 9.08668 10.3984 13.5486Z" fill="black"/>
<path fill-rule="evenodd" clip-rule="evenodd" d="M20.4608 7.50781C22.1909 12.3936 19.2053 16.4667 19.2053 16.4667C19.2053 16.4667 18.1541 16.6055 16.3466 16.075C16.2139 16.0359 19.6135 14.3415 20.4608 7.50781Z" fill="#666666"/>
<path fill-rule="evenodd" clip-rule="evenodd" d="M2.34277 6.07597C2.34277 6.07597 5.10081 3.25171 9.42622 4.22195C9.98644 2.8891 10.1937 1 10.1937 1C10.1937 1 5.187 1.49401 2.34277 6.07597Z" fill="black"/>
<path fill-rule="evenodd" clip-rule="evenodd" d="M1.07229 12.6038C1.07229 12.6038 2.24697 8.81576 6.72781 8.54603C7.83519 7.59999 9.0336 5.42684 9.07524 5.18675C8.66657 5.02273 7.0624 4.69619 5.09749 5.45598C4.07243 5.85267 3.22604 6.17675 1.65721 7.85935C0.979322 9.46884 0.912986 11.7848 1.07229 12.6038Z" fill="#666666"/>
<path fill-rule="evenodd" clip-rule="evenodd" d="M6.55029 9.46225C6.55029 9.46225 8.46726 17.3625 18.7087 17.32C17.4628 18.8875 14.6714 20.415 14.6714 20.415C14.6714 20.415 6.1668 19.9985 3.30176 10.8697C3.98691 10.0862 5.15239 9.40593 6.55029 9.46225Z" fill="black"/>
<path fill-rule="evenodd" clip-rule="evenodd" d="M1.80058 14.5645C1.80058 14.5645 1.38271 12.8448 2.48234 11.7852C2.64164 12.5973 4.93629 18.9972 12.4236 20.9031C10.4306 21.1857 4.13348 21.3058 1.80058 14.5645Z" fill="#666666"/>
</g>
</svg>
