<svg width="22" height="22" viewBox="0 0 22 22" xmlns="http://www.w3.org/2000/svg">
<g opacity="0.1">
<path fill-rule="evenodd" clip-rule="evenodd" d="M14.7569 1.7788C14.7839 1.7788 14.811 1.7796 14.838 1.78121C15.6291 1.82833 16.2458 2.46582 16.2458 3.23637V9.38883C16.2458 9.64081 16.4559 9.84507 16.7151 9.84507C16.9743 9.84507 17.1844 9.64081 17.1844 9.38883L17.1844 5.14495C17.1844 4.70921 17.5013 4.33427 17.9409 4.24978C19.3136 3.98603 20 4.63447 20 6.19512V13.495C20 20.8469 14.4434 21.0188 12.4612 20.9989C15.6091 20.5259 18.0186 17.8802 18.0186 14.6873C18.0186 11.8248 16.0819 9.40211 13.4129 8.59024C13.425 8.55448 13.4302 8.516 13.4302 8.47634V3.06865C13.4302 2.35629 14.0242 1.7788 14.7569 1.7788ZM7.65381 1.75977L7.82269 1.76031C8.33161 1.77286 8.73746 2.17757 8.73746 2.67253V8.47634C8.73746 8.60606 8.79315 8.72314 8.88254 8.80621C6.52996 9.77641 4.87897 12.0444 4.87897 14.6873C4.87897 15.0086 4.90336 15.3242 4.95043 15.6327L2.35863 12.1629C1.74928 11.3475 1.9352 10.2062 2.7739 9.6138C3.6126 9.02136 4.78647 9.20213 5.39582 10.0175L5.92183 10.7214V3.45765C5.92183 2.34771 6.49915 1.78175 7.65381 1.75977ZM12.4636 1.87701C12.4822 1.95775 12.4916 2.04025 12.4916 2.12299L12.4914 8.37991C12.1519 8.32726 11.8036 8.29991 11.4488 8.29991C10.8324 8.29991 10.2359 8.38244 9.67021 8.53674C9.67457 8.5177 9.67601 8.49718 9.67601 8.47634V2.73768C9.67601 1.91762 10.2608 1.20718 11.0838 1.02752C11.7061 0.891668 12.3239 1.272 12.4636 1.87701Z" fill="black"/>
<path fill-rule="evenodd" clip-rule="evenodd" d="M5.83496 15.1198C8.19806 14.8832 10.0411 12.9417 10.0411 10.5816C10.0411 10.1822 9.98835 9.79482 9.88919 9.42562C10.3845 9.2871 10.9078 9.21289 11.449 9.21289C14.559 9.21289 17.0802 11.6641 17.0802 14.6878C17.0802 15.0451 17.045 15.3945 16.9778 15.7327C16.2965 15.358 15.5092 15.1441 14.6705 15.1441C12.0788 15.1441 9.9778 17.1867 9.9778 19.7065C9.9778 19.797 9.98052 19.8869 9.98586 19.9762C7.72303 19.3859 6.02279 17.4593 5.83496 15.1198Z" fill="black"/>
<path fill-rule="evenodd" clip-rule="evenodd" d="M5.83984 14.2008C6.01792 12.2374 7.26197 10.5716 9.00576 9.75391C9.06921 10.0199 9.10276 10.2971 9.10276 10.5818C9.10276 12.4358 7.68108 13.9669 5.83984 14.2008Z" fill="#666666"/>
<path fill-rule="evenodd" clip-rule="evenodd" d="M10.9423 20.141C10.925 19.9986 10.916 19.8536 10.916 19.7066C10.916 17.6908 12.5968 16.0566 14.6702 16.0566C15.4225 16.0566 16.1231 16.2718 16.7105 16.6422C15.9012 18.7008 13.8505 20.1628 11.4486 20.1628C11.278 20.1628 11.1091 20.1555 10.9423 20.141Z" fill="#666666"/>
</g>
</svg>
