<svg width="22" height="22" viewBox="0 0 22 22" fill="none" xmlns="http://www.w3.org/2000/svg">
<mask id="mask0_12_1575" style="mask-type:alpha" maskUnits="userSpaceOnUse" x="0" y="0" width="22" height="22">
<path d="M22 0H0V22H22V0Z" fill="black"/>
</mask>
<g mask="url(#mask0_12_1575)">
<path fill-rule="evenodd" clip-rule="evenodd" d="M4.14453 15.6953L6.3112 17.862L2.70009 21.4731L0.53342 19.3064L4.14453 15.6953Z" fill="#666666"/>
<path fill-rule="evenodd" clip-rule="evenodd" d="M2.09082 8.72852L13.2701 19.9078C10.2322 20.6789 6.87707 19.8758 4.49994 17.4987C2.12282 15.1216 1.31978 11.7664 2.09082 8.72852Z" fill="#666666"/>
<path fill-rule="evenodd" clip-rule="evenodd" d="M4.49948 4.49903C3.71374 5.28477 3.09998 6.17736 2.6582 7.13003L14.8685 19.3403C15.8211 18.8985 16.7137 18.2848 17.4995 17.499C21.0893 13.9092 21.0893 8.08888 17.4995 4.49903C13.9096 0.909178 8.08933 0.909178 4.49948 4.49903ZM17.4994 14.6102C16.7017 15.4079 15.4083 15.4079 14.6105 14.6102C13.8128 13.8125 13.8128 12.5191 14.6105 11.7213C15.4083 10.9236 16.7017 10.9236 17.4994 11.7213C18.2972 12.5191 18.2972 13.8124 17.4994 14.6102Z" fill="black"/>
</g>
</svg>
