<svg width="22" height="22" viewBox="0 0 22 22" xmlns="http://www.w3.org/2000/svg">
<path fill-rule="evenodd" clip-rule="evenodd" d="M14.7231 2.11719L14.6704 2.84153C14.6653 2.91228 14.7012 2.97981 14.7629 3.01581C15.4507 3.41661 15.9527 3.73614 16.269 3.97442C16.5866 4.21366 16.9765 4.60308 17.4386 5.14266C17.4775 5.188 17.5359 5.21235 17.5959 5.20819L18.6982 5.13175C17.9828 4.30939 17.3523 3.6891 16.8066 3.27089C16.261 2.85267 15.5665 2.46811 14.7231 2.11719Z" fill="#FFBB00"/>
<path opacity="0.4" fill-rule="evenodd" clip-rule="evenodd" d="M16.1169 18.7865C16.0082 18.7496 15.9045 18.7077 15.8058 18.6608L15.8057 18.661C15.7501 18.6346 15.685 18.6367 15.6313 18.6667C14.6725 19.2021 13.8085 19.5071 13.0392 19.5817C13.0392 19.6197 13.0392 19.7479 12.9701 19.9564C12.9352 20.0617 12.867 20.203 12.7656 20.3803C14.0719 20.203 15.3345 19.6894 16.5535 18.8394C16.5535 18.8394 16.3287 18.8584 16.1169 18.7865Z" fill="#FFBB00"/>
<path fill-rule="evenodd" clip-rule="evenodd" d="M2.47015 8.7466L1.92102 7.63086C1.37595 9.40781 1.25411 11.1848 1.55551 12.9617C1.66688 12.6555 1.88444 12.4126 2.20821 12.233C2.16323 11.5822 2.16323 10.9921 2.20821 10.4626C2.25319 9.93308 2.34051 9.36109 2.47015 8.7466Z" fill="#FFBB00"/>
<path opacity="0.4" d="M11.3491 1.51028C11.3614 1.51453 11.3614 1.51453 11.3884 1.51768C11.5148 1.53168 11.6179 1.54179 11.8489 1.56348L11.8628 1.56478C12.3215 1.60785 12.5345 1.63185 12.7871 1.67413C13.9504 1.86482 15.0338 2.26889 16.032 2.88501C17.1823 3.59579 18.137 4.5393 18.908 5.71068C19.4177 6.48644 19.8002 7.25185 20.0575 8.03766C20.2691 8.68006 20.3939 9.37706 20.4545 10.1765C20.462 10.2731 20.469 10.3496 20.4854 10.5208L20.4843 11.5332C20.4747 11.5694 20.4747 11.5694 20.4712 11.6208L20.472 11.6005C20.4671 11.6621 20.4635 11.7115 20.4559 11.8205C20.441 12.0331 20.4334 12.1279 20.4206 12.2431C20.329 13.1158 20.1335 13.9042 19.8159 14.6337C19.272 15.882 18.5531 16.9433 17.6331 17.8263C16.7599 18.6639 15.7426 19.3128 14.5791 19.7824C13.9286 20.0448 13.4999 20.1803 13.0439 20.2444C12.8166 20.2769 12.6289 20.3007 12.2261 20.3496C12.0198 20.3746 11.9267 20.386 11.8123 20.4005C11.7624 20.4065 11.7212 20.4126 11.6353 20.4263C11.5853 20.4342 11.5853 20.4342 11.5377 20.4414C11.4433 20.4551 11.3748 20.4609 11.3118 20.4594C10.8812 20.4504 10.4746 20.4301 10.0857 20.3972C9.98709 20.3886 9.98709 20.3886 9.88854 20.3796C9.47678 20.3417 9.20773 20.302 8.94373 20.2312C7.94188 19.963 7.10864 19.6468 6.36506 19.2311C5.07793 18.5109 4.00997 17.5151 3.15302 16.2536C2.21597 14.8751 1.67725 13.3772 1.54535 11.7569C1.53784 11.676 1.53048 11.609 1.51412 11.4662L1.51568 10.5932C1.52213 10.5654 1.52213 10.5654 1.52753 10.5261C1.53546 10.4487 1.54127 10.3859 1.55364 10.2474C1.57778 9.9771 1.59013 9.85688 1.61106 9.7104C1.75891 8.66293 2.07334 7.66041 2.55238 6.70463C3.29621 5.22353 4.36951 4.02413 5.77438 3.09834C7.14272 2.19924 8.60688 1.68172 10.1846 1.5551C10.249 1.54999 10.3133 1.5432 10.3993 1.53288L10.4679 1.52453C10.5303 1.51688 10.535 1.51631 10.5875 1.51028H11.3491ZM10.5726 1.25514L10.5439 1.00159C10.4731 1.00972 10.4731 1.00972 10.4045 1.01812L10.3372 1.02632C10.2575 1.03587 10.1996 1.04201 10.1432 1.04648C8.4764 1.18024 6.9288 1.72725 5.48878 2.67345C4.00886 3.64869 2.87472 4.91609 2.09043 6.47775C1.58679 7.48262 1.25583 8.53783 1.10035 9.63939C1.0778 9.79718 1.06484 9.92334 1.03991 10.2024C1.02784 10.3376 1.02225 10.398 1.01476 10.4714L1.01205 10.4829L1.00491 10.5145L1 11.4947L1.00165 11.5235C1.01787 11.6652 1.02473 11.7277 1.03153 11.8008C1.17037 13.5064 1.73921 15.0881 2.72503 16.5384C3.62583 17.8643 4.75283 18.9152 6.11127 19.6754C6.89644 20.1142 7.76862 20.4452 8.80893 20.7237C9.1078 20.8039 9.40188 20.8473 9.8407 20.8877C9.94132 20.8968 9.94132 20.8968 10.041 20.9056C10.4422 20.9395 10.8597 20.9603 11.3001 20.9695C11.3967 20.9719 11.4918 20.9638 11.6127 20.9462C11.6661 20.9382 11.6661 20.9382 11.7171 20.9301C11.7997 20.917 11.8333 20.912 11.8761 20.9068C11.9909 20.8923 12.083 20.8811 12.2889 20.8561C12.6953 20.8067 12.8855 20.7826 13.1171 20.7495C13.6242 20.6782 14.0871 20.5319 14.7739 20.2549C15.9975 19.761 17.0707 19.0765 17.9921 18.1926C18.9627 17.2611 19.7196 16.1437 20.2895 14.8357C20.6289 14.0561 20.8369 13.2177 20.9334 12.2973C20.947 12.1746 20.955 12.0752 20.9704 11.8558C20.977 11.7612 20.9805 11.713 20.9844 11.6629C20.9858 11.6588 20.9875 11.6531 20.9903 11.6446L21 10.4966L20.9988 10.4724C20.9827 10.3045 20.9759 10.2301 20.9688 10.138C20.9053 9.3008 20.7734 8.56447 20.548 7.87998C20.276 7.04937 19.8736 6.24408 19.3403 5.43239C18.529 4.1998 17.5206 3.20321 16.3051 2.45214C15.2491 1.80036 14.1016 1.37237 12.8723 1.17086C12.6042 1.12599 12.3825 1.10102 11.9116 1.05679L11.8976 1.05548C11.6695 1.03406 11.5683 1.02414 11.4429 1.01028L11.4203 1.00723C11.4019 1.00444 11.4019 1.00444 11.375 1.00129L10.5726 1V1.25514Z" fill="#FFBB00"/>
<path d="M14.3236 10.2156C14.3199 10.2156 14.3162 10.2137 14.3124 10.2137C14.3087 10.1508 14.3106 10.086 14.3012 10.0232C14.2938 9.96426 14.2826 9.90731 14.2267 9.86607C13.2795 9.16891 12.3323 8.47174 11.387 7.77065C11.3497 7.74316 11.3217 7.74512 11.2844 7.76476C11.0942 7.85706 10.9041 7.9474 10.7139 8.0397L8.22472 9.23568C8.18184 9.25728 8.16133 9.27888 8.1576 9.33191C8.14455 9.49491 8.12404 9.65987 8.10726 9.82287C8.05319 10.357 7.99911 10.8932 7.94504 11.4273C7.8947 11.9261 7.84436 12.423 7.79215 12.9218C7.78656 12.9729 7.80147 13.0023 7.84063 13.0318C8.76171 13.7368 9.68279 14.4438 10.6039 15.1488C10.6356 15.1724 10.6598 15.1802 10.699 15.1626C11.2844 14.9112 11.8718 14.6637 12.4554 14.4104C12.9588 14.1924 13.4491 13.9509 13.9171 13.6602C13.96 13.6327 13.9787 13.6013 13.9824 13.5502C13.9899 13.4246 14.0048 13.3008 14.016 13.1771C14.0607 12.694 14.1055 12.2089 14.1521 11.7258C14.1782 11.4489 14.2061 11.174 14.236 10.8991C14.2621 10.6673 14.2938 10.4434 14.3236 10.2156Z" fill="#FFBB00"/>
<path d="M17.3044 7.439C17.3008 6.98662 17.2934 6.52858 17.22 6.07619C17.1686 5.77083 17.0842 5.47867 16.8512 5.25624C16.7557 5.16577 16.664 5.0734 16.5649 4.9867C16.0583 4.54939 15.4968 4.18748 14.9517 3.80295C14.7792 3.68043 14.5902 3.58053 14.3846 3.52587C14.3406 3.51456 14.2929 3.49948 14.2488 3.50513C13.9515 3.54283 13.6542 3.57676 13.3606 3.63143C12.9532 3.70682 12.5457 3.7973 12.1603 3.95752C12.0135 4.01784 11.8796 4.1102 11.7419 4.19125C11.7217 4.20256 11.7034 4.23649 11.7052 4.25911C11.7089 4.54939 11.7181 4.83967 11.7236 5.12807C11.7327 5.52013 11.7401 5.91032 11.7474 6.30238C11.7511 6.47203 11.7437 6.64167 11.7493 6.81132C11.7511 6.88106 11.7639 6.9508 11.83 6.99793C12.7623 7.68216 13.6946 8.36828 14.6287 9.05251C14.6507 9.06759 14.6893 9.07513 14.715 9.06759C15.55 8.79993 16.385 8.53038 17.22 8.26461C17.2677 8.24953 17.2806 8.22691 17.2806 8.18167C17.2861 7.93286 17.2971 7.6897 17.3044 7.439Z" fill="#FFBB00"/>
<path opacity="0.4" d="M16.3246 15.6596C16.3379 15.6265 16.3095 15.6033 16.2679 15.5818C15.9877 15.4346 15.7075 15.2857 15.4273 15.1368C15.0254 14.9234 14.6234 14.71 14.2198 14.4966C14.2015 14.4867 14.1648 14.485 14.1498 14.4949C13.8546 14.705 13.526 14.8572 13.1908 14.9929C12.5554 15.2477 11.9183 15.4975 11.2812 15.7473C11.2345 15.7655 11.2128 15.7919 11.2028 15.8382C11.1645 16.0252 11.1244 16.2105 11.0844 16.3974C10.966 16.945 10.8459 17.4925 10.7292 18.0401C10.7258 18.0583 10.7358 18.0898 10.7492 18.098C11.001 18.2601 11.2562 18.4173 11.508 18.5794C11.7915 18.7631 12.0801 18.9368 12.4036 19.0476C12.6721 19.1402 12.9356 19.165 13.2075 19.0509C13.8329 18.7879 14.4616 18.5348 15.0887 18.2767C15.1938 18.2337 15.2905 18.1725 15.3923 18.1245C15.6675 17.9921 15.8376 17.7771 15.9393 17.4959C16.1528 16.9036 16.2462 16.2932 16.3246 15.6596Z" fill="#FFBB00"/>
<path d="M5.34469 6.89062C5.04268 7.07606 4.74852 7.25949 4.45239 7.43888C4.07783 7.66866 3.70522 7.90046 3.38557 8.20483C3.20907 8.37213 3.0463 8.53942 2.99139 8.80549C2.88157 9.33157 2.75998 9.85363 2.74037 10.3918C2.7188 11.0146 2.71488 11.6375 2.70703 12.2603C2.70703 12.2946 2.72468 12.3389 2.75018 12.3631C3.08356 12.7098 3.4189 13.0525 3.75425 13.3971C3.93859 13.5886 4.11901 13.7821 4.30335 13.9736C4.40141 14.0764 4.49946 14.1792 4.6034 14.278C4.6485 14.3223 4.69753 14.3243 4.75636 14.284C5.48196 13.7862 6.20756 13.2903 6.93316 12.7924C6.9567 12.7763 6.98023 12.74 6.98219 12.7098C7.04494 12.1333 7.10378 11.5568 7.16261 10.9804C7.23125 10.3092 7.30185 9.63594 7.37245 8.96473C7.37637 8.91837 7.3646 8.89216 7.33322 8.85991C6.90375 8.43663 6.47819 8.01132 6.05068 7.58602C5.81339 7.35624 5.57806 7.12242 5.34469 6.89062Z" fill="#FFBB00"/>
<path opacity="0.4" d="M20.6561 12.0298C20.6689 11.2497 20.6432 10.4716 20.5276 9.69772C20.4205 8.97348 20.3348 8.21985 20.0201 7.54941C19.8166 7.11279 19.6442 6.7106 19.413 6.2864C19.3551 6.1788 19.2464 6.01703 19.1736 5.9177C18.8888 5.52247 18.3283 5.48468 17.8594 5.67712C17.8808 5.73713 17.9043 5.79921 17.9236 5.85922C18.0521 6.24203 18.0949 6.63727 18.1142 7.03664C18.1271 7.31185 18.1228 7.58913 18.1163 7.86641C18.1121 8.04023 18.0885 8.21198 18.0757 8.3858C18.0628 8.54514 18.0885 8.68792 18.2063 8.81828C18.2962 8.91761 18.369 9.03762 18.4311 9.15764C18.551 9.3894 18.6795 9.61909 18.7695 9.86119C19.0243 10.5544 19.2599 11.2517 19.5018 11.9491C19.519 11.9988 19.5425 12.0174 19.5982 12.0194C19.7395 12.0236 19.8787 12.036 20.0201 12.0443C20.2278 12.0546 20.4376 12.067 20.6518 12.0815C20.6539 12.0588 20.6561 12.0443 20.6561 12.0298Z" fill="#FFBB00"/>
<path d="M2.68323 8.05727C2.80299 7.9266 2.909 7.77726 3.04642 7.66941C3.38213 7.40392 3.72962 7.15087 4.07711 6.90405C4.27932 6.76093 4.48546 6.61575 4.70534 6.50582C4.88203 6.4187 5.00768 6.30877 5.10584 6.1304C5.41014 5.57038 5.73996 5.02903 6.16205 4.55406C6.44475 4.23672 6.70782 3.90071 6.98071 3.57507C7.0239 3.52321 7.03372 3.47551 7.0082 3.40914C6.92574 3.1872 6.85114 2.96112 6.77457 2.73712C6.69997 2.51726 6.67984 2.41705 6.48155 2.5332C6.14977 2.7261 5.77966 2.95009 5.46162 3.16373C4.93744 3.51633 4.34614 3.97229 3.91816 4.4452C3.43717 4.97617 3.08912 5.58616 2.70629 6.19596C2.53942 6.46352 2.37711 6.60123 2.27503 6.90405C2.22791 7.04302 2.33967 7.32925 2.38678 7.47029C2.45942 7.68392 2.53599 7.89549 2.61648 8.12157C2.64397 8.0946 2.66556 8.07801 2.68323 8.05727Z" fill="#FFBB00"/>
<path d="M7.98063 3.03366C8.56329 2.96925 9.14595 2.97304 9.72464 3.04881C10.1422 3.10375 10.5559 3.18331 10.9695 3.25908C11.3394 3.32727 11.3414 3.33106 11.6218 3.18899C11.6297 3.1852 11.6397 3.17952 11.6476 3.17573C11.8067 3.09996 11.9618 3.01282 12.1269 2.9541C12.5763 2.7893 13.0496 2.71163 13.5269 2.65291C13.7237 2.62828 13.9206 2.60934 14.1334 2.58661C14.1195 2.53357 14.1115 2.48243 14.0936 2.43696C14.028 2.27406 13.9683 2.10736 13.8888 1.95013C13.859 1.89331 13.7911 1.76362 13.7275 1.74658C13.4511 1.6708 13.178 1.60384 12.8956 1.5489C12.2414 1.4182 11.5034 1.39816 10.8372 1.3849C10.523 1.37732 8.31272 1.70009 7.94881 1.81375C7.79568 1.863 7.69812 1.99566 7.54102 2.04681C7.65834 2.34421 7.83148 2.73815 7.94881 3.03366H7.98063Z" fill="#FFBB00"/>
<path opacity="0.4" d="M16.3827 18.5375C16.5177 18.5512 16.6781 18.5456 16.813 18.5375C16.9948 18.5275 17.1594 18.4347 17.2831 18.3224C17.8863 17.7755 18.4208 17.3215 18.903 16.6707C19.5141 15.8486 20.0676 14.8585 20.278 13.8546C20.3091 13.7085 20.2522 13.5708 20.278 13.4162C19.9209 13.3613 19.5241 13.2455 19.1789 13.1936C19.0413 13.5329 18.8535 13.8421 18.6292 14.1263C18.1537 14.724 17.6272 15.2776 17.0349 15.7699C16.9734 15.8221 16.9418 15.8809 16.9251 15.9548C16.8735 16.1945 16.8298 16.4368 16.7584 16.6707C16.5696 17.2914 16.3688 17.9091 16.0256 18.4826C16.1518 18.5035 16.2677 18.5275 16.3827 18.5375Z" fill="#FFBB00"/>
<path d="M1.93117 13.2824C1.82502 13.4008 1.78515 13.55 1.81358 13.6955C1.94437 14.3863 2.23824 14.9978 2.57753 15.609C3.06277 16.486 3.61383 17.2899 4.36254 17.9535C4.54451 18.1146 4.71858 18.246 4.90244 18.4051C4.93276 18.4303 5.02459 18.4555 5.06061 18.4051C5.22172 18.1878 5.38473 17.9724 5.54964 17.757C5.57618 17.7221 5.57049 17.7007 5.54964 17.6677C5.47572 17.5591 5.40558 17.4504 5.33545 17.3398C4.90328 16.6762 4.49575 16.0009 4.31379 15.2131C4.25692 14.9667 4.12424 14.7688 3.94227 14.5883C3.47978 14.1304 3.00591 13.6841 2.60027 13.1699C2.49981 13.0496 2.38229 12.9468 2.23445 12.8691C2.13209 13.0108 2.043 13.1563 1.93117 13.2824Z" fill="#FFBB00"/>
<path opacity="0.4" d="M12.5373 19.6399C12.2419 19.6173 11.9586 19.5246 11.6829 19.4037C11.0872 19.1427 10.524 18.8121 9.97713 18.4387C9.93416 18.4103 9.87793 18.3921 9.82752 18.3942C9.18855 18.3992 8.55077 18.4639 7.90938 18.3954C7.55595 18.3572 7.20052 18.3651 6.85351 18.2619C6.74126 18.2279 6.6284 18.2101 6.51655 18.1807C6.47297 18.1684 6.45189 18.1818 6.429 18.2206C6.28784 18.479 6.14246 18.7355 6.0013 18.9939C5.96274 19.0616 5.93141 19.118 6.0013 19.1533C6.21336 19.2637 6.41884 19.405 6.62568 19.5251C6.93514 19.7075 7.29114 19.8317 7.62388 19.9569C8.3434 20.2232 9.0787 20.4506 9.82752 20.5442C10.341 20.6077 10.8556 20.6028 11.3704 20.5442C11.6628 20.5096 11.9488 20.4479 12.2074 20.2828C12.4176 20.1426 12.5624 19.9483 12.5887 19.6493C12.5662 19.6466 12.5516 19.641 12.5373 19.6399Z" fill="#FFBB00"/>
<path opacity="0.4" fill-rule="evenodd" clip-rule="evenodd" d="M7.13414 13.5029L5.14949 14.942C5.08363 14.9897 5.05625 15.0739 5.08163 15.1507C5.4538 16.2767 5.84795 17.1212 6.26409 17.6842C7.6013 17.8923 8.8465 17.9252 9.99968 17.7827L10.2586 16.0002C10.2679 15.9358 10.2428 15.8713 10.1923 15.8298L7.3663 13.5098C7.29967 13.4551 7.20398 13.4523 7.13414 13.5029Z" fill="#FFBB00"/>
<path opacity="0.4" fill-rule="evenodd" clip-rule="evenodd" d="M17.581 9.07031L15.1918 9.9698L14.7227 13.8163L16.73 15.0224C18.0634 13.7536 18.7876 12.9187 18.9026 12.5175C18.9026 11.8133 18.4621 10.6642 17.581 9.07031Z" fill="#FFBB00"/>
<path fill-rule="evenodd" clip-rule="evenodd" d="M7.79109 3.76553C7.29623 4.26566 6.7254 5.09013 6.07858 6.23895C6.03896 6.30926 6.04934 6.39677 6.10432 6.45611L7.92741 8.4239C7.98321 8.48412 8.07208 8.50148 8.14682 8.46676L10.9488 7.16516C11.0151 7.13438 11.0574 7.06849 11.0574 6.99607V4.20842C11.0575 4.12321 10.9993 4.04879 10.9159 4.02746C9.78545 3.73832 8.74386 3.65101 7.79109 3.76553Z" fill="#FFBB00"/>
</svg>
