<svg width="22" height="22" viewBox="0 0 22 22" fill="none" xmlns="http://www.w3.org/2000/svg">
<path fill-rule="evenodd" clip-rule="evenodd" d="M14.5084 20.3671C13.4166 20.7763 12.2342 21 10.9996 21C6.51003 21 2.71149 18.0415 1.44727 13.9676C2.75177 14.7035 4.25822 15.1234 5.86274 15.1234C10.8333 15.1234 14.8627 11.0939 14.8627 6.12338C14.8627 4.3516 14.3508 2.69939 13.4667 1.30664C17.7964 2.40526 20.9996 6.32857 20.9996 11C20.9996 11.539 20.9569 12.0679 20.8749 12.5838C17.2663 13.1265 14.4996 16.2401 14.4996 20C14.4996 20.1231 14.5025 20.2455 14.5084 20.3671Z" fill="#F7B500"/>
<path opacity="0.4" fill-rule="evenodd" clip-rule="evenodd" d="M15.5 19.9323C15.5315 16.8361 17.7277 14.2585 20.6472 13.6406C19.8958 16.3923 17.9985 18.671 15.5 19.9323Z" fill="#F7B500"/>
<path opacity="0.4" fill-rule="evenodd" clip-rule="evenodd" d="M1.1222 12.5679C1.04176 12.0571 1 11.5334 1 11C1 5.47715 5.47715 1 11 1C11.3556 1 11.7069 1.01856 12.0529 1.05477C13.1842 2.4347 13.8632 4.19975 13.8632 6.12338C13.8632 10.5417 10.2814 14.1234 5.86316 14.1234C4.08861 14.1234 2.449 13.5456 1.1222 12.5679Z" fill="#F7B500"/>
<path d="M9.4159 5.55107C8.90485 6.15392 8.42921 6.58198 7.9938 6.83828L7.26416 6.46295L7.11522 6.72006L8.27037 7.32177L7.79511 8.14415L7.56734 8.02077C7.21033 8.70135 7.03538 9.35892 7.04771 10.0002L6.84554 10.3205C7.87776 10.3375 8.8585 9.94017 9.76665 9.12451L10.9265 9.73967C9.62879 11.1386 8.01664 11.5773 6.16078 11.0741L6.51797 10.526C5.97976 9.67147 6.0476 8.68457 6.69738 7.54846L6.6417 7.51807L4.92084 10.2211L3.86488 9.55531L5.57041 6.92986L5.48879 6.8849C4.75455 8.0079 3.77421 8.5144 2.58041 8.39563L3.02796 7.74366C3.63016 7.54192 4.17497 7.10041 4.65426 6.42428L4.28242 6.2176L4.74733 5.47164L6.03941 6.15607L6.25343 5.79453L7.27426 6.31964C7.7072 6.0213 8.10051 5.61305 8.45111 5.09682L9.4159 5.55107ZM8.45314 3.90579C8.92097 4.13636 9.44148 4.26931 9.98472 4.29339L9.52972 5.19456C9.03915 5.11995 8.57014 4.97519 8.13663 4.76676L5.81285 3.66981L6.23798 2.91067L8.45314 3.90579ZM8.03977 8.04475C9.09099 8.08341 10.0018 7.71887 10.7538 6.94787L11.9428 7.51799C10.7633 8.81895 9.29161 9.2424 7.58808 8.80853L8.03977 8.04475ZM9.16351 6.02924C9.99405 6.04834 10.7292 5.70905 11.3578 5.00623L12.5987 5.54799C11.4483 6.78549 10.1466 7.19465 8.74441 6.80311L9.16351 6.02924ZM6.51646 4.17869C6.4308 4.81992 6.27553 5.37315 6.05136 5.8349L5.16092 5.37027C5.38373 4.91972 5.56702 4.39242 5.70917 3.79173L6.51646 4.17869ZM7.69692 4.74009C7.66241 5.22958 7.54466 5.69495 7.34434 6.13416L6.43309 5.66998C6.58727 5.36182 6.73444 4.92054 6.87032 4.34738L7.69692 4.74009Z" fill="white"/>
</svg>
