<svg width="22" height="22" viewBox="0 0 22 22" fill="none" xmlns="http://www.w3.org/2000/svg">
<path d="M8 17.7824C7.36825 19.2316 5.88765 20.249 4.16391 20.249C1.86269 20.249 0 18.4396 0 16.209C0 13.7234 2.22307 11.9435 4.80217 12.1605L8 17.7824Z" fill="black"/>
<path d="M18.812 12.726C19.2094 13.4695 18.938 14.4 18.2115 14.8043C17.9957 14.9261 17.7457 14.9891 17.4915 14.9891C16.9402 14.9891 16.4338 14.6848 16.1709 14.1913L14.3761 10.8477C12.9551 11.7477 12 13.3369 12 15.1609C12 17.9697 14.2393 20.2502 17 20.2502C19.7607 20.2502 22 17.9719 22 15.1609C22.0021 12.4956 19.9786 10.3346 17.4124 10.1172L18.812 12.726Z" fill="black"/>
<path fill-rule="evenodd" clip-rule="evenodd" d="M6 7.07617C6.55228 7.07617 7 7.52984 7 8.08948C7 8.52919 6.7236 8.90348 6.33726 9.04371L10.295 15.9913C10.5712 16.476 10.4073 17.0957 9.92899 17.3755C9.4507 17.6554 8.83911 17.4893 8.56297 17.0047L4.06297 9.10673L4.06 9.10278H2C1.44772 9.10278 1 8.64911 1 8.08948C1 7.52984 1.44772 7.07617 2 7.07617H6Z" fill="#666666"/>
<path d="M13.4127 7.15165L6.62832 11.4474C6.15996 11.744 6.01753 12.3691 6.31019 12.8437C6.60286 13.3183 7.2198 13.4626 7.68816 13.1661L14.4725 8.87031C14.9409 8.57375 15.0833 7.94861 14.7907 7.47401C14.498 6.99942 13.8811 6.85509 13.4127 7.15165Z" fill="#666666"/>
<path fill-rule="evenodd" clip-rule="evenodd" d="M11.5039 1.75C11.9224 1.75 12.2808 2.01046 12.4299 2.38012L18.3675 12.8042C18.6437 13.2889 18.4798 13.9086 18.0015 14.1884C17.5232 14.4682 16.9116 14.3022 16.6355 13.8175L10.9139 3.77661H8.50391C7.95162 3.77661 7.50391 3.32294 7.50391 2.7633C7.50391 2.20367 7.95162 1.75 8.50391 1.75H11.5039Z" fill="#666666"/>
</svg>
