<svg width="22" height="22" viewBox="0 0 22 22" fill="none" xmlns="http://www.w3.org/2000/svg">
<mask id="mask0_12_1683" style="mask-type:alpha" maskUnits="userSpaceOnUse" x="0" y="0" width="22" height="22">
<path d="M22 0H0V22H22V0Z" fill="white"/>
</mask>
<g mask="url(#mask0_12_1683)">
<path fill-rule="evenodd" clip-rule="evenodd" d="M9.45667 2.79297L18.0298 7.53689C18.4249 9.81973 18.2706 12.4693 16.9685 14.7246C15.8097 16.7317 13.9259 18.1076 11.9926 18.9495L2.80715 13.6463C2.56957 11.551 2.81931 9.2317 3.97812 7.22458C5.23723 5.04373 7.35219 3.60805 9.45667 2.79297ZM9.81431 5.77667L9.25876 6.73892L11.6084 8.09521L10.4974 10.0195L8.14764 8.66342L7.59209 9.62567L9.9419 10.9817L8.8309 12.906L6.48098 11.5502L5.92542 12.5124L8.2754 13.8681L7.74646 14.7856L8.67434 15.3213L9.20378 14.4041L11.4927 15.7267L12.0483 14.7645L9.75928 13.442L10.8703 11.5177L13.1594 12.84L13.715 11.8777L11.4258 10.5555L12.5368 8.63122L14.8261 9.95321L15.3816 8.99096L13.0923 7.66906L13.6743 6.66104L12.7465 6.12533L12.1639 7.13306L9.81431 5.77667Z" fill="white"/>
<path fill-rule="evenodd" clip-rule="evenodd" d="M12.0172 19.0009C9.34326 20.1654 6.57438 20.3083 5.49729 19.6864C4.4202 19.0646 3.1595 16.5952 2.83105 13.6973L12.0172 19.0009Z" fill="white" fill-opacity="0.4"/>
<path fill-rule="evenodd" clip-rule="evenodd" d="M15.4631 2.2829C16.444 2.84921 17.5772 4.94771 18.0198 7.50675L9.4453 2.76201C11.9567 1.78905 14.4534 1.69991 15.4631 2.2829Z" fill="white" fill-opacity="0.4"/>
</g>
</svg>
