<svg width="21" height="22" viewBox="0 0 21 22" fill="none" xmlns="http://www.w3.org/2000/svg">
<path fill-rule="evenodd" clip-rule="evenodd" d="M18 11.3535L17.9989 12.8998C17.9989 17.3738 14.4175 21.0007 9.99963 21.0007C5.58178 21.0007 2.0004 17.3738 2.0004 12.8998L2 11.354C3.97929 12.5966 6.83037 13.3764 9.99963 13.3764C13.1693 13.3764 16.0207 12.5964 18 11.3535Z" fill="white"/>
<path opacity="0.4" fill-rule="evenodd" clip-rule="evenodd" d="M9.52869 1L9.52862 4.10037C8.96608 4.42995 8.58761 5.04592 8.58761 5.7514V7.65748C8.58761 8.36297 8.96608 8.97893 9.52862 9.30851L9.52869 12.4169C6.54869 12.3439 3.88081 11.5812 2 10.4005V9.08703C2 4.77304 5.32986 1.24665 9.52869 1Z" fill="white"/>
<path fill-rule="evenodd" clip-rule="evenodd" d="M10.4703 1L10.4704 4.10037C11.0329 4.42995 11.4114 5.04592 11.4114 5.7514V7.65748C11.4114 8.36297 11.0329 8.97893 10.4704 9.30851L10.4703 12.4169C13.4503 12.3439 16.1182 11.5812 17.999 10.4005V9.08703C17.999 4.77304 14.6692 1.24665 10.4703 1Z" fill="white"/>
</svg>
