<svg width="22" height="22" viewBox="0 0 22 22" xmlns="http://www.w3.org/2000/svg">
<mask id="mask0_12_1555" style="mask-type:alpha" maskUnits="userSpaceOnUse" x="0" y="0" width="22" height="22">
<path d="M22 0H0V22H22V0Z" fill="white"/>
</mask>
<g mask="url(#mask0_12_1555)">
<path fill-rule="evenodd" clip-rule="evenodd" d="M8.28577 18.6185L7.35227 19.731C6.36329 20.9097 4.60608 21.0634 3.42746 20.0744C2.24883 19.0854 2.09509 17.3282 3.08408 16.1496L4.01758 15.0371L8.28577 18.6185Z" fill="black"/>
<path fill-rule="evenodd" clip-rule="evenodd" d="M16.1663 4.89228L17.3666 7.79594L9.03861 14.6672C8.82728 14.8416 8.55191 14.8968 8.30012 14.833L6.40837 17.0859L5.87484 16.6382L7.75664 14.3949C7.63575 14.1521 7.63686 13.8576 7.77758 13.6091L13.0984 4.2145L16.1663 4.89228Z" fill="#666666"/>
<path fill-rule="evenodd" clip-rule="evenodd" d="M20.7475 10.2725L20.5328 12.8206L10.3325 16.6021C10.2916 16.6172 10.2501 16.6267 10.2087 16.631L7.31705 18.9025L6.88958 18.3521L9.65634 16.1769C9.6477 16.0844 9.66479 15.9903 9.70702 15.9056L9.85772 15.6033C10.1323 15.0524 10.5251 14.5691 11.0082 14.1877L18.1104 8.5804L20.7475 10.2725Z" fill="black"/>
<path fill-rule="evenodd" clip-rule="evenodd" d="M10.109 1.3525L7.63682 2.00641L5.6841 12.7084C5.67628 12.7513 5.67414 12.7938 5.67713 12.8353L3.94226 16.0775L4.55853 16.4029L6.22018 13.3004C6.31283 13.2929 6.4025 13.2597 6.47861 13.2034L6.75018 13.0025C7.24496 12.6364 7.65277 12.1656 7.94448 11.6237L12.2333 3.65571L10.109 1.3525Z" fill="black"/>
<path fill-rule="evenodd" clip-rule="evenodd" d="M5.91309 13.8613L9.09389 16.6341L8.51317 17.0893L5.57064 14.507L5.91309 13.8613Z" fill="#666666"/>
</g>
</svg>
