<svg width="28" height="28" viewBox="0 0 28 28" fill="none" xmlns="http://www.w3.org/2000/svg">
<path d="M13.2054 24.2137L7.00635 27.237C6.79796 27.3509 6.55017 27.4183 6.28663 27.4183C5.4487 27.4183 4.76925 26.7388 4.76925 25.9009C4.76925 25.816 4.77626 25.7328 4.78939 25.6523L4.78852 25.661L5.74552 18.6564C5.75515 18.5934 5.76041 18.5207 5.76041 18.4472C5.76041 18.0391 5.5993 17.6679 5.33663 17.3956L5.3375 17.3965L0.422903 12.2367C0.161106 11.9644 0 11.594 0 11.186C0 10.4418 0.535852 9.82274 1.24244 9.69316L1.25207 9.69141L8.25667 8.43058C8.72948 8.34653 9.11998 8.05584 9.338 7.65657L9.34238 7.64869L12.7046 1.39096C12.9646 0.905893 13.4681 0.581055 14.0468 0.581055C14.6256 0.581055 15.1299 0.905893 15.3856 1.38308L15.39 1.39096L18.6821 7.64869C18.9002 8.05058 19.281 8.3404 19.7346 8.42971L19.7442 8.43146L26.7488 9.69228C27.465 9.82362 28 10.4427 28 11.186C28 11.594 27.8389 11.9644 27.5771 12.2376L27.578 12.2367L22.6634 17.3614C22.4103 17.632 22.2554 17.9962 22.2554 18.3964C22.2554 18.4883 22.2632 18.5785 22.279 18.666L22.2772 18.6564L23.2342 25.661C23.243 25.7232 23.2483 25.7959 23.2483 25.8685C23.2483 26.7064 22.5688 27.3859 21.7309 27.3859C21.4919 27.3859 21.2668 27.3307 21.0654 27.2327L21.0742 27.237L14.8165 24.2137C14.5809 24.0972 14.3043 24.0298 14.0109 24.0298C13.7176 24.0298 13.4409 24.0981 13.1949 24.2189L13.2054 24.2137Z" fill="#00FFD0"/>
<path d="M8.47656 20.0927V11.0918H11.197V20.0927H8.47656Z" fill="black"/>
<path d="M12.6445 20.0927V11.0918H15.3763V20.0927H12.6445Z" fill="black"/>
<path d="M16.8242 20.0927V11.0918H19.556V20.0927H16.8242Z" fill="black"/>
</svg>
