<svg width="36" height="36" viewBox="0 0 36 36" fill="none" xmlns="http://www.w3.org/2000/svg">
<path d="M32.012 6.95996C32.004 6.95996 31.995 6.95996 31.985 6.95996C30.888 6.95996 29.998 7.84896 29.998 8.94696V12.16H33.998V8.94696C33.998 7.84996 33.11 6.95996 32.012 6.95996Z" fill="#B1BAD3"/>
<path d="M20.4 25.8535H2C2 27.7315 3.522 29.2535 5.4 29.2535H22.413C21.066 29.2535 20.4 27.7335 20.4 25.8535Z" fill="#B1BAD3"/>
<path d="M31.787 6H13.4C11.522 6 10 7.522 10 9.4V24.293H21.813V25.84C21.809 25.904 21.806 25.978 21.806 26.053C21.806 27.931 23.328 29.453 25.206 29.453C27.084 29.453 28.606 27.931 28.606 26.053C28.606 25.978 28.604 25.904 28.599 25.83L28.6 25.84V9.4C28.6 9.4 28.6 9.4 28.6 9.32C28.641 7.55 30.039 6.12 31.792 6.027H31.8C31.8 6.027 31.787 6.014 31.787 6ZM20.733 19.947H12.986V17.627H20.733V19.947ZM25.387 13.747H12.987V11.427H25.387V13.747Z" fill="#B1BAD3"/>
</svg>
