<svg width="36" height="36" viewBox="0 0 36 36" fill="none" xmlns="http://www.w3.org/2000/svg">
<g clip-path="url(#clip0_783_7324)">
<path d="M28.507 5H7.507L2 12.533L18 30.453L34 12.533L28.507 5Z" fill="#7AF2FF"/>
<path d="M18.04 30.4532V20.3062L7.62695 18.8262L18.04 30.4532Z" fill="#00CFE3"/>
<path d="M28.4661 18.8271L18.0391 30.4541V18.4141L28.4661 18.8271Z" fill="#00AEBF"/>
<path d="M33.9603 12.5996H2.02734L7.62734 18.8266H28.4673L33.9603 12.5996Z" fill="#00C3D6"/>
<path d="M7.51939 5L12.3324 12.6L2.02539 12.493L7.51839 5H7.51939Z" fill="#DBFFFE"/>
<path d="M28.4676 5L23.6406 12.6L33.9606 12.493L28.4676 5Z" fill="#00E4FB"/>
<path d="M18.04 5L7.62695 18.8L7.66695 18.813L18.04 15.133V5Z" fill="#BAFFFE"/>
<path d="M7.66797 18.8128L18.041 23.6928V15.1328L7.66797 18.8128Z" fill="#00E4FB"/>
<path d="M18.0391 23.6928L28.4261 18.8128L18.0391 15.1328V23.6928Z" fill="#00FFFB"/>
<path d="M18.0391 5V15.133L28.4261 18.813L28.4661 18.8L18.0391 5Z" fill="#00E4FB"/>
</g>
<defs>
<clipPath id="clip0_783_7324">
<rect width="36" height="36" fill="white"/>
</clipPath>
</defs>
</svg>
