<svg width="36" height="36" viewBox="0 0 36 36" xmlns="http://www.w3.org/2000/svg">
<path d="M17.082 29.991L10.002 33.431C9.765 33.561 9.483 33.637 9.183 33.637C8.226 33.637 7.45 32.861 7.45 31.904C7.45 31.813 7.457 31.723 7.471 31.635L7.47 31.645L8.563 23.645C8.575 23.569 8.582 23.481 8.582 23.392C8.582 22.93 8.397 22.51 8.096 22.205L2.483 16.312C2.184 16.001 2 15.578 2 15.112C2 14.262 2.612 13.555 3.419 13.407L3.43 13.405L11.43 11.965C11.969 11.867 12.415 11.535 12.665 11.081L12.67 11.072L16.497 3.925C16.794 3.371 17.369 3 18.03 3C18.691 3 19.267 3.371 19.559 3.916L19.564 3.925L23.337 11.072C23.59 11.533 24.03 11.864 24.553 11.964L24.564 11.966L32.564 13.406C33.382 13.556 33.993 14.263 33.993 15.112C33.993 15.578 33.809 16.001 33.51 16.313L33.511 16.312L27.898 22.165C27.601 22.47 27.418 22.887 27.418 23.346C27.418 23.452 27.428 23.555 27.446 23.655L27.444 23.645L28.537 31.645C28.549 31.723 28.557 31.813 28.557 31.904C28.557 32.861 27.781 33.637 26.824 33.637C26.524 33.637 26.242 33.561 25.995 33.427L26.004 33.432L18.871 29.992C18.609 29.867 18.302 29.795 17.978 29.795C17.654 29.795 17.347 29.868 17.072 29.998L17.085 29.992L17.082 29.991Z" fill="#00FFD0"/>
<path d="M16.4414 25.2709V15.0039H19.5614V25.2709H16.4414Z" fill="black"/>
</svg>
