<svg width="28" height="28" viewBox="0 0 28 28" fill="none" xmlns="http://www.w3.org/2000/svg">
<path d="M23.1936 2.86426H4.81862L0 9.45563L14 25.1356L28 9.45563L23.1936 2.86426Z" fill="#7AF2FF"/>
<path d="M14.0352 25.1355V16.2569L4.92383 14.9619L14.0352 25.1355Z" fill="#00CFE3"/>
<path d="M23.1588 14.9629L14.0352 25.1366V14.6016L23.1588 14.9629Z" fill="#00AEBF"/>
<path d="M27.9648 9.51367H0.0234375L4.92344 14.9623H23.1584L27.9648 9.51367Z" fill="#00C3D6"/>
<path d="M4.82873 2.86426L9.04011 9.51426L0.0214844 9.42063L4.82786 2.86426H4.82873Z" fill="#DBFFFE"/>
<path d="M23.1592 2.86426L18.9355 9.51426L27.9655 9.42063L23.1592 2.86426Z" fill="#00E4FB"/>
<path d="M14.0352 2.86426L4.92383 14.9393L4.95883 14.9506L14.0352 11.7306V2.86426Z" fill="#BAFFFE"/>
<path d="M4.95898 14.9505L14.0354 19.2205V11.7305L4.95898 14.9505Z" fill="#00E4FB"/>
<path d="M14.0352 19.2205L23.1238 14.9505L14.0352 11.7305V19.2205Z" fill="#00FFFB"/>
<path d="M14.0352 2.86426V11.7306L23.1238 14.9506L23.1588 14.9393L14.0352 2.86426Z" fill="#00E4FB"/>
</svg>
