<svg width="28" height="28" viewBox="0 0 28 28" fill="none" xmlns="http://www.w3.org/2000/svg">
<path d="M13.1949 24.2061L6.99584 27.2181C6.79183 27.3267 6.55017 27.3906 6.29275 27.3906C5.45483 27.3906 4.77538 26.7111 4.77538 25.8732C4.77538 25.7997 4.78064 25.7279 4.79027 25.6578L4.78939 25.6657L5.7464 18.6611C5.75428 18.6024 5.75865 18.535 5.75865 18.4658C5.75865 18.0569 5.59842 17.6857 5.33663 17.4117L5.3375 17.4125L0.422903 12.2405C0.161106 11.9682 0 11.5978 0 11.1898C0 10.4456 0.535852 9.82655 1.24244 9.69696L1.25207 9.69521L8.25667 8.43439C8.72423 8.35296 9.11123 8.06577 9.32662 7.67176L9.331 7.66388L12.6818 1.40615C12.9462 0.928084 13.448 0.609375 14.0241 0.609375C14.6002 0.609375 15.1019 0.928084 15.3628 1.39827L15.3672 1.40615L18.6708 7.66388C18.8905 8.06577 19.2775 8.35296 19.7355 8.43351L19.7442 8.43526L26.7488 9.69609C27.465 9.82742 28 10.4465 28 11.1898C28 11.5978 27.8389 11.9682 27.5771 12.2414L27.578 12.2405L22.6634 17.3652C22.399 17.6393 22.2361 18.0132 22.2361 18.4256C22.2361 18.5087 22.2431 18.5902 22.2554 18.6699L22.2545 18.6611L23.2115 25.6657C23.2202 25.7279 23.2255 25.8005 23.2255 25.8732C23.2255 26.7111 22.546 27.3906 21.7081 27.3906C21.4507 27.3906 21.209 27.3267 20.9972 27.2137L21.005 27.2181L14.7596 24.2061C14.5302 24.0967 14.2614 24.0336 13.9777 24.0336C13.694 24.0336 13.4252 24.0975 13.1844 24.2114L13.1949 24.2061Z" fill="#00FFD0"/>
<path d="M7.85938 20.0843V11.0947H10.5798V20.0843H7.85938Z" fill="black"/>
<path d="M14.3739 20.0843L11.0703 11.0947H14.1523L16.09 17.1423L18.0276 11.0947H21.1097L17.8061 20.0843H14.3739Z" fill="black"/>
</svg>
