<svg width="36" height="36" viewBox="0 0 36 36" xmlns="http://www.w3.org/2000/svg">
<path d="M17.07 28.95L9.99 32.39C9.757 32.514 9.481 32.587 9.187 32.587C8.23 32.587 7.454 31.811 7.454 30.854C7.454 30.77 7.46 30.688 7.471 30.608L7.47 30.617L8.563 22.617C8.572 22.55 8.577 22.473 8.577 22.394C8.577 21.927 8.394 21.503 8.095 21.19L8.096 21.191L2.483 15.284C2.184 14.973 2 14.55 2 14.084C2 13.234 2.612 12.527 3.419 12.379L3.43 12.377L11.43 10.937C11.964 10.844 12.406 10.516 12.652 10.066L12.657 10.057L16.484 2.91C16.786 2.364 17.359 2 18.017 2C18.675 2 19.248 2.364 19.546 2.901L19.551 2.91L23.324 10.057C23.575 10.516 24.017 10.844 24.54 10.936L24.55 10.938L32.55 12.378C33.368 12.528 33.979 13.235 33.979 14.084C33.979 14.55 33.795 14.973 33.496 15.285L33.497 15.284L27.884 21.137C27.582 21.45 27.396 21.877 27.396 22.348C27.396 22.443 27.404 22.536 27.418 22.627L27.417 22.617L28.51 30.617C28.52 30.688 28.526 30.771 28.526 30.854C28.526 31.811 27.75 32.587 26.793 32.587C26.499 32.587 26.223 32.514 25.981 32.385L25.99 32.39L18.857 28.95C18.595 28.825 18.288 28.753 17.964 28.753C17.64 28.753 17.333 28.826 17.058 28.956L17.07 28.95Z" fill="#00FFD0"/>
<path d="M10.9766 24.2426V13.9756H14.0836V24.2426H10.9766Z" fill="black"/>
<path d="M18.4175 24.2426L14.6445 13.9756H18.1645L20.3775 20.8826L22.5905 13.9756H26.1105L22.3375 24.2426H18.4175Z" fill="black"/>
</svg>
