<svg width="28" height="28" viewBox="0 0 28 28" fill="none" xmlns="http://www.w3.org/2000/svg">
<path d="M13.1996 24.216L7.00328 27.2267C6.79586 27.3405 6.54906 27.407 6.2865 27.407C5.44894 27.407 4.76979 26.7278 4.76979 25.8903C4.76979 25.8106 4.77592 25.7319 4.78817 25.6549L4.7873 25.6636L5.74388 18.6621C5.75438 18.5956 5.76051 18.5185 5.76051 18.4407C5.76051 18.0363 5.5986 17.6687 5.33517 17.4018L0.422718 12.2443C0.161035 11.9721 0 11.6019 0 11.1941C0 10.4502 0.535617 9.8314 1.2419 9.70187L1.25152 9.70012L8.25306 8.43984C8.72478 8.35407 9.11512 8.06351 9.33392 7.66617L9.33829 7.6583L12.6877 1.4033C12.9476 0.918446 13.4508 0.59375 14.0293 0.59375C14.6078 0.59375 15.1119 0.918446 15.3675 1.39543L15.3719 1.4033L18.674 7.6583C18.8954 8.06176 19.2805 8.35145 19.7382 8.43897L19.7478 8.44072L26.7494 9.70099C27.4653 9.83227 28 10.451 28 11.1941C28 11.6019 27.839 11.9721 27.5773 12.2452L27.5782 12.2443L22.6657 17.3668C22.4058 17.6337 22.2456 17.9987 22.2456 18.4004C22.2456 18.4932 22.2544 18.5833 22.2701 18.6708L22.2684 18.6621L23.225 25.6636C23.2355 25.7319 23.2425 25.8106 23.2425 25.8903C23.2425 26.7278 22.5633 27.407 21.7258 27.407C21.4632 27.407 21.2164 27.3405 21.0002 27.2232L21.0081 27.2276L14.7654 24.2169C14.5361 24.1075 14.2674 24.0445 13.9838 24.0445C13.7002 24.0445 13.4316 24.1084 13.1909 24.2222L13.2023 24.2169L13.1996 24.216Z" fill="#00FFD0"/>
<path d="M12.6387 20.0852V11.0996H15.3693V20.0852H12.6387Z" fill="black"/>
</svg>
