<svg width="36" height="36" viewBox="0 0 36 36" xmlns="http://www.w3.org/2000/svg">
<path d="M17.082 29.991L10.002 33.444C9.764 33.574 9.481 33.651 9.18 33.651C8.223 33.651 7.447 32.875 7.447 31.918C7.447 31.821 7.455 31.726 7.47 31.634L7.469 31.644L8.562 23.644C8.573 23.572 8.579 23.489 8.579 23.405C8.579 22.939 8.395 22.515 8.095 22.204L8.096 22.205L2.483 16.312C2.184 16.001 2 15.578 2 15.112C2 14.262 2.612 13.555 3.419 13.407L3.43 13.405L11.43 11.965C11.97 11.869 12.416 11.537 12.665 11.081L12.67 11.072L16.51 3.925C16.807 3.371 17.382 3 18.043 3C18.704 3 19.28 3.371 19.572 3.916L19.577 3.925L23.337 11.072C23.586 11.531 24.021 11.862 24.539 11.964L24.55 11.966L32.55 13.406C33.368 13.556 33.979 14.263 33.979 15.112C33.979 15.578 33.795 16.001 33.496 16.313L33.497 16.312L27.884 22.165C27.595 22.474 27.418 22.89 27.418 23.347C27.418 23.452 27.427 23.555 27.445 23.655L27.443 23.644L28.536 31.644C28.546 31.715 28.552 31.798 28.552 31.881C28.552 32.838 27.776 33.614 26.819 33.614C26.546 33.614 26.289 33.551 26.059 33.439L26.069 33.444L18.922 29.991C18.653 29.858 18.337 29.781 18.002 29.781C17.667 29.781 17.351 29.859 17.07 29.997L17.082 29.991Z" fill="#00FFD0"/>
<path d="M11.6816 25.2839V15.0039H14.7886V25.2839H11.6816Z" fill="black"/>
<path d="M16.4414 25.2839V15.0039H19.5614V25.2839H16.4414Z" fill="black"/>
<path d="M21.2148 25.2839V15.0039H24.3348V25.2839H21.2148Z" fill="black"/>
</svg>
