<svg width="36" height="36" viewBox="0 0 36 36" fill="none" xmlns="http://www.w3.org/2000/svg">
<path d="M17.082 28.991L10.002 32.431C9.765 32.561 9.483 32.637 9.183 32.637C8.226 32.637 7.45 31.861 7.45 30.904C7.45 30.813 7.457 30.723 7.471 30.635L7.47 30.645L8.563 22.645C8.575 22.569 8.582 22.481 8.582 22.392C8.582 21.93 8.397 21.51 8.096 21.205L2.483 15.312C2.184 15.001 2 14.578 2 14.112C2 13.262 2.612 12.555 3.419 12.407L3.43 12.405L11.43 10.965C11.969 10.867 12.415 10.535 12.665 10.081L12.67 10.072L16.497 2.925C16.794 2.371 17.369 2 18.03 2C18.691 2 19.267 2.371 19.559 2.916L19.564 2.925L23.337 10.072C23.59 10.533 24.03 10.864 24.553 10.964L24.564 10.966L32.564 12.406C33.382 12.556 33.993 13.263 33.993 14.112C33.993 14.578 33.809 15.001 33.51 15.313L33.511 15.312L27.898 21.165C27.601 21.47 27.418 21.887 27.418 22.346C27.418 22.452 27.428 22.555 27.446 22.655L27.444 22.645L28.537 30.645C28.549 30.723 28.557 30.813 28.557 30.904C28.557 31.861 27.781 32.637 26.824 32.637C26.524 32.637 26.242 32.561 25.995 32.427L26.004 32.432L18.871 28.992C18.609 28.867 18.302 28.795 17.978 28.795C17.654 28.795 17.347 28.868 17.072 28.998L17.085 28.992L17.082 28.991Z" fill="#00FFD0"/>
<path d="M14.0684 24.2709V14.0039H17.1754V24.2709H14.0684Z" fill="black"/>
<path d="M18.8281 24.2709V14.0039H22.0011V24.2709H18.8281Z" fill="black"/>
</svg>
