<svg width="36" height="36" viewBox="0 0 36 36" fill="none" xmlns="http://www.w3.org/2000/svg">
<g clip-path="url(#clip0_637_2570)">
<path d="M18.002 6.174L20.829 11.427C21.486 12.658 22.661 13.539 24.055 13.783L24.082 13.787L29.962 14.854L25.829 19.161C25.028 19.992 24.534 21.124 24.534 22.371C24.534 22.589 24.549 22.802 24.578 23.012L24.575 22.988L25.388 28.908L20.175 26.388C19.539 26.077 18.792 25.895 18.002 25.895C17.212 25.895 16.464 26.077 15.799 26.401L15.829 26.388L10.616 28.908L11.429 22.988C11.455 22.803 11.47 22.589 11.47 22.371C11.47 21.124 10.976 19.992 10.174 19.16L10.175 19.161L6.002 14.854L11.882 13.787C13.319 13.551 14.511 12.667 15.163 11.451L15.175 11.427L18.002 6.174ZM18.002 2C18.001 2 18 2 17.999 2C17.339 2 16.766 2.368 16.473 2.911L16.468 2.92L12.668 10.067C12.415 10.528 11.975 10.859 11.452 10.959L11.441 10.961L3.441 12.401C2.618 12.546 2 13.256 2 14.109C2 14.574 2.183 14.996 2.481 15.308L2.48 15.307L8.093 21.16C8.397 21.466 8.584 21.887 8.584 22.353C8.584 22.455 8.575 22.554 8.558 22.651L8.56 22.641L7.467 30.641C7.456 30.713 7.45 30.796 7.45 30.881C7.45 31.838 8.226 32.614 9.183 32.614C9.184 32.614 9.185 32.614 9.187 32.614C9.202 32.615 9.221 32.615 9.239 32.615C9.517 32.615 9.78 32.546 10.009 32.423L10 32.427L17.133 28.987C17.402 28.853 17.718 28.774 18.053 28.774C18.388 28.774 18.704 28.853 18.985 28.992L18.973 28.987L26 32.427C26.217 32.545 26.476 32.614 26.75 32.614C26.753 32.614 26.757 32.614 26.761 32.614C26.778 32.615 26.797 32.615 26.817 32.615C27.774 32.615 28.55 31.839 28.55 30.882C28.55 30.797 28.544 30.713 28.532 30.632L28.533 30.641L27.44 22.641C27.428 22.565 27.421 22.477 27.421 22.388C27.421 21.926 27.606 21.506 27.907 21.201L33.52 15.348C33.819 15.037 34.003 14.614 34.003 14.148C34.003 13.298 33.391 12.591 32.584 12.443L32.573 12.441L24.573 11.001C24.027 10.894 23.58 10.547 23.338 10.078L23.333 10.068L19.533 2.921C19.236 2.369 18.662 2 18.002 2C18.001 2 18 2 17.999 2H18.002Z" fill="#B1BAD3"/>
</g>
<defs>
<clipPath id="clip0_637_2570">
<rect width="36" height="36" fill="white"/>
</clipPath>
</defs>
</svg>
