<svg width="28" height="28" viewBox="0 0 28 28" fill="none" xmlns="http://www.w3.org/2000/svg">
<path d="M26.2624 4.57812C26.2554 4.57812 26.2475 4.57812 26.2387 4.57812C25.2788 4.57812 24.5 5.35605 24.5 6.31686V9.1284H28.0002V6.31686C28.0002 5.35692 27.2232 4.57812 26.2624 4.57812Z" fill="currentColor"/>
<path d="M16.101 21.1113H0C0 22.7547 1.33183 24.0865 2.97518 24.0865H17.8625C16.6838 24.0865 16.101 22.7564 16.101 21.1113Z" fill="currentColor"/>
<path d="M26.0648 3.73828H9.97518C8.33183 3.73828 7 5.07011 7 6.71346V19.7456H17.337V21.0993C17.3335 21.1553 17.3309 21.2201 17.3309 21.2857C17.3309 22.9291 18.6627 24.2609 20.3061 24.2609C21.9494 24.2609 23.2812 22.9291 23.2812 21.2857C23.2812 21.2201 23.2795 21.1553 23.2751 21.0906L23.276 21.0993V6.71346C23.276 6.71346 23.276 6.71346 23.276 6.64346C23.3119 5.09461 24.5352 3.84329 26.0692 3.76191H26.0762C26.0762 3.76191 26.0648 3.75053 26.0648 3.73828ZM16.3919 15.9427H9.61291V13.9125H16.3919V15.9427ZM20.4644 10.5173H9.61379V8.4872H20.4644V10.5173Z" fill="currentColor"/>
</svg>
