<svg width="28" height="28" viewBox="0 0 28 28" fill="none" xmlns="http://www.w3.org/2000/svg">
<path d="M14.0004 4.25933L16.4738 8.85527C17.0487 9.9323 18.0767 10.7031 19.2963 10.9166L19.3199 10.9201L24.4645 11.8536L20.8484 15.6219C20.1476 16.3489 19.7154 17.3394 19.7154 18.4304C19.7154 18.6211 19.7285 18.8075 19.7539 18.9912L19.7513 18.9702L20.4626 24.1497L15.9016 21.9449C15.3452 21.6728 14.6916 21.5136 14.0004 21.5136C13.3093 21.5136 12.6548 21.6728 12.073 21.9563L12.0992 21.9449L7.53829 24.1497L8.2496 18.9702C8.27235 18.8083 8.28547 18.6211 8.28547 18.4304C8.28547 17.3394 7.85326 16.3489 7.15158 15.621L7.15246 15.6219L3.50142 11.8536L8.64594 10.9201C9.9032 10.7136 10.9461 9.94017 11.5165 8.87627L11.527 8.85527L14.0004 4.25933ZM14.0004 0.607422C13.9996 0.607422 13.9987 0.607422 13.9978 0.607422C13.4204 0.607422 12.919 0.929392 12.6627 1.40447L12.6583 1.41235L9.33363 7.66539C9.11227 8.06872 8.72731 8.35832 8.26972 8.44581L8.2601 8.44756L1.26076 9.70744C0.540699 9.83431 0 10.4555 0 11.2018C0 11.6086 0.16011 11.9779 0.420836 12.2508L0.419961 12.25L5.33088 17.3708C5.59685 17.6386 5.76046 18.0069 5.76046 18.4146C5.76046 18.5039 5.75259 18.5905 5.73771 18.6754L5.73946 18.6666L4.78318 25.6659C4.77355 25.7289 4.7683 25.8016 4.7683 25.8759C4.7683 26.7132 5.44724 27.3922 6.28454 27.3922C6.28541 27.3922 6.28629 27.3922 6.28804 27.3922C6.30116 27.393 6.31778 27.393 6.33353 27.393C6.57676 27.393 6.80686 27.3327 7.00722 27.2251L6.99934 27.2285L13.2401 24.2188C13.4755 24.1016 13.752 24.0325 14.0451 24.0325C14.3382 24.0325 14.6146 24.1016 14.8605 24.2232L14.85 24.2188L20.998 27.2285C21.1879 27.3318 21.4145 27.3922 21.6542 27.3922C21.6568 27.3922 21.6603 27.3922 21.6638 27.3922C21.6787 27.393 21.6953 27.393 21.7128 27.393C22.5501 27.393 23.2291 26.7141 23.2291 25.8768C23.2291 25.8024 23.2238 25.7289 23.2133 25.6581L23.2142 25.6659L22.2579 18.6666C22.2474 18.6001 22.2413 18.5231 22.2413 18.4452C22.2413 18.041 22.4032 17.6736 22.6665 17.4067L27.5774 12.2858C27.839 12.0137 28 11.6436 28 11.2359C28 10.4922 27.4646 9.87368 26.7585 9.74419L26.7489 9.74244L19.7495 8.48256C19.2718 8.38894 18.8807 8.08535 18.669 7.67501L18.6646 7.66626L15.3399 1.41322C15.0801 0.930267 14.5779 0.607422 14.0004 0.607422C13.9996 0.607422 13.9987 0.607422 13.9978 0.607422H14.0004Z" fill="currentColor"/>
</svg>
