<svg width="28" height="28" viewBox="0 0 28 28" fill="none" xmlns="http://www.w3.org/2000/svg">
<g clip-path="url(#clip0_94_1793)">
<path d="M0 1.4H28V5.6H0V1.4Z" fill="#FF9D00"/>
<path d="M25.2 8.4V26.6H21.9792C21.9792 26.5764 21.98 26.5536 21.98 26.53C21.98 24.7905 20.5695 23.38 18.83 23.38C17.0905 23.38 15.68 24.7905 15.68 26.53C15.68 26.5536 15.68 26.5764 15.6809 26.6H12.1792C12.18 26.5764 12.18 26.5536 12.18 26.53C12.18 24.7905 10.7695 23.38 9.03005 23.38C7.29055 23.38 5.88005 24.7905 5.88005 26.53C5.88005 26.5536 5.88005 26.5764 5.88092 26.6H2.80005V8.4H25.2Z" fill="white"/>
</g>
<defs>
<clipPath id="clip0_94_1793">
<rect width="28" height="25.2" fill="white" transform="translate(0 1.4)"/>
</clipPath>
</defs>
</svg>
