<svg width="28" height="28" viewBox="0 0 28 28" fill="none" xmlns="http://www.w3.org/2000/svg">
<path d="M28 14C28 21.7324 21.7324 28 14 28C6.26762 28 0 21.7324 0 14C0 6.26762 6.26762 0 14 0C21.7324 0 28 6.26762 28 14Z" fill="white"/>
<path d="M23.8 14C23.8 19.4128 19.4127 23.8 14 23.8C8.5872 23.8 4.19995 19.4128 4.19995 14C4.19995 8.58725 8.5872 4.2 14 4.2C19.4127 4.2 23.8 8.58725 23.8 14Z" fill="#557086"/>
<path d="M18.2 14C18.2 16.3196 16.3197 18.2 14 18.2C11.6804 18.2 9.80005 16.3196 9.80005 14C9.80005 11.6804 11.6804 9.8 14 9.8C16.3197 9.8 18.2 11.6804 18.2 14Z" fill="#071D2A"/>
<path d="M19.6 11.2C19.6 12.7461 18.3461 14 16.8 14C15.2539 14 14 12.7461 14 11.2C14 9.65387 15.2539 8.4 16.8 8.4C18.3461 8.4 19.6 9.65387 19.6 11.2Z" fill="white"/>
</svg>
