<svg width="28" height="28" viewBox="0 0 28 28" fill="none" xmlns="http://www.w3.org/2000/svg">
<path d="M16.5665 13.7312C15.5436 15.6614 14.9399 17.9503 14.9329 20.3792V21.8396H9.42668C9.43893 19.4308 9.97529 17.1497 10.9264 15.1014L10.8844 15.2012C11.9597 12.8449 13.2757 10.8158 14.8428 9.00985L14.8165 9.04135H6.65039V4.77148H20.9999V7.03504C19.3812 8.99148 17.9104 11.1859 16.6688 13.5203L16.5665 13.7312Z" fill="currentColor"/>
<path d="M24.2662 18.468C23.4227 19.5294 22.8093 20.8121 22.5258 22.2138L22.5162 22.2707L22.3412 23.1457L17.5 22.2593C18.0267 19.6213 19.4249 17.3735 21.377 15.7766L21.3971 15.7609L17.8972 15.0723L19.3672 11.9688L28.0005 13.6723L27.7319 15.0259C26.4545 16.0724 25.3196 17.2002 24.3003 18.4269L24.2662 18.468Z" fill="currentColor"/>
<path d="M7.1984 16.9983C7.03741 17.6274 6.94466 18.3493 6.94466 19.0921C6.94466 19.835 7.0374 20.5577 7.21152 21.2472L7.1984 21.1868L7.40839 22.0618L2.65992 23.2281C2.4578 22.4371 2.34143 21.5289 2.34143 20.5936C2.34143 18.799 2.76929 17.1033 3.52876 15.6053L3.49989 15.6683L0 16.4969V13.0907L8.56336 11.0371L8.88972 12.3784C8.22387 13.6953 7.64551 15.2326 7.2334 16.8373L7.1984 16.9983Z" fill="currentColor"/>
</svg>
