<svg width="32" height="32" viewBox="0 0 32 32" fill="none" xmlns="http://www.w3.org/2000/svg">
<g clip-path="url(#clip0_689_4390)">
<path d="M25 21.665H27C27.533 21.665 27.933 22.332 27.533 22.732L20.733 30.465C20.2 31.132 19.266 31.132 18.733 30.465L11.933 22.732C11.533 22.332 11.8 21.665 12.466 21.665H14.466C14.866 21.665 15.133 21.398 15.133 20.998V13.798C15.133 12.998 15.666 12.465 16.466 12.465H22.999C23.799 12.465 24.332 12.998 24.332 13.798V20.998C24.332 21.398 24.6 21.665 25 21.665ZM8.2 20.332C8.733 19.132 9.8 18.199 11.133 17.799V13.666C11.133 10.733 13.533 8.333 16.466 8.333H17.666V2.333C17.666 1.533 17.133 1 16.333 1H4.333C3.533 1 3 1.533 3 2.333V22.2C3 23 3.533 23.533 4.333 23.533H7.933C7.666 22.466 7.666 21.399 8.2 20.332Z" fill="#FF8D00"/>
</g>
<defs>
<clipPath id="clip0_689_4390">
<rect width="32" height="32" fill="white"/>
</clipPath>
</defs>
</svg>
