<svg width="28" height="28" viewBox="0 0 28 28" fill="none" xmlns="http://www.w3.org/2000/svg">
<path d="M23.1003 0H4.89974L0 4.89974V23.1003L4.89974 28H23.1003L28 23.1003V4.89974L23.1003 0ZM24.8061 21.026L20.9878 24.8442H6.98735L3.16913 21.026V7.02553L6.98735 3.20731H20.9878L24.8061 7.02553V21.026Z" fill="currentColor"/>
<path d="M13.9998 10.4238C13.9922 10.4238 13.9836 10.4238 13.9741 10.4238C13.0959 10.4238 12.3828 11.1359 12.3828 12.0151C12.3828 12.8942 13.0949 13.6063 13.9741 13.6063C14.8522 13.6063 15.5653 12.8942 15.5653 12.0151C15.5653 12.0103 15.5653 12.0065 15.5653 12.0017V12.0027C15.5586 11.1388 14.8627 10.4391 14.0008 10.4248L13.9998 10.4238Z" fill="currentColor"/>
<path d="M19.792 5.0918H8.21033L5.0918 8.21033V19.792L8.21033 22.9105H19.792L22.9105 19.792V8.21033L19.792 5.0918ZM12.3846 19.8301C12.3426 19.8473 12.2949 19.8569 12.2443 19.8569C12.0686 19.8569 11.9216 19.7385 11.8768 19.5781L11.8758 19.5753L11.4052 18.3029C11.3413 18.0995 11.4052 17.921 11.7107 17.8189C12.4867 17.5774 14.6631 16.8262 15.0068 15.1337C14.5486 15.3199 14.0188 15.4392 13.4642 15.464H13.4537C11.6401 15.4554 10.1729 13.9825 10.1729 12.1679C10.1729 12.0782 10.1767 11.9894 10.1834 11.9016L10.1824 11.9131C10.2254 9.83785 11.9178 8.1712 13.9997 8.1712C16.5455 8.1712 17.9592 10.0679 17.9592 12.6261C17.8905 16.0491 15.5795 18.9138 12.4381 19.8168L12.3846 19.8301Z" fill="currentColor"/>
</svg>
