<svg width="36" height="36" viewBox="0 0 36 36" fill="none" xmlns="http://www.w3.org/2000/svg">
<path d="M18.0002 2.00098C15.7082 2.00598 13.5312 2.49598 11.5662 3.37498L11.6672 3.33498V5.53498L12.6672 6.53498C14.2432 5.78098 16.0932 5.33998 18.0462 5.33998C25.0642 5.33998 30.7532 11.029 30.7532 18.047C30.7532 25.065 25.0642 30.754 18.0462 30.754C11.0282 30.754 5.3392 25.065 5.3392 18.047C5.3392 16.094 5.7802 14.244 6.5672 12.591L6.5342 12.668L5.5342 11.681H3.3342C2.5122 13.544 2.0332 15.717 2.0332 18.001C2.0332 26.838 9.1962 34.001 18.0332 34.001C26.8702 34.001 34.0332 26.838 34.0332 18.001C34.0332 9.16398 26.8702 2.00098 18.0332 2.00098C18.0222 2.00098 18.0112 2.00098 18.0002 2.00098Z" fill="#B1BAD3"/>
<path d="M4.774 9.001H6.641L7.974 10.334L15.334 17.721C15.331 17.763 15.329 17.812 15.329 17.861C15.329 17.91 15.331 17.959 15.334 18.007V18.001C15.334 19.474 16.528 20.668 18.001 20.668C19.474 20.668 20.668 19.474 20.668 18.001C20.668 16.528 19.474 15.334 18.001 15.334H17.721L8.974 6.627V2H5.667V5.667H2V9L4.774 9.001Z" fill="#B1BAD3"/>
<path d="M18.002 24.001C14.745 23.995 12.097 21.394 12.015 18.155V18.147L9.09497 15.214C8.82397 16.04 8.66797 16.99 8.66797 17.977C8.66797 17.985 8.66797 17.994 8.66797 18.002V18.001C8.66797 23.156 12.847 27.334 18.001 27.334C23.155 27.334 27.334 23.155 27.334 18.001C27.334 12.846 23.155 8.66797 18.001 8.66797C17.994 8.66797 17.986 8.66797 17.977 8.66797C16.99 8.66797 16.04 8.82397 15.149 9.11297L15.214 9.09497L18.147 12.015C21.429 12.056 24.074 14.727 24.074 18.015C24.074 21.329 21.388 24.015 18.074 24.015C18.048 24.015 18.022 24.015 17.997 24.015H18.001L18.002 24.001Z" fill="#B1BAD3"/>
<path d="M18.0002 2.00098C15.7082 2.00598 13.5312 2.49598 11.5662 3.37498L11.6672 3.33498V5.53498L12.6672 6.53498C14.2432 5.78098 16.0932 5.33998 18.0462 5.33998C25.0642 5.33998 30.7532 11.029 30.7532 18.047C30.7532 25.065 25.0642 30.754 18.0462 30.754C11.0282 30.754 5.3392 25.065 5.3392 18.047C5.3392 16.094 5.7802 14.244 6.5672 12.591L6.5342 12.668L5.5342 11.681H3.3342C2.5122 13.544 2.0332 15.717 2.0332 18.001C2.0332 26.838 9.1962 34.001 18.0332 34.001C26.8702 34.001 34.0332 26.838 34.0332 18.001C34.0332 9.16398 26.8702 2.00098 18.0332 2.00098C18.0222 2.00098 18.0112 2.00098 18.0002 2.00098Z" fill="#B1BAD3"/>
<path d="M4.774 9.001H6.641L7.974 10.334L15.334 17.721C15.331 17.763 15.329 17.812 15.329 17.861C15.329 17.91 15.331 17.959 15.334 18.007V18.001C15.334 19.474 16.528 20.668 18.001 20.668C19.474 20.668 20.668 19.474 20.668 18.001C20.668 16.528 19.474 15.334 18.001 15.334H17.721L8.974 6.627V2H5.667V5.667H2V9L4.774 9.001Z" fill="#B1BAD3"/>
<path d="M18.002 24.001C14.745 23.995 12.097 21.394 12.015 18.155V18.147L9.09497 15.214C8.82397 16.04 8.66797 16.99 8.66797 17.977C8.66797 17.985 8.66797 17.994 8.66797 18.002V18.001C8.66797 23.156 12.847 27.334 18.001 27.334C23.155 27.334 27.334 23.155 27.334 18.001C27.334 12.846 23.155 8.66797 18.001 8.66797C17.994 8.66797 17.986 8.66797 17.977 8.66797C16.99 8.66797 16.04 8.82397 15.149 9.11297L15.214 9.09497L18.147 12.015C21.429 12.056 24.074 14.727 24.074 18.015C24.074 21.329 21.388 24.015 18.074 24.015C18.048 24.015 18.022 24.015 17.997 24.015H18.001L18.002 24.001Z" fill="#B1BAD3"/>
</svg>
