<svg width="28" height="28" viewBox="0 0 28 28" fill="none" xmlns="http://www.w3.org/2000/svg">
<path d="M18.6241 1.04676C18.4977 1.04676 18.3704 1.04676 18.244 1.04676L13.9367 2.56708L9.62949 1.04676C8.86933 0.793058 7.9828 1.30046 7.85547 2.187C7.85547 2.31338 7.85547 2.4407 7.85547 2.56708V5.35401C7.85547 6.24055 8.61563 6.87433 9.37579 6.87433C9.50216 6.87433 9.62949 6.87433 9.75587 6.87433L13.9367 4.97393L18.244 6.87433C19.1305 7.12804 19.8907 6.62063 20.1444 5.73409C20.1444 5.60772 20.1444 5.48039 20.1444 5.35401V2.56708C20.1444 1.68054 19.3842 1.04676 18.6241 1.04676Z" fill="currentColor"/>
<path d="M11.7825 24.9913L6.08127 5.98733C5.70119 5.22717 4.94104 4.84709 4.0545 5.1008L2.1541 5.73458C1.52032 5.86096 1.14024 6.49474 1.14024 7.12852L0 25.3723C0 26.2589 0.633783 26.8927 1.39394 27.019C1.39394 27.019 1.39394 27.019 1.52032 27.019H10.2622C11.1487 27.019 11.7825 26.3853 11.7825 25.4987C11.9088 25.3723 11.7825 25.1186 11.7825 24.9923V24.9913Z" fill="currentColor"/>
<path d="M26.7342 7.12794C26.7342 6.49416 26.3541 5.98771 25.7203 5.734L23.8199 4.97384C23.0598 4.72014 22.1732 5.10022 21.9195 5.86038L16.2183 24.8644C15.9646 25.6245 16.472 26.5111 17.2322 26.7648C17.3586 26.7648 17.4859 26.8911 17.7387 26.8911H26.4805C27.367 26.8911 28.0008 26.2574 28.0008 25.3708L26.7342 7.12794Z" fill="currentColor"/>
</svg>
