<svg width="36" height="36" viewBox="0 0 36 36" xmlns="http://www.w3.org/2000/svg">
<path d="M16.732 31.5H8.348C7.423 31.5 6.674 30.75 6.674 29.826V19.768C5.749 19.768 5 19.018 5 18.094V14.733C5 13.808 5.75 13.059 6.674 13.059H16.732V31.5ZM30.138 13.058H20.08V31.5H28.464C29.389 31.5 30.138 30.75 30.138 29.826V19.768C31.063 19.768 31.812 19.018 31.812 18.094V14.733C31.812 13.808 31.062 13.059 30.138 13.059V13.058ZM25.115 3C21.409 3 18.406 6.004 18.406 9.709H25.115C26.04 9.709 26.789 8.959 26.789 8.035V4.674C26.789 3.749 26.039 3 25.115 3ZM11.697 3C10.772 3 10.023 3.75 10.023 4.674V8.035C10.023 8.96 10.773 9.709 11.697 9.709H18.406C18.406 6.003 15.402 3 11.697 3Z" />
</svg>
