<svg width="36" height="36" viewBox="0 0 36 36" fill="none" xmlns="http://www.w3.org/2000/svg">
<g clip-path="url(#clip0_494_1688)">
<path d="M27.2 3H8.133L3 8.133V27.2L8.133 32.333H27.2L32.333 27.2V8.133L27.2 3ZM28.987 25.027L24.987 29.027H10.32L6.32 25.027V10.36L10.32 6.36H24.987L28.987 10.36V25.027Z" fill="#B1BAD3"/>
<path d="M17.6667 13.9199C17.6587 13.9199 17.6497 13.9199 17.6397 13.9199C16.7197 13.9199 15.9727 14.6659 15.9727 15.5869C15.9727 16.5079 16.7187 17.2539 17.6397 17.2539C18.5597 17.2539 19.3067 16.5079 19.3067 15.5869C19.3067 15.5819 19.3067 15.5779 19.3067 15.5729V15.5739C19.2997 14.6689 18.5707 13.9359 17.6677 13.9209L17.6667 13.9199Z" fill="#B1BAD3"/>
<path d="M23.734 8.33398H11.601L8.33398 11.601V23.734L11.601 27.001H23.734L27.001 23.734V11.601L23.734 8.33398ZM15.974 23.774C15.93 23.792 15.88 23.802 15.827 23.802C15.643 23.802 15.489 23.678 15.442 23.51L15.441 23.507L14.948 22.174C14.881 21.961 14.948 21.774 15.268 21.667C16.081 21.414 18.361 20.627 18.721 18.854C18.241 19.049 17.686 19.174 17.105 19.2H17.094C15.194 19.191 13.657 17.648 13.657 15.747C13.657 15.653 13.661 15.56 13.668 15.468L13.667 15.48C13.712 13.306 15.485 11.56 17.666 11.56C20.333 11.56 21.814 13.547 21.814 16.227C21.742 19.813 19.321 22.814 16.03 23.76L15.974 23.774Z" fill="#B1BAD3"/>
</g>
<defs>
<clipPath id="clip0_494_1688">
<rect width="36" height="36" fill="white"/>
</clipPath>
</defs>
</svg>
