<svg width="28" height="28" viewBox="0 0 28 28" fill="none" xmlns="http://www.w3.org/2000/svg">
<path d="M16.8526 14.7002H11.6391L9.41073 17.8535L4.18359 14.84V20.208C4.19726 20.6841 4.28135 21.1193 4.39381 21.525C5.45858 25.351 10.1675 27.9998 13.9935 27.9998C17.8196 27.9998 22.5285 25.3374 23.5933 21.525C23.7057 21.1182 23.7751 20.6841 23.8035 20.208V15.6956L19.0388 18.0217L16.8662 14.6865L16.8526 14.7002ZM16.5866 20.7409H11.6391C11.6391 20.7409 11.2186 20.517 11.0221 20.0682L12.3254 17.7694H16.0253L17.1889 19.9C17.1889 19.9 17.1469 20.6011 16.6003 20.7409H16.5866Z" fill="currentColor"/>
<path d="M18.562 0.840883C17.1462 0.181841 15.6609 0.0283798 14.0076 0C12.3542 0.0283798 10.8406 0.181841 9.45312 0.840883V8.08614H18.563L18.562 0.840883Z" fill="currentColor"/>
<path d="M7.57356 1.69531H7.54518C6.99861 1.96124 6.11568 2.5919 5.58277 3.18052C4.95211 3.79752 4.19531 4.74982 4.19531 5.74522V13.145L7.57251 10.7485L7.57356 1.69531Z" fill="currentColor"/>
<path d="M22.4166 3.18052C22.3188 3.09643 22.2063 3.01235 22.0939 2.91459C21.6177 2.50782 20.9871 1.98962 20.3984 1.69531V10.9587L23.8177 13.2575V5.75993C23.8177 4.76454 23.0472 3.81224 22.4302 3.19524L22.4166 3.18052Z" fill="currentColor"/>
</svg>
