<svg width="28" height="28" viewBox="0 0 28 28" fill="none" xmlns="http://www.w3.org/2000/svg">
<path d="M23.9204 13.2651C22.9954 10.0422 21.2015 7.31542 18.809 5.26773L18.7863 5.24935H22.753V1.74902H5.25137V5.24935H10.3618C10.2595 8.58254 9.46139 11.7057 8.10851 14.5103L8.16802 14.373C7.56158 14.1393 6.86064 14.0028 6.12732 13.9993H6.12557C2.74251 13.9993 0 16.7418 0 20.1249C0 23.5079 2.74251 26.2504 6.12557 26.2504C9.50864 26.2504 12.2511 23.5079 12.2511 20.1249C12.2468 18.7247 11.769 17.4366 10.9692 16.4128L10.9797 16.4259C12.5959 13.4042 13.6224 9.84528 13.8123 6.0658L13.8149 6.0063C16.8987 7.64445 19.2387 10.3406 20.378 13.5994L20.4069 13.6956C18.6821 14.5768 17.5218 16.341 17.5218 18.3756C17.5218 21.2686 19.867 23.6147 22.7609 23.6147C25.6548 23.6147 28 21.2695 28 18.3756C28 15.8886 26.2673 13.8068 23.9431 13.2704L23.9081 13.2634L23.9204 13.2651Z" fill="currentColor"/>
</svg>
