<svg width="36" height="36" viewBox="0 0 36 36" xmlns="http://www.w3.org/2000/svg">
<g clip-path="url(#clip0_479_1865)">
<path d="M29.335 17.16C28.278 13.477 26.228 10.361 23.494 8.021L23.468 8H28.001V4H8.001V8H13.841C13.724 11.809 12.812 15.378 11.266 18.583L11.334 18.426C10.641 18.159 9.84 18.003 9.002 17.999H9C5.134 17.999 2 21.133 2 24.999C2 28.865 5.134 31.999 9 31.999C12.866 31.999 16 28.865 16 24.999C15.995 23.399 15.449 21.927 14.535 20.757L14.547 20.772C16.394 17.319 17.567 13.252 17.784 8.933L17.787 8.865C21.311 10.737 23.985 13.818 25.287 17.542L25.32 17.652C23.349 18.659 22.023 20.675 22.023 23C22.023 26.306 24.703 28.987 28.01 28.987C31.317 28.987 33.997 26.307 33.997 23C33.997 20.158 32.017 17.779 29.361 17.166L29.321 17.158L29.335 17.16Z" />
</g>
<defs>
<clipPath id="clip0_479_1865">
<rect width="36" height="36" fill="white"/>
</clipPath>
</defs>
</svg>
