<svg width="36" height="36" viewBox="0 0 36 36" xmlns="http://www.w3.org/2000/svg">
<path d="M27.667 10.0671V12.2141C21 13.8411 15.094 13.8011 9 12.1071V10.0271C9 9.13408 9.72 8.28008 10.32 7.72008C10.667 7.44008 11.027 7.20008 11.373 6.97308L11.506 6.88008C11.773 6.72008 12.013 6.58708 12.253 6.45308C12.253 6.45308 12.373 6.38608 12.44 6.34608C12.547 6.29308 12.64 6.22608 12.747 6.18608C12.894 6.11908 13.04 6.05308 13.187 5.98608C13.254 5.95908 13.32 5.93308 13.374 5.90608C13.547 5.82608 13.721 5.75908 13.894 5.69308C13.974 5.66608 14.054 5.64008 14.121 5.61308C14.268 5.56008 14.401 5.52008 14.534 5.48008C14.574 5.46708 14.694 5.44008 14.694 5.44008H14.721C16.308 4.98708 17.574 5.00004 18.214 5.00004C18.254 5.00004 18.281 5.00004 18.307 5.00004C19.227 5.00004 20.2 5.02708 21.174 5.22708C21.361 5.26708 21.574 5.33408 21.787 5.38708H21.88C21.987 5.41408 22.107 5.46708 22.227 5.50708L22.36 5.54708C22.733 5.68008 23.107 5.82708 23.507 6.02708C23.52 6.04008 23.534 6.04008 23.534 6.04008C24.414 6.45308 25.334 7.00008 26.281 7.74708H26.294C26.881 8.29408 27.614 9.17408 27.614 10.0541L27.667 10.0671ZM22.281 25.0401L27.668 19.4401V14.5071C24.415 15.2671 21.308 15.6541 18.295 15.6541C15.282 15.6541 12.108 15.2271 9.002 14.4271V19.4541L14.389 25.0541L9.042 24.6411C9.069 24.9481 9.135 25.2281 9.202 25.4811C9.202 25.5211 9.229 25.5611 9.242 25.5881C9.242 25.6011 9.255 25.6281 9.269 25.6411C9.362 25.9481 9.482 26.2541 9.642 26.5481C9.722 26.7211 9.815 26.8951 9.922 27.0551C10.015 27.2021 10.109 27.3351 10.215 27.4821C11.962 30.0291 15.362 31.6951 18.362 31.6951C19.589 31.6951 20.895 31.4021 22.122 30.8951H22.135C22.228 30.8681 22.322 30.8151 22.415 30.7751C22.548 30.7221 22.695 30.6551 22.828 30.5881C23.148 30.4281 23.468 30.2411 23.775 30.0551C23.908 29.9621 24.055 29.8821 24.175 29.7881C24.442 29.6151 24.682 29.4281 24.908 29.2281C25.041 29.1081 25.188 28.9881 25.308 28.8681C25.521 28.6551 25.721 28.4551 25.921 28.2281C26.054 28.0681 26.201 27.9081 26.321 27.7211C26.494 27.4811 26.654 27.2411 26.801 27.0011C26.841 26.9341 26.881 26.8681 26.921 26.7881C26.961 26.7211 27.001 26.6411 27.041 26.5751C27.214 26.2281 27.361 25.8821 27.468 25.5081V25.4681C27.548 25.2151 27.588 24.9351 27.628 24.6411L22.308 25.0541L22.281 25.0401Z" />
</svg>
