<svg width="29" height="28" viewBox="0 0 29 28" fill="none" xmlns="http://www.w3.org/2000/svg">
<path d="M22.6923 3.03386C20.3275 1.14305 17.2927 0 13.9913 0C6.34058 0 0.123313 6.14031 0 13.7621V13.7735V13.8671C0.0437281 16.6604 2.31847 18.908 5.11882 18.908C5.66892 18.908 6.19803 18.8215 6.69478 18.6605L6.65892 18.671C7.68128 18.351 8.51999 18.0265 9.33246 17.6565L9.18903 17.7151C8.68004 16.9936 8.37481 16.0955 8.37481 15.1264C8.37481 15.0241 8.37831 14.9227 8.38531 14.8212L8.38443 14.8352C6.18053 15.5112 3.31197 14.077 3.31197 14.077C7.55622 9.82047 10.7396 10.8822 10.7396 10.8822C16.0456 5.57621 21.3507 6.63793 21.3507 6.63793C21.3507 6.63793 22.4115 11.9439 17.1064 17.249C17.1064 17.249 18.1673 20.4324 13.923 24.6767C13.923 24.6767 12.4888 21.8081 13.1648 19.6042C13.0721 19.6112 12.9628 19.6147 12.8534 19.6147C11.8906 19.6147 10.9994 19.3095 10.2709 18.79L10.2849 18.7996C9.97789 19.4616 9.65342 20.3004 9.37619 21.1592L9.32809 21.3297C9.17241 21.7967 9.08321 22.3346 9.08321 22.8934C9.08321 25.6815 11.3168 27.9475 14.0927 28H14.098C21.788 27.9493 28.0018 21.704 28.0018 14.007C28.0018 9.57209 25.9387 5.61907 22.7203 3.05572L22.6923 3.03386Z" fill="#B1BAD3"/>
<path d="M18.1683 11.9427C18.3983 11.6803 18.5382 11.334 18.5382 10.9544C18.5382 10.1236 17.8648 9.4502 17.034 9.4502C16.6553 9.4502 16.309 9.59013 16.044 9.82188L16.0457 9.82014C15.8157 10.0825 15.6758 10.4288 15.6758 10.8084C15.6758 11.6392 16.3492 12.3126 17.18 12.3126C17.5587 12.3126 17.905 12.1727 18.17 11.941L18.1683 11.9427Z" fill="#B1BAD3"/>
</svg>
