<svg width="36" height="36" viewBox="0 0 36 36" fill="none" xmlns="http://www.w3.org/2000/svg">
<path d="M8.681 29.999H28.001V31.332C28.001 32.805 26.807 33.999 25.334 33.999H11.347C9.874 33.999 8.68 32.805 8.68 31.332L8.681 29.999ZM30.667 11.332V19.332L28 27.332H8.68L4 19.332V9.999C4.056 9.25 4.678 8.663 5.436 8.663C5.465 8.663 5.495 8.664 5.524 8.666H5.52H8V7.333C8 5.124 9.791 3.333 12 3.333H15.707C16.438 2.518 17.492 2.006 18.666 2H20.001C21.176 2.006 22.23 2.519 22.958 3.33L22.961 3.334H26.668C28.877 3.334 30.668 5.125 30.668 7.334V11.334L30.667 11.332ZM10.667 8.666H14.667V5.999H12C11.264 5.999 10.667 6.596 10.667 7.332V8.666ZM14.667 11.332H6.667V13.999H12C13.473 13.999 14.667 12.805 14.667 11.332ZM21.334 5.999C21.334 5.263 20.737 4.666 20.001 4.666H18.668C17.932 4.666 17.335 5.263 17.335 5.999V13.999C17.335 14.735 17.932 15.332 18.668 15.332H20.001C20.737 15.332 21.334 14.735 21.334 13.999V5.999ZM28.001 7.332C28.001 6.596 27.404 5.999 26.668 5.999H24.001V13.999C23.997 14.478 23.909 14.936 23.752 15.36L23.761 15.332H25.334C26.807 15.332 28.001 14.138 28.001 12.665V7.332Z" fill="#B1BAD3"/>
</svg>
