<svg width="28" height="28" viewBox="0 0 28 28" fill="none" xmlns="http://www.w3.org/2000/svg">
<path d="M24.3 8.35491C22.4182 8.35666 20.8697 9.78027 20.6707 11.6089L20.669 11.6255L17.841 12.3822C17.436 11.8611 16.9009 11.4605 16.2829 11.2266L16.2585 11.2187V8.13496C17.6262 7.58245 18.5741 6.26532 18.5741 4.7265C18.5741 2.7015 16.9332 1.06055 14.9082 1.06055C12.8832 1.06055 11.2422 2.7015 11.2422 4.7265C11.2422 6.26532 12.1902 7.58245 13.5335 8.12623L13.5579 8.13496V11.1262C13.2332 11.2528 12.953 11.4134 12.7008 11.6089L12.7086 11.6028L7.3319 8.67001C7.33452 8.62288 7.33626 8.56789 7.33626 8.5129C7.33626 8.45791 7.33452 8.40292 7.3319 8.34793V8.35579C7.3319 6.33079 5.69095 4.68984 3.66595 4.68984C1.64095 4.68984 0 6.33079 0 8.35579C0 10.3808 1.64095 12.0217 3.66595 12.0217C4.60077 12.02 5.45092 11.6621 6.08897 11.0764L6.08635 11.0791L11.2999 13.9533C11.2911 14.0441 11.2868 14.1497 11.2868 14.2562C11.2868 14.3627 11.2911 14.4683 11.3007 14.5722L11.2999 14.5591C11.3016 15.0671 11.4037 15.5507 11.5888 15.9923L11.5792 15.9679L7.5056 19.9245C7.06568 19.7141 6.54983 19.5902 6.00518 19.5867H6.0043C5.98335 19.5867 5.95891 19.5858 5.93447 19.5858C3.90336 19.5858 2.25718 21.232 2.25718 23.2631C2.25718 25.2942 3.90336 26.9404 5.93447 26.9404C7.96558 26.9404 9.61177 25.2942 9.61177 23.2631C9.61264 23.2334 9.61352 23.1985 9.61352 23.1645C9.61352 22.6792 9.51488 22.2174 9.33595 21.7976L9.34468 21.8203L13.4182 17.8637C13.8564 18.0697 14.3696 18.1893 14.9117 18.1893C14.9143 18.1893 14.9169 18.1893 14.9204 18.1893C15.2739 18.1866 15.6143 18.1317 15.9347 18.0313L15.9102 18.0383L17.0737 19.8424C16.667 20.4203 16.4235 21.1386 16.4217 21.9137C16.4217 21.9172 16.4217 21.9215 16.4217 21.925C16.4217 23.9562 18.0679 25.6023 20.099 25.6023C22.1301 25.6023 23.7763 23.9562 23.7763 21.925C23.7763 19.8939 22.1301 18.2477 20.099 18.2477C19.8223 18.2486 19.5535 18.2827 19.296 18.3455L19.3196 18.3403L18.0391 16.3964C18.2948 15.9836 18.4685 15.4939 18.5261 14.9693L18.5279 14.9536L21.3672 14.1969C22.0411 15.1177 23.119 15.7095 24.3341 15.7095C26.3591 15.7095 28 14.0686 28 12.0436C28 10.0186 26.3591 8.37761 24.3341 8.37761C24.3218 8.37761 24.3096 8.37761 24.2983 8.37761H24.3V8.35491Z" fill="currentColor"/>
</svg>
