<svg width="36" height="36" viewBox="0 0 36 36" xmlns="http://www.w3.org/2000/svg">
<path d="M31.609 15.905L19.342 3.532C19.02 3.203 18.571 3 18.075 3C17.579 3 17.13 3.204 16.809 3.532L4.409 15.892C2.919 17.417 2 19.504 2 21.807C2 26.27 5.454 29.927 9.834 30.25L9.862 30.252H10.475C11.782 30.25 13.02 29.956 14.127 29.43L14.075 29.452C13.225 30.435 12.24 31.271 11.143 31.941L11.089 31.972C10.822 32.143 10.648 32.437 10.648 32.772C10.648 33.29 11.065 33.711 11.581 33.719H24.435C24.952 33.712 25.369 33.291 25.369 32.772C25.369 32.437 25.195 32.142 24.932 31.974L24.928 31.972C23.803 31.275 22.841 30.448 22.022 29.495L22.008 29.479C23.063 29.983 24.301 30.277 25.607 30.279H26.221C30.607 29.929 34.033 26.283 34.033 21.838C34.033 19.527 33.107 17.433 31.606 15.905L31.607 15.906L31.609 15.905ZM17.556 21.425L16.676 25.172H7.676L8.449 21.532L8.702 21.399C12.075 19.706 14.009 18.612 14.009 18.119C13.805 18.033 13.568 17.984 13.319 17.984C13.29 17.984 13.26 17.985 13.231 17.986H13.235C12.495 17.994 11.814 18.243 11.267 18.659L11.275 18.653L10.715 19.053L9.022 15.92L9.422 15.6C10.522 14.767 11.914 14.266 13.423 14.266C13.451 14.266 13.479 14.266 13.507 14.267H13.503C16.303 14.267 18.263 15.774 18.263 17.934C18.206 19.459 17.334 20.768 16.072 21.443L16.05 21.454L17.556 21.425ZM24.889 25.172H20.742L21.822 20.252L20.715 21.159L18.728 18.492L23.795 14.372H27.262L24.889 25.172Z" />
</svg>
