<svg width="30" height="28" viewBox="0 0 30 28" fill="none" xmlns="http://www.w3.org/2000/svg">
<path d="M14.9863 0.000976562C12.9809 0.00535143 11.0761 0.434088 9.35675 1.20319L9.44512 1.16819V3.09313L10.3201 3.96811C11.699 3.30838 13.3177 2.92251 15.0266 2.92251C21.1671 2.92251 26.1449 7.90024 26.1449 14.0408C26.1449 20.1814 21.1671 25.1591 15.0266 25.1591C8.88601 25.1591 3.90829 20.1814 3.90829 14.0408C3.90829 12.332 4.29415 10.7133 4.98275 9.26694L4.95388 9.33432L4.07891 8.47072H2.15397C1.43474 10.1008 1.01562 12.0021 1.01562 14.0005C1.01562 21.7327 7.28306 28.0001 15.0152 28.0001C22.7473 28.0001 29.0148 21.7327 29.0148 14.0005C29.0148 6.26841 22.7473 0.000976562 15.0152 0.000976562C15.0056 0.000976562 14.9959 0.000976562 14.9863 0.000976562Z" fill="currentColor"/>
<path d="M3.4135 6.12569H5.04708L6.21342 7.29203L12.6532 13.7555C12.6506 13.7922 12.6488 13.8351 12.6488 13.878C12.6488 13.9208 12.6506 13.9637 12.6532 14.0057V14.0004C12.6532 15.2893 13.6979 16.334 14.9868 16.334C16.2756 16.334 17.3203 15.2893 17.3203 14.0004C17.3203 12.7116 16.2756 11.6669 14.9868 11.6669H14.7418L7.08839 4.0485V0H4.19486V3.20853H0.986328V6.12481L3.4135 6.12569Z" fill="currentColor"/>
<path d="M14.9873 19.25C12.1375 19.2447 9.8206 16.9689 9.74885 14.1349V14.1279L7.19393 11.5616C6.95681 12.2843 6.82031 13.1155 6.82031 13.9791C6.82031 13.9861 6.82031 13.994 6.82031 14.001V14.0001C6.82031 18.5106 10.4768 22.1662 14.9864 22.1662C19.4961 22.1662 23.1526 18.5097 23.1526 14.0001C23.1526 9.48962 19.4961 5.83398 14.9864 5.83398C14.9803 5.83398 14.9733 5.83398 14.9654 5.83398C14.1018 5.83398 13.2706 5.97048 12.491 6.22335L12.5479 6.2076L15.1142 8.76252C17.9858 8.79839 20.3002 11.1354 20.3002 14.0124C20.3002 16.912 17.95 19.2622 15.0503 19.2622C15.0276 19.2622 15.0048 19.2622 14.9829 19.2622H14.9864L14.9873 19.25Z" fill="currentColor"/>
</svg>
