<svg width="36" height="36" viewBox="0 0 36 36" xmlns="http://www.w3.org/2000/svg">
<g clip-path="url(#clip0_494_1674)">
<path d="M17.999 12.334C15.422 12.334 13.332 10.245 13.332 7.667C13.332 5.089 15.421 3 17.999 3C20.576 3 22.666 5.089 22.666 7.667C22.666 10.244 20.577 12.334 17.999 12.334ZM17.999 5.668C16.894 5.668 15.999 6.563 15.999 7.668C15.999 8.773 16.894 9.668 17.999 9.668C19.104 9.668 19.999 8.773 19.999 7.668C19.999 6.563 19.104 5.668 17.999 5.668Z" />
<path d="M34 27.001C34 29.21 32.209 31.001 30 31.001C27.791 31.001 26 29.21 26 27.001C26 24.792 27.791 23.001 30 23.001C32.209 23.001 34 24.792 34 27.001Z" />
<path d="M22 27.001C22 29.21 20.209 31.001 18 31.001C15.791 31.001 14 29.21 14 27.001C14 24.792 15.791 23.001 18 23.001C20.209 23.001 22 24.792 22 27.001Z" />
<path d="M10 27.001C10 29.21 8.209 31.001 6 31.001C3.791 31.001 2 29.21 2 27.001C2 24.792 3.791 23.001 6 23.001C8.209 23.001 10 24.792 10 27.001Z" />
<path d="M27.332 17.668C27.332 19.877 25.541 21.668 23.332 21.668C21.123 21.668 19.332 19.877 19.332 17.668C19.332 15.459 21.123 13.668 23.332 13.668C25.541 13.668 27.332 15.459 27.332 17.668Z" />
<path d="M15.332 17.668C15.332 19.877 13.541 21.668 11.332 21.668C9.12303 21.668 7.33203 19.877 7.33203 17.668C7.33203 15.459 9.12303 13.668 11.332 13.668C13.541 13.668 15.332 15.459 15.332 17.668Z" />
</g>
<defs>
<clipPath id="clip0_494_1674">
<rect width="36" height="36" fill="white"/>
</clipPath>
</defs>
</svg>
