<svg width="28" height="28" viewBox="0 0 28 28" fill="none" xmlns="http://www.w3.org/2000/svg">
<path d="M24.6616 0.0201105L21.6713 0.369859C18.7081 0.712613 16.1033 2.03117 14.1386 3.98976L9.46507 8.66765L5.75774 8.26106L0 14.0101L5.64407 14.7183C7.10427 18.4344 9.60934 21.0225 13.273 22.3472L13.9899 28L19.7389 22.2423L19.3324 18.5349L24.0102 13.8614C25.9697 11.8967 27.2874 9.29195 27.6249 6.38728L27.6301 6.3287L27.9799 3.33835C27.993 3.23343 28 3.11276 28 2.99035C28 1.33866 26.6613 0 25.0097 0C24.8872 0 24.7657 0.00699506 24.6468 0.0218594L24.6616 0.0201105ZM19.3717 11.7804C17.4402 11.7804 15.8742 10.2144 15.8742 8.28292C15.8742 6.35143 17.4402 4.78544 19.3717 4.78544C21.3032 4.78544 22.8692 6.35143 22.8692 8.28292C22.8692 8.28817 22.8692 8.29429 22.8692 8.30041C22.8692 10.2319 21.3032 11.7979 19.3717 11.7979V11.7804Z" fill="currentColor"/>
<path d="M10.3128 24.4767C7.22012 23.4039 4.82784 21.0116 3.77772 17.9924L3.75498 17.9189C3.75498 17.9189 0.0301619 19.9562 1.2674 26.9468C8.258 28.1797 10.3128 24.4767 10.3128 24.4767Z" fill="currentColor"/>
</svg>
