<svg width="28" height="28" viewBox="0 0 28 28" fill="none" xmlns="http://www.w3.org/2000/svg">
<path d="M25.5175 5.9942L16.1377 0.572695C15.524 0.212851 14.7871 0 13.9997 0C13.2122 0 12.4753 0.212852 11.8416 0.584149L11.8616 0.573649L2.54577 5.99516C1.80127 6.38841 1.2973 7.14819 1.27344 8.02823V8.03109V19.6759C1.27344 19.6778 1.27344 19.6797 1.27344 19.6816C1.27344 20.7363 1.84613 21.6574 2.69754 22.1509L2.7109 22.1585L11.8358 27.4273C12.4496 27.7871 13.1864 28 13.9739 28C14.7614 28 15.4982 27.7871 16.132 27.4159L16.112 27.4264L25.2369 22.1576C26.1236 21.6679 26.7173 20.7421 26.7259 19.6768V8.03109C26.7154 7.16059 26.2353 6.40368 25.529 6.00089L25.5175 5.99516V5.9942ZM7.33064 19.5738C6.631 19.6625 5.94376 18.6956 5.80345 17.4233C5.66314 16.1509 6.10889 15.0561 6.80853 14.9798C7.50817 14.9034 8.19541 15.8579 8.33572 17.1303C8.47603 18.4026 8.04269 19.4974 7.33064 19.5738ZM14.1018 9.39219C12.7655 9.39219 11.6841 8.8195 11.6841 8.11986C11.6841 7.42022 12.7655 6.84752 14.1018 6.84752C15.4381 6.84752 16.5195 7.42022 16.5195 8.11986C16.5195 8.8195 15.4381 9.34161 14.1018 9.34161V9.39219ZM14.1018 4.74764C12.7655 4.74764 11.6841 4.18735 11.6841 3.4753C11.6841 2.76325 12.7655 2.20297 14.1018 2.20297C15.4381 2.20297 16.5195 2.77566 16.5195 3.4753C16.5195 4.17494 15.4381 4.69705 14.1018 4.69705V4.74764ZM19.9433 22.399C19.6884 23.595 18.9506 24.4483 18.2892 24.2956C17.6277 24.1429 17.2965 23.0233 17.5637 21.8779C17.831 20.7325 18.5564 19.8286 19.2179 19.9689C19.8793 20.1092 20.2105 21.1525 19.9433 22.3485V22.399ZM19.9433 15.9209C19.6884 17.1169 18.9506 17.9702 18.2892 17.8299C17.6277 17.6896 17.2965 16.5576 17.5637 15.3988C17.831 14.2401 18.5564 13.3495 19.2179 13.5022C19.8793 13.655 20.2105 14.6734 19.9433 15.8694V15.9209ZM24.6012 19.7389C24.3464 20.9349 23.5961 21.7882 22.9337 21.6479C22.2713 21.5076 21.9534 20.3755 22.2083 19.2168C22.4631 18.058 23.2134 17.1675 23.8758 17.3202C24.5382 17.4729 24.8561 18.5162 24.6012 19.7131V19.7389ZM24.6012 13.2617C24.3464 14.4577 23.5961 15.311 22.9337 15.1707C22.2713 15.0304 21.9534 13.8983 22.2083 12.753C22.4631 11.6076 23.2134 10.7037 23.8758 10.844C24.5382 10.9843 24.8561 12.04 24.6012 13.2369V13.2617Z" fill="currentColor"/>
</svg>
