<svg width="28" height="28" viewBox="0 0 28 28" fill="none" xmlns="http://www.w3.org/2000/svg">
<path d="M15.0868 20.44C17.69 20.4337 19.7994 18.3252 19.8056 15.722V15.7212H15.0868L15.5123 11.0234C15.4485 11.0187 15.3746 11.0156 15.2999 11.0156C15.2253 11.0156 15.1506 11.0187 15.0775 11.0242L15.0876 11.0234C13.007 11.0366 11.2469 12.3985 10.6379 14.2776L10.6286 14.3111H2.33203V16.8622H10.5244C11.0486 18.9303 12.8911 20.4361 15.0868 20.44Z" fill="currentColor"/>
<path d="M12.3906 1.55566H17.783V4.25222H12.3906V1.55566Z" fill="currentColor"/>
<path d="M22.1293 9.44741L23.5191 7.83974L21.4448 6.06641L20.0549 7.70518C18.6456 6.80529 16.9267 6.27018 15.0826 6.27018C12.4047 6.27018 9.99048 7.39796 8.2887 9.20396L8.28403 9.20863H4.88281V11.7597H11.2085V10.2252C12.2803 9.43185 13.6274 8.95352 15.0865 8.94963H15.0873C18.651 9.15341 21.4643 12.0934 21.4643 15.6906C21.4643 19.2879 18.651 22.2279 15.1051 22.4309L15.0873 22.4316C15.0857 22.4316 15.0834 22.4316 15.081 22.4316C13.6274 22.4316 12.2834 21.965 11.189 21.174L11.2085 21.1872V19.4139H4.88281V21.965H7.99392C9.73148 23.9203 12.253 25.1469 15.0616 25.1469C20.275 25.1469 24.5015 20.9204 24.5015 15.707C24.5015 13.3013 23.6016 11.1056 22.1199 9.43885L22.1285 9.44818L22.1293 9.44741Z" fill="currentColor"/>
</svg>
