<svg width="28" height="28" viewBox="0 0 28 28" fill="none" xmlns="http://www.w3.org/2000/svg">
<path d="M12.8328 23.091L0.605469 17.5605V21.2358C0.605469 21.2358 0.605469 21.2376 0.605469 21.2393C0.605469 21.8029 0.936246 22.2894 1.41403 22.5161L1.42279 22.5196L12.8337 27.7464C13.1759 27.9065 13.5775 28.0002 14.0002 28.0002C14.4228 28.0002 14.8245 27.9065 15.1842 27.7394L15.1667 27.7464L26.5776 22.5196C27.0641 22.2894 27.394 21.8029 27.394 21.2393V21.2358V17.5605L15.1667 23.091C14.8245 23.2546 14.4237 23.35 14.0002 23.35C13.5767 23.35 13.175 23.2546 12.8171 23.0831L12.8337 23.0901L12.8328 23.091Z" fill="currentColor"/>
<path d="M1.04846 14.6547L12.7158 20.0216C13.0859 20.1931 13.5191 20.2937 13.9759 20.2937C14.4327 20.2937 14.8658 20.1939 15.2552 20.0137L15.236 20.0216L26.9033 14.6547C27.165 14.5314 27.3435 14.2697 27.3435 13.9661C27.3435 13.6624 27.165 13.4008 26.9077 13.28L26.9033 13.2783L15.3988 7.98145V12.7532C15.3988 13.5268 14.7722 14.1533 13.9986 14.1533C13.2251 14.1533 12.5985 13.5268 12.5985 12.7532V7.98145L1.04758 13.2783C0.785936 13.4016 0.607422 13.6633 0.607422 13.9669C0.607422 14.2706 0.785936 14.5322 1.04321 14.653L1.04846 14.6547Z" fill="currentColor"/>
<path d="M17.5448 3.51166C17.5448 5.45082 15.9723 7.02332 14.0331 7.02332C12.094 7.02332 10.5215 5.45082 10.5215 3.51166C10.5215 1.5725 12.094 0 14.0331 0C15.9723 0 17.5448 1.5725 17.5448 3.51166Z" fill="currentColor"/>
</svg>
