<svg width="30" height="28" viewBox="0 0 30 28" fill="none" xmlns="http://www.w3.org/2000/svg">
<path d="M27.3886 11.7628L16.2074 0.484912C15.9139 0.185032 15.5047 0 15.0526 0C14.6005 0 14.1912 0.185944 13.8986 0.484912L2.59616 11.7509C1.23805 13.1409 0.400391 15.0432 0.400391 17.1424C0.400391 21.2103 3.54867 24.5436 7.54099 24.838L7.56651 24.8399H8.12525C9.31657 24.838 10.445 24.5701 11.454 24.0906L11.4066 24.1107C10.6318 25.0067 9.73403 25.7687 8.73412 26.3794L8.6849 26.4076C8.44154 26.5635 8.28294 26.8315 8.28294 27.1368C8.28294 27.609 8.66303 27.9927 9.13336 28H20.8496C21.3209 27.9936 21.701 27.6099 21.701 27.1368C21.701 26.8315 21.5424 26.5626 21.3026 26.4095L21.299 26.4076C20.2736 25.7723 19.3967 25.0185 18.6502 24.1499L18.6374 24.1353C19.5991 24.5947 20.7275 24.8627 21.9179 24.8645H22.4775C26.4753 24.5455 29.5981 21.2222 29.5981 17.1706C29.5981 15.0642 28.754 13.1555 27.3859 11.7628L27.3868 11.7637L27.3886 11.7628ZM14.5795 16.7942L13.7774 20.2095H5.574L6.27858 16.8917L6.50918 16.7705C9.58363 15.2273 11.3464 14.2301 11.3464 13.7808C11.1605 13.7024 10.9445 13.6577 10.7175 13.6577C10.6911 13.6577 10.6637 13.6586 10.6373 13.6596H10.641C9.96646 13.6669 9.34573 13.8938 8.84715 14.273L8.85444 14.2675L8.34401 14.6321L6.80086 11.7764L7.16545 11.4847C8.16809 10.7255 9.43688 10.2688 10.8123 10.2688C10.8378 10.2688 10.8634 10.2688 10.8889 10.2697H10.8852C13.4374 10.2697 15.2239 11.6433 15.2239 13.6122C15.172 15.0022 14.3771 16.1953 13.2268 16.8106L13.2068 16.8206L14.5795 16.7942ZM21.2634 20.2095H17.4835L18.4679 15.725L17.4589 16.5517L15.6478 14.1208L20.2663 10.3654H23.4264L21.2634 20.2095Z" fill="currentColor"/>
</svg>
