<svg fill="currentColor" viewBox="0 0 96 96" class="svg-icon" style=""> <title></title> <path fill-rule="evenodd" clip-rule="evenodd" d="M47.967.003c11.319 0 21.723 3.918 29.83 10.4l.096.076C88.927 19.267 96 32.819 96 48.023c0 26.389-21.303 47.8-47.667 47.973h-.018c-9.517-.18-17.174-7.948-17.174-17.507 0-1.916.305-3.76.839-5.36l.165-.585c.95-2.944 2.063-5.82 3.115-8.089a15.195 15.195 0 0 0 8.806 2.794c.375 0 .75-.012 1.068-.036-2.318 7.556 2.6 17.39 2.6 17.39 14.55-14.55 10.913-25.465 10.913-25.465C76.835 40.95 73.197 22.76 73.197 22.76S55.01 19.12 36.82 37.31c0 0-10.914-3.64-25.464 10.953 0 0 9.834 4.918 17.39 2.6a15.386 15.386 0 0 0 2.759 9.873l.491-.2c-2.785 1.268-5.66 2.38-9.166 3.477l.123-.035a17.497 17.497 0 0 1-5.403.848C7.95 64.826.15 57.12 0 47.544v-.36C.423 21.054 21.738.003 47.967.003Zm-19.222 50.86.003-.048-.003.048Zm6.515 13.592-.048-.034.048.034ZM62.29 40.95l-.003.004.006-.006-.003.002Zm-7.286-7.274a5.126 5.126 0 0 0-1.267 3.387 5.16 5.16 0 0 0 8.553 3.887 5.127 5.127 0 0 0 1.266-3.386 5.16 5.16 0 0 0-8.553-3.888Zm0 0a.08.08 0 0 1 .002-.003l-.006.006.004-.003Z"></path></svg>
