<svg width="28" height="28" viewBox="0 0 28 28" fill="none" xmlns="http://www.w3.org/2000/svg">
<path d="M18.1224 9.33301L15.3575 14.4078L10.364 11.9116C10.0621 11.7584 9.70601 11.6692 9.3289 11.6692C8.48542 11.6692 7.74607 12.1172 7.33658 12.7874L7.33046 12.7979L0.330677 24.4639C0.127684 24.8025 0.0078125 25.212 0.0078125 25.6486C0.0078125 26.5017 0.465423 27.2472 1.14878 27.6549L1.15928 27.6611C1.49089 27.8693 1.89338 27.9944 2.32474 27.9997H2.32562C3.17434 27.99 3.91369 27.5281 4.31443 26.8438L4.32055 26.8325L10.2117 17.0214L15.2866 19.5527C15.5998 19.7198 15.9717 19.8178 16.3663 19.8178C17.2194 19.8178 17.9649 19.3602 18.3726 18.6768L18.3787 18.6663L22.2172 11.6666C20.5688 11.3682 19.1531 10.5291 18.1302 9.34263L18.1224 9.33388V9.33301Z" fill="currentColor"/>
<path d="M27.9907 4.66623C27.9907 7.2439 25.9012 9.33246 23.3244 9.33246C20.7476 9.33246 18.6582 7.24302 18.6582 4.66623C18.6582 2.08856 20.7476 0 23.3244 0C25.9012 0 27.9907 2.08943 27.9907 4.66623Z" fill="currentColor"/>
</svg>
