<svg width="28" height="28" viewBox="0 0 28 28" fill="none" xmlns="http://www.w3.org/2000/svg">
<path d="M13.9992 0C13.9878 0 13.9755 0 13.9624 0C7.46137 0 2.19141 5.26996 2.19141 11.771C2.19141 11.8489 2.19228 11.9268 2.19403 12.0046V11.9933V21.7816H9.80017V13.3932H6.21891V11.9933C6.21628 11.9163 6.21453 11.827 6.21453 11.736C6.21453 7.47752 9.66717 4.02487 13.9257 4.02487C13.9519 4.02487 13.9782 4.02487 14.0035 4.02487H13.9992C14.021 4.02487 14.0473 4.02487 14.0735 4.02487C18.332 4.02487 21.7847 7.47752 21.7847 11.736C21.7847 11.8261 21.7829 11.9163 21.7803 12.0064V11.9933V13.3932H18.199V21.7816H21.5003C20.7417 23.5901 18.3154 23.9751 13.9992 23.9751V28C17.8377 28 25.8052 28 25.8052 20.3939V11.9941C25.8069 11.9285 25.8069 11.8506 25.8069 11.7728C25.8069 5.27171 20.537 0.00175003 14.0359 0.00175003C14.0228 0.00175003 14.0097 0.00175003 13.9965 0.00175003H13.9983L13.9992 0Z" fill="currentColor"/>
</svg>
