<svg width="36" height="36" viewBox="0 0 36 36" xmlns="http://www.w3.org/2000/svg">
<path d="M30.205 2.023L26.785 2.423C23.396 2.815 20.417 4.323 18.17 6.563L12.825 11.913L8.585 11.448L2 18.023L8.455 18.833C10.125 23.083 12.99 26.043 17.18 27.558L18 34.023L24.575 27.438L24.11 23.198L29.46 17.853C31.701 15.606 33.208 12.627 33.594 9.305L33.6 9.238L34 5.818C34.015 5.698 34.023 5.56 34.023 5.42C34.023 3.531 32.492 2 30.603 2C30.463 2 30.324 2.008 30.188 2.025L30.205 2.023ZM24.155 15.473C21.946 15.473 20.155 13.682 20.155 11.473C20.155 9.264 21.946 7.473 24.155 7.473C26.364 7.473 28.155 9.264 28.155 11.473C28.155 11.479 28.155 11.486 28.155 11.493C28.155 13.702 26.364 15.493 24.155 15.493V15.473Z" />
<path d="M13.7951 29.9932C10.2581 28.7662 7.52206 26.0302 6.32106 22.5772L6.29506 22.4932C6.29506 22.4932 2.03506 24.8232 3.45006 32.8182C11.4451 34.2282 13.7951 29.9932 13.7951 29.9932Z" />
</svg>
