<svg width="34" height="34" viewBox="0 0 34 34" fill="none" xmlns="http://www.w3.org/2000/svg">
<g clip-path="url(#clip0_689_4667)">
<path d="M30.1021 8.2C30.1021 6.867 29.0351 5.933 27.8351 5.933C26.5021 5.933 25.5681 7 25.5681 8.2V17H22.6351V3.267C22.6351 1.934 21.5681 1 20.3681 1C19.1681 1 18.1011 2.067 18.1011 3.267V17H15.3011V7C15.3011 5.667 14.2341 4.733 13.0341 4.733C11.7011 4.733 10.7671 5.8 10.7671 7V22.333L7.16713 18.733C6.23413 17.8 4.63412 17.8 3.70013 18.733C2.76613 19.666 2.76713 21.266 3.70013 22.2L10.9001 31C11.7001 32.333 13.1671 33 14.7671 33H22.9001C26.7671 33 29.9671 29.8 29.9671 25.933L30.1001 8.2H30.1021Z" fill="#9100FD"/>
</g>
<defs>
<clipPath id="clip0_689_4667">
<rect width="34" height="34" fill="white"/>
</clipPath>
</defs>
</svg>
