<svg width="36" height="36" viewBox="0 0 36 36" xmlns="http://www.w3.org/2000/svg">
<path d="M18 2C9.163 2 2 9.163 2 18C2 26.837 9.163 34 18 34C26.837 34 34 26.837 34 18C34 9.163 26.837 2 18 2ZM18 5.5C23.104 5.501 27.492 8.56 29.433 12.945L29.465 13.025C27.995 12.775 26.515 12.59 25.13 12.46L20.575 11.32C19.802 11.117 18.915 11.001 18 11.001C17.085 11.001 16.198 11.117 15.352 11.336L15.425 11.32L10.87 12.46C9.485 12.59 8.005 12.775 6.535 13.025C8.508 8.56 12.896 5.501 18 5.5ZM14.75 30.07C10.273 28.825 6.855 25.274 5.822 20.81L5.805 20.725C7.472 20.251 9.45 19.878 11.478 19.681L11.62 19.67C13.059 20.049 14.202 21.072 14.739 22.404L14.75 22.435V30.07ZM18 20.25C15.929 20.25 14.25 18.571 14.25 16.5C14.25 14.429 15.929 12.75 18 12.75C20.071 12.75 21.75 14.429 21.75 16.5C21.75 18.571 20.071 20.25 18 20.25ZM21.25 30.07V22.435C21.798 21.072 22.941 20.049 24.348 19.677L24.38 19.67C26.55 19.878 28.528 20.251 30.439 20.783L30.195 20.725C29.145 25.274 25.727 28.825 21.338 30.049L21.25 30.07Z" />
<path d="M20.25 16.5C20.25 17.743 19.243 18.75 18 18.75C16.757 18.75 15.75 17.743 15.75 16.5C15.75 15.257 16.757 14.25 18 14.25C19.243 14.25 20.25 15.257 20.25 16.5Z" />
</svg>
