<svg width="28" height="28" viewBox="0 0 28 28" fill="none" xmlns="http://www.w3.org/2000/svg">
<path d="M21.8578 2.41438C20.8743 1.738 19.7429 1.16838 18.5363 0.762375L18.44 0.734375C18.2738 3.17388 17.859 5.44625 17.2168 7.62063L17.2737 7.39663H20.54C21.3713 6.07188 21.8639 4.461 21.8639 2.7355C21.8639 2.62262 21.8622 2.51063 21.8578 2.39863L21.8587 2.41438H21.8578Z" fill="currentColor"/>
<path d="M16.5731 18.2234H20.4581C20.893 17.1069 21.145 15.8145 21.145 14.4626C21.145 14.2999 21.1415 14.138 21.1345 13.977L21.1353 13.9997C21.1353 13.963 21.1362 13.9201 21.1362 13.8764C21.1362 12.395 20.8623 10.9775 20.3618 9.67285L20.389 9.75335H7.55533C7.10995 10.9399 6.8527 12.3101 6.8527 13.7416C6.8527 13.8326 6.85358 13.9227 6.8562 14.0137V14.0006C6.85008 14.1406 6.8457 14.3042 6.8457 14.4696C6.8457 15.8267 7.0977 17.1252 7.55708 18.3214L7.53258 18.2479H16.574L16.5731 18.2234Z" fill="currentColor"/>
<path d="M10.6355 20.5563H7.41555C6.66217 21.7988 6.2168 23.3003 6.2168 24.9068C6.2168 25.1658 6.22817 25.4231 6.25092 25.6759L6.2483 25.6436C7.20555 26.2919 8.30542 26.8414 9.47617 27.2369L9.5733 27.2649C9.67217 24.8377 10.0537 22.5417 10.6854 20.3516L10.6347 20.5563H10.6355Z" fill="currentColor"/>
<path d="M7.40369 7.39575H10.6701C10.0847 5.44537 9.66994 3.17388 9.50894 0.832375L9.50369 0.734375C8.21744 1.17275 7.10269 1.7415 6.08594 2.44413L6.13144 2.41438C6.12619 2.53163 6.12269 2.66813 6.12269 2.80638C6.12269 4.503 6.59869 6.08763 7.42469 7.43512L7.40281 7.39663L7.40369 7.39575Z" fill="currentColor"/>
<path d="M20.5755 20.5562H17.3555C17.9435 22.5389 18.3328 24.8341 18.4387 27.2027L18.4413 27.2648C19.7092 26.8483 20.81 26.3067 21.8162 25.6347L21.7663 25.6662C21.7856 25.4509 21.797 25.2016 21.797 24.9487C21.797 23.3256 21.3428 21.8092 20.5553 20.5186L20.5755 20.5562Z" fill="currentColor"/>
<path d="M14.9282 20.5563H13.0618C12.3732 22.7202 11.9505 25.213 11.8954 27.796L11.8945 27.8249C12.5219 27.9299 13.2482 27.9938 13.9884 27.9999H13.9945C14.7479 27.9947 15.4829 27.9317 16.1995 27.8135L16.1182 27.8249C16.0543 25.2095 15.6238 22.7184 14.8765 20.3682L14.9282 20.5563Z" fill="currentColor"/>
<path d="M24.0877 4.31667C23.9424 5.9853 23.3789 7.49905 22.5039 8.7818L22.5249 8.74942C23.1234 10.264 23.4708 12.0193 23.4708 13.855C23.4708 13.9058 23.4708 13.9565 23.4699 14.0064V13.9985C23.4769 14.1578 23.4813 14.3442 23.4813 14.5314C23.4813 16.2534 23.1339 17.8949 22.5057 19.3894L22.5363 19.3072C23.3352 20.5873 23.8663 22.1115 24.015 23.7469L24.0177 23.7872C26.4755 21.2672 27.9919 17.8179 27.9919 14.0152C27.9919 10.2474 26.5035 6.82792 24.0833 4.31055L24.0877 4.31492V4.31667Z" fill="currentColor"/>
<path d="M5.45577 19.285C4.85902 17.8745 4.51164 16.2339 4.51164 14.5119C4.51164 14.3317 4.51514 14.1532 4.52302 13.9747L4.52214 14C4.52127 13.9572 4.52127 13.9064 4.52127 13.8557C4.52127 12.0199 4.86864 10.2647 5.50039 8.65291L5.46714 8.75003C4.61227 7.49878 4.04877 5.98591 3.90614 4.35141L3.90352 4.31641C1.49377 6.82678 0.00976562 10.2428 0.00976562 14.0044C0.00976562 17.8019 1.52177 21.2459 3.97614 23.7677L3.97352 23.7642C4.12489 22.0885 4.65602 20.5643 5.48027 19.2404L5.45489 19.2842L5.45577 19.285Z" fill="currentColor"/>
<path d="M13.0849 7.39638H14.9049C15.5516 5.257 15.9716 2.78512 16.0696 0.231L16.0713 0.175C15.4518 0.070875 14.7334 0.007875 14.0019 0H13.9941C13.2407 0.00525 12.5057 0.06825 11.7891 0.186375L11.8704 0.175C11.9877 2.79212 12.4226 5.26137 13.1392 7.60812L13.0849 7.39638Z" fill="currentColor"/>
</svg>
