<svg width="28" height="28" viewBox="0 0 28 28" fill="none" xmlns="http://www.w3.org/2000/svg">
<path d="M14 0C6.26762 0 0 6.26762 0 14C0 21.7324 6.26762 28 14 28C21.7324 28 28 21.7324 28 14C28 6.26762 21.7324 0 14 0ZM14 3.0625C18.466 3.06337 22.3055 5.74 24.0039 9.57687L24.0319 9.64687C22.7456 9.42812 21.4506 9.26625 20.2387 9.1525L16.2531 8.155C15.5768 7.97737 14.8006 7.87588 14 7.87588C13.1994 7.87588 12.4233 7.97738 11.683 8.169L11.7469 8.155L7.76125 9.1525C6.54938 9.26625 5.25437 9.42812 3.96812 9.64687C5.6945 5.74 9.534 3.06337 14 3.0625ZM11.1562 24.5612C7.23887 23.4719 4.24813 20.3647 3.34425 16.4587L3.32938 16.3844C4.788 15.9696 6.51875 15.6432 8.29325 15.4709L8.4175 15.4613C9.67663 15.7929 10.6768 16.688 11.1466 17.8535L11.1562 17.8806V24.5612ZM14 15.9688C12.1879 15.9688 10.7188 14.4996 10.7188 12.6875C10.7188 10.8754 12.1879 9.40625 14 9.40625C15.8121 9.40625 17.2812 10.8754 17.2812 12.6875C17.2812 14.4996 15.8121 15.9688 14 15.9688ZM16.8438 24.5612V17.8806C17.3232 16.688 18.3234 15.7929 19.5545 15.4674L19.5825 15.4613C21.4812 15.6433 23.212 15.9696 24.8841 16.4351L24.6706 16.3844C23.7519 20.3647 20.7611 23.4719 16.9207 24.5429L16.8438 24.5612Z" fill="currentColor"/>
<path d="M15.9688 12.6875C15.9688 13.7751 15.0876 14.6562 14 14.6562C12.9124 14.6562 12.0312 13.7751 12.0312 12.6875C12.0312 11.5999 12.9124 10.7188 14 10.7188C15.0876 10.7188 15.9688 11.5999 15.9688 12.6875Z" fill="currentColor"/>
</svg>
