<svg width="28" height="28" viewBox="0 0 28 28" fill="none" xmlns="http://www.w3.org/2000/svg">
<path d="M23.02 19.3097H24.8889C25.3869 19.3097 25.7607 19.933 25.3869 20.3067L19.0329 27.5326C18.5348 28.1558 17.6621 28.1558 17.1641 27.5326L10.81 20.3067C10.4363 19.933 10.6857 19.3097 11.3081 19.3097H13.1769C13.5507 19.3097 13.8002 19.0602 13.8002 18.6864V11.9587C13.8002 11.2111 14.2982 10.7131 15.0457 10.7131H21.1503C21.8978 10.7131 22.3958 11.2111 22.3958 11.9587V18.6864C22.3958 19.0602 22.6463 19.3097 23.02 19.3097ZM7.32185 18.0641C7.8199 16.9428 8.81692 16.071 10.0625 15.6972V11.8353C10.0625 9.09467 12.3051 6.85207 15.0457 6.85207H16.167V1.24558C16.167 0.498044 15.669 0 14.9215 0H3.70847C2.96093 0 2.46289 0.498044 2.46289 1.24558V19.8096C2.46289 20.5571 2.96093 21.0552 3.70847 21.0552H7.07236C6.82287 20.0582 6.82287 19.0611 7.32185 18.0641Z" fill="#FF8D00"/>
</svg>
