<svg width="36" height="36" viewBox="0 0 36 36" xmlns="http://www.w3.org/2000/svg">
<path d="M18.495 1C18.482 1 18.468 1 18.453 1C11.023 1 5 7.023 5 14.453C5 14.542 5.001 14.631 5.003 14.72V14.707V25.894H13.696V16.307H9.603V14.707C9.6 14.619 9.598 14.517 9.598 14.413C9.598 9.546 13.544 5.6 18.411 5.6C18.441 5.6 18.471 5.6 18.5 5.6H18.495C18.52 5.6 18.55 5.6 18.58 5.6C23.447 5.6 27.393 9.546 27.393 14.413C27.393 14.516 27.391 14.619 27.388 14.722V14.707V16.307H23.295V25.894H27.068C26.201 27.961 23.428 28.401 18.495 28.401V33.001C22.882 33.001 31.988 33.001 31.988 24.308V14.708C31.99 14.633 31.99 14.544 31.99 14.455C31.99 7.025 25.967 1.002 18.537 1.002C18.522 1.002 18.507 1.002 18.492 1.002H18.494L18.495 1Z" />
</svg>
