<svg width="28" height="28" viewBox="0 0 28 28" fill="none" xmlns="http://www.w3.org/2000/svg">
<path d="M27.8302 3.19537C27.0936 2.40716 26.0604 1.90414 24.9092 1.86564H24.9022C24.8497 1.86302 24.7885 1.86214 24.7263 1.86214C23.7535 1.86214 22.8595 2.1972 22.1526 2.75884L22.1614 2.75271C20.9952 1.72655 19.4319 1.2244 18.4058 2.19283L17.4023 3.14901C19.5789 4.2889 21.3522 5.93881 22.6066 7.94477L22.639 8.00076L23.3275 7.39451C24.3423 6.43833 23.981 4.91002 23.0589 3.68527C23.5375 3.32834 24.1402 3.11314 24.7928 3.11314C25.637 3.11314 26.3972 3.47181 26.9291 4.04482L26.9309 4.04657C27.042 4.16817 27.2021 4.24516 27.3797 4.24516C27.3823 4.24516 27.384 4.24516 27.3867 4.24516C27.5511 4.24516 27.699 4.17779 27.8066 4.07019C27.9256 3.95734 27.9999 3.79812 27.9999 3.62141C27.9999 3.45607 27.9361 3.30647 27.8302 3.19537Z" fill="currentColor"/>
<path d="M22.7453 14.9537C22.7453 21.2349 17.6539 26.3264 11.3727 26.3264C5.09145 26.3264 0 21.2349 0 14.9537C0 8.67251 5.09145 3.58105 11.3727 3.58105C17.6539 3.58105 22.7453 8.67251 22.7453 14.9537Z" fill="currentColor"/>
</svg>
