<svg width="28" height="28" viewBox="0 0 28 28" fill="currentColor" xmlns="http://www.w3.org/2000/svg">
<path d="M14.0004 7.00045L15.3539 9.52021C16.116 10.928 17.4599 11.9376 19.054 12.2333L19.0863 12.2386L21.8974 12.7399L19.9263 14.8047C19.0076 15.7523 18.4406 17.0471 18.4406 18.4732C18.4406 18.7305 18.459 18.9833 18.4949 19.2309L18.4914 19.2029L18.8764 22.0263L16.4502 20.86C15.7345 20.5066 14.8911 20.2992 14.0004 20.2992C13.1098 20.2992 12.2664 20.5057 11.5174 20.874L11.5507 20.8591L9.12452 22.0254L9.50948 19.2021C9.54186 18.9833 9.56023 18.7296 9.56023 18.4724C9.56023 17.0454 8.99416 15.7514 8.07374 14.8021L8.07549 14.8038L6.1043 12.6804L8.91541 12.1791C10.5428 11.8781 11.8858 10.8685 12.6347 9.48872L12.6487 9.46072L14.0022 6.99957L14.0004 7.00045ZM14.0004 0.607422C13.9996 0.607422 13.9987 0.607422 13.9978 0.607422C13.4204 0.607422 12.919 0.929392 12.6627 1.40447L12.6583 1.41235L9.33363 7.66539C9.11227 8.06872 8.72731 8.35832 8.26972 8.44581L8.2601 8.44756L1.26076 9.70744C0.540699 9.83431 0 10.4555 0 11.2018C0 11.6086 0.16011 11.9779 0.420836 12.2508L0.419961 12.25L5.33088 17.3709C5.59685 17.6386 5.76046 18.0069 5.76046 18.4146C5.76046 18.5039 5.75259 18.5905 5.73771 18.6754L5.73946 18.6666L4.78318 25.666C4.77355 25.7289 4.7683 25.8016 4.7683 25.8759C4.7683 26.7132 5.44724 27.3922 6.28454 27.3922C6.28541 27.3922 6.28629 27.3922 6.28804 27.3922C6.30116 27.393 6.31778 27.393 6.33353 27.393C6.57676 27.393 6.80686 27.3327 7.00722 27.2251L6.99934 27.2286L13.2401 24.2188C13.4755 24.1016 13.752 24.0325 14.0451 24.0325C14.3382 24.0325 14.6146 24.1016 14.8605 24.2232L14.85 24.2188L20.998 27.2286C21.1879 27.3318 21.4145 27.3922 21.6542 27.3922C21.6568 27.3922 21.6603 27.3922 21.6638 27.3922C21.6787 27.393 21.6953 27.393 21.7128 27.393C22.5501 27.393 23.2291 26.7141 23.2291 25.8768C23.2291 25.8024 23.2238 25.7289 23.2133 25.6581L23.2142 25.666L22.2579 18.6666C22.2474 18.6001 22.2413 18.5231 22.2413 18.4453C22.2413 18.041 22.4032 17.6736 22.6665 17.4067L27.5774 12.2858C27.839 12.0137 28 11.6436 28 11.2359C28 10.4922 27.4646 9.87368 26.7585 9.74419L26.7489 9.74244L19.7495 8.48256C19.2718 8.38894 18.8807 8.08535 18.669 7.67501L18.6646 7.66626L15.3399 1.41322C15.0801 0.930267 14.5779 0.608297 14.0004 0.608297C13.9996 0.608297 13.9987 0.608297 13.9978 0.608297L14.0004 0.607422Z" fill="currentColor"/>
</svg>
