<svg width="36" height="36" viewBox="0 0 36 36" fill="none" xmlns="http://www.w3.org/2000/svg">
<path d="M33.84 19.826C33.378 19.611 32.837 19.485 32.267 19.485C31.697 19.485 31.156 19.611 30.67 19.836L30.693 19.826C30.797 19.446 30.857 19.01 30.857 18.561C30.857 16.819 29.961 15.286 28.606 14.398L28.587 14.386C30.88 14.173 32.08 10.213 32.08 10.213C30.569 7.423 28.354 5.182 25.669 3.682L25.587 3.64C25.587 3.64 21.72 3.107 20.56 4.333C19.12 2 15.027 2 15.027 2C11.78 2.623 8.964 4.157 6.772 6.322L6.774 6.32C6.776 7.613 7.376 8.765 8.312 9.514L8.32 9.52C6.28 10 4.16 12.867 4.507 14.027C4.097 13.482 3.451 13.133 2.723 13.133C2.703 13.133 2.684 13.133 2.664 13.134H2.667C2.247 14.503 2.003 16.076 2 17.706V17.708C2 19.467 2.288 21.159 2.819 22.739L2.787 22.628C3.531 22.026 4.102 21.237 4.429 20.331L4.44 20.295C5.451 20.962 6.692 21.358 8.025 21.358C8.681 21.358 9.315 21.262 9.914 21.083L9.867 21.095C9.447 21.944 9.201 22.943 9.201 24C9.201 25.327 9.589 26.563 10.257 27.601L10.241 27.575C8.938 27.762 7.808 28.386 6.978 29.291L6.974 29.295C9.837 32.025 13.722 33.706 18 33.708C19.36 33.705 20.679 33.53 21.936 33.204L21.827 33.228C21.084 31.507 19.731 30.167 18.047 29.459L18 29.442C19.867 29.335 21.707 26.602 22 24.735C23.341 25.345 24.909 25.7 26.56 25.7C26.964 25.7 27.363 25.679 27.756 25.637L27.707 25.641C27.421 26.344 27.255 27.16 27.255 28.014C27.255 28.868 27.421 29.684 27.723 30.431L27.708 30.388C30.984 27.864 33.24 24.154 33.832 19.912L33.842 19.828L33.84 19.826ZM21.613 22.72C19.573 19.84 13.733 18.12 10.666 19.827C12.426 15.507 11.813 12.694 9.626 9.707C13.626 10.08 18.373 8 20.293 5.334C20.84 8.227 24.026 13.054 26.96 14.027C22.187 16.2 21.64 19.627 21.613 22.72Z" fill="#B1BAD3"/>
</svg>
