<svg width="36" height="36" viewBox="0 0 36 36" xmlns="http://www.w3.org/2000/svg">
<path d="M27.947 4.469C25.243 2.307 21.773 1 17.998 1C9.25 1 2.141 8.021 2 16.736V16.749V16.856C2.05 20.05 4.651 22.62 7.853 22.62C8.482 22.62 9.087 22.521 9.655 22.337L9.614 22.349C10.783 21.983 11.742 21.612 12.671 21.189L12.507 21.256C11.925 20.431 11.576 19.404 11.576 18.296C11.576 18.179 11.58 18.063 11.588 17.947L11.587 17.963C9.067 18.736 5.787 17.096 5.787 17.096C10.64 12.229 14.28 13.443 14.28 13.443C20.347 7.376 26.413 8.59 26.413 8.59C26.413 8.59 27.626 14.657 21.56 20.723C21.56 20.723 22.773 24.363 17.92 29.216C17.92 29.216 16.28 25.936 17.053 23.416C16.947 23.424 16.822 23.428 16.697 23.428C15.596 23.428 14.577 23.079 13.744 22.485L13.76 22.496C13.409 23.253 13.038 24.212 12.721 25.194L12.666 25.389C12.488 25.923 12.386 26.538 12.386 27.177C12.386 30.365 14.94 32.956 18.114 33.016H18.12C26.913 32.958 34.018 25.817 34.018 17.016C34.018 11.945 31.659 7.425 27.979 4.494L27.947 4.469Z" />
<path d="M22.7738 14.6557C23.0368 14.3557 23.1968 13.9597 23.1968 13.5257C23.1968 12.5757 22.4268 11.8057 21.4768 11.8057C21.0438 11.8057 20.6478 11.9657 20.3448 12.2307L20.3468 12.2287C20.0838 12.5287 19.9238 12.9247 19.9238 13.3587C19.9238 14.3087 20.6938 15.0787 21.6438 15.0787C22.0768 15.0787 22.4728 14.9187 22.7758 14.6537L22.7738 14.6557Z" />
</svg>
