<svg width="36" height="36" viewBox="0 0 36 36" xmlns="http://www.w3.org/2000/svg">
<g clip-path="url(#clip0_494_1695)">
<path d="M22.703 12.667L19.543 18.467L13.836 15.614C13.491 15.439 13.084 15.337 12.653 15.337C11.689 15.337 10.844 15.849 10.376 16.615L10.369 16.627L2.369 29.96C2.137 30.347 2 30.815 2 31.314C2 32.289 2.523 33.141 3.304 33.607L3.316 33.614C3.695 33.852 4.155 33.995 4.648 34.001H4.649C5.619 33.99 6.464 33.462 6.922 32.68L6.929 32.667L13.662 21.454L19.462 24.347C19.82 24.538 20.245 24.65 20.696 24.65C21.671 24.65 22.523 24.127 22.989 23.346L22.996 23.334L27.383 15.334C25.499 14.993 23.881 14.034 22.712 12.678L22.703 12.668V12.667Z" />
<path d="M33.9824 7.333C33.9824 10.279 31.5944 12.666 28.6494 12.666C25.7044 12.666 23.3164 10.278 23.3164 7.333C23.3164 4.387 25.7044 2 28.6494 2C31.5944 2 33.9824 4.388 33.9824 7.333Z" />
</g>
<defs>
<clipPath id="clip0_494_1695">
<rect width="36" height="36" fill="white"/>
</clipPath>
</defs>
</svg>
