<svg width="36" height="36" viewBox="0 0 36 36" fill="none" xmlns="http://www.w3.org/2000/svg">
<path d="M19.306 3.001C11.818 3.044 5.662 8.692 4.819 15.959L4.813 16.027H2L6.933 23.027L11.88 16.027H9.28C10.067 11.146 14.249 7.464 19.291 7.464C24.887 7.464 29.424 12.001 29.424 17.597C29.424 23.193 24.887 27.73 19.291 27.73C16.746 27.73 14.421 26.792 12.641 25.243L12.653 25.253L9.76 28.586C12.302 30.798 15.645 32.146 19.304 32.146C27.353 32.146 33.877 25.621 33.877 17.573C33.877 9.525 27.354 3.001 19.306 3V3.001Z" fill="#B1BAD3"/>
<path d="M17.0918 11.3867V18.4937L22.4388 23.8407L25.5718 20.7077L21.5188 16.6547V11.3877H17.0918V11.3867Z" fill="#B1BAD3"/>
<path d="M19.306 3.001C11.818 3.044 5.662 8.692 4.819 15.959L4.813 16.027H2L6.933 23.027L11.88 16.027H9.28C10.067 11.146 14.249 7.464 19.291 7.464C24.887 7.464 29.424 12.001 29.424 17.597C29.424 23.193 24.887 27.73 19.291 27.73C16.746 27.73 14.421 26.792 12.641 25.243L12.653 25.253L9.76 28.586C12.302 30.798 15.645 32.146 19.304 32.146C27.353 32.146 33.877 25.621 33.877 17.573C33.877 9.525 27.354 3.001 19.306 3V3.001Z" fill="#B1BAD3"/>
<path d="M17.0918 11.3867V18.4937L22.4388 23.8407L25.5718 20.7077L21.5188 16.6547V11.3877H17.0918V11.3867Z" fill="#B1BAD3"/>
</svg>
