<svg width="28" height="28" viewBox="0 0 28 28" fill="none" xmlns="http://www.w3.org/2000/svg">
<path d="M13.9996 9.91725C11.7448 9.91725 9.91602 8.08938 9.91602 5.83362C9.91602 3.57787 11.7439 1.75 13.9996 1.75C16.2545 1.75 18.0833 3.57787 18.0833 5.83362C18.0833 8.0885 16.2554 9.91725 13.9996 9.91725ZM13.9996 4.0845C13.0328 4.0845 12.2496 4.86763 12.2496 5.8345C12.2496 6.80138 13.0328 7.5845 13.9996 7.5845C14.9665 7.5845 15.7496 6.80138 15.7496 5.8345C15.7496 4.86763 14.9665 4.0845 13.9996 4.0845Z" fill="currentColor"/>
<path d="M28 22.751C28 24.6839 26.4329 26.251 24.5 26.251C22.5671 26.251 21 24.6839 21 22.751C21 20.8181 22.5671 19.251 24.5 19.251C26.4329 19.251 28 20.8181 28 22.751Z" fill="currentColor"/>
<path d="M17.5 22.751C17.5 24.6839 15.9329 26.251 14 26.251C12.0671 26.251 10.5 24.6839 10.5 22.751C10.5 20.8181 12.0671 19.251 14 19.251C15.9329 19.251 17.5 20.8181 17.5 22.751Z" fill="currentColor"/>
<path d="M7 22.751C7 24.6839 5.43288 26.251 3.5 26.251C1.56712 26.251 0 24.6839 0 22.751C0 20.8181 1.56712 19.251 3.5 19.251C5.43288 19.251 7 20.8181 7 22.751Z" fill="currentColor"/>
<path d="M22.166 14.584C22.166 16.5169 20.5989 18.084 18.666 18.084C16.7331 18.084 15.166 16.5169 15.166 14.584C15.166 12.6511 16.7331 11.084 18.666 11.084C20.5989 11.084 22.166 12.6511 22.166 14.584Z" fill="currentColor"/>
<path d="M11.666 14.584C11.666 16.5169 10.0989 18.084 8.16602 18.084C6.23314 18.084 4.66602 16.5169 4.66602 14.584C4.66602 12.6511 6.23314 11.084 8.16602 11.084C10.0989 11.084 11.666 12.6511 11.666 14.584Z" fill="currentColor"/>
</svg>
