<svg width="36" height="36" viewBox="0 0 36 36" xmlns="http://www.w3.org/2000/svg">
<g clip-path="url(#clip0_648_3019)">
<path d="M18.002 10.307L19.549 13.187C20.42 14.796 21.956 15.95 23.778 16.288L23.815 16.294L27.028 16.867L24.775 19.227C23.725 20.31 23.077 21.79 23.077 23.42C23.077 23.714 23.098 24.003 23.139 24.286L23.135 24.254L23.575 27.481L20.802 26.148C19.984 25.744 19.02 25.507 18.002 25.507C16.984 25.507 16.02 25.743 15.164 26.164L15.202 26.147L12.429 27.48L12.869 24.253C12.906 24.003 12.927 23.713 12.927 23.419C12.927 21.788 12.28 20.309 11.228 19.224L11.23 19.226L8.977 16.799L12.19 16.226C14.05 15.882 15.585 14.728 16.441 13.151L16.457 13.119L18.004 10.306L18.002 10.307ZM18.002 3C18.001 3 18 3 17.999 3C17.339 3 16.766 3.368 16.473 3.911L16.468 3.92L12.668 11.067C12.415 11.528 11.975 11.859 11.452 11.959L11.441 11.961L3.441 13.401C2.618 13.546 2 14.256 2 15.109C2 15.574 2.183 15.996 2.481 16.308L2.48 16.307L8.093 22.16C8.397 22.466 8.584 22.887 8.584 23.353C8.584 23.455 8.575 23.554 8.558 23.651L8.56 23.641L7.467 31.641C7.456 31.713 7.45 31.796 7.45 31.881C7.45 32.838 8.226 33.614 9.183 33.614C9.184 33.614 9.185 33.614 9.187 33.614C9.202 33.615 9.221 33.615 9.239 33.615C9.517 33.615 9.78 33.546 10.009 33.423L10 33.427L17.133 29.987C17.402 29.853 17.718 29.774 18.053 29.774C18.388 29.774 18.704 29.853 18.985 29.992L18.973 29.987L26 33.427C26.217 33.545 26.476 33.614 26.75 33.614C26.753 33.614 26.757 33.614 26.761 33.614C26.778 33.615 26.797 33.615 26.817 33.615C27.774 33.615 28.55 32.839 28.55 31.882C28.55 31.797 28.544 31.713 28.532 31.632L28.533 31.641L27.44 23.641C27.428 23.565 27.421 23.477 27.421 23.388C27.421 22.926 27.606 22.506 27.907 22.201L33.52 16.348C33.819 16.037 34.003 15.614 34.003 15.148C34.003 14.298 33.391 13.591 32.584 13.443L32.573 13.441L24.573 12.001C24.027 11.894 23.58 11.547 23.338 11.078L23.333 11.068L19.533 3.921C19.236 3.369 18.662 3.001 18.002 3.001C18.001 3.001 18 3.001 17.999 3.001L18.002 3Z" />
<path d="M18.002 10.307L19.549 13.187C20.42 14.796 21.956 15.95 23.778 16.288L23.815 16.294L27.028 16.867L24.775 19.227C23.725 20.31 23.077 21.79 23.077 23.42C23.077 23.714 23.098 24.003 23.139 24.286L23.135 24.254L23.575 27.481L20.802 26.148C19.984 25.744 19.02 25.507 18.002 25.507C16.984 25.507 16.02 25.743 15.164 26.164L15.202 26.147L12.429 27.48L12.869 24.253C12.906 24.003 12.927 23.713 12.927 23.419C12.927 21.788 12.28 20.309 11.228 19.224L11.23 19.226L8.977 16.799L12.19 16.226C14.05 15.882 15.585 14.728 16.441 13.151L16.457 13.119L18.004 10.306L18.002 10.307ZM18.002 3C18.001 3 18 3 17.999 3C17.339 3 16.766 3.368 16.473 3.911L16.468 3.92L12.668 11.067C12.415 11.528 11.975 11.859 11.452 11.959L11.441 11.961L3.441 13.401C2.618 13.546 2 14.256 2 15.109C2 15.574 2.183 15.996 2.481 16.308L2.48 16.307L8.093 22.16C8.397 22.466 8.584 22.887 8.584 23.353C8.584 23.455 8.575 23.554 8.558 23.651L8.56 23.641L7.467 31.641C7.456 31.713 7.45 31.796 7.45 31.881C7.45 32.838 8.226 33.614 9.183 33.614C9.184 33.614 9.185 33.614 9.187 33.614C9.202 33.615 9.221 33.615 9.239 33.615C9.517 33.615 9.78 33.546 10.009 33.423L10 33.427L17.133 29.987C17.402 29.853 17.718 29.774 18.053 29.774C18.388 29.774 18.704 29.853 18.985 29.992L18.973 29.987L26 33.427C26.217 33.545 26.476 33.614 26.75 33.614C26.753 33.614 26.757 33.614 26.761 33.614C26.778 33.615 26.797 33.615 26.817 33.615C27.774 33.615 28.55 32.839 28.55 31.882C28.55 31.797 28.544 31.713 28.532 31.632L28.533 31.641L27.44 23.641C27.428 23.565 27.421 23.477 27.421 23.388C27.421 22.926 27.606 22.506 27.907 22.201L33.52 16.348C33.819 16.037 34.003 15.614 34.003 15.148C34.003 14.298 33.391 13.591 32.584 13.443L32.573 13.441L24.573 12.001C24.027 11.894 23.58 11.547 23.338 11.078L23.333 11.068L19.533 3.921C19.236 3.369 18.662 3.001 18.002 3.001C18.001 3.001 18 3.001 17.999 3.001L18.002 3Z" />
</g>
<defs>
<clipPath id="clip0_648_3019">
<rect width="36" height="36" fill="white"/>
</clipPath>
</defs>
</svg>
