<svg width="36" height="36" viewBox="0 0 36 36" fill="none" xmlns="http://www.w3.org/2000/svg">
<g clip-path="url(#clip0_494_1701)">
<path d="M30.4 9.28L20.573 3.6C19.93 3.223 19.158 3 18.333 3C17.508 3 16.736 3.223 16.072 3.612L16.093 3.601L6.333 9.281C5.553 9.693 5.025 10.489 5 11.411V11.414V23.614C5 23.616 5 23.618 5 23.62C5 24.725 5.6 25.69 6.492 26.207L6.506 26.215L16.066 31.735C16.709 32.112 17.481 32.335 18.306 32.335C19.131 32.335 19.903 32.112 20.567 31.723L20.546 31.734L30.106 26.214C31.035 25.701 31.657 24.731 31.666 23.615V11.414C31.655 10.502 31.152 9.709 30.412 9.287L30.4 9.281V9.28ZM11.346 23.507C10.613 23.6 9.893 22.587 9.746 21.254C9.599 19.921 10.066 18.774 10.799 18.694C11.532 18.614 12.252 19.614 12.399 20.947C12.546 22.28 12.092 23.427 11.346 23.507ZM18.44 12.84C17.04 12.84 15.907 12.24 15.907 11.507C15.907 10.774 17.04 10.174 18.44 10.174C19.84 10.174 20.973 10.774 20.973 11.507C20.973 12.24 19.84 12.787 18.44 12.787V12.84ZM18.44 7.974C17.04 7.974 15.907 7.387 15.907 6.641C15.907 5.895 17.04 5.308 18.44 5.308C19.84 5.308 20.973 5.908 20.973 6.641C20.973 7.374 19.84 7.921 18.44 7.921V7.974ZM24.56 26.467C24.293 27.72 23.52 28.614 22.827 28.454C22.134 28.294 21.787 27.121 22.067 25.921C22.347 24.721 23.107 23.774 23.8 23.921C24.493 24.068 24.84 25.161 24.56 26.414V26.467ZM24.56 19.68C24.293 20.933 23.52 21.827 22.827 21.68C22.134 21.533 21.787 20.347 22.067 19.133C22.347 17.919 23.107 16.986 23.8 17.146C24.493 17.306 24.84 18.373 24.56 19.626V19.68ZM29.44 23.68C29.173 24.933 28.387 25.827 27.693 25.68C26.999 25.533 26.666 24.347 26.933 23.133C27.2 21.919 27.986 20.986 28.68 21.146C29.374 21.306 29.707 22.399 29.44 23.653V23.68ZM29.44 16.894C29.173 18.147 28.387 19.041 27.693 18.894C26.999 18.747 26.666 17.561 26.933 16.361C27.2 15.161 27.986 14.214 28.68 14.361C29.374 14.508 29.707 15.614 29.44 16.868V16.894Z" fill="#B1BAD3"/>
</g>
<defs>
<clipPath id="clip0_494_1701">
<rect width="36" height="36" fill="white"/>
</clipPath>
</defs>
</svg>
