<svg width="28" height="28" viewBox="0 0 28 28" fill="none" xmlns="http://www.w3.org/2000/svg">
<path d="M19.9982 8.94219C18.4692 8.94219 17.0575 9.41247 15.8804 10.1183C15.6449 10.3539 15.4102 10.4713 15.1746 10.7068C15.0572 10.8242 14.939 10.8242 14.8217 10.9424C14.4687 11.178 14.2331 11.5309 13.9985 11.7656C13.8811 11.883 13.7629 12.1185 13.5282 12.2359C13.4108 12.3532 13.2926 12.5888 13.1752 12.7062C13.0579 12.9417 12.8223 13.1764 12.705 13.5294C12.705 13.6467 12.5876 13.7649 12.5876 13.8823C12.4703 14.2352 12.352 14.7055 12.2347 15.1767C12.2347 15.294 12.2347 15.4122 12.1173 15.5296C12 15.9999 12 16.471 12 16.9413C12 17.1769 12 17.5298 12.1173 17.7645C12.5876 21.7641 15.8822 24.9404 19.9991 24.9404C24.3516 24.9404 27.9991 21.4111 27.9991 16.9404C27.9991 12.5879 24.4698 8.94043 19.9991 8.94043L19.9982 8.94219Z" fill="currentColor"/>
<path d="M14.7056 6.82442C13.2939 4.58951 10.8234 3.05957 7.99998 3.05957C3.64751 3.05957 0 6.58885 0 11.0596C0 15.5303 3.52928 19.0595 7.99998 19.0595C8.23556 19.0595 8.47026 19.0595 8.70584 18.9422C8.58849 18.3537 8.47026 17.6478 8.47026 16.942C8.47026 12.5895 11.0581 8.70729 14.7056 6.82442Z" fill="currentColor"/>
</svg>
