<svg width="36" height="36" viewBox="0 0 36 36" xmlns="http://www.w3.org/2000/svg">
<g clip-path="url(#clip0_591_1609)">
<path d="M33.8126 5.73926C32.9706 4.83826 31.7896 4.26326 30.4736 4.21926H30.4656C30.4056 4.21626 30.3356 4.21526 30.2646 4.21526C29.1526 4.21526 28.1306 4.59826 27.3226 5.24026L27.3326 5.23326C25.9996 4.06026 24.2126 3.48626 23.0396 4.59326L21.8926 5.68626C24.3806 6.98926 26.4076 8.87526 27.8416 11.1683L27.8786 11.2323L28.6656 10.5393C29.8256 9.44626 29.4126 7.69926 28.3586 6.29926C28.9056 5.89126 29.5946 5.64526 30.3406 5.64526C31.3056 5.64526 32.1746 6.05526 32.7826 6.71026L32.7846 6.71226C32.9116 6.85126 33.0946 6.93926 33.2976 6.93926C33.3006 6.93926 33.3026 6.93926 33.3056 6.93926C33.4936 6.93926 33.6626 6.86226 33.7856 6.73926C33.9216 6.61026 34.0066 6.42826 34.0066 6.22626C34.0066 6.03726 33.9336 5.86626 33.8126 5.73926Z" />
<path d="M28 19.1797C28 26.3597 22.18 32.1797 15 32.1797C7.82 32.1797 2 26.3597 2 19.1797C2 11.9997 7.82 6.17969 15 6.17969C22.18 6.17969 28 11.9997 28 19.1797Z" />
</g>
<defs>
<clipPath id="clip0_591_1609">
<rect width="36" height="36" fill="white"/>
</clipPath>
</defs>
</svg>
