<svg width="28" height="28" viewBox="0 0 28 28" fill="none" xmlns="http://www.w3.org/2000/svg">
<path d="M19.1153 23.2816C19.1136 23.2816 19.1127 23.2816 19.1109 23.2816C17.5929 23.2816 16.3621 22.0508 16.3621 20.5327V19.916H11.6485V20.5327C11.6485 22.0508 10.4177 23.2816 8.89963 23.2816C8.89787 23.2816 8.89523 23.2816 8.89523 23.2816C7.62564 23.2816 6.5957 24.3115 6.5957 25.5811C6.5957 25.5829 6.5957 25.5855 6.5957 25.5855V25.6428C6.5957 26.9441 7.65119 27.9996 8.9525 27.9996H19.0581C20.3594 27.9996 21.4149 26.9441 21.4149 25.6428V25.5855C21.4149 25.5855 21.4149 25.5829 21.4149 25.5811C21.4149 24.3115 20.3849 23.2816 19.1153 23.2816Z" fill="currentColor"/>
<path d="M25.7979 6.44043H24.9742L25.3354 1.61672C25.338 1.58236 25.3398 1.54271 25.3398 1.50218C25.3398 0.672237 24.6676 0 23.8376 0H4.1727C3.34276 0 2.67052 0.672237 2.67052 1.50218C2.67052 1.54271 2.67228 1.58236 2.67492 1.622V1.61672L2.9921 6.10123H2.21238C0.995654 6.10123 0.00976562 7.08712 0.00976562 8.30384V13.0218C0.00976562 15.1531 1.73749 16.8808 3.86874 16.8808C3.8705 16.8808 3.87138 16.8808 3.87314 16.8808C4.42997 16.8808 4.88194 16.4288 4.88194 15.872C4.88194 15.3152 4.42997 14.8632 3.87314 14.8632C2.86259 14.8579 2.04498 14.0377 2.04498 13.0262C2.04498 13.0245 2.04498 13.0218 2.04498 13.0218V8.29063C2.04498 8.19812 2.11987 8.12323 2.21238 8.12323H3.17712C3.74187 13.6527 8.37352 17.9301 14.0052 17.9301C19.5161 17.9301 24.0702 13.8333 24.7874 8.51882L24.7935 8.46243H25.7979C25.7997 8.46243 25.8006 8.46243 25.8023 8.46243C25.8922 8.46243 25.9653 8.53556 25.9653 8.62542V13.3654C25.9653 14.376 25.1477 15.1954 24.1372 15.198C24.1169 15.1963 24.094 15.1954 24.0702 15.1954C23.5107 15.1954 23.057 15.6491 23.057 16.2086C23.057 16.768 23.5107 17.2218 24.0702 17.2218C24.094 17.2218 24.1169 17.2209 24.1398 17.2191H24.1363C26.264 17.2165 27.9882 15.4923 27.9909 13.3646V8.61573C27.9759 7.41399 27.0006 6.44484 25.7979 6.43955H25.7971L25.7979 6.44043ZM18.4104 7.7664L16.939 9.1981C16.8157 9.31792 16.7382 9.4862 16.7382 9.6721C16.7382 9.71439 16.7426 9.75668 16.7496 9.79721L16.7487 9.79281L17.0879 11.8104C17.095 11.8456 17.0985 11.887 17.0985 11.9285C17.0985 12.2985 16.7989 12.5981 16.4289 12.5981C16.3135 12.5981 16.2051 12.569 16.1108 12.5179L16.1144 12.5196L14.317 11.5681C14.2263 11.5179 14.1188 11.4888 14.0043 11.4888C13.8897 11.4888 13.7822 11.5179 13.688 11.5699L13.6915 11.5681L11.8766 12.5196C11.7902 12.5628 11.6889 12.5884 11.5814 12.5884C11.2114 12.5884 10.9118 12.2888 10.9118 11.9188C10.9118 11.8809 10.9153 11.843 10.9215 11.8069L10.9206 11.8104L11.2642 9.79281C11.2713 9.75668 11.2757 9.71527 11.2757 9.6721C11.2757 9.4862 11.199 9.31792 11.0757 9.1981L9.59993 7.7664C9.47659 7.64394 9.39994 7.47478 9.39994 7.288C9.39994 6.95144 9.64751 6.67215 9.96997 6.62193L9.9735 6.62105L11.9999 6.3259C12.2158 6.29242 12.3946 6.15938 12.4915 5.977L12.4933 5.97348L13.4008 4.1365C13.5135 3.91272 13.7417 3.76294 14.0043 3.76294C14.2668 3.76294 14.495 3.9136 14.606 4.13298L14.6078 4.1365L15.5153 5.97348C15.6122 6.16995 15.7981 6.31004 16.0183 6.34352H16.0219L18.0483 6.63867C18.3628 6.70034 18.5963 6.97346 18.5963 7.30121C18.5963 7.48183 18.5249 7.6457 18.4095 7.76729L18.4104 7.7664Z" fill="currentColor"/>
</svg>
