<svg width="36" height="36" viewBox="0 0 36 36" xmlns="http://www.w3.org/2000/svg">
<path d="M6.721 32.1214L6.161 33.7484C6.105 33.8974 5.964 34.0024 5.798 34.0024C5.675 34.0024 5.566 33.9454 5.495 33.8564L5.494 33.8554L4.427 32.4424C4.361 32.3534 4.256 32.2954 4.137 32.2954C4.137 32.2954 4.135 32.2954 4.133 32.2954H2.373C2.167 32.2954 2 32.1284 2 31.9224C2 31.8424 2.025 31.7684 2.068 31.7074L2.067 31.7084L3.08 30.2554C3.102 30.2084 3.115 30.1534 3.115 30.0954C3.115 30.0374 3.102 29.9824 3.079 29.9334L3.08 29.9354L2.613 28.2024C2.602 28.1684 2.595 28.1284 2.595 28.0874C2.595 27.8814 2.762 27.7144 2.968 27.7144C3.013 27.7144 3.056 27.7224 3.095 27.7364L3.092 27.7354L4.772 28.2424C4.821 28.2644 4.878 28.2774 4.939 28.2774C5 28.2774 5.057 28.2644 5.108 28.2414L5.105 28.2424L6.558 27.2294C6.617 27.1874 6.691 27.1624 6.771 27.1624C6.977 27.1624 7.144 27.3294 7.144 27.5354V29.2954V29.2984C7.144 29.4174 7.201 29.5224 7.29 29.5874L7.291 29.5884L8.704 30.6684C8.816 30.7344 8.891 30.8544 8.891 30.9914C8.891 31.1444 8.799 31.2764 8.667 31.3334L8.665 31.3344L7.025 31.9074C6.894 31.9324 6.785 32.0104 6.719 32.1184L6.718 32.1204L6.721 32.1214ZM32.121 6.78741L33.748 6.22741C33.897 6.17141 34.002 6.03041 34.002 5.86441C34.002 5.74141 33.945 5.63241 33.856 5.56141L33.855 5.56041L32.442 4.49341C32.353 4.42741 32.295 4.32241 32.295 4.20341C32.295 4.20341 32.295 4.20141 32.295 4.19941V2.43941C32.295 2.23341 32.128 2.06641 31.922 2.06641C31.842 2.06641 31.768 2.09141 31.707 2.13441L31.708 2.13341L30.215 3.08041C30.168 3.10241 30.113 3.11541 30.055 3.11541C29.997 3.11541 29.942 3.10241 29.893 3.07941L29.895 3.08041L28.202 2.61341C28.168 2.60241 28.128 2.59541 28.087 2.59541C27.881 2.59541 27.714 2.76241 27.714 2.96841C27.714 3.01341 27.722 3.05641 27.736 3.09541L27.735 3.09241L28.242 4.77241C28.264 4.82141 28.277 4.87841 28.277 4.93941C28.277 5.00041 28.264 5.05741 28.241 5.10841L28.242 5.10541L27.229 6.55841C27.187 6.61741 27.162 6.69141 27.162 6.77141C27.162 6.97741 27.329 7.14441 27.535 7.14441H29.295H29.298C29.417 7.14441 29.522 7.20141 29.587 7.29041L29.588 7.29141L30.668 8.70441C30.734 8.81641 30.854 8.89141 30.991 8.89141C31.144 8.89141 31.276 8.79941 31.333 8.66741L31.334 8.66541L31.907 7.02541C31.932 6.89441 32.01 6.78541 32.118 6.71941L32.12 6.71841L32.121 6.78741Z" />
<path d="M15.335 2.374L2.37495 15.334C2.14395 14.135 2.00795 12.752 2.00195 11.339V11.334C2.00595 8.497 2.53395 5.785 3.49395 3.286L3.44195 3.44C5.78595 2.532 8.49795 2.004 11.334 2H11.336C12.754 2.006 14.137 2.142 15.477 2.396L15.335 2.374ZM33.642 20.667L20.669 33.64C21.87 33.866 23.253 33.997 24.666 34H24.669C27.506 33.996 30.218 33.468 32.717 32.508L32.563 32.56C33.471 30.216 33.999 27.504 34.003 24.668V24.666C34 23.25 33.869 21.867 33.621 20.525L33.643 20.666L33.642 20.667ZM32.669 17.014L17.016 32.667C10.625 30.328 5.67495 25.378 3.38695 19.144L3.33595 18.987L18.989 3.334C25.38 5.673 30.33 10.623 32.618 16.857L32.669 17.014ZM25.095 18.481C24.852 18.229 24.512 18.073 24.135 18.073C23.758 18.073 23.418 18.229 23.175 18.481L22.255 19.401L20.388 17.548L21.321 16.615C21.561 16.367 21.709 16.028 21.709 15.655C21.709 14.892 21.091 14.274 20.328 14.274C19.938 14.274 19.586 14.435 19.335 14.695L18.401 15.629L16.668 13.762L17.588 12.842C17.835 12.597 17.988 12.257 17.988 11.882C17.988 11.135 17.382 10.529 16.635 10.529C16.263 10.529 15.926 10.679 15.682 10.922L10.922 15.615C10.679 15.86 10.529 16.196 10.529 16.568C10.529 17.315 11.135 17.921 11.882 17.921C12.257 17.921 12.597 17.768 12.842 17.521L13.762 16.668L15.629 18.521L14.709 19.454C14.483 19.694 14.345 20.018 14.345 20.374C14.345 21.116 14.947 21.718 15.689 21.718C16.075 21.718 16.423 21.555 16.668 21.295L16.669 21.294L17.602 20.374L19.455 22.241L18.535 23.161C18.288 23.406 18.135 23.746 18.135 24.121C18.135 24.868 18.741 25.474 19.488 25.474C19.86 25.474 20.197 25.324 20.441 25.081L25.134 20.388C25.366 20.148 25.509 19.821 25.509 19.461C25.509 19.074 25.344 18.726 25.081 18.482L25.08 18.481H25.095Z" />
</svg>
