<svg width="36" height="36" viewBox="0 0 36 36" xmlns="http://www.w3.org/2000/svg">
<path d="M23.6846 28.4255C23.6826 28.4255 23.6816 28.4255 23.6796 28.4255C21.9566 28.4255 20.5596 27.0285 20.5596 25.3055V24.6055H15.2096V25.3055C15.2096 27.0285 13.8126 28.4255 12.0896 28.4255C12.0876 28.4255 12.0846 28.4255 12.0846 28.4255C10.6436 28.4255 9.47461 29.5945 9.47461 31.0355C9.47461 31.0375 9.47461 31.0405 9.47461 31.0405V31.1055C9.47461 32.5825 10.6726 33.7805 12.1496 33.7805H23.6196C25.0966 33.7805 26.2946 32.5825 26.2946 31.1055V31.0405C26.2946 31.0405 26.2946 31.0375 26.2946 31.0355C26.2946 29.5945 25.1256 28.4255 23.6846 28.4255Z" />
<path d="M31.27 9.31H30.335L30.745 3.835C30.748 3.796 30.75 3.751 30.75 3.705C30.75 2.763 29.987 2 29.045 2H6.725C5.783 2 5.02 2.763 5.02 3.705C5.02 3.751 5.022 3.796 5.025 3.841V3.835L5.385 8.925H4.5C3.119 8.925 2 10.044 2 11.425V16.78C2 19.199 3.961 21.16 6.38 21.16C6.382 21.16 6.383 21.16 6.385 21.16C7.017 21.16 7.53 20.647 7.53 20.015C7.53 19.383 7.017 18.87 6.385 18.87C5.238 18.864 4.31 17.933 4.31 16.785C4.31 16.783 4.31 16.78 4.31 16.78V11.41C4.31 11.305 4.395 11.22 4.5 11.22H5.595C6.236 17.496 11.493 22.351 17.885 22.351C24.14 22.351 29.309 17.701 30.123 11.669L30.13 11.605H31.27C31.272 11.605 31.273 11.605 31.275 11.605C31.377 11.605 31.46 11.688 31.46 11.79V17.17C31.46 18.317 30.532 19.247 29.385 19.25C29.362 19.248 29.336 19.247 29.309 19.247C28.674 19.247 28.159 19.762 28.159 20.397C28.159 21.032 28.674 21.547 29.309 21.547C29.336 21.547 29.362 21.546 29.388 21.544H29.384C31.799 21.541 33.756 19.584 33.759 17.169V11.779C33.742 10.415 32.635 9.315 31.27 9.309H31.269L31.27 9.31ZM22.885 10.815L21.215 12.44C21.075 12.576 20.987 12.767 20.987 12.978C20.987 13.026 20.992 13.074 21 13.12L20.999 13.115L21.384 15.405C21.392 15.445 21.396 15.492 21.396 15.539C21.396 15.959 21.056 16.299 20.636 16.299C20.505 16.299 20.382 16.266 20.275 16.208L20.279 16.21L18.239 15.13C18.136 15.073 18.014 15.04 17.884 15.04C17.754 15.04 17.632 15.073 17.525 15.132L17.529 15.13L15.469 16.21C15.371 16.259 15.256 16.288 15.134 16.288C14.714 16.288 14.374 15.948 14.374 15.528C14.374 15.485 14.378 15.442 14.385 15.401L14.384 15.405L14.774 13.115C14.782 13.074 14.787 13.027 14.787 12.978C14.787 12.767 14.7 12.576 14.56 12.44L12.885 10.815C12.745 10.676 12.658 10.484 12.658 10.272C12.658 9.89 12.939 9.573 13.305 9.516L13.309 9.515L15.609 9.18C15.854 9.142 16.057 8.991 16.167 8.784L16.169 8.78L17.199 6.695C17.327 6.441 17.586 6.271 17.884 6.271C18.182 6.271 18.441 6.442 18.567 6.691L18.569 6.695L19.599 8.78C19.709 9.003 19.92 9.162 20.17 9.2H20.174L22.474 9.535C22.831 9.605 23.096 9.915 23.096 10.287C23.096 10.492 23.015 10.678 22.884 10.816L22.885 10.815Z" />
</svg>
