<svg width="28" height="28" viewBox="0 0 28 28" fill="none" xmlns="http://www.w3.org/2000/svg">
<path d="M23.7885 5.31477V7.56672C16.7956 9.27325 10.6009 9.2313 4.20898 7.45449V5.27281C4.20898 4.33616 4.96418 3.44041 5.59351 2.85304C5.95747 2.55935 6.33507 2.30762 6.69798 2.06953L6.83748 1.97198C7.11754 1.80416 7.36927 1.66466 7.621 1.52411C7.621 1.52411 7.74687 1.45383 7.81714 1.41188C7.92937 1.35629 8.02692 1.28601 8.13915 1.24405C8.29333 1.17378 8.44647 1.10455 8.60066 1.03428C8.67093 1.00596 8.74016 0.978687 8.7968 0.950368C8.97825 0.866457 9.16076 0.796182 9.34222 0.726955C9.42613 0.698635 9.51004 0.671365 9.58031 0.643045C9.7345 0.587454 9.874 0.545499 10.0135 0.503543C10.0555 0.489908 10.1813 0.461588 10.1813 0.461588H10.2096C11.8742 -0.0135556 13.2021 3.98337e-05 13.8734 3.98337e-05C13.9153 3.98337e-05 13.9437 3.98337e-05 13.9709 3.98337e-05C14.9359 3.98337e-05 15.9565 0.0283994 16.9781 0.238176C17.1742 0.280131 17.3976 0.350407 17.621 0.405997H17.7186C17.8308 0.434317 17.9567 0.489908 18.0826 0.531863L18.2221 0.573819C18.6133 0.71332 19.0056 0.867506 19.4251 1.07728C19.4388 1.09092 19.4534 1.09092 19.4534 1.09092C20.3765 1.52411 21.3414 2.09785 22.3347 2.88136H22.3484C22.9641 3.4551 23.7329 4.37812 23.7329 5.30113L23.7885 5.31477ZM18.1392 21.0197L23.7895 15.1459V9.97181C20.3775 10.769 17.1186 11.1749 13.9583 11.1749C10.7981 11.1749 7.46891 10.727 4.21108 9.8879V15.1606L9.86141 21.0344L4.25304 20.6012C4.28136 20.9232 4.35058 21.2169 4.42086 21.4822C4.42086 21.5242 4.44918 21.5662 4.46281 21.5945C4.46281 21.6081 4.47645 21.6364 4.49113 21.6501C4.58868 21.9721 4.71455 22.293 4.88237 22.6014C4.96628 22.7829 5.06382 22.9654 5.17605 23.1332C5.2736 23.2874 5.3722 23.4269 5.48338 23.5811C7.31577 26.2526 10.882 28 14.0286 28C15.3156 28 16.6854 27.6927 17.9724 27.1609H17.9861C18.0836 27.1326 18.1822 27.077 18.2797 27.035C18.4192 26.9794 18.5734 26.9092 18.7129 26.8389C19.0486 26.6711 19.3842 26.4749 19.7062 26.2798C19.8457 26.1823 19.9999 26.0984 20.1258 25.9998C20.4058 25.8183 20.6576 25.6222 20.8946 25.4124C21.0341 25.2865 21.1883 25.1607 21.3142 25.0348C21.5376 24.8114 21.7474 24.6016 21.9571 24.3635C22.0966 24.1957 22.2508 24.0279 22.3767 23.8317C22.5581 23.58 22.726 23.3283 22.8801 23.0765C22.9221 23.0063 22.9641 22.937 23.006 22.8531C23.048 22.7829 23.0899 22.6989 23.1319 22.6297C23.3133 22.2658 23.4675 21.9028 23.5797 21.5106V21.4686C23.6637 21.2032 23.7056 20.9096 23.7476 20.6012L18.1675 21.0344L18.1392 21.0197Z" fill="currentColor"/>
</svg>
