<svg width="36" height="36" viewBox="0 0 36 36" xmlns="http://www.w3.org/2000/svg">
<path d="M23.6006 4.06874C23.4676 4.06874 23.3336 4.06874 23.2006 4.06874L18.6676 5.66874L14.1346 4.06874C13.3346 3.80174 12.4016 4.33574 12.2676 5.26874C12.2676 5.40174 12.2676 5.53574 12.2676 5.66874V8.60174C12.2676 9.53474 13.0676 10.2017 13.8676 10.2017C14.0006 10.2017 14.1346 10.2017 14.2676 10.2017L18.6676 8.20174L23.2006 10.2017C24.1336 10.4687 24.9336 9.93474 25.2006 9.00174C25.2006 8.86874 25.2006 8.73474 25.2006 8.60174V5.66874C25.2006 4.73574 24.4006 4.06874 23.6006 4.06874Z" />
<path d="M16.4 29.2684L10.4 9.26837C10 8.46837 9.2 8.06837 8.267 8.33537L6.267 9.00237C5.6 9.13537 5.2 9.80237 5.2 10.4694L4 29.6694C4 30.6024 4.667 31.2694 5.467 31.4024C5.467 31.4024 5.467 31.4024 5.6 31.4024H14.8C15.733 31.4024 16.4 30.7354 16.4 29.8024C16.533 29.6694 16.4 29.4024 16.4 29.2694V29.2684Z" />
<path d="M32.1345 10.4686C32.1345 9.80158 31.7345 9.26858 31.0675 9.00158L29.0675 8.20158C28.2675 7.93458 27.3345 8.33458 27.0675 9.13458L21.0675 29.1346C20.8005 29.9346 21.3345 30.8676 22.1345 31.1346C22.2675 31.1346 22.4015 31.2676 22.6675 31.2676H31.8675C32.8005 31.2676 33.4675 30.6006 33.4675 29.6676L32.1345 10.4686Z" />
</svg>
