<svg width="36" height="36" viewBox="0 0 36 36" xmlns="http://www.w3.org/2000/svg">
<path d="M33.6585 11.526L30.8835 8.751C30.2925 9.342 29.4755 9.708 28.5735 9.708C26.7695 9.708 25.3065 8.245 25.3065 6.441C25.3065 5.539 25.6725 4.722 26.2635 4.131L23.5135 1.356C23.2955 1.136 22.9925 1 22.6585 1C22.3245 1 22.0215 1.136 21.8035 1.356L17.3535 5.781L29.2335 17.661L33.6585 13.236C33.8785 13.018 34.0145 12.715 34.0145 12.381C34.0145 12.047 33.8785 11.744 33.6585 11.526Z" />
<path d="M15.704 7.43066L2.369 20.7657C2.142 20.9857 2 21.2927 2 21.6327C2 21.9727 2.141 22.2807 2.368 22.4997L5.143 25.2497C5.734 24.6587 6.551 24.2927 7.453 24.2927C9.257 24.2927 10.72 25.7557 10.72 27.5597C10.72 28.4617 10.354 29.2787 9.763 29.8697L12.538 32.6447C12.756 32.8647 13.059 33.0007 13.393 33.0007C13.727 33.0007 14.03 32.8647 14.248 32.6447L27.583 19.3097L15.704 7.43066Z" />
</svg>
