<svg width="28" height="28" viewBox="0 0 28 28" fill="none" xmlns="http://www.w3.org/2000/svg">
<path d="M25.0633 5.9707H21.2015C21.5758 5.38271 21.7978 4.66722 21.7978 3.89852C21.7978 1.74562 20.0521 0 17.8992 0C15.7463 0 14.0007 1.74562 14.0007 3.89852C14.0007 1.74562 12.2551 0 10.1022 0C7.9493 0 6.20368 1.74562 6.20368 3.89852C6.20368 4.6663 6.42567 5.38271 6.8091 5.98629L6.79992 5.9707H2.9381C2.20885 5.9707 1.61719 6.56235 1.61719 7.29161V10.1536C1.61719 10.8828 2.20885 11.4745 2.9381 11.4745H25.0633C25.7926 11.4745 26.3842 10.8828 26.3842 10.1536V7.29161C26.3842 6.56235 25.7926 5.9707 25.0633 5.9707ZM16.294 3.90677C16.294 3.02066 17.0131 2.3015 17.8992 2.3015C18.7853 2.3015 19.5045 3.02066 19.5045 3.90677C19.5045 4.79289 18.7853 5.51205 17.8992 5.51205H16.294V3.90677ZM10.1022 2.3015C10.9883 2.3015 11.7075 3.02066 11.7075 3.90677V5.51205H10.1022C9.21609 5.51205 8.49693 4.79289 8.49693 3.90677C8.49693 3.02066 9.21609 2.3015 10.1022 2.3015Z" fill="currentColor"/>
<path d="M3.45117 26.3807C3.45117 27.275 4.17584 27.9997 5.0702 27.9997H11.7069V14.2402H3.45117V26.3807Z" fill="currentColor"/>
<path d="M16.2949 27.986H22.9316C23.8214 27.986 24.5424 27.2687 24.5506 26.3817V14.2266H16.2949V27.986Z" fill="currentColor"/>
</svg>
