<svg width="36" height="36" viewBox="0 0 36 36" fill="none" xmlns="http://www.w3.org/2000/svg">
<g clip-path="url(#clip0_689_4677)">
<path d="M24.6666 12.667C22.9336 12.667 21.3336 13.2 19.9996 14C19.7326 14.267 19.4666 14.4 19.1996 14.667C19.0666 14.8 18.9326 14.8 18.7996 14.934C18.3996 15.201 18.1326 15.601 17.8666 15.867C17.7336 16 17.5996 16.267 17.3336 16.4C17.2006 16.533 17.0666 16.8 16.9336 16.933C16.8006 17.2 16.5336 17.466 16.4006 17.866C16.4006 17.999 16.2676 18.133 16.2676 18.266C16.1346 18.666 16.0006 19.199 15.8676 19.733C15.8676 19.866 15.8676 20 15.7346 20.133C15.6016 20.666 15.6016 21.2 15.6016 21.733C15.6016 22 15.6016 22.4 15.7346 22.666C16.2676 27.199 20.0016 30.799 24.6676 30.799C29.6006 30.799 33.7346 26.799 33.7346 21.732C33.7346 16.799 29.7346 12.665 24.6676 12.665L24.6666 12.667Z" fill="#B1BAD3"/>
<path d="M18.667 10.267C17.067 7.734 14.267 6 11.067 6C6.134 6 2 10 2 15.067C2 20.134 6 24.134 11.067 24.134C11.334 24.134 11.6 24.134 11.867 24.001C11.734 23.334 11.6 22.534 11.6 21.734C11.6 16.801 14.533 12.401 18.667 10.267Z" fill="#B1BAD3"/>
</g>
<defs>
<clipPath id="clip0_689_4677">
<rect width="36" height="36" fill="white"/>
</clipPath>
</defs>
</svg>
