<svg fill="currentColor" viewBox="0 0 64 64" class="svg-icon" style=""> <title></title> <path d="M28.651 60.5H11.883c-1.85 0-3.347-1.5-3.347-3.348V37.036c-1.85 0-3.348-1.5-3.348-3.348v-6.722c0-1.85 1.5-3.348 3.348-3.348h20.116V60.5Zm26.813-36.884H35.347V60.5h16.768c1.85 0 3.349-1.5 3.349-3.348V37.036c1.85 0 3.348-1.5 3.348-3.348v-6.722c0-1.85-1.5-3.348-3.348-3.348v-.002ZM45.416 3.5C38.005 3.5 32 9.508 32 16.918h13.418c1.85 0 3.349-1.5 3.349-3.348V6.848c0-1.85-1.5-3.348-3.349-3.348Zm-26.836 0c-1.85 0-3.348 1.5-3.348 3.348v6.722c0 1.85 1.5 3.348 3.348 3.348H32C32 9.506 25.99 3.5 18.58 3.5Z"></path></svg>
