<svg width="28" height="28" viewBox="0 0 28 28" fill="none" xmlns="http://www.w3.org/2000/svg">
<path d="M4.27142 3.93351C6.78673 1.49956 10.2181 0 14.0002 0C17.0151 0 19.8077 0.952756 22.0921 2.5748L22.0483 2.54593C21.8847 2.93088 21.722 3.30446 21.5348 3.71216C21.3475 4.11986 21.2548 4.26072 21.0912 4.54068C18.3922 3.50219 15.2688 2.90026 12.0055 2.90026C11.6607 2.90026 11.3169 2.90726 10.9757 2.92038L11.0247 2.91863C8.56188 3.05162 6.2513 3.41382 4.0247 3.98688L4.27142 3.93351ZM1.57676 7.53806C4.39303 6.53281 7.65287 5.85389 11.0387 5.64217L11.1419 5.63692C11.4753 5.6203 11.8646 5.61067 12.2574 5.61067C14.8926 5.61067 17.4245 6.04724 19.7876 6.85214L19.6231 6.80315C19.2268 7.3867 18.7832 7.96938 18.3169 8.5643C16.4 8.19597 14.1962 7.98513 11.9433 7.98513C10.68 7.98513 9.43152 8.05162 8.2023 8.18023L8.35541 8.1671C5.49539 8.46282 2.88122 9.03849 0.38603 9.87576L0.644998 9.80052C0.924088 8.92213 1.23992 8.17323 1.61525 7.45932L1.57763 7.53718L1.57676 7.53806ZM27.9985 15.0621C27.239 15.8915 26.4473 16.6535 25.61 17.364L25.5724 17.3954C25.2338 16.6605 24.8611 15.937 24.4061 15.2143C25.5986 13.9912 26.6852 12.6527 27.6432 11.2213L27.7071 11.1199C27.8926 11.986 27.9985 12.9808 27.9985 14.0009C27.9985 14.3622 27.9985 14.7122 27.9985 15.0621ZM26.54 7.77165L26.4114 8.00525C25.393 9.85914 24.232 11.4593 22.8978 12.8968L22.9118 12.881C22.1656 11.9361 21.4656 10.9913 20.6485 10.0577C21.8523 8.55118 22.953 6.85827 23.8812 5.06124L23.9617 4.88976C24.0431 4.72616 24.1253 4.5748 24.1953 4.4112C25.1078 5.37883 25.8891 6.48469 26.5033 7.69029L26.54 7.77078V7.77165ZM24.6389 23.0997C23.2032 24.7752 21.4009 26.0936 19.3537 26.9388L19.2609 26.9729C18.5391 25.8871 17.8462 24.636 17.2539 23.329L17.1848 23.1584C15.5628 19.5757 14.2942 15.4121 13.5846 11.0604L13.5453 10.7699C15.281 10.881 16.8812 11.0919 18.4446 11.4033L18.2119 11.3648C20.3449 13.6448 22.1166 16.2983 23.4123 19.21L23.484 19.3911C23.9223 20.4278 24.3195 21.6675 24.61 22.9466L24.6389 23.0997ZM0.00195312 12.8924C0.946835 12.5424 1.89172 12.2388 2.82523 11.9711C2.95296 15.6973 3.70361 19.2108 4.97571 22.4637L4.90134 22.2485C5.42277 23.6833 5.92234 24.8381 6.47789 25.9598L6.38253 25.748C2.51814 23.2143 0.00195312 18.9029 0.00195312 14.0035C0.00195312 14.0026 0.00195312 14.0017 0.00195312 14.0009C0.00195312 13.6273 0.00195312 13.266 0.00195312 12.8924ZM10.7342 10.7113C11.533 15.7935 12.9162 20.3596 14.8375 24.6317L14.7001 24.2896C15.3335 25.6859 15.9442 26.8338 16.617 27.9405L16.5313 27.7892C15.8069 27.923 14.9731 28 14.1218 28C14.0789 28 14.0361 28 13.9932 27.9991H14.0002C12.7815 27.9965 11.5995 27.8434 10.4709 27.5573L10.5706 27.5783C9.38778 25.7769 8.35278 23.7087 7.56713 21.5206L7.50239 21.3141C6.32391 18.3482 5.62487 14.9134 5.589 11.3202V11.3053C6.61554 11.1029 7.63042 10.9513 8.63362 10.8504C9.33354 10.7804 10.0448 10.734 10.7797 10.7104L10.7342 10.7113Z" fill="currentColor"/>
</svg>
