<svg width="36" height="36" viewBox="0 0 36 36" xmlns="http://www.w3.org/2000/svg">
<path d="M5.03284 23.212C5.53284 16.817 12.4028 10.557 14.0028 8.212C15.3928 6.107 14.8628 3.607 14.4178 2.507C14.4068 2.472 14.3998 2.432 14.3998 2.39C14.3998 2.175 14.5748 2 14.7898 2C14.8158 2 14.8408 2.003 14.8648 2.007H14.8628C21.8128 3.467 22.1628 8.752 21.9528 11.117C21.7428 13.482 22.1628 15.077 23.6928 14.732C25.2228 14.387 24.7078 10.507 24.7078 10.507C24.7078 10.507 31.7328 18.852 29.1578 27.057C27.8628 31.347 24.6378 33.157 21.9278 34.007C21.7878 34.077 21.6478 33.937 21.6478 33.732C21.9978 32.412 22.9028 31.367 23.1778 29.907C23.7378 27.507 21.5128 25.297 19.8628 24.047C18.8308 23.278 18.1688 22.061 18.1688 20.689C18.1688 20.625 18.1698 20.561 18.1728 20.498V20.507C18.1728 20.367 17.9628 20.297 17.8978 20.367C16.8118 21.675 15.7208 22.854 14.5688 23.971L14.5578 23.982C11.9878 26.832 10.6628 30.032 12.9578 33.577C13.0278 33.717 12.8878 33.922 12.7528 33.857C7.04784 32.322 4.68784 28.007 5.03284 23.212Z" />
</svg>
