<svg width="36" height="36" viewBox="0 0 36 36" fill="none" xmlns="http://www.w3.org/2000/svg">
<path d="M16.973 28.3874L3 22.0674V26.2674C3 26.2674 3 26.2694 3 26.2714C3 26.9154 3.378 27.4714 3.924 27.7304L3.934 27.7344L16.974 33.7074C17.365 33.8904 17.824 33.9974 18.307 33.9974C18.79 33.9974 19.249 33.8904 19.66 33.6994L19.64 33.7074L32.68 27.7344C33.236 27.4714 33.613 26.9154 33.613 26.2714V26.2674V22.0674L19.64 28.3874C19.249 28.5744 18.791 28.6834 18.307 28.6834C17.823 28.6834 17.364 28.5744 16.955 28.3784L16.974 28.3864L16.973 28.3874Z" fill="#B1BAD3"/>
<path d="M3.50595 18.7471L16.839 24.8801C17.262 25.0761 17.757 25.1911 18.279 25.1911C18.801 25.1911 19.296 25.0771 19.741 24.8711L19.719 24.8801L33.052 18.7471C33.351 18.6061 33.555 18.3071 33.555 17.9601C33.555 17.6131 33.351 17.3141 33.057 17.1761L33.052 17.1741L19.905 11.1211V16.5741C19.905 17.4581 19.189 18.1741 18.305 18.1741C17.421 18.1741 16.705 17.4581 16.705 16.5741V11.1211L3.50495 17.1741C3.20595 17.3151 3.00195 17.6141 3.00195 17.9611C3.00195 18.3081 3.20595 18.6071 3.49995 18.7451L3.50595 18.7471Z" fill="#B1BAD3"/>
<path d="M22.358 6.013C22.358 8.229 20.561 10.026 18.345 10.026C16.129 10.026 14.332 8.229 14.332 6.013C14.332 3.797 16.129 2 18.345 2C20.561 2 22.358 3.797 22.358 6.013Z" fill="#B1BAD3"/>
</svg>
