<svg width="36" height="36" viewBox="0 0 36 36" xmlns="http://www.w3.org/2000/svg">
<path d="M18 3.008C17.856 3.003 17.686 3 17.515 3C9.127 3 2.293 9.653 2.001 17.97L2 17.997C2.011 21.705 3.425 25.081 5.738 27.625L5.728 27.613C5.384 29.627 4.783 31.431 3.952 33.1L4.003 32.986C6.32 32.788 8.442 32.121 10.33 31.081L10.248 31.122C12.485 32.297 15.135 32.986 17.947 32.986C17.966 32.986 17.985 32.986 18.003 32.986H18C18.15 32.991 18.327 32.994 18.504 32.994C26.888 32.994 33.718 26.339 33.999 18.023L34 17.997C33.707 9.653 26.873 3.001 18.485 3.001C18.314 3.001 18.145 3.004 17.976 3.009L18 3.008ZM10.069 20.852C8.427 20.852 7.095 19.521 7.095 17.878C7.095 16.235 8.427 14.904 10.069 14.904C11.711 14.904 13.043 16.236 13.043 17.878C13.043 19.52 11.711 20.852 10.069 20.852ZM18 20.852C16.358 20.852 15.026 19.521 15.026 17.878C15.026 16.235 16.358 14.904 18 14.904C19.642 14.904 20.974 16.236 20.974 17.878C20.974 19.52 19.643 20.852 18 20.852ZM25.931 20.852C24.289 20.852 22.957 19.521 22.957 17.878C22.957 16.235 24.288 14.904 25.931 14.904C27.573 14.904 28.905 16.236 28.905 17.878C28.905 19.52 27.574 20.852 25.931 20.852Z" />
</svg>
