<svg width="28" height="28" viewBox="0 0 28 28" fill="none" xmlns="http://www.w3.org/2000/svg">
<path d="M18.5292 2.8418H9.47225L8.50364 3.82528L7.44141 4.93389H20.5741L19.497 3.82528L18.5283 2.8418H18.5292Z" fill="currentColor"/>
<path d="M24.9318 9.38483V18.6299L18.5296 25.1573H9.47258L3.07031 18.6299V9.38483L5.00665 7.41699H22.9964L24.9327 9.38483H24.9318Z" fill="currentColor"/>
<path d="M27.9925 8.21421V19.8016L19.7939 28.0002H8.20642L0.0078125 19.8016V8.21421L0.788299 7.41797H3.00551L1.56879 8.85469V19.1611L8.84604 26.4384H19.1525L26.4297 19.1611V8.85469L25.0088 7.41797H27.2102L27.9907 8.21421H27.9925Z" fill="currentColor"/>
<path d="M8.86226 1.56185H19.153L22.526 4.93492H24.7432L19.8083 0H8.20603L3.20898 4.93492H5.4262L8.86139 1.56185H8.86226Z" fill="currentColor"/>
</svg>
