<svg width="28" height="28" viewBox="0 0 28 28" fill="none" xmlns="http://www.w3.org/2000/svg">
<path d="M17.5 0C15.1664 0 10.5 4.66638 10.5 10.5C10.5 10.5 9.33362 7 7 7C7 9.33362 3.5 12.25 3.5 17.5C3.5 23.2986 8.20138 28 14 28C19.7986 28 24.5 23.2986 24.5 17.5C24.5 8.16638 17.5 4.66638 17.5 0ZM20.475 18.7486L19.4836 22.4236C19.2334 23.338 18.41 23.9986 17.4326 23.9986H17.4309H8.89088V16.065L15.6109 9.85863C16.3467 10.2296 16.842 10.9786 16.842 11.844C16.842 12.299 16.7046 12.7225 16.4693 13.0751L16.4745 13.0673L14.4909 16.0659H18.4223C18.424 16.0659 18.4257 16.0659 18.4275 16.0659C19.6 16.0659 20.5511 17.0161 20.5511 18.1895C20.5511 18.389 20.524 18.5815 20.4724 18.7644L20.4759 18.7495L20.475 18.7486Z" fill="currentColor"/>
</svg>
