<svg width="36" height="36" viewBox="0 0 36 36" xmlns="http://www.w3.org/2000/svg">
<path d="M20.9326 17.24C19.7636 19.446 19.0736 22.062 19.0656 24.838V26.507H12.7726C12.7866 23.754 13.3996 21.147 14.4866 18.806L14.4386 18.92C15.6676 16.227 17.1716 13.908 18.9626 11.844L18.9326 11.88H9.59961V7H25.9996V9.587C24.1496 11.823 22.4686 14.331 21.0496 16.999L20.9326 17.24Z" />
<path d="M29.733 22.6536C28.769 23.8666 28.068 25.3326 27.744 26.9346L27.733 26.9996L27.533 27.9996L22 26.9866C22.602 23.9716 24.2 21.4026 26.431 19.5776L26.454 19.5596L22.454 18.7726L24.134 15.2256L34.001 17.1726L33.694 18.7196C32.234 19.9156 30.937 21.2046 29.772 22.6066L29.733 22.6536Z" />
<path d="M10.227 20.9741C10.043 21.6931 9.937 22.5181 9.937 23.3671C9.937 24.2161 10.043 25.0421 10.242 25.8301L10.227 25.7611L10.467 26.7611L5.04 28.0941C4.809 27.1901 4.676 26.1521 4.676 25.0831C4.676 23.0321 5.165 21.0941 6.033 19.3821L6 19.4541L2 20.4011V16.5081L11.787 14.1611L12.16 15.6941C11.399 17.1991 10.738 18.9561 10.267 20.7901L10.227 20.9741Z" />
</svg>
