<svg width="36" height="36" viewBox="0 0 36 36" xmlns="http://www.w3.org/2000/svg">
<path d="M22 2C19.333 2 14 7.333 14 14C14 14 12.667 10 10 10C10 12.667 6 16 6 22C6 28.627 11.373 34 18 34C24.627 34 30 28.627 30 22C30 11.333 22 7.333 22 2ZM25.4 23.427L24.267 27.627C23.981 28.672 23.04 29.427 21.923 29.427H21.921H12.161V20.36L19.841 13.267C20.682 13.691 21.248 14.547 21.248 15.536C21.248 16.056 21.091 16.54 20.822 16.943L20.828 16.934L18.561 20.361H23.054C23.056 20.361 23.058 20.361 23.06 20.361C24.4 20.361 25.487 21.447 25.487 22.788C25.487 23.016 25.456 23.236 25.397 23.445L25.401 23.428L25.4 23.427Z" />
</svg>
