<svg width="28" height="28" viewBox="0 0 28 28" fill="none" xmlns="http://www.w3.org/2000/svg">
<path d="M28 14C28 21.7324 21.7324 28 14 28C6.26762 28 0 21.7324 0 14C0 6.26762 6.26762 0 14 0C21.7324 0 28 6.26762 28 14Z" fill="#0F76F8"/>
<path d="M14.001 26.9498L2.77734 20.4748V7.5248L14.001 1.0498L25.2246 7.5248V20.4862L14.001 26.9612V26.9498ZM3.72234 19.9384L14.001 25.8771L24.2796 19.9384V8.06205L14.001 2.13568L3.72234 8.06205V19.9271V19.9384Z" fill="white"/>
<path d="M18.1882 6.9541H9.75322L8.77322 11.2591H19.2268L18.1882 6.9541ZM11.246 17.1619V14.3032L8.73734 12.7282L5.90234 14.8282L9.76372 21.5482H11.3151L13.1351 19.8332V18.9932L11.2337 17.1732L11.246 17.1619Z" fill="white"/>
<path d="M16.7201 11.8994H11.2715L12.1701 14.2908L11.9015 16.9858H16.0901L15.8215 14.2908L16.7201 11.8994Z" fill="white"/>
<path d="M19.2253 12.6934L16.7517 14.3034V17.162L14.873 18.982V19.822L16.693 21.5134H18.2217L22.0603 14.817L19.2253 12.6934Z" fill="white"/>
</svg>
