<svg width="28" height="28" viewBox="0 0 28 28" fill="none" xmlns="http://www.w3.org/2000/svg">
<path d="M28 14C28 21.7318 21.7318 28 14 28C6.26821 28 0 21.7318 0 14C0 6.26821 6.26821 0 14 0C21.7318 0 28 6.26821 28 14Z" fill="#5E5E5E"/>
<path d="M20.3498 21.6561L18.1575 19.4902L16.1581 17.5083C15.568 16.9147 14.7507 16.5472 13.8475 16.5472C12.9442 16.5472 12.127 16.9147 11.5368 17.5083L7.3495 21.6561H4.71875L5.10021 21.2615L6.41559 19.9462L9.4278 16.9646C9.78734 16.6095 10.1381 16.2412 10.5196 15.9123C11.2378 15.2739 12.155 14.8442 13.167 14.7259L13.1898 14.7241C13.3967 14.6943 13.6361 14.6768 13.879 14.6768C15.1532 14.6768 16.316 15.1503 17.2034 15.9308L17.1982 15.9255C17.5095 16.1929 17.7857 16.4911 18.0751 16.7761L21.6485 20.3101L22.9069 21.5597C22.9306 21.5807 22.9508 21.6053 22.9674 21.6325L22.9683 21.6342L20.3498 21.6561Z" fill="white"/>
<path d="M7.392 6.51511L8.88276 7.9971C9.56675 8.67233 10.242 9.34755 10.926 10.0184C11.2206 10.3236 11.5284 10.6103 11.8502 10.8804L11.8687 10.8953C12.4115 11.3215 13.1042 11.5784 13.8575 11.5784C14.7528 11.5784 15.5622 11.2154 16.148 10.6279C17.1039 9.67201 18.0685 8.72494 19.0331 7.7691L20.3134 6.51511H22.9441L22.646 6.8308L19.853 9.58432L17.4239 11.9871C16.6821 12.7254 15.7061 13.2288 14.6169 13.3744L14.5915 13.377C14.3582 13.4156 14.0899 13.4375 13.8172 13.4375C12.4825 13.4375 11.2715 12.9131 10.3761 12.0599L10.3779 12.0616C9.89121 11.6232 9.43521 11.1409 8.96606 10.6761L4.82701 6.57649C4.80509 6.55457 4.78755 6.52826 4.76562 6.50195L7.392 6.51511Z" fill="white"/>
</svg>
