<svg width="36" height="36" viewBox="0 0 36 36" xmlns="http://www.w3.org/2000/svg">
<path d="M34 18C34 26.837 26.837 34 18 34C9.163 34 2 26.837 2 18C2 9.163 9.163 2 18 2C26.837 2 34 9.163 34 18Z" fill="#627EEA"/>
<path opacity="0.6" d="M18.5 6V14.87L26 18.22L18.5 6Z" fill="white"/>
<path d="M18.5 6L11 18.22L18.5 14.87V6Z" fill="white"/>
<path opacity="0.6" d="M18.5 23.9702V30.0002L26 19.6152L18.5 23.9702Z" fill="white"/>
<path d="M18.5 30.0002V23.9652L11 19.6152L18.5 30.0002Z" fill="white"/>
<path opacity="0.2" d="M18.5 22.5751L26 18.2201L18.5 14.8701V22.5751Z" fill="white"/>
<path opacity="0.6" d="M11 18.2201L18.5 22.5751V14.8701L11 18.2201Z" fill="white"/>
</svg>
