<svg width="28" height="28" viewBox="0 0 28 28" fill="none" xmlns="http://www.w3.org/2000/svg">
<path d="M28 14C28 21.7324 21.7324 28 14 28C6.26762 28 0 21.7324 0 14C0 6.26762 6.26762 0 14 0C21.7324 0 28 6.26762 28 14Z" fill="#914FFF"/>
<path d="M19.4722 10.6339C19.1109 10.4239 18.6436 10.4239 18.2236 10.6339L15.3072 12.3489L13.3236 13.4452L10.465 15.1603C10.1036 15.3703 9.63637 15.3703 9.21637 15.1603L6.97637 13.8066C6.615 13.5966 6.34638 13.1766 6.34638 12.7102V10.1089C6.34638 9.68888 6.55637 9.28025 6.97637 9.0125L9.21637 7.70613C9.57775 7.49612 10.045 7.49612 10.465 7.70613L12.705 9.05975C13.0664 9.26975 13.335 9.68975 13.335 10.1561V11.8711L15.3186 10.7275V8.95387C15.3186 8.53387 15.1086 8.12525 14.6886 7.8575L10.5236 5.4075C10.1623 5.1975 9.695 5.1975 9.275 5.4075L5.005 7.90387C4.585 8.11387 4.375 8.53387 4.375 8.9425V13.8311C4.375 14.2511 4.585 14.6597 5.005 14.9275L9.21637 17.3775C9.57775 17.5875 10.045 17.5875 10.465 17.3775L13.3236 15.7089L15.3072 14.5653L18.1659 12.8966C18.5272 12.6866 18.9945 12.6866 19.4145 12.8966L21.6545 14.203C22.0159 14.413 22.2845 14.833 22.2845 15.2994V17.9008C22.2845 18.3208 22.0745 18.7294 21.6545 18.9971L19.4731 20.3035C19.1117 20.5135 18.6445 20.5135 18.2245 20.3035L15.9845 18.9971C15.6231 18.7871 15.3545 18.3671 15.3545 17.9008V16.2321L13.3709 17.3758V19.0908C13.3709 19.5108 13.5809 19.9194 14.0009 20.1871L18.2122 22.6371C18.5736 22.8471 19.0409 22.8471 19.4609 22.6371L23.6723 20.1871C24.0336 19.9771 24.3022 19.5571 24.3022 19.0908V14.1444C24.3022 13.7244 24.0923 13.3158 23.6723 13.048L19.4609 10.598L19.4722 10.6339Z" fill="white"/>
</svg>
