<svg width="28" height="28" viewBox="0 0 28 28" fill="none" xmlns="http://www.w3.org/2000/svg">
<path d="M28 14C28 21.7324 21.7324 28 14 28C6.26762 28 0 21.7324 0 14C0 6.26762 6.26762 0 14 0C21.7324 0 28 6.26762 28 14Z" fill="#26A17B"/>
<path d="M15.7538 15.8692V15.8674C15.6575 15.8744 15.1614 15.9042 14.0545 15.9042C13.1708 15.9042 12.5487 15.8779 12.3299 15.8674V15.87C8.92792 15.7204 6.38867 15.128 6.38867 14.4193C6.38867 13.7114 8.92792 13.119 12.3299 12.9668V15.2803C12.5522 15.296 13.1892 15.3337 14.0694 15.3337C15.1255 15.3337 15.6549 15.2899 15.7538 15.2812V12.9685C19.1488 13.1199 21.6819 13.7123 21.6819 14.4193C21.6819 15.128 19.1488 15.7187 15.7538 15.8692ZM15.6829 11.194V9.1238H20.4202V5.9668H7.5218V9.1238H12.259V11.1932C8.40905 11.3699 5.51367 12.1329 5.51367 13.0464C5.51367 13.9599 8.40905 14.722 12.259 14.8997V21.5339H15.6829V14.8979C19.5268 14.7212 22.4152 13.959 22.4152 13.0464C22.4152 12.1338 19.5268 11.3717 15.6829 11.194Z" fill="white"/>
</svg>
