<svg width="28" height="28" viewBox="0 0 28 28" fill="none" xmlns="http://www.w3.org/2000/svg">
<path d="M28 14C28 21.7324 21.7324 28 14 28C6.26762 28 0 21.7324 0 14C0 6.26762 6.26762 0 14 0C21.7324 0 28 6.26762 28 14Z" fill="#0F8FF8"/>
<path d="M18.1309 17.1382L20.2546 18.2232C19.1696 19.9146 17.4309 21.4082 14.5732 21.4082C11.1432 21.4082 8.34319 19.3896 7.44456 16.2746H6.33594V14.851H7.18731C7.16369 14.5946 7.14094 14.3373 7.14094 14.0923C7.14094 13.8123 7.16456 13.5437 7.18731 13.2873H6.33594V11.8637H7.45594C8.34231 8.77234 11.1423 6.77734 14.5609 6.77734C17.4196 6.77734 19.1809 8.25872 20.2423 9.96234L18.1187 11.0473C17.4423 9.88097 16.0887 8.99372 14.5601 8.99372C12.5187 8.99372 10.8737 10.1137 10.1264 11.8751H15.8551V13.2987H9.73006C9.70644 13.5551 9.68369 13.8237 9.68369 14.1037C9.68369 14.3601 9.70731 14.6173 9.73006 14.8623H15.8551V16.286H10.1151C10.8614 18.071 12.5064 19.2146 14.5714 19.2146C16.1001 19.2146 17.4528 18.3396 18.1301 17.161L18.1309 17.1382Z" fill="white"/>
</svg>
