<svg width="28" height="28" viewBox="0 0 28 28" fill="none" xmlns="http://www.w3.org/2000/svg">
<path d="M28 14C28 21.7324 21.7324 28 14 28C6.26762 28 0 21.7324 0 14C0 6.26762 6.26762 0 14 0C21.7324 0 28 6.26762 28 14Z" fill="#F0B90B"/>
<path d="M13.9989 3.6748L16.5539 6.28843L10.1253 12.7171L7.57031 10.1621L13.9989 3.67568V3.6748Z" fill="#473800"/>
<path d="M17.874 7.54883L20.429 10.1625L10.139 20.4525L7.58398 17.8975L17.874 7.54883Z" fill="#473800"/>
<path d="M6.25422 11.4209L8.80922 14.0345L6.25422 16.5895L3.69922 14.0345L6.25422 11.4209Z" fill="#473800"/>
<path d="M21.747 11.4215L24.302 14.0352L14.012 24.3252L11.457 21.7702L21.747 11.4102V11.4215Z" fill="#473800"/>
</svg>
