<svg width="36" height="36" viewBox="0 0 36 36" xmlns="http://www.w3.org/2000/svg">
<path d="M33.93 18.965C33.93 27.782 26.782 34.93 17.965 34.93C9.148 34.93 2 27.782 2 18.965C2 10.148 9.148 3 17.965 3C26.782 3 33.93 10.148 33.93 18.965Z" fill="#F7931A"/>
<path d="M25.1406 16.99C25.4506 14.9 23.8606 13.775 21.6806 13.025L22.3856 10.19L20.6656 9.76L19.9656 12.52C19.5106 12.405 19.0456 12.3 18.5856 12.195L19.2856 9.43L17.5606 9L16.8556 11.83C16.4806 11.745 16.1106 11.66 15.7556 11.57L13.3756 10.975L12.9206 12.815C12.9206 12.815 14.2006 13.11 14.1706 13.125C14.6286 13.182 14.9796 13.569 14.9796 14.038C14.9796 14.069 14.9776 14.099 14.9756 14.129V14.125L14.1706 17.355C14.2416 17.372 14.3016 17.391 14.3596 17.413L14.3506 17.41L14.1706 17.365L13.0406 21.865C12.9596 22.122 12.7226 22.306 12.4436 22.306C12.3746 22.306 12.3086 22.295 12.2466 22.274L12.2506 22.275L10.9956 21.965L10.1406 23.93L12.3856 24.485L13.6156 24.805L12.9006 27.67L14.6256 28.1L15.3306 25.265C15.8006 25.39 16.2556 25.51 16.7056 25.62L16.0006 28.445L17.7256 28.875L18.4356 26.015C21.3806 26.57 23.5906 26.345 24.5206 23.685C25.2706 21.545 24.4856 20.31 22.9356 19.505C24.0656 19.265 24.9106 18.52 25.1406 16.99ZM21.1956 22.515C20.6656 24.66 17.0606 23.515 15.8906 23.21L16.8356 19.43C18.0056 19.705 21.7556 20.285 21.1956 22.515ZM21.7306 16.96C21.2306 18.91 18.2306 17.915 17.2706 17.675L18.1306 14.235C19.1006 14.475 22.2356 14.93 21.7306 16.96Z" fill="white"/>
</svg>
