<svg width="36" height="36" viewBox="0 0 36 36" fill="none" xmlns="http://www.w3.org/2000/svg">
<path d="M34 18C34 26.837 26.837 34 18 34C9.163 34 2 26.837 2 18C2 9.163 9.163 2 18 2C26.837 2 34 9.163 34 18Z" fill="#914FFF"/>
<path d="M24.254 14.153C23.841 13.913 23.307 13.913 22.827 14.153L19.494 16.113L17.227 17.366L13.96 19.326C13.547 19.566 13.013 19.566 12.533 19.326L9.973 17.779C9.56 17.539 9.253 17.059 9.253 16.526V13.553C9.253 13.073 9.493 12.606 9.973 12.3L12.533 10.807C12.946 10.567 13.48 10.567 13.96 10.807L16.52 12.354C16.933 12.594 17.24 13.074 17.24 13.607V15.567L19.507 14.26V12.233C19.507 11.753 19.267 11.286 18.787 10.98L14.027 8.18C13.614 7.94 13.08 7.94 12.6 8.18L7.72 11.033C7.24 11.273 7 11.753 7 12.22V17.807C7 18.287 7.24 18.754 7.72 19.06L12.533 21.86C12.946 22.1 13.48 22.1 13.96 21.86L17.227 19.953L19.494 18.646L22.761 16.739C23.174 16.499 23.708 16.499 24.188 16.739L26.748 18.232C27.161 18.472 27.468 18.952 27.468 19.485V22.458C27.468 22.938 27.228 23.405 26.748 23.711L24.255 25.204C23.842 25.444 23.308 25.444 22.828 25.204L20.268 23.711C19.855 23.471 19.548 22.991 19.548 22.458V20.551L17.281 21.858V23.818C17.281 24.298 17.521 24.765 18.001 25.071L22.814 27.871C23.227 28.111 23.761 28.111 24.241 27.871L29.054 25.071C29.467 24.831 29.774 24.351 29.774 23.818V18.165C29.774 17.685 29.534 17.218 29.054 16.912L24.241 14.112L24.254 14.153Z" fill="white"/>
</svg>
