<svg width="28" height="28" viewBox="0 0 28 28" fill="none" xmlns="http://www.w3.org/2000/svg">
<path d="M28 14C28 21.7324 21.7324 28 14 28C6.26762 28 0 21.7324 0 14C0 6.26762 6.26762 0 14 0C21.7324 0 28 6.26762 28 14Z" fill="#0F97F8"/>
<path d="M11.0149 25.072C11.0149 25.4457 10.7113 25.6557 10.3612 25.5507C5.51988 24.0107 2.03125 19.4957 2.03125 14.1407C2.03125 8.78566 5.51988 4.28203 10.3612 2.74203C10.7226 2.62566 11.0149 2.84703 11.0149 3.22066V4.15428C11.0149 4.39928 10.8285 4.69066 10.5949 4.77291C6.7685 6.18428 4.0385 9.85928 4.0385 14.1415C4.0385 18.4238 6.7685 22.1102 10.5949 23.4979C10.8285 23.5793 11.0149 23.8715 11.0149 24.1165V25.0615V25.072Z" fill="white"/>
<path d="M14.9927 21.6189C14.9927 21.8989 14.7713 22.1203 14.4913 22.1203H13.4999C13.2199 22.1203 12.9985 21.8989 12.9985 21.6189V20.0439C10.8172 19.7403 9.75491 18.5389 9.47491 16.8703C9.42853 16.5789 9.64991 16.3339 9.94128 16.3339H11.0727C11.3063 16.3339 11.504 16.5089 11.5627 16.7303C11.7727 17.7103 12.344 18.4803 14.094 18.4803C15.3777 18.4803 16.299 17.7566 16.299 16.6839C16.299 15.6111 15.7627 15.2025 13.8727 14.8875C11.084 14.5139 9.75403 13.6625 9.75403 11.4811C9.75403 9.80113 11.0377 8.47113 13.009 8.20251V6.66251C13.009 6.38251 13.2304 6.16113 13.5104 6.16113H14.5018C14.7818 6.16113 15.0032 6.38251 15.0032 6.66251V8.24888C16.6132 8.54026 17.6282 9.45026 17.9668 10.9675C18.0254 11.2589 17.8032 11.5161 17.5004 11.5161H16.4504C16.229 11.5161 16.0418 11.3648 15.9718 11.1548C15.6804 10.1984 15.0032 9.76613 13.8018 9.76613C12.4832 9.76613 11.7954 10.3961 11.7954 11.2948C11.7954 12.2398 12.1804 12.7184 14.2104 12.9984C16.9518 13.372 18.3754 14.1534 18.3754 16.487C18.3754 18.2606 17.0568 19.6956 14.9918 20.0106V21.6093H14.9804L14.9927 21.6189Z" fill="white"/>
<path d="M17.64 25.5505C17.2786 25.6669 16.9863 25.4455 16.9863 25.0719V24.1383C16.9863 23.8583 17.15 23.6019 17.4063 23.5196C21.2213 22.1196 23.9627 18.4446 23.9627 14.1633C23.9627 9.8819 21.2327 6.19465 17.4063 4.8069C17.1727 4.72552 16.9863 4.43327 16.9863 4.18827V3.25464C16.9863 2.88102 17.29 2.67102 17.64 2.77602C22.4813 4.2924 25.97 8.81964 25.97 14.1624C25.97 19.5051 22.4813 24.021 17.64 25.5724V25.5505Z" fill="white"/>
</svg>
