<svg width="36" height="36" viewBox="0 0 36 36" xmlns="http://www.w3.org/2000/svg">
<path d="M34 18C34 26.837 26.837 34 18 34C9.163 34 2 26.837 2 18C2 9.163 9.163 2 18 2C26.837 2 34 9.163 34 18Z" fill="#8DC351"/>
<path d="M22.3044 11.7499C21.2344 9.91992 19.3044 10.0449 17.1144 10.8299L15.8794 8.16992L14.2644 8.91992L15.4644 11.4999L14.1794 12.1149L12.9994 9.49992L11.3844 10.2449L12.6144 12.8999C12.2694 13.0699 11.9244 13.2399 11.5894 13.3999L9.35938 14.4299L10.1594 16.1599C10.1594 16.1599 11.3394 15.5799 11.3294 15.6149C11.4684 15.5259 11.6374 15.4739 11.8194 15.4739C12.1404 15.4739 12.4224 15.6379 12.5874 15.8869L12.5894 15.8899L13.9894 18.9149L14.1644 18.8449L13.9944 18.9249L15.9594 23.1649C15.9884 23.2349 16.0054 23.3169 16.0054 23.4019C16.0054 23.6789 15.8264 23.9139 15.5784 23.9989L15.5744 23.9999C15.6044 23.9999 14.3994 24.5449 14.3994 24.5449L14.9694 26.6249L17.0744 25.6499L18.2344 25.1249L19.4994 27.7949L21.1144 27.0499L19.8844 24.3899C20.3294 24.1949 20.7594 23.9999 21.1794 23.8049L22.4044 26.4499L23.9994 25.6999L22.7594 22.9999C25.4044 21.5849 26.9894 19.9999 26.0444 17.3599C25.2844 15.2149 23.8894 14.7449 22.1794 15.0899C22.8944 14.1999 23.0894 13.0899 22.3044 11.7499ZM22.6994 18.5399C23.6344 20.5399 20.0894 21.9099 18.9944 22.4199L17.3494 18.8599C18.4444 18.3549 21.7344 16.4449 22.6994 18.5399ZM19.6244 13.8699C20.4694 15.6949 17.5044 16.8099 16.5944 17.2299L15.0994 13.9999C15.9994 13.5799 18.7444 11.9649 19.6244 13.8699Z" fill="white"/>
</svg>
