<svg width="36" height="36" viewBox="0 0 36 36" xmlns="http://www.w3.org/2000/svg">
<path d="M33.93 17.965C33.93 26.782 26.782 33.93 17.965 33.93C9.148 33.93 2 26.782 2 17.965C2 9.148 9.148 2 17.965 2C26.782 2 33.93 9.148 33.93 17.965Z" fill="#5E5E5E"/>
<path d="M25.2059 26.6953L22.7059 24.2253L20.4259 21.9653C19.7529 21.2883 18.8209 20.8693 17.7909 20.8693C16.7609 20.8693 15.8289 21.2883 15.1559 21.9653L10.3809 26.6953H7.38086L7.81586 26.2453L9.31586 24.7453L12.7509 21.3453C13.1609 20.9403 13.5609 20.5203 13.9959 20.1453C14.8149 19.4173 15.8609 18.9273 17.0149 18.7923L17.0409 18.7903C17.2769 18.7563 17.5499 18.7363 17.8269 18.7363C19.2799 18.7363 20.6059 19.2763 21.6179 20.1663L21.6119 20.1603C21.9669 20.4653 22.2819 20.8053 22.6119 21.1303L26.6869 25.1603L28.1219 26.5853C28.1489 26.6093 28.1719 26.6373 28.1909 26.6683L28.1919 26.6703L25.2059 26.6953Z" fill="white"/>
<path d="M10.4305 9.43004L12.1305 11.12C12.9105 11.89 13.6805 12.66 14.4605 13.425C14.7965 13.773 15.1475 14.1 15.5145 14.408L15.5355 14.425C16.1545 14.911 16.9445 15.204 17.8035 15.204C18.8245 15.204 19.7475 14.79 20.4155 14.12C21.5055 13.03 22.6055 11.95 23.7055 10.86L25.1655 9.43004H28.1655L27.8255 9.79004L24.6405 12.93L21.8705 15.67C21.0245 16.512 19.9115 17.086 18.6695 17.252L18.6405 17.255C18.3745 17.299 18.0685 17.324 17.7575 17.324C16.2355 17.324 14.8545 16.726 13.8335 15.753L13.8355 15.755C13.2805 15.255 12.7605 14.705 12.2255 14.175L7.50555 9.50004C7.48055 9.47504 7.46055 9.44504 7.43555 9.41504L10.4305 9.43004Z" fill="white"/>
</svg>
