<svg width="28" height="28" viewBox="0 0 28 28" fill="none" xmlns="http://www.w3.org/2000/svg">
<path d="M14 0C21.735 0 28 6.265 28 14C28 21.735 21.735 28 14 28C6.265 28 0 21.735 0 14C0 6.265 6.265 0 14 0Z" fill="#F5AC37"/>
<path d="M14.5128 14.9914H19.8328C19.9492 14.9914 19.9964 14.9914 20.0078 14.84C20.0542 14.3036 20.0542 13.755 20.0078 13.2186C20.0078 13.1136 19.9614 13.0673 19.8442 13.0673H9.25056C9.12194 13.0673 9.08694 13.1136 9.08694 13.2309V14.7823C9.08694 14.9147 9.15694 14.9809 9.29694 14.9809H14.5119L14.5128 14.9914ZM19.4128 11.2464C19.4128 11.2464 19.4242 11.165 19.4128 11.13C19.3192 10.9314 19.2142 10.7564 19.0978 10.5814C18.9114 10.29 18.7014 10.01 18.4442 9.76502C18.3278 9.61365 18.1878 9.48502 18.0356 9.36865C17.2769 8.72727 16.3792 8.27227 15.4106 8.03865C14.9206 7.93365 14.4192 7.87502 13.9292 7.87502H9.23919C9.11056 7.87502 9.08781 7.9214 9.08781 8.03865V11.1423C9.08781 11.2709 9.08781 11.3059 9.25144 11.3059H19.3428C19.3428 11.3059 19.4364 11.2823 19.4478 11.2359H19.4014L19.4128 11.2464ZM19.4128 16.8114C19.2614 16.8 19.1092 16.8 18.9692 16.8114H9.26281C9.13419 16.8114 9.08781 16.8114 9.08781 16.9864V20.02C9.08781 20.16 9.08781 20.195 9.26281 20.195H13.7428C13.9528 20.2064 14.1742 20.195 14.3842 20.1486C15.0378 20.1023 15.6792 19.9623 16.2856 19.7286C16.5069 19.6473 16.7169 19.5536 16.9269 19.4373H16.9856C18.0356 18.8886 18.8869 18.0373 19.4242 16.9759C19.4242 16.9759 19.4828 16.8473 19.4242 16.8123L19.4128 16.8114ZM7.32556 21.77V16.9286C7.32556 16.8123 7.32556 16.8 7.18556 16.8H5.28419C5.17919 16.8 5.13281 16.8 5.13281 16.66V14.9914H7.16281C7.27919 14.9914 7.32644 14.9914 7.32644 14.84V13.195C7.32644 13.09 7.32644 13.0664 7.18644 13.0664H5.28506C5.18006 13.0664 5.13369 13.0664 5.13369 12.9264V11.3864C5.13369 11.2928 5.13369 11.27 5.27369 11.27H7.15231C7.28094 11.27 7.31594 11.27 7.31594 11.1064V6.39277C7.31594 6.25277 7.31594 6.21777 7.49094 6.21777H14.0473C14.5259 6.2414 14.9923 6.28777 15.4709 6.3814C16.4396 6.5564 17.3609 6.9064 18.2123 7.3964C18.7723 7.72277 19.2973 8.1314 19.7523 8.5864C20.1023 8.94777 20.4059 9.33277 20.6859 9.75277C20.9659 10.1728 21.1873 10.6278 21.3746 11.0941C21.3982 11.2105 21.5146 11.3041 21.6309 11.2805H23.1946C23.327 11.2805 23.397 11.3467 23.4046 11.4791V12.9141C23.4046 13.0541 23.3582 13.0891 23.2059 13.0891H21.9923C21.8759 13.0891 21.8287 13.0891 21.8409 13.2528C21.8873 13.7891 21.8873 14.3264 21.8409 14.8514C21.8409 15.0028 21.8409 15.015 22.0046 15.015H23.3809C23.4396 15.0964 23.3809 15.1786 23.3809 15.2486C23.3809 15.3536 23.3809 15.4473 23.3809 15.5523V16.6136C23.3809 16.765 23.3346 16.8123 23.2059 16.8123H21.5496C21.4332 16.7886 21.3282 16.8586 21.2932 16.9759C20.8968 18.0023 20.2668 18.9123 19.4496 19.6595C19.1582 19.9281 18.8432 20.1845 18.5159 20.4059C18.1659 20.6045 17.8273 20.8145 17.4659 20.9895C16.8009 21.2809 16.1123 21.5031 15.4009 21.6432C14.7246 21.7595 14.0359 21.8182 13.3473 21.8068H7.32731L7.32556 21.77Z" fill="white"/>
</svg>
