<svg width="28" height="28" viewBox="0 0 28 28" fill="none" xmlns="http://www.w3.org/2000/svg">
<path d="M28 14C28 21.7324 21.7324 28 14 28C6.26762 28 0 21.7324 0 14C0 6.26762 6.26762 0 14 0C21.7324 0 28 6.26762 28 14Z" fill="#EAC749"/>
<path d="M19.2498 8.51657H15.8548C16.5198 9.05294 16.9748 9.7652 17.1612 10.5929H19.2376V12.2843H17.1962C16.9162 14.2557 15.4812 15.3757 14.1048 15.6907L17.3485 21.1393H13.8248L11.0135 16.0529H8.71484V13.6029H11.9935C13.0435 13.6029 13.8135 13.0893 14.1171 12.2729H8.75072V10.5816H14.1757C13.8721 9.74157 13.1021 9.2752 12.0293 9.2752H8.75072V6.8252H19.2621V8.49382L19.2498 8.51657Z" fill="#276304"/>
</svg>
