<svg width="28" height="28" viewBox="0 0 28 28" fill="none" xmlns="http://www.w3.org/2000/svg">
<path d="M28 14C28 21.7236 21.735 28 14 28C6.265 28 0 21.7236 0 14C0 9.52 2.1 5.54138 5.36638 2.975C5.43638 2.91638 5.51775 2.85862 5.58775 2.81137C7.93275 1.03775 10.8491 0 13.9991 0C21.7341 0 28 6.265 28 14Z" fill="#FF007A"/>
<path d="M10.815 4.92345C10.5464 4.88845 10.535 4.87708 10.6636 4.85345C10.9086 4.81845 11.48 4.86483 11.8773 4.95845C12.8109 5.17983 13.6386 5.73983 14.5373 6.74345L14.7709 7.01208L15.1095 6.9657C16.5445 6.73208 18.0145 6.91933 19.2395 7.47933C19.5781 7.6307 20.1031 7.9457 20.1731 8.0157C20.1968 8.03933 20.2431 8.21433 20.2668 8.37708C20.3604 8.98345 20.3131 9.43845 20.1268 9.77708C20.0218 9.9757 20.0218 10.0221 20.0918 10.1857C20.1381 10.3143 20.3018 10.4071 20.4418 10.4071C20.7568 10.4071 21.0718 9.91708 21.2231 9.22845L21.2931 8.95983L21.4095 9.08845C22.0631 9.82345 22.5881 10.8385 22.6581 11.5621L22.6818 11.7607L22.5654 11.5971C22.3668 11.3057 22.1918 11.1071 21.9468 10.9435C21.5031 10.6521 21.0481 10.5585 19.8231 10.4885C18.7145 10.4185 18.0845 10.3371 17.4668 10.1271C16.4054 9.77708 15.8681 9.32208 14.6204 7.6657C14.0604 6.9307 13.7218 6.53433 13.3718 6.1957C12.6131 5.4607 11.8554 5.0757 10.8631 4.92433L10.815 4.92345Z" fill="white"/>
<path d="M20.4157 6.56926C20.4393 6.07926 20.5093 5.75288 20.6493 5.46063C20.6957 5.34426 20.7543 5.23926 20.7657 5.23926C20.7771 5.23926 20.7543 5.33288 20.7193 5.43788C20.6143 5.71788 20.6029 6.12651 20.6729 6.56926C20.7666 7.15288 20.8016 7.22288 21.4193 7.86426C21.6993 8.15563 22.0379 8.52926 22.1657 8.69288L22.3871 8.97288L22.1657 8.76288C21.8971 8.50651 21.2793 8.01651 21.1393 7.94651C21.0457 7.90013 21.0343 7.90013 20.9757 7.95788C20.9293 8.00426 20.9057 8.08651 20.9057 8.45926C20.8943 9.04288 20.8121 9.40426 20.6257 9.77788C20.5207 9.97651 20.5093 9.92926 20.6021 9.70788C20.6721 9.54426 20.6834 9.46288 20.6834 8.90288C20.6834 7.78288 20.5548 7.51426 19.7734 7.05926C19.5748 6.94288 19.2484 6.77926 19.0498 6.68563C18.8398 6.59201 18.6884 6.52201 18.6998 6.52201C18.7234 6.49838 19.4812 6.72063 19.7848 6.84838C20.2398 7.02338 20.3098 7.04701 20.3684 7.02338C20.4034 6.98838 20.4384 6.88338 20.4498 6.55701L20.4157 6.56926Z" fill="white"/>
<path d="M11.3409 8.48152C10.8045 7.73515 10.4545 6.5679 10.5245 5.70515L10.5481 5.43652L10.6768 5.46015C10.9104 5.49515 11.3068 5.65877 11.5054 5.77515C12.019 6.09015 12.2518 6.51015 12.474 7.57152C12.544 7.88652 12.6254 8.23652 12.6726 8.3529C12.7426 8.55152 12.9876 8.99427 13.1863 9.28652C13.3263 9.49652 13.2326 9.60152 12.9176 9.56652C12.4276 9.52015 11.774 9.06515 11.3426 8.48152H11.3409Z" fill="white"/>
<path d="M19.7642 14.094C17.2092 13.0676 16.3105 12.169 16.3105 10.664C16.3105 10.4426 16.3219 10.2676 16.3219 10.2676C16.3333 10.2676 16.4269 10.349 16.5433 10.4312C17.0569 10.8398 17.6397 11.0262 19.2497 11.2598C20.1947 11.3998 20.731 11.5048 21.221 11.6685C22.7847 12.1821 23.7524 13.2435 23.9747 14.6671C24.0447 15.0757 23.9983 15.8685 23.8933 16.2771C23.7997 16.6035 23.5433 17.1871 23.4847 17.2107C23.4733 17.2107 23.4497 17.1407 23.4497 17.0471C23.426 16.5107 23.1583 15.9857 22.7033 15.5885C22.1669 15.1221 21.4669 14.7721 19.7633 14.0948L19.7642 14.094Z" fill="white"/>
<path d="M17.9553 14.5133C17.9317 14.3147 17.8617 14.0697 17.8267 13.9769L17.7567 13.7783L17.8731 13.9183C18.0367 14.1169 18.1645 14.3383 18.2817 14.6647C18.3753 14.9097 18.3753 14.9911 18.3753 15.3883C18.3753 15.7856 18.364 15.8669 18.2817 16.0883C18.1531 16.4383 18.0017 16.6833 17.7453 16.9519C17.279 17.4306 16.6717 17.6869 15.809 17.8033C15.6576 17.8147 15.214 17.8497 14.829 17.8847C13.8603 17.9311 13.219 18.0361 12.6353 18.2461C12.554 18.2697 12.484 18.2924 12.4717 18.2811C12.4481 18.2574 12.8453 18.0247 13.1717 17.8724C13.6267 17.6511 14.0817 17.5338 15.1081 17.3588C15.6095 17.2774 16.1231 17.1838 16.2517 17.1252C17.5231 16.7288 18.1653 15.7366 17.9553 14.5238V14.5133Z" fill="white"/>
<path d="M19.133 16.5903C18.7943 15.8553 18.7243 15.1553 18.8993 14.5017C18.923 14.4317 18.9457 14.373 18.9807 14.373C19.0157 14.373 19.0857 14.408 19.1557 14.4667C19.3071 14.5717 19.6343 14.7467 20.4621 15.2017C21.5121 15.773 22.0957 16.2053 22.5157 16.7067C22.8771 17.1503 23.0993 17.6517 23.2043 18.2703C23.2743 18.6203 23.228 19.4603 23.1343 19.8103C22.8543 20.9067 22.2007 21.7817 21.268 22.2839C21.128 22.3653 21.0116 22.4125 20.9993 22.4125C20.9871 22.4125 21.0343 22.2839 21.1157 22.1325C21.4307 21.4789 21.4657 20.8375 21.2321 20.1375C21.0921 19.6939 20.7885 19.1689 20.2057 18.2825C19.4943 17.2562 19.3307 16.9762 19.1443 16.6025L19.133 16.5903Z" fill="white"/>
<path d="M9.5195 20.5342C10.4759 19.7292 11.6431 19.1692 12.7281 18.9828C13.1945 18.9014 13.9645 18.9364 14.3968 19.0528C15.0854 19.2278 15.7031 19.6242 16.0181 20.1028C16.3331 20.5692 16.4731 20.9664 16.6131 21.8528C16.6595 22.2028 16.7295 22.5642 16.7418 22.6342C16.8468 23.1005 17.0568 23.4628 17.3131 23.6492C17.7095 23.9405 18.4095 23.9642 19.0981 23.6955C19.2145 23.6605 19.3195 23.6142 19.3195 23.6255C19.3431 23.6492 18.9931 23.8819 18.7595 23.9992C18.4331 24.1628 18.1759 24.2205 17.8259 24.2205C17.2072 24.2205 16.6823 23.8942 16.2509 23.2519C16.1573 23.1233 15.9823 22.7505 15.8309 22.4005C15.3759 21.3505 15.1423 21.0469 14.6172 20.6969C14.1509 20.4055 13.5559 20.3355 13.1123 20.5569C12.5173 20.8369 12.3659 21.6069 12.7736 22.0619C12.9373 22.2605 13.2522 22.4119 13.5086 22.4469C13.9872 22.5169 14.395 22.1319 14.395 21.6655C14.395 21.3505 14.2786 21.1755 13.975 21.0355C13.5664 20.8605 13.1114 21.0592 13.1236 21.4555C13.1236 21.6192 13.205 21.7242 13.3686 21.8055C13.4386 21.8364 13.4465 21.8481 13.3923 21.8405C13.0186 21.7592 12.9259 21.3042 13.2286 21.0005C13.59 20.6392 14.3486 20.7905 14.605 21.2919C14.71 21.5019 14.7214 21.9105 14.6286 22.1669C14.4073 22.7383 13.7886 23.0305 13.1586 22.8669C12.7386 22.7505 12.5523 22.6333 12.0386 22.1083C11.14 21.1747 10.79 20.9997 9.495 20.8019L9.25 20.7669L9.51863 20.5105L9.5195 20.5342Z" fill="white"/>
<path d="M11.3406 9.15887C10.9906 8.7625 8.02696 5.49525 5.58921 2.8125C5.51921 2.85887 5.43783 2.9175 5.36783 2.97612C7.89921 6.0675 10.4428 9.19475 10.6065 9.41612C10.8051 9.68475 10.7228 9.92975 10.4078 10.1047C10.2215 10.2097 9.84783 10.3147 9.67283 10.3147C9.46283 10.3147 9.21783 10.2098 9.05421 10.0461C8.93783 9.92975 8.43558 9.19475 7.29283 7.42112C6.42921 6.0675 5.69421 4.9475 5.68283 4.93612C5.68283 4.93612 6.19237 5.86567 7.21146 7.72475C8.20283 9.48612 8.51783 10.1161 8.51783 10.1984C8.51783 10.362 8.47146 10.4547 8.26146 10.6884C7.92283 11.0734 7.76008 11.517 7.64283 12.427C7.51421 13.442 7.16421 14.1656 6.17283 15.3906C5.60146 16.1143 5.50783 16.242 5.36783 16.5342C5.18146 16.8956 5.13421 17.1056 5.11146 17.5729C5.07646 18.0629 5.13508 18.3665 5.27508 18.8329C5.40371 19.2529 5.54371 19.5215 5.89371 20.0465C6.18508 20.5129 6.37233 20.8629 6.37233 20.9915C6.37233 21.0965 6.39596 21.0965 6.86233 20.9915C7.97096 20.7351 8.88096 20.2915 9.38233 19.7551C9.69733 19.4165 9.77871 19.2301 9.77871 18.7751C9.77871 18.4715 9.77871 18.4137 9.68508 18.2265C9.55646 17.9465 9.31146 17.7129 8.78646 17.3515C8.08646 16.8729 7.78283 16.4879 7.71283 15.9751C7.64283 15.5315 7.72421 15.2401 8.10921 14.4237C8.50558 13.5837 8.61058 13.2451 8.68058 12.3937C8.71558 11.8451 8.78558 11.6237 8.93696 11.4601C9.10058 11.2851 9.24058 11.2151 9.64833 11.1687C10.302 11.0751 10.722 10.9124 11.0597 10.5851C11.3633 10.3165 11.4911 10.0487 11.5033 9.64012V9.34875L11.3397 9.16237L11.3406 9.15887ZM6.70921 18.1189C6.58058 18.3525 6.33558 18.4339 6.14921 18.2939C6.03283 18.2002 6.03283 18.0725 6.12558 17.9325C6.21833 17.7925 6.20696 17.7225 6.09058 17.6639C6.00921 17.6289 5.98558 17.5825 5.98558 17.5352C5.98558 17.3366 6.31196 17.2666 6.53421 17.4189C6.76783 17.5702 6.84921 17.8739 6.70921 18.1189Z" fill="white"/>
<path d="M12.7287 11.4212C12.53 11.3162 12.1337 11.2812 11.9237 11.3398C11.62 11.4335 11.3173 11.7712 11.235 12.0985C11.1764 12.3085 11.2 12.6821 11.2937 12.7985C11.4337 12.9735 11.5623 13.0321 11.9237 13.0321C12.635 13.0321 13.2423 12.7171 13.3 12.3435C13.37 12.0398 13.1014 11.6076 12.7287 11.4212ZM12.7514 11.9812C12.67 12.0862 12.4364 12.1912 12.2728 12.1912C12.0164 12.1912 11.7478 12.0162 11.7478 11.8412C11.7478 11.5148 12.2728 11.3276 12.6228 11.5498C12.8092 11.6662 12.8564 11.8298 12.7514 11.9812Z" fill="white"/>
</svg>
