<svg width="28" height="28" viewBox="0 0 28 28" fill="none" xmlns="http://www.w3.org/2000/svg">
<circle cx="14" cy="14" r="14" fill="#D81E06"/>
<path d="M15.75 4H19.25V19.8824H15.75V4Z" fill="#F4EA2A"/>
<path d="M12.25 5.17647H21V6.94118H12.25V5.17647Z" fill="#F4EA2A"/>
<path fill-rule="evenodd" clip-rule="evenodd" d="M11.9583 19.8824C14.6967 19.8824 16.9167 17.2487 16.9167 14C16.9167 10.7513 14.6967 8.11765 11.9583 8.11765C9.21992 8.11765 7 10.7513 7 14C7 17.2487 9.21992 19.8824 11.9583 19.8824ZM13.4167 16.9412C15.0275 16.9412 16.3333 15.6244 16.3333 14C16.3333 12.3756 15.0275 11.0588 13.4167 11.0588C11.8058 11.0588 10.5 12.3756 10.5 14C10.5 15.6244 11.8058 16.9412 13.4167 16.9412Z" fill="#F4EA2A"/>
<path d="M9.33333 22.2353H18.6667V24H9.33333V22.2353Z" fill="#F4EA2A"/>
</svg>
