<svg width="16" height="16" viewBox="0 0 16 16" fill="none" xmlns="http://www.w3.org/2000/svg">
<path fill-rule="evenodd" clip-rule="evenodd" d="M8 16C12.4183 16 16 12.4183 16 8C16 3.58172 12.4183 0 8 0C3.58172 0 0 3.58172 0 8C0 12.4183 3.58172 16 8 16ZM6.6285 4.059L4.61406 3.72666L4.42415 4.87777L5.28748 5.0202C5.44013 5.04538 5.57652 5.13017 5.66665 5.25592C5.75678 5.38166 5.79327 5.53806 5.76808 5.6907L5.00845 10.2951C4.98326 10.4478 4.89847 10.5842 4.77273 10.6743C4.64698 10.7644 4.49059 10.8009 4.33794 10.7757L3.76239 10.6808L3.2847 11.7844L5.29914 12.1167L5.01427 13.8434L6.16538 14.0333L6.45024 12.3067L7.31357 12.4491L7.02871 14.1757L8.17982 14.3657L8.46468 12.639C12.7813 13.3512 12.9654 8.65177 10.6395 8.41584C12.3899 8.55682 12.9596 5.1035 9.79404 4.58125L10.0789 2.85459L8.9278 2.66468L8.64293 4.39134L7.7796 4.24891L8.06447 2.52225L6.91336 2.33234L6.6285 4.059ZM7.20988 7.70223L7.5897 5.40001C7.5897 5.40001 10.2034 5.68342 9.98978 6.97842C9.77613 8.27341 7.20988 7.70223 7.20988 7.70223ZM6.64015 11.1555L7.06745 8.56556C7.06745 8.56556 10.233 9.08781 10.0193 10.3828C9.80569 11.6778 6.64015 11.1555 6.64015 11.1555Z" fill="#B1BAD3"/>
</svg>
