<svg width="36" height="36" viewBox="0 0 36 36" xmlns="http://www.w3.org/2000/svg">
<path d="M34 18C34 26.837 26.837 34 18 34C9.163 34 2 26.837 2 18C2 9.163 9.163 2 18 2C26.837 2 34 9.163 34 18Z" fill="#279904"/>
<path d="M11.4134 20.1603H8.60044V26.2003H5.77344V10.0273H12.8804C16.0804 10.0273 18.1604 12.1073 18.1604 15.0943C18.1604 18.0813 16.2674 19.5343 14.3334 19.8413L18.2804 26.1883H15.0134L11.4264 20.1483L11.4134 20.1603ZM12.4804 12.5333H8.60044V17.6663H12.4804C14.0804 17.6663 15.2404 16.6533 15.2404 15.0933C15.2404 13.5333 14.0804 12.5203 12.4804 12.5203V12.5333Z" fill="#FFC800"/>
<path d="M25.6003 26.4403V28.6273H23.6673V26.4673C21.1473 26.2673 19.3073 25.2803 18.0273 23.9203L19.6003 21.7333C20.5473 22.7333 21.9203 23.6263 23.6673 23.8933V19.2133C21.1743 18.5863 18.5343 17.6663 18.5343 14.5063C18.5343 12.0393 20.5473 10.0663 23.6673 9.79927V7.57227H25.6003V9.85227C27.5873 10.0523 29.2133 10.8253 30.4673 12.0393L28.8403 14.1463C27.9473 13.2533 26.8003 12.6933 25.5873 12.4533V16.6263C28.1073 17.3063 30.8273 18.2533 30.8273 21.4933C30.8273 23.9603 29.2273 26.0933 25.5873 26.4403H25.6003ZM23.6673 16.1203V12.3473C22.2803 12.4943 21.4403 13.2403 21.4403 14.3343C21.4403 15.2813 22.3873 15.7603 23.6673 16.1203ZM27.9603 21.7603C27.9603 20.6403 26.9603 20.1333 25.6133 19.7203V23.8933C27.2803 23.6533 27.9603 22.6803 27.9603 21.7603Z" fill="#FFC800"/>
</svg>
