<svg width="28" height="28" viewBox="0 0 28 28" fill="none" xmlns="http://www.w3.org/2000/svg">
<path d="M28 14C28 21.7318 21.7318 28 14 28C6.26821 28 0 21.7318 0 14C0 6.26821 6.26821 0 14 0C21.7318 0 28 6.26821 28 14Z" fill="#C2A633"/>
<path d="M13.654 5.6385H8.83097V13.0923H6.85352V14.9207H8.83097V22.3745H14.4389C14.4389 22.3745 22.3311 23.0366 22.3311 14.1358C22.3311 5.37981 14.794 5.6385 13.654 5.6385ZM14.3205 19.3009H11.9966V14.9163H15.5043V13.0923H11.9966V8.70771H14.1889C15.0176 8.70771 19.1874 9.04094 19.1962 14.1885C19.2049 19.336 14.9168 19.279 14.3205 19.279V19.3009Z" fill="white"/>
</svg>
