<svg width="28" height="28" viewBox="0 0 28 28" fill="none" xmlns="http://www.w3.org/2000/svg">
<path d="M28 14C28 21.7318 21.7318 28 14 28C6.26821 28 0 21.7318 0 14C0 6.26821 6.26821 0 14 0C21.7318 0 28 6.26821 28 14Z" fill="#FF0000"/>
<path d="M5.54145 6.07715C5.72999 6.13327 5.95711 6.1815 6.19037 6.21044L6.2123 6.21307L19.5546 8.65529C19.623 8.66406 19.6835 8.69475 19.73 8.7386L23.2552 12.0928C23.3122 12.1454 23.321 12.1761 23.2552 12.2419C22.2731 13.4316 21.2938 14.6227 20.3175 15.8153L14.8236 22.5281L13.0084 24.7204L12.9514 24.7818L12.6576 24.054C11.5206 21.2011 10.3864 18.3482 9.2552 15.4953C8.03336 12.4114 6.80422 9.32321 5.56776 6.23061C5.54935 6.18764 5.53268 6.1359 5.52041 6.08329L5.51953 6.07715H5.54145ZM12.9076 22.0064H12.9339C12.9821 21.5679 13.0347 21.1294 13.0873 20.691C13.1882 19.8798 13.2846 19.0731 13.3855 18.2619C13.4732 17.5165 13.5609 16.7712 13.6529 16.0258C13.745 15.2804 13.8327 14.5263 13.9248 13.7765C13.9274 13.7651 13.9292 13.7519 13.9292 13.7388C13.9292 13.6783 13.8985 13.6239 13.8511 13.5932L7.5189 8.32732H7.49698L12.9076 22.0064ZM13.9248 22.059L21.4181 12.9303H21.3172L18.3839 13.474L14.9683 14.0878C14.8806 14.0878 14.8587 14.1448 14.8499 14.2237C14.8499 14.4649 14.7973 14.6973 14.7666 14.934C14.6702 15.7452 14.5693 16.5563 14.4729 17.3675C14.3764 18.1786 14.2931 18.867 14.201 19.6168L13.9248 22.059ZM8.22482 7.58983V7.61614L8.9702 8.26944L14.2887 12.654C14.3124 12.6847 14.3483 12.704 14.3896 12.704C14.4308 12.704 14.4667 12.6847 14.4904 12.6549C15.6129 11.7137 16.7382 10.7739 17.8665 9.83562L18.3313 9.44978L8.22482 7.58983ZM15.7093 12.9346C15.8409 12.9346 21.4093 11.9306 21.554 11.8823C21.554 11.8823 21.554 11.8517 21.5233 11.8385C20.8568 11.213 20.1918 10.5801 19.5283 9.93997C19.4362 9.85228 19.3924 9.86544 19.3047 9.93997C18.4716 10.6415 17.6298 11.3387 16.7923 12.0358C16.4415 12.3296 16.0864 12.6233 15.7093 12.9346Z" fill="white"/>
</svg>
