<svg width="36" height="36" viewBox="0 0 36 36" xmlns="http://www.w3.org/2000/svg">
<path d="M33.93 17.965C33.93 26.782 26.782 33.93 17.965 33.93C9.148 33.93 2 26.782 2 17.965C2 9.148 9.148 2 17.965 2C26.782 2 33.93 9.148 33.93 17.965Z" fill="#C2A633"/>
<path d="M17.5695 8.42963H12.0695V16.9296H9.81445V19.0146H12.0695V27.5146H18.4645C18.4645 27.5146 27.4645 28.2696 27.4645 18.1196C27.4645 8.13463 18.8695 8.42963 17.5695 8.42963ZM18.3295 24.0096H15.6795V19.0096H19.6795V16.9296H15.6795V11.9296H18.1795C19.1245 11.9296 23.8795 12.3096 23.8895 18.1796C23.8995 24.0496 19.0095 23.9846 18.3295 23.9846V24.0096Z" fill="white"/>
</svg>
