<svg width="16" height="16" viewBox="0 0 16 16" fill="none" xmlns="http://www.w3.org/2000/svg">
<path d="M16 8C16 12.4185 12.4185 16 8 16C3.5815 16 0 12.4185 0 8C0 3.5815 3.5815 0 8 0C12.4185 0 16 3.5815 16 8Z" fill="#B1BAD3"/>
<path d="M6.058 7.202L8 5.26L9.943 7.203L11.073 6.073L8 3L4.928 6.072L6.058 7.202ZM3 8L4.13 6.87L5.26 8L4.13 9.13L3 8ZM6.058 8.798L8 10.74L9.943 8.797L11.073 9.9265L8 13L4.9265 9.9265L6.058 8.798ZM10.74 8L11.87 6.87L13 8L11.87 9.13L10.74 8ZM9.146 7.999H9.147V8L8 9.147L6.8525 8L6.8545 7.9985L7.1525 7.7L8 6.853L9.1465 7.9995L9.146 7.999Z" fill="white"/>
</svg>
