<svg width="36" height="36" viewBox="0 0 36 36" fill="none" xmlns="http://www.w3.org/2000/svg">
<path d="M34 18C34 26.837 26.837 34 18 34C9.163 34 2 26.837 2 18C2 9.163 9.163 2 18 2C26.837 2 34 9.163 34 18Z" fill="#F3BA2F"/>
<path d="M14.116 16.404L18 12.52L21.886 16.406L24.146 14.146L18 8L11.856 14.144L14.116 16.404ZM8 18L10.26 15.74L12.52 18L10.26 20.26L8 18ZM14.116 19.596L18 23.48L21.886 19.594L24.146 21.853L18 28L11.853 21.853L14.116 19.596ZM23.48 18L25.74 15.74L28 18L25.74 20.26L23.48 18ZM20.292 17.998H20.294V18L18 20.294L15.705 18L15.709 17.997L16.305 17.4L18 15.706L20.293 17.999L20.292 17.998Z" fill="white"/>
</svg>
