<svg width="36" height="36" viewBox="0 0 36 36" fill="none" xmlns="http://www.w3.org/2000/svg">
<path d="M34 18C34 26.837 26.837 34 18 34C9.163 34 2 26.837 2 18C2 9.163 9.163 2 18 2C26.837 2 34 9.163 34 18Z" fill="#0F8FF8"/>
<path d="M22.7202 21.5871L25.1472 22.8271C23.9072 24.7601 21.9202 26.4671 18.6542 26.4671C14.7342 26.4671 11.5342 24.1601 10.5072 20.6001H9.24023V18.9731H10.2132C10.1862 18.6801 10.1602 18.3861 10.1602 18.1061C10.1602 17.7861 10.1872 17.4791 10.2132 17.1861H9.24023V15.5591H10.5202C11.5332 12.0261 14.7332 9.74609 18.6402 9.74609C21.9072 9.74609 23.9202 11.4391 25.1332 13.3861L22.7062 14.6261C21.9332 13.2931 20.3862 12.2791 18.6392 12.2791C16.3062 12.2791 14.4262 13.5591 13.5722 15.5721H20.1192V17.1991H13.1192C13.0922 17.4921 13.0662 17.7991 13.0662 18.1191C13.0662 18.4121 13.0932 18.7061 13.1192 18.9861H20.1192V20.6131H13.5592C14.4122 22.6531 16.2922 23.9601 18.6522 23.9601C20.3992 23.9601 21.9452 22.9601 22.7192 21.6131L22.7202 21.5871Z" fill="white"/>
</svg>
