<svg width="16" height="16" viewBox="0 0 16 16" fill="none" xmlns="http://www.w3.org/2000/svg">
<g clip-path="url(#clip0_2080_1318)">
<path fill-rule="evenodd" clip-rule="evenodd" d="M15.9858 7.99731C15.9858 12.3936 12.4219 15.9575 8.02557 15.9575C3.62923 15.9575 0.0653687 12.3936 0.0653687 7.99731C0.0653687 3.60097 3.62923 0.0371094 8.02557 0.0371094C12.4219 0.0371094 15.9858 3.60097 15.9858 7.99731ZM11.7614 4.05112H4.22385V5.87082H7.08283V7.07556C4.87086 7.17244 3.20154 7.60936 3.20154 8.13367C3.20154 8.65793 4.87087 9.09478 7.08285 9.19166V13.0312H8.90248V9.19317C11.1316 9.09932 12.8183 8.66071 12.8183 8.13367C12.8183 7.60662 11.1316 7.16789 8.90245 7.07407V5.87082H11.7614V4.05112ZM7.08283 7.17787V8.54545H8.90245V7.17641C10.8391 7.25658 12.2922 7.59234 12.2922 7.99428C12.2922 8.45606 10.375 8.83034 8.00998 8.83034C5.64492 8.83034 3.72763 8.45606 3.72763 7.99428C3.72763 7.59474 5.16349 7.26059 7.08283 7.17787Z" fill="#B1BAD3"/>
</g>
<defs>
<clipPath id="clip0_2080_1318">
<rect width="16" height="16" fill="white"/>
</clipPath>
</defs>
</svg>
