<svg width="36" height="36" viewBox="0 0 36 36" fill="none" xmlns="http://www.w3.org/2000/svg">
<path d="M33.93 17.965C33.93 26.782 26.782 33.93 17.965 33.93C9.148 33.93 2 26.782 2 17.965C2 9.148 9.148 2 17.965 2C26.782 2 33.93 9.148 33.93 17.965Z" fill="#FF0000"/>
<path d="M8.31992 8.92969C8.53492 8.99369 8.79392 9.04869 9.05992 9.08169L9.08492 9.08469L24.2999 11.8697C24.3779 11.8797 24.4469 11.9147 24.4999 11.9647L28.5199 15.7897C28.5849 15.8497 28.5949 15.8847 28.5199 15.9597C27.3999 17.3164 26.2833 18.6747 25.1699 20.0347L18.9049 27.6897L16.8349 30.1897L16.7699 30.2597L16.4349 29.4297C15.1383 26.1764 13.8449 22.923 12.5549 19.6697C11.1616 16.153 9.75992 12.6314 8.34992 9.10469C8.32892 9.05569 8.30992 8.99669 8.29592 8.93669L8.29492 8.92969H8.31992ZM16.7199 27.0947H16.7499C16.8049 26.5947 16.8649 26.0947 16.9249 25.5947C17.0399 24.6697 17.1499 23.7497 17.2649 22.8247C17.3649 21.9747 17.4649 21.1247 17.5699 20.2747C17.6749 19.4247 17.7749 18.5647 17.8799 17.7097C17.8829 17.6967 17.8849 17.6817 17.8849 17.6667C17.8849 17.5977 17.8499 17.5357 17.7959 17.5007L10.5749 11.4957H10.5499L16.7199 27.0947ZM17.8799 27.1547L26.4249 16.7447H26.3099L22.9649 17.3647L19.0699 18.0647C18.9699 18.0647 18.9449 18.1297 18.9349 18.2197C18.9349 18.4947 18.8749 18.7597 18.8399 19.0297C18.7299 19.9547 18.6149 20.8797 18.5049 21.8047C18.3949 22.7297 18.2999 23.5147 18.1949 24.3697L17.8799 27.1547ZM11.3799 10.6547V10.6847L12.2299 11.4297L18.2949 16.4297C18.3219 16.4647 18.3629 16.4867 18.4099 16.4867C18.4569 16.4867 18.4979 16.4647 18.5249 16.4307C19.8049 15.3574 21.0883 14.2857 22.3749 13.2157L22.9049 12.7757L11.3799 10.6547ZM19.9149 16.7497C20.0649 16.7497 26.4149 15.6047 26.5799 15.5497C26.5799 15.5497 26.5799 15.5147 26.5449 15.4997C25.7849 14.7864 25.0266 14.0647 24.2699 13.3347C24.1649 13.2347 24.1149 13.2497 24.0149 13.3347C23.0649 14.1347 22.1049 14.9297 21.1499 15.7247C20.7499 16.0597 20.3449 16.3947 19.9149 16.7497Z" fill="white"/>
</svg>
