<svg width="36" height="36" viewBox="0 0 36 36" fill="none" xmlns="http://www.w3.org/2000/svg">
<path d="M34 18C34 26.837 26.837 34 18 34C9.163 34 2 26.837 2 18C2 9.163 9.163 2 18 2C26.837 2 34 9.163 34 18Z" fill="#26A17B"/>
<path d="M20.0038 20.1363V20.1343C19.8938 20.1423 19.3268 20.1763 18.0618 20.1763C17.0518 20.1763 16.3408 20.1463 16.0908 20.1343V20.1373C12.2028 19.9663 9.30078 19.2893 9.30078 18.4793C9.30078 17.6703 12.2028 16.9933 16.0908 16.8193V19.4633C16.3448 19.4813 17.0728 19.5243 18.0788 19.5243C19.2858 19.5243 19.8908 19.4743 20.0038 19.4643V16.8213C23.8838 16.9943 26.7788 17.6713 26.7788 18.4793C26.7788 19.2893 23.8838 19.9643 20.0038 20.1363ZM19.9228 14.7933V12.4273H25.3368V8.81934H10.5958V12.4273H16.0098V14.7923C11.6098 14.9943 8.30078 15.8663 8.30078 16.9103C8.30078 17.9543 11.6098 18.8253 16.0098 19.0283V26.6103H19.9228V19.0263C24.3158 18.8243 27.6168 17.9533 27.6168 16.9103C27.6168 15.8673 24.3158 14.9963 19.9228 14.7933Z" fill="white"/>
</svg>
