<svg width="36" height="36" viewBox="0 0 36 36" fill="none" xmlns="http://www.w3.org/2000/svg">
<path d="M18 2C26.84 2 34 9.16 34 18C34 26.84 26.84 34 18 34C9.16 34 2 26.84 2 18C2 9.16 9.16 2 18 2Z" fill="#EB0A29"/>
<path d="M24.2135 18.4796C24.2135 18.4796 24.0405 18.7066 23.8665 18.8266C23.3735 19.1866 22.5065 19.5196 21.6135 19.6796C21.1065 19.7726 20.6005 19.7866 20.4535 19.7066C20.3605 19.6536 20.3465 19.6136 20.3735 19.4936C20.4535 19.2266 20.6935 18.9336 21.0665 18.6666C21.2535 18.5336 22.0265 18.0536 22.3865 17.8666C22.9865 17.5466 23.4665 17.3466 23.7865 17.3066C23.8935 17.2936 24.0135 17.2936 24.0535 17.3066C24.1205 17.3336 24.1865 17.5196 24.2135 17.7466C24.2265 17.8666 24.2135 18.3996 24.2135 18.4936V18.4796Z" fill="black"/>
<path d="M15.879 19.6533C15.879 19.6533 15.746 19.7463 15.626 19.7603C15.506 19.7743 15.133 19.7603 14.933 19.7473C14.186 19.6543 13.386 19.4143 12.813 19.1343C12.493 18.9743 12.253 18.8143 12.08 18.6413L11.987 18.5343V18.4013C11.96 18.1743 11.96 17.8013 11.987 17.6683C12 17.5613 12.04 17.4553 12.094 17.3613C12.094 17.3613 12.1474 17.348 12.254 17.3213C12.414 17.3213 12.534 17.3483 12.747 17.4143C13.187 17.5473 13.827 17.8673 14.614 18.3473C15.267 18.7343 15.507 18.9203 15.694 19.1873C15.827 19.3473 15.907 19.5743 15.881 19.6543L15.879 19.6533Z" fill="black"/>
<path d="M20.8804 24.5726C20.8804 24.5726 20.8404 24.7596 20.7874 24.9596C20.7344 25.1596 20.6944 25.3196 20.6944 25.3326C20.6544 25.3326 20.6144 25.3326 20.5874 25.3326H20.4804L20.3204 25.7056C20.2404 25.9056 20.1604 26.0926 20.1474 26.1186L20.1204 26.1716L19.9604 25.9316V24.9586H19.9334C19.9334 24.9586 19.4404 25.0386 19.2534 25.0516C18.4804 25.1316 17.7064 25.1186 16.9334 24.9986C16.8134 24.9856 16.7064 24.9716 16.7064 24.9716C16.7064 24.9716 16.7064 25.1986 16.7064 25.4786V25.9856L16.6534 26.0786C16.6264 26.1316 16.5864 26.1716 16.5864 26.1716C16.5864 26.1716 16.5464 26.1316 16.4534 25.9586C16.3604 25.7856 16.3064 25.6116 16.2534 25.4256L16.2264 25.3186H16.1194L16.0124 25.3316L15.9854 25.1986C15.9724 25.1316 15.9584 25.0116 15.9454 24.9586V24.8516L15.8384 24.7716C15.7854 24.7316 15.7314 24.6786 15.7184 24.6786C15.7054 24.6656 15.6914 24.6386 15.6914 24.6116V24.5716H16.1314H16.5714V24.6116L16.5984 24.6516H16.7454C16.8254 24.6516 17.1054 24.6646 17.3454 24.6786H17.7854L17.8924 24.5186L18.0124 24.3456H18.1594V23.9726V23.5996L17.9594 23.5196C17.3324 23.2396 16.9724 22.9326 16.8264 22.5466C16.7994 22.4666 16.7994 22.4396 16.7864 22.0936C16.7864 21.7466 16.7864 21.7066 16.8134 21.6406C16.8664 21.4676 17.0004 21.3206 17.1734 21.2806C17.2404 21.2676 17.3864 21.2676 18.2264 21.2676H19.2134L19.3204 21.3206C19.4534 21.3876 19.5074 21.4276 19.5874 21.5336C19.6674 21.6396 19.6944 21.7336 19.6944 21.9466C19.6944 22.2536 19.6674 22.5196 19.6414 22.6266C19.6014 22.7736 19.5214 22.9066 19.4414 23.0266C19.2684 23.2536 18.9484 23.4796 18.6544 23.5866L18.5744 23.6136V23.9866V24.3596H18.6544L18.7344 24.3726L18.9474 24.6926H19.4274C19.6944 24.6926 19.9204 24.6926 19.9344 24.6926C19.9744 24.6926 19.9744 24.6926 20.0144 24.6396L20.0544 24.5726H20.4544C20.7614 24.5596 20.8544 24.5726 20.8544 24.5726H20.8804Z" fill="black"/>
<path d="M19.012 25.587C18.945 25.627 18.905 25.64 18.892 25.64C18.892 25.64 18.825 25.6 18.785 25.56L18.692 25.48L18.599 25.587C18.386 25.814 18.372 25.827 18.319 25.84C18.226 25.84 18.199 25.84 18.079 25.653C18.012 25.56 17.972 25.48 17.972 25.48C17.972 25.48 17.932 25.48 17.879 25.48H17.786L17.746 25.56L17.706 25.653L17.626 25.626C17.626 25.626 17.493 25.586 17.439 25.546L17.332 25.493V25.293H18.279H19.226V25.386C19.226 25.493 19.226 25.493 19.079 25.586L19.012 25.587Z" fill="black"/>
<path d="M27.8531 21.2799C27.8531 21.2799 27.8531 21.2399 27.8531 21.1999C27.0001 21.1069 24.5861 21.0529 22.3331 22.9069C22.3331 22.9069 21.6131 19.5869 18.2131 19.5869C14.8131 19.5869 13.5601 22.9069 13.5601 22.9069C11.6531 20.8669 9.12006 21.0139 8.20006 21.1469C8.20006 21.1739 8.20006 21.1869 8.20006 21.2139C8.17306 21.7209 8.18706 21.9739 8.26706 22.2939C8.53406 23.3069 9.34706 24.4139 10.6271 25.4939C12.7201 27.2809 15.5601 28.5609 17.7201 28.7069C19.9601 28.8539 23.2801 27.5469 25.4801 25.6269C25.8271 25.3199 26.1471 24.9999 26.4531 24.6539C26.6661 24.4009 27.0001 23.9609 26.9731 23.9609C26.9731 23.9609 26.9731 23.9609 26.9861 23.9479C26.9861 23.9479 27.0131 23.9349 26.9991 23.9209C26.9991 23.9209 26.9991 23.9079 27.0121 23.9079C27.0251 23.9079 27.0251 23.9079 27.0251 23.8949C27.0251 23.8819 27.0251 23.8819 27.0381 23.8819C27.0381 23.8819 27.0511 23.8689 27.0381 23.8549V23.8419C27.0381 23.8419 27.0511 23.8419 27.0511 23.8289C27.0511 23.8159 27.0511 23.8159 27.0641 23.8159C27.0771 23.8159 27.0771 23.8159 27.0771 23.8029C27.0771 23.7759 27.1041 23.7499 27.1171 23.7229C27.1701 23.6429 27.3841 23.2699 27.4101 23.2029C27.6101 22.7499 27.7431 22.3359 27.7971 21.9359C27.8241 21.7359 27.8371 21.3889 27.8241 21.2959L27.8531 21.2799ZM19.0131 25.5869C18.9461 25.6269 18.9061 25.6399 18.8931 25.6399C18.8931 25.6399 18.8261 25.5999 18.7861 25.5599L18.6931 25.4799L18.6001 25.5869C18.3871 25.8139 18.3731 25.8269 18.3201 25.8399C18.2271 25.8399 18.2001 25.8399 18.0801 25.6529C18.0131 25.5599 17.9731 25.4799 17.9731 25.4799C17.9731 25.4799 17.9331 25.4799 17.8801 25.4799H17.7871L17.7471 25.5599L17.7071 25.6529L17.6271 25.6259C17.6271 25.6259 17.4941 25.5859 17.4401 25.5459L17.3331 25.4929V25.2929H18.2801H19.2271V25.3859C19.2271 25.4929 19.2271 25.4929 19.0801 25.5859L19.0131 25.5869ZM20.7871 24.9469C20.7341 25.1469 20.6941 25.3069 20.6941 25.3199C20.6541 25.3199 20.6141 25.3199 20.5871 25.3199H20.4801L20.3331 25.6929C20.2531 25.8929 20.1731 26.0799 20.1601 26.1059L20.1331 26.1589L19.9731 25.9189V24.9459H19.9461C19.9461 24.9459 19.4531 25.0259 19.2661 25.0389C18.4931 25.1189 17.7191 25.1059 16.9461 24.9859C16.8261 24.9729 16.7191 24.9589 16.7191 24.9589C16.7191 24.9589 16.7191 25.1859 16.7191 25.4659V25.9729L16.6661 26.0659C16.6391 26.1189 16.5991 26.1589 16.5991 26.1589C16.5991 26.1589 16.5591 26.1189 16.4661 25.9459C16.3731 25.7729 16.3191 25.5989 16.2661 25.4129L16.2391 25.3059H16.1321L16.0251 25.3189L15.9981 25.1859C15.9851 25.1189 15.9711 24.9989 15.9581 24.9459V24.8389L15.8511 24.7589C15.7981 24.7189 15.7441 24.6659 15.7311 24.6659C15.7181 24.6529 15.7041 24.6259 15.7041 24.5989V24.5589H16.1441H16.5841V24.5989L16.6111 24.6389H16.7581C16.8381 24.6389 17.1181 24.6519 17.3581 24.6659H17.7981L17.9051 24.5059L18.0251 24.3329H18.1721V23.9599V23.5869L17.9721 23.5069C17.3451 23.2269 16.9851 22.9199 16.8391 22.5339C16.8121 22.4539 16.8121 22.4269 16.7991 22.0809C16.7991 21.7339 16.7991 21.6939 16.8261 21.6279C16.8791 21.4549 17.0131 21.3079 17.1861 21.2679C17.2531 21.2549 17.3991 21.2549 18.2391 21.2549H19.2261L19.3331 21.3079C19.4661 21.3749 19.5201 21.4149 19.6001 21.5209C19.6801 21.6269 19.7071 21.7209 19.7071 21.9339C19.7071 22.2409 19.6801 22.5069 19.6541 22.6139C19.6141 22.7609 19.5341 22.8939 19.4541 23.0139C19.2811 23.2409 18.9611 23.4669 18.6671 23.5739L18.5871 23.6009V23.9739V24.3469H18.6671L18.7471 24.3599L18.9601 24.6799H19.4401C19.7071 24.6799 19.9331 24.6799 19.9471 24.6799C19.9871 24.6799 19.9871 24.6799 20.0271 24.6269L20.0671 24.5599H20.4671C20.7871 24.5599 20.8671 24.5599 20.8671 24.5729C20.8671 24.5729 20.8141 24.7459 20.7601 24.9459L20.7871 24.9469Z" fill="white"/>
<path d="M27.8278 20.9195C27.8278 20.7595 27.8008 20.5325 27.8008 20.4265C27.6538 18.8265 27.2408 17.5065 26.4678 16.1195C26.4408 16.0665 26.4008 16.0125 26.3878 15.9725C26.3878 15.9725 26.3878 15.9455 26.3748 15.9455C26.4818 15.6125 26.9348 14.2385 27.2948 12.6655C27.7748 10.5325 28.0818 8.03853 27.1478 7.29253C27.1478 7.29253 25.5208 7.17253 23.3478 9.30553C22.7608 9.89253 22.2148 10.5325 21.7348 11.2125L21.5878 11.1595C20.7078 10.8795 19.8008 10.6925 18.8948 10.6395C18.6148 10.6125 17.5878 10.6125 17.2548 10.6395C16.2418 10.7065 15.4678 10.8525 14.5748 11.1595C14.5348 11.1725 14.5078 11.1865 14.4818 11.1995C13.9888 10.5195 13.4288 9.87953 12.8148 9.30653C10.5478 7.15953 8.86784 7.27953 8.86784 7.27953C7.86784 8.05253 8.21484 10.6665 8.72084 12.8665C9.05384 14.3195 9.48084 15.6135 9.62784 16.0665C9.62784 16.0935 9.60084 16.1195 9.58784 16.1465C8.76084 17.8135 8.32084 19.4265 8.21484 21.1335C9.13484 21.0005 11.6818 20.8535 13.5878 22.8935C13.5878 22.8935 14.8408 19.5735 18.2408 19.5735C21.6408 19.5735 22.3608 22.8935 22.3608 22.8935C24.6138 21.0405 27.0278 21.0935 27.8808 21.1865C27.8808 21.1195 27.8808 21.0135 27.8678 20.9065L27.8278 20.9195ZM10.2678 14.7465C10.2678 14.7465 8.94784 11.4395 9.28084 9.55953C9.33384 9.23953 9.44084 8.95953 9.61384 8.74653C9.61384 8.74653 11.1068 8.89353 13.5338 11.5865C13.5338 11.5865 13.0808 11.8135 12.4538 12.2795C11.7868 12.7865 10.9338 13.5995 10.2668 14.7465H10.2678ZM15.8808 19.6525C15.8808 19.6525 15.7478 19.7455 15.6278 19.7595C15.5078 19.7735 15.1348 19.7595 14.9348 19.7465C14.1878 19.6535 13.3878 19.4135 12.8148 19.1335C12.4948 18.9735 12.2548 18.8135 12.0818 18.6405L11.9888 18.5335V18.4005C11.9618 18.1735 11.9618 17.8005 11.9888 17.6675C12.0018 17.5605 12.0418 17.4545 12.0958 17.3605C12.0958 17.3605 12.1492 17.3472 12.2558 17.3205C12.4158 17.3205 12.5358 17.3475 12.7488 17.4135C13.1888 17.5465 13.8288 17.8665 14.6158 18.3465C15.2688 18.7335 15.5088 18.9195 15.6958 19.1865C15.8288 19.3465 15.9088 19.5735 15.8828 19.6535L15.8808 19.6525ZM24.2008 18.4795C24.2008 18.4795 24.0278 18.7065 23.8538 18.8265C23.3608 19.1865 22.4938 19.5195 21.6008 19.6795C21.0938 19.7725 20.5878 19.7865 20.4408 19.7065C20.3478 19.6535 20.3338 19.6135 20.3608 19.4935C20.4408 19.2265 20.6808 18.9335 21.0538 18.6665C21.2408 18.5335 22.0138 18.0535 22.3738 17.8665C22.9738 17.5465 23.4538 17.3465 23.7738 17.3065C23.8808 17.2935 24.0008 17.2935 24.0408 17.3065C24.1078 17.3335 24.1738 17.5195 24.2008 17.7465C24.2138 17.8665 24.2008 18.3995 24.2008 18.4935V18.4795ZM23.6138 12.2665C23.0138 11.7865 22.5738 11.5735 22.5738 11.5735C24.9068 8.89353 26.3608 8.73353 26.3608 8.73353C26.5208 8.94653 26.6278 9.22653 26.6808 9.54653C27.0138 11.4395 25.7338 14.7465 25.7338 14.7465C25.2008 13.7995 24.4808 12.9595 23.6268 12.2795L23.6138 12.2665Z" fill="#FFA409"/>
<path d="M26.6809 9.54737C26.4009 9.50737 25.1079 9.50738 23.6279 12.2674C23.0279 11.7874 22.5879 11.5744 22.5879 11.5744C24.9209 8.89438 26.3749 8.73438 26.3749 8.73438C26.5349 8.94737 26.6419 9.22737 26.6949 9.54737H26.6809Z" fill="black"/>
<path d="M25.734 14.7473C25.201 13.7873 24.481 12.9603 23.627 12.2803C25.107 9.50731 26.4 9.52031 26.68 9.56031C27.013 11.4533 25.733 14.7603 25.733 14.7603L25.734 14.7473Z" fill="black"/>
<path d="M13.533 11.5734C13.533 11.5734 13.08 11.8004 12.453 12.2664C10.92 9.4934 9.57297 9.5064 9.29297 9.5464C9.34597 9.2264 9.45297 8.9464 9.62597 8.7334C9.62597 8.7334 11.133 8.8804 13.546 11.5734H13.533Z" fill="#FFA409"/>
<path d="M12.4525 12.2665C11.7855 12.7865 10.9195 13.5865 10.2655 14.7335C10.2655 14.7335 8.94547 11.4265 9.27847 9.53352C9.55847 9.49352 10.9185 9.49352 12.4385 12.2535L12.4525 12.2665Z" fill="black"/>
<path d="M22.1601 16.5735C22.1601 16.5735 21.0271 16.6405 21.1731 15.7605C21.3191 14.8805 22.2001 14.7735 22.4401 14.8005C22.6801 14.8275 23.6801 15.1875 23.5071 15.9335C23.3341 16.6795 23.0801 16.5335 22.9471 16.5735C22.8141 16.6135 22.1741 16.5735 22.1741 16.5735H22.1601Z" fill="black"/>
<path d="M13.8125 16.5735C13.8125 16.5735 12.6795 16.6405 12.8255 15.7605C12.9715 14.8805 13.8525 14.7735 14.0925 14.8005C14.3325 14.8275 15.3325 15.1875 15.1595 15.9335C14.9865 16.6795 14.7325 16.5335 14.5995 16.5735C14.4665 16.6135 13.8265 16.5735 13.8265 16.5735H13.8125Z" fill="black"/>
</svg>
