<svg width="28" height="28" viewBox="0 0 28 28" fill="none" xmlns="http://www.w3.org/2000/svg">
<path d="M28 14C28 21.7324 21.7324 28 14 28C6.26762 28 0 21.7324 0 14C0 6.26762 6.26762 0 14 0C21.7324 0 28 6.26762 28 14Z" fill="#279904"/>
<path d="M8.23578 15.8898H5.77441V21.1748H3.30078V7.02344H9.51941C12.3194 7.02344 14.1394 8.84344 14.1394 11.4571C14.1394 14.0707 12.483 15.3421 10.7908 15.6107L14.2444 21.1643H11.3858L8.24716 15.8793L8.23578 15.8898ZM9.16941 9.21619H5.77441V13.7076H9.16941C10.5694 13.7076 11.5844 12.8212 11.5844 11.4562C11.5844 10.0912 10.5694 9.20481 9.16941 9.20481V9.21619Z" fill="#FFC800"/>
<path d="M20.6498 21.3855V23.2991H18.9584V21.4091C16.7534 21.2341 15.1434 20.3705 14.0234 19.1805L15.3998 17.2669C16.2284 18.1419 17.4298 18.9232 18.9584 19.1569V15.0619C16.7771 14.5132 14.4671 13.7082 14.4671 10.9432C14.4671 8.7846 16.2284 7.05823 18.9584 6.8246V4.87598H20.6498V6.87098C22.3884 7.04598 23.8112 7.72235 24.9084 8.7846L23.4848 10.6282C22.7034 9.84685 21.6998 9.35685 20.6384 9.14685V12.7982C22.8434 13.3932 25.2234 14.2219 25.2234 17.0569C25.2234 19.2155 23.8234 21.0819 20.6384 21.3855H20.6498ZM18.9584 12.3555V9.0541C17.7448 9.18273 17.0098 9.83548 17.0098 10.7927C17.0098 11.6214 17.8384 12.0405 18.9584 12.3555ZM22.7148 17.2905C22.7148 16.3105 21.8398 15.8669 20.6612 15.5055V19.1569C22.1198 18.9469 22.7148 18.0955 22.7148 17.2905Z" fill="#FFC800"/>
</svg>
