<svg width="36" height="36" viewBox="0 0 36 36" xmlns="http://www.w3.org/2000/svg">
<path d="M33.999 18C33.999 18.8 33.946 19.6 33.826 20.373C33.799 20.56 33.773 20.746 33.733 20.933C33.573 21.813 33.333 22.666 33.026 23.493H33.013C33.013 23.493 33.013 23.52 33 23.533C32.867 23.906 32.733 24.28 32.56 24.64C31.76 26.387 30.667 27.96 29.333 29.307H29.32C29.08 29.56 28.827 29.787 28.573 30.014C26.293 32.027 23.426 33.401 20.253 33.841C20.186 33.854 20.12 33.854 20.053 33.868C19.386 33.961 18.693 34.001 18 34.001C16.347 34.001 14.747 33.748 13.24 33.281C13.24 33.281 13.231 33.281 13.213 33.281C12.946 33.201 12.693 33.121 12.44 33.014C11.107 32.534 9.853 31.867 8.72 31.054C8.427 30.854 8.133 30.627 7.853 30.387C7.84 30.387 7.826 30.36 7.8 30.36C6.947 29.64 6.173 28.84 5.48 27.973C5.16 27.573 4.853 27.16 4.587 26.733C4.587 26.72 4.587 26.706 4.574 26.706C3.294 24.759 2.454 22.506 2.147 20.106C2.107 19.919 2.094 19.746 2.08 19.573C2.027 19.053 2 18.533 2 18.013C2 17.626 2.013 17.253 2.053 16.866C2.053 16.719 2.066 16.573 2.08 16.413C2.373 13.4 3.52 10.613 5.267 8.32C5.4 8.147 5.547 7.973 5.694 7.8C8.627 4.253 13.054 2 18.001 2C19.014 2 20.001 2.093 20.961 2.28C21.201 2.32 21.441 2.373 21.668 2.427C23.015 2.734 24.281 3.214 25.468 3.84C25.695 3.96 25.908 4.093 26.135 4.213C29.335 6.106 31.828 9.093 33.082 12.666C33.149 12.813 33.202 12.973 33.242 13.119C33.535 14.012 33.735 14.932 33.855 15.879C33.895 16.079 33.908 16.279 33.935 16.466C33.975 16.973 34.002 17.479 34.002 17.999L33.999 18Z" fill="#024AD6"/>
<path d="M32.6256 24.2532C32.5986 24.3862 32.5856 24.5202 32.5586 24.6402C32.7316 24.2802 32.8656 23.9072 32.9986 23.5332C32.7986 23.7202 32.6656 23.9862 32.6256 24.2532Z" fill="#6FC0FF"/>
<path d="M33.2397 21.2801C32.8127 21.8931 32.3067 22.4531 31.7467 22.9601C31.4667 23.2131 31.2937 23.5601 31.2537 23.9331C31.2267 24.1861 31.1867 24.4401 31.1467 24.6801C30.7597 26.7071 29.8537 28.1201 29.5197 28.6531L28.5727 30.0131C28.8257 29.7861 29.0797 29.5601 29.3197 29.3201H29.3327L29.6927 28.7731C30.0527 28.2261 30.9727 26.7861 31.3597 24.7201C31.4127 24.4671 31.4397 24.2131 31.4797 23.9601C31.5067 23.6271 31.6527 23.3331 31.9067 23.1201C32.4667 22.6001 32.9737 22.0271 33.4137 21.4001C33.5207 21.2531 33.6267 21.0931 33.7337 20.9331C33.7737 20.7461 33.8007 20.5601 33.8267 20.3731C33.6397 20.6931 33.4537 20.9861 33.2397 21.2801ZM5.22673 8.41311C4.95973 9.14611 4.77373 9.89311 4.67973 10.6531L4.61273 10.8661L4.51973 11.0131C4.10673 11.6401 3.23973 12.9461 2.90673 14.8261C2.86673 15.0261 2.78673 15.2261 2.67973 15.4131L2.07973 16.4001C2.06673 16.5601 2.05273 16.7071 2.05273 16.8531C2.09273 16.7861 2.14573 16.7061 2.19973 16.6261L2.86673 15.5331C2.98673 15.3201 3.07973 15.0931 3.11973 14.8661C3.45273 13.0261 4.29273 11.7461 4.70673 11.1331L4.75973 11.0531L4.89273 10.6931C4.99973 9.94611 5.17273 9.20011 5.43973 8.49311L5.50673 8.29311C5.50673 8.29311 5.53373 8.22611 5.57373 8.12011C5.60073 8.02711 5.64073 7.92011 5.69373 7.78711C5.54673 7.96011 5.40073 8.13411 5.26673 8.30711L5.22673 8.41311Z" fill="black"/>
<path d="M33.8511 15.88C33.8241 15.96 33.7981 16.027 33.7711 16.093V16.186C33.6911 16.786 33.5581 17.373 33.3711 17.946C33.0781 18.839 32.6381 19.679 32.0911 20.439C31.6241 21.106 31.0641 21.706 30.4381 22.212C30.2651 22.332 30.1311 22.505 30.0381 22.692C29.9451 22.879 29.8911 23.079 29.8781 23.292C29.8781 23.665 29.8251 24.039 29.7451 24.412C29.4251 26.172 28.6251 27.399 28.2921 27.919L27.5321 29.066C26.3721 30.599 25.0121 31.586 23.3721 32.093L23.0391 32.2L22.6791 32.267C22.2121 32.347 21.7461 32.387 21.2661 32.387H20.7731L20.2261 32.414C19.9331 32.414 19.6531 32.467 19.3731 32.561C18.2261 32.948 16.8931 33.134 15.1731 33.134C14.2001 33.134 13.2531 33.067 12.4401 33.001C12.6931 33.108 12.9471 33.188 13.2131 33.268C13.2131 33.268 13.2221 33.268 13.2401 33.268C13.8531 33.295 14.5071 33.321 15.1731 33.321C16.9061 33.321 18.2661 33.134 19.4401 32.748C19.6931 32.655 19.9601 32.615 20.2271 32.601L20.7871 32.574H21.2541C21.7471 32.587 22.2271 32.534 22.7071 32.454L23.0941 32.387L23.4411 32.28C25.1211 31.76 26.5211 30.747 27.6941 29.173L28.4671 28.026C28.8141 27.493 29.6271 26.239 29.9601 24.439C30.0271 24.052 30.0671 23.666 30.0931 23.279C30.0931 23.106 30.1461 22.932 30.2261 22.772C30.3061 22.612 30.4261 22.465 30.5591 22.359C31.2121 21.839 31.7861 21.226 32.2521 20.546C32.8251 19.773 33.2651 18.906 33.5591 17.999C33.7321 17.492 33.8521 16.972 33.9321 16.452C33.9051 16.265 33.8921 16.065 33.8521 15.865L33.8511 15.88ZM13.9581 3.37299C14.0651 3.37299 14.1581 3.37299 14.2781 3.37299C14.8511 3.37299 15.4111 3.45299 15.9711 3.58599C16.4781 3.71899 17.0111 3.66599 17.4911 3.42599C18.4241 2.97299 19.3581 2.69299 20.2781 2.57299C20.3451 2.57299 20.4111 2.55999 20.4651 2.54599C20.6121 2.54599 20.8251 2.50599 21.1051 2.47899C21.2651 2.46599 21.4521 2.45199 21.6651 2.43899C21.4381 2.38599 21.1981 2.33199 20.9581 2.29199C20.7451 2.31899 20.5581 2.33199 20.4381 2.34499C20.3851 2.35799 20.3181 2.35799 20.2381 2.37199C19.3051 2.49199 18.3451 2.78499 17.3981 3.23899C16.9711 3.45199 16.4781 3.50599 16.0111 3.38599C15.4511 3.23899 14.8641 3.17299 14.2781 3.17299H13.7981C13.1181 3.22599 12.4381 3.34599 11.7851 3.53299C10.6521 3.86599 9.59808 4.46599 8.73208 5.25299L8.41208 5.54599L8.11908 5.90599C7.23908 6.98599 6.90608 7.98599 6.71908 8.51899C6.69208 8.62599 6.66608 8.69199 6.63908 8.74599L6.58608 8.90599C6.34608 9.58599 6.17308 10.279 6.09308 10.973C6.05308 11.066 6.02608 11.16 6.00008 11.24L5.96008 11.373C5.93308 11.453 5.89308 11.546 5.86708 11.6L5.72008 11.813C5.34708 12.386 4.54708 13.586 4.29308 15.266C4.25308 15.519 4.16008 15.773 4.04008 15.999L3.64008 16.732L3.60008 16.785C3.60008 16.785 3.50708 16.905 3.45308 16.972L3.25308 17.252C2.70608 18.039 2.32008 18.799 2.08008 19.572C2.09308 19.745 2.10708 19.919 2.14708 20.105C2.36008 19.198 2.77408 18.305 3.42708 17.358L3.61408 17.105C3.61408 17.105 3.72108 16.972 3.77408 16.905L4.21408 16.105C4.36108 15.852 4.45408 15.572 4.49408 15.292C4.74708 13.665 5.52108 12.492 5.90708 11.932L6.05408 11.692C6.08108 11.625 6.12108 11.532 6.16108 11.439L6.20108 11.306C6.22808 11.226 6.25408 11.133 6.29408 11.026C6.37408 10.333 6.54708 9.63899 6.78708 8.98599L6.84008 8.82599C6.84008 8.82599 6.88008 8.70599 6.92008 8.58599C7.09308 8.06599 7.42708 7.09299 8.28008 6.03899L8.56008 5.67899L8.86708 5.41199C9.72008 4.63899 10.7471 4.06499 11.8401 3.73199C12.4801 3.54499 13.1471 3.42499 13.8131 3.38499H13.9601L13.9581 3.37299Z" fill="#6FC0FF"/>
<path d="M33.0786 12.6666C33.0656 13.1466 32.9856 13.5596 32.9316 13.8666V13.9066C32.8246 14.5066 32.6516 15.0936 32.4116 15.6536V15.7206L32.3846 15.7736C32.3846 15.8266 32.3576 15.8806 32.3576 15.9336V16.0136C32.2906 16.5066 32.1846 17.0136 32.0106 17.4936C31.7706 18.2536 31.3976 18.9736 30.9306 19.6136C30.4636 20.2806 29.9436 20.8136 29.3576 21.2406C29.0906 21.4406 28.8646 21.7076 28.7046 22.0006C28.5576 22.2936 28.4646 22.6406 28.4646 22.9736C28.4646 23.3736 28.4246 23.7606 28.3446 24.1606C28.0776 25.6406 27.4246 26.6536 27.0646 27.2006L26.5046 28.0406C25.5176 29.4276 24.3576 30.3076 22.9446 30.7336L22.8776 30.7606C22.7576 30.8006 22.6376 30.8276 22.5176 30.8406L22.4246 30.8676C22.0376 30.9346 21.6516 30.9606 21.2646 30.9606H20.9176C20.9176 30.9606 20.8106 30.9606 20.6776 30.9736H20.4376C20.2776 30.9866 20.0906 30.9866 19.9176 31.0006C19.6246 31.0136 19.3176 31.0676 19.0376 31.1736C18.0246 31.5336 16.7846 31.7066 15.1706 31.7066C14.1436 31.7066 13.1436 31.6396 12.2906 31.5736L12.0376 31.5466C11.8646 31.5196 11.6776 31.5066 11.4906 31.4796C10.7176 31.3996 9.66356 31.2796 8.49056 30.7326L8.21056 30.5856C8.09056 30.5186 7.97056 30.4526 7.85056 30.3726C8.13056 30.6126 8.42356 30.8396 8.71756 31.0396C9.79756 31.4926 10.7576 31.5996 11.4776 31.6796C11.6506 31.6926 11.8376 31.7196 12.0106 31.7326L12.2776 31.7596C13.1306 31.8266 14.1446 31.9066 15.1706 31.9066C16.8106 31.9066 18.0636 31.7336 19.1036 31.3596C19.3706 31.2526 19.6506 31.1996 19.9306 31.1866C20.0906 31.1866 20.2776 31.1736 20.4506 31.1736H20.6906L21.2776 31.1606C21.6646 31.1606 22.0646 31.1206 22.4506 31.0536H22.5436C22.6766 31.0136 22.7966 30.9866 22.9306 30.9466L22.9976 30.9196C24.4506 30.4796 25.6506 29.5726 26.6646 28.1466L27.2246 27.3066C27.5846 26.7466 28.2516 25.7196 28.5446 24.1866C28.6116 23.7866 28.6516 23.3866 28.6516 22.9736C28.6646 22.6666 28.7446 22.3606 28.8786 22.0936C29.0256 21.8136 29.2256 21.5736 29.4786 21.4006C30.0786 20.9606 30.6116 20.4136 31.0916 19.7336C31.5716 19.0666 31.9446 18.3336 32.1986 17.5606C32.3716 17.0676 32.4786 16.5476 32.5456 16.0276V15.9606C32.5456 15.9606 32.5586 15.8676 32.5726 15.8006L32.5996 15.7336C32.8396 15.1606 33.0126 14.5606 33.1196 13.9466V13.8936C33.1596 13.6806 33.1996 13.4136 33.2396 13.1206C33.1996 12.9736 33.1466 12.8136 33.0796 12.6676L33.0786 12.6666ZM8.15856 9.33259C8.19856 9.22559 8.22556 9.14559 8.27856 9.02559C8.42556 8.55859 8.69156 7.77259 9.38556 6.91859L9.59856 6.66559L9.82556 6.45259C11.4656 4.95959 13.3056 4.83959 13.9186 4.79959H14.0256L14.2656 4.78659C14.9986 4.78659 15.7056 4.93359 16.3856 5.21359C16.5186 5.28059 16.6526 5.30659 16.7986 5.29359C16.9456 5.29359 17.0786 5.25359 17.1986 5.18659H17.2256C17.8386 4.82659 18.9856 4.15959 20.4656 3.97359C20.5326 3.97359 20.5986 3.96059 20.6386 3.96059C20.7716 3.93359 20.9856 3.92059 21.2386 3.89359C21.6786 3.85359 22.3456 3.80059 23.0656 3.80059C24.2656 3.80059 25.2786 3.93359 26.1326 4.21359C25.9056 4.09359 25.6926 3.96059 25.4656 3.84059C24.7586 3.68059 23.9726 3.60059 23.0656 3.60059C22.3456 3.60059 21.6656 3.65359 21.2126 3.69359C20.9596 3.72059 20.7456 3.74659 20.6256 3.76059C20.5726 3.77359 20.5056 3.77359 20.4386 3.78759C18.9456 3.97459 17.7856 4.62759 17.1456 5.00059H17.1326C17.0256 5.06759 16.9056 5.09359 16.7996 5.09359C16.6796 5.10659 16.5596 5.08059 16.4526 5.04059C15.7596 4.74759 15.0256 4.60059 14.2656 4.60059H13.9056C13.2786 4.65359 11.3856 4.77359 9.69256 6.30759L9.45256 6.53459L9.22556 6.80159C8.51856 7.68159 8.25256 8.48159 8.09256 8.97459C8.05256 9.08159 8.02556 9.16159 7.98556 9.26759L7.93256 9.38759C7.71956 10.0006 7.55956 10.6276 7.50556 11.2546C7.49256 11.2816 7.49256 11.2946 7.49256 11.2946C7.42556 11.4946 7.35956 11.6946 7.31956 11.8276C7.23956 12.0406 7.14656 12.2406 7.11956 12.3076L6.99956 12.4806C6.99956 12.4806 6.97256 12.5336 6.94656 12.5606L6.91956 12.6006C6.55956 13.1476 5.79956 14.2936 5.66656 15.8406C5.65356 16.0136 5.61356 16.1736 5.54656 16.3336L5.39956 16.7206C5.35956 16.8276 5.29256 16.9336 5.21256 17.0406C5.09256 17.1876 4.97256 17.3336 4.86556 17.4936L4.83856 17.5206C4.83856 17.5206 4.74556 17.6406 4.69156 17.7076L4.43856 18.0546C3.09156 19.9876 2.83856 21.6816 3.51856 24.0946L3.55856 24.2276C3.70556 24.6946 3.87856 25.1876 4.13156 25.7076C4.18456 25.8276 4.23856 25.9476 4.29156 26.0676L4.33156 26.1476C4.41156 26.3206 4.49156 26.5076 4.57156 26.6946C4.58456 26.6946 4.58456 26.6946 4.58456 26.7216C4.85156 27.1486 5.15756 27.5616 5.47756 27.9616C5.05056 27.2946 4.75756 26.6416 4.50456 26.0686L4.46456 25.9886C4.41156 25.8686 4.35756 25.7486 4.30456 25.6286C4.05156 25.1216 3.89156 24.6286 3.74456 24.1756L3.70456 24.0426C3.03756 21.6956 3.29156 20.0426 4.58456 18.1626L4.85156 17.8296C4.85156 17.8296 4.94456 17.7096 4.98456 17.6426L5.01156 17.6026C5.13156 17.4556 5.23856 17.3096 5.35856 17.1626C5.45156 17.0426 5.53156 16.9226 5.57156 16.7896L5.73156 16.4026C5.79856 16.2296 5.83856 16.0426 5.85156 15.8696C5.98456 14.3626 6.71856 13.2566 7.07856 12.7096L7.10556 12.6696C7.10556 12.6696 7.15856 12.6026 7.17256 12.5896L7.27956 12.4026C7.33256 12.3226 7.41256 12.1226 7.50656 11.8956C7.54656 11.7626 7.61356 11.5486 7.67956 11.3486V11.3086C7.75956 10.6686 7.90656 10.0416 8.11956 9.45559L8.15956 9.33559L8.15856 9.33259Z" fill="#6FC0FF"/>
<path d="M31.3853 10.3601L31.3323 10.2401L31.2653 10.1201C30.8123 9.38706 30.3053 9.00006 29.9983 8.76006C29.9313 8.70706 29.8653 8.65306 29.8113 8.60006L29.6513 8.45306C29.3443 8.17306 29.1983 7.98606 28.9843 7.72006C28.3173 6.86706 27.6243 6.10706 25.8773 5.45306L25.7973 5.42606C25.0643 5.15906 24.1573 5.03906 23.0643 5.03906C22.3973 5.03906 21.7573 5.09206 21.3443 5.11906C21.1043 5.14606 20.9173 5.17206 20.7843 5.18606C20.7443 5.18606 20.6773 5.18606 20.6243 5.21306C19.3973 5.36006 18.4113 5.92006 17.8243 6.26606C17.5573 6.39906 17.2913 6.51906 16.9973 6.62606C16.9043 6.66606 16.7973 6.67906 16.6773 6.67906C16.5703 6.66606 16.4643 6.63906 16.3703 6.59906C15.9033 6.38606 15.0103 6.02606 14.2633 6.02606C14.1963 6.02606 14.1303 6.02606 14.0763 6.02606H13.9963C13.1293 6.07906 11.8363 6.27906 10.6493 7.35906L10.4893 7.50606L10.3423 7.69306C9.78231 8.37306 9.58231 8.98606 9.44931 9.40006C9.40931 9.53306 9.36931 9.64006 9.31631 9.77306L9.28931 9.85306C9.10231 10.3601 8.96931 10.8931 8.91631 11.4401C8.88931 11.5871 8.88931 11.6001 8.87631 11.6531C8.79631 11.8661 8.71631 12.1461 8.67631 12.2801C8.55631 12.6131 8.38331 12.9601 8.32931 13.0531L8.20931 13.2261C8.20931 13.2261 8.16931 13.2931 8.14231 13.3331L8.10231 13.3861C7.75531 13.9061 7.11531 14.8791 7.07531 16.1591V16.4661L7.04831 16.9331C7.04831 17.0401 6.99531 17.1461 6.92831 17.2261C6.52831 17.6531 6.26131 17.9991 5.96831 18.3731C5.88831 18.4801 5.80831 18.6001 5.71531 18.7201L5.60831 18.8531C4.52831 20.4261 4.34131 21.6931 4.90131 23.6931L4.92831 23.7861C5.04831 24.1731 5.20831 24.6261 5.42131 25.0661C5.48831 25.2261 5.56831 25.3861 5.63431 25.5461C6.20731 26.8261 6.91431 28.4261 8.82131 29.4931L9.00831 29.5861C10.0083 30.0531 10.9013 30.1591 11.6353 30.2261C11.8223 30.2531 12.0083 30.2791 12.2083 30.3061H12.3813C13.2083 30.3861 14.1943 30.4531 15.1683 30.4531C16.8213 30.4531 18.0213 30.2661 18.9413 29.8531C19.0083 29.8261 19.0883 29.8001 19.1683 29.7861C19.3283 29.7591 19.9283 29.7331 20.5153 29.7191H20.5953C20.7553 29.7061 20.8483 29.7061 20.9153 29.7061H21.2483C21.5683 29.7061 21.8883 29.6791 22.2083 29.6261L22.4083 29.5861L22.5813 29.5331C24.1943 29.0401 25.9143 26.6661 25.9943 26.5601C26.3543 26.0001 26.8873 25.1601 27.1273 23.9071C27.2603 23.1741 27.2203 22.4541 27.1803 21.8271C27.1673 21.7871 27.1803 21.7201 27.1803 21.6271C27.1933 21.4271 27.2473 21.2401 27.3673 21.0671C27.4743 20.9071 27.6343 20.7741 27.8073 20.6941C28.6343 20.3211 29.3273 19.7211 29.9143 18.8811C30.3143 18.3341 30.6213 17.7211 30.8343 17.0811C30.9673 16.6811 31.0613 16.2541 31.1143 15.8411V15.7741C31.1143 15.6941 31.1413 15.6141 31.1543 15.5211C31.1673 15.4011 31.2073 15.2811 31.2613 15.1741V15.1471C31.4743 14.6801 31.6083 14.1871 31.6883 13.6941V13.6411C31.8213 12.9081 32.0353 11.6681 31.3813 10.3481L31.3853 10.3601ZM31.5313 13.6271V13.6671C31.4383 14.1601 31.3043 14.6401 31.1043 15.1071H31.0913C31.0383 15.2401 30.9983 15.3741 30.9843 15.5071C30.9573 15.6001 30.9573 15.6801 30.9443 15.7601V15.8271C30.8913 16.2401 30.7973 16.6401 30.6643 17.0401C30.4643 17.6671 30.1573 18.2531 29.7713 18.7871C29.1983 19.6001 28.5313 20.1741 27.7443 20.5471C27.5313 20.6401 27.3443 20.7871 27.2243 20.9871C27.0913 21.1741 27.0113 21.4001 26.9973 21.6401V21.8531C27.0373 22.4661 27.0903 23.1731 26.9443 23.8931C26.7173 25.1061 26.1973 25.9331 25.8513 26.4661C25.8243 26.4931 24.0783 28.9061 22.5313 29.3731L22.3583 29.4261L22.1853 29.4661C21.8783 29.5191 21.5723 29.5461 21.2653 29.5461C21.1983 29.5331 21.1323 29.5461 21.0523 29.5331H20.9193C20.9193 29.5331 20.7463 29.5331 20.5863 29.5461H20.5063C19.8663 29.5731 19.3063 29.5991 19.1463 29.6261C19.0533 29.6391 18.9593 29.6661 18.8663 29.7061C17.9733 30.1061 16.7993 30.2791 15.1733 30.2791C14.2003 30.2791 13.2263 30.2121 12.4003 30.1591L12.2403 30.1321C12.0403 30.1051 11.8403 30.0921 11.6533 30.0651C10.9463 29.9851 10.0533 29.8921 9.09331 29.4381L8.90631 29.3451C7.06631 28.3051 6.35931 26.7451 5.79931 25.4921C5.73231 25.3321 5.66631 25.1721 5.58631 25.0121C5.37331 24.5721 5.22631 24.1321 5.10631 23.7451L5.07931 23.6521C4.53231 21.7191 4.70631 20.4921 5.75931 18.9721L5.85231 18.8391C5.94531 18.7191 6.03931 18.6121 6.11931 18.4921C6.39931 18.1321 6.66631 17.7851 7.06631 17.3591C7.15931 17.2521 7.22631 17.1061 7.23931 16.9591L7.26631 16.4791V16.3461L7.25331 16.1861C7.30631 14.9461 7.92031 14.0131 8.26631 13.4931L8.29331 13.4401C8.29331 13.4401 8.34631 13.3601 8.37331 13.3331L8.48031 13.1731C8.54731 13.0661 8.72031 12.7061 8.85331 12.3601C8.89331 12.2131 8.97331 11.9331 9.05331 11.7201C9.08031 11.6401 9.08031 11.6271 9.09331 11.4671C9.14631 10.9471 9.28031 10.4271 9.45331 9.92006L9.48031 9.85306C9.53331 9.70606 9.57331 9.60006 9.62731 9.46606C9.74731 9.06606 9.94731 8.46606 10.4803 7.81306L10.6273 7.64006L10.7743 7.50706C11.9213 6.46706 13.1743 6.26706 14.0143 6.21406H14.2673C14.9873 6.21406 15.8403 6.56106 16.2943 6.76106C16.4143 6.81406 16.5473 6.85406 16.6813 6.85406C16.8153 6.85406 16.9483 6.84106 17.0683 6.78706C17.3613 6.69406 17.6413 6.56006 17.9213 6.41406C18.4943 6.08106 19.4543 5.53406 20.6413 5.38706C20.7083 5.37406 20.7613 5.37406 20.8143 5.36006C20.9473 5.34706 21.1343 5.33306 21.3613 5.30706C21.7743 5.26706 22.4013 5.21406 23.0683 5.21406C24.1483 5.21406 25.0283 5.34706 25.7483 5.58706L25.8153 5.61406C27.5223 6.25406 28.2023 7.00106 28.8553 7.84106C29.0683 8.10806 29.2283 8.30806 29.5353 8.58806L29.6823 8.72106C29.6823 8.72106 29.8293 8.85406 29.8953 8.90806C30.1883 9.13506 30.6823 9.50806 31.1083 10.2151L31.1753 10.3221L31.2283 10.4421C31.8553 11.7091 31.6553 12.9091 31.5353 13.6291L31.5313 13.6271Z" fill="#6FC0FF"/>
<path d="M30.1067 10.9868L30.0397 10.8668C29.7327 10.3598 29.3867 10.0938 29.1327 9.8938C29.0127 9.8008 28.8927 9.7068 28.7857 9.6008L28.7057 9.5208C28.3057 9.1608 28.0927 8.8938 27.8657 8.6008C27.2927 7.8678 26.7857 7.3208 25.3587 6.7738H25.3317C24.7447 6.5738 24.0117 6.4668 23.0647 6.4668C22.5847 6.4668 22.0517 6.4938 21.4917 6.5468C21.2647 6.5738 21.0917 6.5868 20.9847 6.5998H20.9577C20.9577 6.5998 20.8647 6.5998 20.8107 6.6268C19.8637 6.7338 19.0637 7.1998 18.5307 7.5068C18.0237 7.7868 17.2777 8.0668 16.8377 8.1868C16.6247 8.2398 16.3977 8.2138 16.2107 8.1198C16.1307 8.0798 16.0507 8.0268 15.9437 7.9728L15.8637 7.9328C15.5037 7.7458 14.9707 7.4528 14.2637 7.4528H14.1037C13.3967 7.5058 12.4637 7.6658 11.6107 8.4398L11.5307 8.5068L11.4507 8.5998C11.0637 9.0798 10.9307 9.4928 10.8107 9.8668C10.7577 9.9998 10.7177 10.1338 10.6377 10.3198V10.3468C10.4777 10.7598 10.3847 11.1868 10.3307 11.6268C10.3177 11.7998 10.2907 11.9598 10.2377 12.1198C10.1707 12.2928 10.1047 12.5068 10.0647 12.6528L10.0377 12.7458C9.87772 13.1588 9.63772 13.7188 9.49072 13.9058L9.42373 13.9988C9.42373 13.9988 9.37073 14.0788 9.34373 14.1188L9.30373 14.1858C8.99673 14.6528 8.53073 15.3328 8.50373 16.2258V16.4258C8.53073 16.5588 8.54372 16.6928 8.57072 16.8258L8.71772 17.2258C8.71772 17.2258 8.74472 17.3458 8.73072 17.3988C8.71772 17.4658 8.67772 17.5188 8.63772 17.5588C7.86472 18.2788 7.51772 18.7318 7.11772 19.2518C7.02472 19.3718 6.94472 19.4788 6.83772 19.6118L6.78472 19.6788C5.94472 20.9058 5.82472 21.7188 6.27772 23.3188V23.3588C6.39772 23.7058 6.53072 24.1058 6.71772 24.4658C6.78472 24.6258 6.85072 24.7728 6.93072 24.9328V24.9858C7.47772 26.1858 8.03772 27.4258 9.51772 28.2528L9.62472 28.3058C10.3977 28.6788 11.1047 28.7458 11.7847 28.8258C11.9847 28.8528 12.1977 28.8658 12.4117 28.8928H12.5047C13.2917 28.9728 14.2377 29.0398 15.1717 29.0398C16.6247 29.0398 17.6517 28.8798 18.3987 28.5598C18.5587 28.4798 18.7317 28.4268 18.9057 28.3998C19.1727 28.3468 19.6527 28.3328 20.4387 28.3068H20.5187C20.7057 28.2938 20.8387 28.2938 20.9187 28.2938H21.2517C21.5047 28.2938 21.7317 28.2668 21.9717 28.2268H22.0787L22.1587 28.1868C23.3987 27.8138 24.7187 25.9198 24.7717 25.8268C25.1187 25.2938 25.5447 24.6398 25.7317 23.6538C25.8387 23.0938 25.7987 22.5068 25.7587 21.9208C25.7317 21.4938 25.6657 20.5878 25.8517 20.3878L25.9847 20.2008C26.1847 19.8938 26.4917 19.6678 26.8377 19.5608C27.6247 19.3078 28.2107 18.8408 28.7577 18.0538C29.0777 17.6268 29.3307 17.1468 29.4907 16.6408C29.5977 16.3208 29.6637 16.0008 29.7037 15.6678V15.6008C29.7037 15.5078 29.7307 15.4008 29.7567 15.2808C29.7967 15.0538 29.8637 14.8408 29.9437 14.6408C30.1167 14.2678 30.2237 13.8678 30.2907 13.4678V13.4148C30.4107 12.7748 30.5577 11.9078 30.1037 10.9878L30.1067 10.9868ZM30.1327 13.3868V13.4398C30.0527 13.8268 29.9457 14.1998 29.7857 14.5598C29.6927 14.7868 29.6257 15.0128 29.5857 15.2398C29.5587 15.3728 29.5457 15.4798 29.5327 15.5728V15.6528C29.4927 15.9598 29.4127 16.2798 29.3197 16.5858C29.1597 17.0788 28.9327 17.5328 28.6127 17.9458C28.0927 18.7058 27.5327 19.1458 26.7857 19.3858C26.3987 19.5058 26.0527 19.7588 25.8387 20.1058L25.7057 20.2658C25.5057 20.4928 25.5327 21.2258 25.5857 21.9588C25.6127 22.5058 25.6527 23.0788 25.5457 23.6258C25.3727 24.5728 24.9587 25.2128 24.6257 25.7328C24.6257 25.7458 23.2787 27.6528 22.1057 28.0128H22.0387L21.9457 28.0528C21.7187 28.0928 21.4787 28.1058 21.2527 28.1058H20.9197C20.8397 28.1058 20.7067 28.1058 20.4927 28.1058H20.4397C19.6267 28.1328 19.1467 28.1588 18.8797 28.2128C18.6797 28.2398 18.5067 28.3058 18.3197 28.3728C17.6127 28.6928 16.5997 28.8398 15.1727 28.8398C14.2397 28.8398 13.3057 28.7728 12.5197 28.7198H12.4397C12.2127 28.6798 12.0127 28.6528 11.8127 28.6268C11.1327 28.5598 10.4397 28.4798 9.69273 28.1338L9.61273 28.0938C8.17273 27.2808 7.63972 26.0668 7.10572 24.8938V24.8408C7.02572 24.6938 6.94572 24.5338 6.87872 24.3738C6.70572 24.0268 6.57172 23.6268 6.46572 23.2938V23.2538C6.02572 21.7208 6.13272 20.9338 6.94572 19.7738L6.98572 19.7068C7.07872 19.5738 7.17272 19.4668 7.25272 19.3468C7.65272 18.8268 7.99972 18.3868 8.75972 17.6798C8.82672 17.6128 8.87972 17.5198 8.90672 17.4268C8.91972 17.3338 8.91972 17.2398 8.89372 17.1468L8.74673 16.7598C8.71973 16.6398 8.70672 16.5198 8.69372 16.3998V16.2128C8.72072 15.3858 9.16072 14.7198 9.45372 14.2798L9.49372 14.2128C9.49372 14.2128 9.56073 14.1198 9.58673 14.0798L9.63972 13.9998C9.81272 13.7728 10.0667 13.1598 10.1997 12.7998L10.2397 12.6928C10.2797 12.5458 10.3467 12.3328 10.4127 12.1598C10.4657 11.9868 10.5057 11.8128 10.5197 11.6268C10.5597 11.2138 10.6527 10.7868 10.7997 10.3868L10.8267 10.3598C10.8937 10.1868 10.9337 10.0398 10.9867 9.9068C11.0937 9.5468 11.2267 9.1468 11.5997 8.7068L11.6667 8.6268L11.7337 8.5598C12.5467 7.8128 13.4407 7.6668 14.1337 7.6268H14.2667C14.9337 7.6268 15.4397 7.8938 15.7737 8.0798L15.8667 8.1198C15.9597 8.1728 16.0537 8.2268 16.1337 8.2668C16.3607 8.3868 16.6407 8.4138 16.8937 8.3468C17.3467 8.2138 18.0937 7.9338 18.6407 7.6398C19.1477 7.3468 19.9337 6.8928 20.8407 6.7868C20.8937 6.7868 20.9337 6.7738 20.9737 6.7738H21.0007C21.1077 6.7738 21.2937 6.7338 21.5077 6.7208C22.0677 6.6678 22.5877 6.6408 23.0677 6.6408C23.9877 6.6408 24.7077 6.7338 25.2807 6.9338L25.3077 6.8408V6.9338C26.6807 7.4538 27.1747 7.9868 27.7347 8.6938C27.9617 8.9868 28.1747 9.2668 28.5877 9.6408L28.6677 9.7078C28.7747 9.8278 28.8947 9.9348 29.0277 10.0278C29.2677 10.2148 29.6007 10.4678 29.8947 10.9478L29.9477 11.0548C30.3747 11.9218 30.2277 12.7618 30.1347 13.3748L30.1327 13.3868Z" fill="#6FC0FF"/>
<path d="M28.6799 13.0931C28.6129 13.4801 28.5329 13.6661 28.4529 13.8801C28.3599 14.1201 28.2399 14.3731 28.1459 14.9071C28.1059 15.1201 28.0929 15.2671 28.0659 15.4141V15.4271C28.0389 15.6401 28.0259 15.7871 27.9329 16.0541C27.8659 16.2671 27.7459 16.6271 27.4529 17.0141C27.2129 17.3211 26.8259 17.8411 26.3059 17.9071C26.2659 17.9071 26.1589 17.9071 26.1329 17.9071C24.6529 17.1471 23.3729 16.5871 22.9329 16.4671C22.4259 16.3201 22.4799 15.2001 22.5459 14.2141C22.5729 13.7741 22.5989 13.3611 22.5729 13.0011C22.5059 11.7611 22.2799 10.3881 21.1999 9.7211C20.5469 9.3211 19.7199 9.2141 18.9199 9.2011C19.0669 9.1341 19.2269 9.0411 19.4129 8.9341C19.8799 8.6541 20.4659 8.3211 21.0529 8.2671C21.2399 8.2541 21.4259 8.2271 21.6129 8.2001C22.7859 8.0671 23.7859 7.9601 24.8529 8.3201C25.3329 8.4801 26.3329 9.0401 26.5859 9.5471C26.7589 9.9071 27.0659 10.1871 27.6789 10.7601C27.9989 11.0531 28.1989 11.2271 28.3589 11.3471C28.5719 11.5341 28.6119 11.5601 28.6789 11.6941C28.8789 12.0941 28.7989 12.5211 28.7059 13.1071L28.6799 13.0931Z" fill="white"/>
<path d="M23.252 18.2132C23.332 18.2402 23.372 18.3462 23.319 18.4262C23.159 18.6662 22.986 18.9862 22.772 19.3732C22.665 19.5602 22.572 19.7462 22.492 19.8802C22.199 20.3732 22.185 20.7872 22.159 21.1202C22.146 21.4672 22.119 21.6272 21.919 21.7732C21.746 21.8932 21.572 21.9332 20.346 22.1062C20.133 22.1332 20.039 22.1862 19.959 22.2132C19.946 22.2132 19.932 22.2132 19.919 22.2262C19.839 22.2662 19.746 22.1862 19.759 22.0932C19.759 21.9202 19.772 21.7062 19.772 21.4532V21.4002C19.772 21.1602 19.772 20.9602 19.772 20.8132C19.759 20.5062 19.759 20.3732 19.839 20.2402C19.946 20.0802 20.026 20.0272 20.146 19.9472C20.333 19.8272 20.573 19.6802 20.946 19.1602C21.146 18.8932 21.186 18.7472 21.213 18.6132C21.213 18.5602 21.226 18.5462 21.386 18.4262C21.546 18.3062 22.039 17.9332 22.666 18.0392C22.826 18.0662 23.039 18.1322 23.266 18.1992L23.252 18.2132Z" fill="white"/>
<path d="M18.4266 23.853C18.4266 23.853 18.3736 23.906 18.3196 23.906C18.1866 23.906 18.1066 23.879 18.0396 23.813C17.9196 23.666 17.9326 23.346 17.9596 23.173L18.4796 23.04C18.5196 23.32 18.5326 23.707 18.4266 23.867V23.853Z" fill="white"/>
<path d="M18.4657 21.9871C18.4657 22.0671 18.4527 22.1471 18.4527 22.2401C18.4527 22.2671 18.4527 22.3071 18.4527 22.3331C18.4527 22.4131 18.4527 22.5461 18.4527 22.6131C18.2927 22.6661 18.1597 22.6661 17.9727 22.6661C17.9727 22.6131 17.9727 22.5331 17.9727 22.4791C17.9727 22.4391 17.9727 22.3991 17.9727 22.3591C17.9727 22.3191 17.9727 22.2791 17.9727 22.2261C17.9727 22.1731 17.9727 21.9591 17.9997 21.9191C18.0527 21.9191 18.0927 21.9061 18.1467 21.8921C18.2537 21.8651 18.3867 21.8391 18.4797 21.8521C18.4797 21.8921 18.4797 21.9321 18.4797 21.9721L18.4657 21.9871Z" fill="white"/>
<path d="M17.5057 23.6929C17.4787 23.9599 17.3987 24.2799 17.1457 24.3329C17.0387 24.3599 16.9857 24.3329 16.9457 24.2929C16.7727 24.1329 16.7457 23.6659 16.7727 23.3329C16.8797 23.3329 17.0257 23.3059 17.1997 23.2799C17.3067 23.2529 17.4127 23.2399 17.4927 23.2129C17.4927 23.3329 17.5057 23.5199 17.4927 23.6929H17.5057Z" fill="white"/>
<path d="M17.3862 22.747L16.8262 22.947C16.8532 22.734 16.8932 22.427 16.9062 22.214C16.9062 22.067 16.9592 22.027 16.9592 22.014C16.9592 22.014 16.9592 22.014 16.9862 22.014L17.3462 22.001C17.3592 22.161 17.3592 22.534 17.3462 22.761L17.3862 22.747Z" fill="white"/>
<path d="M16.4914 22.5725C16.4644 22.6525 16.4244 22.8925 16.3984 23.0655L15.6914 23.0385C15.7314 22.8255 15.7844 22.5985 15.8514 22.4255C15.9184 22.2525 15.9844 22.1185 16.0384 22.0785C16.1054 22.0385 16.2654 22.0255 16.3584 22.1055C16.5184 22.2385 16.5584 22.3855 16.4914 22.5585V22.5725Z" fill="white"/>
<path d="M16.2254 24.7198C16.1724 24.7998 16.1054 24.8268 16.0384 24.8398C15.9584 24.8398 15.9054 24.8398 15.8514 24.7868C15.6244 24.5868 15.6514 23.9198 15.6514 23.5998C15.9444 23.5328 16.2514 23.4798 16.4114 23.4668C16.4384 23.7338 16.4394 24.4268 16.2254 24.7198Z" fill="white"/>
<path d="M15.307 23.0128C15.267 23.1058 15.24 23.1858 15.214 23.2658C15.134 23.2928 14.881 23.2658 14.627 23.2128L14.8 22.1058C15.093 22.0258 15.427 21.9988 15.507 22.0928C15.614 22.1998 15.4 22.7728 15.307 23.0128Z" fill="white"/>
<path d="M14.9869 24.8804C14.8539 25.0534 14.6399 25.1204 14.3599 25.1204C14.1599 25.1204 14.0929 25.0404 14.0529 24.9874C13.8929 24.7344 14.0529 24.1474 14.1999 23.7744L15.1469 23.8274C15.1469 23.8274 15.1599 23.9744 15.1739 24.0674C15.1739 24.3344 15.1469 24.6674 14.9739 24.8804H14.9869Z" fill="white"/>
<path d="M25.3996 17.8804C24.2666 17.3074 23.1996 16.9734 22.8526 16.8804C21.9856 16.6274 22.0656 15.3734 22.1326 14.1734C22.1596 13.7464 22.1856 13.3334 22.1726 13.0004C22.1056 11.8804 21.9056 10.6404 20.9996 10.0804C20.0266 9.48042 18.4126 9.61342 17.4266 9.74742C17.0936 9.84042 16.7736 9.92042 16.5196 9.92042H16.4666C15.8796 9.88042 15.4266 9.64042 15.0266 9.42742C14.7196 9.25442 14.4396 9.10742 14.1866 9.10742H14.1466C13.3736 9.16042 13.0266 9.34742 12.7066 9.62742C12.6266 9.70742 12.5196 9.90742 12.1996 10.8404C12.0396 11.3074 12.0126 11.5604 11.9866 11.8134C11.9596 12.0404 11.9336 12.2664 11.7996 12.6134C11.7196 12.8534 11.6666 13.0664 11.5996 13.2664C11.4396 13.7994 11.3196 14.2134 10.9466 14.7194C10.8936 14.7724 10.8396 14.8524 10.7736 14.9594C10.6936 15.0924 10.5866 15.2664 10.4536 15.4524C10.3466 15.5854 10.1206 16.1054 10.1336 16.2524C10.1606 16.5054 10.2406 16.6524 10.3206 16.8394C10.4136 17.0124 10.5206 17.2124 10.5476 17.4924V17.5324C10.5746 17.9724 10.5206 18.1854 9.68064 18.9324C9.14764 19.4124 8.77364 19.8794 8.52064 20.2124C8.49364 20.2394 8.52064 20.2794 8.56064 20.2794H8.72064C8.93364 20.3064 9.12064 20.3864 9.26764 20.5324C9.29464 20.5594 9.33464 20.5724 9.36064 20.5594C9.49364 20.5064 9.65364 20.5064 9.78764 20.5194C9.96064 20.5464 10.1346 20.5864 10.2546 20.6924C10.2946 20.7324 10.3476 20.7594 10.4146 20.7454C10.5476 20.7184 10.6816 20.7184 10.8146 20.7724C10.9076 20.7994 10.9876 20.8524 11.0546 20.9194C11.1216 20.9864 11.2276 20.9994 11.3076 20.9594C11.3346 20.9324 11.3746 20.9194 11.4006 20.9064C11.5876 20.8534 11.7876 20.8794 11.9606 20.9464C12.0536 20.9734 12.1336 21.0134 12.2136 21.0534C12.3466 21.1464 12.4266 21.2664 12.4806 21.4004C12.5336 21.5074 12.6676 21.5474 12.7606 21.4804C12.8806 21.4004 12.9736 21.3874 13.0536 21.4274C13.0936 21.4544 13.1336 21.4674 13.1466 21.4944C13.2136 21.5744 13.3196 21.6544 13.4266 21.6274C13.6936 21.5604 14.0266 21.6004 14.2666 21.7344C14.3596 21.7744 14.4396 21.8544 14.5066 21.9614V21.9084C14.5066 21.9084 14.5336 21.8684 14.5596 21.8684H14.6126C14.7596 21.8014 15.4656 21.6014 15.7326 21.8954C15.7456 21.9084 15.7726 21.9084 15.7856 21.8954L15.8656 21.8154C16.0526 21.7084 16.3586 21.6954 16.5586 21.8824C16.5986 21.9094 16.6656 21.8954 16.7056 21.8554C16.7056 21.8284 16.7456 21.8024 16.7586 21.7884C16.8386 21.7214 16.9316 21.6954 17.0256 21.6954H17.4126C17.5196 21.6684 17.8126 21.6554 17.9196 21.6284H17.9326C17.9326 21.6284 18.0256 21.6154 18.0796 21.6014C18.2666 21.5614 18.4796 21.5084 18.6526 21.5884C18.8256 21.6684 18.7996 21.8684 18.7856 22.0284C18.7726 22.0954 18.7586 22.1754 18.7586 22.2414C18.7586 22.2684 18.7586 22.3084 18.7716 22.3344C18.7716 22.4814 18.7716 22.6144 18.7446 22.7214V22.8014C18.7846 22.8814 18.8646 22.9214 18.9316 22.8814C19.0646 22.8014 19.1986 22.6944 19.2386 22.6414H19.2516C19.2516 22.6414 19.2646 22.5744 19.2786 22.5084C19.3056 22.3614 19.3316 22.0684 19.3316 21.4684V21.4014C19.3316 21.1884 19.3316 21.0014 19.3186 20.8544C19.3056 20.5214 19.2916 20.2674 19.4516 20.0144C19.6116 19.7614 19.7586 19.6674 19.9046 19.5744C20.0776 19.4674 20.2646 19.3474 20.5846 18.9074C20.7446 18.6944 20.7716 18.6004 20.7846 18.5344C20.8116 18.3614 20.8646 18.2674 21.1176 18.0814C21.3046 17.9344 21.9176 17.4814 22.7306 17.6144C22.9976 17.6544 23.4236 17.8014 23.8506 17.9744C23.8776 17.9744 23.8906 17.9744 23.9036 17.9874H23.9166C24.2896 18.1474 24.6496 18.3074 24.8896 18.4404C24.9566 18.4804 25.0366 18.4404 25.0896 18.4004C25.1696 18.3074 25.2496 18.2534 25.3296 18.2004C25.3696 18.2004 25.3966 18.1604 25.4226 18.1474C25.5026 18.0804 25.4896 17.9344 25.3956 17.8804H25.3996ZM14.6926 17.1334C14.4256 18.2934 12.6256 19.5734 11.8126 19.5734H11.7996C11.7996 19.5734 11.7726 19.5734 11.7596 19.5604H11.7066C11.7066 19.5604 11.6936 19.5474 11.6796 19.5474C11.5326 19.4944 11.3326 19.3874 11.1726 19.2274C11.0656 19.1344 10.9856 19.0004 10.9596 18.8674C10.9596 18.8674 10.9596 18.8274 10.9596 18.8004C10.9066 18.6004 10.8526 18.3604 11.0266 17.9604C11.0536 17.9074 11.0796 17.8534 11.0936 17.8004C11.0936 17.7874 11.1066 17.7734 11.1066 17.7604C11.1336 17.7204 11.1466 17.6804 11.1596 17.6404C11.1866 17.5734 11.2126 17.5204 11.2266 17.4804C11.2266 17.4674 11.2396 17.4534 11.2396 17.4274C11.2926 17.2944 11.2926 17.2404 11.3066 17.1874C11.3066 17.1474 11.3196 17.0944 11.3336 17.0144C11.3866 16.8014 11.4136 16.6144 11.4406 16.4544C11.4806 16.1614 11.5076 15.9074 11.6676 15.6674C11.6946 15.6274 11.7346 15.6004 11.7606 15.5604C11.7736 15.5474 11.7876 15.5474 11.8006 15.5334C11.8136 15.5194 11.8276 15.5064 11.8406 15.5064C11.8806 15.4794 11.9206 15.4534 11.9606 15.4264C11.9606 15.4264 11.9876 15.4134 12.0006 15.4134C12.0406 15.4004 12.0676 15.3864 12.1076 15.3864C12.2546 15.3464 12.4276 15.3334 12.6276 15.3594C12.8406 15.3864 13.0406 15.4264 13.2146 15.4664C13.3616 15.5194 13.4946 15.5594 13.6146 15.5994C13.6276 15.5994 13.6416 15.5994 13.6416 15.6264C13.6686 15.6264 13.6946 15.6394 13.7086 15.6394C13.7356 15.6524 13.7616 15.6664 13.7886 15.6794C13.8286 15.6924 13.8556 15.7194 13.8956 15.7194H13.9226C14.0426 15.7994 14.1496 15.8524 14.2426 15.9194C14.2826 15.9594 14.3356 15.9864 14.3626 16.0264C14.3756 16.0264 14.3896 16.0534 14.4026 16.0664C14.4156 16.0664 14.4296 16.0794 14.4426 16.0934C14.7896 16.4534 14.7626 16.8804 14.7096 17.1334H14.6926ZM15.5196 12.7474L15.4926 12.9604C15.4126 13.4274 15.2256 14.0804 14.5456 14.2404C13.8786 14.4004 13.7326 14.4404 13.2656 14.4674H13.2256C12.8926 14.4674 12.2386 14.2544 12.1186 13.7074C12.0386 13.3744 12.1986 13.1204 12.4386 12.7074C12.4916 12.6404 12.5316 12.5604 12.5856 12.4804C12.9056 11.9204 13.0386 11.5204 13.1456 11.2004C13.2526 10.8804 13.3326 10.6274 13.5456 10.4134C13.5986 10.3604 13.6526 10.3064 13.7186 10.2664C13.7586 10.2394 13.8116 10.2134 13.8516 10.1864C13.9186 10.1594 13.9846 10.1334 14.0516 10.1064C14.1986 10.0534 14.3716 10.0394 14.5316 10.0394C14.8516 10.0394 15.1716 10.1194 15.3986 10.3064C15.4916 10.3864 15.6386 10.5464 15.7186 11.0394C15.7716 11.2794 15.6916 11.7324 15.5186 12.7464L15.5196 12.7474ZM20.3866 14.0934C20.1466 14.4934 20.0266 14.7204 19.8266 14.8804C19.4136 15.2134 18.9466 15.2934 18.5596 15.2934C18.2796 15.2934 18.0526 15.2534 17.9066 15.2264C17.5066 15.1594 16.7736 15.0264 16.5196 14.4394C16.4796 14.3194 16.4666 14.2394 16.4666 14.1464C16.4666 14.0534 16.4666 13.9064 16.4266 13.5334V13.5064C16.4136 13.3464 16.3866 13.1594 16.4396 12.9064V12.8794C16.5726 12.1724 16.6126 12.0664 16.6526 11.9994C16.7196 11.8524 16.8926 11.7994 17.0256 11.8794C17.1726 11.9464 17.2256 12.1064 17.1586 12.2524C17.1456 12.2924 17.1056 12.4394 16.9986 12.9854V13.0254C16.9586 13.1724 16.9716 13.2924 16.9986 13.4384V13.4654C17.0386 13.8654 17.0386 14.0524 17.0386 14.1454V14.1984V14.2114C17.0786 14.3044 17.1586 14.3844 17.2786 14.4514C17.3716 14.5044 17.4656 14.4114 17.4516 14.3044C17.3316 13.6774 17.3446 12.9714 17.5716 12.5314C17.6516 12.3844 17.7986 12.1314 17.9316 11.9044C17.9316 11.9044 17.9586 11.8644 17.9716 11.8374C17.9846 11.8104 17.9846 11.7974 17.9986 11.7844C18.0656 11.6774 18.1186 11.5844 18.1716 11.5044C18.1716 11.5044 18.1716 11.4914 18.1716 11.4774H18.1846C18.1846 11.4774 18.1976 11.4244 18.2116 11.4104H18.2246C18.2246 11.4104 18.2376 11.3834 18.2376 11.3704C18.2376 11.3574 18.2376 11.3704 18.2376 11.3434C18.2776 11.2904 18.3176 11.2364 18.3446 11.1964C18.4246 11.0894 18.3316 10.9564 18.2116 11.0094C18.0116 11.1024 17.8786 11.2094 17.8516 11.2224C17.7316 11.3294 17.5446 11.3024 17.4516 11.1824C17.3586 11.0624 17.3716 10.8754 17.5046 10.7824C17.6516 10.6624 18.4246 10.1024 19.3576 10.3694C20.0246 10.5564 20.3846 11.0624 20.5176 11.2624C20.6246 11.4224 20.9446 11.8894 20.9306 12.5554C20.9306 13.0624 20.7176 13.4224 20.3306 14.0884L20.3866 14.0934Z" fill="white"/>
<path d="M14.3329 10.6133C14.2799 10.7333 14.2259 10.8663 14.1729 11.0263C14.0259 11.3863 13.8659 11.7993 13.7859 11.9463C13.6529 12.1993 13.5459 12.3593 13.4659 12.4933C13.3729 12.6403 13.2929 12.7603 13.2389 12.9203C13.1319 13.2133 13.1189 13.5333 13.1859 13.8803C13.0129 13.8673 12.7189 13.7333 12.6789 13.5873C12.6519 13.4673 12.7319 13.3473 12.9319 13.0003C12.9719 12.9333 13.0249 12.8533 13.0649 12.7733C13.4249 12.1603 13.5719 11.7063 13.6779 11.3733C13.7979 11.0133 13.8509 10.8663 14.0379 10.7333C14.1179 10.6803 14.2249 10.6403 14.3309 10.6133H14.3329Z" fill="white"/>
<path d="M13.9855 23.4272C13.7855 23.8272 13.5455 24.2002 13.3855 24.3872C13.2525 24.0402 13.0385 23.2542 13.0925 22.6272C13.0925 22.6142 13.0925 22.5872 13.0925 22.5742C13.1195 22.3742 13.1725 22.2012 13.2655 22.0542C13.3325 21.9612 13.4925 21.9072 13.6925 21.9072C13.8395 21.9072 13.9855 21.9342 14.1195 22.0142C14.1865 22.0542 14.2925 22.1342 14.2925 22.3472C14.3055 22.6542 14.1595 23.0542 13.9725 23.4272H13.9855Z" fill="white"/>
<path d="M24.8122 18.9068C24.8122 18.9068 24.8392 18.9338 24.8252 18.9598C24.7722 19.0798 24.6922 19.1598 24.6122 19.2668C24.5052 19.3868 24.3992 19.5198 24.2922 19.7338C24.1452 20.0408 24.0922 20.3068 24.0652 21.0138C24.0382 21.8408 24.0652 22.3068 24.0922 22.6408C24.1192 22.9748 24.1322 23.1608 24.0652 23.4808C23.9452 24.1208 23.6782 24.5478 23.3182 25.0938C22.8782 25.7738 22.4252 26.4668 21.6782 26.6808C21.6112 26.7078 21.6112 26.7078 21.4112 26.7078C21.2382 26.7078 20.9582 26.7078 20.4242 26.7348C19.4512 26.7748 18.9572 26.7878 18.5442 26.8678C18.1042 26.9478 17.8772 27.0408 17.6512 27.1348C17.4512 27.2148 17.2642 27.2948 16.9042 27.3618C16.6912 27.4018 16.3572 27.4548 15.2642 27.4548C14.1172 27.4548 13.4242 27.4548 12.5172 27.3478C11.2642 27.2008 10.6372 27.1348 10.2102 26.9078C9.22319 26.3878 8.81019 25.4408 8.11719 23.8678C8.11719 23.8548 8.13019 23.8278 8.15719 23.8408C8.18419 23.8678 8.22419 23.8808 8.26419 23.8938C8.29119 23.8938 8.33119 23.9068 8.35719 23.9208C8.42419 23.9208 8.49019 23.9208 8.55719 23.9208H8.58419H8.61119C8.65119 24.0408 8.73119 24.1478 8.83819 24.2138C8.95819 24.2808 9.09119 24.2808 9.22519 24.2808C9.35919 24.2808 9.49219 24.2808 9.62519 24.2538C9.69219 24.2538 9.77219 24.2808 9.79819 24.3468C9.91819 24.6398 10.0782 24.8538 10.3052 24.8938C10.3052 24.8938 10.3322 24.8938 10.3582 24.8938C10.3982 24.8938 10.4652 24.8938 10.5582 24.8268C10.6652 24.7598 10.8382 24.7998 10.9182 24.8938C10.9712 24.9468 11.0252 25.0008 11.0652 25.0268C11.3052 25.2668 11.8652 25.3868 12.3452 25.3868C12.6122 25.3868 12.8382 25.3468 12.9722 25.2798C13.1722 25.1868 13.1722 25.0398 13.1592 24.9728C13.1462 24.8658 13.1322 24.7598 13.1192 24.6528C13.1192 24.6528 13.1322 24.6398 13.1462 24.6528C13.1732 24.7198 13.2132 24.7998 13.3062 24.8128C13.3062 24.8128 13.3332 24.8128 13.3462 24.8128C13.4792 24.8128 13.6932 24.8528 13.7192 24.9858C13.7322 25.0528 13.7592 25.1188 13.7992 25.1728C13.8792 25.3058 14.0392 25.4528 14.3592 25.4528H14.3862C14.7592 25.4528 15.0392 25.3328 15.2392 25.0928C15.2392 25.0798 15.2662 25.0658 15.2792 25.0398C15.3462 24.9468 15.5592 24.9328 15.6392 25.0128C15.7322 25.1058 15.8662 25.1458 15.9992 25.1458C16.0262 25.1458 16.0392 25.1458 16.0662 25.1458C16.2262 25.1328 16.3732 25.0388 16.4792 24.8928C16.5462 24.7998 16.5992 24.6798 16.6392 24.5458C16.6392 24.5058 16.7062 24.4928 16.7322 24.5188C16.7992 24.5858 16.9192 24.6518 17.0792 24.6518C17.1192 24.6518 17.1592 24.6518 17.2122 24.6388C17.5322 24.5718 17.6922 24.3058 17.7722 24.0118C17.7722 24.0118 17.7852 24.0118 17.7992 24.0118C17.8792 24.1048 18.0262 24.2248 18.2922 24.2248C18.3052 24.2248 18.3192 24.2248 18.3322 24.2248C18.4652 24.2248 18.5852 24.1578 18.6792 24.0518C18.7722 23.9188 18.8262 23.7318 18.8262 23.5448C18.8262 23.4778 18.8792 23.4118 18.9462 23.3848C19.2132 23.2648 19.5462 23.0248 19.6392 22.8648C19.6662 22.8118 19.7192 22.7718 19.7722 22.7578C19.9722 22.7178 20.0652 22.6778 20.1452 22.6378C20.2122 22.6108 20.2652 22.5848 20.4252 22.5578C21.6652 22.3708 21.9052 22.3308 22.1722 22.1448C22.5722 21.8778 22.5992 21.5048 22.6122 21.1578C22.6252 20.8508 22.6522 20.5178 22.8792 20.1178C22.9592 19.9708 23.0662 19.7848 23.1722 19.5978C23.3452 19.2648 23.5992 18.8108 23.7852 18.5578C23.8252 18.5048 23.9052 18.4778 23.9722 18.5048C24.3852 18.6778 24.7452 18.8648 24.8252 18.9178L24.8122 18.9068Z" fill="white"/>
<path d="M12.7858 22.5871C12.7328 23.0141 12.7058 23.5871 12.7858 24.3341C12.7988 24.5471 12.8388 24.7611 12.8658 24.9871C12.8128 25.0141 12.6258 25.0671 12.3188 25.0541C11.8658 25.0541 11.4388 24.9341 11.3058 24.7871H11.2788C11.1718 24.6801 11.0918 24.6271 11.0918 24.4671C11.0918 24.4141 11.1048 24.3601 11.1588 24.2941C11.1858 24.2541 11.2258 24.2011 11.2658 24.1471C11.3458 24.0401 11.4388 23.9201 11.5328 23.7601C11.8128 23.2801 11.9198 23.1331 12.0528 22.9601C12.0528 22.9471 12.0798 22.9331 12.0928 22.9201C12.1728 22.8131 12.2658 22.6801 12.4128 22.4671C12.5198 22.3071 12.5998 22.1871 12.6798 22.0801C12.7998 21.9201 12.8798 21.8271 12.9328 21.7871C12.9328 21.8671 12.9058 21.9601 12.8928 22.0541C12.8658 22.2011 12.8398 22.3871 12.8128 22.6011L12.7858 22.5871Z" fill="white"/>
<path d="M12.573 15.9332C12.52 16.0132 12.453 16.1063 12.373 16.2803C12.16 16.7603 12.16 17.0272 12.146 17.2402C12.146 17.3602 12.146 17.4403 12.106 17.5473C12.079 17.6143 12.053 17.6943 12.013 17.7873C11.893 18.0803 11.72 18.4542 11.8 18.9602C11.693 18.9072 11.547 18.8002 11.52 18.7332C11.52 18.7062 11.52 18.6802 11.507 18.6532C11.467 18.4932 11.454 18.3862 11.547 18.1602C11.814 17.5472 11.84 17.4002 11.867 17.2402C11.867 17.2002 11.867 17.1732 11.88 17.1332C11.933 16.8932 11.96 16.6803 11.987 16.5203C12.027 16.2673 12.04 16.1072 12.134 15.9732C12.161 15.9332 12.254 15.9062 12.374 15.9062C12.427 15.9062 12.481 15.9062 12.547 15.9062H12.56C12.56 15.9062 12.56 15.9062 12.573 15.9062V15.9332Z" fill="white"/>
<path d="M12.2267 21.9726C12.2137 21.8256 12.1867 21.6796 12.1337 21.5456C12.1337 21.5456 12.1207 21.5056 12.1067 21.4926C12.1067 21.4796 12.0798 21.4526 12.0798 21.4396C12.0798 21.4396 12.0797 21.4396 12.0667 21.4266C12.0667 21.4266 12.0537 21.4136 12.0397 21.3996C12.0397 21.3996 12.0397 21.3996 12.0267 21.3996C12.0267 21.3996 11.9997 21.3996 11.9997 21.3866C11.9997 21.3866 11.9997 21.3866 11.9867 21.3866C11.9067 21.3596 11.8137 21.3196 11.7197 21.3066H11.6927C11.6927 21.3066 11.6658 21.3066 11.6528 21.3066C11.6528 21.3066 11.6527 21.3066 11.6397 21.3066C11.6397 21.3066 11.5997 21.3066 11.5727 21.3196C11.5727 21.3196 11.5597 21.3196 11.5457 21.3326C11.5457 21.3326 11.5327 21.3326 11.5187 21.3456C11.5187 21.3456 11.5057 21.3726 11.4917 21.3726C11.4917 21.3726 11.4917 21.3856 11.4787 21.3996C11.4387 21.4526 11.4117 21.5066 11.3717 21.5596C11.2917 21.6796 11.1987 21.8126 11.1187 21.9326C11.0387 22.0396 10.9587 22.1596 10.8787 22.2656C10.8387 22.3326 10.7987 22.3856 10.7457 22.4526C10.7457 22.4526 10.7328 22.4796 10.7188 22.4796C10.7717 22.4796 10.8257 22.4926 10.8657 22.5066C10.9857 22.5336 11.0927 22.5466 11.2127 22.5596C11.4527 22.5866 11.6927 22.6126 11.9327 22.5996C11.9327 22.5996 11.9597 22.5996 11.9727 22.5996C12.0257 22.5196 12.1057 22.4126 12.1858 22.2796C12.2387 22.1996 12.2787 22.1326 12.3187 22.0666C12.3057 22.0396 12.2917 21.9996 12.2787 21.9596L12.2267 21.9726Z" fill="white"/>
<path d="M11.3728 22.9601C11.3458 23.1471 11.1458 23.6271 10.8258 24.0801C10.5588 24.4671 10.3858 24.5471 10.3588 24.5601C10.2258 24.5471 10.1058 24.2131 9.99882 23.8931C9.95882 23.7601 9.91882 23.6401 9.89182 23.5201C9.82482 23.2801 9.81182 22.9471 9.82482 22.7471C10.0918 22.8941 10.5718 22.9341 11.2518 22.9471C11.2518 22.9471 11.3448 22.9471 11.3848 22.9601H11.3728Z" fill="white"/>
<path d="M10.8923 21.4401C10.8923 21.4401 10.8923 21.4401 10.8923 21.4531C10.7723 21.6261 10.6653 21.7861 10.5453 21.9601C10.4783 22.0531 10.4253 22.1331 10.3723 22.2271C10.3453 22.2801 10.2923 22.3341 10.2523 22.3871C10.1593 22.3601 10.0653 22.3471 9.97234 22.3201C9.89234 22.2931 9.81234 22.2801 9.74534 22.2401C9.73234 22.2401 9.71834 22.2401 9.70534 22.2271C9.70534 22.2001 9.67834 22.1741 9.65234 22.1601C9.67934 22.1071 9.70534 22.0531 9.73234 21.9871C9.78534 21.8801 9.83934 21.7871 9.89234 21.6801C9.99934 21.5071 10.1193 21.3201 10.2923 21.2131C10.2923 21.2131 10.3053 21.2131 10.3193 21.2001C10.3863 21.1601 10.4523 21.1331 10.5323 21.1201C10.5323 21.1201 10.5993 21.1201 10.6253 21.1201C10.6523 21.1201 10.6653 21.1201 10.6923 21.1331C10.6923 21.1331 10.7053 21.1331 10.7193 21.1331C10.7333 21.1331 10.7593 21.1601 10.7723 21.1731C10.7453 21.1461 10.8123 21.2131 10.8123 21.2131C10.8653 21.2801 10.8793 21.3461 10.8923 21.4401Z" fill="white"/>
<path d="M9.97277 20.9597C9.75977 21.1327 9.59977 21.3727 9.47977 21.6127C9.41277 21.7457 9.34677 21.8797 9.26677 22.0257C9.26677 22.0387 9.25377 22.0527 9.23977 22.0657C9.17277 22.0527 9.10677 22.0387 9.05277 22.0127C8.98577 21.9857 8.91977 21.9727 8.85277 21.9327C8.82577 21.9197 8.79977 21.9057 8.75977 21.8927C8.82677 21.7727 8.90677 21.6527 8.97277 21.5457C9.07977 21.3857 9.18577 21.2257 9.30577 21.0787C9.34577 21.0257 9.39877 20.9587 9.46577 20.9187C9.53277 20.8787 9.61277 20.8917 9.67877 20.8917C9.75877 20.8917 9.83877 20.8917 9.91877 20.9317C9.93177 20.9317 9.94577 20.9447 9.95877 20.9587L9.97277 20.9597Z" fill="white"/>
<path d="M9.63979 23.8268C9.63979 23.8268 9.62679 23.8398 9.61279 23.8538H9.59979C9.54679 23.8538 9.49279 23.8538 9.43979 23.8538C9.34679 23.8538 9.23979 23.8538 9.13279 23.8538C9.07979 23.8538 9.02579 23.8538 8.99979 23.8138C8.95979 23.7608 8.94679 23.6538 8.93279 23.5868C8.86579 23.2268 8.85279 22.8398 8.90579 22.4668C9.09279 22.5338 9.29279 22.5868 9.49279 22.6268C9.45279 22.9598 9.51979 23.4538 9.57279 23.5998C9.59979 23.6668 9.61279 23.7328 9.63979 23.8128V23.8268Z" fill="white"/>
<path d="M9.02537 20.8403C8.85237 21.0533 8.70537 21.2673 8.55837 21.4933C8.50537 21.5863 8.43838 21.6803 8.39838 21.7863C8.33138 21.7733 8.26537 21.7463 8.21137 21.7063C8.15837 21.6793 8.11837 21.6393 8.06437 21.6133C8.06437 21.6133 8.02438 21.5733 7.99738 21.5603C7.99738 21.5603 7.99738 21.5603 7.98438 21.5603C7.99738 21.5203 8.02437 21.4673 8.03737 21.4403C8.07737 21.3603 8.11737 21.2803 8.15737 21.2133C8.23737 21.0803 8.31738 20.9333 8.42438 20.8133C8.46438 20.7733 8.49137 20.7063 8.55737 20.6933C8.61037 20.6803 8.67738 20.6933 8.71738 20.6933C8.83738 20.7203 8.94437 20.7733 9.02437 20.8663L9.02537 20.8403Z" fill="white"/>
<path d="M7.71916 21.7334C7.71916 21.7334 7.73216 21.7334 7.74616 21.7334C7.78616 21.8004 7.85316 21.8534 7.91916 21.8934C7.94616 21.9204 7.97216 21.9334 8.01216 21.9604C8.01216 21.9604 8.01216 21.9604 8.01216 21.9734C7.94516 22.2534 7.89216 22.5604 7.89216 22.8534C7.89216 22.8664 7.86516 22.8664 7.86516 22.8534C7.78516 22.5064 7.66616 21.9334 7.71916 21.7334Z" fill="white"/>
<path d="M8.54616 22.3603C8.50616 22.6133 8.49316 22.8673 8.50616 23.1203C8.50616 23.2533 8.53316 23.4003 8.54616 23.5333C8.54616 23.5333 8.47916 23.5333 8.45316 23.5333C8.45316 23.5333 8.45316 23.5333 8.44016 23.5333C8.44016 23.5333 8.44016 23.5333 8.42716 23.5333C8.38716 23.5333 8.38716 23.5333 8.36016 23.5063C8.32016 23.4793 8.28016 23.4393 8.25316 23.3993C8.18616 23.2793 8.17316 23.1323 8.16016 23.0123C8.16016 22.7453 8.16016 22.4923 8.22716 22.2393C8.26716 22.2523 8.30716 22.2663 8.36016 22.2923C8.41316 22.3183 8.48016 22.3453 8.54716 22.3723L8.54616 22.3603Z" fill="white"/>
</svg>
