<svg width="28" height="28" viewBox="0 0 28 28" fill="none" xmlns="http://www.w3.org/2000/svg">
<path d="M28 14C28 21.7318 21.7318 28 14 28C6.26821 28 0 21.7318 0 14C0 6.26821 6.26821 0 14 0C21.7318 0 28 6.26821 28 14Z" fill="#F7931A"/>
<path d="M20.2924 12.2683C20.5643 10.4355 19.17 9.449 17.2583 8.79131L17.8765 6.30525L16.3682 5.92818L15.7544 8.34847C15.3554 8.24763 14.9476 8.15555 14.5442 8.06347L15.1581 5.63879L13.6454 5.26172L13.0272 7.7434C12.6983 7.66886 12.3739 7.59432 12.0626 7.5154L9.9755 6.99363L9.5765 8.60716C9.5765 8.60716 10.699 8.86585 10.6727 8.87901C11.0743 8.92899 11.3821 9.26836 11.3821 9.67963C11.3821 9.70682 11.3803 9.73313 11.3786 9.75943V9.75593L10.6727 12.5884C10.7349 12.6033 10.7875 12.6199 10.8384 12.6392L10.8305 12.6366L10.6727 12.5971L9.68173 16.5433C9.6107 16.7686 9.40287 16.93 9.15821 16.93C9.09771 16.93 9.03983 16.9203 8.98546 16.9019L8.98897 16.9028L7.88844 16.631L7.13867 18.3541L9.10735 18.8408L10.186 19.1214L9.55897 21.6338L11.0717 22.0109L11.6899 19.5248C12.102 19.6344 12.501 19.7396 12.8956 19.8361L12.2774 22.3134L13.7901 22.6905L14.4127 20.1825C16.9952 20.6692 18.9332 20.4719 19.7488 18.1393C20.4064 16.2627 19.7181 15.1797 18.3588 14.4737C19.3498 14.2633 20.0908 13.61 20.2924 12.2683ZM16.833 17.1133C16.3682 18.9943 13.2069 17.9902 12.181 17.7227L13.0096 14.408C14.0356 14.6491 17.3241 15.1577 16.833 17.1133ZM17.3022 12.242C16.8637 13.952 14.2329 13.0794 13.3911 12.869L14.1452 9.85239C14.9959 10.0628 17.745 10.4618 17.3022 12.242Z" fill="white"/>
</svg>
