<svg width="28" height="28" viewBox="0 0 28 28" fill="none" xmlns="http://www.w3.org/2000/svg">
<path d="M28 14C28 21.7324 21.7324 28 14 28C6.26762 28 0 21.7324 0 14C0 6.26762 6.26762 0 14 0C21.7324 0 28 6.26762 28 14Z" fill="#0F94F8"/>
<path d="M9.29958 6.60389L7.7832 8.12027V14.1166L9.29958 15.633H15.296V18.6544H12.3323V17.138H7.7937V20.1594L9.31008 21.6758H18.3287L19.8451 20.1594V14.1158L18.3287 12.5994H12.3323V9.57802H15.3537V11.0944H19.8923V8.07302L18.376 6.55664H9.29958V6.61527V6.60389Z" fill="white"/>
</svg>
