<svg width="28" height="28" viewBox="0 0 28 28" fill="none" xmlns="http://www.w3.org/2000/svg">
<path d="M28 14C28 21.7324 21.7324 28 14 28C6.26762 28 0 21.7324 0 14C0 6.26762 6.26762 0 14 0C21.7324 0 28 6.26762 28 14Z" fill="#8DC351"/>
<path d="M17.7663 8.53094C16.8301 6.92969 15.1413 7.03906 13.2251 7.72594L12.1445 5.39844L10.7313 6.05469L11.7813 8.31219L10.657 8.85031L9.62445 6.56219L8.21133 7.21406L9.28758 9.53719C8.9857 9.68594 8.68383 9.83469 8.3907 9.97469L6.43945 10.8759L7.13945 12.3897C7.13945 12.3897 8.17195 11.8822 8.1632 11.9128C8.28483 11.8349 8.4327 11.7894 8.59195 11.7894C8.87283 11.7894 9.11958 11.9329 9.26395 12.1508L9.2657 12.1534L10.4907 14.8003L10.6438 14.7391L10.4951 14.8091L12.2145 18.5191C12.2398 18.5803 12.2547 18.6521 12.2547 18.7264C12.2547 18.9688 12.0981 19.1744 11.8811 19.2488L11.8776 19.2497C11.9038 19.2497 10.8495 19.7266 10.8495 19.7266L11.3482 21.5466L13.1901 20.6934L14.2051 20.2341L15.312 22.5703L16.7251 21.9184L15.6488 19.5909C16.0382 19.4203 16.4145 19.2497 16.782 19.0791L17.8538 21.3934L19.2495 20.7372L18.1645 18.3747C20.4788 17.1366 21.8657 15.7497 21.0388 13.4397C20.3738 11.5628 19.1532 11.1516 17.657 11.4534C18.2826 10.6747 18.4532 9.70344 17.7663 8.53094ZM18.112 14.4722C18.9301 16.2222 15.8282 17.4209 14.8701 17.8672L13.4307 14.7522C14.3888 14.3103 17.2676 12.6391 18.112 14.4722ZM15.4213 10.3859C16.1607 11.9828 13.5663 12.9584 12.7701 13.3259L11.462 10.4997C12.2495 10.1322 14.6513 8.71906 15.4213 10.3859Z" fill="white"/>
</svg>
