<svg width="28" height="28" viewBox="0 0 28 28" fill="none" xmlns="http://www.w3.org/2000/svg">
<g clip-path="url(#clip0_3152_10376)">
<path d="M14 0C21.84 0 28 6.16 28 14C28 21.84 21.84 28 14 28C6.16 28 0 21.84 0 14C0 6.16 6.16 0 14 0Z" fill="#1400FF"/>
<path d="M12.9263 24.9179L12.9263 22.9565L8.76172 22.9643V5.47018H12.9263V3.42871H14.7546L14.7547 5.47018H14.9079C15.9459 5.40666 16.9813 5.58742 17.9515 5.98006C18.6954 6.31647 19.3225 6.88837 19.7466 7.61715C20.1676 8.30666 20.3932 9.10931 20.3967 9.93016C20.3941 10.671 20.1958 11.3964 19.8241 12.0244C19.4042 12.7295 18.8016 13.2923 18.0881 13.6458C19.0009 13.8956 19.8116 14.454 20.3967 15.236C20.9379 15.9988 21.2214 16.9316 21.2019 17.8851C21.2082 18.6782 21.04 19.4621 20.7106 20.1746C20.4317 20.8076 20.0153 21.3618 19.4954 21.7922C18.951 22.2053 18.3346 22.5001 17.6818 22.6596C16.8063 22.872 15.9095 22.9704 15.0113 22.9526L14.7546 22.9531V24.9179H12.9263ZM12.9263 12.8839V7.51165H10.8745L10.8856 12.8839H12.9263ZM14.7546 7.50613V12.863C15.3614 12.8154 15.9667 12.745 16.559 12.6026C17.0586 12.4681 17.5017 12.1616 17.8185 11.7313C18.1129 11.2843 18.262 10.7481 18.2433 10.2037C18.2538 9.66229 18.1166 9.12918 17.848 8.66816C17.5885 8.23023 17.1865 7.90783 16.7178 7.76171C16.0731 7.60452 15.4151 7.51959 14.7546 7.50613ZM12.9263 20.8349V14.818H10.8948V20.8349H12.9263ZM14.7546 14.8184L14.7546 20.8349H15.0113C15.5051 20.907 15.9991 20.8795 16.4888 20.8115C16.9345 20.7384 17.3632 20.5767 17.752 20.3348C18.1062 20.0937 18.3942 19.7582 18.5868 19.362C18.8174 18.9083 18.9356 18.4002 18.9303 17.8851C18.9435 17.2803 18.7782 16.6863 18.4575 16.1855C18.1405 15.6934 17.6759 15.3286 17.1389 15.1501C16.3621 14.9281 15.5587 14.8289 14.7546 14.8184Z" fill="#D81E06"/>
</g>
<defs>
<clipPath id="clip0_3152_10376">
<rect width="28" height="28" fill="white"/>
</clipPath>
</defs>
</svg>
