<svg width="36" height="36" viewBox="0 0 36 36" xmlns="http://www.w3.org/2000/svg">
<path d="M34 18C34 26.837 26.837 34 18 34C9.163 34 2 26.837 2 18C2 9.163 9.163 2 18 2C26.837 2 34 9.163 34 18Z" fill="#F0B90B"/>
<path d="M17.9993 6.2002L20.9193 9.1872L13.5723 16.5342L10.6523 13.6142L17.9993 6.2012V6.2002Z" fill="#473800"/>
<path d="M22.428 10.627L25.348 13.614L13.588 25.374L10.668 22.454L22.428 10.627Z" fill="#473800"/>
<path d="M9.14656 15.0527L12.0666 18.0397L9.14656 20.9597L6.22656 18.0397L9.14656 15.0527Z" fill="#473800"/>
<path d="M26.8538 15.053L29.7738 18.04L18.0138 29.8L15.0938 26.88L26.8538 15.04V15.053Z" fill="#473800"/>
</svg>
