<svg width="36" height="36" viewBox="0 0 36 36" fill="none" xmlns="http://www.w3.org/2000/svg">
<path d="M34 18C34 26.837 26.837 34 18 34C9.163 34 2 26.837 2 18C2 9.163 9.163 2 18 2C26.837 2 34 9.163 34 18Z" fill="#EAC749"/>
<path d="M24.0009 11.7328H20.1209C20.8809 12.3458 21.4009 13.1598 21.6139 14.1058H23.9869V16.0388H21.6539C21.3339 18.2918 19.6939 19.5718 18.1209 19.9318L21.8279 26.1588H17.8009L14.5879 20.3458H11.9609V17.5458H15.7079C16.9079 17.5458 17.7879 16.9588 18.1349 16.0258H12.0019V14.0928H18.2019C17.8549 13.1328 16.9749 12.5998 15.7489 12.5998H12.0019V9.7998H24.0149V11.7068L24.0009 11.7328Z" fill="#276304"/>
</svg>
