<svg width="28" height="28" viewBox="0 0 28 28" fill="none" xmlns="http://www.w3.org/2000/svg">
<path d="M28 14C28 21.7324 21.7324 28 14 28C6.26762 28 0 21.7324 0 14C0 6.26762 6.26762 0 14 0C21.7324 0 28 6.26762 28 14Z" fill="#E7EAEF"/>
<path d="M13.9996 24.7189C13.9226 24.7181 13.8491 24.7058 13.78 24.6822L13.7853 24.6839C13.7363 24.6664 13.6951 24.6454 13.6558 24.6209L13.6584 24.6227L6.95152 20.6021C6.76077 20.4857 6.63477 20.2792 6.63477 20.0429C6.63477 19.9869 6.64177 19.9318 6.65489 19.8802L6.65402 19.8846L9.00339 10.1546C9.02177 10.0732 9.05589 10.0014 9.10052 9.93843L9.09964 9.94018L13.4746 3.5658C13.6015 3.40393 13.7975 3.2998 14.0171 3.2998C14.2368 3.2998 14.4328 3.40305 14.5588 3.56405L14.5596 3.5658L18.9346 9.94018C18.9784 10.0014 19.0125 10.0732 19.03 10.1502L19.0309 10.1546L21.3803 19.8846C21.3925 19.9318 21.3995 19.9869 21.3995 20.0429C21.3995 20.2792 21.2735 20.4866 21.0854 20.6003L21.0828 20.6021L14.3409 24.6227C14.3059 24.6446 14.2656 24.6638 14.2228 24.6787L14.2184 24.6804C14.1536 24.7058 14.0784 24.7189 13.9996 24.7189ZM18.1909 12.4164L15.1284 22.6277L19.9671 19.7227L18.1909 12.4164ZM8.04089 19.7227L12.8796 22.6277L9.81714 12.4164L8.04089 19.7227ZM10.4996 10.2027L13.9996 21.7877L17.4996 10.2027L13.9996 5.10143L10.4996 10.2027Z" fill="black"/>
</svg>
