<svg width="28" height="28" viewBox="0 0 28 28" fill="none" xmlns="http://www.w3.org/2000/svg">
<path d="M27.9974 13.9991C27.9974 14.6991 27.951 15.399 27.846 16.0754C27.8224 16.239 27.7996 16.4017 27.7646 16.5653C27.6247 17.3353 27.4147 18.0816 27.1461 18.8052H27.1347C27.1347 18.8052 27.1347 18.8288 27.1233 18.8402C27.0069 19.1666 26.8897 19.4938 26.7383 19.8088C26.0384 21.3373 25.0821 22.7136 23.9149 23.8921H23.9035C23.6935 24.1135 23.4722 24.3121 23.2499 24.5107C21.255 26.272 18.7466 27.4742 15.9704 27.8591C15.9118 27.8705 15.854 27.8705 15.7954 27.8828C15.2118 27.9641 14.6055 27.9991 13.9991 27.9991C12.5528 27.9991 11.1529 27.7778 9.83439 27.3692C9.83439 27.3692 9.82651 27.3692 9.81076 27.3692C9.57715 27.2992 9.35579 27.2292 9.13443 27.1356C7.96813 26.7156 6.87095 26.132 5.87963 25.4207C5.62327 25.2457 5.36604 25.0471 5.12106 24.8371C5.10968 24.8371 5.09743 24.8135 5.07468 24.8135C4.32835 24.1835 3.65115 23.4835 3.04481 22.725C2.76483 22.375 2.49622 22.0136 2.26348 21.64C2.26348 21.6287 2.26348 21.6164 2.25211 21.6164C1.13218 19.9129 0.397225 17.9416 0.128617 15.8418C0.0936192 15.6781 0.0822448 15.5268 0.0699956 15.3754C0.0236235 14.9204 0 14.4655 0 14.0105C0 13.6719 0.0113743 13.3455 0.0463721 13.0069C0.0463721 12.8783 0.0577463 12.7506 0.0699956 12.6106C0.326355 9.97438 1.32992 7.5359 2.85845 5.52965C2.97481 5.37829 3.10343 5.22605 3.23205 5.07468C5.79826 1.97125 9.67165 0 14 0C14.8863 0 15.7499 0.0813699 16.5898 0.244985C16.7998 0.279983 17.0098 0.326355 17.2084 0.373602C18.387 0.64221 19.4947 1.06218 20.5332 1.6099C20.7318 1.71489 20.9182 1.83126 21.1168 1.93625C23.9166 3.59253 26.0979 6.20599 27.1951 9.33217C27.2537 9.46078 27.3 9.60078 27.335 9.72852C27.5914 10.5098 27.7664 11.3148 27.8714 12.1434C27.9064 12.3184 27.9178 12.4933 27.9414 12.657C27.9764 13.1006 28 13.5433 28 13.9983L27.9974 13.9991Z" fill="#024AD6"/>
<path d="M26.795 19.4708C26.7713 19.5871 26.76 19.7044 26.7363 19.8094C26.8877 19.4944 27.0049 19.168 27.1213 18.8408C26.9463 19.0044 26.8299 19.2372 26.795 19.4708Z" fill="#6FC0FF"/>
<path d="M27.3338 16.8691C26.9602 17.4055 26.5175 17.8954 26.0275 18.339C25.7825 18.5604 25.6312 18.864 25.5962 19.1903C25.5725 19.4117 25.5375 19.6339 25.5025 19.8439C25.1639 21.6174 24.3712 22.8537 24.079 23.3201L23.2504 24.51C23.4718 24.3114 23.694 24.1137 23.904 23.9037H23.9154L24.2304 23.4251C24.5453 22.9465 25.3503 21.6866 25.6889 19.8789C25.7353 19.6576 25.7589 19.4353 25.7939 19.214C25.8175 18.9226 25.9453 18.6654 26.1675 18.479C26.6575 18.024 27.1011 17.5227 27.486 16.9741C27.5797 16.8455 27.6724 16.7055 27.766 16.5655C27.801 16.4019 27.8246 16.2392 27.8474 16.0755C27.6838 16.3555 27.521 16.6119 27.3338 16.8691ZM2.82395 5.61119C2.59034 6.25253 2.4276 6.90611 2.34536 7.57107L2.28674 7.75743L2.20537 7.88605C1.84401 8.43464 1.08544 9.57732 0.794078 11.2222C0.75908 11.3972 0.689085 11.5722 0.595466 11.7358L0.0704985 12.5994C0.0591242 12.7394 0.046875 12.868 0.046875 12.9957C0.0818728 12.9371 0.128245 12.8671 0.175492 12.7971L0.75908 11.8408C0.864074 11.6544 0.945444 11.4558 0.980442 11.2572C1.2718 9.64732 2.00675 8.52739 2.36898 7.99104L2.41535 7.92105L2.53172 7.60607C2.62534 6.95248 2.7767 6.29977 3.01031 5.68119L3.06894 5.5062C3.06894 5.5062 3.09256 5.44758 3.12756 5.35483C3.15118 5.27346 3.18618 5.17984 3.23255 5.06348C3.10393 5.21484 2.97619 5.36708 2.85895 5.51845L2.82395 5.61119Z" fill="black"/>
<path d="M27.8682 12.1446C27.8446 12.2146 27.8218 12.2732 27.7982 12.331V12.4124C27.7282 12.9373 27.6118 13.4509 27.4482 13.9523C27.1919 14.7336 26.8069 15.4685 26.3283 16.1335C25.9197 16.7171 25.4297 17.2421 24.882 17.6848C24.7306 17.7898 24.6134 17.9411 24.532 18.1047C24.4507 18.2684 24.4034 18.4433 24.392 18.6297C24.392 18.9561 24.3457 19.2833 24.2757 19.6097C23.9957 21.1496 23.2957 22.2231 23.0044 22.6781L22.3394 23.6816C21.3245 25.0229 20.1346 25.8865 18.6996 26.3301L18.4083 26.4237L18.0933 26.4823C17.6847 26.5523 17.277 26.5873 16.857 26.5873H16.4257L15.9471 26.611C15.6907 26.611 15.4457 26.6573 15.2007 26.7396C14.1972 27.0782 13.0309 27.2409 11.526 27.2409C10.6746 27.2409 9.84608 27.1823 9.13475 27.1246C9.35611 27.2182 9.57834 27.2882 9.81108 27.3582C9.81108 27.3582 9.81895 27.3582 9.8347 27.3582C10.371 27.3818 10.9433 27.4045 11.526 27.4045C13.0423 27.4045 14.2322 27.2409 15.2594 26.9032C15.4807 26.8218 15.7143 26.7868 15.9479 26.7746L16.4379 26.751H16.8465C17.2779 26.7623 17.6978 26.716 18.1178 26.646L18.4564 26.5873L18.76 26.4937C20.2299 26.0387 21.4549 25.1524 22.4812 23.7753L23.1575 22.7717C23.4611 22.3054 24.1724 21.2082 24.4638 19.6333C24.5224 19.2947 24.5574 18.9569 24.5802 18.6183C24.5802 18.467 24.6265 18.3147 24.6965 18.1747C24.7665 18.0347 24.8715 17.9061 24.9879 17.8134C25.5592 17.3584 26.0614 16.8221 26.4692 16.2271C26.9705 15.5508 27.3555 14.7922 27.6127 13.9986C27.7641 13.555 27.8691 13.1001 27.9391 12.6451C27.9154 12.4815 27.9041 12.3065 27.8691 12.1315L27.8682 12.1446ZM10.4629 1.20168C10.5565 1.20168 10.6379 1.20168 10.7429 1.20168C11.2442 1.20168 11.7342 1.27167 12.2242 1.38804C12.6678 1.50441 13.1341 1.45803 13.5541 1.24805C14.3704 0.851697 15.1876 0.606712 15.9926 0.501719C16.0512 0.501719 16.1089 0.490345 16.1562 0.478095C16.2848 0.478095 16.4712 0.443098 16.7161 0.419474C16.8561 0.4081 17.0198 0.39585 17.2061 0.384476C17.0075 0.338104 16.7975 0.290857 16.5875 0.255859C16.4012 0.279483 16.2376 0.290857 16.1326 0.302231C16.0862 0.313606 16.0276 0.313606 15.9576 0.325855C15.1412 0.430848 14.3013 0.687207 13.4727 1.08443C13.0991 1.2708 12.6678 1.31804 12.2592 1.21305C11.7692 1.08443 11.2556 1.02669 10.7429 1.02669H10.3229C9.72796 1.07306 9.133 1.17805 8.56166 1.34167C7.57034 1.63302 6.64815 2.15799 5.89045 2.84657L5.61047 3.10293L5.35411 3.41791C4.58416 4.36285 4.2928 5.2378 4.12918 5.70414C4.10556 5.79776 4.08281 5.85551 4.05919 5.90276L4.01282 6.04275C3.80283 6.63771 3.65146 7.24405 3.58147 7.85126C3.54647 7.93263 3.52285 8.01487 3.5001 8.08487L3.4651 8.20124C3.44148 8.27123 3.40648 8.3526 3.38373 8.39985L3.25511 8.58621C2.92876 9.08756 2.2288 10.1375 2.00657 11.6074C1.97157 11.8288 1.8902 12.051 1.78521 12.2487L1.43523 12.8901L1.40023 12.9364C1.40023 12.9364 1.31886 13.0414 1.27161 13.1001L1.09662 13.345C0.618028 14.0336 0.280299 14.6986 0.0703125 15.3749C0.0816868 15.5263 0.0939359 15.6785 0.128934 15.8413C0.315297 15.0477 0.677524 14.2664 1.24886 13.4378L1.41248 13.2164C1.41248 13.2164 1.5061 13.1001 1.55247 13.0414L1.93745 12.3415C2.06606 12.1201 2.14743 11.8751 2.18243 11.6301C2.40379 10.2066 3.081 9.1803 3.41873 8.69033L3.54735 8.48035C3.57097 8.42173 3.60597 8.34035 3.64096 8.25899L3.67596 8.14262C3.69959 8.07262 3.72233 7.99125 3.75733 7.89763C3.82733 7.2913 3.97869 6.68408 4.18868 6.11274L4.23505 5.97275C4.23505 5.97275 4.27005 5.86776 4.30505 5.76277C4.45641 5.30779 4.74865 4.45647 5.49497 3.53428L5.73996 3.2193L6.00857 2.98569C6.75489 2.30936 7.65346 1.80714 8.60978 1.51578C9.16974 1.35217 9.75333 1.24717 10.336 1.21217H10.4647L10.4629 1.20168Z" fill="#6FC0FF"/>
<path d="M27.1919 9.33264C27.1805 9.75262 27.1105 10.114 27.0632 10.3826V10.4176C26.9696 10.9425 26.8183 11.4561 26.6083 11.9461V12.0047L26.5846 12.0511C26.5846 12.0975 26.561 12.1447 26.561 12.1911V12.2611C26.5024 12.6924 26.4097 13.136 26.2574 13.556C26.0474 14.221 25.7211 14.8509 25.3125 15.4109C24.9039 15.9945 24.4489 16.4608 23.9362 16.8344C23.7026 17.0094 23.5048 17.243 23.3648 17.4994C23.2362 17.7557 23.1549 18.0594 23.1549 18.3507C23.1549 18.7007 23.1199 19.0393 23.0499 19.3893C22.8163 20.6842 22.2449 21.5705 21.9299 22.0491L21.44 22.7841C20.5764 23.9976 19.5615 24.7676 18.3252 25.1403L18.2665 25.1639C18.1615 25.1989 18.0566 25.2225 17.9516 25.2339L17.8702 25.2575C17.5316 25.3161 17.1939 25.3389 16.8553 25.3389H16.5516C16.5516 25.3389 16.458 25.3389 16.3417 25.3503H16.1317C15.9917 25.3616 15.8281 25.3616 15.6767 25.3739C15.4203 25.3853 15.1517 25.4325 14.9067 25.5253C14.0204 25.8402 12.9355 25.9916 11.5233 25.9916C10.6248 25.9916 9.74982 25.933 9.00349 25.8752L8.78213 25.8516C8.63077 25.828 8.46715 25.8166 8.30354 25.793C7.6272 25.723 6.70501 25.618 5.6787 25.1394L5.43372 25.0108C5.32872 24.9522 5.22373 24.8944 5.11874 24.8244C5.36372 25.0344 5.62008 25.233 5.87731 25.408C6.82225 25.8044 7.6622 25.898 8.29216 25.968C8.44353 25.9794 8.60714 26.003 8.75851 26.0144L8.99212 26.038C9.73845 26.0966 10.6256 26.1666 11.5233 26.1666C12.9582 26.1666 14.0546 26.0152 14.9645 25.688C15.1981 25.5944 15.4431 25.548 15.6881 25.5366C15.8281 25.5366 15.9917 25.5253 16.143 25.5253H16.353L16.8666 25.5139C17.2052 25.5139 17.5552 25.4789 17.8929 25.4203H17.9743C18.0907 25.3853 18.1957 25.3616 18.3129 25.3266L18.3715 25.303C19.6428 24.918 20.6928 24.1245 21.58 22.8768L22.0699 22.1418C22.3849 21.6519 22.9685 20.7533 23.2249 19.412C23.2835 19.062 23.3185 18.7121 23.3185 18.3507C23.3298 18.0821 23.3998 17.8144 23.5171 17.5808C23.6457 17.3358 23.8207 17.1258 24.0421 16.9744C24.567 16.5894 25.0334 16.1108 25.4533 15.5159C25.8733 14.9323 26.1997 14.291 26.4219 13.6146C26.5733 13.1833 26.6669 12.7283 26.7255 12.2733V12.2147C26.7255 12.2147 26.7369 12.1333 26.7491 12.0747L26.7728 12.0161C26.9827 11.5148 27.1341 10.9898 27.2277 10.4526V10.4062C27.2627 10.2198 27.2977 9.98623 27.3327 9.72987C27.2977 9.60125 27.2514 9.46126 27.1927 9.33352L27.1919 9.33264ZM5.38822 6.41558C5.42322 6.32196 5.44684 6.25196 5.49321 6.14697C5.62183 5.73837 5.85456 5.05066 6.46178 4.30346L6.64814 4.0821L6.84675 3.89573C8.28166 2.58944 9.89156 2.48445 10.4279 2.44945H10.5215L10.7315 2.43808C11.3728 2.43808 11.9914 2.56669 12.5864 2.81168C12.7028 2.8703 12.82 2.89305 12.9477 2.88167C13.0764 2.88167 13.1927 2.84668 13.2977 2.78805H13.3213C13.8577 2.47307 14.8613 1.88949 16.1562 1.72675C16.2148 1.72675 16.2725 1.71537 16.3075 1.71537C16.4239 1.69175 16.6111 1.68037 16.8325 1.65675C17.2175 1.62175 17.8011 1.57538 18.431 1.57538C19.481 1.57538 20.3673 1.69175 21.1145 1.93673C20.9159 1.83174 20.7295 1.71537 20.5309 1.61038C19.9123 1.47039 19.2246 1.40039 18.431 1.40039C17.8011 1.40039 17.2061 1.44676 16.8098 1.48176C16.5884 1.50538 16.4012 1.52813 16.2962 1.54038C16.2498 1.55176 16.1912 1.55176 16.1325 1.56401C14.8263 1.72762 13.8113 2.29896 13.2514 2.62531H13.24C13.1464 2.68394 13.0414 2.70668 12.9486 2.70668C12.8436 2.71806 12.7386 2.69531 12.645 2.66031C12.0387 2.40395 11.3965 2.27534 10.7315 2.27534H10.4165C9.86794 2.32171 8.21167 2.4267 6.73038 3.76887L6.5204 3.96748L6.32178 4.20109C5.7032 4.97104 5.47046 5.671 5.33047 6.10235C5.29547 6.19597 5.27185 6.26596 5.23685 6.35871L5.19048 6.4637C5.00412 7.00004 4.86413 7.54863 4.81688 8.09722C4.8055 8.12085 4.8055 8.13222 4.8055 8.13222C4.74688 8.30721 4.68914 8.4822 4.65414 8.59857C4.58414 8.78493 4.50277 8.95992 4.47915 9.01854L4.37416 9.16991C4.37416 9.16991 4.35053 9.21628 4.32778 9.2399L4.30416 9.2749C3.98918 9.75349 3.32422 10.7562 3.20785 12.1097C3.19648 12.2611 3.16148 12.4011 3.10286 12.5411L2.97424 12.8797C2.93925 12.9733 2.88063 13.066 2.81063 13.1597C2.70564 13.2883 2.60064 13.416 2.50702 13.556L2.4834 13.5796C2.4834 13.5796 2.40203 13.6846 2.35478 13.7432L2.13342 14.0469C0.95487 15.7381 0.733509 17.2203 1.32847 19.3315L1.36347 19.4479C1.49209 19.8565 1.64345 20.2878 1.86481 20.7428C1.91119 20.8478 1.95843 20.9528 2.0048 21.0578L2.0398 21.1278C2.1098 21.2792 2.17979 21.4428 2.24979 21.6064C2.26116 21.6064 2.26116 21.6064 2.26116 21.63C2.49477 22.0036 2.76251 22.365 3.04249 22.7149C2.66889 22.1313 2.41253 21.56 2.19117 21.0587L2.15617 20.9887C2.1098 20.8837 2.06255 20.7787 2.01618 20.6737C1.79482 20.2301 1.65483 19.7987 1.52621 19.4024L1.49121 19.286C0.907623 17.2325 1.12986 15.7862 2.26116 14.1413L2.49477 13.85C2.49477 13.85 2.57614 13.745 2.61114 13.6864L2.63477 13.6514C2.73976 13.5228 2.83338 13.395 2.93837 13.2664C3.01974 13.1614 3.08974 13.0564 3.12473 12.94L3.26473 12.6014C3.32335 12.4501 3.35835 12.2865 3.36972 12.1351C3.48609 10.8166 4.1283 9.84886 4.44328 9.37027L4.4669 9.33527C4.4669 9.33527 4.51327 9.27665 4.52552 9.26527L4.61914 9.10166C4.66551 9.03166 4.73551 8.85667 4.81775 8.65806C4.85275 8.54169 4.91137 8.35446 4.96912 8.17947V8.14447C5.03911 7.5845 5.16773 7.03591 5.3541 6.5232L5.38909 6.4182L5.38822 6.41558Z" fill="#6FC0FF"/>
<path d="M25.7107 7.31476L25.6643 7.20977L25.6057 7.10478C25.2093 6.46344 24.7657 6.12484 24.4971 5.91485C24.4385 5.86848 24.3808 5.82123 24.3335 5.77486L24.1935 5.64624C23.9249 5.40126 23.7972 5.23764 23.6099 5.00491C23.0264 4.25858 22.42 3.59362 20.8915 3.02141L20.8215 2.99778C20.1802 2.76417 19.3866 2.65918 18.4303 2.65918C17.8467 2.65918 17.2867 2.70555 16.9254 2.72918C16.7154 2.7528 16.5518 2.77555 16.4354 2.7878C16.4004 2.7878 16.3418 2.7878 16.2954 2.81142C15.2218 2.94004 14.3591 3.43001 13.8456 3.73274C13.6119 3.84911 13.3792 3.9541 13.122 4.04772C13.0406 4.08272 12.947 4.09409 12.842 4.09409C12.7484 4.08272 12.6556 4.05909 12.5734 4.02409C12.1648 3.83773 11.3835 3.52275 10.7299 3.52275C10.6713 3.52275 10.6135 3.52275 10.5663 3.52275H10.4963C9.73768 3.56912 8.60638 3.74411 7.56782 4.68905L7.42783 4.81767L7.29921 4.98128C6.80924 5.57625 6.63425 6.11259 6.51788 6.47482C6.48289 6.59118 6.44789 6.6848 6.40152 6.80117L6.37789 6.87117C6.21428 7.31476 6.09791 7.78111 6.05154 8.2597C6.02792 8.38832 6.02792 8.3997 6.01654 8.44607C5.94655 8.63243 5.87655 8.87742 5.84155 8.99466C5.73656 9.28602 5.58519 9.58962 5.53795 9.67099L5.43295 9.82236C5.43295 9.82236 5.39795 9.88098 5.37433 9.91598L5.33933 9.96235C5.03573 10.4173 4.47576 11.2686 4.44076 12.3886V12.6572L4.41714 13.0658C4.41714 13.1594 4.37077 13.2521 4.31215 13.3221C3.96217 13.6957 3.72856 13.9985 3.4722 14.3257C3.4022 14.4193 3.33221 14.5243 3.25084 14.6293L3.15722 14.7457C2.21228 16.122 2.04866 17.2305 2.53863 18.9804L2.56226 19.0618C2.66725 19.4004 2.80724 19.7967 2.9936 20.1817C3.05223 20.3217 3.12222 20.4617 3.17997 20.6017C3.68131 21.7216 4.2999 23.1215 5.96842 24.0551L6.13203 24.1365C7.00698 24.5451 7.7883 24.6378 8.43051 24.6964C8.59413 24.7201 8.75687 24.7428 8.93186 24.7664H9.08322C9.8068 24.8364 10.6695 24.895 11.5217 24.895C12.968 24.895 14.0179 24.7314 14.8229 24.3701C14.8815 24.3465 14.9515 24.3237 15.0215 24.3115C15.1615 24.2878 15.6864 24.2651 16.2 24.2528H16.27C16.41 24.2415 16.4914 24.2415 16.55 24.2415H16.8414C17.1213 24.2415 17.4013 24.2178 17.6813 24.1715L17.8563 24.1365L18.0077 24.0901C19.419 23.6587 20.9239 21.5816 20.9939 21.4889C21.3088 20.9989 21.7752 20.264 21.9852 19.1676C22.1015 18.5263 22.0665 17.8964 22.0315 17.3478C22.0202 17.3128 22.0315 17.2541 22.0315 17.1728C22.0429 16.9978 22.0902 16.8342 22.1952 16.6828C22.2888 16.5428 22.4288 16.4264 22.5801 16.3565C23.3037 16.0301 23.91 15.5051 24.4236 14.7702C24.7736 14.2916 25.0422 13.7552 25.2286 13.1953C25.345 12.8453 25.4272 12.4717 25.4736 12.1103V12.0517C25.4736 11.9817 25.4972 11.9117 25.5086 11.8304C25.5199 11.7254 25.5549 11.6204 25.6022 11.5268V11.5031C25.7886 11.0945 25.9058 10.6632 25.9758 10.2318V10.1855C26.0922 9.54412 26.2794 8.45919 25.7072 7.30426L25.7107 7.31476ZM25.8384 10.1732V10.2082C25.7571 10.6396 25.6398 11.0595 25.4648 11.4681H25.4535C25.4071 11.5845 25.3721 11.7017 25.3598 11.8181C25.3362 11.8995 25.3362 11.9695 25.3248 12.0395V12.0981C25.2785 12.4594 25.1962 12.8094 25.0799 13.1594C24.9049 13.708 24.6363 14.2207 24.2985 14.6879C23.7972 15.3993 23.2136 15.9015 22.525 16.2278C22.3386 16.3092 22.175 16.4378 22.07 16.6128C21.9537 16.7764 21.8837 16.9742 21.8714 17.1841V17.3705C21.9064 17.9069 21.9528 18.5254 21.8251 19.1554C21.6264 20.2167 21.1715 20.9403 20.8687 21.4066C20.8451 21.4303 19.3175 23.5415 17.9639 23.9501L17.8126 23.9965L17.6612 24.0315C17.3926 24.0778 17.1248 24.1015 16.8562 24.1015C16.7976 24.0901 16.7399 24.1015 16.6699 24.0901H16.5535C16.5535 24.0901 16.4021 24.0901 16.2622 24.1015H16.1922C15.6322 24.1251 15.1422 24.1478 15.0022 24.1715C14.9209 24.1828 14.8386 24.2065 14.7572 24.2415C13.9759 24.5914 12.9487 24.7428 11.5261 24.7428C10.6747 24.7428 9.82255 24.6842 9.09985 24.6378L8.95986 24.6142C8.78487 24.5906 8.60988 24.5792 8.44626 24.5556C7.82768 24.4856 7.04635 24.4042 6.2064 24.007L6.04279 23.9256C4.43289 23.0157 3.8143 21.6507 3.32433 20.5544C3.26571 20.4144 3.20797 20.2745 3.13797 20.1345C2.95161 19.7495 2.82299 19.3645 2.718 19.0259L2.69437 18.9445C2.21578 17.2533 2.36802 16.1797 3.28934 14.8498L3.37071 14.7334C3.45208 14.6284 3.53432 14.5348 3.60432 14.4298C3.8493 14.1148 4.08291 13.8112 4.43289 13.4385C4.51426 13.3449 4.57288 13.2171 4.58426 13.0885L4.60788 12.6686V12.5522L4.5965 12.4122C4.64288 11.3273 5.18009 10.5109 5.48282 10.056L5.50645 10.0096C5.50645 10.0096 5.55282 9.9396 5.57644 9.91598L5.67006 9.77599C5.72868 9.68237 5.88005 9.36739 5.99642 9.06465C6.03141 8.93604 6.10141 8.69105 6.17141 8.50469C6.19503 8.43469 6.19503 8.42332 6.2064 8.28333C6.25278 7.82836 6.37002 7.37339 6.52138 6.92979L6.54501 6.87117C6.59138 6.74255 6.62638 6.64981 6.67362 6.53256C6.77862 6.18258 6.95361 5.65762 7.41995 5.08628L7.54857 4.93491L7.67719 4.81854C8.68075 3.9086 9.77706 3.73361 10.512 3.68724H10.7334C11.3633 3.68724 12.1097 3.99085 12.5069 4.16584C12.6119 4.21221 12.7282 4.24721 12.8455 4.24721C12.9627 4.24721 13.0791 4.23583 13.1841 4.18858C13.4405 4.10721 13.6854 3.98997 13.9304 3.86223C14.4318 3.57087 15.2717 3.09228 16.3103 2.96366C16.3689 2.95229 16.4153 2.95229 16.4616 2.94004C16.578 2.92866 16.7416 2.91641 16.9402 2.89367C17.3016 2.85867 17.8502 2.8123 18.4338 2.8123C19.3787 2.8123 20.1487 2.92866 20.7786 3.13865L20.8372 3.16227C22.3308 3.72224 22.9257 4.37582 23.4971 5.11078C23.6834 5.34439 23.8234 5.51938 24.092 5.76436L24.2207 5.88073C24.2207 5.88073 24.3493 5.9971 24.407 6.04434C24.6634 6.24296 25.0956 6.56931 25.4683 7.1879L25.5269 7.28152L25.5733 7.38651C26.1219 8.49507 25.9469 9.545 25.8419 10.175L25.8384 10.1732Z" fill="#6FC0FF"/>
<path d="M24.5923 7.86296L24.5337 7.75796C24.2651 7.31436 23.9624 7.08163 23.7401 6.90664C23.6351 6.82527 23.5301 6.74303 23.4365 6.65028L23.3665 6.58029C23.0165 6.26531 22.8302 6.0317 22.6316 5.77534C22.1302 5.134 21.6866 4.65541 20.4381 4.17681H20.4144C19.9009 4.00182 19.2595 3.9082 18.4309 3.9082C18.011 3.9082 17.5446 3.93183 17.0547 3.9782C16.856 4.00182 16.7047 4.0132 16.6111 4.02457H16.5874C16.5874 4.02457 16.5061 4.02457 16.4588 4.04819C15.6302 4.14181 14.9303 4.54954 14.4639 4.81815C14.0203 5.06313 13.3676 5.30812 12.9827 5.41311C12.7963 5.45948 12.5977 5.43673 12.4341 5.35449C12.3641 5.31949 12.2941 5.27312 12.2005 5.22587L12.1305 5.19087C11.8155 5.02726 11.3491 4.7709 10.7306 4.7709H10.5906C9.97198 4.81727 9.15565 4.95726 8.40932 5.63447L8.33933 5.69309L8.26933 5.77446C7.93073 6.19444 7.81436 6.55579 7.70937 6.88302C7.66299 6.99938 7.628 7.11663 7.558 7.27937V7.30299C7.41801 7.66434 7.33664 8.03794 7.28939 8.42292C7.27802 8.57429 7.2544 8.71428 7.20802 8.85427C7.1494 9.00563 7.09166 9.19287 7.05666 9.32061L7.03303 9.40199C6.89304 9.76334 6.68306 10.2533 6.55444 10.4169L6.49582 10.4983C6.49582 10.4983 6.44945 10.5683 6.42582 10.6033L6.39082 10.6619C6.12222 11.0705 5.71449 11.6655 5.69087 12.4468V12.6218C5.71449 12.7382 5.72587 12.8554 5.74949 12.9718L5.87811 13.3217C5.87811 13.3217 5.90173 13.4267 5.88948 13.4731C5.87811 13.5317 5.84311 13.5781 5.80811 13.6131C5.13178 14.2431 4.82817 14.6394 4.47819 15.0944C4.39682 15.1994 4.32683 15.293 4.23321 15.4094L4.18684 15.468C3.45188 16.5415 3.34689 17.2529 3.74324 18.6528V18.6878C3.84823 18.9914 3.9646 19.3414 4.12822 19.6563C4.18684 19.7963 4.24458 19.925 4.31458 20.0649V20.1113C4.79317 21.1613 5.28314 22.2462 6.57806 22.9698L6.67168 23.0161C7.34801 23.3425 7.9666 23.4011 8.56156 23.4711C8.73655 23.4947 8.92292 23.5061 9.11015 23.5297H9.19152C9.88011 23.5997 10.7078 23.6583 11.525 23.6583C12.7963 23.6583 13.6949 23.5184 14.3485 23.2384C14.4884 23.1684 14.6398 23.122 14.7921 23.0984C15.0257 23.052 15.4456 23.0398 16.1333 23.017H16.2033C16.367 23.0056 16.4833 23.0056 16.5533 23.0056H16.8447C17.066 23.0056 17.2646 22.982 17.4746 22.947H17.5683L17.6382 22.912C18.7232 22.5857 19.8781 20.9285 19.9245 20.8471C20.2281 20.3808 20.6008 19.8086 20.7644 18.9459C20.858 18.4559 20.823 17.9423 20.788 17.4296C20.7644 17.056 20.7067 16.2633 20.8694 16.0883L20.9858 15.9247C21.1608 15.6561 21.4294 15.4584 21.7321 15.3647C22.4207 15.1434 22.9334 14.7348 23.412 14.0462C23.692 13.6726 23.9134 13.2526 24.0533 12.8099C24.147 12.5299 24.2047 12.2499 24.2397 11.9586V11.9C24.2397 11.8186 24.2633 11.725 24.2861 11.62C24.3211 11.4214 24.3797 11.235 24.4497 11.06C24.6011 10.7337 24.6947 10.3837 24.7533 10.0337V9.98732C24.8583 9.42736 24.9869 8.66878 24.5897 7.86383L24.5923 7.86296ZM24.6151 9.96282V10.0092C24.5451 10.3478 24.4514 10.6742 24.3115 10.9891C24.2301 11.1877 24.1715 11.3855 24.1365 11.5841C24.1128 11.7005 24.1015 11.7941 24.0901 11.8755V11.9455C24.0551 12.2141 23.9851 12.494 23.9037 12.7618C23.7637 13.1931 23.5651 13.5903 23.2851 13.9517C22.8302 14.6167 22.3402 15.0016 21.6866 15.2116C21.348 15.3166 21.0453 15.538 20.858 15.8416L20.7417 15.9816C20.5667 16.1802 20.5903 16.8215 20.6367 17.4629C20.6603 17.9415 20.6953 18.4428 20.6017 18.9214C20.4503 19.75 20.0881 20.3099 19.7967 20.7649C19.7967 20.7763 18.6182 22.4448 17.5919 22.7598H17.5333L17.4519 22.7948C17.2533 22.8298 17.0433 22.8411 16.8455 22.8411H16.5542C16.4842 22.8411 16.3678 22.8411 16.1806 22.8411H16.1342C15.4229 22.8648 15.0029 22.8875 14.7693 22.9348C14.5943 22.9584 14.4429 23.0161 14.2793 23.0748C13.6607 23.3547 12.7744 23.4834 11.5259 23.4834C10.7096 23.4834 9.89236 23.4247 9.20465 23.3784H9.13465C8.93604 23.3434 8.76105 23.3197 8.58606 23.297C7.9911 23.2384 7.38476 23.1684 6.73118 22.8656L6.66118 22.8306C5.40126 22.1193 4.93491 21.0571 4.46769 20.0308V19.9844C4.3977 19.8558 4.3277 19.7158 4.26908 19.5759C4.11772 19.2722 4.00047 18.9223 3.90773 18.6309V18.5959C3.52275 17.2546 3.61637 16.566 4.3277 15.5511L4.3627 15.4925C4.44407 15.3761 4.52632 15.2825 4.59631 15.1775C4.94629 14.7225 5.24989 14.3376 5.91485 13.719C5.97347 13.6603 6.01985 13.579 6.04347 13.4976C6.05485 13.4162 6.05484 13.334 6.0321 13.2526L5.90348 12.914C5.87986 12.809 5.86848 12.704 5.85711 12.599V12.4354C5.88073 11.7118 6.26571 11.1291 6.52207 10.7442L6.55706 10.6855C6.55706 10.6855 6.61569 10.6042 6.63843 10.5692L6.68481 10.4992C6.83617 10.3006 7.05841 9.76421 7.17478 9.44923L7.20977 9.35561C7.24477 9.227 7.30339 9.04063 7.36114 8.88927C7.40751 8.7379 7.44251 8.58566 7.45476 8.42292C7.48976 8.06157 7.57113 7.68797 7.69974 7.33799L7.72337 7.31437C7.78199 7.163 7.81699 7.03438 7.86336 6.91801C7.95698 6.60303 8.07334 6.25306 8.3997 5.86808L8.45832 5.79808L8.51694 5.73946C9.22827 5.08588 10.0105 4.95814 10.6168 4.92314H10.7332C11.3168 4.92314 11.7595 5.15675 12.0517 5.31949L12.1331 5.35449C12.2145 5.40086 12.2967 5.44811 12.3667 5.4831C12.5653 5.5881 12.8103 5.61172 13.0317 5.5531C13.428 5.43673 14.0816 5.19175 14.5602 4.93451C15.0038 4.67815 15.6915 4.28093 16.4851 4.18819C16.5314 4.18819 16.5664 4.17681 16.6014 4.17681H16.6251C16.7187 4.17681 16.8814 4.14181 17.0687 4.13044C17.5586 4.08407 18.0136 4.06044 18.4336 4.06044C19.2385 4.06044 19.8685 4.14181 20.3698 4.3168L20.3934 4.23543V4.3168C21.5947 4.77177 22.027 5.23812 22.5169 5.85671C22.7156 6.11307 22.9019 6.35805 23.2633 6.68528L23.3333 6.7439C23.4269 6.84889 23.5319 6.94251 23.6482 7.02388C23.8582 7.1875 24.1496 7.40886 24.4068 7.82883L24.4532 7.92245C24.8268 8.68103 24.6982 9.41598 24.6168 9.95233L24.6151 9.96282Z" fill="#6FC0FF"/>
<path d="M23.3442 9.70582C23.2855 10.0444 23.2155 10.2072 23.1455 10.3944C23.0642 10.6044 22.9592 10.8258 22.8769 11.293C22.8419 11.4793 22.8306 11.608 22.8069 11.7366V11.7479C22.7833 11.9343 22.7719 12.0629 22.6906 12.2965C22.6319 12.4829 22.527 12.7979 22.2706 13.1365C22.0606 13.4051 21.722 13.8601 21.267 13.9178C21.232 13.9178 21.1384 13.9178 21.1157 13.9178C19.8207 13.2529 18.7008 12.7629 18.3158 12.6579C17.8722 12.5293 17.9195 11.5493 17.9772 10.6866C18.0009 10.3017 18.0236 9.94031 18.0009 9.62533C17.9422 8.5404 17.7445 7.3391 16.7996 6.75551C16.2282 6.40553 15.5046 6.31191 14.8047 6.30054C14.9333 6.24192 15.0733 6.16055 15.236 6.06693C15.6446 5.82194 16.1574 5.53059 16.6709 5.48334C16.8346 5.47196 16.9973 5.44834 17.1609 5.42472C18.1872 5.30835 19.0622 5.21473 19.9957 5.52971C20.4157 5.6697 21.2907 6.15967 21.512 6.60327C21.6634 6.91825 21.932 7.16323 22.4683 7.66458C22.7483 7.92094 22.9233 8.07318 23.0633 8.17817C23.2497 8.34178 23.2847 8.36453 23.3433 8.48178C23.5183 8.83175 23.4483 9.20536 23.3669 9.71807L23.3442 9.70582Z" fill="white"/>
<path d="M18.5944 14.1852C18.6644 14.2089 18.6994 14.3016 18.653 14.3716C18.513 14.5816 18.3616 14.8616 18.1744 15.2002C18.0808 15.3638 17.9994 15.5265 17.9294 15.6438C17.673 16.0751 17.6608 16.4373 17.638 16.7287C17.6267 17.0323 17.6031 17.1723 17.4281 17.3C17.2767 17.405 17.1245 17.44 16.0518 17.5914C15.8654 17.615 15.7832 17.6614 15.7132 17.685C15.7018 17.685 15.6895 17.685 15.6782 17.6964C15.6082 17.7314 15.5268 17.6614 15.5382 17.58C15.5382 17.4287 15.5496 17.2414 15.5496 17.0201V16.9737C15.5496 16.7637 15.5496 16.5887 15.5496 16.4601C15.5382 16.1915 15.5382 16.0751 15.6082 15.9588C15.7018 15.8188 15.7718 15.7724 15.8768 15.7024C16.0404 15.5974 16.2504 15.4688 16.5767 15.0138C16.7517 14.7802 16.7867 14.6525 16.8104 14.5352C16.8104 14.4888 16.8217 14.4766 16.9617 14.3716C17.1017 14.2666 17.5331 13.9403 18.0816 14.033C18.2216 14.0566 18.408 14.1144 18.6066 14.173L18.5944 14.1852Z" fill="white"/>
<path d="M14.3718 19.1205C14.3718 19.1205 14.3254 19.1669 14.2782 19.1669C14.1618 19.1669 14.0918 19.1433 14.0332 19.0855C13.9282 18.9569 13.9396 18.6769 13.9632 18.5255L14.4182 18.4092C14.4532 18.6542 14.4645 18.9928 14.3718 19.1328V19.1205Z" fill="white"/>
<path d="M14.406 17.4873C14.406 17.5573 14.3946 17.6273 14.3946 17.7087C14.3946 17.7323 14.3946 17.7673 14.3946 17.7901C14.3946 17.8601 14.3946 17.9764 14.3946 18.0351C14.2546 18.0814 14.1382 18.0814 13.9746 18.0814C13.9746 18.0351 13.9746 17.9651 13.9746 17.9178C13.9746 17.8828 13.9746 17.8478 13.9746 17.8128C13.9746 17.7778 13.9746 17.7428 13.9746 17.6965C13.9746 17.6501 13.9746 17.4629 13.9982 17.4279C14.0446 17.4279 14.0796 17.4165 14.1268 17.4042C14.2205 17.3806 14.3368 17.3579 14.4182 17.3692C14.4182 17.4042 14.4182 17.4392 14.4182 17.4742L14.406 17.4873Z" fill="white"/>
<path d="M13.5672 18.9805C13.5436 19.2141 13.4736 19.4941 13.2522 19.5405C13.1586 19.5641 13.1122 19.5405 13.0772 19.5055C12.9259 19.3655 12.9022 18.9569 12.9259 18.6655C13.0195 18.6655 13.1472 18.6419 13.2995 18.6192C13.3931 18.5955 13.4858 18.5842 13.5558 18.5605C13.5558 18.6655 13.5672 18.8292 13.5558 18.9805H13.5672Z" fill="white"/>
<path d="M13.4626 18.1527L12.9727 18.3277C12.9963 18.1413 13.0313 17.8727 13.0427 17.6864C13.0427 17.5577 13.089 17.5227 13.089 17.5114C13.089 17.5114 13.089 17.5114 13.1126 17.5114L13.4276 17.5C13.439 17.64 13.439 17.9663 13.4276 18.165L13.4626 18.1527Z" fill="white"/>
<path d="M12.6785 18C12.6548 18.07 12.6199 18.2799 12.5971 18.4313L11.9785 18.4077C12.0135 18.2213 12.0599 18.0227 12.1185 17.8713C12.1771 17.72 12.2349 17.6027 12.2821 17.5677C12.3407 17.5327 12.4807 17.5214 12.5621 17.5914C12.7021 17.7077 12.7371 17.8363 12.6785 17.9877V18Z" fill="white"/>
<path d="M12.4464 19.8785C12.4001 19.9485 12.3415 19.9722 12.2828 19.9835C12.2128 19.9835 12.1665 19.9835 12.1192 19.9372C11.9206 19.7622 11.9442 19.1786 11.9442 18.8986C12.2006 18.84 12.4692 18.7936 12.6092 18.7822C12.6328 19.0158 12.6337 19.6222 12.4464 19.8785Z" fill="white"/>
<path d="M11.6438 18.3854C11.6088 18.4668 11.5852 18.5368 11.5624 18.6068C11.4924 18.6304 11.2711 18.6068 11.0488 18.5604L11.2002 17.5918C11.4566 17.5218 11.7488 17.4982 11.8188 17.5805C11.9124 17.6741 11.7252 18.1754 11.6438 18.3854Z" fill="white"/>
<path d="M11.3638 20.0194C11.2474 20.1708 11.0601 20.2294 10.8152 20.2294C10.6402 20.2294 10.5816 20.1594 10.5466 20.1131C10.4066 19.8917 10.5466 19.3781 10.6752 19.0518L11.5037 19.0981C11.5037 19.0981 11.5151 19.2267 11.5274 19.3081C11.5274 19.5417 11.5037 19.8331 11.3524 20.0194H11.3638Z" fill="white"/>
<path d="M20.473 13.8946C19.4817 13.3933 18.5482 13.1011 18.2445 13.0197C17.486 12.7983 17.556 11.7012 17.6146 10.6512C17.6382 10.2776 17.661 9.91627 17.6496 9.62491C17.591 8.64497 17.416 7.56004 16.6233 7.07007C15.772 6.5451 14.3598 6.66147 13.4971 6.77871C13.2057 6.86008 12.9258 6.93008 12.7035 6.93008H12.6571C12.1436 6.89508 11.7472 6.6851 11.3972 6.49873C11.1286 6.34737 10.8836 6.21875 10.6623 6.21875H10.6273C9.95094 6.26512 9.64733 6.42874 9.36735 6.67372C9.29736 6.74372 9.20374 6.91871 8.92376 7.73503C8.78376 8.14363 8.76014 8.36499 8.73739 8.58635C8.71377 8.78496 8.69102 8.9827 8.57378 9.28631C8.50378 9.49629 8.45741 9.68266 8.39879 9.85765C8.2588 10.324 8.1538 10.6862 7.82745 11.1289C7.78108 11.1753 7.73383 11.2453 7.67608 11.3389C7.60609 11.4553 7.51247 11.6075 7.3961 11.7703C7.30248 11.8866 7.10474 12.3416 7.11612 12.4702C7.13974 12.6916 7.20974 12.8202 7.27973 12.9838C7.3611 13.1352 7.45472 13.3102 7.47835 13.5552V13.5902C7.50197 13.9751 7.45472 14.1615 6.71977 14.8151C6.25342 15.2351 5.92619 15.6437 5.70483 15.935C5.68121 15.9586 5.70483 15.9936 5.73983 15.9936H5.87982C6.06618 16.0173 6.2298 16.0873 6.35842 16.215C6.38204 16.2386 6.41704 16.25 6.43978 16.2386C6.55615 16.1923 6.69614 16.1923 6.81339 16.2036C6.96475 16.2272 7.11699 16.2622 7.22199 16.355C7.25698 16.39 7.30336 16.4136 7.36198 16.4014C7.47834 16.3777 7.59559 16.3777 7.71196 16.425C7.79333 16.4486 7.86332 16.495 7.92194 16.5536C7.98056 16.6122 8.07331 16.6236 8.1433 16.5886C8.16693 16.565 8.20192 16.5536 8.22467 16.5422C8.38829 16.4959 8.56328 16.5186 8.71464 16.5772C8.79601 16.6009 8.86601 16.6358 8.936 16.6708C9.05237 16.7522 9.12237 16.8572 9.16961 16.9745C9.21599 17.0681 9.33323 17.1031 9.4146 17.0444C9.51959 16.9745 9.60096 16.9631 9.67096 16.9981C9.70596 17.0217 9.74095 17.0331 9.75233 17.0567C9.81095 17.1267 9.90369 17.1967 9.99731 17.1731C10.2309 17.1144 10.5223 17.1494 10.7323 17.2667C10.8136 17.3017 10.8836 17.3717 10.9423 17.4653V17.4189C10.9423 17.4189 10.9659 17.3839 10.9886 17.3839H11.035C11.1636 17.3253 11.7813 17.1503 12.0149 17.4076C12.0263 17.4189 12.0499 17.4189 12.0613 17.4076L12.1313 17.3376C12.2949 17.2439 12.5627 17.2326 12.7376 17.3962C12.7726 17.4198 12.8313 17.4076 12.8663 17.3726C12.8663 17.3489 12.9013 17.3262 12.9126 17.3139C12.9826 17.2553 13.064 17.2326 13.1462 17.2326H13.4848C13.5785 17.2089 13.8348 17.1976 13.9284 17.1739H13.9398C13.9398 17.1739 14.0212 17.1626 14.0684 17.1503C14.232 17.1153 14.4184 17.0689 14.5698 17.1389C14.7211 17.2089 14.6984 17.3839 14.6861 17.5239C14.6748 17.5825 14.6625 17.6525 14.6625 17.7103C14.6625 17.7339 14.6625 17.7689 14.6739 17.7917C14.6739 17.9203 14.6739 18.0366 14.6503 18.1303V18.2003C14.6853 18.2702 14.7553 18.3052 14.8139 18.2702C14.9303 18.2003 15.0475 18.1066 15.0825 18.0603H15.0939C15.0939 18.0603 15.1052 18.0016 15.1175 17.9439C15.1411 17.8153 15.1639 17.5589 15.1639 17.0339V16.9753C15.1639 16.789 15.1639 16.6253 15.1525 16.4967C15.1411 16.2054 15.1289 15.9831 15.2689 15.7618C15.4088 15.5404 15.5375 15.4582 15.6652 15.3768C15.8166 15.2832 15.9802 15.1782 16.2602 14.7932C16.4002 14.6069 16.4238 14.5246 16.4352 14.4669C16.4588 14.3155 16.5052 14.2332 16.7265 14.0705C16.8901 13.9419 17.4265 13.5455 18.1378 13.6619C18.3714 13.6969 18.7441 13.8255 19.1177 13.9769C19.1414 13.9769 19.1527 13.9769 19.1641 13.9883H19.1755C19.5018 14.1283 19.8168 14.2682 20.0268 14.3846C20.0854 14.4196 20.1554 14.3846 20.2018 14.3496C20.2718 14.2682 20.3418 14.221 20.4118 14.1746C20.4468 14.1746 20.4704 14.1396 20.4932 14.1283C20.5632 14.0696 20.5518 13.9419 20.4695 13.8946H20.473ZM11.105 13.2411C10.8714 14.256 9.29648 15.3759 8.58515 15.3759H8.57378C8.57378 15.3759 8.55015 15.3759 8.53878 15.3646H8.49241C8.49241 15.3646 8.48103 15.3532 8.46878 15.3532C8.34017 15.3068 8.16518 15.2132 8.02519 15.0732C7.93157 14.9918 7.86157 14.8746 7.83882 14.7582C7.83882 14.7582 7.83882 14.7232 7.83882 14.6996C7.79245 14.5246 7.7452 14.3146 7.89744 13.9646C7.92107 13.9183 7.94382 13.871 7.95607 13.8246C7.95607 13.8133 7.96744 13.801 7.96744 13.7897C7.99106 13.7547 8.00244 13.7197 8.01381 13.6847C8.03744 13.626 8.06018 13.5797 8.07243 13.5447C8.07243 13.5333 8.08381 13.521 8.08381 13.4983C8.13018 13.3819 8.13018 13.3347 8.14243 13.2883C8.14243 13.2533 8.1538 13.2069 8.16605 13.1369C8.21242 12.9506 8.23605 12.787 8.25967 12.647C8.29467 12.3906 8.31829 12.1684 8.45828 11.9584C8.48191 11.9234 8.51691 11.8998 8.53965 11.8648C8.55103 11.8534 8.56328 11.8534 8.57465 11.8411C8.58603 11.8289 8.59828 11.8175 8.60965 11.8175C8.64465 11.7939 8.67965 11.7712 8.71464 11.7475C8.71464 11.7475 8.73827 11.7362 8.74964 11.7362C8.78464 11.7248 8.80826 11.7125 8.84326 11.7125C8.97188 11.6775 9.12324 11.6662 9.29823 11.6889C9.48459 11.7125 9.65958 11.7475 9.81182 11.7825C9.94044 11.8289 10.0568 11.8639 10.1618 11.8989C10.1732 11.8989 10.1854 11.8989 10.1854 11.9225C10.209 11.9225 10.2318 11.9339 10.244 11.9339C10.2677 11.9453 10.2904 11.9575 10.314 11.9689C10.349 11.9803 10.3727 12.0039 10.4077 12.0039H10.4313C10.5363 12.0739 10.6299 12.1203 10.7113 12.1789C10.7463 12.2139 10.7926 12.2375 10.8163 12.2725C10.8276 12.2725 10.8399 12.2961 10.8513 12.3075C10.8626 12.3075 10.8749 12.3189 10.8863 12.3311C11.1899 12.6461 11.1662 13.0197 11.1199 13.2411H11.105ZM11.8286 9.40355L11.8049 9.58991C11.735 9.99851 11.5713 10.5699 10.9764 10.7098C10.3928 10.8498 10.265 10.8848 9.85645 10.9085H9.82145C9.53009 10.9085 8.95788 10.7221 8.85288 10.2435C8.78289 9.95214 8.92288 9.72991 9.13287 9.36855C9.17924 9.30993 9.21424 9.23994 9.26148 9.16994C9.54147 8.67997 9.65783 8.32999 9.75145 8.05001C9.84507 7.77003 9.91507 7.54867 10.1014 7.36143C10.1478 7.31506 10.1951 7.26781 10.2528 7.23281C10.2878 7.20919 10.3342 7.18644 10.3692 7.16282C10.4278 7.13919 10.4855 7.11644 10.5442 7.09282C10.6728 7.04645 10.8241 7.0342 10.9641 7.0342C11.2441 7.0342 11.5241 7.10419 11.7227 7.26781C11.8041 7.3378 11.9327 7.4778 12.0027 7.90914C12.0491 8.11913 11.9791 8.51548 11.8277 9.40268L11.8286 9.40355ZM16.0869 10.5812C15.8769 10.9312 15.772 11.1298 15.597 11.2698C15.2356 11.5612 14.827 11.6312 14.4884 11.6312C14.2434 11.6312 14.0448 11.5962 13.9171 11.5725C13.5671 11.5139 12.9258 11.3976 12.7035 10.884C12.6685 10.779 12.6571 10.709 12.6571 10.6276C12.6571 10.5462 12.6571 10.4176 12.6221 10.0913V10.0676C12.6108 9.92764 12.5872 9.76403 12.6335 9.54267V9.51904C12.7499 8.90046 12.7849 8.80771 12.8199 8.74909C12.8785 8.62047 13.0299 8.5741 13.1462 8.6441C13.2749 8.70272 13.3212 8.84271 13.2626 8.97045C13.2512 9.00545 13.2162 9.13407 13.1226 9.61179V9.64679C13.0876 9.7754 13.099 9.8804 13.1226 10.0081V10.0318C13.1576 10.3817 13.1576 10.5454 13.1576 10.6267V10.6731V10.6845C13.1926 10.7658 13.2626 10.8358 13.3676 10.8945C13.449 10.9408 13.5312 10.8595 13.519 10.7658C13.414 10.2173 13.4253 9.59954 13.624 9.21456C13.694 9.08595 13.8226 8.86458 13.9389 8.66597C13.9389 8.66597 13.9626 8.63097 13.9739 8.60735C13.9853 8.58373 13.9853 8.57235 13.9976 8.56098C14.0562 8.46736 14.1026 8.38599 14.1489 8.31599C14.1489 8.31599 14.1489 8.30462 14.1489 8.29237H14.1603C14.1603 8.29237 14.1717 8.246 14.1839 8.23375H14.1953C14.1953 8.23375 14.2067 8.21013 14.2067 8.19875C14.2067 8.18738 14.2067 8.19875 14.2067 8.17513C14.2417 8.12876 14.2767 8.08151 14.3003 8.04651C14.3703 7.95289 14.2889 7.83652 14.1839 7.8829C14.0089 7.96427 13.8926 8.05789 13.8689 8.06926C13.764 8.16288 13.6003 8.13926 13.519 8.03426C13.4376 7.92927 13.449 7.76565 13.5653 7.68428C13.694 7.57929 14.3703 7.08932 15.1866 7.32293C15.7702 7.48655 16.0852 7.92927 16.2016 8.10426C16.2952 8.24425 16.5752 8.65285 16.5629 9.23556C16.5629 9.67916 16.3765 9.99414 16.0379 10.5769L16.0869 10.5812Z" fill="white"/>
<path d="M10.7915 7.53613C10.7451 7.64113 10.6978 7.75749 10.6515 7.89749C10.5228 8.21247 10.3829 8.57382 10.3129 8.70244C10.1965 8.9238 10.1029 9.06379 10.0329 9.18103C9.9515 9.30965 9.88151 9.41464 9.83426 9.55463C9.74064 9.81099 9.72927 10.091 9.78789 10.3946C9.63652 10.3832 9.37929 10.266 9.34429 10.1382C9.32067 10.0332 9.39066 9.92823 9.56565 9.62463C9.60065 9.56601 9.64702 9.49601 9.68202 9.42601C9.997 8.88967 10.1256 8.49245 10.2184 8.20109C10.3234 7.88611 10.3697 7.75749 10.5333 7.64113C10.6033 7.59475 10.697 7.55976 10.7897 7.53613H10.7915Z" fill="white"/>
<path d="M10.4861 18.7479C10.3111 19.0979 10.1011 19.4242 9.96111 19.5878C9.84474 19.2842 9.65751 18.5965 9.70475 18.0479C9.70475 18.0366 9.70475 18.0129 9.70475 18.0016C9.72838 17.8266 9.77475 17.6752 9.85612 17.5466C9.91474 17.4652 10.0547 17.418 10.2297 17.418C10.3583 17.418 10.4861 17.4416 10.6033 17.5116C10.6619 17.5466 10.7547 17.6166 10.7547 17.8029C10.7661 18.0716 10.6383 18.4215 10.4747 18.7479H10.4861Z" fill="white"/>
<path d="M19.9588 14.7927C19.9588 14.7927 19.9824 14.8163 19.9701 14.839C19.9238 14.944 19.8538 15.014 19.7838 15.1076C19.6902 15.2126 19.5974 15.329 19.5038 15.5162C19.3752 15.7848 19.3288 16.0176 19.3052 16.6362C19.2816 17.3597 19.3052 17.7675 19.3288 18.0597C19.3524 18.3519 19.3638 18.5147 19.3052 18.7947C19.2002 19.3546 18.9666 19.7282 18.6516 20.2059C18.2666 20.8009 17.8703 21.4072 17.2167 21.5945C17.1581 21.6181 17.1581 21.6181 16.9831 21.6181C16.8317 21.6181 16.5867 21.6181 16.1195 21.6417C15.2682 21.6767 14.836 21.6881 14.4746 21.7581C14.0896 21.8281 13.891 21.9095 13.6933 21.9917C13.5183 22.0617 13.3547 22.1317 13.0397 22.1903C12.8533 22.2253 12.5611 22.2717 11.6048 22.2717C10.6012 22.2717 9.9949 22.2717 9.20132 22.1781C8.10502 22.0495 7.55643 21.9917 7.18282 21.7931C6.31925 21.3381 5.9579 20.5095 5.35156 19.1333C5.35156 19.1219 5.36294 19.0983 5.38656 19.1096C5.41018 19.1333 5.44518 19.1446 5.48018 19.156C5.5038 19.156 5.5388 19.1674 5.56155 19.1796C5.62017 19.1796 5.67792 19.1796 5.73654 19.1796H5.76016H5.78379C5.81878 19.2846 5.88878 19.3782 5.9824 19.436C6.08739 19.4946 6.20376 19.4946 6.321 19.4946C6.43825 19.4946 6.55461 19.4946 6.67098 19.471C6.7296 19.471 6.7996 19.4946 6.82235 19.5524C6.92734 19.8087 7.06733 19.996 7.26594 20.031C7.26594 20.031 7.28957 20.031 7.31232 20.031C7.34731 20.031 7.40593 20.031 7.4873 19.9723C7.58092 19.9137 7.73229 19.9487 7.80228 20.031C7.84866 20.0773 7.8959 20.1246 7.9309 20.1473C8.14089 20.3573 8.63086 20.4623 9.05083 20.4623C9.28444 20.4623 9.48218 20.4273 9.59942 20.3687C9.77441 20.2873 9.77441 20.1587 9.76304 20.1001C9.75166 20.0065 9.73941 19.9137 9.72804 19.8201C9.72804 19.8201 9.73941 19.8087 9.75166 19.8201C9.77529 19.8787 9.81028 19.9487 9.89165 19.9601C9.89165 19.9601 9.91528 19.9601 9.92665 19.9601C10.043 19.9601 10.2303 19.9951 10.253 20.1114C10.2644 20.1701 10.288 20.2278 10.323 20.2751C10.393 20.3914 10.533 20.52 10.813 20.52H10.8366C11.1629 20.52 11.4079 20.4151 11.5829 20.2051C11.5829 20.1937 11.6065 20.1814 11.6179 20.1587C11.6765 20.0773 11.8629 20.0651 11.9329 20.1351C12.0143 20.2164 12.1315 20.2514 12.2479 20.2514C12.2715 20.2514 12.2829 20.2514 12.3065 20.2514C12.4465 20.2401 12.5751 20.1578 12.6679 20.0301C12.7265 19.9487 12.7728 19.8437 12.8078 19.7265C12.8078 19.6915 12.8665 19.6801 12.8892 19.7028C12.9478 19.7615 13.0528 19.8192 13.1928 19.8192C13.2278 19.8192 13.2628 19.8192 13.3092 19.8078C13.5892 19.7492 13.7292 19.5165 13.7992 19.2592C13.7992 19.2592 13.8105 19.2592 13.8228 19.2592C13.8928 19.3406 14.0214 19.4456 14.2541 19.4456C14.2655 19.4456 14.2778 19.4456 14.2891 19.4456C14.4055 19.4456 14.5105 19.387 14.5927 19.2942C14.6741 19.1779 14.7214 19.0143 14.7214 18.8507C14.7214 18.792 14.7677 18.7343 14.8263 18.7107C15.06 18.6057 15.3513 18.3957 15.4327 18.2557C15.4563 18.2093 15.5027 18.1743 15.5491 18.1621C15.724 18.1271 15.8054 18.0921 15.8754 18.0571C15.934 18.0335 15.9804 18.0107 16.1204 17.9871C17.2053 17.8235 17.4153 17.7885 17.6489 17.6257C17.9989 17.3921 18.0225 17.0658 18.0339 16.7622C18.0453 16.4935 18.0689 16.2022 18.2675 15.8522C18.3375 15.7236 18.4311 15.5609 18.5239 15.3972C18.6752 15.1059 18.8975 14.7087 19.0602 14.4873C19.0952 14.4409 19.1652 14.4173 19.2238 14.4409C19.5852 14.5923 19.9002 14.7559 19.9701 14.8023L19.9588 14.7927Z" fill="white"/>
<path d="M9.43724 18.0125C9.39086 18.3861 9.36724 18.8874 9.43724 19.541C9.44861 19.7273 9.48361 19.9146 9.50723 20.1123C9.46086 20.1359 9.29724 20.1823 9.02864 20.1709C8.63229 20.1709 8.25868 20.066 8.14232 19.9373H8.11869C8.02507 19.8437 7.95508 19.7973 7.95508 19.6574C7.95508 19.611 7.96645 19.5637 8.0137 19.506C8.03732 19.471 8.07232 19.4246 8.10732 19.3774C8.17731 19.2838 8.25868 19.1788 8.34093 19.0388C8.58591 18.6188 8.67953 18.4902 8.7959 18.3388C8.7959 18.3274 8.81952 18.3152 8.8309 18.3038C8.90089 18.2102 8.98226 18.0938 9.11088 17.9075C9.2045 17.7675 9.2745 17.6625 9.34449 17.5689C9.44949 17.4289 9.51948 17.3475 9.56585 17.3125C9.56585 17.3825 9.54223 17.4639 9.53085 17.5461C9.50723 17.6747 9.48448 17.8375 9.46086 18.0247L9.43724 18.0125Z" fill="white"/>
<path d="M9.25031 12.1906C9.20393 12.2606 9.14531 12.342 9.07532 12.4942C8.88895 12.9142 8.88895 13.1478 8.8767 13.3342C8.8767 13.4392 8.8767 13.5092 8.84171 13.6028C8.81808 13.6614 8.79533 13.7314 8.76034 13.8128C8.65534 14.0691 8.50398 14.3964 8.57397 14.8391C8.48035 14.7927 8.35261 14.6991 8.32899 14.6405C8.32899 14.6168 8.32899 14.5941 8.31761 14.5705C8.28262 14.4305 8.27124 14.3369 8.35261 14.1391C8.58622 13.6028 8.60897 13.4742 8.63259 13.3342C8.63259 13.2992 8.63259 13.2755 8.64397 13.2405C8.69034 13.0306 8.71396 12.8442 8.73759 12.7042C8.77259 12.4828 8.78396 12.3429 8.86621 12.2256C8.88983 12.1906 8.9712 12.167 9.07619 12.167C9.12256 12.167 9.16981 12.167 9.22756 12.167H9.23893C9.23893 12.167 9.23893 12.167 9.25031 12.167V12.1906Z" fill="white"/>
<path d="M8.94832 17.4753C8.93695 17.3467 8.91333 17.2189 8.86695 17.1017C8.86695 17.1017 8.85558 17.0667 8.84333 17.0553C8.84333 17.0439 8.81971 17.0203 8.81971 17.0089C8.81971 17.0089 8.81971 17.0089 8.80833 16.9976C8.80833 16.9976 8.79696 16.9862 8.78471 16.9739C8.78471 16.9739 8.78471 16.9739 8.77333 16.9739C8.77333 16.9739 8.74971 16.9739 8.74971 16.9626C8.74971 16.9626 8.74971 16.9626 8.73834 16.9626C8.66834 16.939 8.58697 16.904 8.50473 16.8926H8.4811C8.4811 16.8926 8.45748 16.8926 8.44611 16.8926C8.44611 16.8926 8.4461 16.8926 8.43473 16.8926C8.43473 16.8926 8.39973 16.8926 8.37611 16.904C8.37611 16.904 8.36473 16.904 8.35249 16.9153C8.35249 16.9153 8.34111 16.9153 8.32886 16.9267C8.32886 16.9267 8.31749 16.9503 8.30524 16.9503C8.30524 16.9503 8.30524 16.9617 8.29386 16.9739C8.25887 17.0203 8.23524 17.0676 8.20025 17.1139C8.13025 17.2189 8.04888 17.3353 7.97888 17.4403C7.90889 17.5339 7.83889 17.6389 7.7689 17.7317C7.7339 17.7903 7.6989 17.8366 7.65253 17.8953C7.65253 17.8953 7.64116 17.9189 7.62891 17.9189C7.67528 17.9189 7.72252 17.9303 7.75752 17.9425C7.86252 17.9661 7.95614 17.9775 8.06113 17.9889C8.27112 18.0125 8.4811 18.0353 8.69109 18.0239C8.69109 18.0239 8.71471 18.0239 8.72609 18.0239C8.77246 17.9539 8.84246 17.8603 8.91245 17.7439C8.95882 17.6739 8.99382 17.6153 9.02882 17.5575C9.01744 17.5339 9.00519 17.4989 8.99382 17.4639L8.94832 17.4753Z" fill="white"/>
<path d="M8.20016 18.3387C8.17653 18.5023 8.00154 18.9223 7.72156 19.3186C7.48795 19.6572 7.33658 19.7272 7.31296 19.7386C7.19659 19.7272 7.0916 19.435 6.99798 19.155C6.96298 19.0387 6.92799 18.9337 6.90436 18.8287C6.84574 18.6187 6.83437 18.3273 6.84574 18.1523C7.07935 18.281 7.49933 18.316 8.09429 18.3273C8.09429 18.3273 8.17566 18.3273 8.21066 18.3387H8.20016Z" fill="white"/>
<path d="M7.78024 17.0095C7.78024 17.0095 7.78024 17.0095 7.78024 17.0208C7.67525 17.1722 7.58163 17.3122 7.47664 17.4644C7.41802 17.5458 7.37164 17.6158 7.32527 17.6981C7.30165 17.7444 7.25528 17.7917 7.22028 17.838C7.13891 17.8144 7.05666 17.803 6.97529 17.7794C6.9053 17.7558 6.8353 17.7444 6.77668 17.7094C6.76531 17.7094 6.75306 17.7094 6.74168 17.6981C6.74168 17.6744 6.71806 17.6517 6.69531 17.6394C6.71894 17.5931 6.74168 17.5458 6.76531 17.4881C6.81168 17.3944 6.85893 17.3131 6.9053 17.2195C6.99892 17.0681 7.10391 16.9045 7.25528 16.8109C7.25528 16.8109 7.26665 16.8109 7.2789 16.7995C7.33752 16.7645 7.39527 16.7409 7.46526 16.7295C7.46526 16.7295 7.52389 16.7295 7.54663 16.7295C7.57026 16.7295 7.58163 16.7295 7.60526 16.7409C7.60526 16.7409 7.61663 16.7409 7.62888 16.7409C7.64113 16.7409 7.66388 16.7645 7.67525 16.7759C7.65163 16.7522 7.71025 16.8109 7.71025 16.8109C7.75662 16.8695 7.76887 16.9272 7.78024 17.0095Z" fill="white"/>
<path d="M6.97537 16.5886C6.78901 16.74 6.64902 16.95 6.54402 17.1599C6.4854 17.2763 6.42766 17.3936 6.35766 17.5213C6.35766 17.5327 6.34629 17.5449 6.33404 17.5563C6.27542 17.5449 6.21767 17.5327 6.17042 17.5099C6.1118 17.4863 6.05405 17.4749 5.99543 17.4399C5.97181 17.4286 5.94906 17.4163 5.91406 17.4049C5.97268 17.2999 6.04268 17.1949 6.10043 17.1013C6.19405 16.9613 6.28679 16.8213 6.39178 16.6927C6.42678 16.6464 6.47315 16.5877 6.53177 16.5527C6.5904 16.5177 6.66039 16.5291 6.71814 16.5291C6.78813 16.5291 6.85813 16.5291 6.92812 16.5641C6.9395 16.5641 6.95175 16.5755 6.96312 16.5877L6.97537 16.5886Z" fill="white"/>
<path d="M6.68453 19.0972C6.68453 19.0972 6.67316 19.1085 6.66091 19.1208H6.64953C6.60316 19.1208 6.55591 19.1208 6.50954 19.1208C6.42817 19.1208 6.33455 19.1208 6.24093 19.1208C6.19456 19.1208 6.14731 19.1208 6.12456 19.0858C6.08957 19.0394 6.07819 18.9458 6.06594 18.8872C6.00732 18.5722 5.99595 18.2336 6.04232 17.9072C6.20593 17.9658 6.38092 18.0122 6.55591 18.0472C6.52092 18.3386 6.57954 18.7708 6.62591 18.8985C6.64953 18.9572 6.66091 19.0149 6.68453 19.0849V19.0972Z" fill="white"/>
<path d="M6.14715 16.4843C5.99578 16.6706 5.86716 16.8579 5.73855 17.0556C5.69217 17.137 5.63355 17.2192 5.59856 17.312C5.53993 17.3006 5.48219 17.277 5.43494 17.242C5.38857 17.2183 5.35357 17.1833 5.30632 17.1606C5.30632 17.1606 5.27133 17.1256 5.2477 17.1142C5.2477 17.1142 5.2477 17.1142 5.23633 17.1142C5.2477 17.0792 5.27133 17.0328 5.2827 17.0092C5.3177 16.9392 5.3527 16.8692 5.38769 16.8106C5.45769 16.6942 5.52768 16.5656 5.6213 16.4606C5.6563 16.4256 5.67992 16.367 5.73767 16.3556C5.78404 16.3443 5.84267 16.3556 5.87766 16.3556C5.98266 16.3793 6.07628 16.4256 6.14627 16.507L6.14715 16.4843Z" fill="white"/>
<path d="M5.0045 17.2656C5.0045 17.2656 5.01588 17.2656 5.02813 17.2656C5.06313 17.3242 5.12175 17.3706 5.17949 17.4056C5.20312 17.4292 5.22587 17.4406 5.26086 17.4642C5.26086 17.4642 5.26086 17.4642 5.26086 17.4756C5.20224 17.7206 5.15587 17.9892 5.15587 18.2456C5.15587 18.2569 5.13225 18.2569 5.13225 18.2456C5.06225 17.942 4.95813 17.4406 5.0045 17.2656Z" fill="white"/>
<path d="M5.72835 17.8139C5.69336 18.0352 5.68198 18.2575 5.69336 18.4788C5.69336 18.5952 5.71698 18.7238 5.72835 18.8402C5.72835 18.8402 5.66973 18.8402 5.64698 18.8402C5.64698 18.8402 5.64698 18.8402 5.63561 18.8402C5.63561 18.8402 5.63561 18.8402 5.62424 18.8402C5.58924 18.8402 5.58924 18.8402 5.56561 18.8166C5.53062 18.7929 5.49562 18.7579 5.472 18.7229C5.41337 18.618 5.402 18.4893 5.39062 18.3843C5.39062 18.1507 5.39063 17.9294 5.44925 17.708C5.48424 17.7194 5.51924 17.7316 5.56561 17.7544C5.61199 17.7771 5.67061 17.8008 5.72923 17.8244L5.72835 17.8139Z" fill="white"/>
</svg>
