<svg width="36" height="36" viewBox="0 0 36 36" fill="none" xmlns="http://www.w3.org/2000/svg">
<path d="M34 18C34 26.837 26.837 34 18 34C9.163 34 2 26.837 2 18C2 9.163 9.163 2 18 2C26.837 2 34 9.163 34 18Z" fill="#EAA749"/>
<path d="M19.1726 26.4403V28.6273H17.2396V26.4673C14.7196 26.2673 12.8796 25.2803 11.5996 23.9203L13.1726 21.7333C14.1196 22.7333 15.4926 23.6263 17.2396 23.8933V19.2133C14.7466 18.5863 12.1066 17.6663 12.1066 14.5063C12.1066 12.0393 14.1196 10.0663 17.2396 9.79927V7.57227H19.1726V9.85227C21.1596 10.0523 22.7856 10.8253 24.0396 12.0393L22.4126 14.1463C21.5196 13.2533 20.3726 12.6933 19.1596 12.4533V16.6263C21.6796 17.3063 24.3996 18.2533 24.3996 21.4933C24.3996 23.9603 22.7996 26.0933 19.1596 26.4403H19.1726ZM17.2396 16.1203V12.3473C15.8526 12.4943 15.0126 13.2403 15.0126 14.3343C15.0126 15.2813 15.9596 15.7603 17.2396 16.1203ZM21.5326 21.7603C21.5326 20.6403 20.5326 20.1333 19.1856 19.7203V23.8933C20.8526 23.6533 21.5326 22.6803 21.5326 21.7603Z" fill="#61121F"/>
</svg>
