<svg width="28" height="28" viewBox="0 0 28 28" fill="none" xmlns="http://www.w3.org/2000/svg">
<path d="M28 14C28 21.7324 21.7324 28 14 28C6.26762 28 0 21.7324 0 14C0 6.26762 6.26762 0 14 0C21.7324 0 28 6.26762 28 14Z" fill="#EAA749"/>
<path d="M15.0268 21.3855V23.2991H13.3354V21.4091C11.1304 21.2341 9.52039 20.3705 8.40039 19.1805L9.77677 17.2669C10.6054 18.1419 11.8068 18.9232 13.3354 19.1569V15.0619C11.154 14.5132 8.84402 13.7082 8.84402 10.9432C8.84402 8.7846 10.6054 7.05823 13.3354 6.8246V4.87598H15.0268V6.87098C16.7654 7.04598 18.1881 7.72235 19.2854 8.7846L17.8618 10.6282C17.0804 9.84685 16.0768 9.35685 15.0154 9.14685V12.7982C17.2204 13.3932 19.6004 14.2219 19.6004 17.0569C19.6004 19.2155 18.2004 21.0819 15.0154 21.3855H15.0268ZM13.3354 12.3555V9.0541C12.1218 9.18273 11.3868 9.83548 11.3868 10.7927C11.3868 11.6214 12.2154 12.0405 13.3354 12.3555ZM17.0918 17.2905C17.0918 16.3105 16.2168 15.8669 15.0381 15.5055V19.1569C16.4968 18.9469 17.0918 18.0955 17.0918 17.2905Z" fill="#61121F"/>
</svg>
