<svg width="36" height="36" viewBox="0 0 36 36" fill="none" xmlns="http://www.w3.org/2000/svg">
<path d="M34 18C34 26.827 26.84 34 18 34C9.16 34 2 26.827 2 18C2 12.88 4.4 8.333 8.133 5.4C8.213 5.333 8.306 5.267 8.386 5.213C11.066 3.186 14.399 2 17.999 2C26.839 2 34 9.16 34 18Z" fill="#FF007A"/>
<path d="M14.3597 7.62652C14.0527 7.58652 14.0397 7.57352 14.1867 7.54652C14.4667 7.50652 15.1197 7.55952 15.5737 7.66652C16.6407 7.91952 17.5867 8.55952 18.6137 9.70652L18.8807 10.0135L19.2677 9.96052C20.9077 9.69352 22.5877 9.90752 23.9877 10.5475C24.3747 10.7205 24.9747 11.0805 25.0547 11.1605C25.0817 11.1875 25.1347 11.3875 25.1617 11.5735C25.2687 12.2665 25.2147 12.7865 25.0017 13.1735C24.8817 13.4005 24.8817 13.4535 24.9617 13.6405C25.0147 13.7875 25.2017 13.8935 25.3617 13.8935C25.7217 13.8935 26.0817 13.3335 26.2547 12.5465L26.3347 12.2395L26.4677 12.3865C27.2147 13.2265 27.8147 14.3865 27.8947 15.2135L27.9217 15.4405L27.7887 15.2535C27.5617 14.9205 27.3617 14.6935 27.0817 14.5065C26.5747 14.1735 26.0547 14.0665 24.6547 13.9865C23.3877 13.9065 22.6677 13.8135 21.9617 13.5735C20.7487 13.1735 20.1347 12.6535 18.7087 10.7605C18.0687 9.92052 17.6817 9.46752 17.2817 9.08052C16.4147 8.24052 15.5487 7.80052 14.4147 7.62752L14.3597 7.62652Z" fill="white"/>
<path d="M25.3328 9.5073C25.3598 8.9473 25.4398 8.5743 25.5998 8.2403C25.6528 8.1073 25.7198 7.9873 25.7328 7.9873C25.7458 7.9873 25.7198 8.0943 25.6798 8.2143C25.5598 8.5343 25.5468 9.0013 25.6268 9.5073C25.7338 10.1743 25.7738 10.2543 26.4798 10.9873C26.7998 11.3203 27.1868 11.7473 27.3328 11.9343L27.5858 12.2543L27.3328 12.0143C27.0258 11.7213 26.3198 11.1613 26.1598 11.0813C26.0528 11.0283 26.0398 11.0283 25.9728 11.0943C25.9198 11.1473 25.8928 11.2413 25.8928 11.6673C25.8798 12.3343 25.7858 12.7473 25.5728 13.1743C25.4528 13.4013 25.4398 13.3473 25.5458 13.0943C25.6258 12.9073 25.6388 12.8143 25.6388 12.1743C25.6388 10.8943 25.4918 10.5873 24.5988 10.0673C24.3718 9.93431 23.9988 9.74731 23.7718 9.64031C23.5318 9.53331 23.3588 9.4533 23.3718 9.4533C23.3988 9.4263 24.2648 9.6803 24.6118 9.8263C25.1318 10.0263 25.2118 10.0533 25.2788 10.0263C25.3188 9.9863 25.3588 9.8663 25.3718 9.4933L25.3328 9.5073Z" fill="white"/>
<path d="M14.9607 11.6929C14.3477 10.8399 13.9477 9.50589 14.0277 8.51989L14.0547 8.21289L14.2017 8.23989C14.4687 8.27989 14.9217 8.46689 15.1487 8.59989C15.7357 8.95989 16.0017 9.43989 16.2557 10.6529C16.3357 11.0129 16.4287 11.4129 16.4827 11.5459C16.5627 11.7729 16.8427 12.2789 17.0697 12.6129C17.2297 12.8529 17.1227 12.9729 16.7627 12.9329C16.2027 12.8799 15.4557 12.3599 14.9627 11.6929H14.9607Z" fill="white"/>
<path d="M24.5876 18.1074C21.6676 16.9344 20.6406 15.9074 20.6406 14.1874C20.6406 13.9344 20.6536 13.7344 20.6536 13.7344C20.6666 13.7344 20.7736 13.8274 20.9066 13.9214C21.4936 14.3884 22.1596 14.6014 23.9996 14.8684C25.0796 15.0284 25.6926 15.1484 26.2526 15.3354C28.0396 15.9224 29.1456 17.1354 29.3996 18.7624C29.4796 19.2294 29.4266 20.1354 29.3066 20.6024C29.1996 20.9754 28.9066 21.6424 28.8396 21.6694C28.8266 21.6694 28.7996 21.5894 28.7996 21.4824C28.7726 20.8694 28.4666 20.2694 27.9466 19.8154C27.3336 19.2824 26.5336 18.8824 24.5866 18.1084L24.5876 18.1074Z" fill="white"/>
<path d="M22.5201 18.5871C22.4931 18.3601 22.4131 18.0801 22.3731 17.9741L22.2931 17.7471L22.4261 17.9071C22.6131 18.1341 22.7591 18.3871 22.8931 18.7601C23.0001 19.0401 23.0001 19.1331 23.0001 19.5871C23.0001 20.0411 22.9871 20.1341 22.8931 20.3871C22.7461 20.7871 22.5731 21.0671 22.2801 21.3741C21.7471 21.9211 21.0531 22.2141 20.0671 22.3471C19.8941 22.3601 19.3871 22.4001 18.9471 22.4401C17.8401 22.4931 17.1071 22.6131 16.4401 22.8531C16.3471 22.8801 16.2671 22.9061 16.2531 22.8931C16.2261 22.8661 16.6801 22.6001 17.0531 22.4261C17.5731 22.1731 18.0931 22.0391 19.2661 21.8391C19.8391 21.7461 20.4261 21.6391 20.5731 21.5721C22.0261 21.1191 22.7601 19.9851 22.5201 18.5991V18.5871Z" fill="white"/>
<path d="M23.8671 20.9598C23.4801 20.1198 23.4001 19.3198 23.6001 18.5728C23.6271 18.4928 23.6531 18.4258 23.6931 18.4258C23.7331 18.4258 23.8131 18.4658 23.8931 18.5328C24.0661 18.6528 24.4401 18.8528 25.3861 19.3728C26.5861 20.0258 27.2531 20.5198 27.7331 21.0928C28.1461 21.5998 28.4001 22.1728 28.5201 22.8798C28.6001 23.2798 28.5471 24.2398 28.4401 24.6398C28.1201 25.8928 27.3731 26.8928 26.3071 27.4668C26.1471 27.5598 26.0141 27.6138 26.0001 27.6138C25.9861 27.6138 26.0401 27.4668 26.1331 27.2938C26.4931 26.5468 26.5331 25.8138 26.2661 25.0138C26.1061 24.5068 25.7591 23.9068 25.0931 22.8938C24.2801 21.7208 24.0931 21.4008 23.8801 20.9738L23.8671 20.9598Z" fill="white"/>
<path d="M12.8803 25.4672C13.9733 24.5472 15.3073 23.9072 16.5473 23.6942C17.0803 23.6012 17.9603 23.6412 18.4543 23.7742C19.2413 23.9742 19.9473 24.4272 20.3073 24.9742C20.6673 25.5072 20.8273 25.9612 20.9873 26.9742C21.0403 27.3742 21.1203 27.7872 21.1343 27.8672C21.2543 28.4002 21.4943 28.8142 21.7873 29.0272C22.2403 29.3602 23.0403 29.3872 23.8273 29.0802C23.9603 29.0402 24.0803 28.9872 24.0803 29.0002C24.1073 29.0272 23.7073 29.2932 23.4403 29.4272C23.0673 29.6142 22.7733 29.6802 22.3733 29.6802C21.6663 29.6802 21.0663 29.3072 20.5733 28.5732C20.4663 28.4262 20.2663 28.0002 20.0933 27.6002C19.5733 26.4002 19.3063 26.0532 18.7063 25.6532C18.1733 25.3202 17.4933 25.2402 16.9863 25.4932C16.3063 25.8132 16.1333 26.6932 16.5993 27.2132C16.7863 27.4402 17.1463 27.6132 17.4393 27.6532C17.9863 27.7332 18.4523 27.2932 18.4523 26.7602C18.4523 26.4002 18.3193 26.2002 17.9723 26.0402C17.5053 25.8402 16.9853 26.0672 16.9993 26.5202C16.9993 26.7072 17.0923 26.8272 17.2793 26.9202C17.3593 26.9555 17.3683 26.9689 17.3063 26.9602C16.8793 26.8672 16.7733 26.3472 17.1193 26.0002C17.5323 25.5872 18.3993 25.7602 18.6923 26.3332C18.8123 26.5732 18.8253 27.0402 18.7193 27.3332C18.4663 27.9862 17.7593 28.3202 17.0393 28.1332C16.5593 28.0002 16.3463 27.8662 15.7593 27.2662C14.7323 26.1992 14.3323 25.9992 12.8523 25.7732L12.5723 25.7332L12.8793 25.4402L12.8803 25.4672Z" fill="white"/>
<path d="M14.9604 12.4669C14.5604 12.0139 11.1734 8.27987 8.38739 5.21387C8.30739 5.26687 8.21439 5.33387 8.13439 5.40087C11.0274 8.93387 13.9344 12.5079 14.1214 12.7609C14.3484 13.0679 14.2544 13.3479 13.8944 13.5479C13.6814 13.6679 13.2544 13.7879 13.0544 13.7879C12.8144 13.7879 12.5344 13.6679 12.3474 13.4809C12.2144 13.3479 11.6404 12.5079 10.3344 10.4809C9.34739 8.93387 8.50739 7.65387 8.49439 7.64087C8.49439 7.64087 9.07672 8.7032 10.2414 10.8279C11.3744 12.8409 11.7344 13.5609 11.7344 13.6549C11.7344 13.8419 11.6814 13.9479 11.4414 14.2149C11.0544 14.6549 10.8684 15.1619 10.7344 16.2019C10.5874 17.3619 10.1874 18.1889 9.05439 19.5889C8.40139 20.4159 8.29439 20.5619 8.13439 20.8959C7.92139 21.3089 7.86739 21.5489 7.84139 22.0829C7.80139 22.6429 7.86839 22.9899 8.02839 23.5229C8.17539 24.0029 8.33539 24.3099 8.73539 24.9099C9.06839 25.4429 9.28239 25.8429 9.28239 25.9899C9.28239 26.1099 9.30939 26.1099 9.84239 25.9899C11.1094 25.6969 12.1494 25.1899 12.7224 24.5769C13.0824 24.1899 13.1754 23.9769 13.1754 23.4569C13.1754 23.1099 13.1754 23.0439 13.0684 22.8299C12.9214 22.5099 12.6414 22.2429 12.0414 21.8299C11.2414 21.2829 10.8944 20.8429 10.8144 20.2569C10.7344 19.7499 10.8274 19.4169 11.2674 18.4839C11.7204 17.5239 11.8404 17.1369 11.9204 16.1639C11.9604 15.5369 12.0404 15.2839 12.2134 15.0969C12.4004 14.8969 12.5604 14.8169 13.0264 14.7639C13.7734 14.6569 14.2534 14.4709 14.6394 14.0969C14.9864 13.7899 15.1324 13.4839 15.1464 13.0169V12.6839L14.9594 12.4709L14.9604 12.4669ZM9.66739 22.7069C9.52039 22.9739 9.24039 23.0669 9.02739 22.9069C8.89439 22.7999 8.89439 22.6539 9.00039 22.4939C9.10639 22.3339 9.09339 22.2539 8.96039 22.1869C8.86739 22.1469 8.84039 22.0939 8.84039 22.0399C8.84039 21.8129 9.21339 21.7329 9.46739 21.9069C9.73439 22.0799 9.82739 22.4269 9.66739 22.7069Z" fill="white"/>
<path d="M16.5462 15.0531C16.3192 14.9331 15.8662 14.8931 15.6262 14.9601C15.2792 15.0671 14.9332 15.4531 14.8392 15.8271C14.7722 16.0671 14.7992 16.4941 14.9062 16.6271C15.0662 16.8271 15.2132 16.8941 15.6262 16.8941C16.4392 16.8941 17.1332 16.5341 17.1992 16.1071C17.2792 15.7601 16.9722 15.2661 16.5462 15.0531ZM16.5722 15.6931C16.4792 15.8131 16.2122 15.9331 16.0252 15.9331C15.7322 15.9331 15.4252 15.7331 15.4252 15.5331C15.4252 15.1601 16.0252 14.9461 16.4252 15.2001C16.6382 15.3331 16.6922 15.5201 16.5722 15.6931Z" fill="white"/>
</svg>
