<svg width="28" height="28" viewBox="0 0 28 28" fill="none" xmlns="http://www.w3.org/2000/svg">
<g clip-path="url(#clip0_3145_6744)">
<path d="M14 0C21.84 0 28 6.16 28 14C28 21.84 21.84 28 14 28C6.16 28 0 21.84 0 14C0 6.16 6.16 0 14 0Z" fill="#D81E06"/>
<path d="M16.3245 10.0327V6.83636H14.8186V5.32727H16.3245V4H18.2931V5.32727H19.9336V6.83636H18.2931V20.7855H16.459V19.2727C15.7132 20.4848 14.6086 21.0909 13.1453 21.0909C11.1089 21.0909 9.63253 20.0667 8.71605 18.0182C8.26439 16.9933 8.03945 15.864 8.05987 14.7236C8.05987 12.057 8.8462 10.1988 10.4189 9.14909C11.2145 8.61061 12.1311 8.33205 13.0633 8.34545C14.3341 8.28215 15.5523 8.91242 16.3245 10.0327ZM19.9336 22.5091V24H8.06315V22.5091H19.9336ZM10.9372 11.2727C10.3904 12.097 10.117 13.2461 10.117 14.72C10.117 16.1406 10.4123 17.2715 11.0029 18.1127C11.5483 18.9298 12.4189 19.4007 13.3356 19.3745C14.2317 19.4086 15.0874 18.9601 15.6323 18.1709C16.2009 17.3685 16.4853 16.2776 16.4853 14.8982C16.4853 13.3685 16.1955 12.177 15.6158 11.3236C15.0633 10.4845 14.1705 10.0048 13.2339 10.0436C12.3311 10.0022 11.4694 10.4634 10.9372 11.2727Z" fill="#F4EA2A"/>
</g>
<defs>
<clipPath id="clip0_3145_6744">
<rect width="28" height="28" fill="white"/>
</clipPath>
</defs>
</svg>
