<svg width="36" height="36" viewBox="0 0 36 36" xmlns="http://www.w3.org/2000/svg">
<path d="M34 18C34 26.837 26.837 34 18 34C9.163 34 2 26.837 2 18C2 9.163 9.163 2 18 2C26.837 2 34 9.163 34 18Z" fill="#E7EAEF"/>
<path d="M17.999 30.2505C17.911 30.2495 17.827 30.2355 17.748 30.2085L17.754 30.2105C17.698 30.1905 17.651 30.1665 17.606 30.1385L17.609 30.1405L9.94403 25.5455C9.72603 25.4125 9.58203 25.1765 9.58203 24.9065C9.58203 24.8425 9.59003 24.7795 9.60503 24.7205L9.60403 24.7255L12.289 13.6055C12.31 13.5125 12.349 13.4305 12.4 13.3585L12.399 13.3605L17.399 6.07548C17.544 5.89048 17.768 5.77148 18.019 5.77148C18.27 5.77148 18.494 5.88948 18.638 6.07348L18.639 6.07548L23.639 13.3605C23.689 13.4305 23.728 13.5125 23.748 13.6005L23.749 13.6055L26.434 24.7255C26.448 24.7795 26.456 24.8425 26.456 24.9065C26.456 25.1765 26.312 25.4135 26.097 25.5435L26.094 25.5455L18.389 30.1405C18.349 30.1655 18.303 30.1875 18.254 30.2045L18.249 30.2065C18.175 30.2355 18.089 30.2505 17.999 30.2505ZM22.789 16.1905L19.289 27.8605L24.819 24.5405L22.789 16.1905ZM11.189 24.5405L16.719 27.8605L13.219 16.1905L11.189 24.5405ZM13.999 13.6605L17.999 26.9005L21.999 13.6605L17.999 7.83048L13.999 13.6605Z" fill="black"/>
</svg>
