<svg width="36" height="36" viewBox="0 0 36 36" fill="none" xmlns="http://www.w3.org/2000/svg">
<path d="M34 18C34 26.837 26.837 34 18 34C9.163 34 2 26.837 2 18C2 9.163 9.163 2 18 2C26.837 2 34 9.163 34 18Z" fill="#0F94F8"/>
<path d="M12.6275 9.54716L10.8945 11.2802V18.1332L12.6275 19.8662H19.4805V23.3192H16.0935V21.5862H10.9065V25.0392L12.6395 26.7722H22.9465L24.6795 25.0392V18.1322L22.9465 16.3992H16.0935V12.9462H19.5465V14.6792H24.7335V11.2262L23.0005 9.49316H12.6275V9.56016V9.54716Z" fill="white"/>
</svg>
