<svg width="36" height="36" viewBox="0 0 36 36" fill="none" xmlns="http://www.w3.org/2000/svg">
<path d="M34 18C34 26.837 26.837 34 18 34C9.163 34 2 26.837 2 18C2 9.163 9.163 2 18 2C26.837 2 34 9.163 34 18Z" fill="#0F97F8"/>
<path d="M14.5873 30.6532C14.5873 31.0802 14.2403 31.3202 13.8403 31.2002C8.30731 29.4402 4.32031 24.2802 4.32031 18.1602C4.32031 12.0402 8.30731 6.8932 13.8403 5.1332C14.2533 5.0002 14.5873 5.2532 14.5873 5.6802V6.7472C14.5873 7.0272 14.3743 7.3602 14.1073 7.4542C9.73431 9.0672 6.61431 13.2672 6.61431 18.1612C6.61431 23.0552 9.73431 27.2682 14.1073 28.8542C14.3743 28.9472 14.5873 29.2812 14.5873 29.5612V30.6412V30.6532Z" fill="white"/>
<path d="M19.1334 26.707C19.1334 27.027 18.8804 27.28 18.5604 27.28H17.4274C17.1074 27.28 16.8544 27.027 16.8544 26.707V24.907C14.3614 24.56 13.1474 23.187 12.8274 21.28C12.7744 20.947 13.0274 20.667 13.3604 20.667H14.6534C14.9204 20.667 15.1464 20.867 15.2134 21.12C15.4534 22.24 16.1064 23.12 18.1064 23.12C19.5734 23.12 20.6264 22.293 20.6264 21.067C20.6264 19.841 20.0134 19.374 17.8534 19.014C14.6664 18.587 13.1464 17.614 13.1464 15.121C13.1464 13.201 14.6134 11.681 16.8664 11.374V9.61402C16.8664 9.29402 17.1194 9.04102 17.4394 9.04102H18.5724C18.8924 9.04102 19.1454 9.29402 19.1454 9.61402V11.427C20.9854 11.76 22.1454 12.8 22.5324 14.534C22.5994 14.867 22.3454 15.161 21.9994 15.161H20.7994C20.5464 15.161 20.3324 14.988 20.2524 14.748C19.9194 13.655 19.1454 13.161 17.7724 13.161C16.2654 13.161 15.4794 13.881 15.4794 14.908C15.4794 15.988 15.9194 16.535 18.2394 16.855C21.3724 17.282 22.9994 18.175 22.9994 20.842C22.9994 22.869 21.4924 24.509 19.1324 24.869V26.696H19.1194L19.1334 26.707Z" fill="white"/>
<path d="M22.1591 31.2005C21.7461 31.3335 21.4121 31.0805 21.4121 30.6535V29.5865C21.4121 29.2665 21.5991 28.9735 21.8921 28.8795C26.2521 27.2795 29.3851 23.0795 29.3851 18.1865C29.3851 13.2935 26.2651 9.07945 21.8921 7.49345C21.6251 7.40045 21.4121 7.06645 21.4121 6.78645V5.71945C21.4121 5.29245 21.7591 5.05245 22.1591 5.17245C27.6921 6.90545 31.6791 12.0795 31.6791 18.1855C31.6791 24.2915 27.6921 29.4525 22.1591 31.2255V31.2005Z" fill="white"/>
</svg>
