<svg width="28" height="28" viewBox="0 0 28 28" fill="none" xmlns="http://www.w3.org/2000/svg">
<path d="M14 0C21.735 0 28 6.265 28 14C28 21.735 21.735 28 14 28C6.265 28 0 21.735 0 14C0 6.265 6.265 0 14 0Z" fill="#EB0A29"/>
<path d="M19.4371 14.4197C19.4371 14.4197 19.2857 14.6183 19.1335 14.7233C18.7021 15.0383 17.9435 15.3297 17.1621 15.4697C16.7185 15.551 16.2757 15.5633 16.1471 15.4933C16.0657 15.4469 16.0535 15.4119 16.0771 15.3069C16.1471 15.0733 16.3571 14.8169 16.6835 14.5833C16.8471 14.4669 17.5235 14.0469 17.8385 13.8833C18.3635 13.6033 18.7835 13.4283 19.0635 13.3933C19.1571 13.3819 19.2621 13.3819 19.2971 13.3933C19.3557 13.4169 19.4135 13.5797 19.4371 13.7783C19.4485 13.8833 19.4371 14.3497 19.4371 14.4319V14.4197Z" fill="black"/>
<path d="M12.1439 15.4468C12.1439 15.4468 12.0275 15.5281 11.9225 15.5404C11.8175 15.5526 11.4912 15.5404 11.3162 15.529C10.6625 15.4476 9.96255 15.2376 9.46117 14.9926C9.18117 14.8526 8.97117 14.7126 8.8198 14.5613L8.73842 14.4676V14.3512C8.7148 14.1526 8.7148 13.8263 8.73842 13.7099C8.7498 13.6163 8.7848 13.5235 8.83205 13.4413C8.83205 13.4413 8.87871 13.4296 8.97205 13.4062C9.11205 13.4062 9.21705 13.4299 9.40342 13.4876C9.78842 13.604 10.3484 13.884 11.037 14.304C11.6084 14.6426 11.8184 14.8054 11.982 15.039C12.0984 15.179 12.1684 15.3776 12.1457 15.4476L12.1439 15.4468Z" fill="black"/>
<path d="M16.5208 19.7513C16.5208 19.7513 16.4858 19.9149 16.4395 20.0899C16.3931 20.2649 16.3581 20.4049 16.3581 20.4163C16.3231 20.4163 16.2881 20.4163 16.2645 20.4163H16.1708L16.0308 20.7426C15.9608 20.9176 15.8908 21.0813 15.8795 21.104L15.8558 21.1504L15.7158 20.9404V20.089H15.6922C15.6922 20.089 15.2608 20.159 15.0972 20.1704C14.4208 20.2404 13.7436 20.229 13.0672 20.124C12.9622 20.1126 12.8686 20.1004 12.8686 20.1004C12.8686 20.1004 12.8686 20.299 12.8686 20.544V20.9876L12.8222 21.069C12.7986 21.1154 12.7636 21.1504 12.7636 21.1504C12.7636 21.1504 12.7286 21.1154 12.6472 20.964C12.5658 20.8126 12.5186 20.6604 12.4722 20.4976L12.4486 20.404H12.355L12.2613 20.4154L12.2377 20.299C12.2263 20.2404 12.2141 20.1354 12.2027 20.089V19.9954L12.1091 19.9254C12.0627 19.8904 12.0155 19.844 12.0041 19.844C11.9927 19.8326 11.9805 19.809 11.9805 19.7854V19.7504H12.3655H12.7505V19.7854L12.7741 19.8204H12.9027C12.9727 19.8204 13.2177 19.8318 13.4277 19.844H13.8127L13.9063 19.704L14.0113 19.5526H14.14V19.2263V18.8999L13.965 18.8299C13.4163 18.5849 13.1013 18.3163 12.9736 17.9785C12.95 17.9085 12.95 17.8849 12.9386 17.5821C12.9386 17.2785 12.9386 17.2435 12.9622 17.1858C13.0086 17.0344 13.1258 16.9058 13.2772 16.8708C13.3358 16.8594 13.4636 16.8594 14.1986 16.8594H15.0622L15.1558 16.9057C15.2722 16.9644 15.3195 16.9994 15.3895 17.0921C15.4595 17.1849 15.4831 17.2671 15.4831 17.4535C15.4831 17.7221 15.4595 17.9549 15.4367 18.0485C15.4017 18.1771 15.3317 18.2935 15.2617 18.3985C15.1103 18.5971 14.8303 18.7949 14.5731 18.8885L14.5031 18.9121V19.2385V19.5649H14.5731L14.6431 19.5762L14.8295 19.8563H15.2495C15.4831 19.8563 15.6808 19.8563 15.6931 19.8563C15.7281 19.8563 15.7281 19.8563 15.7631 19.8099L15.7981 19.7513H16.1481C16.4167 19.7399 16.4981 19.7513 16.4981 19.7513H16.5208Z" fill="black"/>
<path d="M14.886 20.6381C14.8274 20.6731 14.7924 20.6845 14.781 20.6845C14.781 20.6845 14.7224 20.6495 14.6874 20.6145L14.606 20.5445L14.5246 20.6381C14.3383 20.8367 14.326 20.8481 14.2796 20.8595C14.1983 20.8595 14.1746 20.8595 14.0696 20.6959C14.011 20.6145 13.976 20.5445 13.976 20.5445C13.976 20.5445 13.941 20.5445 13.8946 20.5445H13.8133L13.7783 20.6145L13.7433 20.6959L13.6733 20.6722C13.6733 20.6722 13.5569 20.6372 13.5096 20.6022L13.416 20.5559V20.3809H14.2446H15.0733V20.4622C15.0733 20.5559 15.0733 20.5559 14.9446 20.6372L14.886 20.6381Z" fill="black"/>
<path d="M22.6214 16.87C22.6214 16.87 22.6214 16.835 22.6214 16.8C21.875 16.7187 19.7628 16.6714 17.7914 18.2937C17.7914 18.2937 17.1614 15.3887 14.1864 15.3887C11.2114 15.3887 10.115 18.2937 10.115 18.2937C8.44642 16.5087 6.23005 16.6373 5.42505 16.7537C5.42505 16.7773 5.42505 16.7887 5.42505 16.8123C5.40142 17.2559 5.41367 17.4773 5.48367 17.7573C5.7173 18.6437 6.42867 19.6123 7.54867 20.5573C9.38005 22.1209 11.865 23.2409 13.755 23.3687C15.715 23.4973 18.62 22.3537 20.545 20.6737C20.8487 20.405 21.1287 20.125 21.3964 19.8223C21.5828 19.6009 21.875 19.2159 21.8514 19.2159C21.8514 19.2159 21.8514 19.2159 21.8628 19.2045C21.8628 19.2045 21.8864 19.1932 21.8742 19.1809C21.8742 19.1809 21.8742 19.1695 21.8855 19.1695C21.8969 19.1695 21.8969 19.1695 21.8969 19.1582C21.8969 19.1468 21.8969 19.1468 21.9083 19.1468C21.9083 19.1468 21.9197 19.1354 21.9083 19.1232V19.1118C21.9083 19.1118 21.9197 19.1118 21.9197 19.1004C21.9197 19.089 21.9197 19.089 21.931 19.089C21.9424 19.089 21.9424 19.089 21.9424 19.0777C21.9424 19.054 21.966 19.0313 21.9774 19.0077C22.0238 18.9377 22.211 18.6113 22.2338 18.5527C22.4088 18.1563 22.5252 17.794 22.5724 17.444C22.596 17.269 22.6074 16.9654 22.596 16.884L22.6214 16.87ZM14.8864 20.6387C14.8278 20.6737 14.7928 20.685 14.7814 20.685C14.7814 20.685 14.7228 20.65 14.6878 20.615L14.6064 20.545L14.525 20.6387C14.3387 20.8373 14.3264 20.8487 14.28 20.86C14.1987 20.86 14.175 20.86 14.07 20.6964C14.0114 20.615 13.9764 20.545 13.9764 20.545C13.9764 20.545 13.9414 20.545 13.895 20.545H13.8137L13.7787 20.615L13.7437 20.6964L13.6737 20.6728C13.6737 20.6728 13.5573 20.6378 13.51 20.6028L13.4164 20.5564V20.3814H14.245H15.0737V20.4628C15.0737 20.5564 15.0737 20.5564 14.945 20.6378L14.8864 20.6387ZM16.4387 20.0787C16.3923 20.2537 16.3573 20.3937 16.3573 20.405C16.3223 20.405 16.2873 20.405 16.2637 20.405H16.17L16.0414 20.7314C15.9714 20.9064 15.9014 21.07 15.89 21.0928L15.8664 21.1392L15.7264 20.9292V20.0778H15.7028C15.7028 20.0778 15.2714 20.1478 15.1078 20.1592C14.4314 20.2292 13.7542 20.2178 13.0778 20.1128C12.9728 20.1014 12.8792 20.0892 12.8792 20.0892C12.8792 20.0892 12.8792 20.2878 12.8792 20.5328V20.9764L12.8328 21.0578C12.8092 21.1042 12.7742 21.1392 12.7742 21.1392C12.7742 21.1392 12.7392 21.1042 12.6578 20.9528C12.5764 20.8014 12.5292 20.6492 12.4828 20.4864L12.4592 20.3928H12.3655L12.2719 20.4042L12.2483 20.2878C12.2369 20.2292 12.2247 20.1242 12.2133 20.0778V19.9842L12.1197 19.9142C12.0733 19.8792 12.026 19.8328 12.0147 19.8328C12.0033 19.8214 11.991 19.7978 11.991 19.7742V19.7392H12.376H12.761V19.7742L12.7847 19.8092H12.9133C12.9833 19.8092 13.2283 19.8205 13.4383 19.8328H13.8233L13.9169 19.6928L14.0219 19.5414H14.1505V19.215V18.8887L13.9755 18.8187C13.4269 18.5737 13.1119 18.305 12.9842 17.9673C12.9605 17.8973 12.9605 17.8737 12.9492 17.5709C12.9492 17.2673 12.9492 17.2323 12.9728 17.1745C13.0192 17.0232 13.1364 16.8945 13.2878 16.8595C13.3464 16.8482 13.4742 16.8482 14.2092 16.8482H15.0728L15.1664 16.8945C15.2828 16.9532 15.33 16.9882 15.4 17.0809C15.47 17.1737 15.4937 17.2559 15.4937 17.4423C15.4937 17.7109 15.47 17.9437 15.4473 18.0373C15.4123 18.1659 15.3423 18.2823 15.2723 18.3873C15.1209 18.5859 14.8409 18.7837 14.5837 18.8773L14.5137 18.9009V19.2273V19.5537H14.5837L14.6537 19.565L14.84 19.845H15.26C15.4937 19.845 15.6914 19.845 15.7037 19.845C15.7387 19.845 15.7387 19.845 15.7737 19.7987L15.8087 19.74H16.1587C16.4387 19.74 16.5087 19.74 16.5087 19.7514C16.5087 19.7514 16.4623 19.9028 16.415 20.0778L16.4387 20.0787Z" fill="white"/>
<path d="M22.5989 16.5542C22.5989 16.4142 22.5752 16.2156 22.5752 16.1229C22.4466 14.7229 22.0852 13.5679 21.4089 12.3542C21.3852 12.3079 21.3503 12.2606 21.3389 12.2256C21.3389 12.2256 21.3389 12.202 21.3275 12.202C21.4211 11.9106 21.8175 10.7084 22.1325 9.33198C22.5525 7.4656 22.8211 5.28335 22.0039 4.6306C22.0039 4.6306 20.5803 4.5256 18.6789 6.39198C18.1653 6.9056 17.6875 7.4656 17.2675 8.0606L17.1389 8.01423C16.3689 7.76923 15.5752 7.6056 14.7825 7.55923C14.5375 7.5356 13.6389 7.5356 13.3475 7.55923C12.4611 7.61785 11.7839 7.7456 11.0025 8.01423C10.9675 8.0256 10.9439 8.03785 10.9211 8.04923C10.4898 7.45423 9.99975 6.89423 9.4625 6.39285C7.47888 4.51423 6.00887 4.61923 6.00887 4.61923C5.13387 5.2956 5.4375 7.58285 5.88025 9.50785C6.17163 10.7792 6.54525 11.9115 6.67388 12.3079C6.67388 12.3315 6.65025 12.3542 6.63888 12.3779C5.91525 13.8365 5.53025 15.2479 5.4375 16.7415C6.2425 16.6251 8.47113 16.4965 10.1389 18.2815C10.1389 18.2815 11.2352 15.3765 14.2102 15.3765C17.1853 15.3765 17.8153 18.2815 17.8153 18.2815C19.7866 16.6601 21.8989 16.7065 22.6453 16.7879C22.6453 16.7292 22.6453 16.6365 22.6339 16.5429L22.5989 16.5542ZM7.23388 11.1529C7.23388 11.1529 6.07888 8.25923 6.37025 6.61423C6.41662 6.33423 6.51025 6.08923 6.66163 5.90285C6.66163 5.90285 7.968 6.03148 10.0916 8.38785C10.0916 8.38785 9.69525 8.58648 9.14663 8.99423C8.563 9.43785 7.81663 10.1492 7.233 11.1529H7.23388ZM12.1453 15.4456C12.1453 15.4456 12.0289 15.527 11.9239 15.5392C11.8189 15.5515 11.4925 15.5392 11.3175 15.5279C10.6639 15.4465 9.96388 15.2365 9.4625 14.9915C9.1825 14.8515 8.9725 14.7115 8.82113 14.5601L8.73975 14.4665V14.3501C8.71613 14.1515 8.71613 13.8251 8.73975 13.7087C8.75113 13.6151 8.78613 13.5224 8.83338 13.4401C8.83338 13.4401 8.88004 13.4284 8.97338 13.4051C9.11338 13.4051 9.21838 13.4287 9.40475 13.4865C9.78975 13.6028 10.3498 13.8829 11.0384 14.3029C11.6097 14.6415 11.8197 14.8042 11.9834 15.0379C12.0998 15.1779 12.1698 15.3765 12.147 15.4465L12.1453 15.4456ZM19.4253 14.4192C19.4253 14.4192 19.2739 14.6179 19.1216 14.7229C18.6903 15.0379 17.9316 15.3292 17.1503 15.4692C16.7066 15.5506 16.2639 15.5629 16.1353 15.4929C16.0539 15.4465 16.0416 15.4115 16.0653 15.3065C16.1353 15.0729 16.3453 14.8165 16.6716 14.5829C16.8352 14.4665 17.5116 14.0465 17.8266 13.8829C18.3516 13.6029 18.7716 13.4278 19.0516 13.3928C19.1453 13.3815 19.2503 13.3815 19.2853 13.3928C19.3439 13.4165 19.4016 13.5792 19.4253 13.7779C19.4366 13.8829 19.4253 14.3492 19.4253 14.4315V14.4192ZM18.9116 8.98285C18.3866 8.56285 18.0016 8.37648 18.0016 8.37648C20.043 6.03148 21.3153 5.89148 21.3153 5.89148C21.4552 6.07785 21.5489 6.32285 21.5952 6.60285C21.8866 8.25923 20.7666 11.1529 20.7666 11.1529C20.3003 10.3242 19.6702 9.58923 18.923 8.99423L18.9116 8.98285Z" fill="#FFA409"/>
<path d="M21.595 6.60395C21.35 6.56895 20.2187 6.56895 18.9237 8.98395C18.3987 8.56395 18.0137 8.37758 18.0137 8.37758C20.055 6.03258 21.3273 5.89258 21.3273 5.89258C21.4673 6.07895 21.5609 6.32395 21.6073 6.60395H21.595Z" fill="black"/>
<path d="M20.7675 11.1535C20.3011 10.3135 19.6711 9.5899 18.9238 8.9949C20.2188 6.56853 21.3502 6.5799 21.5952 6.6149C21.8866 8.27128 20.7666 11.1649 20.7666 11.1649L20.7675 11.1535Z" fill="black"/>
<path d="M10.0909 8.3766C10.0909 8.3766 9.69448 8.57523 9.14586 8.98298C7.80448 6.5566 6.62586 6.56798 6.38086 6.60298C6.42723 6.32298 6.52086 6.07798 6.67223 5.8916C6.67223 5.8916 7.99086 6.02023 10.1022 8.3766H10.0909Z" fill="#FFA409"/>
<path d="M9.14664 8.98345C8.56302 9.43845 7.80527 10.1385 7.23302 11.1421C7.23302 11.1421 6.07802 8.24845 6.36939 6.59208C6.61439 6.55708 7.80439 6.55708 9.13439 8.97208L9.14664 8.98345Z" fill="black"/>
<path d="M17.6406 12.7518C17.6406 12.7518 16.6492 12.8104 16.777 12.0404C16.9047 11.2704 17.6756 11.1768 17.8856 11.2004C18.0956 11.224 18.9706 11.539 18.8192 12.1918C18.6679 12.8445 18.4456 12.7168 18.3292 12.7518C18.2129 12.7868 17.6529 12.7518 17.6529 12.7518H17.6406Z" fill="black"/>
<path d="M10.3359 12.7518C10.3359 12.7518 9.34455 12.8104 9.4723 12.0404C9.60005 11.2704 10.3709 11.1768 10.5809 11.2004C10.7909 11.224 11.6659 11.539 11.5146 12.1918C11.3632 12.8445 11.1409 12.7168 11.0246 12.7518C10.9082 12.7868 10.3482 12.7518 10.3482 12.7518H10.3359Z" fill="black"/>
</svg>
