<svg width="16" height="16" viewBox="0 0 16 16" fill="none" xmlns="http://www.w3.org/2000/svg">
<path d="M16 8C16 12.4185 12.4185 16 8 16C3.5815 16 0 12.4185 0 8C0 3.5815 3.5815 0 8 0C12.4185 0 16 3.5815 16 8Z" fill="#B1BAD3"/>
<path opacity="0.6" d="M8.25 2V6.435L12 8.11L8.25 2Z" fill="white"/>
<path d="M8.25 2L4.5 8.11L8.25 6.435V2Z" fill="white"/>
<path opacity="0.6" d="M8.25 10.9851V14.0001L12 8.80762L8.25 10.9851Z" fill="white"/>
<path d="M8.25 14.0001V10.9826L4.5 8.80762L8.25 14.0001Z" fill="white"/>
<path opacity="0.2" d="M8.25 10.2876L12 8.11006L8.25 6.43506V10.2876Z" fill="white"/>
<path opacity="0.6" d="M4.5 8.11006L8.25 10.2876V6.43506L4.5 8.11006Z" fill="white"/>
</svg>
