<svg width="36" height="36" viewBox="0 0 36 36" fill="none" xmlns="http://www.w3.org/2000/svg">
<path d="M18 2C26.84 2 34 9.16 34 18C34 26.84 26.84 34 18 34C9.16 34 2 26.84 2 18C2 9.16 9.16 2 18 2Z" fill="#F5AC37"/>
<path d="M18.5872 19.1334H24.6672C24.8002 19.1334 24.8542 19.1334 24.8672 18.9604C24.9202 18.3474 24.9202 17.7204 24.8672 17.1074C24.8672 16.9874 24.8142 16.9344 24.6802 16.9344H12.5732C12.4262 16.9344 12.3862 16.9874 12.3862 17.1214V18.8944C12.3862 19.0458 12.4662 19.1214 12.6262 19.1214H18.5862L18.5872 19.1334ZM24.1872 14.8534C24.1872 14.8534 24.2002 14.7604 24.1872 14.7204C24.0802 14.4934 23.9602 14.2934 23.8272 14.0934C23.6142 13.7604 23.3742 13.4404 23.0802 13.1604C22.9472 12.9874 22.7872 12.8404 22.6132 12.7074C21.7462 11.9744 20.7202 11.4544 19.6132 11.1874C19.0532 11.0674 18.4802 11.0004 17.9202 11.0004H12.5602C12.4132 11.0004 12.3872 11.0534 12.3872 11.1874V14.7344C12.3872 14.8814 12.3872 14.9214 12.5742 14.9214H24.1072C24.1072 14.9214 24.2142 14.8944 24.2272 14.8414H24.1742L24.1872 14.8534ZM24.1872 21.2134C24.0142 21.2004 23.8402 21.2004 23.6802 21.2134H12.5872C12.4402 21.2134 12.3872 21.2134 12.3872 21.4134V24.8804C12.3872 25.0404 12.3872 25.0804 12.5872 25.0804H17.7072C17.9472 25.0934 18.2002 25.0804 18.4402 25.0274C19.1872 24.9744 19.9202 24.8144 20.6132 24.5474C20.8662 24.4544 21.1062 24.3474 21.3462 24.2144H21.4132C22.6132 23.5874 23.5862 22.6144 24.2002 21.4014C24.2002 21.4014 24.2672 21.2544 24.2002 21.2144L24.1872 21.2134ZM10.3732 26.8804V21.3474C10.3732 21.2144 10.3732 21.2004 10.2132 21.2004H8.04019C7.92019 21.2004 7.86719 21.2004 7.86719 21.0404V19.1334H10.1872C10.3202 19.1334 10.3742 19.1334 10.3742 18.9604V17.0804C10.3742 16.9604 10.3742 16.9334 10.2142 16.9334H8.04119C7.92119 16.9334 7.86819 16.9334 7.86819 16.7734V15.0134C7.86819 14.9064 7.86819 14.8804 8.02819 14.8804H10.1752C10.3222 14.8804 10.3622 14.8804 10.3622 14.6934V9.30645C10.3622 9.14645 10.3622 9.10645 10.5622 9.10645H18.0552C18.6022 9.13345 19.1352 9.18645 19.6822 9.29345C20.7892 9.49345 21.8422 9.89345 22.8152 10.4534C23.4552 10.8264 24.0552 11.2934 24.5752 11.8134C24.9752 12.2264 25.3222 12.6664 25.6422 13.1464C25.9622 13.6264 26.2152 14.1464 26.4292 14.6794C26.4562 14.8124 26.5892 14.9194 26.7222 14.8924H28.5092C28.6605 14.8924 28.7405 14.9681 28.7492 15.1194V16.7594C28.7492 16.9194 28.6962 16.9594 28.5222 16.9594H27.1352C27.0022 16.9594 26.9482 16.9594 26.9622 17.1464C27.0152 17.7594 27.0152 18.3734 26.9622 18.9734C26.9622 19.1464 26.9622 19.1604 27.1492 19.1604H28.7222C28.7892 19.2534 28.7222 19.3474 28.7222 19.4274C28.7222 19.5474 28.7222 19.6544 28.7222 19.7744V20.9874C28.7222 21.1604 28.6692 21.2144 28.5222 21.2144H26.6292C26.4962 21.1874 26.3762 21.2674 26.3362 21.4014C25.8832 22.5744 25.1632 23.6144 24.2292 24.4684C23.8962 24.7754 23.5362 25.0684 23.1622 25.3214C22.7622 25.5484 22.3752 25.7884 21.9622 25.9884C21.2022 26.3214 20.4152 26.5754 19.6022 26.7354C18.8292 26.8684 18.0422 26.9354 17.2552 26.9224H10.3752L10.3732 26.8804Z" fill="white"/>
</svg>
