<svg width="36" height="36" viewBox="0 0 36 36" fill="none" xmlns="http://www.w3.org/2000/svg">
<path d="M34 18C34 26.837 26.837 34 18 34C9.163 34 2 26.837 2 18C2 9.163 9.163 2 18 2C26.837 2 34 9.163 34 18Z" fill="#0F76F8"/>
<path d="M18.0008 32.8002L5.17383 25.4002V10.6002L18.0008 3.2002L30.8278 10.6002V25.4132L18.0008 32.8132V32.8002ZM6.25383 24.7872L18.0008 31.5742L29.7478 24.7872V11.2142L18.0008 4.4412L6.25383 11.2142V24.7742V24.7872Z" fill="white"/>
<path d="M22.7871 9.94727H13.1471L12.0271 14.8673H23.9741L22.7871 9.94727ZM14.8531 21.6133V18.3463L11.9861 16.5463L8.74609 18.9463L13.1591 26.6263H14.9321L17.0121 24.6663V23.7063L14.8391 21.6263L14.8531 21.6133Z" fill="white"/>
<path d="M21.1079 15.5996H14.8809L15.9079 18.3326L15.6009 21.4126H20.3879L20.0809 18.3326L21.1079 15.5996Z" fill="white"/>
<path d="M23.972 16.5068L21.145 18.3468V21.6138L18.998 23.6938V24.6538L21.078 26.5868H22.825L27.212 18.9338L23.972 16.5068Z" fill="white"/>
</svg>
