<svg xmlns="http://www.w3.org/2000/svg" width="73" height="33" viewBox="0 0 73 33"><defs><filter id="apple_pay_mark_rgb_041619-a"><feColorMatrix in="SourceGraphic" values="0 0 0 0 1.000000 0 0 0 0 1.000000 0 0 0 0 1.000000 0 0 0 1.000000 0"></feColorMatrix></filter></defs><g fill="none" fill-rule="evenodd" filter="url(#apple_pay_mark_rgb_041619-a)" transform="translate(-70 .573)"><g fill="#000" fill-rule="nonzero" transform="translate(70.846 .244)"><path d="M13.3436603 3.80837138C14.1592821 2.79174355 14.7127578 1.42671196 14.5667822.0318122741 13.3728267.0909749601 11.9158331.816773111 11.0723053 1.83419811 10.3149069 2.70546559 9.64454714 4.1276526 9.81930925 5.4640778 11.1595857 5.57993137 12.4986248 4.79647311 13.3436603 3.80837138M14.5515545 5.72501644C12.6051498 5.6094783 10.9502302 6.82586335 10.0207228 6.82586335 9.09070311 6.82586335 7.66732448 5.78323858 6.12782143 5.81134028 4.12406246 5.84066929 2.26480581 6.96968098 1.24798347 8.76533962-.843447186 12.3575401.696055856 17.68603 2.72986169 20.6116753 3.71752344 22.059085 4.90782453 23.6527899 6.47622919 23.5955428 7.95810741 23.5375959 8.53894239 22.6393279 10.3402289 22.6393279 12.1401918 22.6393279 12.663402 23.5955428 14.2320598 23.5665751 15.8587972 23.5375902 16.8757979 22.1184427 17.8634482 20.6696222 18.9964812 19.0196508 19.4603056 17.4264678 19.4894777 17.3390084 19.4602998 17.3100407 16.3526683 16.1220097 16.323853 12.5596659 16.2945141 9.57686517 18.7636915 8.15807904 18.8799022 8.07009203 17.4855345 6.01496866 15.3068638 5.78323858 14.5515545 5.72501644"></path><path d="M8.47933209.541273197C12.7098103.541273197 15.6556456 3.44727024 15.6556456 7.67817652 15.6556456 11.9241889 12.6491929 14.8452806 8.37325016 14.8452806L3.68930092 14.8452806 3.68930092 22.2682477.305147416 22.2682477.305147416.541273197 8.47933209.541273197 8.47933209.541273197zM3.68929516 12.0145101L7.57237847 12.0145101C10.5187951 12.0145101 12.195716 10.4337262 12.195716 7.69327688 12.195716 4.95312003 10.5187951 3.3871498 7.58753139 3.3871498L3.68929516 3.3871498 3.68929516 12.0145101 3.68929516 12.0145101zM16.5398555 17.766378C16.5398555 14.9957222 18.6702533 13.2944164 22.4478416 13.0835676L26.7989734 12.8277045 26.7989734 11.6082111C26.7989734 9.8464924 25.6052539 8.79254092 23.6112496 8.79254092 21.7221648 8.79254092 20.5435982 9.69576404 20.2568265 11.1112927L17.1745976 11.1112927C17.3558743 8.25031571 19.8033496 6.14241275 23.7319032 6.14241275 27.5846807 6.14241275 30.0473089 8.1750949 30.0473089 11.3520554L30.0473089 22.2682535 26.919627 22.2682535 26.919627 19.6634321 26.8444379 19.6634321C25.9229184 21.4251508 23.91318 22.539217 21.8282467 22.539217 18.715712 22.539217 16.5398555 20.6119563 16.5398555 17.766378zM26.7989734 16.3360357L26.7989734 15.0863416 22.8855728 15.3271043C20.9364518 15.4627323 19.8336612 16.3209354 19.8336612 17.6760568 19.8336612 19.0610922 20.9819163 19.9646021 22.7346133 19.9646021 25.0159705 19.9646021 26.7989734 18.3986319 26.7989734 16.3360357zM33.0001366 28.0953364L33.0001366 25.4603144C33.2414438 25.5204348 33.7852626 25.5204348 34.0574626 25.5204348 35.5682655 25.5204348 36.3842843 24.8881752 36.8826387 23.2620903 36.8826387 23.2318838 37.1699916 22.2984599 37.1699916 22.2833596L31.4287106 6.42848234 34.9638235 6.42848234 38.9833003 19.3172478 39.0433365 19.3172478 43.0628191 6.42848234 46.50759 6.42848234 40.5541393 23.0962558C39.1948887 26.9359634 37.6234627 28.1705572 34.3296627 28.1705572 34.0574684 28.1705572 33.2414495 28.1403508 33.0001366 28.0953364z" transform="translate(23.02 1.147)"></path></g></g></svg>
