<svg xmlns="http://www.w3.org/2000/svg" width="77" height="32" viewBox="0 0 77 32"><g fill="none" transform="translate(1.455 1.137)"><g fill="#FFF" transform="translate(31.863 1.552)"><path d="M2.73315272 12.5881699L2.73315272 21.1261102.0141614131 21.1261102.0141614131.0423368941 7.22232067.0423368941C9.04914296.0423368941 10.6068984.64916571 11.8814256 1.86282334 13.1842756 3.07648097 13.8357006 4.55827227 13.8357006 6.30819723 13.8357006 8.10045908 13.1842756 9.58225037 11.8814256 10.7817957 10.6210598 11.981341 9.06330437 12.5740576 7.22232067 12.5740576L2.73315272 12.5740576 2.73315272 12.5881699zM2.73315272 2.63899973L2.73315272 9.99150701 7.27896632 9.99150701C8.35523372 9.99150701 9.26156415 9.62458727 9.96963481 8.90486006 10.6918669 8.18513286 11.0600636 7.31017039 11.0600636 6.32230952 11.0600636 5.34856096 10.6918669 4.48771078 9.96963481 3.76798358 9.26156415 3.02003178 8.36939513 2.65311203 7.27896632 2.65311203L2.73315272 2.65311203 2.73315272 2.63899973zM20.9447299 6.22352344C22.9556506 6.22352344 24.5417289 6.75979076 25.7029647 7.83232541 26.8642006 8.90486006 27.4448185 10.3725391 27.4448185 12.2353624L27.4448185 21.1261102 24.85328 21.1261102 24.85328 19.1221638 24.7399887 19.1221638C23.621237 20.7733027 22.1201272 21.591816 20.2508207 21.591816 18.650581 21.591816 17.3194082 21.1261102 16.2431408 20.1805862 15.1668734 19.2350622 14.6287397 18.0637415 14.6287397 16.6525117 14.6287397 15.1566081 15.1951962 13.9711751 16.3281093 13.0962126 17.4610223 12.2071378 18.9762935 11.7696566 20.8597615 11.7696566 22.4741626 11.7696566 23.8053354 12.0660148 24.8391185 12.6587313L24.8391185 12.0377902C24.8391185 11.0922663 24.4709218 10.3019776 23.7203669 9.63869956 22.969812 8.97542156 22.0918044 8.6508387 21.0863441 8.6508387 19.5710729 8.6508387 18.3673528 9.28589211 17.4893452 10.5701112L15.0960663 9.07420764C16.4130778 7.16904741 18.3673528 6.22352344 20.9447299 6.22352344zM17.4326995 16.6948486C17.4326995 17.4004635 17.7300892 17.99318 18.3390299 18.4588858 18.9338093 18.9245917 19.6418799 19.1645007 20.4490805 19.1645007 21.5961549 19.1645007 22.6157767 18.7411318 23.5079457 17.8943939 24.4001147 17.047656 24.85328 16.0597952 24.85328 14.916699 24.0035952 14.253421 22.8281979 13.9147259 21.3129267 13.9147259 20.2083365 13.9147259 19.2878446 14.1828595 18.5514511 14.7050146 17.8008962 15.2553942 17.4326995 15.9186722 17.4326995 16.6948486z"></path><polygon points="42.229 6.689 33.166 27.463 30.362 27.463 33.732 20.195 27.756 6.689 30.716 6.689 35.021 17.048 35.078 17.048 39.27 6.689"></polygon></g><path fill="#4285F4" d="M23.781261,12.4188223 C23.781261,11.5353924 23.7019571,10.6900658 23.5546784,9.8771974 L12.1575731,9.8771974 L12.1575731,14.5342558 L18.7213881,14.535667 C18.4551535,16.0851973 17.598388,17.4061084 16.285625,18.2867158 L16.285625,21.3081588 L20.1927589,21.3081588 C22.4741626,19.2040152 23.781261,16.0936647 23.781261,12.4188223 Z"></path><path fill="#34A853" d="M16.2870412,18.2867158 C15.1994447,19.0177328 13.7988809,19.4453355 12.1604054,19.4453355 C8.99532959,19.4453355 6.31032567,17.3200234 5.34876572,14.4552269 L1.31842756,14.4552269 L1.31842756,17.5712223 C3.3151868,21.5198433 7.41916431,24.2294045 12.1604054,24.2294045 C15.4373564,24.2294045 18.1903351,23.1554586 20.1941751,21.3067476 L16.2870412,18.2867158 Z"></path><path fill="#FABB05" d="M4.96923985,12.1436325 C4.96923985,11.3392315 5.10377327,10.5616439 5.34876572,9.83062682 L5.34876572,6.71463141 L1.31842756,6.71463141 C0.492817175,8.34742429 0.0283228262,10.1904904 0.0283228262,12.1436325 C0.0283228262,14.0967745 0.494233316,15.9398406 1.31842756,17.5726335 L5.34876572,14.4566381 C5.10377327,13.7256211 4.96923985,12.9480335 4.96923985,12.1436325 Z"></path><path fill="#E94235" d="M12.1604054,4.84051823 C13.9489919,4.84051823 15.5506477,5.45440319 16.8152619,6.65394853 L20.2777274,3.20631412 C18.1747575,1.2545833 15.433108,0.0564491922 12.1604054,0.0564491922 C7.42058045,0.0564491922 3.3151868,2.76601042 1.31842756,6.71463141 L5.34876572,9.83062682 C6.31032567,6.96583031 8.99532959,4.84051823 12.1604054,4.84051823 Z"></path></g></svg>
