<svg xmlns="http://www.w3.org/2000/svg" width="50" height="32" viewBox="0 0 50 32"><g fill="none" transform="translate(0 .573)"><rect width="14.744" height="23.998" x="17.471" y="3.324" fill="#FF5F00"></rect><path fill="#EB001B" d="M18.9892518,15.3243998 C18.9855498,10.6423184 21.1423841,6.21855731 24.8382952,3.32775693 C18.5595238,-1.58957297 9.54295618,-0.873321349 4.12519383,4.97314941 C-1.29256852,10.8196202 -1.29256852,19.8334185 4.12519383,25.6798893 C9.54295618,31.5263601 18.5595238,32.2426117 24.8382952,27.3252818 C21.1412079,24.4335634 18.9842419,20.0079688 18.9892518,15.3243998 Z"></path><path fill="#F79E1B" d="M48.1536457 25.2198418L48.1536457 24.3651775 48.3663382 24.3651775 48.3663382 24.1883504 47.86013 24.1883504 47.86013 24.3651775 48.060061 24.3651775 48.060061 25.2198418 48.1536457 25.2198418zM49.136285 25.2198418L49.136285 24.1883504 48.9831464 24.1883504 48.8044847 24.92513 48.625823 24.1883504 48.4726844 24.1883504 48.4726844 25.2198418 48.5832845 25.2198418 48.5832845 24.4388555 48.7491846 25.1093249 48.8640386 25.1093249 49.0299387 24.4388555 49.0299387 25.2198418 49.136285 25.2198418zM49.61697 15.3243998C49.61697 21.1673077 46.2689439 26.497238 40.9951632 29.050549 35.7213825 31.6038601 29.4475923 30.9322843 24.8382952 27.3210427 28.5325936 24.4277881 30.6895903 20.0046151 30.6895903 15.3222803 30.6895903 10.6399454 28.5325936 6.21677243 24.8382952 3.32351783 29.4475923-.287723827 35.7213825-.95929954 40.9951632 1.59401148 46.2689439 4.14732249 49.61697 9.47725286 49.61697 15.3201607L49.61697 15.3243998z"></path></g></svg>
