<svg xmlns="http://www.w3.org/2000/svg" width="66" height="32" viewBox="0 0 66 32"><defs><filter id="samsung-pay-a"><feColorMatrix in="SourceGraphic" values="0 0 0 0 1.000000 0 0 0 0 1.000000 0 0 0 0 1.000000 0 0 0 1.000000 0"></feColorMatrix></filter></defs><g fill="none" fill-rule="evenodd" filter="url(#samsung-pay-a)" transform="translate(-259 .573)"><g transform="translate(259.97)"><g fill="#000" transform="translate(20.464 16.197)"><path d="M0 0L3.34223274 0C5.36078133 0 6.85794904 1.54527658 6.85794904 3.46366282 6.85794904 5.39549028 5.36078133 6.94076686 3.32874475 6.94076686L1.81808903 6.94076686 1.81808903 9.72541643 0 9.72541643 0 0zM1.81808903 1.67829828L1.81808903 5.26246858 3.20828298 5.26246858C4.2915087 5.26246858 5.02683711 4.46294785 5.02683711 3.46366282 5.02683711 2.47781901 4.2915087 1.67829828 3.20828298 1.67829828L1.81808903 1.67829828zM7.20589286 5.83501811C7.20589286 3.25059634 9.10444478 1.77159888 11.0829945 1.77159888 12.1127333 1.77159888 13.0345682 2.19800993 13.5959479 2.86404545L13.5959479 1.93150302 15.4010141 1.93150302 15.4010141 9.72509199 13.5959479 9.72509199 13.5959479 8.71236574C13.0215453 9.43216613 12.0857573 9.88499613 11.0560185 9.88499613 9.17141966 9.88499613 7.20589286 8.37957972 7.20589286 5.83501811M13.6898988 5.80859917C13.6898988 4.48950585 12.687136 3.410037 11.3504289 3.410037 10.0137218 3.410037 8.98398301 4.46262341 8.98398301 5.80859917 8.98398301 7.16708916 10.0137218 8.23311679 11.3504289 8.23311679 12.687136 8.23311679 13.6898988 7.15411143 13.6898988 5.80859917"></path><polygon points="19.198 9.339 15.989 1.932 17.915 1.932 20.094 7.181 22.153 1.932 24.051 1.932 19.385 13.322 17.554 13.322"></polygon></g><g fill="#000" transform="translate(.227 .412)"><polygon points="52.738 .29 52.862 7.43 52.812 7.43 50.714 .29 47.327 .29 47.327 9.292 49.571 9.292 49.445 1.906 49.495 1.906 51.748 9.292 54.999 9.292 54.999 .29"></polygon><polygon points="9.772 .29 8.079 9.385 10.547 9.385 11.795 1.133 11.846 1.132 13.063 9.385 15.515 9.385 13.832 .29"></polygon><polygon points="23.563 .29 22.437 7.245 22.386 7.245 21.262 .29 17.538 .29 17.337 9.385 19.621 9.385 19.678 1.209 19.73 1.209 21.254 9.385 23.57 9.385 25.095 1.21 25.145 1.209 25.202 9.385 27.486 9.385 27.284 .29"></polygon><path d="M4.23802182 6.8197959C4.32732166 7.03995378 4.29895036 7.32175587 4.25616085 7.49278378 4.18174431 7.79544293 3.97523842 8.10459094 3.36688322 8.10459094 2.7962014 8.10459094 2.4496994 7.77551284 2.4496994 7.28004174L2.44783898 6.39848324 6.96384831e-14 6.39848324 6.96384831e-14 7.09974402C6.96384831e-14 9.12844096 1.60135087 9.74163859 3.31711716 9.74163859 4.96776899 9.74163859 6.3258708 9.18035187 6.54307407 7.66195773 6.65376867 6.8768052 6.57284068 6.362331 6.5333069 6.17090951 6.14773621 4.26596449 2.6850417 3.6981889 2.42690933 2.63308825 2.38318962 2.44815563 2.39388699 2.25673415 2.41667706 2.15522978 2.48179153 1.86276741 2.67992556 1.54434959 3.25060738 1.54434959 3.78501114 1.54434959 4.09849081 1.8729642 4.09849081 2.36797181L4.09849081 2.93203948 6.37656706 2.93203948 6.37656706 2.29103243C6.37656706.310074994 4.59010506 8.46490401e-14 3.29851303 8.46490401e-14 1.67669761 8.46490401e-14.349757727.536258248.107438876 2.01942713.0418593024 2.42498112.0325572352 2.787894.128833631 3.24628588.52463659 5.10534537 3.76780232 5.6425306 4.23802182 6.8197959M33.9133371 6.80236866C34.0003114 7.02113607 33.9738005 7.29830326 33.931011 7.46840419 33.8570595 7.76781891 33.6528792 8.073259 33.0510354 8.073259 32.4854697 8.073259 32.1417584 7.74835231 32.1417584 7.25658913L32.1398979 6.38522742 29.7171745 6.38522742 29.7162443 7.07953585C29.7162443 9.0883027 31.303177 9.69408449 33.0008043 9.69408449 34.6361077 9.69408449 35.9802564 9.13928663 36.1951341 7.63526069 36.3048985 6.85845099 36.2244357 6.35000216 36.185367 6.15904416 35.8025869 4.27263875 32.3747751 3.71088853 32.1203636 2.65644816 32.0757137 2.47429648 32.0868762 2.28519245 32.108736 2.18415157 32.1733854 1.89539713 32.3701241 1.57883327 32.9342945 1.57883327 33.4649774 1.57883327 33.7747363 1.90327646 33.7747363 2.39503964L33.7747363 2.95215495 36.0300224 2.95215495 36.0300224 2.31856375C36.0300224.357072907 34.2612344.0511693263 32.9822001.0511693263 31.3771284.0511693263 30.0632114.580011729 29.8241483 2.04973939 29.7581036 2.45112197 29.7492667 2.81032693 29.845078 3.26315693 30.2362299 5.10506728 33.4482337 5.63622713 33.9133371 6.80236866M41.5757289 8.02422173C42.210595 8.02422173 42.4054733 7.58854087 42.4510534 7.36467506 42.4701226 7.26687862 42.4733784 7.1343204 42.4724481 7.01752085L42.4724481.288569045 44.7830816.288569045 44.7830816 6.8103407C44.7854072 6.97766069 44.7681983 7.31971651 44.7598265 7.40870664 44.600296 9.10600803 43.2533567 9.65663447 41.5757289 9.65663447 39.8971708 9.65663447 38.5506966 9.10600803 38.3907011 7.40870664 38.3827943 7.31971651 38.3651204 6.97766069 38.3697714 6.8103407L38.3697714.288569045 40.6785445.288569045 40.6785445 7.01752085C40.6757539 7.1343204 40.6804049 7.26687862 40.6999392 7.36467506 40.7445892 7.58854087 40.9403977 8.02422173 41.5757289 8.02422173M60.6131536 7.92962336C61.2740654 7.92962336 61.5042916 7.51248211 61.5461509 7.26961321 61.564755 7.16671837 61.5698712 7.03972203 61.5680108 6.92431296L61.5680108 5.60336567 60.6322228 5.60336567 60.6322228 4.27732 63.8651562 4.27732 63.8651562 6.71574233C63.8637609 6.88677024 63.859575 7.01191262 63.8321339 7.31410828 63.6814404 8.97108601 62.2400851 9.5624996 60.6224556 9.5624996 59.0038959 9.5624996 57.5639359 8.97108601 57.411382 7.31410828 57.3858013 7.01191262 57.3806852 6.88677024 57.3802201 6.71574233L57.3806852 2.88870314C57.3806852 2.72740852 57.4002195 2.442362 57.4192888 2.29033719 57.6225389.589791374 59.0038959.0424093601 60.6229207.0424093601 62.2414804.0424093601 63.6586504.584692981 63.8265527 2.29033719 63.8563193 2.58001861 63.846087 2.88870314 63.8479474 2.88870314L63.8479474 3.19228927 61.5461509 3.19228927 61.5461509 2.68244996C61.5470811 2.68337694 61.5447556 2.4664635 61.5173145 2.33575924 61.4759203 2.13553144 61.3024367 1.67574909 60.6047817 1.67574909 59.9410792 1.67574909 59.7462009 2.11142995 59.6950395 2.33575924 59.6694588 2.45580322 59.6587615 2.61802482 59.6587615 2.7663417L59.6587615 6.92431296C59.6578313 7.03972203 59.6620172 7.16671837 59.6796911 7.26961321 59.7224806 7.51248211 59.9531719 7.92962336 60.6131536 7.92962336"></path></g></g></g></svg>
