<svg width="200" height="200" viewBox="0 0 200 200" fill="none" xmlns="http://www.w3.org/2000/svg">
<g clip-path="url(#clip0_4_79592)">
<path d="M161.461 53.6164C161.461 58.7553 157.295 62.9164 152.161 62.9164C147.028 62.9164 142.861 58.7497 142.861 53.6164C142.861 48.4775 147.028 44.3164 152.161 44.3164C157.295 44.3164 161.461 48.4831 161.461 53.6164Z" fill="#334552"/>
<path d="M58.1719 158.839L60.7163 163.128L60.8497 163.05C62.6052 164.25 67.9941 162.867 73.6497 159.645C79.2941 156.417 83.2274 152.478 83.0885 150.35L83.2219 150.272L80.6774 145.983L58.1719 158.839Z" fill="#334552"/>
<path d="M80.6723 145.989C81.7612 147.895 77.6057 152.317 71.3946 155.867C65.1834 159.417 59.2612 160.745 58.1723 158.839C57.0834 156.934 61.239 152.511 67.4501 148.961C73.6612 145.411 79.5834 144.084 80.6723 145.989Z" fill="#6DBD54"/>
<path d="M159.178 78.4277L157.372 83.0777C157.445 85.2055 161.745 88.7389 167.683 91.3889C173.622 94.0389 179.128 94.8888 180.756 93.5166L182.856 88.9944L159.189 78.4277H159.178Z" fill="#334552"/>
<path d="M172.639 80.0833C179.172 83 183.744 86.9889 182.85 88.9944C181.956 91 175.933 90.2611 169.4 87.3445C162.867 84.4278 158.294 80.4389 159.189 78.4333C160.083 76.4278 166.106 77.1667 172.639 80.0833Z" fill="#263742"/>
<path d="M74.833 70.9052L16.6719 57.933L27.7163 18.0274L49.2219 16.6719L74.833 70.9052Z" fill="#334552"/>
<path d="M85.3497 29.9337L49.2164 16.667L38.5664 57.9337L74.8331 70.9059L85.3497 29.9392V29.9337Z" fill="#263742"/>
<path d="M16.667 57.9336H38.5614L74.8281 70.9058L52.5059 71.3947L16.667 57.9336Z" fill="#83D526"/>
<path d="M144.727 65.0281L85.3496 64.667L92.2274 122.956L135.233 111.011L144.727 65.0337V65.0281Z" fill="#263742"/>
<path d="M100.589 76.4553L92.233 122.955L59.4941 94.8664L67.8219 48.5664C97.6164 50.972 111.405 59.222 100.589 76.4553Z" fill="#61B419"/>
<path d="M83.0726 84.456C84.2282 88.5504 83.0893 92.456 80.5226 93.1782C77.956 93.9004 74.9449 91.1671 73.7893 87.0782C72.6337 82.9837 73.7726 79.0782 76.3393 78.356C78.906 77.6337 81.9171 80.3671 83.0726 84.456Z" fill="#6FF716"/>
<path d="M109.617 105.061C110.934 106.255 110.245 109.161 108.078 111.555C105.911 113.95 103.084 114.916 101.767 113.722C100.45 112.527 101.139 109.622 103.306 107.227C105.472 104.833 108.3 103.866 109.617 105.061Z" fill="black"/>
<path d="M123.95 90.1223C125.267 91.3167 124.578 94.2223 122.411 96.6167C120.244 99.0112 117.417 99.9778 116.1 98.7834C114.783 97.5889 115.472 94.6834 117.639 92.2889C119.805 89.8945 122.633 88.9278 123.95 90.1223Z" fill="black"/>
<path d="M137.456 74.3614C138.772 75.5559 138.084 78.4614 135.917 80.8559C133.75 83.2503 130.922 84.217 129.606 83.0225C128.289 81.8281 128.978 78.9225 131.145 76.5281C133.311 74.1336 136.139 73.167 137.456 74.3614Z" fill="black"/>
<path d="M67.8112 48.5614L111.728 38.167L144.722 65.0337L100.583 76.4614L67.8057 48.567L67.8112 48.5614Z" fill="#334552"/>
<path d="M104.378 60.8941C108.078 61.5664 110.839 63.4386 110.544 65.0775C110.25 66.7164 107.005 67.4997 103.305 66.8275C99.6054 66.1552 96.8443 64.283 97.1387 62.6441C97.4332 61.0052 100.678 60.2219 104.378 60.8941Z" fill="black"/>
<path d="M110.133 44.5167C113.578 45.1444 116.167 46.7944 115.911 48.2111C115.656 49.6278 112.65 50.2667 109.206 49.6389C105.761 49.0111 103.172 47.3611 103.428 45.9444C103.683 44.5278 106.689 43.8889 110.133 44.5167Z" fill="black"/>
<path d="M121.417 118.111L106.661 137.872L87 166.156L114.411 137.256L121.417 118.111Z" fill="#7AF917"/>
<path d="M121.416 118.111L110.566 134L146.811 160.828L157.322 143.584L121.416 118.111Z" fill="#263742"/>
<path d="M86.9997 166.156L110.572 134C128.244 134.478 139.577 144.556 146.816 160.828L123.711 192.794L86.9997 166.156Z" fill="#263742"/>
<path d="M49.4164 98.8996C49.4164 104.038 45.2497 108.2 40.1164 108.2C34.9831 108.2 30.8164 104.033 30.8164 98.8996C30.8164 93.7607 34.9831 89.5996 40.1164 89.5996C45.2497 89.5996 49.4164 93.7663 49.4164 98.8996Z" fill="#2EF015"/>
</g>
<defs>
<clipPath id="clip0_4_79592">
<rect width="200" height="200" fill="white"/>
</clipPath>
</defs>
</svg>
