<svg width="200" height="200" viewBox="0 0 200 200" fill="none" xmlns="http://www.w3.org/2000/svg">
<g clip-path="url(#clip0_622_1505)">
<path d="M136.555 63.4893H158.121C160.705 63.4893 162.799 65.5837 162.799 68.167V172.723C162.799 175.306 160.705 177.4 158.121 177.4H136.555C133.971 177.4 131.877 175.306 131.877 172.723V68.167C131.877 65.5837 133.971 63.4893 136.555 63.4893Z" fill="#263742"/>
<path d="M90.0665 93.9111H111.633C114.216 93.9111 116.311 96.0056 116.311 98.5889V172.722C116.311 175.306 114.216 177.4 111.633 177.4H90.0665C87.4831 177.4 85.3887 175.306 85.3887 172.722V98.5889C85.3887 96.0056 87.4831 93.9111 90.0665 93.9111Z" fill="#263742"/>
<path d="M43.5664 123.605H65.1331C67.7164 123.605 69.8109 125.7 69.8109 128.283V172.722C69.8109 175.305 67.7164 177.4 65.1331 177.4H43.5664C40.9831 177.4 38.8887 175.305 38.8887 172.722V128.283C38.8887 125.7 40.9831 123.605 43.5664 123.605Z" fill="#263742"/>
<path d="M54.3442 117.566C60.5331 117.566 65.5498 122.583 65.5498 128.772V160.422C65.5498 166.611 60.5331 171.628 54.3442 171.628C48.1553 171.628 43.1387 166.611 43.1387 160.422V128.772C43.1387 122.583 48.1553 117.566 54.3442 117.566Z" fill="#334552"/>
<path d="M100.844 84.9551C107.033 84.9551 112.05 89.9717 112.05 96.1606V160.177C112.05 166.366 107.033 171.383 100.844 171.383C94.6553 171.383 89.6387 166.366 89.6387 160.177V96.1606C89.6387 89.9717 94.6553 84.9551 100.844 84.9551Z" fill="#334552"/>
<path d="M147.338 53.5889C153.527 53.5889 158.544 58.6055 158.544 64.7944V159.983C158.544 166.172 153.527 171.189 147.338 171.189C141.149 171.189 136.133 166.172 136.133 159.983V64.7944C136.133 58.6055 141.149 53.5889 147.338 53.5889Z" fill="#334552"/>
<path d="M65.6889 100.855C65.6889 107.122 60.6111 112.2 54.3444 112.2C48.0778 112.2 43 107.122 43 100.855C43 94.5885 48.0778 89.5107 54.3444 89.5107C60.6111 89.5107 65.6889 94.5885 65.6889 100.855Z" fill="#3C8725"/>
<path d="M60.3949 97.7893C60.3949 101.134 57.6838 103.839 54.3449 103.839C51.006 103.839 48.2949 101.128 48.2949 97.7893C48.2949 94.4448 51.006 91.7393 54.3449 91.7393C57.6838 91.7393 60.3949 94.4504 60.3949 97.7893Z" fill="#69E244"/>
<path d="M66.5673 84.956L56.5117 74.9004L88.4062 43.006L100.823 55.4227L134.023 22.2227L144.084 32.2838L100.817 75.5393L88.4006 63.1171L66.5617 84.956H66.5673Z" fill="#334552"/>
</g>
<defs>
<clipPath id="clip0_622_1505">
<rect width="200" height="200" fill="white"/>
</clipPath>
</defs>
</svg>
