<svg width="174" height="173" viewBox="0 0 174 173" fill="none" xmlns="http://www.w3.org/2000/svg">
<g clip-path="url(#clip0_4734_3451)">
<path d="M125.262 84.3324L97.7194 106.761L81.7627 42.2883L96.2998 28.8248L125.262 84.3273V84.3324Z" fill="#263742"/>
<path d="M152.072 30.3055C138.039 33.9181 124.02 34.6814 110.038 32.5443H110.023L112.282 30.1019L115.167 26.9778L149.375 25.0188L150.825 27.8733L151.965 30.107L152.067 30.3106L152.072 30.3055Z" fill="#334552"/>
<path d="M110.023 146.653L113.045 154.606H151.456L158.707 148.749L161.053 143.687L110.023 146.648V146.653Z" fill="#0C1D29"/>
<path d="M161.053 39.6577L158.936 33.7248L149.375 25.0239L152.072 36.0552L161.053 39.6577Z" fill="#0C1D29"/>
<path d="M154.148 148.958L105.26 149.146V32.8241L154.148 29.9849V148.958Z" fill="#334552"/>
<path d="M145.854 127.725C145.854 127.725 144.781 109.855 127.058 110.079C110.817 110.293 112.587 127.262 112.582 127.236L145.859 127.72L145.854 127.725Z" fill="#0C1D29"/>
<path d="M145.823 127.486C145.823 136.675 138.374 144.125 129.185 144.125C119.995 144.125 112.546 136.675 112.546 127.486C112.546 118.297 119.995 110.848 129.185 110.848C138.374 110.848 145.823 118.297 145.823 127.486Z" fill="#0C1D29"/>
<path d="M145.823 50.3735C145.823 59.5629 138.374 67.012 129.185 67.012C119.995 67.012 112.546 59.5629 112.546 50.3735C112.546 41.1842 119.995 33.735 129.185 33.735C138.374 33.735 145.823 41.1842 145.823 50.3735Z" fill="#0C1D29"/>
<path d="M144.262 127.572C144.262 134.477 138.665 140.069 131.765 140.069C124.866 140.069 119.269 134.472 119.269 127.572C119.269 120.667 124.866 115.075 131.765 115.075C138.665 115.075 144.262 120.672 144.262 127.572Z" fill="#263742"/>
<path d="M144.262 50.4596C144.262 57.3643 138.665 62.9563 131.765 62.9563C124.866 62.9563 119.269 57.3592 119.269 50.4596C119.269 43.5549 124.866 37.9629 131.765 37.9629C138.665 37.9629 144.262 43.5599 144.262 50.4596Z" fill="#263742"/>
<path d="M146.368 92.1327C146.368 92.1327 146.455 73.5046 128.081 73.6624C111.447 73.8048 113.101 91.6645 113.101 91.6442L146.378 92.1276L146.368 92.1327Z" fill="#0C1D29"/>
<path d="M146.348 91.8935C146.348 101.083 138.898 108.532 129.709 108.532C120.52 108.532 113.071 101.083 113.071 91.8935C113.071 82.7042 120.52 75.255 129.709 75.255C138.898 75.255 146.348 82.7042 146.348 91.8935Z" fill="#0C1D29"/>
<path d="M144.786 91.9749C144.786 98.8796 139.189 104.472 132.289 104.472C125.389 104.472 119.792 98.8745 119.792 91.9749C119.792 85.0701 125.389 79.4781 132.289 79.4781C139.189 79.4781 144.786 85.0752 144.786 91.9749Z" fill="#ED4163"/>
<path d="M145.722 51.0604H145.401L142.659 45.2497C142.659 45.2497 137.794 35.5566 127.42 35.8517C117.04 36.1468 112.368 44.6035 113.808 53.5791L114.18 55.5076L114.022 56.0469H113.585C110.608 50.3176 112.491 34.0148 128.63 34.7425C139.382 35.2258 143.91 44.751 145.712 51.0452L145.722 51.0604Z" fill="#0C1D29"/>
<path d="M154.148 29.9849L162.538 41.7489V142.552L154.148 148.963V29.99V29.9849Z" fill="#0C1D29"/>
<path d="M151.965 30.1019L110.023 32.5443L112.282 30.1019L150.825 27.8682L151.965 30.1019Z" fill="#0C1D29"/>
<path d="M85.3347 145.747L78.2315 149.487L19.8186 38.5739L26.932 34.829L85.3398 145.753L85.3347 145.747Z" fill="#334552"/>
<path d="M29.7151 36.7268C29.71 36.9812 29.6846 37.2204 29.6439 37.4697C29.5828 37.8666 29.4811 38.2533 29.359 38.6298C29.359 38.6349 29.3437 38.6502 29.359 38.6553C29.1656 39.2099 28.8959 39.734 28.5703 40.2174C28.4532 40.3954 28.3311 40.5583 28.2039 40.7211C27.3491 41.7642 26.2043 42.5783 24.8711 43.0057C24.4946 43.1227 24.0875 43.2194 23.6703 43.2703C23.2429 43.3212 22.8155 43.3415 22.3983 43.3161C21.9301 43.2957 21.4671 43.2245 21.0244 43.1227C20.8463 43.0769 20.6784 43.0261 20.5105 42.9599C20.3935 42.9294 20.2815 42.8887 20.1696 42.8429C19.1062 42.4206 18.1547 41.7438 17.427 40.8686C16.5875 39.8866 16.0125 38.64 15.8293 37.2611C15.4783 34.6864 16.5824 32.2644 18.5058 30.7939C18.6686 30.6769 18.8314 30.5548 18.9993 30.453C19.8338 29.9188 20.7904 29.5626 21.8335 29.415C22.8053 29.2827 23.7568 29.3692 24.6422 29.6186C25.3952 29.8424 26.1076 30.1732 26.7436 30.6209C28.2955 31.6996 29.3946 33.4093 29.6693 35.4191C29.7304 35.8618 29.7457 36.3045 29.7151 36.7268Z" fill="#334552"/>
<path d="M29.7151 36.7268C29.71 36.9812 29.6846 37.2203 29.6439 37.4697C29.5828 37.8665 29.4811 38.2532 29.3589 38.6298C29.3589 38.6298 29.3437 38.6501 29.3589 38.6552C29.1656 39.2098 28.8959 39.7339 28.5703 40.2173C28.4532 40.3954 28.3311 40.5582 28.2039 40.721C27.3491 41.7641 26.2042 42.5783 24.8711 43.0057C24.4946 43.1227 24.0875 43.2194 23.6703 43.2703C23.2429 43.3211 22.8155 43.3415 22.3982 43.316C21.9301 43.2957 21.4671 43.2245 21.0244 43.1227C20.8463 43.0769 20.6784 43.026 20.5105 42.9599C20.6123 40.8839 21.6452 38.991 23.248 37.775C23.4057 37.6579 23.5736 37.5409 23.7364 37.434C24.5709 36.9049 25.5275 36.5487 26.5706 36.396C27.5475 36.2739 28.499 36.3553 29.3793 36.6047C29.4963 36.6352 29.6134 36.6759 29.7253 36.7217L29.7151 36.7268Z" fill="#0C1D29"/>
<path d="M74.5426 142.491C74.5426 142.491 75.1329 136.746 80.445 136.451L85.3348 145.747L77.7126 148.531L74.5325 142.491H74.5426Z" fill="#0C1D29"/>
<path d="M64.2134 105.667C64.2134 105.667 56.5861 106.222 59.3897 113.747L54.1082 103.683L61.4861 100.432L64.2134 105.657V105.667Z" fill="#0C1D29"/>
<path d="M58.8148 103.734C58.8148 103.734 56.7998 104.711 55.9552 107.204L22.3423 43.3721C24.9933 39.6017 29.3691 39.4644 29.3691 39.4644L58.8148 103.734Z" fill="#334552"/>
<path d="M87.6447 151.4C87.0138 152.377 86.1386 153.217 85.0395 153.797C81.6253 155.603 77.4021 154.285 75.6009 150.881C74.573 148.912 74.5578 146.694 75.3922 144.811H75.3973C75.6212 144.297 75.8909 143.814 76.242 143.376C76.8322 142.593 77.6107 141.926 78.5266 141.438C81.9459 139.641 86.164 140.949 87.9551 144.368C89.1814 146.679 88.9727 149.365 87.6447 151.4Z" fill="#334552"/>
<path d="M107.199 78.5776L84.9785 83.7472C84.373 83.8897 84.0677 84.5614 84.3577 85.1109L95.7961 106.456C95.8928 106.634 96.0251 106.761 96.1726 106.858V106.873C96.7985 107.458 97.7144 106.761 97.7144 106.761L101.073 104.024C98.2181 106.232 99.2408 102.864 99.2408 102.864L108.272 79.8446C108.552 79.1424 107.921 78.4097 107.184 78.5827L107.199 78.5776Z" fill="#0C1D29"/>
<path d="M101.083 104.019C101.225 103.907 101.383 103.785 101.546 103.642L101.083 104.019Z" fill="#0C1D29"/>
<path d="M108.405 79.5443L106.654 84.0067C108.725 78.3587 103.958 80.3482 103.566 80.5161C102.874 80.8265 102.116 81.1725 101.302 81.544C101.19 81.5948 101.088 81.6457 100.976 81.6915C100.905 81.7322 100.834 81.7627 100.752 81.8034C100.147 82.0833 99.5004 82.3886 98.8237 82.7092C96.7986 83.6657 94.4682 84.7953 91.8375 86.0877C83.6506 90.1431 72.5837 95.908 58.8251 103.734L25.3445 40.6956C25.3445 40.6956 44.1302 28.9214 64.1423 19.1367H64.1575C64.7172 18.862 65.2668 18.5974 65.8265 18.3226C66.7882 17.8596 67.7498 17.4118 68.6962 16.959C69.775 16.4451 70.8537 15.9515 71.9324 15.4681C73.0263 14.9746 74.3086 15.4071 74.8886 16.4603L76.1861 18.8111V18.8264L76.2167 18.8772L108.278 76.9747C108.278 76.9747 108.293 77.0052 108.318 77.0663C108.344 77.1325 108.379 77.2037 108.395 77.28C108.542 77.7278 108.756 78.6538 108.405 79.5443Z" fill="#334552"/>
<path opacity="0.7" d="M108.405 79.5443L106.654 84.0067C108.725 78.3588 103.958 80.3483 103.566 80.5162C102.874 80.8266 102.116 81.1726 101.302 81.544C101.19 81.5949 101.088 81.6458 100.976 81.6916C100.905 81.7323 100.833 81.7628 100.752 81.8035C100.147 82.0834 99.5003 82.3887 98.8236 82.7092C95.5417 59.7104 77.0765 20.6938 76.2166 18.8773L108.278 76.9748C108.278 76.9748 108.293 77.0053 108.318 77.0664C108.344 77.1325 108.379 77.2038 108.395 77.2801C108.542 77.7278 108.756 78.6539 108.405 79.5443Z" fill="#ED4163"/>
</g>
<defs>
<clipPath id="clip0_4734_3451">
<rect width="173" height="173" fill="white" transform="translate(0.5)"/>
</clipPath>
</defs>
</svg>
