<svg width="200" height="200" viewBox="0 0 200 200" fill="none" xmlns="http://www.w3.org/2000/svg">
<g clip-path="url(#clip0_779_4285)">
<path d="M174.795 80.5958C174.795 80.5958 167.781 86.7492 155.461 90.1625C155.461 90.1625 155.455 90.1625 155.441 90.1625C143.555 94.6359 129.101 90.1625 119.095 79.1025C118.661 78.6225 118.235 78.1292 117.815 77.6292C116.501 76.0358 115.275 74.3292 114.148 72.4892C113.915 72.1158 113.695 71.7492 113.488 71.3692C110.555 66.2292 108.775 60.8025 108.115 55.4692C106.535 42.8758 111.141 30.8425 121.168 24.7158C121.168 24.7158 132.235 14.5092 148.561 13.4092L149.115 14.8425L153.695 26.5758C158.788 29.8625 163.361 34.4758 166.888 40.2292C173.341 50.7758 174.748 62.7492 171.641 72.5425L172.275 74.1558L172.695 75.2425L174.575 80.0292L174.788 80.5892L174.795 80.5958Z" fill="#263742"/>
<path d="M183.215 37.1289C191.422 55.9022 185.402 76.6622 169.762 83.5022C154.122 90.3422 134.788 80.6689 126.582 61.9022C118.375 43.1289 124.395 22.3689 140.035 15.5289C155.675 8.6889 175.008 18.3622 183.215 37.1289Z" fill="#263742"/>
<path d="M172.422 41.8488C176.795 51.8488 173.582 62.9088 165.248 66.5555C156.915 70.2021 146.615 65.0488 142.242 55.0488C137.868 45.0488 141.082 33.9888 149.415 30.3421C157.748 26.6955 168.048 31.8488 172.422 41.8488Z" fill="#334552"/>
<path d="M144.768 53.9489C147.988 61.3022 154.988 65.5622 161.402 64.5355C162.375 64.3822 163.328 64.1089 164.262 63.7022C171.322 60.6155 174.042 51.2422 170.335 42.7755C166.628 34.3089 157.902 29.9422 150.842 33.0289C149.908 33.4355 149.055 33.9489 148.282 34.5555C143.182 38.5689 141.548 46.5955 144.768 53.9489Z" fill="#0C1D29"/>
<path d="M144.767 53.949C147.147 59.3956 151.6 63.1423 156.347 64.309C158.02 64.7156 159.727 64.8156 161.387 64.5423C161.84 64.409 162.294 64.2423 162.727 64.0556C169.667 61.029 172.334 51.8156 168.694 43.489C165.06 35.169 156.48 30.8756 149.547 33.909C149.1 34.1023 148.674 34.3156 148.267 34.569C146.947 35.609 145.854 36.9223 145.027 38.4156C142.647 42.689 142.374 48.509 144.754 53.9623L144.767 53.949Z" fill="#334552"/>
<path d="M144.768 53.9494C147.148 59.3961 151.602 63.1427 156.348 64.3094C158.088 64.4294 159.842 64.1494 161.488 63.4228C167.975 60.5894 170.475 51.9828 167.068 44.2028C163.662 36.4228 155.648 32.4094 149.168 35.2428C147.522 35.9628 146.142 37.0494 145.035 38.4094C142.655 42.6828 142.382 48.5028 144.762 53.9561L144.768 53.9494Z" fill="#263742"/>
<path d="M166.061 44.6363C169.147 51.6963 166.881 59.503 161.001 62.0763C155.121 64.6496 147.847 61.0096 144.761 53.9496C141.674 46.8896 143.941 39.083 149.821 36.5096C155.701 33.9363 162.974 37.5763 166.061 44.6363Z" fill="black"/>
<path d="M151.36 35.9891C151.36 35.9891 151.88 36.4958 152.147 37.9891C152.42 39.5158 153.674 42.7491 153.674 42.7491C153.674 42.7491 157.274 41.2224 157.54 39.5491C157.794 37.8824 156.714 36.0824 156.714 36.0824C157.507 36.2958 158.294 36.6024 159.054 36.9891C159.174 37.5358 159.367 38.6024 159.26 39.0424C159.107 39.6558 157.34 45.0358 157.34 45.0358L158.107 46.0091C158.107 46.0091 161.194 46.5224 162.98 45.3158C164.74 44.1291 164.087 41.3158 164.074 41.2358C164.84 42.2491 165.527 43.3891 166.06 44.6224C166.514 45.6491 166.834 46.6891 167.067 47.7291C166.634 47.5224 164.994 46.7958 163.614 46.9958C162.007 47.2291 159.64 49.8024 159.64 49.8024L159.46 51.1491C159.46 51.1491 160.887 51.7891 162.974 52.9358C164.447 53.7491 165.934 55.0024 166.687 55.6691C166.407 56.4891 166.04 57.2558 165.6 57.9758C165.274 57.1158 164.234 55.2691 163.46 55.1758C162.54 55.0758 159.02 54.9224 159.02 54.9224L158.66 55.4358L161.74 61.6891C161.494 61.8158 161.247 61.9424 160.987 62.0558C160.72 62.1758 160.447 62.2691 160.187 62.3624C158.847 59.9291 155.12 58.5891 155.12 58.5891C155.12 58.5891 154.967 61.4158 154.914 62.6691C154.087 62.5091 153.267 62.2491 152.474 61.9024L150.794 58.2358L149.054 59.7558C148.294 59.1091 147.58 58.3758 146.927 57.5558L147.1 55.1091H145.334C145.127 54.7358 144.94 54.3424 144.774 53.9491C144.46 53.2291 144.214 52.5158 144.007 51.7891L145.654 50.3891L143.48 49.0424C143.367 47.9358 143.38 46.8491 143.5 45.7891L145.994 45.5158C145.72 43.6291 144.967 42.4024 144.567 41.8624C144.867 41.1958 145.227 40.5758 145.634 39.9958C146.607 40.6691 149.32 43.4758 149.32 43.4758C149.32 43.4758 150.06 39.8558 150.134 38.3891C150.2 36.9291 149.854 36.5024 149.854 36.5024C150.36 36.2824 150.867 36.1091 151.387 35.9824L151.36 35.9891Z" fill="#263742"/>
<path d="M159.514 47.4893C161.261 51.4893 159.981 55.9093 156.647 57.3693C153.314 58.8293 149.194 56.7693 147.447 52.7693C145.701 48.7693 146.981 44.3493 150.314 42.8893C153.647 41.4293 157.767 43.4893 159.514 47.4893Z" fill="#334552"/>
<path d="M156.881 48.6427C157.468 49.9827 157.041 51.4627 155.921 51.9493C154.801 52.436 153.428 51.7493 152.841 50.4093C152.255 49.0693 152.681 47.5893 153.801 47.1027C154.921 46.616 156.295 47.3027 156.881 48.6427Z" fill="#0C1D29"/>
<path d="M141.962 22.4824L143.889 25.1624H143.895C135.002 31.4358 132.029 44.8824 137.395 57.1824C139.995 63.1291 144.129 67.8291 148.909 70.8358L147.529 73.4558C142.282 70.0758 137.742 64.8691 134.862 58.2891C128.862 44.5758 132.129 29.5824 141.962 22.4824Z" fill="#0C1D29"/>
<path d="M173.648 70.049C181.501 63.4157 183.915 50.7224 178.808 39.0624C176.368 33.4757 172.581 28.9957 168.168 25.9824L169.381 23.249C174.341 26.6357 178.608 31.669 181.355 37.9624C187.095 51.1024 184.341 65.4224 175.448 72.8357L173.648 70.0557V70.049Z" fill="#0C1D29"/>
<path d="M146.615 124.856C145.815 131.289 144.055 137.809 141.308 144.156C140.208 146.716 138.942 149.243 137.522 151.736C137.162 152.376 136.788 153.009 136.402 153.636C133.902 157.716 131.095 161.463 128.022 164.843C111.108 183.536 86.6616 191.109 66.5416 183.549C66.5416 183.549 66.5283 183.543 66.5149 183.543C45.6683 177.776 33.7949 167.356 33.7949 167.356L34.1683 166.403L39.1083 153.736C33.8616 137.163 36.2483 116.916 47.1616 99.0626C53.1149 89.3293 60.8683 81.5159 69.4683 75.9626L77.2282 56.1159L78.1683 53.6826C105.788 55.536 124.528 72.8026 124.528 72.8026C141.475 83.1759 149.282 103.529 146.615 124.856Z" fill="#263742"/>
<path d="M101.674 149.742L37.3341 158.309L34.1741 166.409L33.8008 167.356C33.8008 167.356 45.6674 177.776 66.5208 183.542H66.5408C76.3208 187.222 87.1208 187.322 97.5875 184.309C113.614 179.696 116.141 158.029 101.674 149.742Z" fill="#0C1D29"/>
<path d="M124.521 72.8163C124.521 72.8163 105.787 55.543 78.1674 53.6963L77.2207 56.123C99.794 61.883 116.601 74.4896 120.427 97.4763C122.681 111.03 132.774 121.93 146.214 124.79L146.607 124.876C149.281 103.55 141.467 83.1963 124.521 72.823V72.8163Z" fill="#334552"/>
<path d="M92.6019 57.2828C119.069 68.8561 129.262 103.983 115.375 135.736C101.489 167.489 68.7752 183.849 42.3152 172.276C15.8485 160.703 5.65519 125.576 19.5419 93.8228C33.4285 62.0694 66.1419 45.7094 92.6019 57.2828Z" fill="#263742"/>
<path d="M76.7471 82.3363C90.8471 88.503 96.2804 107.223 88.8804 124.143C81.4804 141.063 64.0471 149.783 49.9471 143.616C35.8471 137.45 30.4137 118.73 37.8137 101.81C45.2137 84.8896 62.6471 76.1696 76.7471 82.3363Z" fill="#334552"/>
<path d="M84.6214 122.269C79.1748 134.723 67.3214 141.923 56.4881 140.183C54.8481 139.929 53.2281 139.456 51.6614 138.769C39.7148 133.549 35.1148 117.689 41.3814 103.363C47.6481 89.036 62.4081 81.6426 74.3548 86.8693C75.9281 87.5626 77.3748 88.4293 78.6881 89.4626C87.3214 96.2493 90.0814 109.829 84.6348 122.276L84.6214 122.269Z" fill="#3C8725"/>
<path d="M84.6209 122.269C80.5875 131.476 73.0609 137.816 65.0209 139.789C62.1942 140.483 59.3009 140.636 56.4809 140.183C55.7142 139.949 54.9542 139.676 54.2142 139.356C42.4742 134.229 37.9475 118.643 44.1209 104.556C50.2809 90.4761 64.7809 83.2161 76.5209 88.3428C77.2742 88.6761 77.9875 89.0428 78.6809 89.4494C80.9142 91.2094 82.7609 93.4228 84.1742 95.9628C88.1942 103.196 88.6609 113.049 84.6275 122.263L84.6209 122.269Z" fill="#0C1D29"/>
<path d="M84.6205 122.269C80.5872 131.476 73.0605 137.816 65.0205 139.789C62.0672 139.982 59.1072 139.516 56.3272 138.296C45.3539 133.502 41.1205 118.936 46.8805 105.776C52.6405 92.6089 66.2005 85.8223 77.1739 90.6223C79.9539 91.8423 82.3005 93.6889 84.1739 95.9756C88.1939 103.209 88.6605 113.062 84.6272 122.276L84.6205 122.269Z" fill="#69E244"/>
<path d="M76.0552 92.7759C86.0086 97.1292 89.8419 110.336 84.6219 122.283C79.4019 134.229 67.0952 140.383 57.1419 136.029C47.1886 131.676 43.3552 118.469 48.5752 106.523C53.7952 94.5759 66.1019 88.4226 76.0552 92.7759Z" fill="#0C1D29"/>
<path d="M73.4405 91.8826C73.4405 91.8826 72.5605 92.7293 72.1072 95.2626C71.6472 97.8493 69.5205 103.316 69.5205 103.316C69.5205 103.316 63.4205 100.729 62.9872 97.9026C62.5539 95.0893 64.3872 92.0426 64.3872 92.0426C63.0405 92.4093 61.7139 92.9293 60.4339 93.576C60.2405 94.5093 59.8939 96.296 60.0939 97.056C60.3472 98.0893 63.3472 107.196 63.3472 107.196L62.0405 108.836C62.0405 108.836 56.8072 109.696 53.7872 107.669C50.8072 105.669 51.9005 100.903 51.9339 100.776C50.6272 102.489 49.4872 104.409 48.5739 106.509C47.8139 108.243 47.2539 110.009 46.8672 111.756C47.6072 111.409 50.3805 110.176 52.7139 110.509C55.4339 110.903 59.4472 115.256 59.4472 115.256L59.7472 117.543C59.7472 117.543 57.3339 118.616 53.7939 120.563C51.2939 121.936 48.7739 124.056 47.5139 125.189C47.9939 126.569 48.6139 127.876 49.3472 129.089C49.8939 127.623 51.6605 124.509 52.9739 124.363C54.5272 124.189 60.4805 123.929 60.4805 123.929L61.0872 124.789L55.8739 135.376C56.2805 135.596 56.7005 135.809 57.1472 136.009C57.6005 136.203 58.0539 136.376 58.5072 136.529C60.7672 132.416 67.0939 130.149 67.0939 130.149C67.0939 130.149 67.3605 134.929 67.4405 137.056C68.8405 136.783 70.2205 136.349 71.5805 135.756L74.4339 129.543L77.3805 132.123C78.6672 131.029 79.8805 129.783 80.9805 128.396L80.6872 124.249H83.6739C84.0139 123.609 84.3339 122.949 84.6272 122.276C85.1539 121.076 85.5805 119.849 85.9339 118.623L83.1405 116.256L86.8205 113.976C87.0072 112.109 87.0005 110.256 86.7939 108.469L82.5872 108.009C83.0539 104.829 84.3272 102.736 84.9939 101.823C84.4872 100.703 83.8872 99.6493 83.1939 98.656C81.5472 99.8026 76.9539 104.543 76.9539 104.543C76.9539 104.543 75.6939 98.416 75.5805 95.9426C75.4672 93.4693 76.0672 92.7626 76.0672 92.7626C75.2139 92.3893 74.3405 92.096 73.4672 91.876L73.4405 91.8826Z" fill="#3C8725"/>
<path d="M75.2218 103.576C80.8618 106.043 83.0352 113.53 80.0752 120.296C77.1152 127.063 70.1485 130.55 64.5085 128.083C58.8685 125.616 56.6952 118.13 59.6552 111.363C62.6152 104.596 69.5818 101.11 75.2218 103.576Z" fill="#69E244"/>
<path d="M69.3085 110.715C71.1885 111.535 71.9152 114.042 70.9285 116.302C69.9419 118.562 67.6085 119.729 65.7285 118.909C63.8485 118.089 63.1219 115.582 64.1085 113.322C65.0952 111.062 67.4285 109.895 69.3085 110.715Z" fill="#3C8725"/>
<path d="M89.3674 69.0223L86.1074 73.5556H86.0874C101.141 84.1623 106.174 106.929 97.0808 127.722C92.6808 137.789 85.6874 145.736 77.6074 150.822L79.9541 155.249C88.8341 149.522 96.5141 140.716 101.381 129.596C111.527 106.402 106.007 81.0223 89.3541 69.0156L89.3674 69.0223Z" fill="#334552"/>
<path d="M35.7406 149.51C22.4606 138.296 18.3739 116.803 27.0006 97.0829C31.1339 87.6296 37.5472 80.0496 45.0072 74.9362L42.9606 70.3096C34.5739 76.0429 27.3539 84.5696 22.7006 95.1896C12.9806 117.416 17.6406 141.656 32.7006 154.203L35.7406 149.51Z" fill="#334552"/>
</g>
<defs>
<clipPath id="clip0_779_4285">
<rect width="200" height="200" fill="white"/>
</clipPath>
</defs>
</svg>
