<svg width="23" height="14" viewBox="0 0 23 14" fill="none" xmlns="http://www.w3.org/2000/svg">
<path d="M4.28711 0.0231965C3.94311 0.0779215 3.61957 0.221761 3.34887 0.440328C3.07818 0.658894 2.86984 0.94451 2.7447 1.26858C2.61063 1.65651 0.0158414 12.6545 0.00397673 12.8591C-0.0189024 13.1187 0.0575337 13.3773 0.217952 13.5831C0.378371 13.7888 0.610906 13.9265 0.868908 13.9685C1.07535 14.0099 18.4974 14.0111 18.7157 13.9685C19.0335 13.9024 19.3303 13.7602 19.5807 13.5541C19.831 13.348 20.0272 13.0844 20.1525 12.7858C20.2391 12.5599 22.9063 1.34309 22.9181 1.15622C22.9362 0.904519 22.8646 0.654532 22.716 0.45029C22.5673 0.246047 22.3511 0.100655 22.1054 0.0397453C21.9868 0.00544677 4.56593 -0.0181957 4.28711 0.0184682V0.0231965ZM7.38615 1.72984C7.37472 1.7946 7.35926 1.85859 7.33988 1.92144C7.03133 2.90259 6.81291 3.90968 6.68732 4.93025C6.81546 5.53344 7.67564 5.48376 7.99243 4.8581C8.08141 4.68543 8.74109 1.89188 8.74109 1.69555C8.74109 1.68609 9.77331 1.69554 9.7828 1.70973C9.78065 1.73927 9.77425 1.76834 9.76382 1.79607C9.75195 1.84101 9.58466 2.49032 9.39364 3.2437C8.98313 4.86874 8.92974 5.03433 8.71499 5.35011C8.01141 6.39326 5.66815 6.36015 5.47713 5.30517C5.62064 4.09289 5.8498 2.89221 6.1629 1.7121C6.57156 1.68091 6.98222 1.68725 7.38971 1.73103L7.38615 1.72984ZM10.0521 6.67947C10.7545 6.83322 10.9681 7.40211 10.6454 8.23829C10.3226 9.07446 9.63805 9.45411 8.43261 9.45411C8.06955 9.45411 8.09684 9.39851 7.86192 10.541C7.81802 10.7586 7.77531 10.9597 7.76819 10.9857C7.409 11.0605 7.0382 11.0605 6.67902 10.9857C7.59497 7.04611 7.66734 6.70785 7.67446 6.67947L7.68632 6.62744L8.78855 6.63453C9.21028 6.61975 9.63253 6.63476 10.0521 6.67947ZM13.5771 3.24962C13.7242 3.28747 13.8429 3.40455 13.8429 3.50863C13.8429 3.88946 13.0622 4.15202 12.7751 3.86344C12.4879 3.57486 13.0741 3.11834 13.5771 3.24489V3.24962ZM10.8684 3.53938C10.8668 3.58447 10.8605 3.62928 10.8494 3.67303L10.8305 3.73571L11.0144 3.64228C11.4996 3.39628 11.9742 3.43886 12.1308 3.74518C12.2269 3.92732 12.2151 4.0373 11.9706 5.17625C11.9267 5.38204 11.8698 5.65525 11.852 5.78417C11.7986 6.09286 11.8378 6.07156 11.292 6.08102C10.8257 6.08812 10.8257 6.08812 10.8305 6.03608C10.8305 6.01006 10.8886 5.75815 10.9491 5.47548C11.1983 4.38384 11.203 4.22891 10.9894 4.22891C10.8708 4.22891 10.6999 4.30104 10.6893 4.35545C10.6655 4.46071 10.3879 5.79363 10.363 5.92373L10.3345 6.06328L9.85992 6.07985C9.27974 6.09877 9.32127 6.14489 9.44941 5.61504C9.61314 4.94208 9.71043 4.46426 9.77569 4.0444C9.84806 3.58196 9.79942 3.63282 10.2348 3.56304C10.433 3.53229 10.6359 3.49799 10.6869 3.48379C10.8399 3.44358 10.8708 3.45304 10.8684 3.53465V3.53938ZM18.1189 3.52756C18.1167 3.5726 18.1104 3.61734 18.0999 3.66121L18.0809 3.73807L18.2648 3.64464C19.214 3.15146 19.5818 3.5583 19.3018 4.80133C19.2389 5.084 19.157 5.47193 19.1226 5.66589C19.1033 5.79447 19.0728 5.92112 19.0313 6.04437C18.7173 6.09906 18.3961 6.09906 18.0821 6.04437C18.0821 6.01835 18.1379 5.77116 18.2008 5.49559C18.457 4.38029 18.4594 4.23481 18.2352 4.23244C18.056 4.23244 17.9552 4.29276 17.9255 4.42641C17.8852 4.59199 17.655 5.70256 17.6158 5.90362L17.5862 6.06684L17.1116 6.08102C16.529 6.09758 16.5753 6.15554 16.7129 5.58548C16.8601 4.97993 16.9787 4.40276 17.0416 3.98645C17.0997 3.59142 17.0582 3.63164 17.4379 3.57724C17.6099 3.54886 17.8152 3.51456 17.8923 3.49563C18.0857 3.45306 18.1296 3.45778 18.1236 3.53111L18.1189 3.52756ZM14.4563 8.45116C14.512 9.39142 14.531 9.66464 14.5405 9.67646C14.6504 9.50582 14.748 9.32756 14.8324 9.14306C15.1432 8.52805 15.0697 8.59546 15.4149 8.5517C15.5051 8.53751 15.6878 8.50557 15.8207 8.47955C16.1541 8.41214 16.1565 8.38849 15.7697 9.05672C15.2477 9.96149 14.5275 11.2329 14.2736 11.6965C13.4976 13.1229 13.5024 13.1158 12.8356 13.13L12.444 13.1394L12.4784 13.0211C12.4974 12.9596 12.5342 12.8319 12.5627 12.7385L12.6137 12.5705H12.7324C12.8724 12.5705 12.8973 12.5469 13.0278 12.3245C13.0741 12.2477 13.1464 12.1258 13.1868 12.0561C13.2271 11.9863 13.3778 11.7308 13.513 11.4895L13.7622 11.0543L13.6969 10.4843C13.6222 9.82075 13.5237 9.0508 13.4846 8.81071C13.449 8.60019 13.449 8.60256 13.7219 8.55999C13.8405 8.54106 14.0363 8.50558 14.1502 8.48074C14.3946 8.4287 14.4349 8.42397 14.4515 8.45236L14.4563 8.45116ZM15.88 3.52992C17.0594 3.74754 16.6453 5.8019 15.3651 6.08811C14.4978 6.28208 13.9034 5.94975 13.9034 5.2697C13.8797 5.01403 13.9168 4.75638 14.0117 4.51771C14.1067 4.27903 14.2568 4.06604 14.4499 3.89607C14.6429 3.7261 14.8735 3.60393 15.1228 3.53949C15.3721 3.47504 15.6332 3.47015 15.8848 3.52519L15.88 3.52992ZM11.7274 8.53277C11.799 8.56689 11.8638 8.61379 11.9184 8.67115C11.9884 8.7504 11.9932 8.75276 12.0003 8.70427C12.0074 8.65578 12.0003 8.64631 12.6113 8.54578C13.1061 8.46654 13.0859 8.46418 13.0491 8.61321C12.8439 9.47422 12.679 10.2217 12.6137 10.586C12.514 11.1336 12.5876 11.0744 11.9932 11.0673L11.4949 11.0602L11.502 10.9952C11.5091 10.9325 11.4771 10.9088 11.4486 10.955C11.2766 11.2329 10.4555 11.1158 10.2254 10.7823C9.6428 9.93193 10.8518 8.12237 11.7286 8.53514L11.7274 8.53277ZM13.7041 4.03258C13.7075 4.08184 13.701 4.13129 13.6851 4.17805C13.5664 4.66887 13.3446 5.65761 13.3102 5.84329L13.2686 6.06564L12.7679 6.07985C12.1664 6.09641 12.2032 6.12479 12.323 5.76407C12.4485 5.35782 12.5429 4.94268 12.6054 4.52222C12.6635 4.13193 12.6054 4.18752 13.0408 4.12247C13.2437 4.09172 13.4513 4.05742 13.5024 4.04559C13.6198 4.01365 13.6875 4.00892 13.7076 4.02785L13.7041 4.03258ZM8.43735 8.01593L8.27125 8.74567L8.50261 8.75276C9.67246 8.78588 10.1637 7.42458 9.02228 7.33351C8.84312 7.31932 8.67465 7.30277 8.64973 7.29804C8.60583 7.28857 8.59159 7.34297 8.43735 8.0183V8.01593ZM15.2927 4.11299C14.9961 4.23126 14.7315 5.33592 14.9546 5.5086C15.1219 5.63988 15.3651 5.42225 15.4814 5.0355C15.7044 4.31287 15.6309 3.96753 15.2975 4.10709L15.2927 4.11299ZM11.4581 9.13714C11.1532 9.29089 10.9171 10.3766 11.1591 10.502C11.4688 10.6628 11.8544 10.0857 11.8544 9.45767C11.8544 9.15844 11.6859 9.02241 11.4581 9.13714Z" fill="white"/>
</svg>
