<svg width="15" height="14" viewBox="0 0 15 14" fill="none" xmlns="http://www.w3.org/2000/svg">
<rect x="0.5" width="14" height="14" rx="2" fill="white"/>
<path d="M2.73621 8.58139C2.60936 9.09322 2.94787 10.3123 5.06081 10.3123C6.32931 10.3123 7.59782 9.56522 8.61262 8.34613C7.17449 7.67722 5.99154 7.3623 4.63822 7.3623C3.45453 7.40139 2.86232 8.0703 2.73547 8.58139H2.73621Z" fill="#1475E1"/>
<path d="M9.30059 9.12881C8.07265 10.6023 6.80415 11.5036 4.88075 11.5036C2.95587 11.5036 1.68737 10.3162 1.85109 8.88322C1.93222 7.94217 2.58786 6.38604 5.41175 6.63163C6.88601 6.75406 7.58147 7.04094 8.81015 7.45025C9.13686 6.87722 9.38319 6.22232 9.58748 5.56742H4.18381V5.03494H6.84471V4.09536H3.61077V3.48103H6.84471V2.08862C6.84471 2.08862 6.88601 1.8836 7.13234 1.8836H8.48196V3.48029H11.9209V4.05333H8.4414V4.99438H11.266C11.0347 6.00328 10.6481 6.97011 10.12 7.8603C10.8154 8.10515 13.6814 8.95825 14.5 9.20383V2C14.5 0.895434 13.6046 1.44104e-06 12.5 3.21865e-06L2.5 1.93119e-05C1.39544 2.10895e-05 0.50001 0.89545 0.500009 2.00002L0.500001 12C0.500001 13.1046 1.39543 14 2.5 14H12.5C13.6046 14 14.5 13.1046 14.5 12V11.4333C14.5 11.4333 10.693 9.78371 9.30059 9.12807V9.12881Z" fill="#1475E1"/>
</svg>
