<svg width="16" height="16" viewBox="0 0 16 16" fill="none" xmlns="http://www.w3.org/2000/svg">
<g clip-path="url(#clip0_2244_319)">
<path d="M7.57523 9.14085C7.74398 8.9721 8.0346 8.9721 8.20335 9.14085L10.6096 11.5471C11.0534 11.9909 11.644 12.2346 12.269 12.2346H12.7409L9.70648 15.269C8.7596 16.1909 7.2221 16.1909 6.27523 15.269L3.22835 12.2252H3.51898C4.14398 12.2252 4.7346 11.9815 5.17835 11.5377L7.57523 9.14085ZM8.20335 6.84085C8.00335 7.01273 7.7471 7.01585 7.57523 6.84085L5.17835 4.44398C4.7346 3.9721 4.14398 3.75648 3.51898 3.75648H3.22835L6.2721 0.711479C7.2221 -0.236834 8.7596 -0.236834 9.70648 0.711479L12.744 3.7471H12.269C11.644 3.7471 11.0534 3.99085 10.6096 4.4346L8.20335 6.84085ZM3.51898 4.4596C3.95023 4.4596 4.3471 4.6346 4.67835 4.94085L7.07523 7.33773C7.30023 7.5346 7.59398 7.67523 7.89085 7.67523C8.1846 7.67523 8.47835 7.5346 8.70335 7.33773L11.1096 4.93148C11.4159 4.62835 11.8377 4.45335 12.269 4.45335H13.4471L15.269 6.27523C16.2159 7.2221 16.2159 8.7596 15.269 9.70648L13.4471 11.5284H12.269C11.8377 11.5284 11.4159 11.3534 11.1096 11.0471L8.70335 8.64085C8.26898 8.20648 7.5096 8.20648 7.07523 8.64398L4.67835 11.0377C4.3471 11.344 3.95023 11.519 3.51898 11.519H2.5246L0.711479 9.70648C-0.236834 8.7596 -0.236834 7.2221 0.711479 6.27523L2.5246 4.4596H3.51898Z" fill="white"/>
</g>
<defs>
<clipPath id="clip0_2244_319">
<rect width="16" height="16" fill="white"/>
</clipPath>
</defs>
</svg>
