<svg width="28" height="28" viewBox="0 0 28 28" fill="none" xmlns="http://www.w3.org/2000/svg">
<path d="M20.8548 20.4925C20.3821 20.4936 19.9139 20.401 19.4772 20.2202C19.0405 20.0394 18.6439 19.7739 18.3103 19.439L14.6353 15.764C14.5052 15.6405 14.3326 15.5715 14.1531 15.5715C13.9737 15.5715 13.8011 15.6405 13.671 15.764L9.98201 19.453C9.64853 19.7881 9.25196 20.0537 8.81521 20.2345C8.37847 20.4153 7.91021 20.5078 7.43751 20.5065H6.71301L11.368 25.1615C12.8205 26.614 15.1778 26.614 16.6303 25.1615L21.2975 20.4925H20.8548ZM7.43751 7.49355C8.40001 7.49355 9.30301 7.86804 9.98201 8.54704L13.671 12.236C13.7344 12.2995 13.8097 12.3499 13.8926 12.3843C13.9754 12.4187 14.0643 12.4363 14.154 12.4363C14.2437 12.4363 14.3326 12.4187 14.4155 12.3843C14.4983 12.3499 14.5736 12.2995 14.637 12.236L18.312 8.56105C18.6453 8.22624 19.0416 7.96076 19.478 7.77994C19.9144 7.59912 20.3824 7.50654 20.8548 7.50755H21.2975L16.6303 2.8403C15.9323 2.14279 14.9859 1.75098 13.9991 1.75098C13.0124 1.75098 12.066 2.14279 11.368 2.8403L6.71301 7.4953L7.43751 7.49355Z" fill="#32BCAD"/>
<path d="M25.1597 11.3679L22.3387 8.54692C22.2754 8.57292 22.2077 8.58658 22.1392 8.58717H20.8565C20.1932 8.58717 19.544 8.85667 19.0767 9.32567L15.4017 13.0007C15.2383 13.165 15.044 13.2953 14.83 13.3843C14.616 13.4733 14.3866 13.5191 14.1549 13.5191C13.9231 13.5191 13.6937 13.4733 13.4797 13.3843C13.2657 13.2953 13.0714 13.165 12.908 13.0007L9.21898 9.30992C8.74569 8.83857 8.10544 8.57316 7.43748 8.57142H5.86248C5.79719 8.5709 5.73254 8.55844 5.67173 8.53467L2.84023 11.3679C1.38773 12.8204 1.38773 15.1777 2.84023 16.6319L5.67173 19.4634C5.73187 19.4392 5.79591 19.4262 5.86073 19.4249H7.43748C8.10248 19.4249 8.74998 19.1572 9.21898 18.6882L12.9062 14.9974C13.2427 14.6771 13.6894 14.4984 14.154 14.4984C14.6185 14.4984 15.0653 14.6771 15.4017 14.9974L19.0767 18.6724C19.544 19.1414 20.1932 19.4092 20.8565 19.4092H22.1392C22.2092 19.4092 22.2775 19.4267 22.3387 19.4512L25.1597 16.6302C26.6122 15.1777 26.6122 12.8204 25.1597 11.3679Z" fill="#32BCAD"/>
</svg>
