<svg width="15" height="14" viewBox="0 0 15 14" fill="none" xmlns="http://www.w3.org/2000/svg">
<path fill-rule="evenodd" clip-rule="evenodd" d="M2.23328 1.41626H13.4327C14.2061 1.41626 14.833 2.04317 14.833 2.81653V9.30187H0.833008V2.81653C0.833008 2.04317 1.45991 1.41626 2.23328 1.41626ZM2.23328 12.5837C1.45991 12.5837 0.833008 11.9568 0.833008 11.1835V10.0022H14.833V11.1835C14.833 11.9568 14.2061 12.5837 13.4327 12.5837H2.23328ZM13.4821 3.51489H12.2735L11.2236 6.31544H12.4323L13.4821 3.51489ZM2.55566 5.61694H3.25512V6.49383H2.55566V5.61694ZM4.64965 5.61694H3.9502V6.49383H4.64965V5.61694ZM5.3584 5.61694H6.05922V6.49383H5.3584V5.61694ZM9.95283 3.51489H9.25201L8.20215 6.31544H8.90297L9.95283 3.51489ZM10.6329 3.51489H11.3323L10.2825 6.31544H9.58301L10.6329 3.51489Z" fill="white"/>
</svg>
