<svg width="15" height="14" viewBox="0 0 15 14" fill="none" xmlns="http://www.w3.org/2000/svg">
<rect x="0.166016" width="14" height="14" rx="2" fill="white"/>
<path fill-rule="evenodd" clip-rule="evenodd" d="M2.16603 0C1.06146 0 0.166031 0.895429 0.16603 2L0.166016 12C0.166013 13.1045 1.06144 14 2.16601 14L12.166 14C13.2706 14 14.166 13.1046 14.166 12V2C14.166 0.895431 13.2706 0 12.166 0H2.16603ZM5.78601 3.00001C3.79601 3.00001 2.16601 4.30601 2.16601 5.9635C2.16601 6.9205 2.70851 7.706 3.61451 8.315L3.25251 9.3635L4.51801 8.7525C4.58918 8.76609 4.65813 8.77973 4.72555 8.79307L4.72579 8.79311C5.08741 8.86465 5.40511 8.9275 5.78601 8.9275C5.89882 8.92712 6.01156 8.92245 6.12401 8.9135C6.05111 8.67698 6.01354 8.431 6.01251 8.1835C6.01251 6.662 7.37101 5.42651 9.09051 5.42651C9.20751 5.42651 9.32401 5.43501 9.43901 5.44701C9.12551 4.04301 7.56651 3.00001 5.78601 3.00001ZM4.61001 5.35301C4.33901 5.35301 4.06501 5.17801 4.06501 4.91701C4.06501 4.65451 4.33901 4.48201 4.61001 4.48201C4.88101 4.48201 5.06201 4.65451 5.06201 4.91701C5.06201 5.17801 4.88151 5.35301 4.61001 5.35301ZM7.14401 5.35301C6.87251 5.35301 6.60051 5.17801 6.60051 4.91701C6.60051 4.65451 6.87301 4.48201 7.14401 4.48201C7.41651 4.48201 7.59701 4.65451 7.59701 4.91701C7.59701 5.17801 7.41651 5.35301 7.14401 5.35301ZM12.1658 8.30101C12.1658 6.89601 10.7753 5.75001 9.21334 5.75001C7.55933 5.75001 6.25683 6.89601 6.25683 8.30101C6.25683 9.709 7.55933 10.853 9.21334 10.853C9.55934 10.853 9.90834 10.765 10.2563 10.6765L11.2098 11.2045L10.9483 10.3255C11.6458 9.79601 12.1658 9.09401 12.1658 8.30101ZM8.25484 7.86151C8.08184 7.86151 7.90683 7.68751 7.90683 7.51001C7.90683 7.33451 8.08134 7.15801 8.25484 7.15801C8.51784 7.15801 8.68984 7.33451 8.68984 7.51001C8.68984 7.68751 8.51784 7.86151 8.25484 7.86151ZM10.1668 7.86151C9.99484 7.86151 9.82134 7.68751 9.82134 7.51001C9.82134 7.33451 9.99484 7.15801 10.1668 7.15801C10.4273 7.15801 10.6018 7.33451 10.6018 7.51001C10.6018 7.68751 10.4273 7.86151 10.1668 7.86151Z" fill="#37AA4A"/>
</svg>
