<svg width="16" height="16" viewBox="0 0 16 16" fill="none" xmlns="http://www.w3.org/2000/svg">
<g clip-path="url(#clip0_6157_16814)">
<path d="M8 16C12.4183 16 16 12.4183 16 8C16 3.58167 12.4183 0 8 0C3.58167 0 0 3.58167 0 8C0 12.4183 3.58167 16 8 16Z" fill="#F0F0F0"/>
<path d="M15.5023 10.7827C15.8325 9.89212 16.001 8.94979 16 8.00001C16.001 7.05024 15.8325 6.10791 15.5023 5.21735H0.497671C0.167566 6.10791 -0.00096492 7.05024 4.15554e-06 8.00001C-0.00096492 8.94979 0.167566 9.89211 0.497671 10.7827L8 11.4783L15.5023 10.7827Z" fill="#0052B4"/>
<path d="M7.99989 16C11.4396 16 14.3719 13.829 15.5022 10.7827H0.497559C1.62789 13.829 4.56023 16 7.99989 16Z" fill="#D80027"/>
</g>
<defs>
<clipPath id="clip0_6157_16814">
<rect width="16" height="16" fill="white"/>
</clipPath>
</defs>
</svg>
