<svg fill="none" viewBox="0 0 96 96" class="svg-icon" style=""> <title></title> <path d="M48 96c26.51 0 48-21.49 48-48S74.51 0 48 0 0 21.49 0 48s21.49 48 48 48Z" fill="#F0F0F0"></path><path d="M9.922 18.777a47.826 47.826 0 0 0-8.268 16.702h24.97L9.923 18.777Zm84.424 16.702a47.829 47.829 0 0 0-8.269-16.702L69.376 35.479h24.97ZM1.654 60.522a47.83 47.83 0 0 0 8.268 16.702l16.702-16.702H1.654ZM77.223 9.923a47.828 47.828 0 0 0-16.701-8.27v24.971L77.223 9.923ZM18.777 86.077a47.828 47.828 0 0 0 16.701 8.27V69.375L18.777 86.077ZM35.478 1.654a47.83 47.83 0 0 0-16.701 8.268l16.701 16.702V1.654Zm25.044 92.692a47.83 47.83 0 0 0 16.701-8.269L60.522 69.376v24.97Zm8.854-33.824 16.701 16.702a47.827 47.827 0 0 0 8.27-16.702H69.375Z" fill="#0052B4"></path><path d="M95.594 41.74H54.26V.405a48.48 48.48 0 0 0-12.522 0V41.74H.406a48.48 48.48 0 0 0 0 12.522H41.74v41.333a48.478 48.478 0 0 0 12.522 0V54.26h41.333a48.478 48.478 0 0 0 0-12.522Z" fill="#D80027"></path><path d="m60.522 60.522 21.42 21.42a48.176 48.176 0 0 0 2.82-3.082L66.426 60.522h-5.903Zm-25.044 0-21.42 21.42a48.148 48.148 0 0 0 3.082 2.82l18.338-18.338v-5.902Zm0-25.043-21.42-21.42a48.148 48.148 0 0 0-2.82 3.081l18.338 18.338h5.902Zm25.044 0 21.42-21.42a48.114 48.114 0 0 0-3.082-2.821L60.522 29.576v5.903Z" fill="#D80027"></path></svg>