<svg width="16" height="16" viewBox="0 0 16 16" fill="none" xmlns="http://www.w3.org/2000/svg">
<g clip-path="url(#clip0_6157_16839)">
<path d="M8 16C12.4183 16 16 12.4183 16 8C16 3.58167 12.4183 0 8 0C3.58167 0 0 3.58167 0 8C0 12.4183 3.58167 16 8 16Z" fill="#F0F0F0"/>
<path d="M8.00011 0C4.82845 0 2.08795 1.84583 0.793945 4.52167H15.2063C13.9123 1.846 11.1718 0 8.00011 0Z" fill="#FF9811"/>
<path d="M8.00011 16C11.1718 16 13.9123 14.1542 15.2063 11.4783H0.793945C2.08795 14.154 4.82845 16 8.00011 16Z" fill="#6DA544"/>
<path d="M7.99995 10.7827C9.53662 10.7827 10.7826 9.53685 10.7826 8.00001C10.7826 6.46335 9.53678 5.21735 7.99995 5.21735C6.46328 5.21735 5.21729 6.46318 5.21729 8.00001C5.21729 9.53668 6.46312 10.7827 7.99995 10.7827Z" fill="#0052B4"/>
<path d="M7.99991 9.73914C8.96041 9.73914 9.73908 8.96047 9.73908 7.99997C9.73908 7.03947 8.96041 6.2608 7.99991 6.2608C7.03941 6.2608 6.26074 7.03947 6.26074 7.99997C6.26074 8.96047 7.03941 9.73914 7.99991 9.73914Z" fill="#F0F0F0"/>
<path d="M8.0001 5.85399L8.53677 7.07065L9.8586 6.92699L9.0731 7.99999L9.8586 9.07299L8.5366 8.92915L8.0001 10.1462L7.46343 8.92949L6.1416 9.07315L6.9271 7.99999L6.1416 6.92699L7.4636 7.07082L8.0001 5.85399Z" fill="#0052B4"/>
</g>
<defs>
<clipPath id="clip0_6157_16839">
<rect width="16" height="16" fill="white"/>
</clipPath>
</defs>
</svg>
