<svg fill="none" viewBox="0 0 96 96" class="svg-icon" style=""> <title></title> <path d="M48 96c26.51 0 48-21.49 48-48S74.51 0 48 0 0 21.49 0 48s21.49 48 48 48Z" fill="#6DA544"></path><path d="M48 18.783 87.652 48 48 77.217 8.348 48 48 18.783Z" fill="#FFDA44"></path><path d="M48 64.696c9.22 0 16.696-7.475 16.696-16.696 0-9.22-7.475-16.696-16.696-16.696-9.22 0-16.696 7.475-16.696 16.696 0 9.22 7.475 16.696 16.696 16.696Z" fill="#F0F0F0"></path><path d="M39.652 46.957c-2.903 0-5.705.441-8.342 1.26.117 9.12 7.542 16.479 16.69 16.479 5.657 0 10.652-2.816 13.672-7.12-5.167-6.467-13.117-10.62-22.02-10.62Zm24.734 4.242a16.78 16.78 0 0 0 .31-3.199c0-9.22-7.475-16.696-16.696-16.696-6.88 0-12.786 4.163-15.342 10.107a34.441 34.441 0 0 1 6.995-.715c9.696 0 18.469 4.03 24.733 10.503Z" fill="#0052B4"></path></svg>