<svg fill="none" viewBox="0 0 96 96" class="svg-icon" style=""> <title></title> <path d="M48 96c26.51 0 48-21.49 48-48S74.51 0 48 0 0 21.49 0 48s21.49 48 48 48Z" fill="#D80027"></path><path d="m26.269 29.212 4.144 12.75h13.406L32.98 49.856l4.144 12.75-10.856-7.875-10.856 7.875 4.162-12.75-10.856-7.894h13.406l4.144-12.75Zm30.637 45.132-3.169-3.9-4.687 1.819 2.719-4.22-3.169-3.918 4.856 1.294 2.738-4.219.262 5.025 4.875 1.294-4.706 1.8.281 5.025Zm6.3-11.438 1.5-4.8L60.6 55.2l5.025-.075 1.481-4.8 1.632 4.762 5.025-.056-4.032 3 1.613 4.763-4.106-2.906-4.032 3.018ZM71.7 35.231l-2.213 4.519 3.6 3.506-4.968-.712-2.213 4.5-.862-4.95-4.988-.713 4.463-2.343-.863-4.97 3.6 3.507 4.444-2.344ZM57.038 21.544l-.375 5.006 4.668 1.894-4.894 1.2-.356 5.025-2.644-4.275-4.893 1.2 3.244-3.844-2.663-4.256 4.669 1.893 3.244-3.843Z" fill="#FFDA44"></path></svg>