<svg fill="currentColor" viewBox="0 0 96 96" class="svg-icon" style=""> <title></title> <path fill-rule="evenodd" clip-rule="evenodd" d="M49.132 19.638h-.066c-11.862 0-22.017 7.311-26.268 17.865L7.363 24.228l.123-.231C15.763 9.654 31.258 0 49.01 0 61.2 0 72.322 4.551 80.73 12.003L66.763 25.967a27.606 27.606 0 0 0-17.632-6.329Zm17.632 6.33.044.036-.045-.036Zm-46.035 22.02v.027c.018 3.096.54 6.075 1.425 8.661l-15.66 13.5c-.045-.097-.098-.191-.15-.285a4.132 4.132 0 0 1-.15-.285l.126.273a48.081 48.081 0 0 1-5.226-21.873c0-7.875 1.884-15.306 5.1-21.6l.277-.523c.285-.538.589-1.112.893-1.652l15.435 13.275-.3.57.066-.198a28.545 28.545 0 0 0-1.836 10.11Zm74.175.015a40.44 40.44 0 0 0-1.137-9.006l.057.276h-44.73v18.555h25.74c-.852 4.392-2.922 8.202-5.838 11.178l.003-.003H69a21.589 21.589 0 0 1-3.857 3.144l-.087.051-.315.18c-4.284 2.532-9.444 4.026-14.95 4.026-.233 0-.467-.003-.698-.009h-.04c-12.101 0-22.43-7.59-26.483-18.27l-.066-.195c-.135-.39-.255-.78-.375-1.185l-15.66 13.5C14.617 85.668 30.553 96 48.904 96h.525A45.684 45.684 0 0 0 78.3 85.776l-.087.066.315-.25c.635-.503 1.279-1.012 1.845-1.565l.53-.515c.45-.438.876-.85 1.31-1.295l.03.03c7.755-8.174 12.66-19.724 12.66-34.244Z"></path></svg>
