<svg width="16" height="16" viewBox="0 0 16 16" fill="none" xmlns="http://www.w3.org/2000/svg">
<g id="normal_u43" clip-path="url(#clip0_1031_6181)">
<g id="Group">
<path id="Vector" d="M11.1533 4.29147L13.4923 1.99315C12.0672 0.772275 10.2401 0.0180664 8.19385 0.0180664C5.01663 0.0180664 2.28565 1.80595 0.977773 4.41874L3.68464 6.45241C4.30776 4.58978 6.08464 3.25039 8.19385 3.25039C9.32618 3.25039 10.3493 3.645 11.1533 4.29147ZM3.6029 6.53322L0.897371 4.49955C0.353786 5.58539 0.0715019 6.78435 0.0732503 7.99988C0.0732503 9.2578 0.369398 10.4443 0.896031 11.4975L3.60022 9.46049C3.44254 8.98981 3.36198 8.49652 3.36169 7.99988C3.36169 7.48675 3.44879 6.9945 3.6029 6.53322ZM8.19385 15.9817C10.1543 15.9817 12.0263 15.2969 13.432 14.0127L10.8632 12.0585C10.1389 12.5076 9.22635 12.7494 8.19318 12.7494C6.0833 12.7494 4.30709 11.41 3.6833 9.54736L0.977773 11.581C2.28498 14.1938 5.01596 15.9817 8.19385 15.9817ZM12.5858 9.61605C12.3707 10.6571 11.7838 11.4571 10.9443 11.9777L13.5124 13.9319C14.9885 12.5837 15.9486 10.5756 15.9486 7.99988C15.9486 7.53322 15.8749 7.03019 15.7657 6.62615H8.28096V9.61605H12.5858Z" fill="#D5DCEC"/>
</g>
</g>
<defs>
<clipPath id="clip0_1031_6181">
<rect width="16" height="16" fill="white"/>
</clipPath>
</defs>
</svg>
