<svg width="18" height="18" viewBox="0 0 18 18" fill="none" xmlns="http://www.w3.org/2000/svg">
<g id="&#233;&#161;&#181;&#233;&#157;&#162;-1">
<g id="&#228;&#184;&#170;&#228;&#186;&#186;">
<path id="&#232;&#183;&#175;&#229;&#190;&#132;" d="M13.71 10.5474C12.505 11.7534 10.8395 12.4999 9 12.4999C7.1605 12.4999 5.495 11.7539 4.29 10.5474C2.357 11.2534 1.0015 13.0754 1 15.2149V16.9999H17V15.2149C16.9985 13.0754 15.6435 11.2534 13.7445 10.5584L13.71 10.5474Z" fill="white"/>
<path id="&#232;&#183;&#175;&#229;&#190;&#132;_2" d="M13.9088 5.9075C13.9088 8.618 11.7118 10.815 9.00125 10.815C6.29075 10.815 4.09375 8.618 4.09375 5.9075C4.09375 3.197 6.29075 1 9.00125 1C9.00225 1 9.00275 1 9.00375 1C11.7127 1 13.9088 3.196 13.9088 5.905C13.9088 5.906 13.9088 5.9075 13.9088 5.9075Z" fill="white"/>
</g>
</g>
</svg>
