<svg width="18" height="18" viewBox="0 0 18 18" fill="none" xmlns="http://www.w3.org/2000/svg">
<g id="&#233;&#128;&#154;&#231;&#159;&#165;">
<path id="&#229;&#189;&#162;&#231;&#138;&#182;" d="M15.1065 10.513V13.1065H3V10.513H4.7265V6.553C4.736 4.478 6.2045 2.749 8.1585 2.338L8.1865 2.333V1.8665C8.1865 1.388 8.5745 1 9.053 1C9.5315 1 9.9195 1.388 9.9195 1.8665V2.333C11.908 2.75 13.3795 4.489 13.3795 6.572C13.3795 6.5725 13.3795 6.5725 13.3795 6.573V10.533L15.1065 10.513ZM9.053 16.9995C10.4855 16.9995 11.6465 15.8385 11.6465 14.406H6.46C6.46 15.8385 7.6205 16.9995 9.053 16.9995Z" fill="white"/>
</g>
</svg>
