<svg width="28" height="26" viewBox="0 0 28 26" fill="none" xmlns="http://www.w3.org/2000/svg">
<path d="M26.6667 3.66687H22.7324V15.4383C22.7324 17.0988 21.2198 18.4443 19.3532 18.4443H10.4922V25.4442H12.6779C12.8659 24.3771 13.86 23.5612 15.0796 23.4998H15.0866C16.3106 23.5636 17.3003 24.3786 17.4848 25.431L17.4866 25.4442H20.9838C21.1709 24.3763 22.1649 23.5597 23.3855 23.4998H23.3925C24.6252 23.5542 25.6263 24.3724 25.8125 25.431L25.8143 25.4442H28V4.83351C28 4.18953 27.4125 3.66687 26.6886 3.66687C26.6807 3.66687 26.6737 3.66687 26.6667 3.66687Z" fill="currentColor"/>
<path d="M18.3603 0.555817H1.31145C0.587528 0.555817 0 1.07847 0 1.72246V14.5555C0 15.1995 0.587528 15.7222 1.31145 15.7222H1.7486V19.9998L8.96156 15.7222H18.3603C19.0842 15.7222 19.6717 15.1995 19.6717 14.5555V1.72246C19.6717 1.07847 19.0842 0.555817 18.3603 0.555817Z" fill="currentColor"/>
</svg>
