<svg width="20" height="18" viewBox="0 0 20 18" fill="none" xmlns="http://www.w3.org/2000/svg">
<g id="Frame">
<g id="&#233;&#161;&#181;&#233;&#157;&#162;-1">
<g id="&#232;&#129;&#138;&#229;&#164;&#169;">
<path id="&#232;&#183;&#175;&#229;&#190;&#132;" d="M18.0551 3H15.5551V10.5675C15.5551 11.635 14.594 12.5 13.4079 12.5H7.77734V17H9.16623C9.28568 16.314 9.91734 15.7895 10.6923 15.75H10.6968C11.4746 15.791 12.1035 16.315 12.2207 16.9915L12.2218 17H14.444C14.5629 16.3135 15.1946 15.7885 15.9701 15.75H15.9746C16.7579 15.785 17.394 16.311 17.5123 16.9915L17.5135 17H18.9023V3.75C18.9023 3.336 18.529 3 18.069 3C18.064 3 18.0596 3 18.0551 3Z" fill="white"/>
<path id="&#232;&#183;&#175;&#229;&#190;&#132;_2" d="M12.776 1H1.94271C1.48271 1 1.10938 1.336 1.10938 1.75V10C1.10938 10.414 1.48271 10.75 1.94271 10.75H2.22049V13.5L6.80382 10.75H12.776C13.236 10.75 13.6094 10.414 13.6094 10V1.75C13.6094 1.336 13.236 1 12.776 1Z" fill="white"/>
</g>
</g>
</g>
</svg>
