<svg fill="currentColor" viewBox="0 0 64 64" class="svg-icon" style=""> <title></title> <path fill-rule="evenodd" clip-rule="evenodd" d="M2.998.025h38.97a2.998 2.998 0 0 1 2.997 2.998v32.974a2.998 2.998 0 0 1-2.998 2.998H20.484L3.997 49.986V38.995h-1A2.998 2.998 0 0 1 0 35.997V3.023A2.998 2.998 0 0 1 2.998.025ZM51.96 8.02h8.993A2.998 2.998 0 0 1 64 11.017v52.958h-4.996a5.885 5.885 0 0 0-5.535-4.996 5.886 5.886 0 0 0-5.506 4.996h-7.994a5.885 5.885 0 0 0-5.485-4.996 5.895 5.895 0 0 0-5.506 4.996h-4.996V45.99h20.254a7.724 7.724 0 0 0 7.724-7.724V8.02Z"></path></svg>
