<svg width="28" height="28" viewBox="0 0 28 28" fill="none" xmlns="http://www.w3.org/2000/svg">
<path d="M26.6667 4.66699H22.7324V16.4384C22.7324 18.0989 21.2198 19.4445 19.3532 19.4445H10.4922V26.4443H12.6779C12.8659 25.3772 13.86 24.5613 15.0796 24.4999H15.0866C16.3106 24.5637 17.3003 25.3788 17.4848 26.4311L17.4866 26.4443H20.9838C21.1709 25.3764 22.1649 24.5598 23.3855 24.4999H23.3925C24.6252 24.5543 25.6263 25.3725 25.8125 26.4311L25.8143 26.4443H28V5.83363C28 5.18965 27.4125 4.66699 26.6886 4.66699C26.6807 4.66699 26.6737 4.66699 26.6667 4.66699Z" fill="currentColor"/>
<path d="M18.3603 1.55566H1.31145C0.587528 1.55566 0 2.07832 0 2.72231V15.5554C0 16.1994 0.587528 16.722 1.31145 16.722H1.7486V20.9997L8.96156 16.722H18.3603C19.0842 16.722 19.6717 16.1994 19.6717 15.5554V2.72231C19.6717 2.07832 19.0842 1.55566 18.3603 1.55566Z" fill="currentColor"/>
</svg>
