<svg width="37" height="32" viewBox="0 0 37 32" fill="none" xmlns="http://www.w3.org/2000/svg">
<path fill-rule="evenodd" clip-rule="evenodd" d="M19.5558 0H2.5C1.39543 0 0.5 0.89543 0.5 2V28.96C0.5 30.0646 1.39543 30.96 2.5 30.96H11.5035L13.368 28.8H4.66015C3.55558 28.8 2.66015 27.9046 2.66015 26.8V4.16002C2.66015 3.05545 3.55558 2.16002 4.66015 2.16002H17.6912L19.5558 0ZM24.2264 2.16002H32.3401C33.4447 2.16002 34.3401 3.05545 34.3401 4.16002V26.8C34.3401 27.9046 33.4447 28.8 32.3401 28.8H19.9032L18.0386 30.96H34.5C35.6046 30.96 36.5 30.0646 36.5 28.96V2C36.5 0.895431 35.6046 0 34.5 0H26.091L24.2264 2.16002Z" fill="white"/>
<path d="M20.6604 18.7201L14.1804 11.8801L3.38043 24.8401L1.94043 25.9201L3.02043 29.8801L11.5 31C14.5 27.52 20.3724 20.4481 20.6604 20.1601C20.9484 19.8721 20.7804 19.0801 20.6604 18.7201Z" fill="white"/>
<path d="M26.0603 15.8436L34.3403 24.9135L35.0603 26.0019L34.3403 29.9926L16.3403 31.081C19.2203 27.6949 25.1243 20.7776 25.7003 20.1971C26.2763 19.6167 26.1803 19.2297 26.0603 19.1088L23.5403 16.2064C23.6603 16.0855 24.0443 15.771 24.6203 15.4808C25.1963 15.1906 25.8203 15.6017 26.0603 15.8436Z" fill="white"/>
<circle cx="27.4996" cy="9.00004" r="3.96" fill="white"/>
</svg>
