<svg width="200" height="200" viewBox="0 0 200 200" fill="none" xmlns="http://www.w3.org/2000/svg">
<g id="Frame" clip-path="url(#clip0_3547_6516)">
<g id="&#233;&#161;&#181;&#233;&#157;&#162;-1">
<g id="&#231;&#188;&#150;&#231;&#187;&#132;">
<path id="&#232;&#183;&#175;&#229;&#190;&#132;" d="M144.234 97.4938L112.392 123.423L93.9453 48.8879L110.751 33.3232L144.234 97.4879V97.4938Z" fill="#263742"/>
<path id="&#232;&#183;&#175;&#229;&#190;&#132;_2" d="M175.227 35.0356C159.003 39.2121 142.798 40.0944 126.633 37.6238H126.615L129.227 34.8003L132.562 31.1885L172.109 28.9238L173.786 32.2238L175.103 34.8062L175.221 35.0415L175.227 35.0356Z" fill="#334552"/>
<path id="&#232;&#183;&#175;&#229;&#190;&#132;_3" d="M126.615 169.541L130.109 178.735H174.515L182.898 171.964L185.609 166.111L126.615 169.535V169.541Z" fill="#0C1D29"/>
<path id="&#232;&#183;&#175;&#229;&#190;&#132;_4" d="M185.609 45.8473L183.162 38.9885L172.109 28.9297L175.227 41.6826L185.609 45.8473Z" fill="#0C1D29"/>
<path id="&#232;&#183;&#175;&#229;&#190;&#132;_5" d="M177.627 172.206L121.109 172.424V37.9474L177.627 34.665V172.206Z" fill="#334552"/>
<path id="&#232;&#183;&#175;&#229;&#190;&#132;_6" d="M168.039 147.659C168.039 147.659 166.798 127 146.31 127.259C127.534 127.506 129.581 147.124 129.575 147.095L168.045 147.653L168.039 147.659Z" fill="#0C1D29"/>
<path id="&#232;&#183;&#175;&#229;&#190;&#132;_7" d="M168.004 147.383C168.004 158.006 159.392 166.618 148.768 166.618C138.145 166.618 129.533 158.006 129.533 147.383C129.533 136.759 138.145 128.147 148.768 128.147C159.392 128.147 168.004 136.759 168.004 147.383Z" fill="#0C1D29"/>
<path id="&#232;&#183;&#175;&#229;&#190;&#132;_8" d="M168.004 58.2353C168.004 68.8588 159.392 77.4706 148.768 77.4706C138.145 77.4706 129.533 68.8588 129.533 58.2353C129.533 47.6118 138.145 39 148.768 39C159.392 39 168.004 47.6118 168.004 58.2353Z" fill="#0C1D29"/>
<path id="&#232;&#183;&#175;&#229;&#190;&#132;_9" d="M166.199 147.482C166.199 155.465 159.728 161.929 151.752 161.929C143.775 161.929 137.305 155.459 137.305 147.482C137.305 139.5 143.775 133.035 151.752 133.035C159.728 133.035 166.199 139.506 166.199 147.482Z" fill="#263742"/>
<path id="&#232;&#183;&#175;&#229;&#190;&#132;_10" d="M166.199 58.3348C166.199 66.3171 159.728 72.7818 151.752 72.7818C143.775 72.7818 137.305 66.3112 137.305 58.3348C137.305 50.3524 143.775 43.8877 151.752 43.8877C159.728 43.8877 166.199 50.3583 166.199 58.3348Z" fill="#263742"/>
<path id="&#232;&#183;&#175;&#229;&#190;&#132;_11" d="M168.634 106.511C168.634 106.511 168.734 84.976 147.493 85.1584C128.264 85.3231 130.176 105.97 130.176 105.947L168.646 106.505L168.634 106.511Z" fill="#0C1D29"/>
<path id="&#232;&#183;&#175;&#229;&#190;&#132;_12" d="M168.609 106.235C168.609 116.859 159.997 125.471 149.374 125.471C138.75 125.471 130.139 116.859 130.139 106.235C130.139 95.6118 138.75 87 149.374 87C159.997 87 168.609 95.6118 168.609 106.235Z" fill="#0C1D29"/>
<path id="&#232;&#183;&#175;&#229;&#190;&#132;_13" d="M166.804 106.329C166.804 114.311 160.334 120.776 152.357 120.776C144.381 120.776 137.91 114.305 137.91 106.329C137.91 98.3465 144.381 91.8818 152.357 91.8818C160.334 91.8818 166.804 98.3524 166.804 106.329Z" fill="#ED4163"/>
<path id="&#232;&#183;&#175;&#229;&#190;&#132;_14" d="M167.886 59.0297H167.515L164.345 52.312C164.345 52.312 158.721 41.1061 146.727 41.4473C134.727 41.7885 129.327 51.565 130.992 61.9414L131.421 64.1709L131.239 64.7944H130.733C127.292 58.1709 129.468 39.3238 148.127 40.165C160.557 40.7238 165.792 51.7356 167.874 59.012L167.886 59.0297Z" fill="#0C1D29"/>
<path id="&#232;&#183;&#175;&#229;&#190;&#132;_15" d="M177.627 34.665L187.327 48.265V164.8L177.627 172.212V34.6709V34.665Z" fill="#0C1D29"/>
<path id="&#232;&#183;&#175;&#229;&#190;&#132;_16" d="M175.103 34.8001L126.615 37.6237L129.227 34.8001L173.786 32.2178L175.103 34.8001Z" fill="#0C1D29"/>
<path id="&#232;&#183;&#175;&#229;&#190;&#132;_17" d="M98.0752 168.494L89.8634 172.818L22.334 44.5941L30.5575 40.2646L98.081 168.5L98.0752 168.494Z" fill="#334552"/>
<path id="&#232;&#183;&#175;&#229;&#190;&#132;_18" d="M33.7742 42.4588C33.7683 42.7529 33.7389 43.0294 33.6919 43.3176C33.6213 43.7764 33.5036 44.2235 33.3624 44.6588C33.3624 44.6647 33.3448 44.6823 33.3624 44.6882C33.1389 45.3294 32.8272 45.9352 32.4507 46.4941C32.3154 46.6999 32.1742 46.8882 32.0272 47.0764C31.0389 48.2823 29.7154 49.2235 28.1742 49.7176C27.7389 49.8529 27.2683 49.9647 26.786 50.0235C26.2919 50.0823 25.7977 50.1058 25.3154 50.0764C24.7742 50.0529 24.2389 49.9705 23.7272 49.8529C23.5213 49.7999 23.3272 49.7411 23.133 49.6647C22.9977 49.6294 22.8683 49.5823 22.7389 49.5294C21.5095 49.0411 20.4095 48.2588 19.5683 47.247C18.5977 46.1117 17.933 44.6705 17.7213 43.0764C17.3154 40.0999 18.5919 37.2999 20.8154 35.5999C21.0036 35.4647 21.1919 35.3235 21.386 35.2058C22.3507 34.5882 23.4566 34.1764 24.6624 34.0058C25.786 33.8529 26.886 33.9529 27.9095 34.2411C28.7801 34.4999 29.6036 34.8823 30.3389 35.3999C32.133 36.647 33.4036 38.6235 33.7213 40.947C33.7919 41.4588 33.8095 41.9705 33.7742 42.4588Z" fill="#334552"/>
<path id="&#232;&#183;&#175;&#229;&#190;&#132;_19" d="M33.774 42.4588C33.7681 42.7529 33.7387 43.0293 33.6916 43.3176C33.621 43.7764 33.5034 44.2235 33.3622 44.6588C33.3622 44.6588 33.3446 44.6823 33.3622 44.6882C33.1387 45.3293 32.8269 45.9352 32.4505 46.4941C32.3152 46.6999 32.174 46.8882 32.0269 47.0764C31.0387 48.2823 29.7152 49.2235 28.174 49.7176C27.7387 49.8529 27.2681 49.9646 26.7858 50.0235C26.2916 50.0823 25.7975 50.1058 25.3152 50.0764C24.774 50.0529 24.2387 49.9705 23.7269 49.8529C23.521 49.7999 23.3269 49.7411 23.1328 49.6646C23.2505 47.2646 24.4446 45.0764 26.2975 43.6705C26.4799 43.5352 26.674 43.3999 26.8622 43.2764C27.8269 42.6646 28.9328 42.2529 30.1387 42.0764C31.2681 41.9352 32.3681 42.0293 33.3858 42.3176C33.521 42.3529 33.6563 42.3999 33.7858 42.4529L33.774 42.4588Z" fill="#0C1D29"/>
<path id="&#232;&#183;&#175;&#229;&#190;&#132;_20" d="M85.5977 164.729C85.5977 164.729 86.2801 158.088 92.4212 157.747L98.0742 168.494L89.2624 171.712L85.5859 164.729H85.5977Z" fill="#0C1D29"/>
<path id="&#232;&#183;&#175;&#229;&#190;&#132;_21" d="M73.657 122.158C73.657 122.158 64.8393 122.8 68.0805 131.5L61.9746 119.864L70.504 116.105L73.657 122.147V122.158Z" fill="#0C1D29"/>
<path id="&#232;&#183;&#175;&#229;&#190;&#132;_22" d="M67.4167 119.923C67.4167 119.923 65.0872 121.052 64.1108 123.935L25.252 50.1407C28.3167 45.7819 33.3755 45.623 33.3755 45.623L67.4167 119.923Z" fill="#334552"/>
<path id="&#232;&#183;&#175;&#229;&#190;&#132;_23" d="M100.745 175.03C100.016 176.159 99.0038 177.13 97.7333 177.8C93.7862 179.889 88.9038 178.365 86.8215 174.43C85.6333 172.153 85.6156 169.589 86.5803 167.412H86.5862C86.845 166.818 87.1568 166.259 87.5627 165.753C88.245 164.847 89.145 164.077 90.2038 163.512C94.1568 161.436 99.0333 162.947 101.104 166.9C102.521 169.571 102.28 172.677 100.745 175.03Z" fill="#334552"/>
<path id="&#232;&#183;&#175;&#229;&#190;&#132;_24" d="M123.352 90.8412L97.664 96.8176C96.964 96.9823 96.611 97.7588 96.9463 98.3941L110.17 123.071C110.282 123.276 110.435 123.424 110.605 123.535V123.553C111.329 124.229 112.387 123.424 112.387 123.424L116.27 120.259C112.97 122.812 114.152 118.918 114.152 118.918L124.593 92.3059C124.917 91.4941 124.187 90.6471 123.335 90.8471L123.352 90.8412Z" fill="#0C1D29"/>
<path id="&#232;&#183;&#175;&#229;&#190;&#132;_25" d="M116.281 120.253C116.446 120.123 116.628 119.982 116.817 119.817L116.281 120.253Z" fill="#0C1D29"/>
<path id="&#232;&#183;&#175;&#229;&#190;&#132;_26" d="M124.746 91.9592L122.723 97.118C125.117 90.5886 119.605 92.8886 119.152 93.0827C118.352 93.4415 117.476 93.8415 116.534 94.2709C116.405 94.3298 116.287 94.3886 116.158 94.4415C116.076 94.4886 115.993 94.5239 115.899 94.5709C115.199 94.8945 114.452 95.2474 113.67 95.618C111.329 96.7239 108.634 98.0298 105.593 99.5239C96.1285 104.212 83.3344 110.877 67.4285 119.924L28.7227 47.0474C28.7227 47.0474 50.4403 33.4356 73.5756 22.1239H73.5932C74.2403 21.8062 74.8756 21.5003 75.5227 21.1827C76.6344 20.6474 77.7462 20.1298 78.8403 19.6062C80.0874 19.0121 81.3344 18.4415 82.5815 17.8827C83.8462 17.3121 85.3285 17.8121 85.9991 19.0298L87.4991 21.7474V21.7651L87.5344 21.8239L124.599 88.9886C124.599 88.9886 124.617 89.0239 124.646 89.0945C124.676 89.1709 124.717 89.2533 124.734 89.3415C124.905 89.8592 125.152 90.9298 124.746 91.9592Z" fill="#334552"/>
<path id="&#232;&#183;&#175;&#229;&#190;&#132;_27" opacity="0.7" d="M124.745 91.9585L122.721 97.1174C125.116 90.5879 119.604 92.8879 119.151 93.0821C118.351 93.4409 117.474 93.8409 116.533 94.2703C116.404 94.3291 116.286 94.3879 116.157 94.4409C116.074 94.4879 115.992 94.5232 115.898 94.5703C115.198 94.8938 114.451 95.2468 113.668 95.6174C109.874 69.0291 88.5273 23.9232 87.5332 21.8232L124.598 88.9879C124.598 88.9879 124.616 89.0232 124.645 89.0938C124.674 89.1703 124.716 89.2527 124.733 89.3409C124.904 89.8585 125.151 90.9291 124.745 91.9585Z" fill="#ED4163"/>
</g>
</g>
</g>
<defs>
<clipPath id="clip0_3547_6516">
<rect width="200" height="200" fill="white"/>
</clipPath>
</defs>
</svg>
