<svg width="17" height="16" viewBox="0 0 17 16" fill="none" xmlns="http://www.w3.org/2000/svg">
<g id="normal_u46" clip-path="url(#clip0_1031_6186)">
<g id="Group">
<path id="Vector" d="M12.4738 6.51605H13.7169C13.9566 6.52541 14.146 6.71867 14.146 6.9539C14.146 7.18912 13.9566 7.38238 13.7169 7.39174H12.4738V8.17299H13.7169C13.7228 8.17276 13.7287 8.17265 13.7347 8.17265C13.9811 8.17265 14.1809 8.36852 14.1809 8.61015C14.1809 8.85177 13.9811 9.04765 13.7347 9.04765C13.7287 9.04765 13.7228 9.04753 13.7169 9.0473H12.0268C11.7816 9.04578 11.5834 8.85088 11.5827 8.61049V5.2973C11.5827 5.05771 11.7824 4.8598 12.0289 4.8598H13.719C13.965 4.86037 14.1642 5.05608 14.1642 5.2973C14.1642 5.53892 13.9644 5.7348 13.7179 5.7348L13.7169 5.7348H12.4738V6.51605ZM10.9862 5.2973V8.61049C10.9851 8.85157 10.7852 9.0463 10.5393 9.04591C10.3973 9.04893 10.2626 8.9842 10.178 8.8723L8.44758 6.56883V8.61049C8.43141 8.83986 8.23691 9.01782 8.0024 9.01782C7.76788 9.01782 7.57338 8.83986 7.55721 8.61049V5.2973C7.55682 5.05736 7.75448 4.86233 7.99921 4.86119C8.13733 4.86119 8.26483 4.93341 8.34983 5.03758L10.0938 7.35008V5.2973C10.0938 5.05771 10.2935 4.8598 10.54 4.8598C10.7844 4.8598 10.9862 5.05771 10.9862 5.2973ZM6.91971 5.2973V8.61049C6.91854 8.8518 6.71889 9.04692 6.47275 9.0473C6.22756 9.04578 6.0294 8.85088 6.02863 8.61049V5.2973C6.02863 5.05771 6.22837 4.8598 6.47487 4.8598C6.71996 4.8598 6.91971 5.05771 6.91971 5.2973ZM5.60143 8.61015C5.60143 8.84499 5.41231 9.03794 5.17296 9.0473H3.48288C3.23734 9.04579 3.03856 8.85122 3.03662 8.61049V5.2973C3.03662 5.05771 3.2385 4.8598 3.48288 4.8598C3.72938 4.8598 3.92913 5.05771 3.92913 5.2973V8.17299H5.17296C5.41231 8.18235 5.60143 8.3753 5.60143 8.61015ZM15.1952 10.9737C16.4163 9.66188 17 8.31813 17 6.82924C17 3.09938 13.1856 0.0639648 8.5 0.0639648C3.81437 0.0639648 0 3.09938 0 6.82924C0 10.1702 3.02458 12.9695 7.10813 13.5015C7.38508 13.5584 7.76192 13.6806 7.85754 13.9112C7.94254 14.1202 7.9135 14.4431 7.88446 14.6612L7.76829 15.3695C7.73642 15.5785 7.59829 16.1931 8.51133 15.8174C9.42579 15.4431 13.4102 12.9855 15.1952 10.9737Z" fill="#D5DCEC"/>
</g>
</g>
<defs>
<clipPath id="clip0_1031_6186">
<rect width="17" height="16" fill="white"/>
</clipPath>
</defs>
</svg>
