<svg fill="currentColor" viewBox="0 0 96 96" class="svg-icon" style=""> <title></title> <path d="M96 41.257c0-21.48-21.52-38.92-48-38.92S0 19.777 0 41.257c0 19.28 17.08 35.4 40 38.44 1.56.36 3.68 1.04 4.2 2.36a10.04 10.04 0 0 1 0 4.36l-.68 4c-.2 1.2-.96 4.72 4 2.56a155.998 155.998 0 0 0 37.72-28A34.72 34.72 0 0 0 96 41.257Zm-64.92 11.52a.92.92 0 0 1-.92.88H16.68a.88.88 0 0 1-.92-.88v-20.96a.92.92 0 0 1 .92-.92H20a.92.92 0 0 1 .92.92v16.64h9.24a.92.92 0 0 1 .92.88v3.44Zm8 0a.92.92 0 0 1-.92.88h-3.28a.88.88 0 0 1-.92-.88v-20.96a.92.92 0 0 1 .92-.92h3.4a.92.92 0 0 1 .92.92l-.12 20.96Zm23.16 0a.88.88 0 0 1-.92.88h-4.24l-9.6-12.96v12.44a.88.88 0 0 1-.92.88h-3.4a.92.92 0 0 1-.92-.88v-21.32a.92.92 0 0 1 .92-.92h4l9.6 12.96v-12.04a.92.92 0 0 1 .92-.92h3.4a.92.92 0 0 1 .92.92l.24 20.96Zm18.6-17.56a.92.92 0 0 1-.84.84h-9.12v3.6H80a.96.96 0 0 1 .92.92v3.48a.92.92 0 0 1-.92.92h-9.12v3.56H80a.92.92 0 0 1 .92.88v3.44a.92.92 0 0 1-.92.88H66.56a.88.88 0 0 1-.92-.88v-21.04a.92.92 0 0 1 .92-.92H80a.92.92 0 0 1 .92.92l-.08 3.4Z"></path></svg>
