<svg width="36" height="36" viewBox="0 0 36 36" fill="none" xmlns="http://www.w3.org/2000/svg">
<g clip-path="url(#clip0_513_1652)">
<path d="M34 9.107H9.107V34H12.187C12.587 32.446 13.975 31.317 15.627 31.317C17.279 31.317 18.667 32.447 19.062 33.976L19.067 34.001H24.04C24.44 32.447 25.828 31.318 27.48 31.318C29.132 31.318 30.52 32.448 30.915 33.977L30.92 34.002H34V9.107ZM15.973 27.627L12.666 24.28L14.559 22.387L16.026 23.854L19.906 19.974L21.733 21.867L15.973 27.627ZM30.44 25.467H24.813V22.8H30.44V25.467ZM30.44 16.227H12.667V13.56H30.44V16.227ZM26.893 2V5.56H5.56V26.893H2V2H26.893Z" fill="#B1BAD3"/>
</g>
<defs>
<clipPath id="clip0_513_1652">
<rect width="36" height="36" fill="white"/>
</clipPath>
</defs>
</svg>
