<svg width="36" height="36" viewBox="0 0 36 36" fill="none" xmlns="http://www.w3.org/2000/svg">
<g clip-path="url(#clip0_556_3295)">
<path d="M34 27.7374V21.9024H27.25C27.214 21.9004 27.172 21.8994 27.129 21.8994C25.516 21.8994 24.209 23.2064 24.209 24.8194C24.209 26.4324 25.516 27.7394 27.129 27.7394C27.172 27.7394 27.214 27.7384 27.256 27.7364H27.25L34 27.7374ZM28.805 24.8224C28.802 25.5574 28.206 26.1524 27.47 26.1524C26.733 26.1524 26.135 25.5544 26.135 24.8174C26.135 24.0804 26.733 23.4824 27.47 23.4824C28.207 23.4824 28.805 24.0804 28.805 24.8174C28.805 24.8194 28.805 24.8204 28.805 24.8224Z" fill="#B1BAD3"/>
<path d="M7.21508 12.0322C6.72608 12.0352 6.33008 12.4322 6.33008 12.9222V13.0172C6.33008 13.5062 6.72608 13.9022 7.21508 13.9022H10.6701C10.2901 13.3632 9.95408 12.7472 9.69208 12.0932L9.67008 12.0322H7.21508Z" fill="#B1BAD3"/>
<path d="M26.8393 12.0322C26.5553 12.7472 26.2193 13.3632 25.8203 13.9312L25.8393 13.9022H30.9993V12.0322H26.8393Z" fill="#B1BAD3"/>
<path d="M29.6254 10.1569V8.71191H27.5004C27.4934 9.22791 27.4444 9.72691 27.3574 10.2119L27.3654 10.1569H29.6254Z" fill="#B1BAD3"/>
<path d="M27.25 20.0269H33.115V18.4369C33.115 18.4349 33.115 18.4339 33.115 18.4319C33.115 16.9669 31.929 15.7799 30.465 15.7769H7.07C5.602 15.6749 4.45 14.4579 4.45 12.9729C4.45 12.9709 4.45 12.9679 4.45 12.9659C4.448 12.9279 4.446 12.8829 4.446 12.8389C4.446 12.7949 4.447 12.7499 4.45 12.7049V12.7109C4.565 11.2789 5.754 10.1599 7.205 10.1559H9.13C9.052 9.72494 9.005 9.22494 9 8.71594V8.71094H5.53C3.58 8.71394 2 10.2949 2 12.2459V30.7959C2.003 32.4879 3.373 33.8579 5.065 33.8609H30.46C31.926 33.8609 33.115 32.6719 33.115 31.2059V29.6109H27.25C27.204 29.6129 27.15 29.6139 27.095 29.6139C24.447 29.6139 22.3 27.4669 22.3 24.8189C22.3 22.1709 24.447 20.0239 27.095 20.0239C27.149 20.0239 27.204 20.0249 27.258 20.0269H27.25Z" fill="#B1BAD3"/>
<path d="M24.8545 8.612C24.8545 8.61 24.8545 8.607 24.8545 8.605C24.8545 4.957 21.8975 2 18.2495 2C14.6015 2 11.6445 4.957 11.6445 8.605C11.6445 10.766 12.6825 12.685 14.2875 13.89L14.3045 13.902H22.1945C23.8165 12.69 24.8545 10.775 24.8545 8.617C24.8545 8.615 24.8545 8.612 24.8545 8.612Z" fill="#B1BAD3"/>
</g>
<defs>
<clipPath id="clip0_556_3295">
<rect width="36" height="36" fill="white"/>
</clipPath>
</defs>
</svg>
