<svg fill="currentColor" viewBox="0 0 64 64" class="svg-icon" style=""> <title></title> <path d="M45.708 9.146 36.562 0a6.408 6.408 0 0 1-4.56 1.898A6.408 6.408 0 0 1 27.442 0L.002 27.44A6.408 6.408 0 0 1 1.9 32a6.408 6.408 0 0 1-1.898 4.56l9.146 9.146a6.481 6.481 0 0 1 9.14 9.154l.006-.006L27.44 64A6.408 6.408 0 0 1 32 62.102c1.782 0 3.396.726 4.56 1.898L64 36.56A6.408 6.408 0 0 1 62.102 32c0-1.782.726-3.396 1.898-4.56l-9.146-9.146a6.481 6.481 0 0 1-9.14-9.154l-.006.006ZM28.002 40.56 24.562 44l-4.56-4.56 3.44-3.44 4.56 4.56Zm8-8L32.562 36l-4.56-4.56 3.44-3.44 4.56 4.56Zm8-8L40.562 28l-4.56-4.56 3.44-3.44 4.56 4.56Z"></path></svg>
