<svg width="36" height="36" viewBox="0 0 36 36" fill="none" xmlns="http://www.w3.org/2000/svg">
<g clip-path="url(#clip0_556_3333)">
<path d="M27.42 21.0947C25.01 23.5067 21.679 24.9997 18 24.9997C14.321 24.9997 10.99 23.5077 8.58 21.0947C4.714 22.5067 2.003 26.1507 2 30.4297V33.9997H34V30.4297C33.997 26.1507 31.287 22.5067 27.489 21.1167L27.42 21.0947Z" fill="#B1BAD3"/>
<path d="M27.8155 11.815C27.8155 17.236 23.4215 21.63 18.0005 21.63C12.5795 21.63 8.18555 17.236 8.18555 11.815C8.18555 6.394 12.5795 2 18.0005 2C18.0025 2 18.0035 2 18.0055 2C23.4235 2 27.8155 6.392 27.8155 11.81C27.8155 11.812 27.8155 11.815 27.8155 11.815Z" fill="#B1BAD3"/>
</g>
<defs>
<clipPath id="clip0_556_3333">
<rect width="36" height="36" fill="white"/>
</clipPath>
</defs>
</svg>
