<svg width="28" height="28" viewBox="0 0 28 28" fill="none" xmlns="http://www.w3.org/2000/svg">
<g clip-path="url(#clip0_556_3333)">
<path d="M21.3258 16.4072C19.4514 18.2832 16.8606 19.4444 13.9991 19.4444C11.1377 19.4444 8.54691 18.284 6.67247 16.4072C3.66558 17.5054 1.55702 20.3397 1.55469 23.6678V26.4444H26.4436V23.6678C26.4412 20.3397 24.3335 17.5054 21.3795 16.4243L21.3258 16.4072Z" fill="currentColor"/>
<path d="M21.635 9.18955C21.635 13.4059 18.2174 16.8234 14.0011 16.8234C9.78474 16.8234 6.36719 13.4059 6.36719 9.18955C6.36719 4.97322 9.78474 1.55566 14.0011 1.55566C14.0026 1.55566 14.0034 1.55566 14.005 1.55566C18.219 1.55566 21.635 4.97166 21.635 9.18566C21.635 9.18722 21.635 9.18955 21.635 9.18955Z" fill="currentColor"/>
</g>
<defs>
<clipPath id="clip0_556_3333">
<rect width="28" height="28" fill="white"/>
</clipPath>
</defs>
</svg>
