<svg width="20" height="20" viewBox="0 0 20 20" fill="none" xmlns="http://www.w3.org/2000/svg">
<g clip-path="url(#clip0_2862_140)">
<path d="M0 0V15.4919H20V0H0ZM12.1419 9H9.70875C9.17938 10.455 7.80875 11.475 6.2 11.475C4.1425 11.475 2.475 9.8075 2.475 7.75C2.475 5.6925 4.1425 4.025 6.2 4.025C7.80938 4.025 9.18 5.045 9.70062 6.47438L9.70875 6.5H12.1419V9ZM17.5 13.1081H15V9.33313H17.5V13.1081ZM17.5 6.16687H15V2.39188H17.5V6.16687Z" fill="#00E701"/>
<path d="M7.4668 7.75C7.4668 8.44062 6.90742 9 6.2168 9C5.52617 9 4.9668 8.44062 4.9668 7.75C4.9668 7.05937 5.52617 6.5 6.2168 6.5C6.90742 6.5 7.4668 7.05937 7.4668 7.75Z" fill="#00E701"/>
<path d="M1.66699 20H5.85012L7.27512 17.575H1.66699V20Z" fill="#00E701"/>
<path d="M14.1501 20H18.3332V17.575H12.7251L14.1501 20Z" fill="#00E701"/>
</g>
<defs>
<clipPath id="clip0_2862_140">
<rect width="20" height="20" fill="white"/>
</clipPath>
</defs>
</svg>
