<svg width="28" height="28" viewBox="0 0 28 28" fill="none" xmlns="http://www.w3.org/2000/svg">
<path d="M19.3292 5.11244L15.7725 1.55566C15.3198 2.01144 14.6921 2.29378 13.9991 2.29378C13.3061 2.29378 12.6785 2.01144 12.2258 1.55566L1.55469 12.2268C2.01047 12.6794 2.2928 13.3071 2.2928 14.0001C2.2928 14.6931 2.01047 15.3208 1.55469 15.7734L5.11147 19.3302C5.55402 18.9382 6.13891 18.6987 6.7798 18.6987C8.17124 18.6987 9.2998 19.8272 9.2998 21.2187C9.2998 21.8596 9.06024 22.4452 8.66591 22.8901L8.66824 22.8878L12.225 26.4446C12.6777 25.9888 13.3054 25.7064 13.9984 25.7064C14.6914 25.7064 15.319 25.9888 15.7717 26.4446L26.4428 15.7734C25.987 15.3208 25.7047 14.6931 25.7047 14.0001C25.7047 13.3071 25.987 12.6794 26.4428 12.2268L22.886 8.67C22.4435 9.062 21.8586 9.30155 21.2177 9.30155C19.8262 9.30155 18.6977 8.173 18.6977 6.78155C18.6977 6.14066 18.9372 5.555 19.3316 5.11011L19.3292 5.11244ZM12.4436 17.329L11.1058 18.6668L9.33247 16.8934L10.6702 15.5557L12.4436 17.329ZM15.5547 14.2179L14.2169 15.5557L12.4436 13.7823L13.7814 12.4446L15.5547 14.2179ZM18.6658 11.1068L17.328 12.4446L15.5547 10.6712L16.8925 9.33344L18.6658 11.1068Z" fill="currentColor"/>
</svg>
