<svg width="36" height="36" viewBox="0 0 36 36" fill="none" xmlns="http://www.w3.org/2000/svg">
<path d="M10.067 34L2 26C2.533 25.498 2.864 24.788 2.864 24C2.864 23.212 2.532 22.502 2.001 22.001L2 22L22 2C22.502 2.533 23.212 2.864 24 2.864C24.788 2.864 25.498 2.532 25.999 2.001L26 2L34 10.067C33.488 10.566 33.171 11.263 33.171 12.034C33.171 12.805 33.488 13.501 34 14L34.001 14.001L14.001 34.001C13.502 33.489 12.805 33.172 12.034 33.172C11.263 33.172 10.567 33.489 10.068 34.001L10.067 34.002V34Z" fill="#B1BAD3"/>
</svg>
