<svg width="28" height="28" viewBox="0 0 28 28" fill="none" xmlns="http://www.w3.org/2000/svg">
<g clip-path="url(#clip0_556_3410)">
<path d="M1.55469 1.55566V20.8344H26.4436V1.55566H1.55469ZM16.6646 12.7557H13.6367C12.9779 14.5663 11.2722 15.8357 9.27024 15.8357C6.7098 15.8357 4.63469 13.7606 4.63469 11.2001C4.63469 8.63966 6.7098 6.56455 9.27024 6.56455C11.273 6.56455 12.9787 7.83389 13.6266 9.61266L13.6367 9.64455H16.6646V12.7557ZM23.3325 17.868H20.2214V13.1702H23.3325V17.868ZM23.3325 9.23H20.2214V4.53222H23.3325V9.23Z" fill="currentColor"/>
<path d="M10.8474 11.2001C10.8474 12.0595 10.1513 12.7556 9.29188 12.7556C8.43244 12.7556 7.73633 12.0595 7.73633 11.2001C7.73633 10.3406 8.43244 9.64453 9.29188 9.64453C10.1513 9.64453 10.8474 10.3406 10.8474 11.2001Z" fill="currentColor"/>
<path d="M3.63086 26.4445H8.83653L10.6099 23.4268H3.63086V26.4445Z" fill="currentColor"/>
<path d="M19.164 26.4445H24.3696V23.4268H17.3906L19.164 26.4445Z" fill="currentColor"/>
</g>
<defs>
<clipPath id="clip0_556_3410">
<rect width="28" height="28" fill="white"/>
</clipPath>
</defs>
</svg>
