<svg width="36" height="36" viewBox="0 0 36 36" xmlns="http://www.w3.org/2000/svg">
<path d="M24.853 6.573L20.28 2C19.698 2.586 18.891 2.949 18 2.949C17.109 2.949 16.302 2.586 15.72 2L2 15.72C2.586 16.302 2.949 17.109 2.949 18C2.949 18.891 2.586 19.698 2 20.28L6.573 24.853C7.142 24.349 7.894 24.041 8.718 24.041C10.507 24.041 11.958 25.492 11.958 27.281C11.958 28.105 11.65 28.858 11.143 29.43L11.146 29.427L15.719 34C16.301 33.414 17.108 33.051 17.999 33.051C18.89 33.051 19.697 33.414 20.279 34L33.999 20.28C33.413 19.698 33.05 18.891 33.05 18C33.05 17.109 33.413 16.302 33.999 15.72L29.426 11.147C28.857 11.651 28.105 11.959 27.281 11.959C25.492 11.959 24.041 10.508 24.041 8.719C24.041 7.895 24.349 7.142 24.856 6.57L24.853 6.573ZM16 22.28L14.28 24L12 21.72L13.72 20L16 22.28ZM20 18.28L18.28 20L16 17.72L17.72 16L20 18.28ZM24 14.28L22.28 16L20 13.72L21.72 12L24 14.28Z" />
</svg>
