<svg width="36" height="36" viewBox="0 0 36 36" fill="none" xmlns="http://www.w3.org/2000/svg">
<g clip-path="url(#clip0_556_3410)">
<path d="M2 2V26.787H34V2H2ZM21.427 16.4H17.534C16.687 18.728 14.494 20.36 11.92 20.36C8.628 20.36 5.96 17.692 5.96 14.4C5.96 11.108 8.628 8.44 11.92 8.44C14.495 8.44 16.688 10.072 17.521 12.359L17.534 12.4H21.427V16.4ZM30 22.973H26V16.933H30V22.973ZM30 11.867H26V5.827H30V11.867Z" fill="#B1BAD3"/>
<path d="M13.9473 14.4004C13.9473 15.5054 13.0523 16.4004 11.9473 16.4004C10.8423 16.4004 9.94727 15.5054 9.94727 14.4004C9.94727 13.2954 10.8423 12.4004 11.9473 12.4004C13.0523 12.4004 13.9473 13.2954 13.9473 14.4004Z" fill="#B1BAD3"/>
<path d="M4.66797 34.0001H11.361L13.641 30.1201H4.66797V34.0001Z" fill="#B1BAD3"/>
<path d="M24.6394 34.0001H31.3324V30.1201H22.3594L24.6394 34.0001Z" fill="#B1BAD3"/>
</g>
<defs>
<clipPath id="clip0_556_3410">
<rect width="36" height="36" fill="white"/>
</clipPath>
</defs>
</svg>
