<svg width="28" height="28" viewBox="0 0 28 28" fill="none" xmlns="http://www.w3.org/2000/svg">
<g clip-path="url(#clip0_556_3295)">
<path d="M26.4453 21.5739V17.0355H21.1953C21.1673 17.034 21.1346 17.0332 21.1012 17.0332C19.8466 17.0332 18.8301 18.0498 18.8301 19.3043C18.8301 20.5589 19.8466 21.5754 21.1012 21.5754C21.1346 21.5754 21.1673 21.5746 21.2 21.5731H21.1953L26.4453 21.5739ZM22.4047 19.3066C22.4024 19.8783 21.9389 20.3411 21.3664 20.3411C20.7932 20.3411 20.3281 19.876 20.3281 19.3028C20.3281 18.7295 20.7932 18.2644 21.3664 18.2644C21.9396 18.2644 22.4047 18.7295 22.4047 19.3028C22.4047 19.3043 22.4047 19.3051 22.4047 19.3066Z" fill="#B1BAD3"/>
<path d="M5.61216 9.3584C5.23183 9.36073 4.92383 9.66951 4.92383 10.0506V10.1245C4.92383 10.5048 5.23183 10.8128 5.61216 10.8128H8.29938C8.00383 10.3936 7.7425 9.91451 7.53872 9.40584L7.52161 9.3584H5.61216Z" fill="#B1BAD3"/>
<path d="M20.8746 9.3584C20.6537 9.91451 20.3924 10.3936 20.082 10.8354L20.0968 10.8128H24.1101V9.3584H20.8746Z" fill="#B1BAD3"/>
<path d="M23.0413 7.90026V6.77637H21.3886C21.3831 7.1777 21.345 7.56581 21.2773 7.94303L21.2836 7.90026H23.0413Z" fill="#B1BAD3"/>
<path d="M21.1936 15.5767H25.7552V14.3401C25.7552 14.3385 25.7552 14.3377 25.7552 14.3362C25.7552 13.1967 24.8328 12.2735 23.6941 12.2712H5.49802C4.35624 12.1918 3.46024 11.2453 3.46024 10.0903C3.46024 10.0887 3.46024 10.0864 3.46024 10.0848C3.45869 10.0553 3.45713 10.0203 3.45713 9.98606C3.45713 9.95183 3.45791 9.91683 3.46024 9.88183V9.8865C3.54969 8.77272 4.47447 7.90239 5.60302 7.89928H7.10024C7.03958 7.56406 7.00302 7.17517 6.99913 6.77928V6.77539H4.30024C2.78358 6.77772 1.55469 8.00739 1.55469 9.52483V23.9526C1.55702 25.2686 2.62258 26.3342 3.93858 26.3365H23.6902C24.8305 26.3365 25.7552 25.4117 25.7552 24.2715V23.0309H21.1936C21.1578 23.0325 21.1158 23.0333 21.073 23.0333C19.0135 23.0333 17.3436 21.3634 17.3436 19.3038C17.3436 17.2443 19.0135 15.5744 21.073 15.5744C21.115 15.5744 21.1578 15.5752 21.1998 15.5767H21.1936Z" fill="#B1BAD3"/>
<path d="M19.3311 6.69833C19.3311 6.69678 19.3311 6.69444 19.3311 6.69289C19.3311 3.85555 17.0312 1.55566 14.1939 1.55566C11.3565 1.55566 9.05664 3.85555 9.05664 6.69289C9.05664 8.37366 9.86397 9.86622 11.1123 10.8034L11.1255 10.8128H17.2622C18.5238 9.87011 19.3311 8.38066 19.3311 6.70222C19.3311 6.70066 19.3311 6.69833 19.3311 6.69833Z" fill="#B1BAD3"/>
</g>
<defs>
<clipPath id="clip0_556_3295">
<rect width="28" height="28" fill="white"/>
</clipPath>
</defs>
</svg>
