<svg width="28" height="28" viewBox="0 0 28 28" fill="none" xmlns="http://www.w3.org/2000/svg">
<path d="M18.6906 1.67334C17.6411 1.35532 16.4355 1.17222 15.1871 1.17134C8.59712 1.20726 3.18285 6.20013 2.48198 12.6088L2.47672 12.6657H0L4.34543 18.822L8.67947 12.6657H6.40163C7.07972 8.36408 10.7488 5.10939 15.1836 5.08486H15.1862C16.0395 5.08749 16.864 5.20663 17.6454 5.42741L17.5815 5.41164C21.3767 6.50501 24.1058 9.94631 24.1058 14.0254C24.1058 17.1198 22.5358 19.8462 20.1484 21.4538L20.1169 21.474C18.7283 22.3702 17.0313 22.9038 15.2108 22.9038C12.9723 22.9038 10.9214 22.0986 9.33304 20.7617L9.34706 20.7731L6.8239 23.7054C9.06233 25.6459 12.0034 26.8287 15.2213 26.8287C17.8531 26.8287 20.3 26.0375 22.3369 24.6805L22.2896 24.7103C25.7528 22.372 28 18.462 28 14.0263C28 8.19149 24.1101 3.26433 18.7826 1.697L18.6915 1.67422L18.6906 1.67334Z" fill="currentColor"/>
<path d="M11.8342 20.2343H19.2285V17.1268L16.5064 14.0193L19.2285 10.9118V7.80426H11.8342V10.9118L14.6263 13.9956L11.8342 17.1259V20.2334V20.2343Z" fill="currentColor"/>
</svg>
