<svg width="28" height="28" viewBox="0 0 28 28" fill="none" xmlns="http://www.w3.org/2000/svg">
<path d="M0 0V21.6886H28V0H0ZM16.9986 12.6H13.5923C12.8511 14.637 10.9323 16.065 8.68 16.065C5.7995 16.065 3.465 13.7305 3.465 10.85C3.465 7.9695 5.7995 5.635 8.68 5.635C10.9331 5.635 12.852 7.063 13.5809 9.06413L13.5923 9.1H16.9986V12.6ZM24.5 18.3514H21V13.0664H24.5V18.3514ZM24.5 8.63363H21V3.34863H24.5V8.63363Z" fill="currentColor"/>
<path d="M10.4541 10.8503C10.4541 11.8172 9.67098 12.6003 8.7041 12.6003C7.73723 12.6003 6.9541 11.8172 6.9541 10.8503C6.9541 9.88347 7.73723 9.10034 8.7041 9.10034C9.67098 9.10034 10.4541 9.88347 10.4541 10.8503Z" fill="currentColor"/>
<path d="M2.33447 28.0001H8.19085L10.1858 24.6051H2.33447V28.0001Z" fill="currentColor"/>
<path d="M19.8095 28.0001H25.6658V24.6051H17.8145L19.8095 28.0001Z" fill="currentColor"/>
</svg>
