<svg width="20" height="20" viewBox="0 0 20 20" fill="none" xmlns="http://www.w3.org/2000/svg">
<path fill-rule="evenodd" clip-rule="evenodd" d="M14.2842 4.14614V4.15054V4.15368C14.2842 5.50831 13.6355 6.71041 12.6217 7.47122H7.69041L7.67978 7.46369C6.67665 6.70727 6.02789 5.50266 6.02789 4.14614C6.02789 1.85619 7.87603 0 10.1561 0C12.4361 0 14.2842 1.85619 14.2842 4.14614ZM15.7864 11.316H19.4471V10.3179V10.3148C19.4471 9.39516 18.7058 8.65005 17.7908 8.64817H3.16878C2.25127 8.58414 1.53126 7.82019 1.53126 6.88802V6.88362C1.53001 6.85977 1.52876 6.83152 1.52876 6.8039C1.52876 6.77628 1.52939 6.74804 1.53126 6.71979V6.72355C1.60314 5.82465 2.34627 5.12222 3.25316 5.11971H4.45629C4.40754 4.84916 4.37817 4.53529 4.37504 4.21578V4.21264H2.20627C0.987509 4.21453 0 5.20696 0 6.43166V18.076C0.00187502 19.1381 0.858133 19.9981 1.91564 20H17.7877C18.7039 20 19.4471 19.2536 19.4471 18.3334V17.3322H15.7814C15.7527 17.3334 15.7189 17.334 15.6845 17.334C14.0295 17.334 12.6876 15.9863 12.6876 14.3241C12.6876 12.6619 14.0295 11.3141 15.6845 11.3141C15.7183 11.3141 15.7527 11.3148 15.7864 11.316ZM17.2659 4.21326V5.12032H15.8544C15.905 4.82673 15.9335 4.52493 15.9377 4.21326H17.2659ZM15.8544 5.12032L15.8484 5.15485L15.8534 5.12032H15.8544ZM2.7065 6.85603C2.7065 6.54845 2.954 6.29924 3.25963 6.29736H4.79402L4.80777 6.33565C4.97152 6.74618 5.18152 7.13286 5.41902 7.47121H3.25963C2.954 7.47121 2.7065 7.22263 2.7065 6.91567V6.85603ZM20 12.493V16.1558L15.785 16.1552C15.7587 16.1564 15.7325 16.157 15.7056 16.157C14.6974 16.157 13.8806 15.3366 13.8806 14.3241C13.8806 13.3116 14.6974 12.4911 15.7056 12.4911C15.7325 12.4911 15.7587 12.4917 15.7812 12.493H20ZM15.9187 15.1608C16.3787 15.1608 16.7512 14.7873 16.7531 14.326V14.3228C16.7531 13.8602 16.3793 13.4848 15.9187 13.4848C15.4581 13.4848 15.0843 13.8602 15.0843 14.3228C15.0843 14.7855 15.4581 15.1608 15.9187 15.1608ZM15.5254 6.29736C15.3509 6.73855 15.145 7.1197 14.9012 7.47121H14.9004L14.8885 7.48941L14.9012 7.47121H18.1254V6.29736H15.5254Z" fill="#00E701"/>
</svg>
