<svg width="28" height="28" viewBox="0 0 28 28" fill="none" xmlns="http://www.w3.org/2000/svg">
<path d="M7.82902 26.4446L1.55469 20.2223C1.96924 19.8319 2.22669 19.2797 2.22669 18.6668C2.22669 18.0539 1.96847 17.5017 1.55547 17.112L1.55469 17.1112L17.1102 1.55566C17.5007 1.97022 18.0529 2.22766 18.6658 2.22766C19.2787 2.22766 19.8309 1.96944 20.2206 1.55644L20.2214 1.55566L26.4436 7.83C26.0454 8.21811 25.7988 8.76022 25.7988 9.35989C25.7988 9.95955 26.0454 10.5009 26.4436 10.889L26.4444 10.8898L10.8888 26.4453C10.5007 26.0471 9.95858 25.8006 9.35891 25.8006C8.75924 25.8006 8.21791 26.0471 7.8298 26.4453L7.82902 26.4461V26.4446Z" fill="#B1BAD3"/>
</svg>
