<svg width="28" height="28" viewBox="0 0 28 28" fill="none" xmlns="http://www.w3.org/2000/svg">
<g clip-path="url(#clip0_513_1652)">
<path d="M26.4436 7.08333H7.08235V26.4446H9.47791C9.78902 25.2359 10.8686 24.3578 12.1535 24.3578C13.4384 24.3578 14.5179 25.2367 14.8251 26.4259L14.829 26.4453H18.6969C19.008 25.2367 20.0876 24.3586 21.3725 24.3586C22.6574 24.3586 23.7369 25.2374 24.0441 26.4267L24.048 26.4461H26.4436V7.08333ZM12.4226 21.4878L9.85047 18.8846L11.3228 17.4122L12.4638 18.5532L15.4816 15.5354L16.9026 17.0078L12.4226 21.4878ZM23.6747 19.8078H19.2981V17.7334H23.6747V19.8078ZM23.6747 12.6211H9.85124V10.5468H23.6747V12.6211ZM20.9159 1.55566V4.32455H4.32358V20.9169H1.55469V1.55566H20.9159Z" fill="currentColor"/>
</g>
<defs>
<clipPath id="clip0_513_1652">
<rect width="28" height="28" fill="white"/>
</clipPath>
</defs>
</svg>
