<svg width="200" height="200" viewBox="0 0 200 200" fill="none" xmlns="http://www.w3.org/2000/svg">
<g id="Frame" clip-path="url(#clip0_618_4527)">
<g id="&#233;&#161;&#181;&#233;&#157;&#162;-1">
<g id="&#230;&#154;&#130;&#230;&#151;&#160;&#233;&#128;&#154;&#231;&#159;&#165;">
<path id="&#232;&#183;&#175;&#229;&#190;&#132;" d="M71.1783 183.509L74.4355 178.058L74.4355 125.82H57.2149L71.1783 183.509Z" fill="#263742"/>
<path id="&#232;&#183;&#175;&#229;&#190;&#132;_2" d="M59.4581 121.571H23.2991L42.9049 169.129C46.5181 177.882 54.4565 183.51 63.2048 183.51H71.1699L59.4492 121.571H59.4581Z" fill="#334552"/>
<path id="&#232;&#183;&#175;&#229;&#190;&#132;_3" d="M10.6179 80.8711H72.3008L72.3008 119.109H10.6179C4.76195 119.109 0.000686646 113.882 0.000686646 107.454L0.000686646 92.526C0.000686646 86.0977 4.76195 80.8711 10.6179 80.8711Z" fill="#69E244"/>
<path id="&#232;&#183;&#175;&#229;&#190;&#132;_4" d="M78.6191 71.3662H20.3893C8.26806 71.3662 8.26806 128.615 20.3893 128.615H78.6191L78.6191 71.3662Z" fill="#334552"/>
<path id="&#232;&#183;&#175;&#229;&#190;&#132;_5" d="M170.961 0L78.3787 71.3658C64.7535 71.3658 64.7535 128.615 78.3787 128.615L170.961 199.98L170.961 0Z" fill="#263742"/>
<path id="&#232;&#183;&#175;&#229;&#190;&#132;_6" d="M173.488 199.98C164.455 199.98 156.472 182.913 151.684 156.829C150.136 148.398 148.925 139.039 148.116 128.996C147.92 126.553 147.751 124.091 147.617 121.581C147.208 114.625 146.994 107.415 146.994 100C146.994 92.585 147.208 85.3654 147.617 78.4193C147.751 75.9086 147.929 73.4467 148.116 71.0043C148.925 60.9711 150.136 51.5924 151.693 43.1712C156.463 17.0965 164.455 0.0195313 173.488 0.0195313C188.128 0.0195313 200 44.8027 200 100.01C200 155.217 188.128 200 173.488 200V199.98Z" fill="#334552"/>
<path id="&#232;&#183;&#175;&#229;&#190;&#132;_7" d="M147.618 121.571C147.209 114.615 146.995 107.405 146.995 99.9899C146.995 92.5749 147.209 85.3553 147.618 78.4092L177.912 80.1091L177.912 119.871L147.618 121.571Z" fill="#0C1D29"/>
<path id="&#232;&#183;&#175;&#229;&#190;&#132;_8" d="M177.911 119.871C174.075 119.871 170.96 110.971 170.96 99.9902C170.96 89.0093 174.075 80.1094 177.911 80.1094C181.746 80.1094 184.861 89.0093 184.861 99.9902C184.861 110.971 181.746 119.871 177.911 119.871Z" fill="#69E244"/>
<path id="&#232;&#183;&#175;&#229;&#190;&#132;_9" d="M177.911 119.871C174.075 119.871 170.96 110.971 170.96 99.9902C170.96 89.0093 174.075 80.1094 177.911 80.1094C181.746 80.1094 184.861 89.0093 184.861 99.9902C184.861 110.971 181.746 119.871 177.911 119.871Z" fill="#3C8725"/>
<path id="&#232;&#183;&#175;&#229;&#190;&#132;_10" d="M187.719 99.9901C187.719 96.0628 184.622 92.8779 182.931 92.8779C181.24 92.8779 179.878 96.0628 179.878 99.9901C179.878 103.917 181.249 107.102 182.931 107.102C184.613 107.102 187.719 103.917 187.719 99.9901Z" fill="#69E244"/>
<path id="&#232;&#183;&#175;&#229;&#190;&#132;_11" d="M187.719 99.9901C187.719 96.0628 184.622 92.8779 182.931 92.8779C181.24 92.8779 179.878 96.0628 179.878 99.9901C179.878 103.917 181.249 107.102 182.931 107.102C184.613 107.102 187.719 103.917 187.719 99.9901Z" fill="#69E244"/>
</g>
</g>
</g>
<defs>
<clipPath id="clip0_618_4527">
<rect width="200" height="200" fill="white"/>
</clipPath>
</defs>
</svg>
