<svg width="28" height="28" viewBox="0 0 28 28" fill="none" xmlns="http://www.w3.org/2000/svg">
<path d="M23.6613 26.2664V26.2664C21.4755 28.4522 17.8608 27.7266 15.0463 26.4484C14.4498 26.1774 13.8378 25.8768 13.2025 25.5439C8.797 23.2351 5.00523 19.7783 2.69038 15.376C2.27594 14.5879 1.90148 13.8122 1.56793 13.0577C0.299522 10.1885 -0.446247 6.5432 1.772 4.32495V4.32495C2.60587 3.49106 3.70031 2.91778 4.95115 2.70931C5.47234 2.81353 5.88929 3.12625 6.20198 3.64742V3.69954L8.49515 7.92107C8.96421 8.80704 8.65149 9.95363 7.76551 10.4227L5.57656 12.1947C6.30621 14.4879 7.88967 15.9795 9.92225 18.0641C11.9548 20.0967 13.4463 21.6801 15.7395 22.4097L17.5115 20.1687C17.9805 19.2827 19.1271 18.9178 20.0131 19.3869L24.2868 21.6801C24.86 21.9928 25.1727 22.5139 25.2249 23.1394C25.0164 24.3902 24.4952 25.4325 23.6613 26.2664Z" fill="#1475E1"/>
<path d="M13.5482 12.6452C14.0272 12.6457 14.4864 12.8362 14.825 13.1748C15.1637 13.5135 15.3542 13.9727 15.3547 14.4516C15.3547 14.6912 15.4499 14.9209 15.6192 15.0903C15.7886 15.2597 16.0184 15.3548 16.2579 15.3548C16.4975 15.3548 16.7272 15.2597 16.8966 15.0903C17.066 14.9209 17.1611 14.6912 17.1611 14.4516C17.1601 13.4937 16.7791 12.5754 16.1018 11.8981C15.4245 11.2207 14.5061 10.8398 13.5482 10.8387C13.3087 10.8387 13.079 10.9339 12.9096 11.1033C12.7402 11.2726 12.645 11.5024 12.645 11.7419C12.645 11.9815 12.7402 12.2112 12.9096 12.3806C13.079 12.55 13.3087 12.6452 13.5482 12.6452ZM26.8637 8.82621C25.7589 6.20812 23.9062 3.97415 21.5376 2.40414C19.1691 0.834133 16.3899 -0.00216544 13.5482 4.21094e-06C13.3087 4.21094e-06 13.079 0.095166 12.9096 0.264553C12.7402 0.433939 12.645 0.66368 12.645 0.903229C12.645 1.14278 12.7402 1.37252 12.9096 1.54191C13.079 1.71129 13.3087 1.80645 13.5482 1.80645C20.52 1.80645 26.1934 7.47987 26.1934 14.4516C26.1934 14.6912 26.2885 14.9209 26.4579 15.0903C26.6273 15.2597 26.8571 15.3548 27.0966 15.3548C27.3362 15.3548 27.5659 15.2597 27.7353 15.0903C27.9047 14.9209 27.9998 14.6912 27.9998 14.4516C28.0035 12.5191 27.6171 10.6058 26.8637 8.82621ZM13.5482 7.22581C17.5326 7.22581 20.774 10.4673 20.774 14.4516C20.774 14.6912 20.8692 14.9209 21.0386 15.0903C21.208 15.2597 21.4377 15.3548 21.6773 15.3548C21.9168 15.3548 22.1465 15.2597 22.3159 15.0903C22.4853 14.9209 22.5805 14.6912 22.5805 14.4516C22.5805 13.2655 22.3469 12.091 21.8929 10.9951C21.439 9.89928 20.7737 8.90356 19.935 8.06484C19.0963 7.22612 18.1006 6.56081 17.0047 6.1069C15.9089 5.65299 14.7344 5.41936 13.5482 5.41936C13.3087 5.41936 13.079 5.51452 12.9096 5.6839C12.7402 5.85329 12.645 6.08303 12.645 6.32258C12.645 6.56213 12.7402 6.79187 12.9096 6.96126C13.079 7.13065 13.3087 7.22581 13.5482 7.22581Z" fill="#1475E1"/>
</svg>
