<svg width="28" height="28" viewBox="0 0 28 28" fill="none" xmlns="http://www.w3.org/2000/svg">
<path fill-rule="evenodd" clip-rule="evenodd" d="M27.3783 4.79779C26.6391 3.59799 25.3133 2.79999 23.8013 2.79999H4.20127L3.91987 2.80979C3.25183 2.85438 2.60415 3.0581 2.03086 3.40392C1.45757 3.74975 0.97529 4.22766 0.624268 4.79779L14.0013 13.7158L27.3783 4.79779ZM28 21V7.74898L14.777 16.5648L14.6146 16.6572C14.4232 16.7507 14.213 16.7993 14 16.7993C13.787 16.7993 13.5768 16.7507 13.3854 16.6572L13.223 16.5648L0 7.74898V21L0.00700016 21.2464C0.0698495 22.3158 0.53899 23.3208 1.31843 24.0558C2.09788 24.7907 3.1287 25.2 4.2 25.2H23.8L24.0464 25.193C25.1159 25.1301 26.1209 24.661 26.8558 23.8815C27.5907 23.1021 28.0001 22.0713 28 21Z" fill="#B1BAD3"/>
</svg>
