<svg width="32" height="32" viewBox="0 0 32 32" fill="none" xmlns="http://www.w3.org/2000/svg">
<path d="M16 0C7.163 0 0 7.163 0 16C0 24.837 7.163 32 16 32C24.837 32 32 24.837 32 16C32 7.163 24.837 0 16 0ZM16 20.87C14.462 20.87 13.215 19.623 13.215 18.085C13.215 16.547 14.462 15.3 16 15.3C17.538 15.3 18.785 16.547 18.785 18.085C18.785 19.623 17.538 20.87 16 20.87ZM20.175 11.825C20.175 11.825 20.172 11.825 20.17 11.825C18.632 11.825 17.385 10.578 17.385 9.04C17.385 7.502 18.632 6.255 20.17 6.255C21.708 6.255 22.955 7.502 22.955 9.04C22.955 9.042 22.955 9.045 22.955 9.045C22.955 10.58 21.71 11.825 20.175 11.825ZM26.435 20.175C26.435 20.175 26.432 20.175 26.43 20.175C24.892 20.175 23.645 18.928 23.645 17.39C23.645 15.852 24.892 14.605 26.43 14.605C27.968 14.605 29.215 15.852 29.215 17.39C29.215 18.926 27.971 20.172 26.435 20.175Z" fill="#B1BAD3"/>
</svg>
