<svg width="28" height="28" viewBox="0 0 28 28" fill="none" xmlns="http://www.w3.org/2000/svg">
<path d="M27.9948 2.6735V1.36124C27.9948 0.992939 27.6973 0.69462 27.3299 0.691995H24.6616C24.6389 0.69112 24.6126 0.69112 24.5864 0.69112C24.3773 0.69112 24.1735 0.717366 23.9793 0.765481L23.9968 0.761982V0.670124C23.9968 0.302693 23.6993 0.00524905 23.3319 0.00524905C23.3301 0.00524905 23.3293 0.00524905 23.3275 0.00524905H19.3295C19.2901 0.00174971 19.2438 0 19.1974 0C18.3768 0 17.6883 0.565144 17.4993 1.32713L17.4967 1.33937H16.9674C16.8135 1.15566 16.7067 0.928201 16.6665 0.677998L16.6656 0.670124C16.663 0.302693 16.3647 0.00524905 15.9964 0.00524905H11.3291C10.9862 0.00787356 10.7054 0.2677 10.6686 0.601887V0.604512C10.6686 0.744485 10.3712 1.33937 9.92939 1.33937H8.10098C8.03974 1.26151 7.98638 1.17141 7.94614 1.07605L7.94351 1.06817C7.83591 0.831969 7.60232 0.670999 7.33113 0.670124H0.664875C0.297444 0.672749 0 0.971068 0 1.33937V6.6715C0.0673624 8.38705 0.306193 10.0125 0.699869 11.5767L0.664875 11.4131V12.4235L0.227457 12.861C0.0927326 12.9782 0.00699869 13.147 0 13.3369V16.0016C0 16.0025 0 16.0034 0 16.0034C0 16.1871 0.0752359 16.3542 0.196838 16.474L0.664875 16.9464V19.8946L0.0349934 21.7887C0.0183716 21.8447 0.00874836 21.9094 0.00874836 21.9768C0.00874836 22.0441 0.0183716 22.1089 0.0358683 22.1701L0.0349934 22.1648L0.651753 24.6406L0.0349934 26.4559C0.0131225 26.5189 0.000874836 26.5906 0.000874836 26.6659C0.000874836 27.0324 0.298319 27.3299 0.664875 27.3308H9.99938C10.184 27.329 10.3502 27.2503 10.4674 27.1252L10.5287 27.0639C10.8375 27.5818 11.3711 27.9379 11.9905 27.9991L11.9984 28H13.9974C14.4855 27.9685 14.9334 27.8233 15.3228 27.5906L15.3096 27.5985C15.5108 27.4733 15.7462 27.3815 15.9972 27.3377L16.0095 27.336H19.3426C19.5246 27.329 19.6864 27.2503 19.8019 27.126L19.9638 26.9642L20.0862 27.1217C20.4099 27.5591 20.7511 27.9965 21.3285 27.9965H24.6616C25.0291 27.9965 25.3265 27.6991 25.3265 27.3316V26.8505L27.168 27.2879C27.217 27.301 27.273 27.308 27.3307 27.308C27.4865 27.308 27.6291 27.2538 27.7419 27.1645L27.7402 27.1654C27.8898 27.0456 27.986 26.8662 27.9939 26.6633C27.9939 26.5976 27.9501 20.0574 27.9939 16.6761C27.9939 16.6735 27.9939 16.67 27.9939 16.6665C27.9939 16.481 27.9186 16.3122 27.797 16.1906L27.329 15.7182V12.6912C27.329 12.6877 27.329 12.6842 27.329 12.6807C27.329 12.4918 27.2485 12.3212 27.119 12.2022L26.791 11.8741L27.1934 11.0649L27.7839 10.4788C27.9099 10.3598 27.9895 10.1927 27.9939 10.0072V6.6645C27.9965 6.64088 27.9983 6.61376 27.9983 6.58576C27.9983 6.55777 27.9965 6.53065 27.993 6.50353V6.50703L27.3675 4.08373L27.923 2.97269C27.9668 2.88783 27.993 2.78635 27.993 2.67962C27.993 2.67787 27.993 2.67612 27.993 2.67437L27.9948 2.6735ZM20.0556 5.33737L22.0852 6.6715L21.4072 10.6695L15.9964 6.6715L20.0556 5.33737ZM7.33113 22.6679L4.66725 20.6689L5.9795 16.0016L11.3291 21.3337L7.33113 22.6679ZM21.4641 22.003H18.3716L4.66725 5.95413L7.15616 5.33737L23.3406 17.6813L21.4641 22.003Z" fill="currentColor"/>
</svg>
