<svg width="18" height="18" viewBox="0 0 18 18" fill="none" xmlns="http://www.w3.org/2000/svg">
<path fill-rule="evenodd" clip-rule="evenodd" d="M9 18C13.9706 18 18 13.9706 18 9C18 4.02944 13.9706 0 9 0C4.02944 0 0 4.02944 0 9C0 13.9706 4.02944 18 9 18ZM9.5 3.5C9.5 3.22386 9.27614 3 9 3C8.72386 3 8.5 3.22386 8.5 3.5V4.5H7C6.44772 4.5 6 4.94772 6 5.5V7.5C6 8.05228 6.44772 8.5 7 8.5H8.5V9.5H7C6.44772 9.5 6 9.94772 6 10.5V12.5C6 13.0523 6.44772 13.5 7 13.5H8.5V14.5C8.5 14.7761 8.72386 15 9 15C9.27614 15 9.5 14.7761 9.5 14.5V13.5H11C11.5523 13.5 12 13.0523 12 12.5V10.5C12 9.94772 11.5523 9.5 11 9.5H9.5V8.5H11C11.5523 8.5 12 8.05228 12 7.5V5.5C12 4.94772 11.5523 4.5 11 4.5H9.5V3.5Z" fill="currentColor"/>
</svg>
