<svg width="28" height="28" viewBox="0 0 28 28" fill="none" xmlns="http://www.w3.org/2000/svg">
<path d="M5.07297 0C4.72034 0.000875 4.43509 0.286125 4.43509 0.63875C4.43509 0.78225 4.48234 0.914375 4.56197 1.02113L4.56109 1.01937L6.34609 3.395V24.605L3.91797 26.9806C3.83834 27.0865 3.79109 27.2204 3.79109 27.3656C3.79109 27.4689 3.81559 27.5669 3.85847 27.6535L3.85672 27.65C3.96434 27.8591 4.17872 28 4.42547 28H22.888C22.888 28 22.8888 28 22.8897 28C23.091 28 23.2695 27.9064 23.3858 27.7603L26.5673 24.5788C26.6548 24.4711 26.7082 24.332 26.7082 24.1806C26.7082 23.8306 26.4238 23.5462 26.0738 23.5462H12.7073V0.634375C12.7073 0.284375 12.423 0 12.073 0H5.07297ZM13.9805 2.54625V3.81937C13.9857 3.81937 13.9918 3.81937 13.998 3.81937C20.3137 3.81937 25.4342 8.93987 25.4342 15.2556C25.4342 17.9121 24.5286 20.3569 23.0087 22.2985L23.028 22.2731H24.5986C25.9198 20.3 26.7082 17.8719 26.7082 15.26C26.7082 8.23813 21.0163 2.54625 13.9945 2.54625C13.9901 2.54625 13.9848 2.54625 13.9805 2.54625ZM13.9805 5.0925V22.2731H21.3567C23.0936 20.4522 24.1628 17.9813 24.1628 15.26C24.1628 9.64425 19.6111 5.0925 13.9953 5.0925C13.9901 5.0925 13.9857 5.0925 13.9805 5.0925ZM5.07297 6.19938C2.88372 8.35013 1.47234 11.2858 1.29472 14.5495L1.29297 14.5819C1.29297 14.8094 1.29297 15.0413 1.29297 15.2731C1.29297 15.6494 1.29297 16.0212 1.34109 16.3888C1.62634 19.5265 3.01497 22.2959 5.10972 24.3442L5.11234 24.3469V22.4569C3.52684 20.5135 2.56609 18.0058 2.56609 15.2731C2.56609 12.5405 3.52684 10.0327 5.12897 8.06837L5.11234 8.08937L5.07297 6.19938ZM5.07297 10.3556C4.27147 11.7731 3.79984 13.468 3.79984 15.2731C3.79984 17.0782 4.27234 18.7731 5.09922 20.2414L5.07297 20.1906V10.3556Z" fill="currentColor"/>
</svg>
