<svg width="36" height="36" viewBox="0 0 36 36" xmlns="http://www.w3.org/2000/svg">
<path d="M6.88 6.496C9.755 3.714 13.677 2 18 2C21.446 2 24.638 3.089 27.249 4.943L27.199 4.91C27.012 5.35 26.826 5.777 26.612 6.243C26.398 6.709 26.292 6.87 26.105 7.19C23.02 6.003 19.45 5.315 15.72 5.315C15.326 5.315 14.933 5.323 14.543 5.338L14.599 5.336C11.784 5.488 9.143 5.902 6.598 6.557L6.88 6.496ZM3.8 10.616C7.019 9.467 10.745 8.691 14.615 8.449L14.733 8.443C15.114 8.424 15.559 8.413 16.008 8.413C19.02 8.413 21.914 8.912 24.615 9.832L24.427 9.776C23.974 10.443 23.467 11.109 22.934 11.789C20.743 11.368 18.224 11.127 15.649 11.127C14.205 11.127 12.778 11.203 11.373 11.35L11.548 11.335C8.279 11.673 5.291 12.331 2.439 13.288L2.735 13.202C3.054 12.198 3.415 11.342 3.844 10.526L3.801 10.615L3.8 10.616ZM34 19.216C33.132 20.164 32.227 21.035 31.27 21.847L31.227 21.883C30.84 21.043 30.414 20.216 29.894 19.39C31.257 17.992 32.499 16.462 33.594 14.826L33.667 14.71C33.879 15.7 34 16.837 34 18.003C34 18.416 34 18.816 34 19.216ZM32.333 10.883L32.186 11.15C31.022 13.269 29.695 15.098 28.17 16.741L28.186 16.723C27.333 15.643 26.533 14.563 25.599 13.496C26.975 11.774 28.233 9.839 29.294 7.785L29.386 7.589C29.479 7.402 29.573 7.229 29.653 7.042C30.696 8.148 31.589 9.412 32.291 10.79L32.333 10.882V10.883ZM30.16 28.403C28.519 30.318 26.459 31.825 24.119 32.791L24.013 32.83C23.188 31.589 22.396 30.159 21.719 28.665L21.64 28.47C19.786 24.375 18.336 19.616 17.525 14.642L17.48 14.31C19.464 14.437 21.293 14.678 23.08 15.034L22.814 14.99C25.252 17.596 27.277 20.629 28.758 23.957L28.84 24.164C29.341 25.349 29.795 26.766 30.127 28.228L30.16 28.403ZM2 16.736C3.08 16.336 4.16 15.989 5.227 15.683C5.373 19.942 6.231 23.958 7.685 27.676L7.6 27.43C8.196 29.07 8.767 30.39 9.402 31.672L9.293 31.43C4.876 28.534 2 23.606 2 18.006C2 18.005 2 18.004 2 18.003C2 17.576 2 17.163 2 16.736ZM14.267 14.243C15.18 20.052 16.761 25.271 18.957 30.154L18.8 29.763C19.524 31.359 20.222 32.671 20.991 33.936L20.893 33.763C20.065 33.916 19.112 34.004 18.139 34.004C18.09 34.004 18.041 34.004 17.992 34.003H18C16.607 34 15.256 33.825 13.966 33.498L14.08 33.522C12.728 31.463 11.545 29.099 10.647 26.598L10.573 26.362C9.226 22.972 8.427 19.046 8.386 14.939V14.922C9.55933 14.6907 10.7193 14.5173 11.866 14.402C12.666 14.322 13.479 14.269 14.319 14.242L14.267 14.243Z" />
</svg>
