<svg width="28" height="28" viewBox="0 0 28 28" fill="none" xmlns="http://www.w3.org/2000/svg">
<path d="M7.24405 7.31681C8.1087 6.83197 8.68367 5.92094 8.68367 4.87602C8.68367 3.33575 7.43483 2.08691 5.89457 2.08691C4.35431 2.08691 3.10547 3.33575 3.10547 4.87602C3.10547 5.40198 3.25162 5.89469 3.50454 6.31389L3.49754 6.30163C3.98937 7.12515 4.8759 7.66862 5.89019 7.66862C6.38728 7.66862 6.85373 7.53822 7.25718 7.30981L7.24405 7.31681Z" fill="currentColor"/>
<path d="M8.69001 10.6425L3.42773 13.6767L4.99163 16.3958L15.6685 10.2111L14.1168 7.51564C13.5655 6.57222 12.5573 5.94824 11.4038 5.94824C9.67455 5.94824 8.27256 7.35023 8.27256 9.07953C8.27256 9.65538 8.42746 10.1945 8.69876 10.6583L8.69088 10.6434L8.69001 10.6425Z" fill="currentColor"/>
<path d="M24.2445 11.7743L20.7439 7.86497L19.7987 8.39006L16.5782 2.80048L17.5347 2.25176L16.4495 0.385066L15.493 0.933785L14.9565 0L13.0898 1.08519L20.5111 13.9324L24.2454 11.7734L24.2445 11.7743Z" fill="currentColor"/>
<path d="M24.8164 14.3761L14.3146 20.4321L12.833 17.8767L15.5748 16.3364C16.5252 15.7877 17.1545 14.7769 17.1545 13.619C17.1545 13.0476 17.0013 12.512 16.7335 12.0508L16.7414 12.0657L11.3041 15.1698C10.351 15.7177 9.71918 16.7302 9.71918 17.8907C9.71918 18.4656 9.87408 19.0047 10.1454 19.4677L10.1375 19.4528L11.6664 21.9969L7.12699 24.5987C6.83207 24.7737 6.47675 24.877 6.09781 24.877C5.34431 24.877 4.6862 24.4692 4.33176 23.8618L4.32651 23.8522L1.60742 25.4161C2.5237 26.9721 4.18999 28.0004 6.09694 28.0004C7.05173 28.0004 7.94613 27.7431 8.71451 27.2933L8.69001 27.3064L26.3917 17.096L24.8164 14.3761Z" fill="currentColor"/>
</svg>
