<svg width="28" height="28" viewBox="0 0 28 28" fill="none" xmlns="http://www.w3.org/2000/svg">
<path d="M25.6181 2.38013C22.4446 -0.793375 17.2998 -0.793375 14.1272 2.38013C12.7859 3.72145 12.0273 5.83362 11.8059 7.12857C11.4559 9.15849 10.3823 11.6434 9.0174 12.682C8.60879 12.892 8.2238 13.172 7.88607 13.5219C6.45112 14.9569 6.15976 17.1032 6.99973 18.8304L0 25.8301L2.16992 28L9.16964 21.0003C10.9082 21.8402 13.0431 21.5489 14.4781 20.1139C14.8167 19.7753 15.0967 19.3903 15.318 18.9826C16.368 17.6177 19.3429 16.5091 20.8592 16.1827C22.5741 15.8091 24.2891 15.2027 25.619 13.8728C28.7925 10.6993 28.7925 5.5545 25.619 2.38188L25.6181 2.38013ZM23.1446 4.85365C24.2532 5.96224 24.6732 7.50218 24.4159 8.94849L19.0498 3.58233C19.3184 3.53596 19.5861 3.50096 19.8661 3.50096C21.1024 3.50096 22.2696 3.97956 23.1446 4.85453V4.85365ZM22.0133 12.1684L15.8421 5.99723C16.0635 5.55363 16.3085 5.13364 16.5885 4.8659C16.6585 4.79591 16.7521 4.73728 16.8335 4.66729L23.3432 11.177C23.2732 11.2584 23.2268 11.3407 23.1446 11.422C22.8532 11.7134 22.4796 11.9706 22.0133 12.1806V12.1684ZM12.5286 16.8696L12.3536 17.1032L12.2136 17.3718C12.155 17.4768 12.085 17.5704 12.0037 17.6632C11.7 17.9668 11.3623 18.0018 11.1751 18.0018C10.9878 18.0018 10.6501 17.9554 10.3465 17.6632C10.0429 17.3595 10.0079 17.0218 10.0079 16.8346C10.0079 16.6473 10.0542 16.3096 10.3465 16.006C10.4278 15.9246 10.5328 15.8546 10.6378 15.796L10.8942 15.656L11.1278 15.481C13.2391 13.8711 14.5227 10.8962 15.0713 8.53988L19.4811 12.9497C18.0112 13.3461 14.3127 14.5483 12.5278 16.8809L12.5286 16.8696Z" fill="currentColor"/>
<path d="M18.9563 20.3805C17.0078 21.5119 16.3314 24.009 17.4628 25.9567C18.5941 27.9044 21.0912 28.5816 23.0389 27.4503C24.9866 26.3189 25.6638 23.8218 24.5325 21.8741C23.4012 19.9264 20.904 19.2492 18.9563 20.3805Z" fill="currentColor"/>
</svg>
