<svg width="36" height="36" viewBox="0 0 36 36" xmlns="http://www.w3.org/2000/svg">
<path d="M17.7598 2C18.1918 3.212 18.6408 4.224 19.1558 5.197L19.0928 5.067L20.5458 4.414C20.7258 4.317 20.9398 4.26 21.1678 4.26C21.9038 4.26 22.5008 4.857 22.5008 5.593C22.5008 6.16 22.1468 6.644 21.6488 6.837L21.6398 6.84L20.4268 7.387C21.3098 8.715 22.2218 9.873 23.2178 10.953L23.1998 10.934L25.1198 9.001C25.3618 8.759 25.6968 8.609 26.0668 8.609C26.8058 8.609 27.4058 9.208 27.4058 9.948C27.4058 10.318 27.2558 10.652 27.0138 10.895L25.0408 12.828C25.9998 13.717 27.0448 14.55 28.1488 15.302L28.2408 15.361L28.8138 14.028C29.0368 13.549 29.5138 13.223 30.0668 13.223C30.8278 13.223 31.4448 13.84 31.4448 14.601C31.4448 14.809 31.3988 15.006 31.3168 15.183L31.3208 15.175L30.6008 16.748C31.5468 17.265 32.6658 17.761 33.8268 18.166L33.9878 18.215C33.9878 18.148 33.9878 18.082 33.9878 18.002C33.9878 9.165 26.8248 2.002 17.9878 2.002L17.7598 2Z" />
<path d="M29.453 19.1466L28.746 20.6666C28.532 21.1336 28.07 21.4516 27.533 21.4536C27.335 21.4526 27.147 21.4086 26.978 21.3306L26.986 21.3336C26.52 21.1186 26.203 20.6556 26.203 20.1186C26.203 19.9206 26.246 19.7336 26.323 19.5646L26.32 19.5726L27.133 17.7456C25.633 16.7616 24.327 15.7436 23.109 14.6306L23.133 14.6526L22.266 15.5196C22.026 15.7576 21.697 15.9046 21.333 15.9066C21.331 15.9066 21.328 15.9066 21.325 15.9066C20.959 15.9066 20.627 15.7586 20.386 15.5196C20.146 15.2786 19.998 14.9466 19.998 14.5796C19.998 14.2126 20.146 13.8806 20.386 13.6396L21.239 12.7726C20.086 11.5026 19.014 10.1086 18.062 8.6316L17.986 8.5056L16.093 9.3586C15.933 9.4336 15.745 9.4776 15.547 9.4786C15.537 9.4786 15.524 9.4786 15.512 9.4786C14.776 9.4786 14.179 8.8816 14.179 8.1456C14.179 7.6096 14.496 7.1466 14.952 6.9356L14.96 6.9326L16.653 6.1596C16.085 5.0646 15.56 3.7746 15.15 2.4336L15.106 2.2666C8.56295 3.4976 3.48395 8.5766 2.26795 15.0206L2.25195 15.1196C3.75995 15.5726 5.05095 16.0986 6.27795 16.7286L6.14495 16.6666L6.91795 14.9736C7.14595 14.5466 7.58895 14.2616 8.09795 14.2616C8.83395 14.2616 9.43095 14.8586 9.43095 15.5946C9.43095 15.7646 9.39895 15.9266 9.34195 16.0756L9.34495 16.0666L8.49195 17.9996C10.114 19.0466 11.525 20.1396 12.836 21.3406L12.812 21.3196L13.679 20.4666C13.911 20.2676 14.214 20.1456 14.546 20.1456C15.282 20.1456 15.879 20.7426 15.879 21.4786C15.879 21.8106 15.758 22.1146 15.557 22.3476L15.558 22.3456L14.705 23.2126C15.811 24.4036 16.83 25.7106 17.731 27.1016L17.799 27.2126L19.612 26.3996C19.838 26.2186 20.127 26.1096 20.442 26.1096C21.178 26.1096 21.775 26.7066 21.775 27.4426C21.775 28.1046 21.292 28.6546 20.659 28.7586L20.651 28.7596L19.078 29.4666C19.723 30.6736 20.312 32.0866 20.765 33.5596L20.811 33.7336C27.354 32.5026 32.433 27.4236 33.649 20.9796L33.665 20.8806C32.033 20.3686 30.638 19.7806 29.312 19.0806L29.451 19.1476L29.453 19.1466Z" />
<path d="M18.2 34.0004C17.75 32.6584 17.254 31.5224 16.673 30.4374L16.733 30.5604L15.16 31.3334C15 31.4084 14.812 31.4524 14.614 31.4534C14.602 31.4534 14.589 31.4544 14.575 31.4544C13.839 31.4544 13.242 30.8574 13.242 30.1214C13.242 29.5734 13.573 29.1024 14.045 28.8974L14.054 28.8944L15.387 28.3214C14.576 27.1254 13.743 26.0804 12.838 25.1044L12.854 25.1214L10.894 26.9884C10.658 27.2034 10.343 27.3354 9.997 27.3354C9.994 27.3354 9.99 27.3354 9.987 27.3354C9.985 27.3354 9.983 27.3354 9.98 27.3354C9.614 27.3354 9.282 27.1874 9.041 26.9484C8.797 26.7064 8.647 26.3714 8.647 26.0014C8.647 25.6314 8.798 25.2964 9.041 25.0544L10.974 23.1344C9.906 22.1724 8.735 21.2724 7.496 20.4674L7.387 20.4014L6.84 21.6144C6.626 22.0814 6.164 22.3994 5.627 22.4014C5.429 22.4004 5.241 22.3564 5.072 22.2784L5.08 22.2814C4.614 22.0664 4.297 21.6034 4.297 21.0664C4.297 20.8684 4.34 20.6814 4.417 20.5124L4.414 20.5204L5.067 19.0674C4.225 18.6154 3.213 18.1654 2.167 17.7864L2 17.7334C2 17.8134 2 17.8804 2 17.9604C2 17.9724 2 17.9864 2 18.0004C2 26.8324 9.156 33.9924 17.986 34.0004H18.2Z" />
</svg>
