<svg width="39" height="36" viewBox="0 0 39 36" xmlns="http://www.w3.org/2000/svg">
<path d="M33.84 12.357C31.684 12.359 29.91 13.99 29.682 16.085L29.68 16.104L26.44 16.971C25.976 16.374 25.363 15.915 24.655 15.647L24.627 15.638V12.105C26.194 11.472 27.28 9.963 27.28 8.2C27.28 5.88 25.4 4 23.08 4C20.76 4 18.88 5.88 18.88 8.2C18.88 9.963 19.966 11.472 21.505 12.095L21.533 12.105V15.532C21.161 15.677 20.84 15.861 20.551 16.085L20.56 16.078L14.4 12.718C14.403 12.664 14.405 12.601 14.405 12.538C14.405 12.475 14.403 12.412 14.4 12.349V12.358C14.4 10.038 12.52 8.158 10.2 8.158C7.88 8.158 6 10.038 6 12.358C6 14.678 7.88 16.558 10.2 16.558C11.271 16.556 12.245 16.146 12.976 15.475L12.973 15.478L18.946 18.771C18.936 18.875 18.931 18.996 18.931 19.118C18.931 19.24 18.936 19.361 18.947 19.48L18.946 19.465C18.948 20.047 19.065 20.601 19.277 21.107L19.266 21.079L14.599 25.612C14.095 25.371 13.504 25.229 12.88 25.225H12.879C12.855 25.225 12.827 25.224 12.799 25.224C10.472 25.224 8.586 27.11 8.586 29.437C8.586 31.764 10.472 33.65 12.799 33.65C15.126 33.65 17.012 31.764 17.012 29.437C17.013 29.403 17.014 29.363 17.014 29.324C17.014 28.768 16.901 28.239 16.696 27.758L16.706 27.784L21.373 23.251C21.875 23.487 22.463 23.624 23.084 23.624C23.087 23.624 23.09 23.624 23.094 23.624C23.499 23.621 23.889 23.558 24.256 23.443L24.228 23.451L25.561 25.518C25.095 26.18 24.816 27.003 24.814 27.891C24.814 27.895 24.814 27.9 24.814 27.904C24.814 30.231 26.7 32.117 29.027 32.117C31.354 32.117 33.24 30.231 33.24 27.904C33.24 25.577 31.354 23.691 29.027 23.691C28.71 23.692 28.402 23.731 28.107 23.803L28.134 23.797L26.667 21.57C26.96 21.097 27.159 20.536 27.225 19.935L27.227 19.917L30.48 19.05C31.252 20.105 32.487 20.783 33.879 20.783C36.199 20.783 38.079 18.903 38.079 16.583C38.079 14.263 36.199 12.383 33.879 12.383C33.865 12.383 33.851 12.383 33.838 12.383H33.84V12.357Z" />
</svg>
