<svg width="36" height="36" viewBox="0 0 36 36" xmlns="http://www.w3.org/2000/svg">
<path d="M20.306 32.334L12.773 24.801C12.533 24.56 12.385 24.228 12.385 23.861C12.385 23.494 12.533 23.162 12.773 22.921C13.014 22.681 13.346 22.533 13.713 22.533C14.08 22.533 14.412 22.681 14.653 22.921L18.426 26.694L19.373 25.747L13.706 20.094C13.464 19.852 13.314 19.517 13.314 19.147C13.314 18.408 13.913 17.808 14.653 17.808C15.023 17.808 15.357 17.958 15.6 18.2L21.253 23.867L22.2 22.92L17.48 18.2C17.24 17.959 17.092 17.627 17.092 17.26C17.092 16.893 17.24 16.561 17.48 16.32C17.719 16.092 18.043 15.952 18.4 15.952C18.764 15.952 19.093 16.098 19.334 16.334L26.867 23.881L27.814 22.934L24.987 20.107C24.743 19.865 24.593 19.53 24.593 19.16C24.593 18.79 24.744 18.455 24.987 18.213C25.228 17.973 25.56 17.825 25.927 17.825C26.294 17.825 26.626 17.973 26.867 18.213L30.64 21.986C31.529 23.148 32.11 24.589 32.238 26.157L32.24 26.186C33.339 24.099 33.989 21.626 34 19.003V19C34 10.163 26.837 3 18 3C9.163 3 2 10.163 2 19C2 27.837 9.163 35 18 35C18.002 35 18.005 35 18.007 35C19.813 35 21.548 34.697 23.164 34.14L23.053 34.173C21.997 33.685 21.09 33.069 20.301 32.328L20.306 32.334Z" />
</svg>
