<svg width="28" height="28" viewBox="0 0 28 28" fill="none" xmlns="http://www.w3.org/2000/svg">
<path d="M14 0C6.26762 0 0 6.26762 0 14C0 21.7324 6.26762 28 14 28C21.7324 28 28 21.7324 28 14C28 6.26762 21.7324 0 14 0ZM14 18.2613C12.6543 18.2613 11.5631 17.1701 11.5631 15.8244C11.5631 14.4786 12.6543 13.3875 14 13.3875C15.3457 13.3875 16.4369 14.4786 16.4369 15.8244C16.4369 17.1701 15.3457 18.2613 14 18.2613ZM17.6531 10.3469C17.6531 10.3469 17.6505 10.3469 17.6488 10.3469C16.303 10.3469 15.2119 9.25575 15.2119 7.91C15.2119 6.56425 16.303 5.47312 17.6488 5.47312C18.9945 5.47312 20.0856 6.56425 20.0856 7.91C20.0856 7.91175 20.0856 7.91438 20.0856 7.91438C20.0856 9.2575 18.9963 10.3469 17.6531 10.3469ZM23.1306 17.6531C23.1306 17.6531 23.128 17.6531 23.1263 17.6531C21.7805 17.6531 20.6894 16.562 20.6894 15.2162C20.6894 13.8705 21.7805 12.7794 23.1263 12.7794C24.472 12.7794 25.5631 13.8705 25.5631 15.2162C25.5631 16.5602 24.4746 17.6505 23.1306 17.6531Z" fill="currentColor"/>
</svg>
