<svg width="36" height="36" viewBox="0 0 36 36" fill="none" xmlns="http://www.w3.org/2000/svg">
<path d="M27.1953 15.002C27.1973 15.012 27.1993 15.023 27.1993 15.035C27.1993 15.047 27.1983 15.058 27.1953 15.069V15.002Z" fill="#B1BAD3"/>
<path d="M25.6225 22.6819C26.6935 20.9869 27.3295 18.9239 27.3295 16.7119C27.3295 16.1319 27.2855 15.5619 27.2015 15.0059L27.2095 15.0689L15.0625 27.2159C15.5395 27.2919 16.0885 27.3359 16.6475 27.3359C16.6525 27.3359 16.6575 27.3359 16.6625 27.3359C16.6665 27.3359 16.6695 27.3359 16.6745 27.3359C18.8995 27.3359 20.9745 26.6899 22.7205 25.5759L22.6755 25.6029L29.9955 34.0029L33.9955 30.0029L25.6225 22.6819Z" fill="#B1BAD3"/>
<path d="M22.863 6.46873C17.53 1.13573 9.52999 0.481729 5.00999 5.01573C0.489987 9.54973 1.12999 17.5357 6.46299 22.8687C8.08799 24.4887 10.08 25.7417 12.303 26.4907L12.41 26.5217L26.557 12.4287C25.764 10.0917 24.499 8.09573 22.864 6.46973L22.863 6.46873ZM8.66299 18.0017C6.45399 18.0017 4.66299 16.2107 4.66299 14.0017C4.66299 11.7927 6.45399 10.0017 8.66299 10.0017C10.872 10.0017 12.663 11.7927 12.663 14.0017C12.663 16.2107 10.872 18.0017 8.66299 18.0017Z" fill="#B1BAD3"/>
</svg>
