<svg width="36" height="36" viewBox="0 0 36 36" xmlns="http://www.w3.org/2000/svg">
<path d="M31.892 33.8962L31.812 33.7892L31.665 33.5892L31.532 33.4162L31.319 33.1362L30.866 32.5492L30.573 32.1622L30.32 31.8422L29.96 31.3892L29.693 31.0422L29.333 30.5352C29.333 30.4552 29.213 30.3882 29.16 30.3222L28.16 29.1092L27.88 28.7762L27.4 28.2292L27.08 27.8562L26.6 27.3232L26.253 26.9502L25.786 26.4572L25.333 26.0842L24.866 25.6312C24.757 25.5132 24.644 25.4042 24.525 25.3022L24.52 25.2972L24.08 24.8842L23.813 24.6572L23.4 24.3102C23.173 24.1372 22.96 23.9902 22.747 23.8572C22.563 23.7322 22.353 23.6162 22.132 23.5202L22.107 23.5102C21.943 23.4292 21.751 23.3802 21.548 23.3772C21.492 23.3692 21.426 23.3652 21.36 23.3652C21.294 23.3652 21.229 23.3692 21.166 23.3782L21.173 23.3772L21.013 23.4442L20.733 23.5642L20.253 23.8312L19.933 24.0312C19.666 24.2042 19.373 24.4182 19.08 24.6442L18.96 24.7242C16.804 26.4462 14.878 28.1692 13.052 29.9922L12.68 30.3642L11.587 29.6972C10.814 29.2442 9.747 28.6172 8.8 28.1642C8.27 27.8492 7.652 27.6172 6.993 27.5022L6.96 27.4972C6.92 27.4902 6.874 27.4872 6.827 27.4872C6.78 27.4872 6.734 27.4912 6.689 27.4982L6.694 27.4972C5.783 28.0712 4.995 28.7242 4.3 29.4642L4.294 29.4702C3.121 30.6032 1.854 31.9632 1.027 32.8572L0 33.9902H32L31.892 33.8962Z" />
<path d="M11.4116 11.3231C10.4016 11.4221 9.51458 11.5591 8.64258 11.7391L8.81158 11.7101C8.84458 14.7921 9.44358 17.7251 10.5096 20.4221L10.4516 20.2571C11.1906 22.2951 12.0906 24.0551 13.1756 25.6811L13.1186 25.5901C13.5086 25.6961 13.9956 25.7941 14.4936 25.8631L14.5586 25.8701C15.5316 24.9771 16.3716 24.2701 17.0916 23.6971C16.9446 23.3901 16.7986 23.1101 16.6516 22.7901C15.1346 19.4311 13.9616 15.5291 13.3246 11.4491L13.2916 11.1901C12.6246 11.1631 11.9986 11.1901 11.4116 11.3231Z" />
<path d="M19.6912 9.34923C20.0912 8.84223 20.4513 8.34923 20.7983 7.84223C18.9012 7.17023 16.7143 6.78223 14.4363 6.78223C14.1273 6.78223 13.8202 6.78923 13.5152 6.80323L13.5583 6.80123C10.5573 6.98623 7.75425 7.56723 5.11325 8.49423L5.33125 8.42723C5.04325 8.96923 4.77125 9.60923 4.55525 10.2732L4.53125 10.3602C6.46425 9.69523 8.72425 9.19223 11.0602 8.94523L11.1972 8.93323C12.0322 8.85223 13.0013 8.80523 13.9823 8.80523C16.0013 8.80523 17.9743 9.00223 19.8833 9.37823L19.6903 9.34623L19.6912 9.34923Z" />
<path d="M9.53205 24.0028C9.11805 23.2158 8.66905 22.2228 8.27205 21.2038L8.19805 20.9898C7.19905 18.3928 6.58105 15.3898 6.49205 12.2548L6.49105 12.2168C5.69105 12.4438 4.89105 12.6968 4.07805 13.0038C3.99805 13.3108 3.99805 13.6308 3.99805 13.9908C4.03205 18.1808 6.20905 21.8548 9.48405 23.9758L9.53105 24.0038L9.53205 24.0028Z" />
<path d="M23.5857 12.9886C24.7547 11.7776 25.7757 10.4116 26.6137 8.92855L26.6657 8.82856C26.6677 8.80256 26.6687 8.77255 26.6687 8.74155C26.6687 8.71055 26.6677 8.68055 26.6657 8.65055V8.65455C26.1127 7.55155 25.4457 6.60355 24.6597 5.76855L24.6657 5.77455C24.6067 5.93355 24.5387 6.06955 24.4597 6.19755L24.4657 6.18755C23.6047 7.86855 22.6657 9.31455 21.5977 10.6546L21.6387 10.6016C22.3717 11.3216 23.0117 12.1746 23.5857 12.9886Z" />
<path d="M25.851 16.8687C26.599 16.2367 27.274 15.5787 27.9 14.8757L27.917 14.8557C27.917 14.5487 27.917 14.2557 27.917 13.9487C27.914 13.0837 27.822 12.2407 27.649 11.4287L27.663 11.5087C26.786 12.8157 25.856 13.9577 24.832 15.0067L24.837 15.0017C25.159 15.5107 25.496 16.1227 25.8 16.7537L25.851 16.8687Z" />
<path d="M22.0655 5.829L22.4385 5.122C22.5855 4.802 22.7455 4.482 22.8785 4.162C20.9625 2.809 18.5795 2 16.0075 2C12.7775 2 9.8455 3.276 7.6875 5.352L7.6915 5.348C9.3875 4.899 11.3625 4.59 13.3925 4.484L13.4645 4.481C13.7485 4.468 14.0815 4.46 14.4155 4.46C17.1615 4.46 19.7905 4.961 22.2165 5.878L22.0645 5.828L22.0655 5.829Z" />
<path d="M18.9593 22.2694C19.6593 21.7214 20.5363 21.3694 21.4933 21.3104L21.5063 21.3094C22.5953 21.4224 23.5653 21.8574 24.3403 22.5154L24.3333 22.5094C24.5863 22.2564 24.8533 21.9894 25.0933 21.7224C24.8033 20.4924 24.4513 19.4344 24.0173 18.4184L24.0673 18.5494C22.8953 15.9084 21.3773 13.6424 19.5353 11.6834L19.5473 11.6964C18.4203 11.4604 17.0723 11.2804 15.6983 11.1944L15.6133 11.1904C16.2293 15.1474 17.2943 18.7034 18.7743 22.0344L18.6663 21.7634C18.7993 21.9904 18.8793 22.0964 18.9593 22.2704V22.2694Z" />
</svg>
