<svg width="36" height="36" viewBox="0 0 36 36" fill="none" xmlns="http://www.w3.org/2000/svg">
<path d="M9.681 29.999H29.001V31.332C29.001 32.805 27.807 33.999 26.334 33.999H12.347C10.874 33.999 9.68 32.805 9.68 31.332L9.681 29.999ZM31.667 11.332V19.332L29 27.332H9.68L5 19.332V9.999C5.056 9.25 5.678 8.663 6.436 8.663C6.465 8.663 6.495 8.664 6.524 8.666H6.52H9V7.333C9 5.124 10.791 3.333 13 3.333H16.707C17.438 2.518 18.492 2.006 19.666 2H21.001C22.176 2.006 23.23 2.519 23.958 3.33L23.961 3.334H27.668C29.877 3.334 31.668 5.125 31.668 7.334V11.334L31.667 11.332ZM11.667 8.666H15.667V5.999H13C12.264 5.999 11.667 6.596 11.667 7.332V8.666ZM15.667 11.332H7.667V13.999H13C14.473 13.999 15.667 12.805 15.667 11.332ZM22.334 5.999C22.334 5.263 21.737 4.666 21.001 4.666H19.668C18.932 4.666 18.335 5.263 18.335 5.999V13.999C18.335 14.735 18.932 15.332 19.668 15.332H21.001C21.737 15.332 22.334 14.735 22.334 13.999V5.999ZM29.001 7.332C29.001 6.596 28.404 5.999 27.668 5.999H25.001V13.999C24.997 14.478 24.909 14.936 24.752 15.36L24.761 15.332H26.334C27.807 15.332 29.001 14.138 29.001 12.665V7.332Z" fill="#B1BAD3"/>
</svg>
