<svg width="28" height="28" viewBox="0 0 28 28" fill="none" xmlns="http://www.w3.org/2000/svg">
<path d="M17.9633 6.81519C18.3638 7.05097 18.8468 7.19034 19.3613 7.19034C20.9039 7.19034 22.1547 5.93957 22.1547 4.39693C22.1547 2.85428 20.9039 1.60352 19.3613 1.60352C18.3358 1.60352 17.4391 2.15659 16.9535 2.9805L16.9465 2.99365C16.7116 3.39508 16.5723 3.87804 16.5723 4.39254C16.5723 5.42068 17.1253 6.31909 17.9501 6.8073L17.9633 6.81432V6.81519Z" fill="currentColor"/>
<path d="M22.7299 14.7389L23.2558 13.1612L21.3511 12.5301C19.4342 11.7859 17.9696 10.2442 17.3446 8.32374L17.3315 8.27641C17.2947 7.39202 16.845 6.61982 16.171 6.14388L16.1622 6.13775L15.9168 5.97384C15.4812 5.66443 14.9386 5.47949 14.3523 5.47949C13.4389 5.47949 12.6299 5.92914 12.1356 6.61982L12.1303 6.62771L7.77148 12.8447L8.93986 13.6511L12.4459 17.0055V23.936H15.3672V15.7556L13.7895 14.248L15.7178 11.5133C16.732 13.1287 18.1966 14.3786 19.9356 15.1026L19.9952 15.1245C17.8188 16.0072 16.3121 18.1046 16.3121 20.5536C16.3121 23.7808 18.9285 26.3972 22.1557 26.3972C25.383 26.3972 27.9994 23.7808 27.9994 20.5536C27.9994 17.5288 25.7012 15.0404 22.7553 14.7406L22.7299 14.7389ZM22.204 24.0298C20.2678 24.0298 18.698 22.46 18.698 20.5238C18.698 18.5876 20.2678 17.0178 22.204 17.0178C24.1401 17.0178 25.71 18.5876 25.71 20.5238C25.71 22.46 24.1401 24.0298 22.204 24.0298Z" fill="currentColor"/>
<path d="M5.84363 14.6807C2.61636 14.6807 0 17.297 0 20.5243C0 23.7516 2.61636 26.3679 5.84363 26.3679C9.07091 26.3679 11.6873 23.7516 11.6873 20.5243C11.6873 17.297 9.07091 14.6807 5.84363 14.6807ZM5.84363 24.0294C3.90744 24.0294 2.33763 22.4596 2.33763 20.5234C2.33763 18.5872 3.90744 17.0174 5.84363 17.0174C7.77983 17.0174 9.34964 18.5872 9.34964 20.5234C9.34964 22.4596 7.77983 24.0294 5.84363 24.0294Z" fill="currentColor"/>
</svg>
