<svg width="36" height="36" viewBox="0 0 36 36" fill="none" xmlns="http://www.w3.org/2000/svg">
<path d="M16.616 13.377C17.027 12.954 17.596 12.687 18.228 12.672H18.231C18.744 12.594 19.336 12.55 19.938 12.55C20.76 12.55 21.563 12.633 22.338 12.79L22.261 12.777C23.376 13.022 24.319 13.64 24.973 14.491L24.981 14.502C25.268 14.873 25.441 15.345 25.441 15.857C25.441 15.869 25.441 15.881 25.441 15.894V15.892C25.441 20.057 25.441 24.222 25.441 28.392C25.442 28.434 25.443 28.484 25.443 28.534C25.443 30.376 24.408 31.976 22.887 32.784L22.861 32.797C22.096 33.251 21.204 33.588 20.254 33.755L20.206 33.762C19.426 33.918 18.528 34.007 17.61 34.007C16.219 34.007 14.875 33.803 13.607 33.422L13.705 33.447C11.275 32.692 10.005 30.997 10 28.447C10 21.617 10 14.7837 10 7.947C10 6.267 10.5 4.747 11.835 3.622C12.759 2.891 13.897 2.391 15.14 2.226L15.175 2.222C15.939 2.081 16.817 2 17.714 2C18.923 2 20.097 2.147 21.22 2.423L21.12 2.402C22.77 2.822 24.17 3.637 24.86 5.272C25.145 5.933 25.336 6.7 25.394 7.504L25.395 7.527C25.485 8.737 25.395 9.957 25.395 11.207H18.875V10.707C18.875 9.927 18.875 9.147 18.875 8.367C18.877 8.346 18.879 8.322 18.879 8.298C18.879 8.014 18.689 7.774 18.43 7.698L18.426 7.697C18.219 7.617 17.979 7.571 17.728 7.571C17.477 7.571 17.238 7.617 17.017 7.701L17.031 7.696C16.756 7.764 16.556 8.008 16.556 8.299C16.556 8.303 16.556 8.308 16.556 8.312V8.311C16.556 9.931 16.556 11.551 16.556 13.171C16.572 13.25 16.593 13.319 16.619 13.384L16.616 13.377ZM14.846 30.422C15.028 30.695 15.334 30.872 15.681 30.872C15.73 30.872 15.779 30.868 15.826 30.861L15.821 30.862C16.151 30.792 16.481 30.737 16.821 30.672C17.161 30.607 17.211 30.462 17.206 30.172C17.206 28.797 17.206 27.422 17.206 26.047C17.196 25.995 17.19 25.935 17.19 25.874C17.19 25.42 17.519 25.043 17.951 24.968L17.957 24.967C18.164 24.877 18.403 24.816 18.655 24.797H18.662C19.012 24.797 19.102 24.617 19.097 24.297C19.097 23.702 19.097 23.102 19.097 22.507C19.092 22.48 19.089 22.448 19.089 22.416C19.089 22.129 19.313 21.895 19.595 21.877H19.597C20.282 21.757 20.957 21.612 21.642 21.482C22.327 21.352 22.322 21.357 22.312 20.682C22.307 20.164 22.269 19.66 22.2 19.165L22.207 19.227C22.202 18.814 21.866 18.481 21.452 18.481C21.39 18.481 21.33 18.489 21.272 18.503L21.277 18.502C20.865 18.566 20.497 18.662 20.146 18.79L20.187 18.777C19.547 18.982 18.932 19.242 18.287 19.432C17.727 19.597 17.467 19.432 17.187 18.932C17.152 18.867 17.062 18.777 17.017 18.787C16.312 18.922 15.452 18.487 14.952 19.412C14.891 19.505 14.855 19.618 14.855 19.74C14.855 19.79 14.861 19.839 14.873 19.886L14.872 19.882C14.923 20.025 14.965 20.194 14.99 20.368L14.992 20.382C14.992 23.317 14.992 26.252 14.992 29.187C14.965 29.647 14.913 30.071 14.837 30.487L14.847 30.423L14.846 30.422Z" fill="#B1BAD3"/>
<path d="M18.8218 22.847L18.3218 22.252C18.6668 22.252 18.8218 22.387 18.8518 22.717C18.8638 22.941 18.8708 23.203 18.8708 23.467C18.8708 23.731 18.8638 23.993 18.8508 24.253L18.8528 24.217C18.8048 24.376 18.6848 24.5 18.5318 24.551L18.5278 24.552C18.3918 24.566 18.2348 24.575 18.0748 24.575C17.9148 24.575 17.7578 24.567 17.6028 24.551L17.6218 24.553C17.3668 24.553 17.2518 24.408 17.2618 24.153C17.2718 23.898 17.2618 23.763 17.2618 23.568C17.2608 23.553 17.2598 23.536 17.2598 23.518C17.2598 23.096 17.6018 22.753 18.0248 22.753C18.1228 22.753 18.2158 22.771 18.3018 22.805L18.2968 22.803C18.4468 22.838 18.5918 22.898 18.7368 22.943L18.8218 22.847Z" fill="#B1BAD3"/>
</svg>
