<svg width="28" height="28" viewBox="0 0 28 28" fill="none" xmlns="http://www.w3.org/2000/svg">
<path d="M20.6337 16.8238L14.1583 8.79692C13.4591 8.69454 12.6514 8.63591 11.8306 8.63591C11.2986 8.63591 10.7727 8.66041 10.2529 8.70854L10.3194 8.70329L8.76793 7.15182L9.93437 4.44527L6.21277 0L5.1277 4.16526L4.24127 5.12169L0.0410156 6.17175L4.48629 9.87061L7.04145 8.77417L8.68655 10.4079C8.6498 10.8218 8.62967 11.3039 8.62967 11.7914C8.62967 12.6122 8.6883 13.419 8.80205 14.2082L8.79155 14.1181L16.8184 20.5935L20.6337 16.8238Z" fill="currentColor"/>
<path d="M23.6887 22.0622C24.2374 21.5258 24.3774 20.8021 24.0037 20.4757L22.3473 19.017L22.1136 18.667L18.707 22.0736L19.0334 22.3422L20.4921 23.9987C20.8072 24.3723 21.5072 24.2323 22.0436 23.7187L26.3139 28.0003L27.959 26.3438L23.6887 22.0622Z" fill="currentColor"/>
<path d="M23.6887 22.0622C24.2374 21.5258 24.3774 20.8021 24.0037 20.4757L22.3473 19.017L22.1136 18.667L18.707 22.0736L19.0334 22.3422L20.4921 23.9987C20.8072 24.3723 21.5072 24.2323 22.0436 23.7187L26.3139 28.0003L27.959 26.3438L23.6887 22.0622Z" fill="currentColor"/>
</svg>
