<svg width="18" height="18" viewBox="0 0 18 18" fill="none" xmlns="http://www.w3.org/2000/svg">
<path fill-rule="evenodd" clip-rule="evenodd" d="M9 18C13.9706 18 18 13.9706 18 9C18 4.02944 13.9706 0 9 0C4.02944 0 0 4.02944 0 9C0 13.9706 4.02944 18 9 18ZM10.5639 4.1H12.8889C13.5028 4.1 14 4.59225 14 5.2V12.9C14 13.5078 13.5028 14 12.8889 14H5.11111C4.49722 14 4 13.5078 4 12.9V5.2C4 4.59225 4.49722 4.1 5.11111 4.1H7.43611C7.6639 3.462 8.27501 3 9.00001 3C9.72501 3 10.3361 3.462 10.5639 4.1ZM9.55556 4.65C9.55556 4.34475 9.30557 4.1 9.00001 4.1C8.69444 4.1 8.44445 4.34475 8.44445 4.65C8.44445 4.95524 8.69444 5.2 9.00001 5.2C9.30556 5.2 9.55556 4.95524 9.55556 4.65ZM6.22222 11.8H10.1111V10.7H6.22222V11.8ZM6.22222 9.60001H11.7778V8.50001H6.22222V9.60001ZM6.22222 7.40001H11.7778V6.30001H6.22222V7.40001Z" fill="currentColor"/>
</svg>
