<svg width="36" height="36" viewBox="0 0 36 36" xmlns="http://www.w3.org/2000/svg">
<path d="M28.666 19C27.846 19.007 27.072 19.198 26.381 19.534L26.413 19.52L25.08 17.947C26.11 17.35 27.346 16.997 28.665 16.997C29.626 16.997 30.543 17.184 31.382 17.524L31.333 17.507C31.244 13.895 28.294 11 24.668 11C24.667 11 24.667 11 24.666 11H19.333L22 13.667H10L7.333 12.334H2L8.947 19.281C8.467 19.109 7.913 19.007 7.336 19.001H7.333C4.387 19.001 2 21.389 2 24.334C2 27.279 4.388 29.667 7.333 29.667C10.279 29.667 12.666 27.279 12.666 24.334C12.662 23.755 12.559 23.201 12.375 22.686L12.386 22.721L15.333 25.668L21.786 26.801C21.516 26.071 21.36 25.228 21.36 24.348C21.36 22.567 22 20.935 23.062 19.67L23.053 19.681L24.386 21.241C23.768 22.1 23.398 23.174 23.398 24.334C23.398 27.28 25.786 29.667 28.731 29.667C31.676 29.667 34.064 27.279 34.064 24.334C34.064 21.388 31.676 19.001 28.731 19.001C28.708 19.001 28.685 19.001 28.663 19.001L28.666 19ZM7.333 27C5.86 27 4.666 25.806 4.666 24.333C4.666 22.86 5.86 21.666 7.333 21.666C8.806 21.666 10 22.86 10 24.333C10 25.806 8.806 27 7.333 27ZM28.666 27C27.193 27 25.999 25.806 25.999 24.333C25.999 22.86 27.193 21.666 28.666 21.666C30.139 21.666 31.333 22.86 31.333 24.333C31.333 25.806 30.139 27 28.666 27Z" />
</svg>
