<svg width="36" height="36" viewBox="0 0 36 36" xmlns="http://www.w3.org/2000/svg">
<path d="M2.06936 11.765C2.26936 11.365 2.48436 10.97 2.67936 10.56C3.67936 8.395 4.70436 6.225 5.73936 4L9.39936 11.825H7.17436C7.13236 11.584 7.07436 11.372 7.00036 11.168L7.00936 11.195C6.54936 10.145 6.05936 9.105 5.54936 7.98L4.91936 9.31C5.21436 9.485 5.58936 9.185 5.79436 9.51C5.92536 9.741 6.06736 10.03 6.19536 10.327L6.21936 10.39C5.68436 10.39 5.18936 10.39 4.71936 10.39C4.70036 10.386 4.67836 10.384 4.65636 10.384C4.49436 10.384 4.35736 10.493 4.31436 10.642L4.31336 10.644C4.17836 11.029 3.83836 11.354 3.99836 11.834H2.06836L2.06936 11.765Z" />
<path d="M27.0082 11.7746C26.4282 11.7746 25.8982 11.7746 25.3632 11.7746C25.2632 11.7746 25.1432 11.6446 25.0782 11.5496C24.4582 10.6396 23.8532 9.71965 23.2432 8.80965C23.1932 8.72765 23.1312 8.65865 23.0602 8.60065L23.0582 8.59965C23.1082 9.64965 22.8732 10.7096 23.1982 11.7646H21.2832V6.26465C21.8382 6.26465 22.3782 6.26465 22.9182 6.26465C23.0182 6.26465 23.1282 6.40965 23.1982 6.51465L25.0382 9.24965L25.2032 9.46965V6.26965H27.1482C27.0852 6.59765 27.0362 6.99565 27.0102 7.39965L27.0082 7.42965C27.0082 8.73965 27.0082 10.0546 27.0082 11.3646V11.7746Z" />
<path d="M15.5841 12.0402C15.0391 12.0402 14.4991 12.0402 13.9541 12.0402C13.7581 12.0162 13.5851 11.9292 13.4541 11.8002C13.2541 11.6012 13.0841 11.3722 12.9511 11.1202L12.9441 11.1052C12.5291 10.2902 12.1441 9.45519 11.7191 8.57519C12.0791 8.57519 12.3741 8.57519 12.6641 8.57519C13.2691 8.57519 13.4791 8.35019 13.5041 7.74519C13.5041 7.58019 13.5041 7.41519 13.5041 7.24519H11.5491C11.5491 7.36519 11.5491 7.46019 11.5491 7.55519C11.5491 8.64519 11.5491 9.73519 11.5491 10.8202C11.5811 11.1782 11.6401 11.5052 11.7231 11.8212L11.7141 11.7802H9.73906V11.4252C9.73906 10.0252 9.73906 8.62519 9.73906 7.22519C9.70006 6.87119 9.63306 6.55119 9.53906 6.24219L9.54906 6.28019H15.1491C15.1191 6.89519 15.1491 7.50519 15.0541 8.10519C14.9601 8.59419 14.6401 8.99219 14.2081 9.19119L14.1991 9.19519L13.8641 9.36519C14.3141 10.3152 14.7041 11.3102 15.5841 12.0402Z" />
<path d="M15.873 11.75V6.25H20.608V7.39C19.663 6.945 18.648 7.28 17.638 7.14V8.555H20.043C19.901 8.903 19.766 9.182 19.619 9.453L19.643 9.405C19.603 9.475 19.453 9.5 19.353 9.5C18.788 9.5 18.223 9.5 17.638 9.5V10.84C18.638 10.75 19.638 11.015 20.613 10.645V11.745L15.873 11.75Z" />
<path d="M31.083 5.82966C31.758 7.26966 32.443 8.75966 33.153 10.2347C33.403 10.7647 33.723 11.2647 34.008 11.7747C33.553 11.7747 33.008 11.7747 32.508 11.7747C32.413 11.7747 32.288 11.6147 32.238 11.5047C31.693 10.3497 31.158 9.19466 30.623 8.03466C30.595 7.98866 30.567 7.94966 30.537 7.91266L30.538 7.91466L29.788 9.53966C30.103 9.53966 30.373 9.53966 30.643 9.53966C30.664 9.53566 30.687 9.53266 30.712 9.53266C30.873 9.53266 31.009 9.63966 31.052 9.78666L31.053 9.78866C31.133 10.0037 31.243 10.2037 31.368 10.4687C30.833 10.4687 30.338 10.4687 29.868 10.4687C29.825 10.4577 29.775 10.4507 29.723 10.4507C29.43 10.4507 29.185 10.6617 29.133 10.9397L29.132 10.9437C29.057 11.2137 28.987 11.4787 28.902 11.7887H27.207C27.507 11.1637 27.747 10.6037 28.007 10.0087C28.547 8.84366 29.102 7.68366 29.637 6.50866C29.708 6.34166 29.861 6.22366 30.045 6.20366H30.047C30.463 6.08066 30.807 5.95266 31.14 5.80566L31.082 5.82866L31.083 5.82966Z" />
<path d="M34.0096 27.9403C33.3096 27.9403 32.7096 27.9403 32.1146 27.9403C31.9156 27.9143 31.7416 27.8193 31.6156 27.6813L31.6146 27.6803C31.4016 27.4753 31.2206 27.2403 31.0776 26.9803L31.0696 26.9653C30.5696 26.0003 30.1246 25.0153 29.6246 23.9653C30.0096 23.9653 30.3296 23.9653 30.6246 23.9653C31.2346 23.9653 31.4546 23.7403 31.4946 23.1253C31.4946 22.9453 31.4946 22.7603 31.4946 22.5503H29.5096C29.2896 23.2603 29.4446 26.9003 29.7196 27.3453H27.5546V26.9753C27.5546 25.5153 27.5546 24.0503 27.5546 22.5903C27.5166 22.1953 27.4486 21.8353 27.3496 21.4873L27.3596 21.5303H33.2446C33.2146 22.2403 33.3646 22.9553 33.1296 23.6503C32.9116 24.1923 32.4736 24.6063 31.9286 24.7863L31.9146 24.7903C32.4746 25.9103 32.8496 27.1053 34.0096 27.9403Z" />
<path d="M26.8638 24.4247C26.8638 24.4287 26.8638 24.4347 26.8638 24.4397C26.8638 26.1707 25.4598 27.5747 23.7288 27.5747C21.9978 27.5747 20.5938 26.1707 20.5938 24.4397C20.5938 22.7157 21.9858 21.3157 23.7078 21.3047C23.7138 21.3047 23.7218 21.3047 23.7288 21.3047C25.4548 21.3047 26.8548 22.7007 26.8638 24.4247ZM25.3388 24.3497C25.3388 24.2947 25.3387 24.1547 25.2987 24.0197C25.1877 23.3087 24.6497 22.7487 23.9597 22.6067L23.9487 22.6047C23.8827 22.5947 23.8067 22.5887 23.7297 22.5887C23.1087 22.5887 22.5757 22.9667 22.3477 23.5047L22.3438 23.5147C22.1968 23.7857 22.1108 24.1087 22.1108 24.4517C22.1108 24.9027 22.2608 25.3197 22.5128 25.6547L22.5088 25.6497C22.7728 26.0457 23.2177 26.3027 23.7227 26.3027C24.1837 26.3027 24.5947 26.0877 24.8617 25.7527L24.8638 25.7497C25.1608 25.4027 25.3417 24.9487 25.3417 24.4527C25.3417 24.4167 25.3408 24.3807 25.3388 24.3447V24.3497Z" />
<path d="M12.4048 23.2445L11.5948 24.9845C11.9498 24.9845 12.2448 24.9845 12.5448 24.9845C12.5638 24.9805 12.5858 24.9785 12.6078 24.9785C12.7648 24.9785 12.8978 25.0835 12.9388 25.2265L12.9398 25.2285C13.0248 25.4635 13.1498 25.6885 13.2798 25.9685C12.6248 25.9685 12.0198 25.9685 11.4098 25.9685C11.3918 25.9655 11.3708 25.9635 11.3498 25.9635C11.1798 25.9635 11.0368 26.0765 10.9908 26.2305L10.9898 26.2335C10.8548 26.5935 10.5998 26.9285 10.7998 27.3485H8.88477C9.38477 26.2235 9.91477 25.1235 10.4298 24.0285C10.7748 23.2785 11.1248 22.5285 11.4648 21.7885C11.5338 21.6195 11.6878 21.4995 11.8728 21.4785H11.8748C12.2398 21.3885 12.5898 21.2435 12.9948 21.1035L13.8798 22.9685C14.4148 24.1035 14.9398 25.2435 15.5098 26.3835C15.6698 26.7135 15.8848 27.0135 16.0898 27.3535C15.5598 27.3535 14.9998 27.3535 14.4448 27.3535C14.3748 27.3535 14.2848 27.2135 14.2398 27.1185C13.6648 25.8935 13.0948 24.6635 12.5198 23.4385L12.4048 23.2445Z" />
<path d="M6.249 30.21L5.259 28.105C4.374 26.18 3.509 24.265 2.594 22.365C2.409 22.038 2.215 21.757 2 21.494L2.009 21.505C2.215 21.52 2.456 21.529 2.699 21.529C2.942 21.529 3.183 21.52 3.421 21.503L3.389 21.505C4.139 21.4 4.489 21.695 4.784 22.39C5.509 24.105 6.359 25.83 7.169 27.545C7.219 27.635 7.248 27.741 7.248 27.855C7.248 27.969 7.219 28.075 7.168 28.168L7.17 28.165C6.865 28.82 6.574 29.485 6.249 30.21Z" />
<path d="M18.3947 26.3853C19.0897 26.3203 19.7447 26.5153 20.3297 26.2053L21.1697 27.3303H16.5447C16.5447 27.2253 16.5447 27.1003 16.5447 26.9803V22.5603C16.5497 22.5213 16.5517 22.4753 16.5517 22.4283C16.5517 22.0693 16.3927 21.7483 16.1407 21.5313L16.1387 21.5303H18.4087L18.3947 26.3853Z" />
<path d="M7.50855 27.3652C7.21355 26.7552 6.93855 26.2102 6.69355 25.6502C6.68855 25.6232 6.68555 25.5922 6.68555 25.5602C6.68555 25.4642 6.71255 25.3742 6.75955 25.2982L6.75855 25.3002C7.22855 24.3002 7.71355 23.3002 8.17355 22.3002C8.25055 22.0792 8.31055 21.8202 8.34155 21.5532L8.34355 21.5352H10.2585L7.50855 27.3652Z" />
<path d="M16.6598 14.1055C16.6638 14.1055 16.6698 14.1055 16.6748 14.1055C18.1468 14.1055 19.3398 15.2985 19.3398 16.7705C19.3398 18.2425 18.1468 19.4355 16.6748 19.4355C15.2028 19.4355 14.0098 18.2425 14.0098 16.7705C14.0098 16.7665 14.0098 16.7635 14.0098 16.7595C14.0288 15.3025 15.2038 14.1275 16.6578 14.1055H16.6598ZM16.7148 15.2005C15.9168 15.2385 15.2848 15.8945 15.2848 16.6985C15.2848 16.7095 15.2848 16.7205 15.2848 16.7315V16.7295C15.2838 16.7525 15.2828 16.7795 15.2828 16.8065C15.2828 17.5955 15.8638 18.2495 16.6208 18.3635L16.6298 18.3645C17.4328 18.3005 18.0598 17.6325 18.0598 16.8195C18.0598 16.8175 18.0598 16.8165 18.0598 16.8145C18.0638 16.7715 18.0668 16.7225 18.0668 16.6725C18.0668 15.8965 17.4768 15.2575 16.7218 15.1805L16.7158 15.1795L16.7148 15.2005Z" />
<path d="M23.8591 14.335V15.13H21.3241V16.35H23.2941C23.0341 17.67 21.9891 16.965 21.3491 17.3C20.9691 18.2 21.9191 19.69 20.1641 20.115V14.335H23.8591Z" />
</svg>
