<svg width="36" height="36" viewBox="0 0 36 36" fill="none" xmlns="http://www.w3.org/2000/svg">
<path d="M14.334 23.0801C14.334 24.9211 12.842 26.4131 11.001 26.4131C9.15997 26.4131 7.66797 24.9211 7.66797 23.0801C7.66797 21.2391 9.15997 19.7471 11.001 19.7471C12.842 19.7471 14.334 21.2391 14.334 23.0801Z" fill="#B1BAD3"/>
<path d="M30.334 23.0801C30.334 24.9211 28.842 26.4131 27.001 26.4131C25.16 26.4131 23.668 24.9211 23.668 23.0801C23.668 21.2391 25.16 19.7471 27.001 19.7471C28.842 19.7471 30.334 21.2391 30.334 23.0801Z" fill="#B1BAD3"/>
<path d="M34.121 17.134C33.841 15.506 32.608 14.228 31.027 13.885L31.001 13.88L27.001 13.08L24.334 10.413L12.334 9L7.307 11.587L3 9.267V12.294L4.333 13.014V15.681L3 18.348V22.348H5.733C6.153 19.786 8.351 17.855 11 17.855C13.649 17.855 15.846 19.786 16.262 22.317L16.266 22.348H21.733C22.153 19.786 24.351 17.855 27 17.855C29.649 17.855 31.846 19.786 32.262 22.317L32.266 22.348H34.999L34.121 17.134Z" fill="#B1BAD3"/>
</svg>
