<svg width="36" height="36" viewBox="0 0 36 36" fill="none" xmlns="http://www.w3.org/2000/svg">
<path d="M29.6651 31.333C29.6651 32.806 28.4711 34 26.9981 34H12.3311C10.8581 34 9.66406 32.806 9.66406 31.333V30H29.6641L29.6651 31.333Z" fill="#B1BAD3"/>
<path d="M8.413 11.333C8.533 12.188 8.687 12.928 8.883 13.65L8.853 13.519C9.138 14.457 9.312 15.537 9.333 16.654V16.666H11.333C11.311 15.38 11.113 14.149 10.762 12.983L10.787 13.079C10.559 12.298 10.398 11.389 10.336 10.452L10.334 10.413V6C10.334 3.791 12.125 2 14.334 2H23.667C28.085 2 31.667 5.582 31.667 10V19.333L29.16 27.333H10.333L5 19.333V15.333C5 15.32 5 15.305 5 15.29C5 13.288 6.471 11.629 8.391 11.336L8.413 11.333Z" fill="#B1BAD3"/>
</svg>
