<svg width="36" height="36" viewBox="0 0 36 36" xmlns="http://www.w3.org/2000/svg">
<path d="M23.333 32.0979C25.561 31.3149 27.47 30.1229 29.058 28.5999L29.053 28.6049C28.122 26.9689 27.24 25.6059 26.292 24.2949L26.386 24.4319C24.634 26.5029 23.51 29.1549 23.334 32.0619L23.333 32.0979Z" />
<path d="M30.8523 26.4979C32.0343 24.9519 32.9513 23.1309 33.4932 21.1549L33.5193 21.0439C31.6233 21.2039 29.8973 21.8079 28.4062 22.7509L28.4522 22.7239C29.2792 23.9509 30.0923 25.2049 30.8523 26.4979Z" />
<path d="M6.77348 5.618C12.3365 7.915 17.1165 10.971 21.2555 14.722L21.2135 14.685C23.4665 11.325 23.8805 6.752 22.2535 1.592C20.9645 1.216 19.4845 1 17.9535 1C13.5945 1 9.64448 2.754 6.77148 5.594L6.77348 5.592V5.618Z" />
<path d="M9.25252 22.8052C8.15252 22.8002 7.07352 22.7332 6.01352 22.6052L6.14652 22.6182C4.84052 22.4642 3.71152 22.2682 2.60352 22.0152L2.82652 22.0582C5.00752 28.4702 10.9745 33.0012 17.9995 33.0052C18.9445 33.0022 19.8665 32.9152 20.7615 32.7512L20.6665 32.7652C20.7075 28.7552 22.2165 25.1062 24.6815 22.3212L24.6665 22.3382C23.5885 20.9782 22.5115 19.7652 21.3705 18.6152L21.3735 18.6182C18.3555 21.2312 14.3915 22.8232 10.0555 22.8232C9.77352 22.8232 9.49252 22.8162 9.21452 22.8032L9.25252 22.8052Z" />
<path d="M19.507 16.7116C15.394 12.9896 10.565 9.96465 5.265 7.87565L4.947 7.76465C3.104 10.3286 2 13.5316 2 16.9916C2 16.9966 2 17.0006 2 17.0056V17.0046C2.006 17.7726 2.064 18.5206 2.171 19.2536L2.16 19.1646C3.343 19.4887 4.795 19.7736 6.277 19.9616L6.44 19.9786C11.96 20.5786 16.507 19.4316 19.507 16.7116Z" />
<path d="M23.1738 16.538C24.4238 17.779 25.6048 19.083 26.7158 20.447L26.7878 20.538C28.8278 19.205 31.3138 18.391 33.9868 18.338H34.0008C34.0008 17.885 34.0678 17.418 34.0678 17.005C34.0518 10.837 30.5468 5.49099 25.4238 2.83399L25.3348 2.79199C26.5348 8.12499 25.8018 12.899 23.1748 16.539L23.1738 16.538Z" />
</svg>
