<svg width="28" height="28" viewBox="0 0 28 28" fill="none" xmlns="http://www.w3.org/2000/svg">
<path d="M27.6881 9.21193L25.2611 6.78491C24.7442 7.3018 24.0297 7.6219 23.2408 7.6219C21.663 7.6219 20.3835 6.34236 20.3835 4.76458C20.3835 3.97568 20.7036 3.26113 21.2204 2.74424L18.8153 0.317218C18.6246 0.124805 18.3596 0.00585938 18.0675 0.00585938C17.7754 0.00585938 17.5104 0.124805 17.3197 0.317218L13.4277 4.18734L23.818 14.5776L27.6881 10.7075C27.8806 10.5168 27.9995 10.2518 27.9995 9.95972C27.9995 9.6676 27.8806 9.4026 27.6881 9.21193Z" fill="currentColor"/>
<path d="M11.9856 5.62988L0.322729 17.2927C0.124194 17.4851 0 17.7536 0 18.051C0 18.3484 0.123319 18.6177 0.321854 18.8093L2.74888 21.2144C3.26577 20.6975 3.98032 20.3774 4.76921 20.3774C6.347 20.3774 7.62654 21.657 7.62654 23.2348C7.62654 24.0237 7.30644 24.7382 6.78955 25.2551L9.21657 27.6821C9.40723 27.8745 9.67224 27.9935 9.96436 27.9935C10.2565 27.9935 10.5215 27.8745 10.7121 27.6821L22.375 16.0193L11.9856 5.62988Z" fill="currentColor"/>
</svg>
