<svg width="36" height="36" viewBox="0 0 36 36" fill="none" xmlns="http://www.w3.org/2000/svg">
<path d="M18 2C9.163 2 2 9.163 2 18C2 26.837 9.163 34 18 34C26.837 34 34 26.837 34 18C34 9.163 26.837 2 18 2ZM16.48 18.133L12.587 20.066C12.533 20.084 12.495 20.134 12.495 20.193C12.495 20.252 12.533 20.302 12.586 20.319H16.667C16.742 20.326 16.801 20.389 16.801 20.465C16.801 20.47 16.801 20.475 16.8 20.48L16.107 23.679C16.09 23.739 16.037 23.782 15.974 23.786H5.014C5.012 23.786 5.01 23.786 5.008 23.786C4.934 23.786 4.875 23.726 4.875 23.653C4.875 23.639 4.877 23.625 4.881 23.612V23.613L5.521 20.946C5.518 20.932 5.516 20.916 5.516 20.899C5.516 20.882 5.518 20.866 5.521 20.851V20.853L14.014 16.093C14.018 16.079 14.021 16.063 14.021 16.046C14.021 16.029 14.018 16.013 14.014 15.998L14.094 15.652C14.094 15.648 14.095 15.643 14.095 15.638C14.095 15.561 14.036 15.499 13.962 15.492H10.308C10.252 15.495 10.205 15.533 10.188 15.584V15.585L10.001 16.545C9.994 16.605 9.943 16.652 9.882 16.652H9.881H6.388C6.312 16.646 6.252 16.583 6.252 16.506C6.252 16.496 6.253 16.487 6.255 16.478L6.828 13.892C6.938 12.962 7.718 12.246 8.667 12.239H17.054C18.187 12.239 18.387 13.039 18.281 13.852L17.694 16.519C17.598 17.246 17.132 17.845 16.494 18.127L16.481 18.132L16.48 18.133ZM26.307 17.773C26.291 17.793 26.282 17.819 26.282 17.846C26.282 17.873 26.291 17.899 26.307 17.92L28.88 23.587C28.891 23.606 28.898 23.629 28.898 23.654C28.898 23.728 28.838 23.787 28.765 23.787C28.763 23.787 28.762 23.787 28.76 23.787H24.44C24.387 23.786 24.341 23.754 24.32 23.708L22.787 20.467C22.769 20.413 22.719 20.375 22.66 20.375C22.601 20.375 22.551 20.413 22.534 20.466L21.867 23.654C21.85 23.714 21.797 23.757 21.734 23.761H17.867C17.866 23.761 17.865 23.761 17.864 23.761C17.79 23.761 17.731 23.701 17.731 23.628C17.731 23.619 17.732 23.609 17.734 23.6L20.094 12.294C20.114 12.236 20.165 12.195 20.227 12.187H20.228H24.095C24.096 12.187 24.097 12.187 24.098 12.187C24.172 12.187 24.231 12.247 24.231 12.32C24.231 12.329 24.23 12.339 24.228 12.348L23.641 15.134C23.638 15.144 23.637 15.155 23.637 15.166C23.637 15.24 23.697 15.299 23.77 15.299C23.816 15.299 23.856 15.276 23.88 15.241L26.36 12.268C26.376 12.26 26.394 12.256 26.413 12.256C26.432 12.256 26.451 12.261 26.467 12.269H30.986C31.059 12.27 31.117 12.329 31.117 12.402C31.117 12.438 31.102 12.471 31.079 12.495L26.307 17.773Z" fill="#B1BAD3"/>
</svg>
