<svg width="36" height="36" viewBox="0 0 36 36" fill="none" xmlns="http://www.w3.org/2000/svg">
<path d="M18 2C9.168 2 2 9.168 2 18C2 26.832 9.168 34 18 34C26.832 34 34 26.832 34 18C34 9.168 26.832 2 18 2ZM30.704 16.4H25.168C24.992 12.352 24.128 8.736 22.832 6.144C27.04 7.856 30.128 11.744 30.704 16.4ZM5.296 19.6H10.832C11.008 23.648 11.872 27.264 13.168 29.856C8.96 28.144 5.888 24.256 5.296 19.6ZM10.832 16.4H5.296C5.872 11.744 8.96 7.856 13.168 6.144C11.872 8.736 11.024 12.352 10.832 16.4ZM20.176 28C19.632 29.2 19.072 29.984 18.608 30.416C18.384 30.624 18.224 30.72 18.128 30.768C18.048 30.8 18.016 30.8 18 30.8C17.984 30.8 17.952 30.8 17.872 30.768C17.776 30.72 17.616 30.624 17.392 30.416C16.928 29.984 16.368 29.2 15.824 28C14.896 25.92 14.208 22.992 14.032 19.6H21.952C21.792 22.992 21.104 25.92 20.176 28ZM14.032 16.4C14.192 13.008 14.88 10.08 15.824 8C16.368 6.8 16.928 6.016 17.392 5.584C17.616 5.376 17.776 5.28 17.872 5.232C17.952 5.2 17.984 5.2 18 5.2C18.016 5.2 18.048 5.2 18.128 5.232C18.224 5.28 18.384 5.376 18.608 5.584C19.072 6.016 19.632 6.8 20.176 8C21.104 10.08 21.792 13.008 21.968 16.4H14.032ZM22.832 29.856C24.112 27.264 24.976 23.648 25.168 19.6H30.704C30.128 24.256 27.04 28.144 22.832 29.856Z" fill="#B1BAD3"/>
</svg>
