<svg width="36" height="36" viewBox="0 0 36 36" fill="none" xmlns="http://www.w3.org/2000/svg">
<path d="M14 2H21.32V5.653H14V2Z" fill="#B1BAD3"/>
<path d="M27.347 12.573L29.24 10.4L26.48 8L24.547 10.24C22.632 9.026 20.3 8.306 17.8 8.306C15.3 8.306 12.968 9.026 11.001 10.271L11.053 10.24L9.12 8.027L6.36 10.427L8.253 12.574C6.234 14.827 5 17.82 5 21.101C5 28.17 10.731 33.901 17.8 33.901C24.869 33.901 30.6 28.17 30.6 21.101C30.6 17.82 29.366 14.828 27.336 12.562L27.347 12.574V12.573ZM17.8 21.106L11.92 26.959C10.426 25.459 9.502 23.39 9.502 21.106C9.502 16.526 13.215 12.813 17.795 12.813C17.797 12.813 17.798 12.813 17.8 12.813V21.106Z" fill="#B1BAD3"/>
</svg>
