<svg width="28" height="28" viewBox="0 0 28 28" fill="none" xmlns="http://www.w3.org/2000/svg">
<path d="M4.13057 26.3538L3.6406 27.7773C3.59161 27.9076 3.46824 27.9995 3.323 27.9995C3.21538 27.9995 3.12002 27.9496 3.0579 27.8718L3.05702 27.8709L2.12347 26.6346C2.06572 26.5568 1.97385 26.506 1.86973 26.506C1.86973 26.506 1.86798 26.506 1.86623 26.506H0.32635C0.146114 26.506 0 26.3599 0 26.1797C0 26.1097 0.0218734 26.0449 0.0594956 25.9915L0.0586205 25.9924L0.944929 24.7211C0.964178 24.68 0.975552 24.6319 0.975552 24.5811C0.975552 24.5304 0.964178 24.4823 0.944054 24.4394L0.944929 24.4412L0.536335 22.9249C0.52671 22.8952 0.520586 22.8602 0.520586 22.8243C0.520586 22.644 0.6667 22.4979 0.846936 22.4979C0.886308 22.4979 0.923931 22.5049 0.958053 22.5172L0.955428 22.5163L2.42532 22.9599C2.46819 22.9791 2.51806 22.9905 2.57143 22.9905C2.6248 22.9905 2.67467 22.9791 2.7193 22.959L2.71667 22.9599L3.98795 22.0736C4.03957 22.0368 4.10432 22.015 4.17431 22.015C4.35455 22.015 4.50066 22.1611 4.50066 22.3413V23.8812V23.8838C4.50066 23.9879 4.55053 24.0798 4.6284 24.1367L4.62928 24.1376L5.86556 25.0825C5.96355 25.1402 6.02917 25.2452 6.02917 25.3651C6.02917 25.499 5.94868 25.6144 5.83319 25.6643L5.83144 25.6652L4.39654 26.1665C4.28193 26.1884 4.18656 26.2566 4.12881 26.3511L4.12794 26.3529L4.13057 26.3538ZM26.3539 4.18818L27.7774 3.69822C27.9078 3.64922 27.9996 3.52586 27.9996 3.38062C27.9996 3.273 27.9498 3.17763 27.8719 3.11551L27.871 3.11464L26.6348 2.18108C26.5569 2.12334 26.5061 2.03147 26.5061 1.92735C26.5061 1.92735 26.5061 1.9256 26.5061 1.92385V0.383968C26.5061 0.203731 26.36 0.0576172 26.1798 0.0576172C26.1098 0.0576172 26.045 0.0794906 25.9917 0.117113L25.9925 0.116238L24.6863 0.9448C24.6451 0.964049 24.597 0.975423 24.5463 0.975423C24.4955 0.975423 24.4474 0.964049 24.4045 0.943926L24.4063 0.9448L22.925 0.536206C22.8953 0.526582 22.8603 0.520457 22.8244 0.520457C22.6442 0.520457 22.4981 0.666571 22.4981 0.846808C22.4981 0.88618 22.5051 0.923802 22.5173 0.957925L22.5164 0.9553L22.96 2.42519C22.9793 2.46806 22.9907 2.51793 22.9907 2.5713C22.9907 2.62467 22.9793 2.67455 22.9592 2.71917L22.96 2.71654L22.0737 3.98782C22.037 4.03944 22.0151 4.10419 22.0151 4.17418C22.0151 4.35442 22.1612 4.50053 22.3414 4.50053H23.8813H23.884C23.9881 4.50053 24.0799 4.5504 24.1368 4.62827L24.1377 4.62915L25.0826 5.86543C25.1404 5.96342 25.2454 6.02904 25.3652 6.02904C25.4991 6.02904 25.6146 5.94855 25.6644 5.83306L25.6653 5.83131L26.1667 4.39642C26.1885 4.2818 26.2568 4.18643 26.3513 4.12869L26.353 4.12781L26.3539 4.18818Z" fill="currentColor"/>
<path d="M11.6675 0.327226L0.328304 11.6664C0.126194 10.6173 0.00720273 9.40729 0.00195312 8.17101V8.16664C0.00545286 5.68445 0.467418 3.31163 1.30736 1.12517L1.26186 1.25991C3.3127 0.465465 5.68553 0.00349974 8.16684 0H8.16859C9.40925 0.00524961 10.6193 0.124241 11.7917 0.346474L11.6675 0.327226ZM27.6849 16.3324L16.3344 27.6829C17.3851 27.8807 18.5952 27.9953 19.8315 27.9979H19.8341C22.3163 27.9944 24.6891 27.5324 26.8756 26.6925L26.7408 26.738C27.5353 24.6871 27.9972 22.3143 28.0007 19.833V19.8313C27.9981 18.5924 27.8835 17.3823 27.6665 16.2082L27.6857 16.3315L27.6849 16.3324ZM26.8336 13.1363L13.1382 26.8316C7.54651 24.7851 3.21559 20.4542 1.21374 14.9999L1.16912 14.8625L14.8645 1.16716C20.4562 3.21363 24.7871 7.54456 26.7889 12.9989L26.8336 13.1363ZM20.2068 14.4198C19.9942 14.1993 19.6967 14.0628 19.3669 14.0628C19.037 14.0628 18.7395 14.1993 18.5269 14.4198L17.722 15.2247L16.0885 13.6035L16.9048 12.7872C17.1148 12.5702 17.2443 12.2736 17.2443 11.9472C17.2443 11.2797 16.7036 10.7389 16.036 10.7389C15.6948 10.7389 15.3868 10.8798 15.1672 11.1073L14.35 11.9245L12.8337 10.291L13.6387 9.48604C13.8548 9.27168 13.9887 8.9742 13.9887 8.6461C13.9887 7.99253 13.4584 7.46232 12.8049 7.46232C12.4794 7.46232 12.1845 7.59355 11.9711 7.80616L7.80637 11.9122C7.59376 12.1266 7.46252 12.4206 7.46252 12.746C7.46252 13.3996 7.99273 13.9298 8.6463 13.9298C8.9744 13.9298 9.27188 13.796 9.48624 13.5799L10.2912 12.8335L11.9247 14.4548L11.1197 15.2711C10.922 15.4811 10.8013 15.7646 10.8013 16.076C10.8013 16.7252 11.328 17.252 11.9772 17.252C12.3149 17.252 12.6194 17.1093 12.8337 16.8819L12.8346 16.881L13.6509 16.076L15.2722 17.7095L14.4672 18.5145C14.2511 18.7288 14.1173 19.0263 14.1173 19.3544C14.1173 20.008 14.6475 20.5382 15.3011 20.5382C15.6265 20.5382 15.9214 20.407 16.1349 20.1944L20.2409 16.0883C20.4439 15.8783 20.569 15.5922 20.569 15.2772C20.569 14.9386 20.4247 14.6342 20.1946 14.4207L20.1937 14.4198H20.2068Z" fill="currentColor"/>
</svg>
