<svg width="36" height="36" viewBox="0 0 36 36" xmlns="http://www.w3.org/2000/svg">
<path d="M27.667 9.06708V11.2141C21 12.8411 15.094 12.8011 9 11.1071V9.02708C9 8.13408 9.72 7.28008 10.32 6.72008C10.667 6.44008 11.027 6.20008 11.373 5.97308L11.506 5.88008C11.773 5.72008 12.013 5.58708 12.253 5.45308C12.253 5.45308 12.373 5.38608 12.44 5.34608C12.547 5.29308 12.64 5.22608 12.747 5.18608C12.894 5.11908 13.04 5.05308 13.187 4.98608C13.254 4.95908 13.32 4.93308 13.374 4.90608C13.547 4.82608 13.721 4.75908 13.894 4.69308C13.974 4.66608 14.054 4.64008 14.121 4.61308C14.268 4.56008 14.401 4.52008 14.534 4.48008C14.574 4.46708 14.694 4.44008 14.694 4.44008H14.721C16.308 3.98708 17.574 4.00004 18.214 4.00004C18.254 4.00004 18.281 4.00004 18.307 4.00004C19.227 4.00004 20.2 4.02708 21.174 4.22708C21.361 4.26708 21.574 4.33408 21.787 4.38708H21.88C21.987 4.41408 22.107 4.46708 22.227 4.50708L22.36 4.54708C22.733 4.68008 23.107 4.82708 23.507 5.02708C23.52 5.04008 23.534 5.04008 23.534 5.04008C24.414 5.45308 25.334 6.00008 26.281 6.74708H26.294C26.881 7.29408 27.614 8.17408 27.614 9.05408L27.667 9.06708ZM22.281 24.0401L27.668 18.4401V13.5071C24.415 14.2671 21.308 14.6541 18.295 14.6541C15.282 14.6541 12.108 14.2271 9.002 13.4271V18.4541L14.389 24.0541L9.042 23.6411C9.069 23.9481 9.135 24.2281 9.202 24.4811C9.202 24.5211 9.229 24.5611 9.242 24.5881C9.242 24.6011 9.255 24.6281 9.269 24.6411C9.362 24.9481 9.482 25.2541 9.642 25.5481C9.722 25.7211 9.815 25.8951 9.922 26.0551C10.015 26.2021 10.109 26.3351 10.215 26.4821C11.962 29.0291 15.362 30.6951 18.362 30.6951C19.589 30.6951 20.895 30.4021 22.122 29.8951H22.135C22.228 29.8681 22.322 29.8151 22.415 29.7751C22.548 29.7221 22.695 29.6551 22.828 29.5881C23.148 29.4281 23.468 29.2411 23.775 29.0551C23.908 28.9621 24.055 28.8821 24.175 28.7881C24.442 28.6151 24.682 28.4281 24.908 28.2281C25.041 28.1081 25.188 27.9881 25.308 27.8681C25.521 27.6551 25.721 27.4551 25.921 27.2281C26.054 27.0681 26.201 26.9081 26.321 26.7211C26.494 26.4811 26.654 26.2411 26.801 26.0011C26.841 25.9341 26.881 25.8681 26.921 25.7881C26.961 25.7211 27.001 25.6411 27.041 25.5751C27.214 25.2281 27.361 24.8821 27.468 24.5081V24.4681C27.548 24.2151 27.588 23.9351 27.628 23.6411L22.308 24.0541L22.281 24.0401Z" />
</svg>
