<svg width="32" height="32" viewBox="0 0 32 32" xmlns="http://www.w3.org/2000/svg">
<path d="M3.80106 3.213V5.493H10.2281C10.2281 5.493 10.0811 7.16 10.0811 7.706C10.0811 7.959 10.5881 10.386 11.1341 12.973V3.213C11.2411 2.853 11.4671 2.52 11.7341 2.213C12.0011 2.533 12.2141 2.853 12.3341 3.213V18.466C12.4671 19.079 12.5471 19.466 12.5471 19.466L16.0001 6.853L19.4531 19.466C19.4531 19.466 19.5331 19.079 19.6661 18.466V3.213C19.7731 2.853 19.9991 2.52 20.2661 2.213C20.5331 2.533 20.7461 2.853 20.8661 3.213V12.973C21.4131 10.386 21.9191 7.96 21.9191 7.706C21.9191 7.146 21.7721 5.493 21.7721 5.493H28.1991V3.213C28.7721 1.333 31.9591 0 31.9591 0H0.0390625C0.0390625 0 3.22606 1.333 3.79906 3.213H3.80106Z" />
<path d="M28.188 28.8929V5.50586C28.188 5.50586 26.561 6.47886 25.521 11.3189C24.494 16.1589 22.548 24.2919 22.548 24.2919C22.548 24.2919 22.895 25.9719 23.628 26.2789H20.841V28.8919C20.841 28.8919 20.601 29.1589 20.241 29.5049C19.894 29.1449 19.641 28.8919 19.641 28.8919V26.2789H16.734C16.734 26.2789 17.427 24.7989 17.227 24.1189C17.027 23.4389 15.974 18.2389 15.974 18.2389C15.974 18.2389 14.921 23.4389 14.721 24.1189C14.521 24.7989 15.214 26.2789 15.214 26.2789H12.307V28.8919C12.307 28.8919 12.067 29.1589 11.707 29.5049C11.36 29.1449 11.107 28.8919 11.107 28.8919V26.2789H8.32C9.053 25.9719 9.4 24.2919 9.4 24.2919C9.4 24.2919 7.453 16.1719 6.427 11.3189C5.4 6.47886 3.774 5.50586 3.76 5.50586V28.8929C3.76 28.8929 1.24 31.6529 0 31.9059H31.907C30.667 31.6659 28.147 28.8929 28.147 28.8929H28.188Z" />
</svg>
