<svg width="28" height="28" viewBox="0 0 28 28" fill="none" xmlns="http://www.w3.org/2000/svg">
<path d="M22.3659 19.46L26.0873 21.1636C26.3349 21.2782 26.5038 21.525 26.5038 21.8111C26.5038 22.0972 26.3349 22.344 26.0917 22.4569L26.0873 22.4586L14.0009 28L1.91455 22.4586C1.66692 22.344 1.49805 22.0972 1.49805 21.8111C1.49805 21.525 1.66692 21.2782 1.91017 21.1654L1.91455 21.1636L5.63592 19.46L12.8345 22.7614L14.0009 23.3328L15.1673 22.7964L22.3659 19.46ZM26.0873 6.83637C26.3349 6.72175 26.5038 6.475 26.5038 6.18888C26.5038 5.90275 26.3349 5.656 26.0917 5.54313L26.0873 5.54138L14.0009 0L1.91455 5.54138C1.66692 5.656 1.49805 5.90275 1.49805 6.18888C1.49805 6.475 1.66692 6.72175 1.91017 6.83462L1.91455 6.83637L14.0009 12.3778L26.0873 6.83637ZM15.1795 15.0036L14.0132 15.5522L12.8468 15.0036L5.6368 11.6672L1.91542 13.3586C1.6748 13.4759 1.51117 13.7191 1.51117 14C1.51117 14.2809 1.67392 14.5241 1.91105 14.6396L1.91542 14.6414L14.0018 20.1828L26.0882 14.6414C26.3288 14.5241 26.4924 14.2809 26.4924 14C26.4924 13.7191 26.3297 13.4759 26.0925 13.3604L26.0882 13.3586L22.3668 11.6672L15.1795 15.0036Z" fill="currentColor"/>
</svg>
