<svg width="36" height="36" viewBox="0 0 36 36" xmlns="http://www.w3.org/2000/svg">
<path d="M18 2C9.163 2 2 9.163 2 18C2 26.837 9.163 34 18 34C26.837 34 34 26.837 34 18C34 9.163 26.837 2 18 2ZM17.493 11.107H24.666L23.866 13.134H20.426V15.027H23.253L22.466 17.054H20.426V20.414H17.493V11.107ZM12.587 11.107H15.494V20.44H12.587V11.107ZM4.587 11.107H11.694L10.934 13.134H7.494V15.027H10.321L9.534 17.054H7.494V20.414H4.547L4.587 11.107ZM29.92 24.893H6.187V22.68H29.814L29.92 24.893ZM29.733 19.147H26.373L26 20.4H23.213L26.533 11.067H29.546L32.919 20.4H29.999L29.733 19.147Z" />
<path d="M27 17.88H29.28L28.12 14L27 17.88Z" />
</svg>
