<svg width="36" height="36" viewBox="0 0 36 36" fill="none" xmlns="http://www.w3.org/2000/svg">
<path d="M21.053 18.9857H16.093L13.973 21.9857L9 19.1187V24.2257C9.013 24.6787 9.093 25.0927 9.2 25.4787C10.213 29.1187 14.693 31.6387 18.333 31.6387C21.973 31.6387 26.453 29.1057 27.466 25.4787C27.573 25.0917 27.639 24.6787 27.666 24.2257V19.9327L23.133 22.1457L21.066 18.9727L21.053 18.9857ZM20.8 24.7327H16.093C16.093 24.7327 15.693 24.5197 15.506 24.0927L16.746 21.9057H20.266L21.373 23.9327C21.373 23.9327 21.333 24.5997 20.813 24.7327H20.8Z" fill="#B1BAD3"/>
<path d="M22.6797 5.8C21.3327 5.173 19.9197 5.027 18.3467 5C16.7737 5.027 15.3337 5.173 14.0137 5.8V12.693H22.6807L22.6797 5.8Z" fill="#B1BAD3"/>
<path d="M12.2257 6.61328H12.1987C11.6787 6.86628 10.8387 7.46628 10.3317 8.02628C9.73172 8.61328 9.01172 9.51928 9.01172 10.4663V17.5063L12.2247 15.2263L12.2257 6.61328Z" fill="#B1BAD3"/>
<path d="M26.3458 8.02628C26.2528 7.94628 26.1458 7.86628 26.0388 7.77328C25.5858 7.38628 24.9858 6.89328 24.4258 6.61328V15.4263L27.6788 17.6133V10.4803C27.6788 9.53328 26.9458 8.62728 26.3588 8.04028L26.3458 8.02628Z" fill="#B1BAD3"/>
</svg>
