<svg width="36" height="36" viewBox="0 0 36 36" fill="none" xmlns="http://www.w3.org/2000/svg">
<path d="M32.6655 28.4267V14.9467C32.6655 13.3867 32.0385 11.8797 30.9455 10.7867L22.8925 2.73367C21.7855 1.62667 20.2925 1.01367 18.7325 1.01367H5.10547L17.2655 13.1737L23.4125 7.02667L28.0255 11.6797V23.8127L32.6655 28.4527V28.4267Z" fill="#B1BAD3"/>
<path d="M30.253 32.9999L23.093 25.8399V14.3069L17.253 20.1469L11.466 14.3599V27.3199L6.533 22.2929V9.41288L2 4.87988V18.9729C2 20.5329 2.627 22.0399 3.72 23.1329L11.867 31.2799C12.974 32.3869 14.467 32.9999 16.027 32.9999H30.253Z" fill="#B1BAD3"/>
<path d="M32.6664 8.307V1H25.3594L32.6664 8.307Z" fill="#B1BAD3"/>
<path d="M32.6133 32.9996H32.6663V32.9326L32.6133 32.9996Z" fill="#B1BAD3"/>
<path d="M2 25.5996V32.9996H9.387L2 25.5996Z" fill="#B1BAD3"/>
</svg>
