<svg width="28" height="28" viewBox="0 0 28 28" fill="none" xmlns="http://www.w3.org/2000/svg">
<path d="M18.6653 16.9508C20.7188 15.8458 22.0925 13.7126 22.0951 11.2583V10.2783L19.8316 9.33333V3.49989L22.1651 0H5.83203L8.16558 3.49989V9.33333L5.89065 10.2783V11.2469C5.90553 13.6977 7.28011 15.8239 9.2978 16.9115L9.33192 16.9281L11.6655 25.6664L6.99925 24.5001V28H20.9988V24.5001L16.3326 25.6664L18.6653 16.9508Z" fill="currentColor"/>
<path d="M23.3343 3.5H24.5006C25.1446 3.5 25.667 4.02236 25.667 4.66634V8.16623C25.667 8.81021 25.1446 9.33257 24.5006 9.33257H23.3343C22.6903 9.33257 22.168 8.81021 22.168 8.16623V4.66634C22.168 4.02236 22.6903 3.5 23.3343 3.5Z" fill="currentColor"/>
<path d="M22.1644 17.499H23.3307C23.9747 17.499 24.4971 18.0214 24.4971 18.6654V22.1653C24.4971 22.8092 23.9747 23.3316 23.3307 23.3316H22.1644C21.5204 23.3316 20.998 22.8092 20.998 22.1653V18.6654C20.998 18.0214 21.5204 17.499 22.1644 17.499Z" fill="currentColor"/>
<path d="M3.50032 3.5H4.66666C5.31064 3.5 5.833 4.02236 5.833 4.66634V8.16623C5.833 8.81021 5.31064 9.33257 4.66666 9.33257H3.50032C2.85634 9.33257 2.33398 8.81021 2.33398 8.16623V4.66634C2.33398 4.02236 2.85634 3.5 3.50032 3.5Z" fill="currentColor"/>
<path d="M4.66634 17.499H5.83268C6.47666 17.499 6.99902 18.0214 6.99902 18.6654V22.1653C6.99902 22.8092 6.47666 23.3316 5.83268 23.3316H4.66634C4.02236 23.3316 3.5 22.8092 3.5 22.1653V18.6654C3.5 18.0214 4.02236 17.499 4.66634 17.499Z" fill="currentColor"/>
</svg>
