<svg width="28" height="28" viewBox="0 0 28 28" fill="none" xmlns="http://www.w3.org/2000/svg">
<path d="M26.494 20.2048C26.3829 20.1269 26.2464 20.0797 26.0986 20.0762C25.865 20.0893 25.6541 20.1803 25.4896 20.322L25.4905 20.3212L20.5093 24.9873C20.2425 25.1676 20.0684 25.4694 20.0684 25.8115C20.0684 26.0276 20.1375 26.2271 20.2547 26.3899L20.253 26.3872C20.9844 27.2473 22.03 27.8195 23.2112 27.9263L23.2278 27.9272H23.6014H23.6023C26.0312 27.9272 28.0007 25.9585 28.0007 23.5288C28.0007 22.2093 27.4198 21.0264 26.5002 20.2197L26.4949 20.2153L26.494 20.2048Z" fill="currentColor"/>
<path d="M24.1366 18.8042C24.3317 18.596 24.4516 18.3151 24.4516 18.0063C24.4516 17.9958 24.4516 17.9844 24.4516 17.9739V17.9756C24.4446 17.679 24.3807 17.3999 24.2713 17.1444L24.2766 17.1593L20.4268 6.75344L18.8982 2.47227C18.8982 2.47227 18.8982 2.3909 18.8982 2.34366L18.8168 2.12229C18.3006 0.946348 17.1667 0.130013 15.8367 0.0810152H15.8306C15.7702 0.0757654 15.7002 0.0722656 15.6294 0.0722656C14.3406 0.0722656 13.2959 1.11696 13.2959 2.40578C13.2959 2.83888 13.414 3.24399 13.6196 3.59222L13.6135 3.58172L19.8082 15.4925C19.851 15.5713 19.8764 15.6649 19.8764 15.7638C19.8764 15.9851 19.7504 16.1776 19.5658 16.2721L19.5623 16.2739C19.4862 16.3176 19.3943 16.3439 19.2972 16.3439H19.2937C19.0715 16.3421 18.879 16.2161 18.7818 16.0324L18.7801 16.0289L12.049 4.03582C11.8023 3.5721 11.3211 3.26149 10.7681 3.26149C10.6176 3.26149 10.4724 3.28424 10.3359 3.32711L10.3464 3.32448C9.12231 3.74796 8.22985 4.82066 8.07323 6.11997L8.07148 6.13572C8.02774 6.37809 7.81775 6.56008 7.56576 6.56008C7.54214 6.56008 7.51939 6.55833 7.49664 6.5557H7.49926H7.3129C7.26915 6.55395 7.2184 6.5522 7.16678 6.5522C5.95934 6.5522 4.90064 7.1918 4.31179 8.15075L4.30304 8.16562C4.14992 8.39574 4.05893 8.67922 4.05893 8.98283C4.05893 9.47281 4.29517 9.90854 4.66002 10.1807L4.6644 10.1833L16.0975 18.7815C16.2401 18.8891 16.3311 19.058 16.3311 19.2478C16.3311 19.38 16.2873 19.5016 16.213 19.5996L16.2138 19.5978C16.1053 19.7387 15.9374 19.8288 15.7475 19.8314H15.744C15.6136 19.8314 15.4929 19.7877 15.3966 19.7142L15.3984 19.7151L4.01256 11.3041C3.60833 10.9882 3.0921 10.7975 2.53213 10.7975C1.74117 10.7975 1.03945 11.1772 0.599346 11.7652L0.594971 11.7713C0.250238 12.2578 0.0323734 12.8554 0 13.502V13.5099V13.6735C0.00174992 15.0305 0.804961 16.2004 1.96253 16.7332L1.98353 16.742L2.1699 16.8356L17.3355 23.9166C17.4887 24.0164 17.6768 24.0759 17.878 24.0759C18.1151 24.0759 18.3321 23.9936 18.5036 23.8562L18.5019 23.858L24.1952 18.8182L24.1366 18.8042Z" fill="currentColor"/>
</svg>
