<svg width="28" height="28" viewBox="0 0 28 28" fill="none" xmlns="http://www.w3.org/2000/svg">
<path d="M11.5916 0H12.3404C12.9062 0.23121 13.3931 0.502706 13.8424 0.824998L13.8205 0.810109C13.965 1.42316 14.219 2.08001 14 2.71058C13.8074 2.85158 13.5858 2.96982 13.3485 3.05477L13.3301 3.0609C13.3563 3.30174 13.3957 3.54259 13.4352 3.78343C13.9326 3.7195 14.36 3.6398 14.7804 3.53908L14.6963 3.55572C14.7269 3.2816 14.8093 3.03287 14.9336 2.81042L14.9284 2.82006C14.9634 2.99084 14.9897 3.16162 15.0116 3.33239C15.2069 3.49704 15.4565 3.60302 15.7306 3.62141H15.7341C17.4857 3.62141 19.2373 3.62141 21.0195 3.62141C21.2166 3.62141 21.3085 3.8097 21.4574 3.9148C21.4574 3.54259 21.4574 3.17037 21.4574 2.79378H21.6632C21.6606 2.85421 21.6589 2.92515 21.6589 2.99697C21.6589 3.27372 21.6843 3.54346 21.7333 3.8062L21.7289 3.77905C21.8139 3.79832 21.9172 3.81321 22.0223 3.82196L22.0311 3.82284C22.0311 3.94983 22.0311 4.0812 22.0311 4.20819C22.2159 4.22308 22.4313 4.23183 22.6485 4.23183C23.0032 4.23183 23.3526 4.20906 23.696 4.1644L23.6557 4.16878C23.8186 4.15477 24.0086 4.14776 24.2004 4.14776C24.3922 4.14776 24.5823 4.15564 24.7706 4.17053L24.746 4.16878C24.7539 4.31241 24.7679 4.44553 24.7881 4.57602L24.7854 4.55413C24.5831 4.57952 24.3484 4.59354 24.1111 4.59354C23.8737 4.59354 23.639 4.57953 23.4087 4.5515L23.4367 4.55413C22.7186 4.46655 22.0048 4.61981 21.2866 4.5804C21.2866 4.67674 21.2385 4.77308 21.2166 4.86941C20.5291 4.86941 19.8416 4.86941 19.1541 4.86941C19.1304 4.86679 19.1024 4.86503 19.0744 4.86503C18.8598 4.86503 18.6663 4.95787 18.5323 5.105L18.5314 5.10588C18.3256 5.35986 18.0935 5.57443 17.8877 5.83279C17.8877 5.8503 17.8877 5.87132 17.8877 5.89234C17.8877 6.36877 17.9709 6.82506 18.125 7.24807L18.1163 7.22004L17.6346 7.3952C17.4682 7.90754 17.5339 8.56439 17.0653 8.92346C16.835 9.13453 16.5784 9.3237 16.3025 9.48572L16.2815 9.49711C16.2 9.51725 16.1054 9.52864 16.0091 9.52864C15.8681 9.52864 15.7332 9.50411 15.608 9.45945L15.6168 9.46208C14.811 9.33946 14.141 8.84464 13.4273 8.4987C13.3791 8.69576 13.3266 8.88843 13.274 9.08111C13.493 9.22561 13.7776 9.34384 13.8477 9.6241C13.8792 9.81239 13.8967 10.0296 13.8967 10.2503C13.8967 10.471 13.8792 10.6882 13.8442 10.8993L13.8477 10.8765C13.8126 11.2575 13.8039 11.6384 13.7645 12.0194C13.6979 12.3986 13.5315 12.7305 13.2942 12.9977L13.2959 12.9959C13.0901 12.9477 12.8887 12.8864 12.6872 12.8339C12.6312 12.9714 12.5988 13.1316 12.5988 13.2989C12.5988 13.6694 12.7573 14.0022 13.0104 14.2343L13.0113 14.2352C13.9484 15.2555 14.4563 16.5691 14.9336 17.8478C15.0168 18.1193 15.2927 18.2857 15.3409 18.566C15.4416 18.8392 15.5012 19.1554 15.5029 19.4847V19.4855C15.4679 20.0417 15.4285 20.5978 15.3715 21.1539C15.3111 21.414 15.2761 21.7136 15.2761 22.0201C15.2761 22.1296 15.2805 22.2382 15.2892 22.3459L15.2883 22.3319C15.333 22.4851 15.3593 22.6603 15.3593 22.8416C15.3593 23.0229 15.3339 23.1989 15.2857 23.3653L15.2892 23.3522C15.1789 23.6745 15.1149 24.0458 15.1149 24.432C15.1149 24.5143 15.1176 24.5958 15.1237 24.6764L15.1228 24.6659C15.1193 24.6991 15.1176 24.7377 15.1176 24.7771C15.1176 25.0468 15.2034 25.2973 15.3488 25.5022L15.3461 25.4987C15.5808 25.8088 15.8261 26.0838 16.0923 26.3369L16.0949 26.3395C16.4453 26.5672 16.9269 26.5716 17.216 26.9C17.2379 26.9885 17.2501 27.0892 17.2501 27.1934C17.2501 27.2976 17.2379 27.3983 17.2142 27.4955L17.216 27.4868C16.8902 27.5498 16.5162 27.5858 16.1335 27.5858C15.5423 27.5858 14.9722 27.4999 14.4327 27.3405L14.4747 27.351C13.9755 27.189 13.4238 27.4693 12.9508 27.1934C12.9867 26.5873 13.1172 26.0225 13.3274 25.497L13.3143 25.5338C13.3336 25.3744 13.3441 25.1905 13.3441 25.0039C13.3441 24.4075 13.2337 23.8374 13.0314 23.3119L13.0419 23.3443C12.8755 22.6918 12.7731 21.9395 12.7573 21.1653V21.1548C12.7135 20.7913 13.02 20.5198 13.0332 20.1651C13.0498 20.0933 13.0594 20.0101 13.0594 19.9252C13.0594 19.687 12.9841 19.4663 12.8554 19.2859L12.858 19.2894C12.5164 19.2894 12.061 19.3682 11.8727 19.0047C11.4743 18.4179 11.0933 17.8224 10.6948 17.2531C10.559 16.9992 10.2262 17.0561 10.0029 16.9466C9.82163 16.7531 9.6745 16.5245 9.57028 16.274L9.56502 16.2591C9.49583 16.5306 9.36797 16.7662 9.19544 16.9615L9.19719 16.9597C8.93095 17.2873 8.72601 17.677 8.6069 18.1018L8.60165 18.1245C8.48692 18.3847 8.39496 18.6877 8.34241 19.0038L8.33891 19.0266C8.29512 19.2631 8.28636 19.539 8.07179 19.6922C7.76089 19.9287 7.6339 20.3272 7.36678 20.568C7.16885 20.7694 7.0261 21.0252 6.96129 21.3107L6.95954 21.3212C6.96829 21.4342 6.97267 21.5664 6.97267 21.7004C6.97267 21.8344 6.96829 21.9658 6.95866 22.0972L6.95954 22.0796C6.78613 22.585 6.59958 23.0097 6.38326 23.417L6.40779 23.3671C6.27642 23.6692 6.20635 23.9932 6.06185 24.291C5.96989 24.4968 5.72467 24.5625 5.58892 24.7289C5.3183 25.1957 5.1589 25.7562 5.1589 26.3544C5.1589 26.5707 5.17992 26.7826 5.21933 26.9876L5.21583 26.9666C5.30604 27.1671 5.35859 27.401 5.35859 27.6471C5.35859 27.739 5.35158 27.8292 5.33757 27.9177L5.33844 27.908C5.0976 27.9387 4.86113 27.9781 4.62029 28H3.87587C3.66392 27.9702 3.47213 27.9133 3.29346 27.8327L3.3066 27.838C3.24705 27.6471 3.21289 27.4281 3.21289 27.2013C3.21289 26.9744 3.24705 26.7546 3.31098 26.5488L3.3066 26.5646C3.48176 25.9428 3.6394 25.3166 3.79704 24.6948C3.90214 24.3882 3.64816 24.1124 3.67443 23.819C3.70859 23.3653 3.86798 22.9537 4.11671 22.6121L4.11233 22.6191C4.30063 22.2819 4.23494 21.8791 4.36631 21.5288C4.66408 20.7581 5.2421 20.1362 5.56177 19.3874C5.58191 19.2464 5.5933 19.0827 5.5933 18.9163C5.5933 18.7499 5.58191 18.587 5.56002 18.4267L5.56177 18.4451C5.61081 17.7891 5.69752 17.1901 5.82276 16.605L5.80699 16.6935C5.83589 16.5902 5.85253 16.4719 5.85253 16.3502C5.85253 16.2285 5.83589 16.1094 5.80436 15.9972L5.80699 16.0069C5.72729 15.8116 5.68088 15.5856 5.68088 15.3483C5.68088 15.2887 5.6835 15.2301 5.68964 15.1722L5.68876 15.1793C5.72379 14.9165 5.57053 14.6582 5.68876 14.4042C5.80699 14.1502 5.93836 14.067 6.096 13.9356C6.12666 13.0598 5.80261 12.184 5.93836 11.3082C6.11615 11.141 6.33597 11.0166 6.58032 10.9518L6.59083 10.9492L5.64497 10.7477C5.64409 10.7215 5.64409 10.6908 5.64409 10.6602C5.64409 10.3151 5.68438 9.98055 5.76057 9.65913L5.75444 9.68891C5.87268 9.14591 5.80699 8.58103 5.89457 8.03366C5.89457 7.89353 6.06097 7.84536 6.1792 7.84098C6.49712 7.8296 6.79839 7.79281 7.09091 7.73413L7.055 7.74026C6.9972 7.42586 6.96479 7.06503 6.96479 6.69632C6.96479 6.32761 6.99807 5.96591 7.06025 5.61471L7.055 5.6515C7.17148 4.78359 7.605 4.03478 8.23206 3.51018L8.23732 3.5058C8.70587 3.19052 9.38461 3.00222 9.87943 3.38319L10.0371 3.27372C9.9276 2.99434 9.86454 2.6703 9.86454 2.33136C9.86454 1.80939 10.0152 1.32157 10.2762 0.911701L10.27 0.922211C10.5836 0.481687 11.0381 0.159395 11.568 0.0192675L11.5837 0.0157642L11.5916 0ZM16.2027 5.29417C16.2009 5.50436 16.0906 5.68828 15.925 5.79162L15.9224 5.79338C16.1992 5.78724 16.4645 5.76097 16.7238 5.71455L16.6931 5.71893C16.6931 5.57443 16.6931 5.42554 16.6931 5.28104H16.2202L16.2027 5.29417ZM15.6859 5.8503L15.5984 5.96416C15.6877 6.24441 15.8173 6.487 15.9828 6.7007L15.9785 6.69544C16.1755 6.41519 16.3769 6.13931 16.5652 5.8503C16.4339 5.83979 16.2815 5.83366 16.1273 5.83366C15.9732 5.83366 15.8208 5.83979 15.6693 5.85118L15.6894 5.8503H15.6859Z" fill="currentColor"/>
</svg>
