<svg width="36" height="36" viewBox="0 0 36 36" xmlns="http://www.w3.org/2000/svg">
<path d="M33.162 18.564C32.621 16.677 31.922 15.036 31.05 13.505L31.109 13.617L29.376 15.337L27.483 13.457L29.63 11.337C29.203 10.75 28.75 10.19 28.297 9.657L25.284 12.67L23.337 10.737L26.337 7.75C25.835 7.291 25.292 6.85 24.724 6.44L24.671 6.403L22.564 8.55L20.671 6.657L22.418 4.91C20.999 4.096 19.358 3.396 17.631 2.896L17.471 2.856C15.61 2.312 13.473 2 11.262 2C11.129 2 10.997 2.001 10.864 2.003H10.884C6.993 2.121 3.722 4.649 2.504 8.139L2.484 8.203L12.151 6.003L13.164 7.016L12.004 3.789L16.964 8.762L12.017 18.695L12.124 18.802L19.804 11.602L26.951 18.735L25.084 20.908L20.671 16.481L19.338 17.814L22.271 20.761L20.564 22.668L17.524 19.628L14.444 22.708L8.324 16.588L9.337 14.961L5.67 11.334L3.683 11.987L2.003 10.307V10.88C2.001 10.99 2 11.12 2 11.25C2 13.453 2.308 15.584 2.883 17.603L2.843 17.44C5.029 25.068 10.911 30.954 18.376 33.107L18.536 33.147C20.395 33.691 22.53 34.004 24.738 34.004C24.873 34.004 25.008 34.003 25.143 34.001H25.123H25.696L19.976 28.281L27.563 19.334L32.083 23.867L28.776 22.534L29.723 23.481L25.216 29.308L28.936 33.028C31.881 31.535 33.89 28.575 34.002 25.136V25.121C34.004 25.011 34.005 24.881 34.005 24.751C34.005 22.548 33.697 20.417 33.122 18.398L33.162 18.561V18.564Z" />
<path d="M13.0155 9.09652L12.8555 8.93652L7.93555 10.5635L10.4955 13.1235L13.0155 9.09652Z" />
</svg>
