<svg width="28" height="28" viewBox="0 0 28 28" fill="none" xmlns="http://www.w3.org/2000/svg">
<path d="M13.9825 0C6.258 0.0105 0 6.27462 0 14C0 17.2917 1.13575 20.3184 3.03713 22.7089L3.01525 22.68C5.60175 25.9333 9.55937 28 14 28C21.7324 28 28 21.7324 28 14C28 6.26762 21.7324 0 14 0C13.9939 0 13.9886 0 13.9825 0ZM13.9825 2.33362C13.9869 2.33362 13.9921 2.33362 13.9974 2.33362C16.7536 2.33362 19.285 3.297 21.273 4.90525L21.2511 4.88863C21.9398 5.46 22.7561 6.3 22.6975 7C22.5575 8.51637 20.9825 7.40863 20.1075 9.05363C19.2325 10.6986 21.7411 12.4836 20.8425 13.545C19.9439 14.6064 18.0311 13.4286 16.7939 14.98C15.3239 16.8114 17.2253 18.48 15.8025 19.565C14.3797 20.65 13.7725 18.3986 11.6611 19.355C9.54975 20.3114 11.2998 23.17 9.31612 23.5664C7.91613 23.8464 6.41113 22.785 5.66475 22.1664C3.60237 20.0637 2.33013 17.1806 2.33013 14C2.33013 7.56175 7.546 2.34062 13.9825 2.33362Z" fill="currentColor"/>
<path d="M6.72622 19.8335C6.78834 19.8413 6.86097 19.8457 6.93359 19.8457C7.90047 19.8457 8.68359 19.0626 8.68359 18.0957C8.68359 17.1288 7.90047 16.3457 6.93359 16.3457C6.04547 16.3457 5.31222 17.0072 5.19847 17.8647L5.19759 17.8735C5.18884 17.94 5.18359 18.0178 5.18359 18.0957C5.18359 18.9891 5.85297 19.7258 6.71747 19.8326L6.72622 19.8335Z" fill="currentColor"/>
<path d="M12.0225 17.2895C12.8038 17.1031 13.377 16.411 13.377 15.585C13.377 14.6181 12.5938 13.835 11.627 13.835C10.6601 13.835 9.87695 14.6181 9.87695 15.585C9.87695 15.7258 9.89358 15.8632 9.92508 15.9945L9.92245 15.9822C10.1097 16.7627 10.801 17.3341 11.627 17.3341C11.767 17.3341 11.9035 17.3175 12.0347 17.286L12.0225 17.2895Z" fill="currentColor"/>
<path d="M16.1525 13.136C16.6372 12.8193 16.9531 12.2794 16.9531 11.666C16.9531 10.6991 16.17 9.91602 15.2031 9.91602C14.2362 9.91602 13.4531 10.6991 13.4531 11.666C13.4531 12.0221 13.559 12.3529 13.7419 12.6294L13.7375 12.6233C14.049 13.1089 14.5854 13.4256 15.1961 13.4256C15.5523 13.4256 15.8839 13.318 16.1586 13.1325L16.1525 13.136Z" fill="currentColor"/>
<path d="M7.57734 13.3812C8.36047 13.1957 8.93359 12.5027 8.93359 11.6758C8.93359 10.7089 8.15047 9.92578 7.18359 9.92578C6.21672 9.92578 5.43359 10.7089 5.43359 11.6758C5.43359 11.8132 5.44934 11.9462 5.47909 12.0748L5.47647 12.0625C5.65934 12.8492 6.35409 13.4258 7.18272 13.4258C7.32184 13.4258 7.45747 13.4092 7.58784 13.3785L7.57559 13.3812H7.57734Z" fill="currentColor"/>
<path d="M12.3253 8.99502C12.8057 8.6774 13.1172 8.14015 13.1172 7.53027C13.1172 6.5634 12.3341 5.78027 11.3672 5.78027C10.4003 5.78027 9.61719 6.5634 9.61719 7.53027C9.61719 7.88377 9.72219 8.21277 9.90244 8.4884L9.89806 8.4814C10.2174 8.96265 10.7573 9.2759 11.3707 9.2759C11.7251 9.2759 12.0558 9.1709 12.3314 8.99065L12.3244 8.99502H12.3253Z" fill="currentColor"/>
<path d="M16.1637 8.16623C16.4542 8.38848 16.8217 8.52148 17.2216 8.52148C18.1885 8.52148 18.9716 7.73836 18.9716 6.77148C18.9716 5.80461 18.1885 5.02148 17.2216 5.02148C16.6537 5.02148 16.1488 5.29186 15.8286 5.71186L15.8251 5.71623C15.6037 6.00586 15.4707 6.37336 15.4707 6.77148C15.4707 7.33848 15.7402 7.84336 16.1593 8.16273L16.1637 8.16623Z" fill="currentColor"/>
</svg>
