<svg width="36" height="36" viewBox="0 0 36 36" fill="none" xmlns="http://www.w3.org/2000/svg">
<path d="M9.26281 20.5293H10.9178C11.2658 20.5293 11.5478 20.8113 11.5478 21.1593V24.3643C11.5478 24.7123 11.2658 24.9943 10.9178 24.9943H9.26281C8.91481 24.9943 8.63281 24.7123 8.63281 24.3643V21.1593C8.63281 20.8113 8.91481 20.5293 9.26281 20.5293Z" fill="#B1BAD3"/>
<path d="M9.255 2.38086H10.92C11.613 2.38086 12.175 2.94286 12.175 3.63586V5.98086C12.175 6.67386 11.613 7.23586 10.92 7.23586H9.255C8.562 7.23586 8 6.67386 8 5.98086V3.63586C8 2.94286 8.562 2.38086 9.255 2.38086Z" fill="#B1BAD3"/>
<path d="M25.7355 20.5293H27.3905C27.7385 20.5293 28.0205 20.8113 28.0205 21.1593V24.3643C28.0205 24.7123 27.7385 24.9943 27.3905 24.9943H25.7355C25.3875 24.9943 25.1055 24.7123 25.1055 24.3643V21.1593C25.1055 20.8113 25.3875 20.5293 25.7355 20.5293Z" fill="#B1BAD3"/>
<path d="M25.7277 2.38086H27.3927C28.0857 2.38086 28.6477 2.94286 28.6477 3.63586V5.98086C28.6477 6.67386 28.0857 7.23586 27.3927 7.23586H25.7277C25.0347 7.23586 24.4727 6.67386 24.4727 5.98086V3.63586C24.4727 2.94286 25.0347 2.38086 25.7277 2.38086Z" fill="#B1BAD3"/>
<path d="M20.2908 23.125C28.6208 20.79 25.7908 14.47 25.7908 14.47C27.9658 13.06 27.7908 7.97 27.7908 7.97C27.3628 7.945 26.8618 7.931 26.3578 7.931C25.8538 7.931 25.3528 7.945 24.8558 7.973L24.9248 7.97C24.4158 8.126 23.9848 8.412 23.6578 8.791L23.6548 8.795H20.8248L19.8248 3.95H22.9248L24.4248 0H12.2398L13.7398 3.95H16.8248L15.8248 8.79H12.9648C12.6348 8.407 12.2038 8.121 11.7138 7.97L11.6948 7.965C11.2668 7.94 10.7658 7.926 10.2618 7.926C9.75777 7.926 9.25677 7.94 8.75977 7.968L8.82877 7.965C8.82877 7.965 8.66877 13.06 10.8288 14.465C10.8288 14.465 8.01377 20.785 16.3288 23.12C16.4868 25.247 16.7338 27.159 17.0748 29.039L17.0238 28.7L11.3238 25.5V30L18.3238 32L25.3238 30V25.5L19.6238 28.7C19.9058 27.154 20.1418 25.241 20.2788 23.301L20.2888 23.125H20.2908ZM16.6058 20.28V16H20.0458V20.28C20.0458 21.23 19.2758 22 18.3258 22C17.3758 22 16.6058 21.23 16.6058 20.28Z" fill="#B1BAD3"/>
</svg>
