<svg width="37" height="36" viewBox="0 0 37 36" xmlns="http://www.w3.org/2000/svg">
<path d="M23.7627 28.4255C23.7607 28.4255 23.7597 28.4255 23.7577 28.4255C22.0347 28.4255 20.6377 27.0285 20.6377 25.3055V24.6055H15.2877V25.3055C15.2877 27.0285 13.8907 28.4255 12.1677 28.4255C12.1657 28.4255 12.1627 28.4255 12.1627 28.4255C10.7217 28.4255 9.55273 29.5945 9.55273 31.0355C9.55273 31.0375 9.55273 31.0405 9.55273 31.0405V31.1055C9.55273 32.5825 10.7507 33.7805 12.2277 33.7805H23.6977C25.1747 33.7805 26.3727 32.5825 26.3727 31.1055V31.0405C26.3727 31.0405 26.3727 31.0375 26.3727 31.0355C26.3727 29.5945 25.2037 28.4255 23.7627 28.4255Z" />
<path d="M31.3481 9.31H30.4131L30.8231 3.835C30.8261 3.796 30.8281 3.751 30.8281 3.705C30.8281 2.763 30.0651 2 29.1231 2H6.80312C5.86112 2 5.09812 2.763 5.09812 3.705C5.09812 3.751 5.10013 3.796 5.10313 3.841V3.835L5.46313 8.925H4.57812C3.19712 8.925 2.07812 10.044 2.07812 11.425V16.78C2.07812 19.199 4.03913 21.16 6.45813 21.16C6.46012 21.16 6.46113 21.16 6.46313 21.16C7.09513 21.16 7.60813 20.647 7.60813 20.015C7.60813 19.383 7.09513 18.87 6.46313 18.87C5.31613 18.864 4.38812 17.933 4.38812 16.785C4.38812 16.783 4.38812 16.78 4.38812 16.78V11.41C4.38812 11.305 4.47312 11.22 4.57812 11.22H5.67312C6.31412 17.496 11.5711 22.351 17.9631 22.351C24.2181 22.351 29.3871 17.701 30.2011 11.669L30.2081 11.605H31.3481C31.3501 11.605 31.3511 11.605 31.3531 11.605C31.4551 11.605 31.5381 11.688 31.5381 11.79V17.17C31.5381 18.317 30.6101 19.247 29.4631 19.25C29.4401 19.248 29.4141 19.247 29.3871 19.247C28.7521 19.247 28.2371 19.762 28.2371 20.397C28.2371 21.032 28.7521 21.547 29.3871 21.547C29.4141 21.547 29.4401 21.546 29.4661 21.544H29.4621C31.8771 21.541 33.8341 19.584 33.8371 17.169V11.779C33.8201 10.415 32.7131 9.315 31.3481 9.309H31.3471L31.3481 9.31ZM22.9631 10.815L21.2931 12.44C21.1531 12.576 21.0651 12.767 21.0651 12.978C21.0651 13.026 21.0701 13.074 21.0781 13.12L21.0771 13.115L21.4621 15.405C21.4701 15.445 21.4741 15.492 21.4741 15.539C21.4741 15.959 21.1341 16.299 20.7141 16.299C20.5831 16.299 20.4601 16.266 20.3531 16.208L20.3571 16.21L18.3171 15.13C18.2141 15.073 18.0921 15.04 17.9621 15.04C17.8321 15.04 17.7101 15.073 17.6031 15.132L17.6071 15.13L15.5471 16.21C15.4491 16.259 15.3341 16.288 15.2121 16.288C14.7921 16.288 14.4521 15.948 14.4521 15.528C14.4521 15.485 14.4561 15.442 14.4631 15.401L14.4621 15.405L14.8521 13.115C14.8601 13.074 14.8651 13.027 14.8651 12.978C14.8651 12.767 14.7781 12.576 14.6381 12.44L12.9631 10.815C12.8231 10.676 12.7361 10.484 12.7361 10.272C12.7361 9.89 13.0171 9.573 13.3831 9.516L13.3871 9.515L15.6871 9.18C15.9321 9.142 16.1351 8.991 16.2451 8.784L16.2471 8.78L17.2771 6.695C17.4051 6.441 17.6641 6.271 17.9621 6.271C18.2601 6.271 18.5191 6.442 18.6451 6.691L18.6471 6.695L19.6771 8.78C19.7871 9.003 19.9981 9.162 20.2481 9.2H20.2521L22.5521 9.535C22.9091 9.605 23.1741 9.915 23.1741 10.287C23.1741 10.492 23.0931 10.678 22.9621 10.816L22.9631 10.815Z" />
</svg>
