<svg width="28" height="28" viewBox="0 0 28 28" fill="none" xmlns="http://www.w3.org/2000/svg">
<path d="M6.07078 17.9629H7.51891C7.82341 17.9629 8.07016 18.2096 8.07016 18.5141V21.3185C8.07016 21.623 7.82341 21.8698 7.51891 21.8698H6.07078C5.76628 21.8698 5.51953 21.623 5.51953 21.3185V18.5141C5.51953 18.2096 5.76628 17.9629 6.07078 17.9629Z" fill="currentColor"/>
<path d="M6.06492 2.08301H7.5218C8.12817 2.08301 8.61992 2.57476 8.61992 3.18113V5.23301C8.61992 5.83938 8.12817 6.33113 7.5218 6.33113H6.06492C5.45855 6.33113 4.9668 5.83938 4.9668 5.23301V3.18113C4.9668 2.57476 5.45855 2.08301 6.06492 2.08301Z" fill="currentColor"/>
<path d="M20.4848 17.9629H21.933C22.2375 17.9629 22.4842 18.2096 22.4842 18.5141V21.3185C22.4842 21.623 22.2375 21.8698 21.933 21.8698H20.4848C20.1803 21.8698 19.9336 21.623 19.9336 21.3185V18.5141C19.9336 18.2096 20.1803 17.9629 20.4848 17.9629Z" fill="currentColor"/>
<path d="M20.479 2.08301H21.9359C22.5422 2.08301 23.034 2.57476 23.034 3.18113V5.23301C23.034 5.83938 22.5422 6.33113 21.9359 6.33113H20.479C19.8726 6.33113 19.3809 5.83938 19.3809 5.23301V3.18113C19.3809 2.57476 19.8726 2.08301 20.479 2.08301Z" fill="currentColor"/>
<path d="M15.7205 20.2344C23.0092 18.1912 20.533 12.6613 20.533 12.6613C22.4361 11.4275 22.283 6.97375 22.283 6.97375C21.9085 6.95187 21.4701 6.93963 21.0291 6.93963C20.5881 6.93963 20.1497 6.95188 19.7149 6.97638L19.7752 6.97375C19.3299 7.11025 18.9527 7.3605 18.6666 7.69213L18.664 7.69563H16.1877L15.3127 3.45625H18.0252L19.3377 0H8.67586L9.98836 3.45625H12.6877L11.8127 7.69125H9.31023C9.02148 7.35612 8.64436 7.10588 8.21561 6.97375L8.19898 6.96938C7.82448 6.9475 7.38611 6.93525 6.94511 6.93525C6.50411 6.93525 6.06573 6.9475 5.63086 6.972L5.69123 6.96938C5.69123 6.96938 5.55123 11.4275 7.44123 12.6569C7.44123 12.6569 4.97811 18.1869 12.2537 20.23C12.392 22.0911 12.6081 23.7641 12.9065 25.4091L12.8619 25.1125L7.87436 22.3125V26.25L13.9994 28L20.1244 26.25V22.3125L15.1369 25.1125C15.3836 23.7598 15.5901 22.0859 15.71 20.3884L15.7187 20.2344H15.7205ZM12.4961 17.745V14H15.5061V17.745C15.5061 18.5763 14.8324 19.25 14.0011 19.25C13.1699 19.25 12.4961 18.5763 12.4961 17.745Z" fill="currentColor"/>
</svg>
