<svg width="28" height="28" viewBox="0 0 28 28" fill="none" xmlns="http://www.w3.org/2000/svg">
<path d="M4.64633 25.6777C4.64633 26.9604 3.60594 28.0008 2.32316 28.0008C1.04039 28.0008 0 26.9604 0 25.6777C0 24.3949 1.04039 23.3545 2.32316 23.3545C3.60594 23.3545 4.64633 24.3949 4.64633 25.6777Z" fill="currentColor"/>
<path d="M10.4823 25.6777C10.4823 26.9604 9.44187 28.0008 8.1591 28.0008C6.87633 28.0008 5.83594 26.9604 5.83594 25.6777C5.83594 24.3949 6.87633 23.3545 8.1591 23.3545C9.44187 23.3545 10.4823 24.3949 10.4823 25.6777Z" fill="currentColor"/>
<path d="M16.3241 25.6777C16.3241 26.9604 15.2837 28.0008 14.0009 28.0008C12.7181 28.0008 11.6777 26.9604 11.6777 25.6777C11.6777 24.3949 12.7181 23.3545 14.0009 23.3545C15.2837 23.3545 16.3241 24.3949 16.3241 25.6777Z" fill="currentColor"/>
<path d="M22.1639 25.6777C22.1639 26.9604 21.1235 28.0008 19.8407 28.0008C18.558 28.0008 17.5176 26.9604 17.5176 25.6777C17.5176 24.3949 18.558 23.3545 19.8407 23.3545C21.1235 23.3545 22.1639 24.3949 22.1639 25.6777Z" fill="currentColor"/>
<path d="M27.9998 25.6777C27.9998 26.9604 26.9595 28.0008 25.6767 28.0008C24.3939 28.0008 23.3535 26.9604 23.3535 25.6777C23.3535 24.3949 24.3939 23.3545 25.6767 23.3545C26.9595 23.3545 27.9998 24.3949 27.9998 25.6777Z" fill="currentColor"/>
<path d="M7.56625 19.8407C7.56625 21.1235 6.52586 22.1639 5.24309 22.1639C3.96031 22.1639 2.91992 21.1235 2.91992 19.8407C2.91992 18.558 3.96031 17.5176 5.24309 17.5176C6.52586 17.5176 7.56625 18.558 7.56625 19.8407Z" fill="currentColor"/>
<path d="M13.4041 19.8407C13.4041 21.1235 12.3637 22.1639 11.081 22.1639C9.79821 22.1639 8.75781 21.1235 8.75781 19.8407C8.75781 18.558 9.79821 17.5176 11.081 17.5176C12.3637 17.5176 13.4041 18.558 13.4041 19.8407Z" fill="currentColor"/>
<path d="M19.242 19.8407C19.242 21.1235 18.2016 22.1639 16.9189 22.1639C15.6361 22.1639 14.5957 21.1235 14.5957 19.8407C14.5957 18.558 15.6361 17.5176 16.9189 17.5176C18.2016 17.5176 19.242 18.558 19.242 19.8407Z" fill="currentColor"/>
<path d="M25.0819 19.8407C25.0819 21.1235 24.0415 22.1639 22.7587 22.1639C21.4759 22.1639 20.4355 21.1235 20.4355 19.8407C20.4355 18.558 21.4759 17.5176 22.7587 17.5176C24.0415 17.5176 25.0819 18.558 25.0819 19.8407Z" fill="currentColor"/>
<path d="M10.4823 13.9999C10.4823 15.2827 9.44187 16.3231 8.1591 16.3231C6.87633 16.3231 5.83594 15.2827 5.83594 13.9999C5.83594 12.7172 6.87633 11.6768 8.1591 11.6768C9.44187 11.6768 10.4823 12.7172 10.4823 13.9999Z" fill="currentColor"/>
<path d="M16.3241 13.9999C16.3241 15.2827 15.2837 16.3231 14.0009 16.3231C12.7181 16.3231 11.6777 15.2827 11.6777 13.9999C11.6777 12.7172 12.7181 11.6768 14.0009 11.6768C15.2837 11.6768 16.3241 12.7172 16.3241 13.9999Z" fill="currentColor"/>
<path d="M22.1639 13.9999C22.1639 15.2827 21.1235 16.3231 19.8407 16.3231C18.558 16.3231 17.5176 15.2827 17.5176 13.9999C17.5176 12.7172 18.558 11.6768 19.8407 11.6768C21.1235 11.6768 22.1639 12.7172 22.1639 13.9999Z" fill="currentColor"/>
<path d="M13.4041 8.1591C13.4041 9.44187 12.3637 10.4823 11.081 10.4823C9.79821 10.4823 8.75781 9.44187 8.75781 8.1591C8.75781 6.87633 9.79821 5.83594 11.081 5.83594C12.3637 5.83594 13.4041 6.87633 13.4041 8.1591Z" fill="currentColor"/>
<path d="M19.242 8.1591C19.242 9.44187 18.2016 10.4823 16.9189 10.4823C15.6361 10.4823 14.5957 9.44187 14.5957 8.1591C14.5957 6.87633 15.6361 5.83594 16.9189 5.83594C18.2016 5.83594 19.242 6.87633 19.242 8.1591Z" fill="currentColor"/>
<path d="M16.3241 2.32316C16.3241 3.60594 15.2837 4.64633 14.0009 4.64633C12.7181 4.64633 11.6777 3.60594 11.6777 2.32316C11.6777 1.04039 12.7181 0 14.0009 0C15.2837 0 16.3241 1.04039 16.3241 2.32316Z" fill="currentColor"/>
</svg>
