<svg width="28" height="28" viewBox="0 0 28 28" fill="none" xmlns="http://www.w3.org/2000/svg">
<path d="M6.70535 5.89306H13.2678V2.1306C13.2678 2.1306 9.81594 0 8.99345 0C8.17095 0 4.24662 1.47436 4.08475 1.80248C4.041 1.92498 4.01562 2.06673 4.01562 2.21373C4.01562 2.36072 4.041 2.50247 4.08737 2.63372L4.08475 2.62497C4.08475 2.62497 6.55222 3.43871 6.70535 5.89306Z" fill="currentColor"/>
<path d="M11.3666 22.6798L6.86914 22.7498C8.01538 26.5166 13.2566 27.9997 13.2566 27.9997V21.2842C12.8252 21.9605 12.1655 22.4584 11.3893 22.6745L11.3666 22.6798Z" fill="currentColor"/>
<path d="M23.498 2.62497C23.5391 2.50247 23.5636 2.36247 23.5636 2.21548C23.5636 2.06848 23.54 1.92848 23.4954 1.79723L23.498 1.80686C23.3318 1.47436 19.4031 0 18.585 0C17.7668 0 14.3281 2.1306 14.3281 2.1306V5.89306H20.8906C21.0393 3.43871 23.498 2.62497 23.498 2.62497Z" fill="currentColor"/>
<path d="M14.4298 20.3836C14.4 20.3381 14.3694 20.2856 14.3423 20.2304L14.3379 20.2217V28.0003C14.3379 28.0003 19.5878 26.526 20.7253 22.7504L18.4985 22.711C16.7791 22.6918 15.2785 21.773 14.442 20.4046L14.4298 20.3836Z" fill="currentColor"/>
<path d="M10.8791 11.5459L14.3178 6.96094H4.32982C3.01733 6.96094 2.19922 8.43092 2.19922 8.43092V10.5615H10.0523L10.8791 11.5459Z" fill="currentColor"/>
<path d="M4.49317 17.2771L1.2207 21.5339C1.2207 21.5339 10.0625 21.6958 10.8806 21.5339C11.6987 21.372 13.0068 19.7314 12.5168 18.4233C12.0268 17.1152 7.26689 11.2178 7.26689 11.2178H2.20069L7.42876 18.0952H5.14941L4.49317 17.2771Z" fill="currentColor"/>
<path d="M14.6484 10.5615H22.344L23.1796 11.5459L26.7802 6.96094H17.269C16.0502 7.8438 15.1341 9.07666 14.6624 10.5116L14.6484 10.5615Z" fill="currentColor"/>
<path d="M19.2413 17.6008C18.8248 17.0627 18.5693 16.3802 18.5588 15.6391V15.6365C18.5588 13.1821 18.7207 11.2178 18.7207 11.2178H14.4814C14.4814 11.2178 13.007 14.4902 14.3195 17.7802C15.632 21.0702 20.2126 23.3451 24.9638 19.4164H22.925C22.9102 19.4164 22.8935 19.4164 22.876 19.4164C21.3947 19.4164 20.0796 18.7086 19.2492 17.6122L19.2413 17.6008Z" fill="currentColor"/>
</svg>
