<svg width="28" height="28" viewBox="0 0 28 28" fill="none" xmlns="http://www.w3.org/2000/svg">
<path fill-rule="evenodd" clip-rule="evenodd" d="M17.0899 0H10.6651V3.20629H17.0899V0ZM24.0414 7.37281L22.3799 9.28009V9.28096L22.3703 9.27043C24.152 11.2593 25.2351 13.8855 25.2351 16.7652C25.2351 22.9698 20.205 28 14.0004 28C7.79581 28 2.76562 22.9698 2.76562 16.7652C2.76562 13.8855 3.84873 11.2585 5.62083 9.28096L3.95932 7.39651L6.38181 5.28999L8.07758 7.23139C9.79461 6.15597 11.825 5.53487 14.0004 5.53487C16.1947 5.53487 18.2415 6.16683 19.9223 7.23237L21.619 5.26629L24.0414 7.37281ZM8.83942 21.9069L14.0004 16.7696V9.49074H13.996C9.97606 9.49074 6.7171 12.7497 6.7171 16.7696C6.7171 18.7743 7.52811 20.5903 8.83942 21.9069Z" fill="currentColor"/>
</svg>
