<svg width="28" height="28" viewBox="0 0 28 28" fill="none" xmlns="http://www.w3.org/2000/svg">
<path d="M14 0C6.26762 0 0 6.26762 0 14C0 21.7324 6.26762 28 14 28C21.7324 28 28 21.7324 28 14C28 6.26762 21.7324 0 14 0ZM12.67 14.1164L9.26363 15.8077C9.21638 15.8235 9.18312 15.8673 9.18312 15.9189C9.18312 15.9705 9.21638 16.0142 9.26275 16.0291H12.8336C12.8993 16.0352 12.9509 16.0904 12.9509 16.1569C12.9509 16.1613 12.9509 16.1656 12.95 16.17L12.3436 18.9691C12.3288 19.0216 12.2824 19.0592 12.2273 19.0627H2.63725C2.6355 19.0627 2.63375 19.0627 2.632 19.0627C2.56725 19.0627 2.51562 19.0103 2.51562 18.9464C2.51562 18.9341 2.51737 18.9219 2.52087 18.9105V18.9114L3.08087 16.5777C3.07825 16.5655 3.0765 16.5515 3.0765 16.5366C3.0765 16.5217 3.07825 16.5077 3.08087 16.4946V16.4964L10.5122 12.3314C10.5157 12.3191 10.5184 12.3051 10.5184 12.2902C10.5184 12.2754 10.5157 12.2614 10.5122 12.2483L10.5822 11.9455C10.5822 11.942 10.5831 11.9376 10.5831 11.9332C10.5831 11.8659 10.5315 11.8116 10.4668 11.8055H7.2695C7.2205 11.8081 7.17937 11.8414 7.1645 11.886V11.8869L7.00088 12.7269C6.99475 12.7794 6.95012 12.8205 6.89675 12.8205H6.89587H3.8395C3.773 12.8153 3.7205 12.7601 3.7205 12.6928C3.7205 12.684 3.72137 12.6761 3.72312 12.6683L4.2245 10.4055C4.32075 9.59175 5.00325 8.96525 5.83362 8.95913H13.1723C14.1636 8.95913 14.3386 9.65913 14.2459 10.3705L13.7323 12.7041C13.6483 13.3402 13.2405 13.8644 12.6822 14.1111L12.6709 14.1155L12.67 14.1164ZM21.2686 13.8014C21.2546 13.8189 21.2467 13.8416 21.2467 13.8653C21.2467 13.8889 21.2546 13.9116 21.2686 13.93L23.52 18.8886C23.5296 18.9053 23.5358 18.9254 23.5358 18.9473C23.5358 19.012 23.4832 19.0636 23.4194 19.0636C23.4176 19.0636 23.4167 19.0636 23.415 19.0636H19.635C19.5886 19.0627 19.5484 19.0347 19.53 18.9945L18.1886 16.1586C18.1729 16.1114 18.1291 16.0781 18.0775 16.0781C18.0259 16.0781 17.9821 16.1114 17.9673 16.1577L17.3836 18.9473C17.3687 18.9998 17.3224 19.0374 17.2673 19.0409H13.8836C13.8828 19.0409 13.8819 19.0409 13.881 19.0409C13.8162 19.0409 13.7646 18.9884 13.7646 18.9245C13.7646 18.9166 13.7655 18.9079 13.7672 18.9L15.8322 9.00725C15.8497 8.9565 15.8944 8.92063 15.9486 8.91363H15.9495H19.3331C19.334 8.91363 19.3349 8.91363 19.3358 8.91363C19.4005 8.91363 19.4521 8.96612 19.4521 9.03C19.4521 9.03788 19.4513 9.04662 19.4495 9.0545L18.9359 11.4922C18.9333 11.501 18.9324 11.5106 18.9324 11.5203C18.9324 11.585 18.9849 11.6366 19.0487 11.6366C19.089 11.6366 19.124 11.6165 19.145 11.5859L21.315 8.9845C21.329 8.9775 21.3447 8.974 21.3614 8.974C21.378 8.974 21.3946 8.97838 21.4086 8.98538H25.3628C25.4266 8.98625 25.4774 9.03788 25.4774 9.10175C25.4774 9.13325 25.4643 9.16212 25.4441 9.18312L21.2686 13.8014Z" fill="currentColor"/>
</svg>
