<svg width="36" height="36" viewBox="0 0 36 36" fill="none" xmlns="http://www.w3.org/2000/svg">
<path d="M19.399 26.2801C22.746 26.2721 25.458 23.5611 25.466 20.2141V20.2131H19.399L19.946 14.1731C19.864 14.1671 19.769 14.1631 19.673 14.1631C19.577 14.1631 19.481 14.1671 19.387 14.1741L19.4 14.1731C16.725 14.1901 14.462 15.9411 13.679 18.3571L13.667 18.4001H3V21.6801H13.533C14.207 24.3391 16.576 26.2751 19.399 26.2801Z" fill="#B1BAD3"/>
<path d="M15.9316 2H22.8646V5.467H15.9316V2Z" fill="#B1BAD3"/>
<path d="M28.4513 12.1468L30.2383 10.0798L27.5713 7.7998L25.7843 9.9068C23.9723 8.7498 21.7623 8.0618 19.3913 8.0618C15.9483 8.0618 12.8443 9.5118 10.6563 11.8338L10.6503 11.8398H6.27734V15.1198H14.4103V13.1468C15.7883 12.1268 17.5203 11.5118 19.3963 11.5068H19.3973C23.9793 11.7688 27.5963 15.5488 27.5963 20.1738C27.5963 24.7988 23.9793 28.5788 19.4203 28.8398L19.3973 28.8408C19.3953 28.8408 19.3923 28.8408 19.3893 28.8408C17.5203 28.8408 15.7923 28.2408 14.3853 27.2238L14.4103 27.2408V24.9608H6.27734V28.2408H10.2773C12.5113 30.7548 15.7533 32.3318 19.3643 32.3318C26.0673 32.3318 31.5013 26.8978 31.5013 20.1948C31.5013 17.1018 30.3443 14.2788 28.4393 12.1358L28.4503 12.1478L28.4513 12.1468Z" fill="#B1BAD3"/>
</svg>
