<svg width="28" height="28" viewBox="0 0 28 28" fill="none" xmlns="http://www.w3.org/2000/svg">
<path d="M9.76319 5.24409C10.6053 4.74778 11.162 3.84532 11.162 2.81243C11.162 1.25872 9.90237 0 8.34954 0C6.79671 0 5.53711 1.2596 5.53711 2.81243C5.53711 3.32975 5.67629 3.8138 5.91963 4.22959L5.91263 4.21646C6.40456 5.0664 7.30877 5.62924 8.34516 5.62924C8.86861 5.62924 9.35792 5.48568 9.77632 5.23621L9.76319 5.24322V5.24409Z" fill="currentColor"/>
<path d="M21.004 22.9844L17.9465 11.3137L15.9508 7.81237C16.209 7.79224 16.5101 7.78086 16.8147 7.78086C17.1193 7.78086 17.4196 7.79224 17.718 7.815L17.6787 7.81237C17.7697 7.80974 17.8756 7.80799 17.9824 7.80799C19.9265 7.80799 21.7384 8.37521 23.2606 9.35295L23.2221 9.32931L25.1364 7.12349C23.3394 5.58291 20.1532 4.95267 17.7837 4.89403C17.6743 4.8914 17.5456 4.88965 17.4161 4.88965C16.0908 4.88965 14.8058 5.06121 13.583 5.38421L13.6872 5.36057C13.3712 5.24153 13.0061 5.17325 12.6254 5.17325C12.059 5.17325 11.5277 5.32469 11.0699 5.58991L11.0848 5.58203H10.9798C10.0309 6.12211 9.40155 7.12699 9.40155 8.27804C9.40155 8.84526 9.55385 9.37571 9.81995 9.83263L9.81208 9.81775L12.228 13.9957L11.3527 16.1779L11.8665 18.115L6.99965 15.594C6.34665 15.2352 5.91161 14.5524 5.91161 13.7672C5.91161 13.4241 5.99477 13.1011 6.14183 12.8166L6.13657 12.828L3.33552 11.3224C2.95563 12.0288 2.73242 12.8683 2.73242 13.7602C2.73242 15.763 3.85897 17.5031 5.51334 18.3811L5.54135 18.3951L7.00052 19.189L7.67715 19.5391L16.4191 24.1372L18.6135 25.3041L23.7954 28.0001L25.266 25.199L21.004 22.9844ZM15.4019 20.0083L14.4566 16.4256L15.0632 14.9087L15.8571 14.745L17.5027 21.141L15.4019 20.0083Z" fill="currentColor"/>
</svg>
