<svg width="28" height="28" viewBox="0 0 28 28" fill="none" xmlns="http://www.w3.org/2000/svg">
<path d="M28 14C28 16.3975 27.3875 18.655 26.3375 20.615C23.975 25.0075 19.3375 28 14 28H13.79C12.3375 27.9825 10.92 27.7375 9.60749 27.3C4.02499 25.4625 0 20.195 0 14C0 13.5625 0.0174999 13.125 0.0699999 12.6875C0.419999 8.71499 2.45 5.23249 5.42499 2.94C6.07249 2.4325 6.77249 1.9775 7.52499 1.5925C9.44999 0.577499 11.655 0 14 0C17.0975 0 19.9675 1.015 22.295 2.73C23.205 3.395 24.0275 4.165 24.745 5.03999C26.2675 6.85999 27.335 9.06499 27.7725 11.48C27.8075 11.655 27.8425 11.8475 27.86 12.0225C27.9475 12.67 28 13.335 28 14Z" fill="#4B9DE9"/>
<path d="M15.9078 25.0079C15.6628 25.1129 15.1553 25.5504 15.0678 26.4779C14.9978 27.1779 14.4028 27.6679 13.7903 28.0004C12.3378 27.9829 10.9203 27.7379 9.6078 27.3004C9.6253 26.7404 9.6778 26.2154 9.7478 25.7954C9.8353 25.2354 9.6953 23.8529 8.2778 22.7504C6.5103 21.3854 6.80781 20.4054 7.3328 19.7054C7.8578 19.0229 7.3328 18.6379 6.8078 17.9379C6.4053 17.3954 4.76031 16.3454 3.99031 15.8729C1.15531 15.8729 0.787812 14.5779 0.962811 13.9129C0.210312 13.9129 0.157812 13.1254 0.227812 12.7404C0.175312 12.7229 0.122812 12.7054 0.0703125 12.6879C0.420312 8.71542 2.45031 5.23293 5.42531 2.94043L5.56531 3.11543C7.1228 4.28793 8.6978 3.71043 9.1178 3.41293C9.4328 3.18543 9.9228 2.92293 10.2728 2.97543C10.3953 2.97543 10.5003 3.01043 10.5703 3.11543C11.1478 3.92043 10.5353 4.23543 9.8878 4.44543H9.8703C9.5903 4.53293 9.3103 4.60293 9.1178 4.69043C8.6103 4.91793 8.9078 5.56543 9.1178 5.86293C9.9228 6.35293 10.9553 5.81043 11.5153 5.35543C11.6028 5.30293 11.6728 5.23293 11.7253 5.18043C11.9528 5.05793 12.4078 4.90043 12.7928 4.98793C12.9328 5.00543 13.0728 5.07543 13.1778 5.18043C13.7028 5.67043 14.2278 6.05543 15.0678 6.65043C15.9078 7.24542 15.0678 8.31292 14.2278 7.63042C13.5628 7.08792 13.2478 7.40292 13.1778 7.63042C13.9128 8.80292 12.1453 8.71542 11.0953 8.90792C10.0453 9.10042 9.2228 10.5704 8.6978 10.8679C8.1728 11.1654 8.1728 13.0379 7.3328 13.2304C6.66781 13.3879 6.7028 12.9679 6.8078 12.7404C6.8078 10.8679 2.85281 11.7604 2.85281 13.2304C2.85281 14.7004 4.30531 14.5954 5.14531 14.5954C5.81031 14.5954 5.70531 15.1204 5.56531 15.3829C5.77531 15.3829 6.19531 15.5404 6.19531 16.1704C6.19531 16.8004 6.9478 17.0979 7.3328 17.1504C8.1728 16.6954 9.2228 16.4679 9.7478 16.4679C12.6703 16.6604 15.9078 20.0029 17.1503 22.2604C18.1653 24.0629 16.7303 24.8504 15.9078 25.0079Z" fill="#80E690"/>
<path d="M22.5574 8.10254C22.4699 7.61254 22.4874 6.66754 23.2574 6.66754C24.0274 6.66754 24.3599 6.09004 24.4124 5.81004L24.7449 5.04004C26.2674 6.86004 27.3349 9.06503 27.7724 11.48C27.7199 11.4275 27.6499 11.375 27.5974 11.34C27.4924 11.34 27.0899 11.13 26.4424 10.29C25.6549 9.24003 24.8499 10.29 24.8499 10.5875C24.8499 10.8675 24.4124 11.34 23.2574 11.34C22.3474 11.34 22.6974 10.64 22.9949 10.29C23.7824 10.4475 24.2724 9.90503 24.4124 9.62503C23.4149 9.17003 23.5199 8.41753 23.7124 8.10254C23.1349 8.62753 22.6974 8.31254 22.5574 8.10254Z" fill="#80E690"/>
<path d="M27.9993 14.0004C27.9993 16.3978 27.3868 18.6553 26.3368 20.6153C26.1793 20.3703 26.0918 20.0553 26.0918 19.6528C26.0918 18.2178 25.0243 18.6028 24.4118 18.7953C22.5043 19.7753 21.5418 18.5678 21.3143 17.8328C21.0693 17.2903 20.7368 15.8904 21.3143 14.5954C21.8743 13.2829 22.6618 12.6529 22.9943 12.4954C23.3268 12.4954 24.1843 12.3379 25.0243 11.7254C25.8818 11.1129 26.3368 11.6029 26.4418 11.9179C26.5643 12.1454 26.9668 12.5129 27.5968 12.1979C27.7193 12.1454 27.8068 12.0754 27.8593 12.0229C27.9468 12.6704 27.9993 13.3354 27.9993 14.0004Z" fill="#80E690"/>
<path d="M22.2954 2.73L22.0854 3.0975C22.0504 3.6225 21.1754 4.68999 17.9729 4.68999C17.6754 5.24999 16.8354 6.31749 15.8554 6.08999C15.5929 6.03749 15.1204 5.66999 15.2954 4.68999C15.5229 4.1475 15.7329 3.0975 14.7529 3.0975C13.7729 3.0975 12.9329 2.9225 12.6354 2.835C12.2679 2.6775 11.4979 2.5375 11.4104 3.0975C11.3229 3.6575 11.6729 3.8675 11.8479 3.885C12.3379 4.0775 13.0204 4.49749 12.7929 4.98749C12.7229 5.14499 12.5654 5.31999 12.3029 5.47749C12.1629 5.58249 11.8654 5.61749 11.5154 5.35499C11.3054 5.19749 11.0779 4.93499 10.8504 4.51499C10.5879 4.54999 10.2029 4.54999 9.88789 4.44499H9.87039C9.60789 4.33999 9.41539 4.1825 9.41539 3.885C9.41539 3.5175 9.90539 3.2375 10.2729 2.975C10.7279 2.6425 11.0429 2.3275 10.1854 1.9425C9.92289 1.715 9.03039 1.3125 7.52539 1.5925C9.45039 0.577499 11.6554 0 14.0004 0C17.0979 0 19.9679 1.015 22.2954 2.73Z" fill="#80E690"/>
</svg>
