<svg width="36" height="36" viewBox="0 0 36 36" fill="none" xmlns="http://www.w3.org/2000/svg">
<path d="M3.51172 11.1826L5.76472 13.4356C7.61072 15.2676 8.99672 17.5606 9.73772 20.1266L9.76472 20.2356C10.7727 23.8666 14.0487 26.4876 17.9367 26.4876C19.6807 26.4876 21.3017 25.9606 22.6487 25.0566L22.6187 25.0756C24.7017 23.6716 26.1217 21.4236 26.3887 18.8326L26.3917 18.7956C26.4147 18.5586 26.4287 18.2826 26.4287 18.0046C26.4287 14.1456 23.8637 10.8866 20.3457 9.8386L20.2857 9.8236C17.5787 9.0576 15.2557 7.6716 13.3917 5.8226L13.3927 5.8236L11.1797 3.5166C7.77672 5.1056 5.10272 7.7806 3.55372 11.0876L3.51372 11.1836L3.51172 11.1826Z" fill="#B1BAD3"/>
<path d="M29.297 6.663C26.404 3.782 22.414 2 18.007 2C16.575 2 15.186 2.188 13.865 2.541L13.977 2.516L15.31 3.849C16.856 5.428 18.786 6.625 20.948 7.29L21.043 7.315C22.937 7.869 24.562 8.847 25.871 10.143L25.87 10.142C27.806 12.146 28.999 14.879 28.999 17.891C28.999 24.054 24.002 29.051 17.839 29.051C15.552 29.051 13.426 28.363 11.656 27.183L11.697 27.209C9.54 25.732 7.952 23.56 7.249 21.02L7.231 20.942C6.586 18.725 5.426 16.828 3.886 15.317L3.884 15.315L2.511 13.982C2.187 15.185 2 16.567 2 17.992C2 26.829 9.163 33.992 18 33.992C26.837 33.992 34 26.829 34 17.992C34 13.566 32.203 9.559 29.298 6.662L29.297 6.663Z" fill="#B1BAD3"/>
</svg>
