<svg width="18" height="18" viewBox="0 0 18 18" fill="none" xmlns="http://www.w3.org/2000/svg">
<path fill-rule="evenodd" clip-rule="evenodd" d="M9 18C13.9706 18 18 13.9706 18 9C18 4.02944 13.9706 0 9 0C4.02944 0 0 4.02944 0 9C0 13.9706 4.02944 18 9 18ZM12.6 3V4.2H15V6C14.9937 6.72047 14.7284 7.41461 14.2524 7.95553C13.7765 8.49646 13.1218 8.84804 12.408 8.946C12.2004 9.56239 11.8297 10.111 11.3353 10.5336C10.8409 10.9562 10.2412 11.2369 9.6 11.346V13.8H11.4V15H6.6V13.8H8.4V11.358C7.7588 11.2489 7.15914 10.9682 6.66471 10.5456C6.17029 10.123 5.79959 9.57439 5.592 8.958C4.87617 8.85974 4.21984 8.50643 3.74365 7.963C3.26747 7.41957 3.0034 6.72254 3 6V4.2H5.4V3H12.6ZM4.2 5.4V6C4.1998 6.37239 4.31511 6.73568 4.53003 7.03979C4.74495 7.3439 5.04891 7.57387 5.4 7.698V5.4H4.2ZM13.47 7.03979C13.6849 6.73568 13.8002 6.37239 13.8 6V5.4H12.6V7.698C12.9511 7.57387 13.255 7.3439 13.47 7.03979Z" fill="currentColor"/>
</svg>
