<svg width="28" height="28" viewBox="0 0 28 28" fill="none" xmlns="http://www.w3.org/2000/svg">
<path d="M17.2639 7.2149C17.6906 6.72778 17.9512 6.085 17.9512 5.38187C17.9512 3.84269 16.7033 2.59473 15.1641 2.59473C13.6249 2.59473 12.377 3.84269 12.377 5.38187C12.377 6.2188 12.746 6.97003 13.3302 7.48076L13.3337 7.48338C13.8208 7.90928 14.4618 8.16902 15.1641 8.16902C16.0002 8.16902 16.7496 7.80084 17.2604 7.2184L17.2639 7.2149Z" fill="currentColor"/>
<path d="M26.1617 16.5438C25.3703 16.744 24.6741 17.0519 24.0471 17.4585L24.0742 17.4419L23.5731 17.7681C22.905 18.3278 22.0365 18.6671 21.0885 18.6671C21.0562 18.6671 21.0238 18.6671 20.9915 18.6663H20.9958C20.9687 18.6671 20.9373 18.6671 20.9049 18.6671C19.9753 18.6671 19.1226 18.3366 18.4588 17.7865L18.4649 17.7917C17.4435 17.0064 16.1842 16.4817 14.812 16.3365L14.7805 16.3339H13.9996C13.9637 16.333 13.9226 16.333 13.8806 16.333C12.24 16.333 10.7279 16.8813 9.5167 17.8049L9.53419 17.7917C8.87654 18.3366 8.02386 18.6671 7.09423 18.6671C7.06187 18.6671 7.03039 18.6671 6.99891 18.6663H7.00328C6.97879 18.6671 6.94906 18.6671 6.9202 18.6671C5.99232 18.6671 5.14139 18.3366 4.4785 17.7865L4.48462 17.7917C3.29088 16.8813 1.77793 16.333 0.137302 16.333C0.0909517 16.333 0.0454758 16.333 0 16.3339H0.00699619V19.832C0.0428521 19.8312 0.0839555 19.8311 0.125933 19.8311C1.76656 19.8311 3.27863 20.3795 4.48986 21.303L4.47237 21.2899C4.86242 21.5872 5.31543 21.8286 5.80342 21.9913L5.83665 22.0009L6.31502 22.1172C6.52141 22.146 6.75928 22.1627 7.00241 22.1635H7.00328C7.03039 22.1644 7.06187 22.1644 7.09423 22.1644C8.02386 22.1644 8.87654 21.8338 9.54031 21.2838L9.53419 21.289C10.7279 20.3786 12.24 19.8303 13.8806 19.8303C13.9226 19.8303 13.9646 19.8303 14.0066 19.8311H14.0004H14.4316C15.9629 19.8932 17.3604 20.4223 18.4964 21.2785L18.4781 21.2654C19.1401 21.8242 20.0024 22.1635 20.9451 22.1635C20.9635 22.1635 20.9819 22.1635 21.0002 22.1635H20.9976C21.0195 22.1644 21.0457 22.1644 21.0719 22.1644C22.0068 22.1644 22.8647 21.8338 23.5346 21.2838L23.5276 21.289C24.717 20.3786 26.2264 19.8303 27.8627 19.8303C27.909 19.8303 27.9545 19.8303 28 19.8311H27.993V16.333C27.9764 16.333 27.9571 16.333 27.937 16.333C27.3074 16.333 26.6952 16.41 26.1101 16.5543L26.1617 16.5438Z" fill="currentColor"/>
<path d="M20.9958 24.4953C20.9687 24.4961 20.9373 24.4961 20.9049 24.4961C19.9753 24.4961 19.1226 24.1656 18.4588 23.6155L18.4649 23.6207C17.2703 22.7103 15.7565 22.162 14.1141 22.162C14.0739 22.162 14.0328 22.162 13.9926 22.1629H13.9987H13.6839C12.1149 22.2127 10.6798 22.7479 9.51407 23.6225L9.53331 23.6085C8.87391 24.1603 8.01599 24.4953 7.08024 24.4953C7.05313 24.4953 7.02602 24.4953 6.99891 24.4944H7.00328C6.97879 24.4953 6.94906 24.4953 6.9202 24.4953C5.99232 24.4953 5.14139 24.1647 4.4785 23.6146L4.48462 23.6199C3.29088 22.7095 1.77793 22.1611 0.137302 22.1611C0.0909517 22.1611 0.0454758 22.1611 0 22.162H0.00699619V25.6601C0.0428521 25.6593 0.0839555 25.6593 0.125933 25.6593C1.76656 25.6593 3.27863 26.2076 4.48986 27.1311L4.47237 27.118C5.12828 27.6628 5.9792 27.9934 6.90796 27.9934C6.94119 27.9934 6.97442 27.9925 7.00765 27.9925H7.00241C7.02952 27.9934 7.061 27.9934 7.09336 27.9934C8.02299 27.9934 8.87566 27.6628 9.53943 27.1128L9.53331 27.118C10.7271 26.2076 12.2391 25.6593 13.8798 25.6593C13.9217 25.6593 13.9637 25.6593 14.0057 25.6601H13.9996C14.0372 25.6593 14.0818 25.6593 14.1264 25.6593C15.7679 25.6593 17.2817 26.2076 18.4947 27.1311L18.4772 27.118C19.1348 27.6628 19.9866 27.9934 20.9163 27.9934C20.9442 27.9934 20.9722 27.9934 21.0002 27.9925H20.9958C21.0177 27.9934 21.0439 27.9934 21.0702 27.9934C22.0051 27.9934 22.863 27.6628 23.5329 27.1128L23.5259 27.118C24.7152 26.2076 26.2247 25.6593 27.861 25.6593C27.9073 25.6593 27.9528 25.6593 27.9983 25.6601H27.9913V22.162C27.9528 22.1611 27.9064 22.1611 27.861 22.1611C26.2238 22.1611 24.7152 22.7095 23.5084 23.633L23.5259 23.6199C22.8621 24.1647 22.0051 24.4953 21.0702 24.4953C21.0439 24.4953 21.0177 24.4953 20.9915 24.4944H20.995L20.9958 24.4953Z" fill="currentColor"/>
<path d="M6.16287 4.20636C6.52318 4.48008 6.97444 4.65149 7.46418 4.67248H7.46855H8.03962L8.35445 4.57891H8.43579C8.79522 4.40925 9.09606 4.16875 9.32956 3.87316L9.33393 3.86791C9.689 3.46125 9.90501 2.92516 9.90501 2.33922C9.90501 1.05103 8.86081 0.00683594 7.57262 0.00683594C6.28443 0.00683594 5.24023 1.05103 5.24023 2.33922C5.24023 3.04147 5.55069 3.67114 6.04218 4.09879L6.04481 4.10141L6.16287 4.20636Z" fill="currentColor"/>
<path d="M9.07796 6.10728C8.64331 6.28743 8.13783 6.39237 7.60874 6.39237C7.07964 6.39237 6.57416 6.28743 6.11328 6.09766L6.13952 6.10728C6.25146 7.23718 6.64063 8.25863 7.23793 9.1253L7.22394 9.10344C7.79064 9.90976 8.49289 10.5788 9.30446 11.0913L9.33419 11.1087L7.70144 16.1811L8.22616 15.8548C9.77146 14.6961 11.7208 13.9991 13.8328 13.9991C13.8905 13.9991 13.9491 14 14.0068 14.0008H13.9981C14.0077 14.0008 14.0191 14.0008 14.0305 14.0008C14.8 14.0008 15.5495 14.0857 16.2701 14.2466L16.2019 14.2335L16.6331 12.8928C18.6987 13.5435 20.4653 14.6401 21.8916 16.0752L21.8925 16.0761L22.2423 15.8548C22.9149 15.3739 23.6836 14.955 24.5013 14.6322L24.5739 14.6069C20.5046 10.3042 16.3418 9.59317 14.0794 9.59317C14.0383 9.59405 13.9893 9.59492 13.9404 9.59492C12.1922 9.59492 10.6373 8.76761 9.6464 7.4838L9.63678 7.47155C9.37268 7.08238 9.17678 6.62413 9.08058 6.13001L9.07708 6.1064L9.07796 6.10728Z" fill="currentColor"/>
</svg>
