<svg width="28" height="28" viewBox="0 0 28 28" fill="none" xmlns="http://www.w3.org/2000/svg">
<path d="M14 0C6.272 0 0 6.272 0 14C0 21.728 6.272 28 14 28C21.728 28 28 21.728 28 14C28 6.272 21.728 0 14 0ZM25.116 12.6H20.272C20.118 9.058 19.362 5.894 18.228 3.626C21.91 5.124 24.612 8.526 25.116 12.6ZM2.884 15.4H7.728C7.882 18.942 8.638 22.106 9.772 24.374C6.09 22.876 3.402 19.474 2.884 15.4ZM7.728 12.6H2.884C3.388 8.526 6.09 5.124 9.772 3.626C8.638 5.894 7.896 9.058 7.728 12.6ZM15.904 22.75C15.428 23.8 14.938 24.486 14.532 24.864C14.336 25.046 14.196 25.13 14.112 25.172C14.042 25.2 14.014 25.2 14 25.2C13.986 25.2 13.958 25.2 13.888 25.172C13.804 25.13 13.664 25.046 13.468 24.864C13.062 24.486 12.572 23.8 12.096 22.75C11.284 20.93 10.682 18.368 10.528 15.4H17.458C17.318 18.368 16.716 20.93 15.904 22.75ZM10.528 12.6C10.668 9.632 11.27 7.07 12.096 5.25C12.572 4.2 13.062 3.514 13.468 3.136C13.664 2.954 13.804 2.87 13.888 2.828C13.958 2.8 13.986 2.8 14 2.8C14.014 2.8 14.042 2.8 14.112 2.828C14.196 2.87 14.336 2.954 14.532 3.136C14.938 3.514 15.428 4.2 15.904 5.25C16.716 7.07 17.318 9.632 17.472 12.6H10.528ZM18.228 24.374C19.348 22.106 20.104 18.942 20.272 15.4H25.116C24.612 19.474 21.91 22.876 18.228 24.374Z" fill="currentColor"/>
</svg>
