<svg width="28" height="28" viewBox="0 0 28 28" fill="none" xmlns="http://www.w3.org/2000/svg">
<g clip-path="url(#clip0_7291_13475)">
<path fill-rule="evenodd" clip-rule="evenodd" d="M12.7819 0H19.1821V3.20031H12.7819V0ZM15.9822 22.4131C19.0718 22.4057 21.5756 19.9032 21.583 16.8136V16.8127H15.9817L16.4866 11.2372C16.3149 11.2248 16.1425 11.2251 15.9708 11.2381L15.9826 11.2372C13.5134 11.2529 11.4243 12.8691 10.702 15.0994L10.6906 15.1388H0.844238V18.1667H10.5672C11.1894 20.6211 13.376 22.4088 15.9822 22.4131ZM25.9891 7.45937L24.3397 9.36687L24.3384 9.36819L24.3284 9.35725C26.1526 11.4054 27.1587 14.0537 27.1546 16.7965C27.1551 22.9836 22.1391 28 15.9511 28C12.6174 28 9.62486 26.544 7.56249 24.2235H3.86999V21.196H11.3775V23.3004L11.3547 23.2846C12.6984 24.2574 14.3155 24.7799 15.9743 24.7774H15.9813L16.0027 24.7765C20.2115 24.5359 23.5501 21.0459 23.5501 16.7768C23.5501 12.5072 20.2111 9.01775 15.9813 8.77581H15.9804C14.324 8.77631 12.7112 9.30675 11.3779 10.2896V12.1113H3.87043V9.08381H7.9068L7.91249 9.07769C9.93243 6.93438 12.7976 5.59606 15.9756 5.59606C18.1649 5.59606 20.2045 6.23088 21.8775 7.29881L23.5269 5.35413L25.9891 7.4585V7.45937Z" fill="currentColor"/>
</g>
<defs>
<clipPath id="clip0_7291_13475">
<rect width="28" height="28" fill="white"/>
</clipPath>
</defs>
</svg>
