<svg width="37" height="36" viewBox="0 0 37 36" fill="none" xmlns="http://www.w3.org/2000/svg">
<path d="M27.9271 24.24L32.1801 26.187C32.4631 26.318 32.6561 26.6 32.6561 26.927C32.6561 27.254 32.4631 27.536 32.1851 27.665L32.1801 27.667L18.3671 34L4.55412 27.667C4.27112 27.536 4.07812 27.254 4.07812 26.927C4.07812 26.6 4.27113 26.318 4.54913 26.189L4.55412 26.187L8.80713 24.24L17.0341 28.013L18.3671 28.666L19.7001 28.053L27.9271 24.24ZM32.1801 9.813C32.4631 9.682 32.6561 9.4 32.6561 9.073C32.6561 8.746 32.4631 8.464 32.1851 8.335L32.1801 8.333L18.3671 2L4.55412 8.333C4.27112 8.464 4.07812 8.746 4.07812 9.073C4.07812 9.4 4.27113 9.682 4.54913 9.811L4.55412 9.813L18.3671 16.146L32.1801 9.813ZM19.7141 19.147L18.3811 19.774L17.0481 19.147L8.80812 15.334L4.55513 17.267C4.28013 17.401 4.09312 17.679 4.09312 18C4.09312 18.321 4.27913 18.599 4.55013 18.731L4.55513 18.733L18.3681 25.066L32.1811 18.733C32.4561 18.599 32.6431 18.321 32.6431 18C32.6431 17.679 32.4571 17.401 32.1861 17.269L32.1811 17.267L27.9281 15.334L19.7141 19.147Z" fill="#B1BAD3"/>
</svg>
