<svg width="28" height="28" viewBox="0 0 28 28" fill="none" xmlns="http://www.w3.org/2000/svg">
<path d="M11.666 0.32724L0.326365 11.6669C0.124246 10.6178 0.00524984 9.40771 0 8.17137V8.167C0.00349989 5.6847 0.465486 3.31177 1.30546 1.12521L1.25996 1.25996C3.3109 0.465486 5.68382 0.00349989 8.16525 0H8.167C9.40771 0.00524984 10.6178 0.124246 11.7903 0.346489L11.666 0.32724ZM27.6841 16.334L16.3331 27.685C17.384 27.8828 18.594 27.9974 19.8304 28H19.833C22.3153 27.9965 24.6882 27.5345 26.8748 26.6945L26.74 26.74C27.5345 24.6891 27.9965 22.3162 28 19.8348V19.833C27.9974 18.594 27.8828 17.384 27.6658 16.2097L27.685 16.3331L27.6841 16.334ZM26.8328 13.1368L13.1368 26.8328C7.54489 24.7862 3.21377 20.4551 1.21184 15.0005L1.16721 14.8632L14.8632 1.16721C20.4551 3.21377 24.7862 7.54489 26.7882 12.9995L26.8328 13.1368ZM20.2057 14.4204C19.9931 14.1999 19.6956 14.0634 19.3658 14.0634C19.0359 14.0634 18.7384 14.1999 18.5258 14.4204L17.7208 15.2254L16.0872 13.6041L16.9036 12.7877C17.1136 12.5707 17.2431 12.2741 17.2431 11.9478C17.2431 11.2801 16.7024 10.7394 16.0347 10.7394C15.6935 10.7394 15.3855 10.8803 15.1659 11.1078L14.3487 11.925L12.8323 10.2914L13.6373 9.48645C13.8534 9.27209 13.9873 8.9746 13.9873 8.64648C13.9873 7.99288 13.4571 7.46264 12.8035 7.46264C12.478 7.46264 12.1831 7.59389 11.9696 7.80651L7.80476 11.9128C7.59214 12.1271 7.46089 12.4211 7.46089 12.7466C7.46089 13.4002 7.99113 13.9304 8.64473 13.9304C8.97285 13.9304 9.27034 13.7966 9.4847 13.5805L10.2897 12.8341L11.9233 14.4554L11.1183 15.2718C10.9205 15.4818 10.7998 15.7653 10.7998 16.0767C10.7998 16.726 11.3265 17.2527 11.9758 17.2527C12.3135 17.2527 12.618 17.1101 12.8323 16.8826L12.8332 16.8817L13.6496 16.0767L15.2709 17.7103L14.4659 18.5153C14.2498 18.7297 14.1159 19.0272 14.1159 19.3553C14.1159 20.0089 14.6462 20.5391 15.2998 20.5391C15.6253 20.5391 15.9201 20.4079 16.1336 20.1952L20.2399 16.089C20.4429 15.879 20.568 15.5929 20.568 15.2779C20.568 14.9393 20.4236 14.6348 20.1935 14.4213L20.1926 14.4204H20.2057Z" fill="currentColor"/>
</svg>
