<svg width="36" height="36" viewBox="0 0 36 36" xmlns="http://www.w3.org/2000/svg">
<path d="M17.98 2C9.152 2.012 2 9.171 2 18C2 21.762 3.298 25.221 5.471 27.953L5.446 27.92C8.402 31.638 12.925 34 18 34C26.837 34 34 26.837 34 18C34 9.163 26.837 2 18 2C17.993 2 17.987 2 17.98 2ZM17.98 4.667C17.985 4.667 17.991 4.667 17.997 4.667C21.147 4.667 24.04 5.768 26.312 7.606L26.287 7.587C27.074 8.24 28.007 9.2 27.94 10C27.78 11.733 25.98 10.467 24.98 12.347C23.98 14.227 26.847 16.267 25.82 17.48C24.793 18.693 22.607 17.347 21.193 19.12C19.513 21.213 21.686 23.12 20.06 24.36C18.434 25.6 17.74 23.027 15.327 24.12C12.914 25.213 14.914 28.48 12.647 28.933C11.047 29.253 9.327 28.04 8.474 27.333C6.117 24.93 4.663 21.635 4.663 18C4.663 10.642 10.624 4.675 17.98 4.667Z" />
<path d="M9.68683 24.6667C9.75783 24.6757 9.84083 24.6807 9.92383 24.6807C11.0288 24.6807 11.9238 23.7857 11.9238 22.6807C11.9238 21.5757 11.0288 20.6807 9.92383 20.6807C8.90883 20.6807 8.07083 21.4367 7.94083 22.4167L7.93983 22.4267C7.92983 22.5027 7.92383 22.5917 7.92383 22.6807C7.92383 23.7017 8.68883 24.5437 9.67683 24.6657L9.68683 24.6667Z" />
<path d="M15.7391 21.7595C16.6321 21.5465 17.2871 20.7555 17.2871 19.8115C17.2871 18.7065 16.3921 17.8115 15.2871 17.8115C14.1821 17.8115 13.2871 18.7065 13.2871 19.8115C13.2871 19.9725 13.3061 20.1295 13.3421 20.2795L13.3391 20.2655C13.5531 21.1575 14.3431 21.8105 15.2871 21.8105C15.4471 21.8105 15.6031 21.7915 15.7531 21.7555L15.7391 21.7595Z" />
<path d="M20.46 17.013C21.014 16.651 21.375 16.034 21.375 15.333C21.375 14.228 20.48 13.333 19.375 13.333C18.27 13.333 17.375 14.228 17.375 15.333C17.375 15.74 17.496 16.118 17.705 16.434L17.7 16.427C18.056 16.982 18.669 17.344 19.367 17.344C19.774 17.344 20.153 17.221 20.467 17.009L20.46 17.013Z" />
<path d="M10.6609 17.2927C11.5559 17.0807 12.2109 16.2887 12.2109 15.3438C12.2109 14.2387 11.3159 13.3438 10.2109 13.3438C9.10594 13.3438 8.21094 14.2387 8.21094 15.3438C8.21094 15.5008 8.22894 15.6528 8.26294 15.7998L8.25994 15.7858C8.46894 16.6848 9.26294 17.3438 10.2099 17.3438C10.3689 17.3438 10.5239 17.3248 10.6729 17.2898L10.6589 17.2927H10.6609Z" />
<path d="M16.0852 12.2804C16.6342 11.9174 16.9902 11.3034 16.9902 10.6064C16.9902 9.50145 16.0952 8.60645 14.9902 8.60645C13.8852 8.60645 12.9902 9.50145 12.9902 10.6064C12.9902 11.0104 13.1102 11.3864 13.3162 11.7014L13.3112 11.6934C13.6762 12.2434 14.2932 12.6014 14.9942 12.6014C15.3992 12.6014 15.7772 12.4814 16.0922 12.2754L16.0842 12.2804H16.0852Z" />
<path d="M20.4736 11.3333C20.8056 11.5873 21.2256 11.7393 21.6826 11.7393C22.7876 11.7393 23.6826 10.8443 23.6826 9.73926C23.6826 8.63426 22.7876 7.73926 21.6826 7.73926C21.0336 7.73926 20.4566 8.04826 20.0906 8.52826L20.0866 8.53326C19.8336 8.86426 19.6816 9.28426 19.6816 9.73926C19.6816 10.3873 19.9896 10.9643 20.4686 11.3293L20.4736 11.3333Z" />
</svg>
