<svg width="28" height="28" viewBox="0 0 28 28" fill="none" xmlns="http://www.w3.org/2000/svg">
<path d="M9.46661 15.7842C10.6959 15.065 11.5088 13.7516 11.5088 12.2476C11.5088 9.99276 9.68097 8.16406 7.42529 8.16406C5.16961 8.16406 3.3418 9.99188 3.3418 12.2476C3.3418 13 3.54567 13.7044 3.90003 14.3099L3.88953 14.2906C4.60876 15.5191 5.92209 16.3311 7.42442 16.3311C8.17602 16.3311 8.88037 16.1281 9.48498 15.7737L9.46573 15.7842H9.46661Z" fill="currentColor"/>
<path d="M25.5081 0L11.3449 16.1931C9.96335 17.7637 8.13641 18.9125 6.06272 19.4436L5.9901 19.4594L1.93023 20.4744C0.905633 20.7351 0.160156 21.6503 0.160156 22.7388C0.160156 22.8744 0.171531 23.0074 0.19428 23.1369L0.19253 23.1229L0.35615 24.1029C0.738513 26.3279 2.65295 28 4.95851 28C4.98126 28 5.00313 28 5.02588 27.9991H5.02238H8.63864C9.69736 27.9974 10.5907 27.2913 10.8742 26.3244L10.8786 26.3078L11.8822 22.8079C12.4894 20.7316 13.4239 18.9239 14.641 17.3446L14.6121 17.3831L27.8417 0H25.5081Z" fill="currentColor"/>
</svg>
