<svg width="28" height="28" viewBox="0 0 28 28" fill="none" xmlns="http://www.w3.org/2000/svg">
<path d="M3.50175 4.79241C3.74675 4.51241 4.00313 4.23241 4.27175 3.97604C9.03 4.21316 13.3464 5.93254 16.8123 8.67741L16.7668 8.64241C20.8031 12.0225 23.9461 16.338 25.8755 21.2634L25.949 21.476C25.7005 21.8794 25.466 22.218 25.2158 22.5444L25.2376 22.5147C23.2409 17.7092 20.2939 13.6544 16.6066 10.4248L16.569 10.3924C13.0148 7.38329 8.5365 5.36116 3.61462 4.80291L3.50175 4.79241ZM1.67037 7.35879C6.713 7.58804 11.2726 9.48504 14.8514 12.5073L14.819 12.4802C18.4695 15.7177 21.3202 19.7759 23.0904 24.3697L23.1612 24.5779C20.7209 26.6989 17.5114 27.9913 14 27.9913C6.26762 27.9913 0 21.7237 0 13.9913C0 11.5614 0.6195 9.27591 1.708 7.28441L1.67125 7.35791L1.67037 7.35879ZM7.50312 1.60741C9.387 0.600289 11.6244 0.00878906 14 0.00878906C21.7324 0.00878906 28 6.27641 28 14.0088C28 15.4613 27.7786 16.863 27.3682 18.1799L27.3945 18.081C25.2446 13.433 22.1961 9.53316 18.445 6.46016L18.3881 6.41466C15.3492 4.02066 11.6515 2.32404 7.61163 1.62841L7.46812 1.60829L7.50312 1.60741Z" fill="currentColor"/>
</svg>
