<svg width="36" height="36" viewBox="0 0 36 36" xmlns="http://www.w3.org/2000/svg">
<path d="M26.533 21.226L19.133 12.053C18.334 11.936 17.411 11.869 16.473 11.869C15.865 11.869 15.264 11.897 14.67 11.952L14.746 11.946L12.973 10.173L14.306 7.08L10.053 2L8.813 6.76L7.8 7.853L3 9.053L8.08 13.28L11 12.027L12.88 13.894C12.838 14.367 12.815 14.918 12.815 15.475C12.815 16.413 12.882 17.335 13.012 18.237L13 18.134L22.173 25.534L26.533 21.226Z" />
<path d="M30.025 27.212C30.652 26.599 30.812 25.772 30.385 25.399L28.492 23.732L28.225 23.332L24.332 27.225L24.705 27.532L26.372 29.425C26.732 29.852 27.532 29.692 28.145 29.105L33.025 33.998L34.905 32.105L30.025 27.212Z" />
<path d="M30.025 27.212C30.652 26.599 30.812 25.772 30.385 25.399L28.492 23.732L28.225 23.332L24.332 27.225L24.705 27.532L26.372 29.425C26.732 29.852 27.532 29.692 28.145 29.105L33.025 33.998L34.905 32.105L30.025 27.212Z" />
</svg>
