<svg width="36" height="36" viewBox="0 0 36 36" fill="none" xmlns="http://www.w3.org/2000/svg">
<path d="M22.4932 9.946C22.9502 10.215 23.5013 10.374 24.0883 10.374C25.8483 10.374 27.2752 8.947 27.2752 7.187C27.2752 5.427 25.8483 4 24.0883 4C22.9183 4 21.8952 4.631 21.3412 5.571L21.3333 5.586C21.0653 6.044 20.9062 6.595 20.9062 7.182C20.9062 8.355 21.5373 9.38 22.4783 9.937L22.4932 9.945V9.946Z" fill="#B1BAD3"/>
<path d="M27.9332 18.9859L28.5332 17.1859L26.3602 16.4659C24.1732 15.6169 22.5022 13.8579 21.7892 11.6669L21.7742 11.6129C21.7322 10.6039 21.2192 9.72288 20.4502 9.17988L20.4402 9.17288L20.1602 8.98588C19.6632 8.63288 19.0442 8.42188 18.3752 8.42188C17.3332 8.42188 16.4102 8.93487 15.8462 9.72287L15.8402 9.73188L10.8672 16.8249L12.2002 17.7449L16.2002 21.5719V29.4789H19.5332V20.1459L17.7332 18.4259L19.9332 15.3059C21.0902 17.1489 22.7612 18.5749 24.7452 19.4009L24.8132 19.4259C22.3302 20.4329 20.6112 22.8259 20.6112 25.6199C20.6112 29.3019 23.5962 32.2869 27.2782 32.2869C30.9602 32.2869 33.9452 29.3019 33.9452 25.6199C33.9452 22.1689 31.3232 19.3299 27.9622 18.9879L27.9332 18.9859ZM27.3332 29.5859C25.1242 29.5859 23.3332 27.7949 23.3332 25.5859C23.3332 23.3769 25.1242 21.5859 27.3332 21.5859C29.5422 21.5859 31.3332 23.3769 31.3332 25.5859C31.3332 27.7949 29.5422 29.5859 27.3332 29.5859Z" fill="#B1BAD3"/>
<path d="M8.667 18.9199C4.985 18.9199 2 21.9049 2 25.5869C2 29.2689 4.985 32.2539 8.667 32.2539C12.349 32.2539 15.334 29.2689 15.334 25.5869C15.334 21.9049 12.349 18.9199 8.667 18.9199ZM8.667 29.5859C6.458 29.5859 4.667 27.7949 4.667 25.5859C4.667 23.3769 6.458 21.5859 8.667 21.5859C10.876 21.5859 12.667 23.3769 12.667 25.5859C12.667 27.7949 10.876 29.5859 8.667 29.5859Z" fill="#B1BAD3"/>
</svg>
