<svg width="36" height="36" viewBox="0 0 36 36" xmlns="http://www.w3.org/2000/svg">
<path d="M28.2129 34.0009H33.9999V28.2139L28.2129 34.0009Z" />
<path d="M7.653 2.001L2 7.934L7.787 7.787L7.654 2L7.653 2.001Z" />
<path d="M13.3866 17.6542C12.0536 18.6812 10.8266 19.1872 10.0266 18.4012C8.94662 17.3212 10.2536 15.3482 12.7866 12.8142C15.3196 10.2802 17.2936 8.97424 18.3736 10.0012C19.1336 10.7482 18.7736 11.7212 17.8666 13.0682L22.0666 15.0682C23.3196 12.7882 24.7336 9.52124 21.8266 6.60124C18.1336 2.92124 13.3196 4.33424 8.81362 8.84124C4.30762 13.3482 2.89362 18.1742 6.58662 21.8412C9.58662 24.8542 13.1196 23.1742 15.3336 21.8412L13.3866 17.6542Z" />
<path d="M32.3872 25.3876C33.6402 23.1076 35.0542 19.8406 32.1342 16.9206C28.4542 13.2406 23.6412 14.6536 19.1342 19.1606C14.6272 23.6676 13.2142 28.4936 16.9072 32.1606C19.9072 35.1606 23.4402 33.4936 25.6402 32.1606L23.7072 28.0006C22.3742 29.0406 21.1472 29.5476 20.3472 28.7606C19.2672 27.6806 20.5742 25.7076 23.1072 23.1736C25.6402 20.6396 27.6142 19.3336 28.6672 20.3736C29.4272 21.1206 29.0672 22.0936 28.1602 23.4406L32.3872 25.3876Z" />
</svg>
