<svg width="28" height="28" viewBox="0 0 28 28" fill="none" xmlns="http://www.w3.org/2000/svg">
<path d="M1.32227 8.0388L3.29364 10.0102C4.90889 11.6132 6.12164 13.6196 6.77002 15.8648L6.79364 15.9602C7.67564 19.1373 10.5421 21.4307 13.9441 21.4307C15.4701 21.4307 16.8885 20.9696 18.0671 20.1786L18.0409 20.1952C19.8635 18.9667 21.106 16.9997 21.3396 14.7326L21.3423 14.7002C21.3624 14.4928 21.3746 14.2513 21.3746 14.0081C21.3746 10.6314 19.1303 7.7798 16.052 6.8628L15.9995 6.84968C13.6309 6.17943 11.5983 4.96668 9.96727 3.3488L9.96814 3.34968L8.03177 1.33105C5.05414 2.72143 2.71439 5.06205 1.35902 7.95568L1.32402 8.03968L1.32227 8.0388Z" fill="currentColor"/>
<path d="M23.8849 4.08403C21.3535 1.56316 17.8622 0.00390625 14.0061 0.00390625C12.7531 0.00390625 11.5378 0.168406 10.3819 0.477281L10.4799 0.455406L11.6463 1.62178C12.999 3.00341 14.6877 4.05078 16.5795 4.63266L16.6626 4.65453C18.3199 5.13928 19.7418 5.99503 20.8871 7.12903L20.8863 7.12816C22.5802 8.88166 23.6241 11.273 23.6241 13.9085C23.6241 19.3012 19.2518 23.6735 13.8591 23.6735C11.858 23.6735 9.99775 23.0715 8.449 22.039L8.48487 22.0618C6.5975 20.7694 5.208 18.8689 4.59288 16.6464L4.57713 16.5782C4.01275 14.6383 2.99775 12.9784 1.65025 11.6563L1.6485 11.6545L0.447125 10.4882C0.163625 11.5408 0 12.75 0 13.9969C0 21.7293 6.26762 27.9969 14 27.9969C21.7324 27.9969 28 21.7293 28 13.9969C28 10.1242 26.4276 6.61803 23.8857 4.08316L23.8849 4.08403Z" fill="currentColor"/>
</svg>
