<svg width="36" height="36" viewBox="0 0 36 36" xmlns="http://www.w3.org/2000/svg">
<path d="M9.33398 9.334C9.33398 13.384 12.617 16.667 16.667 16.667V2C12.617 2 9.33398 5.284 9.33398 9.334Z" />
<path d="M17.334 19.334V34.001C21.384 34.001 24.667 30.718 24.667 26.668C24.667 22.618 21.384 19.334 17.334 19.334Z" />
<path d="M25.6689 10.334C21.6189 10.334 18.3359 13.617 18.3359 17.667H33.0029C33.0029 13.617 29.7199 10.334 25.6699 10.334H25.6689Z" />
<path d="M8.334 25.668C12.384 25.668 15.667 22.385 15.667 18.335H1C1 22.385 4.284 25.668 8.334 25.668Z" />
</svg>
