<svg width="36" height="36" viewBox="0 0 36 36" xmlns="http://www.w3.org/2000/svg">
<path d="M21.7403 10.242C22.2283 9.68498 22.5263 8.94998 22.5263 8.14598C22.5263 6.38598 21.0993 4.95898 19.3393 4.95898C17.5793 4.95898 16.1523 6.38598 16.1523 8.14598C16.1523 9.10298 16.5743 9.96198 17.2423 10.546L17.2463 10.549C17.8033 11.036 18.5363 11.333 19.3393 11.333C20.2953 11.333 21.1523 10.912 21.7363 10.246L21.7403 10.242Z" />
<path d="M31.915 20.909C31.01 21.138 30.214 21.49 29.497 21.955L29.528 21.936L28.955 22.309C28.191 22.949 27.198 23.337 26.114 23.337C26.077 23.337 26.04 23.337 26.003 23.336H26.008C25.977 23.337 25.941 23.337 25.904 23.337C24.841 23.337 23.866 22.959 23.107 22.33L23.114 22.336C21.946 21.438 20.506 20.838 18.937 20.672L18.901 20.669H18.008C17.967 20.668 17.92 20.668 17.872 20.668C15.996 20.668 14.267 21.295 12.882 22.351L12.902 22.336C12.15 22.959 11.175 23.337 10.112 23.337C10.075 23.337 10.039 23.337 10.003 23.336H10.008C9.98 23.337 9.946 23.337 9.913 23.337C8.852 23.337 7.879 22.959 7.121 22.33L7.128 22.336C5.763 21.295 4.033 20.668 2.157 20.668C2.104 20.668 2.052 20.668 2 20.669H2.008V24.669C2.049 24.668 2.096 24.668 2.144 24.668C4.02 24.668 5.749 25.295 7.134 26.351L7.114 26.336C7.56 26.676 8.078 26.952 8.636 27.138L8.674 27.149L9.221 27.282C9.457 27.315 9.729 27.334 10.007 27.335H10.008C10.039 27.336 10.075 27.336 10.112 27.336C11.175 27.336 12.15 26.958 12.909 26.329L12.902 26.335C14.267 25.294 15.996 24.667 17.872 24.667C17.92 24.667 17.968 24.667 18.016 24.668H18.009H18.502C20.253 24.739 21.851 25.344 23.15 26.323L23.129 26.308C23.886 26.947 24.872 27.335 25.95 27.335C25.971 27.335 25.992 27.335 26.013 27.335H26.01C26.035 27.336 26.065 27.336 26.095 27.336C27.164 27.336 28.145 26.958 28.911 26.329L28.903 26.335C30.263 25.294 31.989 24.667 33.86 24.667C33.913 24.667 33.965 24.667 34.017 24.668H34.009V20.668C33.99 20.668 33.968 20.668 33.945 20.668C33.225 20.668 32.525 20.756 31.856 20.921L31.915 20.909Z" />
<path d="M26.008 30.002C25.977 30.003 25.941 30.003 25.904 30.003C24.841 30.003 23.866 29.625 23.107 28.996L23.114 29.002C21.748 27.961 20.017 27.334 18.139 27.334C18.093 27.334 18.046 27.334 18 27.335H18.007H17.647C15.853 27.392 14.212 28.004 12.879 29.004L12.901 28.988C12.147 29.619 11.166 30.002 10.096 30.002C10.065 30.002 10.034 30.002 10.003 30.001H10.008C9.98 30.002 9.946 30.002 9.913 30.002C8.852 30.002 7.879 29.624 7.121 28.995L7.128 29.001C5.763 27.96 4.033 27.333 2.157 27.333C2.104 27.333 2.052 27.333 2 27.334H2.008V31.334C2.049 31.333 2.096 31.333 2.144 31.333C4.02 31.333 5.749 31.96 7.134 33.016L7.114 33.001C7.864 33.624 8.837 34.002 9.899 34.002C9.937 34.002 9.975 34.001 10.013 34.001H10.007C10.038 34.002 10.074 34.002 10.111 34.002C11.174 34.002 12.149 33.624 12.908 32.995L12.901 33.001C14.266 31.96 15.995 31.333 17.871 31.333C17.919 31.333 17.967 31.333 18.015 31.334H18.008C18.051 31.333 18.102 31.333 18.153 31.333C20.03 31.333 21.761 31.96 23.148 33.016L23.128 33.001C23.88 33.624 24.854 34.002 25.917 34.002C25.949 34.002 25.981 34.002 26.013 34.001H26.008C26.033 34.002 26.063 34.002 26.093 34.002C27.162 34.002 28.143 33.624 28.909 32.995L28.901 33.001C30.261 31.96 31.987 31.333 33.858 31.333C33.911 31.333 33.963 31.333 34.015 31.334H34.007V27.334C33.963 27.333 33.91 27.333 33.858 27.333C31.986 27.333 30.261 27.96 28.881 29.016L28.901 29.001C28.142 29.624 27.162 30.002 26.093 30.002C26.063 30.002 26.033 30.002 26.003 30.001H26.007L26.008 30.002Z" />
<path d="M9.04719 6.802C9.45919 7.115 9.97519 7.311 10.5352 7.335H10.5402H11.1932L11.5532 7.228H11.6462C12.0572 7.034 12.4012 6.759 12.6682 6.421L12.6732 6.415C13.0792 5.95 13.3262 5.337 13.3262 4.667C13.3262 3.194 12.1322 2 10.6592 2C9.18619 2 7.99219 3.194 7.99219 4.667C7.99219 5.47 8.34719 6.19 8.90919 6.679L8.91219 6.682L9.04719 6.802Z" />
<path d="M12.3802 8.97584C11.8832 9.18184 11.3052 9.30184 10.7002 9.30184C10.0952 9.30184 9.51723 9.18184 8.99023 8.96484L9.02023 8.97584C9.14823 10.2678 9.59323 11.4358 10.2762 12.4268L10.2602 12.4018C10.9082 13.3238 11.7112 14.0888 12.6392 14.6748L12.6732 14.6948L10.8062 20.4948L11.4062 20.1218C13.1732 18.7968 15.4022 17.9998 17.8172 17.9998C17.8832 17.9998 17.9502 18.0008 18.0162 18.0018H18.0062C18.0172 18.0018 18.0302 18.0018 18.0432 18.0018C18.9232 18.0018 19.7802 18.0988 20.6042 18.2828L20.5262 18.2678L21.0192 16.7348C23.3812 17.4788 25.4012 18.7328 27.0322 20.3738L27.0332 20.3748L27.4332 20.1218C28.2022 19.5718 29.0812 19.0928 30.0162 18.7238L30.0992 18.6948C25.4462 13.7748 20.6862 12.9618 18.0992 12.9618C18.0522 12.9628 17.9962 12.9638 17.9402 12.9638C15.9412 12.9638 14.1632 12.0178 13.0302 10.5498L13.0192 10.5358C12.7172 10.0908 12.4932 9.56684 12.3832 9.00184L12.3792 8.97484L12.3802 8.97584Z" />
</svg>
