<svg width="36" height="36" viewBox="0 0 36 36" fill="none" xmlns="http://www.w3.org/2000/svg">
<path d="M25.8811 12.669C25.8811 8.98895 22.3611 6.00195 18.0011 6.00195C13.6411 6.00195 10.1211 8.98895 10.1211 12.669C10.1211 16.349 13.6411 19.336 18.0011 19.336C22.3611 19.336 25.8811 16.349 25.8811 12.669Z" fill="#B1BAD3"/>
<path d="M24.5475 3.414C22.6245 2.521 20.3735 2 18.0005 2C15.6275 2 13.3765 2.521 11.3555 3.454L11.4535 3.413C11.8935 3.693 13.7465 4.666 18.0005 4.666C22.2545 4.666 24.1075 3.694 24.5475 3.414Z" fill="#B1BAD3"/>
<path d="M8.054 12.6685C9.11 10.9175 9.735 8.80347 9.735 6.54347C9.735 5.79647 9.667 5.06447 9.536 4.35547L9.547 4.42947C4.989 7.29947 2.004 12.3015 2 18.0025C2.004 18.7775 2.067 19.5355 2.184 20.2745L2.173 20.1905C4.546 18.0945 6.513 15.6045 7.985 12.8115L8.053 12.6705L8.054 12.6685Z" fill="#B1BAD3"/>
<path d="M26.4272 4.41506C26.3092 5.04906 26.2422 5.77706 26.2422 6.52206C26.2422 8.78906 26.8662 10.9101 27.9512 12.7231L27.9202 12.6681C29.4602 15.6341 31.4372 18.1521 33.8002 20.2441L33.8272 20.2681C33.9362 19.5881 33.9992 18.8031 34.0002 18.0031V18.0011C33.9952 12.2901 30.9982 7.28106 26.4932 4.45306L26.4262 4.41406L26.4272 4.41506Z" fill="#B1BAD3"/>
<path d="M4.12062 19.8678C3.42862 20.5688 2.91363 21.4468 2.64963 22.4278L2.64062 22.4678C4.02863 27.0918 7.32463 30.7628 11.5906 32.6278L11.6936 32.6678C13.1146 32.5398 14.3756 31.9388 15.3366 31.0258L15.3336 31.0278C18.0006 28.3608 17.5736 23.8008 14.4936 20.7208C11.4136 17.6408 6.73362 17.2538 4.12062 19.8678Z" fill="#B1BAD3"/>
<path d="M21.5753 20.6681C18.4953 23.7481 18.1083 28.3611 20.7223 30.9751C21.6553 31.8981 22.8923 32.5161 24.2693 32.6661L24.2963 32.6681C28.6713 30.7581 31.9683 27.0761 33.3203 22.5551L33.3493 22.4421C33.0913 21.3971 32.5783 20.4951 31.8813 19.7741L31.8833 19.7761C29.2703 17.2561 24.6703 17.6431 21.5763 20.6691L21.5753 20.6681Z" fill="#B1BAD3"/>
</svg>
