<svg id="图层_1" data-name="图层 1" xmlns="http://www.w3.org/2000/svg" viewBox="0 0 24.86 25.51"><path class="cls-1" d="M16.17,1.6c1.2-.4,2.2-.7,4.5,1.7S23.17,7,23,7.4s-1.4,2.2-3,1.1a32.44,32.44,0,0,1-4.4-4C15.07,4,15,2,16.17,1.6Z"/><path class="cls-1" d="M13.77.1a5.45,5.45,0,0,0-2.6.1c-.4.3-.3,1.5,1.2,1.6s3.2.2,3.1-.7A2.09,2.09,0,0,0,13.77.1Z"/><path class="cls-1" d="M14.27,4.9s-3.4.4-3.6.8a26.32,26.32,0,0,0-.7,5.8c.2.7,1.7,2.5,2.2,2.5s6.6-1.2,6.9-1.6a7,7,0,0,0-.2-3.5A30,30,0,0,0,14.27,4.9Z"/><path class="cls-1" d="M18.67,14c-.7,0-5,1.1-5.5,1.2A4.75,4.75,0,0,0,11,18.3c0,1.2,3.5,4,4.3,4.1a4.6,4.6,0,0,0,2.8-1.3c.2-.4,2.6-5,2.4-5.7A2,2,0,0,0,18.67,14Z"/><path class="cls-1" d="M8.57,5.3a18.8,18.8,0,0,0-6.2,1.9c-1.1.6-1,3.2-.5,3.8s3,2.5,4,2.4a3.21,3.21,0,0,0,2.7-2.6C9.07,9,10.27,5.3,8.57,5.3Z"/><path class="cls-1" d="M1.47,12.3s-.9-.5-1.1-.3a11.21,11.21,0,0,0-.2,4.6c.4.9,2,4,2.7,3.9s3.4-1.5,3.4-2.7A5.24,5.24,0,0,0,4.47,14,10.51,10.51,0,0,0,1.47,12.3Z"/><path class="cls-1" d="M7.27,19.2a31,31,0,0,1,3.2,1.1c.5.3,3.2,2.4,3.3,3.2s0,2.1-2,2-6.4-2-7.2-3.1C4,21.2,5.67,19.4,7.27,19.2Z"/><path class="cls-1" d="M19.27,23.1s3.7-1.5,4.5-3.9.6-4.3,0-4.6-.9-.3-1.8.6a8.72,8.72,0,0,0-2,3.6C19.37,20.6,18.77,22.3,19.27,23.1Z"/><path class="cls-1" d="M23.47,8.4c-.6,0-.9.4-1,1.6a5.13,5.13,0,0,0,.3,2.4c.3,1.3.6,1.3,1.2,1.2s1.1-1.6.8-3.2S24.07,8.4,23.47,8.4Z"/><path class="cls-1" d="M9.27.3s-6.2,3.1-6.4,4.2,1.5.7,3.2.2A5,5,0,0,0,9.27,2C9.67,1.2,10,.5,9.27.3Z" fill="currentColor"/></svg>