<svg width="36" height="36" viewBox="0 0 36 36" fill="none" xmlns="http://www.w3.org/2000/svg">
<path d="M23.665 20.373C26.012 19.11 27.582 16.672 27.585 13.867V12.747L24.998 11.667V5L27.665 1H8.99805L11.665 5V11.667L9.06505 12.747V13.854C9.08205 16.655 10.653 19.085 12.959 20.328L12.998 20.347L15.665 30.334L10.332 29.001V33.001H26.332V29.001L20.999 30.334L23.665 20.373Z" fill="#B1BAD3"/>
<path d="M29.001 5H30.334C31.07 5 31.667 5.597 31.667 6.333V10.333C31.667 11.069 31.07 11.666 30.334 11.666H29.001C28.265 11.666 27.668 11.069 27.668 10.333V6.333C27.668 5.597 28.265 5 29.001 5Z" fill="#B1BAD3"/>
<path d="M27.665 21H28.998C29.734 21 30.331 21.597 30.331 22.333V26.333C30.331 27.069 29.734 27.666 28.998 27.666H27.665C26.929 27.666 26.332 27.069 26.332 26.333V22.333C26.332 21.597 26.929 21 27.665 21Z" fill="#B1BAD3"/>
<path d="M6.333 5H7.666C8.402 5 8.999 5.597 8.999 6.333V10.333C8.999 11.069 8.402 11.666 7.666 11.666H6.333C5.597 11.666 5 11.069 5 10.333V6.333C5 5.597 5.597 5 6.333 5Z" fill="#B1BAD3"/>
<path d="M7.66503 21H8.99803C9.73403 21 10.331 21.597 10.331 22.333V26.333C10.331 27.069 9.73403 27.666 8.99803 27.666H7.66503C6.92903 27.666 6.33203 27.069 6.33203 26.333V22.333C6.33203 21.597 6.92903 21 7.66503 21Z" fill="#B1BAD3"/>
</svg>
