<svg width="36" height="36" viewBox="0 0 36 36" xmlns="http://www.w3.org/2000/svg">
<path d="M13.0331 7.991C13.9951 7.424 14.6311 6.393 14.6311 5.213C14.6311 3.438 13.1921 2 11.4181 2C9.64408 2 8.20508 3.439 8.20508 5.213C8.20508 5.804 8.36408 6.357 8.64208 6.832L8.63408 6.817C9.19608 7.788 10.2291 8.431 11.4131 8.431C12.0111 8.431 12.5701 8.267 13.0481 7.982L13.0331 7.99V7.991Z" />
<path d="M25.874 28.2579L22.381 14.9249L20.101 10.9249C20.396 10.9019 20.74 10.8889 21.088 10.8889C21.436 10.8889 21.779 10.9019 22.12 10.9279L22.075 10.9249C22.179 10.9219 22.3 10.9199 22.422 10.9199C24.643 10.9199 26.713 11.5679 28.452 12.6849L28.408 12.6579L30.595 10.1379C28.542 8.37794 24.902 7.65794 22.195 7.59094C22.07 7.58794 21.923 7.58594 21.775 7.58594C20.261 7.58594 18.793 7.78194 17.396 8.15094L17.515 8.12394C17.154 7.98794 16.737 7.90994 16.302 7.90994C15.655 7.90994 15.048 8.08294 14.525 8.38594L14.542 8.37694H14.422C13.338 8.99394 12.619 10.1419 12.619 11.4569C12.619 12.1049 12.793 12.7109 13.097 13.2329L13.088 13.2159L15.848 17.9889L14.848 20.4819L15.435 22.6949L9.875 19.8149C9.129 19.4049 8.632 18.6249 8.632 17.7279C8.632 17.3359 8.727 16.9669 8.895 16.6419L8.889 16.6549L5.689 14.9349C5.255 15.7419 5 16.7009 5 17.7199C5 20.0079 6.287 21.9959 8.177 22.9989L8.209 23.0149L9.876 23.9219L10.649 24.3219L20.636 29.5749L23.143 30.9079L29.063 33.9879L30.743 30.7879L25.874 28.2579ZM19.474 24.8579L18.394 20.7649L19.087 19.0319L19.994 18.8449L21.874 26.1519L19.474 24.8579Z" />
</svg>
