<svg width="36" height="36" viewBox="0 0 36 36" xmlns="http://www.w3.org/2000/svg">
<path d="M31.2795 25.0093C31.1525 24.9203 30.9965 24.8663 30.8275 24.8623C30.5605 24.8773 30.3195 24.9813 30.1315 25.1433L30.1325 25.1423L24.4395 30.4753C24.1345 30.6813 23.9355 31.0263 23.9355 31.4173C23.9355 31.6643 24.0145 31.8923 24.1485 32.0783L24.1465 32.0753C24.9825 33.0583 26.1775 33.7123 27.5275 33.8343L27.5465 33.8353H27.9735H27.9745C30.7505 33.8353 33.0015 31.5853 33.0015 28.8083C33.0015 27.3003 32.3375 25.9483 31.2865 25.0263L31.2805 25.0213L31.2795 25.0093Z" />
<path d="M28.586 23.409C28.809 23.171 28.946 22.85 28.946 22.497C28.946 22.485 28.946 22.472 28.946 22.46V22.462C28.938 22.123 28.865 21.804 28.74 21.512L28.746 21.529L24.346 9.636L22.599 4.743C22.599 4.743 22.599 4.65 22.599 4.596L22.506 4.343C21.916 2.999 20.62 2.066 19.1 2.01H19.093C19.024 2.004 18.944 2 18.863 2C17.39 2 16.196 3.194 16.196 4.667C16.196 5.162 16.331 5.625 16.566 6.023L16.559 6.011L23.639 19.624C23.688 19.714 23.717 19.821 23.717 19.934C23.717 20.187 23.573 20.407 23.362 20.515L23.358 20.517C23.271 20.567 23.166 20.597 23.055 20.597H23.051C22.797 20.595 22.577 20.451 22.466 20.241L22.464 20.237L14.771 6.53C14.489 6 13.939 5.645 13.307 5.645C13.135 5.645 12.969 5.671 12.813 5.72L12.825 5.717C11.426 6.201 10.406 7.427 10.227 8.912L10.225 8.93C10.175 9.207 9.935 9.415 9.647 9.415C9.62 9.415 9.594 9.413 9.568 9.41H9.571H9.358C9.308 9.408 9.25 9.406 9.191 9.406C7.811 9.406 6.601 10.137 5.928 11.233L5.918 11.25C5.743 11.513 5.639 11.837 5.639 12.184C5.639 12.744 5.909 13.242 6.326 13.553L6.331 13.556L19.398 23.383C19.561 23.506 19.665 23.699 19.665 23.916C19.665 24.067 19.615 24.206 19.53 24.318L19.531 24.316C19.407 24.477 19.215 24.58 18.998 24.583H18.994C18.845 24.583 18.707 24.533 18.597 24.449L18.599 24.45L5.586 14.837C5.124 14.476 4.534 14.258 3.894 14.258C2.99 14.258 2.188 14.692 1.685 15.364L1.68 15.371C1.286 15.927 1.037 16.61 1 17.349V17.358V17.545C1.002 19.096 1.92 20.433 3.243 21.042L3.267 21.052L3.48 21.159L20.813 29.252C20.988 29.366 21.203 29.434 21.433 29.434C21.704 29.434 21.952 29.34 22.148 29.183L22.146 29.185L28.653 23.425L28.586 23.409Z" />
</svg>
