<svg width="36" height="36" viewBox="0 0 36 36" xmlns="http://www.w3.org/2000/svg">
<path d="M3.319 29.1328L2.079 32.2128C2.029 32.3478 2 32.5038 2 32.6658C2 33.3978 2.589 33.9908 3.319 33.9988H5.986L8.159 27.4658H5.786C4.676 27.4678 3.725 28.1488 3.326 29.1148L3.319 29.1328Z" />
<path d="M29.9858 2L17.7588 26C17.3198 26.881 16.4307 27.479 15.4008 27.493H15.3988H10.9058L8.71875 34H17.8918H17.8937C18.9757 34 19.9068 33.356 20.3248 32.43L20.3318 32.413C23.5988 24.92 33.9848 2 33.9848 2H29.9858Z" />
<path d="M5.45255 20.9867C7.11955 22.0667 10.7855 22.4267 13.6525 21.8137C15.5725 21.4007 16.6525 20.6667 16.6525 19.8667V17.4797C15.9495 17.8317 15.1335 18.1167 14.2785 18.2947L14.2125 18.3067C13.1705 18.5357 11.9725 18.6667 10.7455 18.6667C10.7125 18.6667 10.6805 18.6667 10.6475 18.6667H10.6525C10.5825 18.6677 10.5005 18.6687 10.4175 18.6687C8.33255 18.6687 6.35055 18.2267 4.56055 17.4307L4.65255 17.4677V19.8677C4.70755 20.3657 5.01555 20.7807 5.44455 20.9837L5.45255 20.9877V20.9867Z" />
<path d="M16.6257 13.7471C16.6257 14.9911 13.9517 16.0001 10.6527 16.0001C7.35369 16.0001 4.67969 14.9911 4.67969 13.7471C4.67969 12.5031 7.35369 11.4941 10.6527 11.4941C13.9517 11.4941 16.6257 12.5031 16.6257 13.7471Z" />
</svg>
