<svg width="36" height="36" viewBox="0 0 36 36" xmlns="http://www.w3.org/2000/svg">
<path d="M23.1681 4.24805H12.8171L11.7101 5.37205L10.4961 6.63905H25.5051L24.2741 5.37205L23.1671 4.24805H23.1681Z" />
<path d="M30.485 11.7256V22.2916L23.168 29.7516H12.817L5.5 22.2916V11.7256L7.713 9.47656H28.273L30.486 11.7256H30.485Z" />
<path d="M33.983 10.3875V23.6305L24.613 33.0005H11.37L2 23.6305V10.3875L2.892 9.47754H5.426L3.784 11.1195V22.8985L12.101 31.2155H23.88L32.197 22.8985V11.1195L30.573 9.47754H33.089L33.981 10.3875H33.983Z" />
<path d="M12.1192 2.785H23.8802L27.7352 6.64H30.2692L24.6292 1H11.3692L5.6582 6.64H8.1922L12.1182 2.785H12.1192Z" />
</svg>
