<svg width="28" height="28" viewBox="0 0 28 28" fill="none" xmlns="http://www.w3.org/2000/svg">
<path d="M20.8954 9.91855C20.8954 6.69857 17.8154 4.08496 14.0004 4.08496C10.1854 4.08496 7.10547 6.69857 7.10547 9.91855C7.10547 13.1385 10.1854 15.7521 14.0004 15.7521C17.8154 15.7521 20.8954 13.1385 20.8954 9.91855Z" fill="currentColor"/>
<path d="M19.7285 1.82025C18.0459 1.03888 16.0763 0.583008 13.9999 0.583008C11.9235 0.583008 9.95391 1.03888 8.18555 1.85525L8.2713 1.81938C8.65629 2.06437 10.2777 2.91574 13.9999 2.91574C17.7221 2.91574 19.3435 2.06525 19.7285 1.82025Z" fill="currentColor"/>
<path d="M5.29722 9.91739C6.22121 8.38527 6.76809 6.53553 6.76809 4.55804C6.76809 3.90442 6.70859 3.26393 6.59396 2.64355L6.60359 2.7083C2.61536 5.21954 0.00349998 9.59627 0 14.5846C0.00349998 15.2627 0.0586247 15.926 0.160999 16.5726L0.151374 16.4991C2.22774 14.6651 3.94885 12.4864 5.23684 10.0425L5.29634 9.91914L5.29722 9.91739Z" fill="currentColor"/>
<path d="M21.3728 2.69619C21.2696 3.25093 21.2109 3.88793 21.2109 4.5398C21.2109 6.52341 21.7569 8.37928 22.7063 9.96564L22.6792 9.91752C24.0267 12.5128 25.7565 14.716 27.8241 16.5465L27.8478 16.5675C27.9431 15.9725 27.9983 15.2856 27.9991 14.5856V14.5839C27.9948 9.58677 25.3724 5.20392 21.4306 2.72944L21.3719 2.69531L21.3728 2.69619Z" fill="currentColor"/>
<path d="M1.85554 16.2175C1.25004 16.8308 0.799421 17.5991 0.568422 18.4574L0.560547 18.4924C1.77504 22.5384 4.65902 25.7505 8.39175 27.3824L8.48188 27.4174C9.72524 27.3054 10.8286 26.7795 11.6695 25.9806L11.6669 25.9824C14.0005 23.6488 13.6268 19.6588 10.9319 16.9638C8.23688 14.2688 4.1419 13.9302 1.85554 16.2175Z" fill="currentColor"/>
<path d="M17.1289 16.9174C14.4339 19.6123 14.0953 23.6487 16.3825 25.9359C17.1989 26.7436 18.2812 27.2843 19.4861 27.4156L19.5097 27.4173C23.3378 25.7461 26.2227 22.5243 27.4057 18.5685L27.4311 18.4696C27.2053 17.5552 26.7564 16.766 26.1466 16.1351L26.1483 16.1369C23.8619 13.9319 19.837 14.2705 17.1297 16.9182L17.1289 16.9174Z" fill="currentColor"/>
</svg>
