<svg width="18" height="18" viewBox="0 0 18 18" fill="none" xmlns="http://www.w3.org/2000/svg">
<path fill-rule="evenodd" clip-rule="evenodd" d="M9 18C13.9706 18 18 13.9706 18 9C18 4.02944 13.9706 0 9 0C4.02944 0 0 4.02944 0 9C0 13.9706 4.02944 18 9 18ZM11.6219 5.0877C12.2313 4.88301 13.4078 3.46582 13.4078 3.46582C13.4078 3.46582 14.5672 6.93926 12.8203 9.12207C11.499 10.7759 9.45854 10.4539 8.48755 10.3006C8.37696 10.2832 8.28023 10.2679 8.20003 10.258C7.42346 10.1627 6.8594 10.2955 6.45784 10.4971L7.15471 13.4549C7.22815 13.7721 7.03284 14.0877 6.71721 14.1627C6.6719 14.1736 6.62659 14.1783 6.58128 14.1783C6.31409 14.1783 6.07347 13.9955 6.0094 13.7252L4.11097 5.66269C4.06409 5.45957 4.12815 5.25644 4.26253 5.11738C4.5219 4.74395 5.23284 4.02832 6.77815 4.21738C7.44242 4.29876 7.98433 4.53702 8.51168 4.76888C9.41206 5.16475 10.27 5.54195 11.6219 5.0877Z" fill="currentColor"/>
</svg>
