<svg width="36" height="36" viewBox="0 0 36 36" fill="none" xmlns="http://www.w3.org/2000/svg">
<path d="M33.9 12.8C33.4 12.2 32.9 11.6 32.45 11.05C31.05 11.05 29.65 11.05 28.25 11.05C28.3 11.05 28.25 11.1 28.25 11.1C28.15 11.55 28.05 11.95 27.95 12.4C27.8 12.95 27.7 13.5 27.55 14.05C28.05 14.05 28.55 14.05 29.1 14.05C28.95 14.6 28.85 15.1 28.7 15.65C28.7 15.75 28.65 15.8 28.55 15.8C28 15.8 27.4 15.8 26.85 15.8C26.75 15.8 26.7 15.85 26.65 15.95C26.45 16.95 26.2 17.9 26 18.85C25.95 18.95 26 19 26.1 19C26.65 19 27.25 19 27.8 19C27.95 19 27.95 19 27.95 19.15C27.8 19.7 27.7 20.25 27.55 20.8C27.5 20.9 27.45 20.95 27.35 20.95C26.9 20.95 26.5 20.95 26.05 20.95C25.95 20.95 25.95 20.95 25.9 21.05C25.7 21.95 25.45 22.9 25.25 23.8C25.2 23.95 25.25 23.95 25.35 23.95C26.65 23.95 28 23.95 29.3 23.95C29.4 23.95 29.45 23.9 29.55 23.85C30.3 23.3 31.05 22.7 31.8 22.15C31.9 22.1 31.9 22 31.95 21.9C32.15 20.95 32.4 20 32.6 19.1C32.65 19 32.6 18.95 32.55 18.85C32.15 18.35 31.75 17.9 31.35 17.4C31.4 17.35 31.4 17.35 31.45 17.3C32.05 16.8 32.65 16.35 33.25 15.85C33.3 15.8 33.35 15.75 33.4 15.65C33.6 14.8 33.8 13.9 34 13.05C34 12.95 33.95 12.85 33.9 12.8ZM7.35 19.15C7.35 19.05 7.4 19 7.5 19C8.1 19 8.65 19 9.25 19C9.35 19 9.4 19 9.4 18.9C9.6 17.9 9.85 16.95 10.1 15.95C10.15 15.85 10.1 15.8 10 15.8C9.4 15.8 8.85 15.8 8.25 15.8C8.15 15.8 8.1 15.8 8.15 15.7C8.3 15.2 8.4 14.7 8.5 14.2C8.5 14.1 8.55 14.1 8.65 14.1C9 14.1 9.4 14.1 9.75 14.1C9.85 14.1 9.9 14.1 9.9 14C10.15 13 10.35 12.05 10.6 11.05C9.25 11.05 7.9 11.05 6.55 11.05C6.2 11.35 5.8 11.65 5.4 11.95C5 12.25 4.6 12.55 4.2 12.9C4.15 12.95 4.1 13 4.05 13.1C3.85 14 3.6 14.9 3.4 15.75C3.4 15.85 3.4 15.9 3.45 16C3.85 16.45 4.2 16.9 4.6 17.35C4.65 17.45 4.65 17.45 4.6 17.55C4 18.05 3.4 18.5 2.8 19C2.75 19.05 2.7 19.1 2.7 19.2C2.5 20.1 2.25 21.05 2.05 21.95C2.05 21.95 2.05 22 2 22C2 22.05 2 22.1 2 22.15C2 22.15 2.05 22.15 2.05 22.2C2.55 22.75 3 23.35 3.5 23.9C3.55 23.95 3.6 24 3.7 24C5 24 6.35 24 7.65 24C7.75 24 7.75 24 7.8 23.9C7.9 23.5 8 23.05 8.1 22.65C8.25 22.1 8.35 21.55 8.5 21C8 21 7.5 21 6.95 21C7.1 20.3 7.25 19.7 7.35 19.15ZM23.9 20.9C23.6 20.9 23.3 20.9 22.95 20.9C22.85 20.9 22.75 20.85 22.7 20.75C22 19.65 21.25 18.55 20.55 17.45C20.9 17.15 23.3 15 24.3 14.15C24.35 14.1 24.45 14.05 24.55 14.05C24.85 14.05 25.2 14.05 25.5 14.05C25.6 14.05 25.65 14 25.65 13.95C25.7 13.65 25.8 13.35 25.85 13C26 12.35 26.15 11.7 26.3 11.05C26.25 11.05 26.25 11.05 26.25 11.05C25 11.05 23.75 11.05 22.5 11.05C22.45 11.05 22.4 11.05 22.35 11.1C21.35 11.95 19 14.1 18.6 14.4C17.85 13.25 17.15 12.15 16.4 11C15.1 11 13.8 11 12.5 11C12.5 11.05 12.5 11.1 12.5 11.15C12.3 12.05 12.05 13 11.85 13.9C11.85 14 11.85 14 11.95 14C12.25 14 12.55 14 12.9 14C13 14 13.05 14.05 13.15 14.1C13.85 15.2 14.6 16.3 15.3 17.4C13.65 18.9 12.05 20.3 11.6 20.75C11.55 20.8 11.45 20.85 11.35 20.85C11.1 20.85 10.85 20.85 10.55 20.85C10.45 20.85 10.45 20.9 10.4 20.95C10.2 21.85 9.95 22.8 9.75 23.7C9.7 23.8 9.75 23.85 9.85 23.85C10.45 23.85 11 23.85 11.6 23.85C12.2 23.85 12.75 23.85 13.35 23.85C13.45 23.85 13.5 23.8 13.55 23.75C14 23.35 15.6 21.9 17.25 20.45C17.95 21.55 18.7 22.65 19.4 23.75C19.45 23.8 19.45 23.85 19.55 23.85C20.8 23.85 22 23.85 23.25 23.85C23.35 23.85 23.35 23.8 23.4 23.75C23.6 22.8 23.85 21.85 24.05 20.95C24 20.9 24 20.9 23.9 20.9ZM33.25 8.5H2L2.7 6H33.95L33.25 8.5ZM33.25 28.95H2L2.7 26.45H33.95L33.25 28.95Z" fill="#B1BAD3"/>
</svg>
