<svg fill="currentColor" viewBox="0 0 64 64" class="svg-icon" style=""> <title></title> <path d="M32-.001h-.084C17.056-.001 5.01 12.045 5.01 26.905c0 .178.002.356.006.534v-.026 22.374h17.386V30.613h-8.186v-3.2a17.59 17.59 0 0 1-.01-.588c0-9.734 7.892-17.626 17.626-17.626h.178H32h.17c9.734 0 17.626 7.892 17.626 17.626 0 .206-.004.412-.01.618v-.03 3.2H41.6v19.174h7.546c-1.734 4.134-7.28 5.014-17.146 5.014v9.2c8.774 0 26.986 0 26.986-17.386v-19.2c.004-.15.004-.328.004-.506C58.99 12.049 46.944.003 32.084.003h-.09.004L32-.001Z"></path></svg>
