<svg width="28" height="28" viewBox="0 0 28 28" fill="none" xmlns="http://www.w3.org/2000/svg">
<path d="M22.9355 28.0011H27.9992V22.9375L22.9355 28.0011Z" fill="currentColor"/>
<path d="M4.94638 0.000874937L0 5.19225L5.06363 5.06362L4.94725 0L4.94638 0.000874937Z" fill="currentColor"/>
<path d="M9.96427 13.6976C8.79789 14.5962 7.72427 15.039 7.02427 14.3512C6.07927 13.4062 7.22289 11.6798 9.43927 9.46258C11.6556 7.24533 13.3829 6.10258 14.3279 7.00121C14.9929 7.65483 14.6779 8.50621 13.8843 9.68483L17.5593 11.4348C18.6556 9.43983 19.8929 6.58121 17.3493 4.02621C14.1179 0.806209 9.90564 2.04258 5.96289 5.98621C2.02014 9.92983 0.782895 14.1526 4.01427 17.3612C6.63927 19.9976 9.73064 18.5276 11.6679 17.3612L9.96427 13.6976Z" fill="currentColor"/>
<path d="M26.5888 20.4641C27.6852 18.4691 28.9224 15.6105 26.3674 13.0555C23.1474 9.83551 18.9361 11.0719 14.9924 15.0155C11.0488 18.9591 9.81244 23.1819 13.0438 26.3905C15.6688 29.0155 18.7602 27.5569 20.6852 26.3905L18.9938 22.7505C17.8274 23.6605 16.7538 24.1041 16.0538 23.4155C15.1088 22.4705 16.2524 20.7441 18.4688 18.5269C20.6852 16.3096 22.4124 15.1669 23.3338 16.0769C23.9988 16.7305 23.6838 17.5819 22.8902 18.7605L26.5888 20.4641Z" fill="currentColor"/>
</svg>
