<svg width="36" height="36" viewBox="0 0 36 36" fill="none" xmlns="http://www.w3.org/2000/svg">
<path d="M18.7598 2C19.1918 3.212 19.6408 4.224 20.1558 5.197L20.0928 5.067L21.5458 4.414C21.7258 4.317 21.9398 4.26 22.1678 4.26C22.9038 4.26 23.5008 4.857 23.5008 5.593C23.5008 6.16 23.1468 6.644 22.6488 6.837L22.6398 6.84L21.4268 7.387C22.3098 8.715 23.2218 9.873 24.2178 10.953L24.1998 10.934L26.1198 9.001C26.3618 8.759 26.6968 8.609 27.0668 8.609C27.8058 8.609 28.4058 9.208 28.4058 9.948C28.4058 10.318 28.2558 10.652 28.0138 10.895L26.0408 12.828C26.9998 13.717 28.0448 14.55 29.1488 15.302L29.2408 15.361L29.8138 14.028C30.0368 13.549 30.5138 13.223 31.0668 13.223C31.8278 13.223 32.4448 13.84 32.4448 14.601C32.4448 14.809 32.3988 15.006 32.3168 15.183L32.3208 15.175L31.6008 16.748C32.5468 17.265 33.6658 17.761 34.8268 18.166L34.9878 18.215C34.9878 18.148 34.9878 18.082 34.9878 18.002C34.9878 9.165 27.8248 2.002 18.9878 2.002L18.7598 2Z" fill="#B1BAD3"/>
<path d="M30.453 19.1466L29.746 20.6666C29.532 21.1336 29.07 21.4516 28.533 21.4536C28.335 21.4526 28.147 21.4086 27.978 21.3306L27.986 21.3336C27.52 21.1186 27.203 20.6556 27.203 20.1186C27.203 19.9206 27.246 19.7336 27.323 19.5646L27.32 19.5726L28.133 17.7456C26.633 16.7616 25.327 15.7436 24.109 14.6306L24.133 14.6526L23.266 15.5196C23.026 15.7576 22.697 15.9046 22.333 15.9066C22.331 15.9066 22.328 15.9066 22.325 15.9066C21.959 15.9066 21.627 15.7586 21.386 15.5196C21.146 15.2786 20.998 14.9466 20.998 14.5796C20.998 14.2126 21.146 13.8806 21.386 13.6396L22.239 12.7726C21.086 11.5026 20.014 10.1086 19.062 8.6316L18.986 8.5056L17.093 9.3586C16.933 9.4336 16.745 9.4776 16.547 9.4786C16.537 9.4786 16.524 9.4786 16.512 9.4786C15.776 9.4786 15.179 8.8816 15.179 8.1456C15.179 7.6096 15.496 7.1466 15.952 6.9356L15.96 6.9326L17.653 6.1596C17.085 5.0646 16.56 3.7746 16.15 2.4336L16.106 2.2666C9.56295 3.4976 4.48395 8.5766 3.26795 15.0206L3.25195 15.1196C4.75995 15.5726 6.05095 16.0986 7.27795 16.7286L7.14495 16.6666L7.91795 14.9736C8.14595 14.5466 8.58895 14.2616 9.09795 14.2616C9.83395 14.2616 10.431 14.8586 10.431 15.5946C10.431 15.7646 10.399 15.9266 10.342 16.0756L10.345 16.0666L9.49195 17.9996C11.114 19.0466 12.525 20.1396 13.836 21.3406L13.812 21.3196L14.679 20.4666C14.911 20.2676 15.214 20.1456 15.546 20.1456C16.282 20.1456 16.879 20.7426 16.879 21.4786C16.879 21.8106 16.758 22.1146 16.557 22.3476L16.558 22.3456L15.705 23.2126C16.811 24.4036 17.83 25.7106 18.731 27.1016L18.799 27.2126L20.612 26.3996C20.838 26.2186 21.127 26.1096 21.442 26.1096C22.178 26.1096 22.775 26.7066 22.775 27.4426C22.775 28.1046 22.292 28.6546 21.659 28.7586L21.651 28.7596L20.078 29.4666C20.723 30.6736 21.312 32.0866 21.765 33.5596L21.811 33.7336C28.354 32.5026 33.433 27.4236 34.649 20.9796L34.665 20.8806C33.033 20.3686 31.638 19.7806 30.312 19.0806L30.451 19.1476L30.453 19.1466Z" fill="#B1BAD3"/>
<path d="M19.2 34.0004C18.75 32.6584 18.254 31.5224 17.673 30.4374L17.733 30.5604L16.16 31.3334C16 31.4084 15.812 31.4524 15.614 31.4534C15.602 31.4534 15.589 31.4544 15.575 31.4544C14.839 31.4544 14.242 30.8574 14.242 30.1214C14.242 29.5734 14.573 29.1024 15.045 28.8974L15.054 28.8944L16.387 28.3214C15.576 27.1254 14.743 26.0804 13.838 25.1044L13.854 25.1214L11.894 26.9884C11.658 27.2034 11.343 27.3354 10.997 27.3354C10.994 27.3354 10.99 27.3354 10.987 27.3354C10.985 27.3354 10.983 27.3354 10.98 27.3354C10.614 27.3354 10.282 27.1874 10.041 26.9484C9.797 26.7064 9.647 26.3714 9.647 26.0014C9.647 25.6314 9.798 25.2964 10.041 25.0544L11.974 23.1344C10.906 22.1724 9.735 21.2724 8.496 20.4674L8.387 20.4014L7.84 21.6144C7.626 22.0814 7.164 22.3994 6.627 22.4014C6.429 22.4004 6.241 22.3564 6.072 22.2784L6.08 22.2814C5.614 22.0664 5.297 21.6034 5.297 21.0664C5.297 20.8684 5.34 20.6814 5.417 20.5124L5.414 20.5204L6.067 19.0674C5.225 18.6154 4.213 18.1654 3.167 17.7864L3 17.7334C3 17.8134 3 17.8804 3 17.9604C3 17.9724 3 17.9864 3 18.0004C3 26.8324 10.156 33.9924 18.986 34.0004H19.2Z" fill="#B1BAD3"/>
</svg>
