<svg width="36" height="36" viewBox="0 0 36 36" xmlns="http://www.w3.org/2000/svg">
<path d="M10.6249 27.72C10.0779 27.72 9.91791 27.613 9.91791 27.027C9.94491 18.68 9.93091 10.347 9.93091 2H1.50391C1.82391 2.68 2.18391 3.347 2.43691 4.053C2.66391 4.666 3.08991 5.2 3.08991 5.933C3.07691 13.973 3.08991 22.026 3.08991 30.066C3.08991 30.333 3.07691 30.586 2.94291 30.853C2.44991 31.84 1.99591 32.853 1.52991 33.88C1.60991 33.907 1.66291 33.947 1.71691 33.947C7.95691 33.947 14.1839 33.947 20.4239 33.96C20.7309 33.96 20.8639 33.813 20.9169 33.587C21.4639 31.64 21.9839 29.707 22.5439 27.707H21.8109C18.0909 27.707 14.3579 27.707 10.6379 27.707L10.6249 27.72Z" />
<path d="M31.411 8.26557C31.144 8.09257 31.211 7.78557 31.118 7.54557C31.011 7.25257 30.878 7.13257 30.571 7.38557C28.918 8.75857 27.251 10.1056 25.598 11.4656C23.585 13.1186 21.598 14.7986 19.571 16.4386C19.331 16.6386 19.118 17.0256 18.624 16.9316C20.384 15.1186 22.104 13.3316 23.851 11.5716C24.158 11.2516 24.318 10.9046 24.398 10.4786C24.518 9.78557 24.838 9.19857 25.438 8.75857C26.371 8.09157 27.265 7.35857 28.211 6.70557C28.598 6.43857 28.398 6.33257 28.211 6.17257C26.838 4.99957 25.184 4.63957 23.424 4.55957C23.144 4.55957 22.944 4.63957 22.757 4.83957C22.09 5.55957 21.424 6.26657 20.744 6.95957C18.731 9.02657 16.704 11.0926 14.691 13.1596C14.651 13.1996 14.544 13.2526 14.624 13.3466C14.811 13.4136 14.904 13.2936 15.037 13.2136C16.157 12.4936 17.277 11.7736 18.477 11.1606C18.757 11.0136 19.117 10.7736 19.344 11.0136C19.557 11.2406 19.237 11.5606 19.104 11.7866C17.997 13.6136 16.624 15.2266 15.237 16.8266C14.064 18.1866 12.917 19.5736 11.637 20.8266C11.37 21.0936 11.277 21.4266 11.29 21.8136C11.303 23.2406 11.29 24.6666 11.29 26.0936C11.29 26.2536 11.21 26.4266 11.383 26.5736C15.076 24.6006 18.77 22.6136 22.476 20.6406C22.503 20.6276 22.516 20.5736 22.543 20.5476C22.303 20.5076 22.09 20.5476 21.863 20.6406C20.783 21.0936 19.636 21.3736 18.503 21.6536C18.13 21.7466 17.53 21.9066 17.33 21.5066C17.157 21.1596 17.57 20.7736 17.877 20.4666C18.73 19.5866 19.73 18.8936 20.744 18.2136C23.811 16.1466 27.051 14.3736 30.291 12.6136C30.664 12.4136 30.824 12.2536 30.664 11.8136C30.304 10.8006 30.811 10.0136 31.424 9.28057V8.25357L31.411 8.26557Z" />
<path d="M29.1714 18.1461C28.5184 18.3991 27.8784 18.7191 27.2384 19.0261C27.0384 19.1191 27.0654 19.3461 27.0654 19.5331C27.0384 21.2801 26.5184 22.9061 25.7584 24.4661C25.1584 25.6931 24.0514 26.6261 23.7854 28.0661C23.6254 28.9731 23.3054 29.8661 23.0254 30.9061C25.2254 29.3991 26.7584 27.5591 27.8924 25.3731C28.6794 23.8531 29.1324 22.2261 29.3594 20.5461C29.4524 19.8791 29.4524 19.1991 29.4924 18.5331C29.4924 18.3201 29.4654 18.0261 29.1724 18.1331L29.1714 18.1461Z" />
<path d="M11.5839 6.67991C13.7439 6.17291 15.9169 6.19991 18.0639 6.78691C18.3569 6.86691 18.5039 6.81391 18.6639 6.61391C19.0769 6.08091 19.4639 5.54691 19.8769 4.98691C19.2639 4.71991 18.6499 4.55991 18.0239 4.42691C16.1839 4.01391 14.3169 3.97391 12.4509 4.15991C11.3709 4.26691 11.2109 4.38691 11.2109 5.43991C11.2109 5.75991 11.2109 6.07991 11.2109 6.39991C11.2109 6.67991 11.2779 6.74691 11.5839 6.67991Z" />
<path d="M1.74488 11.9062C-0.588122 14.3333 -0.575122 23.3333 1.74488 25.5592V11.9062Z" />
<path d="M29.2769 15.026C29.2239 14.826 29.3299 14.599 29.1039 14.373C26.9169 15.746 24.7039 17.12 22.5039 18.493C22.5039 18.533 22.5169 18.56 22.5309 18.6C22.6509 18.6 22.7979 18.64 22.9039 18.6C24.8109 17.867 26.7039 17.133 28.6109 16.387C29.5439 16.014 29.5579 16 29.2909 15.04L29.2769 15.026Z" />
</svg>
