<svg width="28" height="28" viewBox="0 0 28 28" fill="none" xmlns="http://www.w3.org/2000/svg">
<path d="M23.2862 12.8356C22.5701 12.8418 21.8942 13.0085 21.2908 13.302L21.3187 13.2897L20.1547 11.9161C21.0541 11.3948 22.1335 11.0865 23.2853 11.0865C24.1245 11.0865 24.9253 11.2498 25.6579 11.5467L25.6151 11.5319C25.5374 8.37768 22.9613 5.84961 19.7949 5.84961C19.794 5.84961 19.794 5.84961 19.7932 5.84961H15.1361L17.4651 8.17858H6.98603L4.65706 7.01453H0L6.06649 13.081C5.64733 12.9308 5.16355 12.8417 4.65968 12.8365H4.65706C2.08446 12.8365 0 14.9218 0 17.4936C0 20.0653 2.08533 22.1506 4.65706 22.1506C7.22967 22.1506 9.31412 20.0653 9.31412 17.4936C9.31063 16.988 9.22068 16.5042 9.06001 16.0545L9.06961 16.085L11.6431 18.6585L17.2782 19.6479C17.0424 19.0104 16.9062 18.2743 16.9062 17.5058C16.9062 15.9505 17.4651 14.5254 18.3925 13.4207L18.3846 13.4303L19.5487 14.7926C19.009 15.5427 18.6859 16.4806 18.6859 17.4936C18.6859 20.0662 20.7712 22.1506 23.3429 22.1506C25.9147 22.1506 28 20.0653 28 17.4936C28 14.921 25.9147 12.8365 23.3429 12.8365C23.3229 12.8365 23.3028 12.8365 23.2836 12.8365L23.2862 12.8356ZM4.65706 19.8217C3.37076 19.8217 2.32809 18.779 2.32809 17.4927C2.32809 16.2064 3.37076 15.1637 4.65706 15.1637C5.94336 15.1637 6.98603 16.2064 6.98603 17.4927C6.98603 18.779 5.94336 19.8217 4.65706 19.8217ZM23.2862 19.8217C21.9999 19.8217 20.9572 18.779 20.9572 17.4927C20.9572 16.2064 21.9999 15.1637 23.2862 15.1637C24.5725 15.1637 25.6151 16.2064 25.6151 17.4927C25.6151 18.779 24.5725 19.8217 23.2862 19.8217Z" fill="currentColor"/>
</svg>
