<svg width="28" height="28" viewBox="0 0 28 28" fill="none" xmlns="http://www.w3.org/2000/svg">
<path d="M16.0177 25.6672L9.42637 19.0759C9.21637 18.865 9.08687 18.5745 9.08687 18.2534C9.08687 17.9323 9.21637 17.6418 9.42637 17.4309C9.63725 17.2209 9.92775 17.0914 10.2489 17.0914C10.57 17.0914 10.8605 17.2209 11.0714 17.4309L14.3728 20.7323L15.2014 19.9036L10.2428 14.9572C10.031 14.7455 9.89975 14.4524 9.89975 14.1286C9.89975 13.482 10.4239 12.957 11.0714 12.957C11.3951 12.957 11.6874 13.0883 11.9 13.3L16.8464 18.2586L17.675 17.43L13.545 13.3C13.335 13.0891 13.2055 12.7986 13.2055 12.4775C13.2055 12.1564 13.335 11.8659 13.545 11.655C13.7541 11.4555 14.0376 11.333 14.35 11.333C14.6685 11.333 14.9564 11.4607 15.1672 11.6672L21.7586 18.2709L22.5872 17.4422L20.1136 14.9686C19.9001 14.7569 19.7689 14.4637 19.7689 14.14C19.7689 13.8162 19.901 13.5231 20.1136 13.3114C20.3245 13.1014 20.615 12.9719 20.9361 12.9719C21.2572 12.9719 21.5478 13.1014 21.7586 13.3114L25.06 16.6128C25.8379 17.6295 26.3462 18.8904 26.4582 20.2624L26.46 20.2878C27.4216 18.4616 27.9904 16.2978 28 14.0026V14C28 6.26762 21.7324 0 14 0C6.26762 0 0 6.26762 0 14C0 21.7324 6.26762 28 14 28C14.0017 28 14.0044 28 14.0061 28C15.5864 28 17.1045 27.7349 18.5185 27.2475L18.4214 27.2764C17.4974 26.8494 16.7038 26.3104 16.0134 25.662L16.0177 25.6672Z" fill="currentColor"/>
</svg>
