<svg width="28" height="28" viewBox="0 0 28 28" fill="none" xmlns="http://www.w3.org/2000/svg">
<path d="M7.29102 6.41764C7.29102 9.96106 10.1634 12.8334 13.7068 12.8334V0.000976562C10.1634 0.000976562 7.29102 2.87421 7.29102 6.41764Z" fill="currentColor"/>
<path d="M14.291 15.167V27.9994C17.8344 27.9994 20.7068 25.1271 20.7068 21.5837C20.7068 18.0402 17.8344 15.167 14.291 15.167Z" fill="currentColor"/>
<path d="M21.5838 7.29297C18.0403 7.29297 15.168 10.1653 15.168 13.7088H28.0004C28.0004 10.1653 25.1281 7.29297 21.5846 7.29297H21.5838Z" fill="currentColor"/>
<path d="M6.41666 20.7088C9.96009 20.7088 12.8324 17.8364 12.8324 14.293H0C0 17.8364 2.87324 20.7088 6.41666 20.7088Z" fill="currentColor"/>
</svg>
