<svg width="36" height="36" viewBox="0 0 36 36" xmlns="http://www.w3.org/2000/svg">
<path d="M31.279 4.72025C27.652 1.09325 21.772 1.09325 18.146 4.72025C16.613 6.25325 15.746 8.66725 15.493 10.1473C15.093 12.4672 13.866 15.3072 12.306 16.4942C11.839 16.7342 11.399 17.0543 11.013 17.4543C9.373 19.0942 9.04 21.5472 10 23.5212L2 31.5212L4.48 34.0013L12.48 26.0012C14.467 26.9612 16.907 26.6283 18.547 24.9883C18.934 24.6013 19.254 24.1612 19.507 23.6952C20.707 22.1353 24.107 20.8682 25.84 20.4953C27.8 20.0683 29.76 19.3752 31.28 17.8552C34.907 14.2282 34.907 8.34825 31.28 4.72225L31.279 4.72025ZM28.452 7.54725C29.719 8.81425 30.199 10.5743 29.905 12.2273L23.772 6.09425C24.079 6.04125 24.385 6.00125 24.705 6.00125C26.118 6.00125 27.452 6.54825 28.452 7.54825V7.54725ZM27.159 15.9073L20.106 8.85425C20.359 8.34725 20.639 7.86725 20.959 7.56125C21.039 7.48125 21.146 7.41425 21.239 7.33425L28.679 14.7743C28.599 14.8673 28.546 14.9612 28.452 15.0542C28.119 15.3872 27.692 15.6813 27.159 15.9213V15.9073ZM16.319 21.2803L16.119 21.5473L15.959 21.8542C15.892 21.9743 15.812 22.0812 15.719 22.1873C15.372 22.5343 14.986 22.5742 14.772 22.5742C14.558 22.5742 14.172 22.5212 13.825 22.1873C13.478 21.8403 13.438 21.4543 13.438 21.2402C13.438 21.0262 13.491 20.6402 13.825 20.2932C13.918 20.2002 14.038 20.1202 14.158 20.0532L14.451 19.8932L14.718 19.6933C17.131 17.8533 18.598 14.4532 19.225 11.7603L24.265 16.8002C22.585 17.2532 18.358 18.6272 16.318 21.2932L16.319 21.2803Z" />
<path d="M23.6661 25.2929C21.4391 26.5859 20.6661 29.4399 21.9591 31.6659C23.2521 33.8919 26.1061 34.6659 28.3321 33.3729C30.5581 32.0799 31.3321 29.2259 30.0391 26.9999C28.7461 24.7739 25.8921 23.9999 23.6661 25.2929Z" />
</svg>
