<svg width="28" height="28" viewBox="0 0 28 28" fill="none" xmlns="http://www.w3.org/2000/svg">
<g clip-path="url(#clip0_3834_706)">
<path d="M18.8676 15.841C29.6946 14.5081 27.7206 4.57392 27.7206 4.57392H22.8536C23.0364 3.20396 23.1423 1.617 23.1464 0.00495833V0H4.85364C4.85743 1.61583 4.9636 3.20308 5.1666 4.76L5.14648 4.57304H0.279434C0.279434 4.57304 -1.6934 14.4929 9.13239 15.8401C9.89656 16.9689 10.7395 17.953 11.6824 18.8309L11.6926 18.8399C11.5725 20.4671 10.9197 25.1469 7.14556 25.1469H4.85248V28H23.1455V25.1469L19.9725 25.0399C16.9724 24.36 16.4124 20.3204 16.3056 18.8399C17.2539 17.9577 18.0998 16.9715 18.8274 15.8999L18.8653 15.8401L18.8676 15.841ZM22.0004 8.82788L22.6406 7.24121H25.1204C25.0244 8.59396 24.5385 9.81692 23.7755 10.817L23.7875 10.801C22.9704 11.7319 21.903 12.4084 20.7124 12.7499L20.6666 12.761C21.1724 11.6559 21.6294 10.3451 21.9666 8.98683L22.0004 8.827V8.82788ZM4.21343 10.801C3.43419 9.77625 2.97132 8.54616 2.88168 7.26192L2.88081 7.24092H5.33373L6.00077 8.82788C6.40793 10.3801 6.89093 11.7101 7.47777 12.983L7.4136 12.8281C6.12793 12.4679 5.03885 11.7591 4.22073 10.8097L4.21373 10.8019L4.21343 10.801ZM16.1076 11.961L14.2406 11.0539C14.1669 11.0141 14.0844 10.9936 14.0006 10.9941C13.9125 10.9941 13.8294 11.016 13.7576 11.0559L13.7606 11.055L11.8936 11.9621C11.8181 11.9956 11.735 12.0085 11.6529 11.9995C11.5708 11.9905 11.4925 11.9599 11.4261 11.9108C11.3596 11.8618 11.3073 11.796 11.2745 11.7201C11.2417 11.6443 11.2296 11.5612 11.2394 11.4791V11.4809L11.5325 9.38787C11.542 9.32054 11.5361 9.25194 11.5154 9.18719C11.4946 9.12244 11.4595 9.06322 11.4126 9.01396L9.99952 7.48096C9.94336 7.42222 9.90395 7.3495 9.8854 7.27038C9.86685 7.19125 9.86984 7.1086 9.89404 7.03102C9.91824 6.95344 9.96278 6.88376 10.023 6.82921C10.0833 6.77467 10.157 6.73726 10.2366 6.72087H10.2396L12.3326 6.33412C12.4775 6.31808 12.5994 6.23204 12.6645 6.11012L12.6656 6.10808L13.6655 4.24113C13.7041 4.16879 13.7616 4.10828 13.8318 4.06602C13.9021 4.02375 13.9825 4.00132 14.0644 4.00111C14.1464 4.0009 14.2269 4.02292 14.2974 4.06483C14.3679 4.10673 14.4257 4.16695 14.4646 4.23908L14.4655 4.24113L15.4656 6.10779C15.5286 6.22913 15.6456 6.31487 15.7836 6.33412H15.7856L17.8786 6.72087C17.9587 6.73642 18.0332 6.7733 18.0941 6.82763C18.155 6.88195 18.2001 6.9517 18.2247 7.02953C18.2493 7.10735 18.2524 7.19037 18.2337 7.26982C18.2151 7.34927 18.1753 7.42221 18.1186 7.48096L16.6516 9.01396C16.5717 9.09818 16.5273 9.20995 16.5276 9.32604C16.5276 9.34792 16.5296 9.36892 16.5314 9.39021V9.38787L16.8245 11.4809C16.8437 11.5722 16.8351 11.6672 16.7998 11.7536C16.7645 11.84 16.704 11.9139 16.6263 11.9656C16.5485 12.0173 16.4571 12.0444 16.3638 12.0436C16.2704 12.0428 16.1795 12.014 16.1026 11.961L16.1044 11.9621L16.1073 11.961H16.1076Z" fill="currentColor"/>
</g>
<defs>
<clipPath id="clip0_3834_706">
<rect width="28" height="28" fill="white"/>
</clipPath>
</defs>
</svg>
