<svg width="28" height="28" viewBox="0 0 28 28" fill="none" xmlns="http://www.w3.org/2000/svg">
<path d="M13.0338 9.9527C13.3934 9.58265 13.8911 9.34908 14.444 9.33596H14.4466C14.8954 9.26772 15.4133 9.22923 15.9399 9.22923C16.659 9.22923 17.3615 9.30184 18.0395 9.43919L17.9721 9.42781C18.9475 9.64214 19.7725 10.1828 20.3446 10.9272L20.3516 10.9369C20.6027 11.2614 20.754 11.6743 20.754 12.1222C20.754 12.1327 20.754 12.1432 20.754 12.1546V12.1528C20.754 15.7964 20.754 19.44 20.754 23.0879C20.7549 23.1247 20.7558 23.1684 20.7558 23.2122C20.7558 24.8236 19.8503 26.2233 18.5198 26.9301L18.497 26.9415C17.8278 27.3386 17.0474 27.6335 16.2164 27.7795L16.1744 27.7857C15.492 27.9221 14.7065 28 13.9034 28C12.6865 28 11.5108 27.8215 10.4015 27.4882L10.4873 27.5101C8.36147 26.8496 7.25047 25.3668 7.24609 23.1361C7.24609 17.1611 7.24609 11.1833 7.24609 5.20249C7.24609 3.73281 7.6835 2.4031 8.85137 1.41894C9.65969 0.779454 10.6552 0.34205 11.7426 0.197707L11.7732 0.194207C12.4416 0.0708594 13.2097 0 13.9944 0C15.052 0 16.079 0.128597 17.0614 0.370044L16.974 0.351673C18.4174 0.719093 19.6421 1.43206 20.2458 2.86237C20.4951 3.44062 20.6622 4.1116 20.7129 4.81495L20.7138 4.83507C20.7925 5.89359 20.7138 6.96085 20.7138 8.05436H15.01V7.61696C15.01 6.93461 15.01 6.25226 15.01 5.56991C15.0118 5.55154 15.0135 5.53054 15.0135 5.50954C15.0135 5.2611 14.8473 5.05115 14.6207 4.98466L14.6172 4.98378C14.4361 4.9138 14.2262 4.87356 14.0066 4.87356C13.787 4.87356 13.578 4.9138 13.3846 4.98728L13.3969 4.98291C13.1563 5.0424 12.9813 5.25585 12.9813 5.51042C12.9813 5.51392 12.9813 5.51829 12.9813 5.52179V5.52092C12.9813 6.93811 12.9813 8.3553 12.9813 9.77249C12.9953 9.8416 13.0137 9.90196 13.0365 9.95882L13.0338 9.9527ZM11.4854 24.8638C11.6446 25.1026 11.9123 25.2575 12.2159 25.2575C12.2587 25.2575 12.3016 25.254 12.3427 25.2479L12.3384 25.2487C12.627 25.1875 12.9157 25.1394 13.2132 25.0825C13.5106 25.0257 13.5543 24.8988 13.55 24.6451C13.55 23.4422 13.55 22.2394 13.55 21.0365C13.5412 20.991 13.536 20.9385 13.536 20.8852C13.536 20.488 13.8238 20.1582 14.2017 20.0926L14.2069 20.0917C14.388 20.013 14.5971 19.9596 14.8176 19.943H14.8237C15.1299 19.943 15.2086 19.7855 15.2042 19.5056C15.2042 18.9851 15.2042 18.4602 15.2042 17.9397C15.1999 17.9161 15.1972 17.8881 15.1972 17.8601C15.1972 17.609 15.3932 17.4043 15.6399 17.3886H15.6416C16.2409 17.2836 16.8314 17.1567 17.4306 17.043C18.0299 16.9293 18.0255 16.9337 18.0167 16.3432C18.0124 15.89 17.9791 15.4491 17.9188 15.0161L17.9249 15.0703C17.9205 14.709 17.6266 14.4177 17.2644 14.4177C17.2102 14.4177 17.1577 14.4247 17.1069 14.437L17.1113 14.4361C16.7509 14.4921 16.429 14.5761 16.1219 14.688L16.1578 14.6767C15.5979 14.856 15.0599 15.0834 14.4956 15.2497C14.0057 15.394 13.7783 15.2497 13.5333 14.8123C13.5027 14.7554 13.424 14.6767 13.3846 14.6854C12.7679 14.8035 12.0156 14.423 11.5781 15.2322C11.5248 15.3135 11.4933 15.4124 11.4933 15.5191C11.4933 15.5628 11.4985 15.6057 11.509 15.6468L11.5082 15.6433C11.5528 15.7684 11.5895 15.9163 11.6114 16.0685L11.6131 16.0807C11.6131 18.6483 11.6131 21.2159 11.6131 23.7834C11.5895 24.1858 11.544 24.5568 11.4775 24.9207L11.4863 24.8647L11.4854 24.8638Z" fill="currentColor"/>
<path d="M14.9641 18.2373L14.5267 17.7168C14.8285 17.7168 14.9641 17.8349 14.9904 18.1236C15.0008 18.3195 15.007 18.5487 15.007 18.7797C15.007 19.0106 15.0008 19.2398 14.9895 19.4673L14.9912 19.4358C14.9492 19.5749 14.8443 19.6834 14.7104 19.728L14.7069 19.7289C14.5879 19.7411 14.4506 19.749 14.3106 19.749C14.1707 19.749 14.0333 19.742 13.8977 19.728L13.9143 19.7297C13.6913 19.7297 13.5907 19.6029 13.5994 19.3798C13.6082 19.1567 13.5994 19.0386 13.5994 18.868C13.5985 18.8549 13.5977 18.8401 13.5977 18.8243C13.5977 18.4551 13.8968 18.1551 14.2669 18.1551C14.3526 18.1551 14.434 18.1708 14.5092 18.2006L14.5048 18.1988C14.6361 18.2294 14.7629 18.2819 14.8897 18.3213L14.9641 18.2373Z" fill="currentColor"/>
</svg>
