<svg width="28" height="30" viewBox="0 0 28 30" fill="none" xmlns="http://www.w3.org/2000/svg">
<path d="M9.46702 23.6783C8.97962 23.6783 8.83705 23.583 8.83705 23.0608C8.86111 15.6233 8.84864 8.19825 8.84864 0.760742H1.33984C1.62498 1.36665 1.94575 1.96097 2.17118 2.59005C2.37345 3.13625 2.75303 3.61207 2.75303 4.2652C2.74145 11.4292 2.75303 18.6047 2.75303 25.7687C2.75303 26.0066 2.74145 26.232 2.62205 26.4699C2.18277 27.3494 1.77824 28.252 1.36301 29.1671C1.43429 29.1912 1.48152 29.2268 1.52964 29.2268C7.08972 29.2268 12.6382 29.2268 18.1983 29.2384C18.4719 29.2384 18.5904 29.1074 18.6376 28.906C19.125 27.1712 19.5883 25.4488 20.0873 23.6667H19.4342C16.1195 23.6667 12.7933 23.6667 9.4786 23.6667L9.46702 23.6783Z" fill="currentColor"/>
<path d="M27.988 6.34321C27.7501 6.18906 27.8098 5.91551 27.727 5.70166C27.6316 5.44059 27.5131 5.33366 27.2396 5.55909C25.7667 6.78249 24.2813 7.98272 22.8084 9.19454C21.0148 10.6674 19.2443 12.1644 17.4381 13.6257C17.2243 13.8039 17.0345 14.1487 16.5943 14.065C18.1625 12.4495 19.6951 10.8572 21.2518 9.28899C21.5253 9.00386 21.6679 8.69466 21.7392 8.31508C21.8461 7.69759 22.1312 7.17455 22.6659 6.78249C23.4972 6.18817 24.2938 5.53504 25.1367 4.95319C25.4815 4.71528 25.3033 4.62083 25.1367 4.47826C23.9133 3.43307 22.4395 3.1123 20.8713 3.04102C20.6218 3.04102 20.4436 3.1123 20.277 3.29051C19.6827 3.93206 19.0892 4.56202 18.4833 5.17951C16.6897 7.02129 14.8835 8.86218 13.0899 10.704C13.0542 10.7396 12.9589 10.7868 13.0302 10.8706C13.1968 10.9303 13.2796 10.8234 13.3982 10.7521C14.3961 10.1105 15.3941 9.46898 16.4633 8.92277C16.7128 8.79179 17.0336 8.57794 17.2359 8.79179C17.4257 8.99405 17.1405 9.27919 17.022 9.48056C16.0356 11.1085 14.8122 12.5457 13.5764 13.9714C12.5312 15.1832 11.5091 16.4191 10.3686 17.5356C10.1307 17.7735 10.0478 18.0702 10.0594 18.415C10.071 19.6865 10.0594 20.9572 10.0594 22.2287C10.0594 22.3712 9.98814 22.5254 10.1423 22.6564C13.4329 20.8983 16.7244 19.1279 20.0266 17.3698C20.0507 17.3582 20.0622 17.3101 20.0863 17.287C19.8724 17.2513 19.6827 17.287 19.4804 17.3698C18.5181 17.7735 17.496 18.023 16.4865 18.2725C16.1541 18.3553 15.6195 18.4979 15.4413 18.1415C15.2872 17.8323 15.6552 17.4883 15.9287 17.2148C16.6888 16.4307 17.5798 15.8132 18.4833 15.2073C21.2161 13.3655 24.1031 11.7857 26.9901 10.2175C27.3224 10.0392 27.465 9.89668 27.3224 9.50462C27.0017 8.602 27.4534 7.90075 27.9996 7.24762V6.33252L27.988 6.34321Z" fill="currentColor"/>
<path d="M25.992 15.1471C25.4101 15.3725 24.8398 15.6576 24.2696 15.9312C24.0914 16.014 24.1154 16.2163 24.1154 16.3829C24.0914 17.9396 23.628 19.3884 22.9508 20.7784C22.4162 21.8717 21.4298 22.7031 21.1928 23.9862C21.0502 24.7944 20.7651 25.5901 20.5156 26.5167C22.4759 25.1739 23.8419 23.5344 24.8523 21.5866C25.5536 20.2322 25.9572 18.7825 26.1595 17.2856C26.2423 16.6912 26.2423 16.0853 26.278 15.4919C26.278 15.3021 26.2539 15.0401 25.9928 15.1355L25.992 15.1471Z" fill="currentColor"/>
<path d="M10.3226 4.93087C12.2472 4.47911 14.1835 4.50317 16.0965 5.02621C16.3576 5.0975 16.4886 5.05027 16.6312 4.87206C16.9992 4.39714 17.344 3.92132 17.712 3.42234C17.1658 3.18443 16.6187 3.04187 16.0609 2.92336C14.4214 2.55536 12.7578 2.51972 11.0951 2.68545C10.1328 2.78079 9.99023 2.88772 9.99023 3.82598C9.99023 4.11111 9.99023 4.39625 9.99023 4.68138C9.99023 4.93087 10.0499 4.99057 10.3226 4.93087Z" fill="currentColor"/>
<path d="M1.55476 9.58789C-0.52404 11.7504 -0.512456 19.7698 1.55476 21.7533V9.58789Z" fill="currentColor"/>
<path d="M26.0877 12.367C26.0405 12.1888 26.135 11.9865 25.9336 11.7852C23.9849 13.0086 22.013 14.2328 20.0527 15.4562C20.0527 15.4919 20.0643 15.5159 20.0768 15.5516C20.1837 15.5516 20.3147 15.5872 20.4092 15.5516C22.1084 14.8985 23.7951 14.2444 25.4943 13.5797C26.3257 13.2474 26.3381 13.2349 26.1002 12.3795L26.0877 12.367Z" fill="currentColor"/>
</svg>
