<svg width="28" height="28" viewBox="0 0 28 28" fill="none" xmlns="http://www.w3.org/2000/svg">
<path d="M18.9537 20.3476C17.712 21.0616 16.8887 22.3811 16.8887 23.8931C16.8887 26.1445 18.7139 27.9689 20.9644 27.9689C23.2149 27.9689 25.0402 26.1436 25.0402 23.8931C25.0402 23.1363 24.8337 22.4275 24.474 21.8194L24.4845 21.8386C23.7644 20.6206 22.458 19.8174 20.9644 19.8174C20.225 19.8174 19.5312 20.0143 18.9335 20.359L18.9537 20.3476Z" fill="currentColor"/>
<path d="M27.6063 2.94788L25.033 0.3745C24.8195 0.1435 24.515 0 24.1772 0C23.8395 0 23.535 0.144375 23.3223 0.3745L23.3215 0.375375L22.891 0.7945L23.6365 2.63463L16.6487 8.88825L9.57958 13.6631L0.751703 22.5024C0.298453 22.9469 0.0175781 23.5655 0.0175781 24.2498C0.0175781 24.934 0.298453 25.5526 0.750828 25.9963L2.02045 27.2659C2.46495 27.7191 3.08358 28 3.76695 28C4.45033 28 5.06983 27.7191 5.51345 27.2667L14.3527 18.4275L19.1276 11.3698L25.3812 4.382L27.21 5.1275L27.6063 4.662C27.8373 4.4485 27.9808 4.144 27.9808 3.80625C27.9808 3.4685 27.8365 3.164 27.6063 2.95138L27.6055 2.9505L27.6063 2.94788Z" fill="currentColor"/>
</svg>
