<svg width="36" height="36" viewBox="0 0 36 36" xmlns="http://www.w3.org/2000/svg">
<path d="M10.4399 10.3608C11.4279 9.80677 12.0849 8.76577 12.0849 7.57177C12.0849 5.81177 10.6579 4.38477 8.89794 4.38477C7.13794 4.38477 5.71094 5.81177 5.71094 7.57177C5.71094 8.17277 5.87794 8.73577 6.16694 9.21477L6.15894 9.20077C6.72094 10.1418 7.73394 10.7628 8.89294 10.7628C9.46094 10.7628 9.99394 10.6138 10.4549 10.3528L10.4399 10.3608Z" />
<path d="M12.0931 14.1609L6.08008 17.6279L7.86708 20.7349L20.0671 13.6679L18.2941 10.5879C17.6641 9.50988 16.5121 8.79688 15.1941 8.79688C13.2181 8.79688 11.6161 10.3989 11.6161 12.3749C11.6161 13.0329 11.7931 13.6489 12.1031 14.1789L12.0941 14.1619L12.0931 14.1609Z" />
<path d="M29.8671 15.454L25.8671 10.987L24.7871 11.587L21.1071 5.2L22.2001 4.573L20.9601 2.44L19.8671 3.067L19.2541 2L17.1211 3.24L25.6011 17.92L29.8681 15.453L29.8671 15.454Z" />
<path d="M30.52 18.4265L18.52 25.3465L16.827 22.4265L19.96 20.6665C21.046 20.0395 21.765 18.8845 21.765 17.5615C21.765 16.9085 21.59 16.2965 21.284 15.7695L21.293 15.7865L15.08 19.3335C13.991 19.9595 13.269 21.1165 13.269 22.4425C13.269 23.0995 13.446 23.7155 13.756 24.2445L13.747 24.2275L15.494 27.1345L10.307 30.1075C9.97 30.3075 9.564 30.4255 9.131 30.4255C8.27 30.4255 7.518 29.9595 7.113 29.2655L7.107 29.2545L4 31.0415C5.047 32.8195 6.951 33.9945 9.13 33.9945C10.221 33.9945 11.243 33.7005 12.121 33.1865L12.093 33.2015L32.32 21.5345L30.52 18.4265Z" />
</svg>
