<svg width="36" height="36" viewBox="0 0 36 36" fill="none" xmlns="http://www.w3.org/2000/svg">
<path d="M7.32 2C6.917 2.001 6.591 2.327 6.591 2.73C6.591 2.894 6.645 3.045 6.736 3.167L6.735 3.165L8.775 5.88V30.12L6 32.835C5.909 32.956 5.855 33.109 5.855 33.275C5.855 33.393 5.883 33.505 5.932 33.604L5.93 33.6C6.053 33.839 6.298 34 6.58 34H27.68C27.68 34 27.681 34 27.682 34C27.912 34 28.116 33.893 28.249 33.726L31.885 30.09C31.985 29.967 32.046 29.808 32.046 29.635C32.046 29.235 31.721 28.91 31.321 28.91H16.045V2.725C16.045 2.325 15.72 2 15.32 2H7.32ZM17.5 4.91V6.365C17.506 6.365 17.513 6.365 17.52 6.365C24.738 6.365 30.59 12.217 30.59 19.435C30.59 22.471 29.555 25.265 27.818 27.484L27.84 27.455H29.635C31.145 25.2 32.046 22.425 32.046 19.44C32.046 11.415 25.541 4.91 17.516 4.91C17.511 4.91 17.505 4.91 17.5 4.91ZM17.5 7.82V27.455H25.93C27.915 25.374 29.137 22.55 29.137 19.44C29.137 13.022 23.935 7.82 17.517 7.82C17.511 7.82 17.506 7.82 17.5 7.82ZM7.32 9.085C4.818 11.543 3.205 14.898 3.002 18.628L3 18.665C3 18.925 3 19.19 3 19.455C3 19.885 3 20.31 3.055 20.73C3.381 24.316 4.968 27.481 7.362 29.822L7.365 29.825V27.665C5.553 25.444 4.455 22.578 4.455 19.455C4.455 16.332 5.553 13.466 7.384 11.221L7.365 11.245L7.32 9.085ZM7.32 13.835C6.404 15.455 5.865 17.392 5.865 19.455C5.865 21.518 6.405 23.455 7.35 25.133L7.32 25.075V13.835Z" fill="#B1BAD3"/>
</svg>
