<svg width="28" height="28" viewBox="0 0 28 28" fill="none" xmlns="http://www.w3.org/2000/svg">
<path d="M27.9125 9.90898C27.475 9.38398 27.0375 8.85898 26.6438 8.37773C25.4188 8.37773 24.1938 8.37773 22.9688 8.37773C23.0125 8.37773 22.9688 8.42148 22.9688 8.42148C22.8813 8.81523 22.7938 9.16523 22.7063 9.55898C22.575 10.0402 22.4875 10.5215 22.3562 11.0027C22.7937 11.0027 23.2313 11.0027 23.7125 11.0027C23.5813 11.484 23.4938 11.9215 23.3625 12.4027C23.3625 12.4902 23.3187 12.534 23.2312 12.534C22.75 12.534 22.225 12.534 21.7437 12.534C21.6562 12.534 21.6125 12.5777 21.5688 12.6652C21.3937 13.5402 21.175 14.3715 21 15.2027C20.9562 15.2902 21 15.334 21.0875 15.334C21.5688 15.334 22.0938 15.334 22.575 15.334C22.7062 15.334 22.7063 15.334 22.7063 15.4652C22.575 15.9465 22.4875 16.4277 22.3562 16.909C22.3125 16.9965 22.2688 17.0402 22.1812 17.0402C21.7875 17.0402 21.4375 17.0402 21.0437 17.0402C20.9562 17.0402 20.9562 17.0402 20.9125 17.1277C20.7375 17.9152 20.5187 18.7465 20.3438 19.534C20.3 19.6652 20.3438 19.6652 20.4312 19.6652C21.5688 19.6652 22.75 19.6652 23.8875 19.6652C23.975 19.6652 24.0187 19.6215 24.1062 19.5777C24.7625 19.0965 25.4187 18.5715 26.075 18.0902C26.1625 18.0465 26.1625 17.959 26.2063 17.8715C26.3813 17.0402 26.6 16.209 26.775 15.4215C26.8187 15.334 26.775 15.2902 26.7312 15.2027C26.3812 14.7652 26.0312 14.3715 25.6812 13.934C25.725 13.8902 25.725 13.8902 25.7688 13.8465C26.2938 13.409 26.8188 13.0152 27.3438 12.5777C27.3875 12.534 27.4313 12.4902 27.475 12.4027C27.65 11.659 27.825 10.8715 28 10.1277C28 10.0402 27.9563 9.95273 27.9125 9.90898ZM4.68125 15.4652C4.68125 15.3777 4.725 15.334 4.8125 15.334C5.3375 15.334 5.81875 15.334 6.34375 15.334C6.43125 15.334 6.475 15.334 6.475 15.2465C6.65 14.3715 6.86875 13.5402 7.0875 12.6652C7.13125 12.5777 7.0875 12.534 7 12.534C6.475 12.534 5.99375 12.534 5.46875 12.534C5.38125 12.534 5.3375 12.534 5.38125 12.4465C5.5125 12.009 5.6 11.5715 5.6875 11.134C5.6875 11.0465 5.73125 11.0465 5.81875 11.0465C6.125 11.0465 6.475 11.0465 6.78125 11.0465C6.86875 11.0465 6.9125 11.0465 6.9125 10.959C7.13125 10.084 7.30625 9.25273 7.525 8.37773C6.34375 8.37773 5.1625 8.37773 3.98125 8.37773C3.675 8.64023 3.325 8.90273 2.975 9.16523C2.625 9.42773 2.275 9.69023 1.925 9.99648C1.88125 10.0402 1.8375 10.084 1.79375 10.1715C1.61875 10.959 1.4 11.7465 1.225 12.4902C1.225 12.5777 1.225 12.6215 1.26875 12.709C1.61875 13.1027 1.925 13.4965 2.275 13.8902C2.31875 13.9777 2.31875 13.9777 2.275 14.0652C1.75 14.5027 1.225 14.8965 0.7 15.334C0.65625 15.3777 0.6125 15.4215 0.6125 15.509C0.4375 16.2965 0.21875 17.1277 0.04375 17.9152C0.04375 17.9152 0.04375 17.959 0 17.959C0 18.0027 0 18.0465 0 18.0902C0 18.0902 0.04375 18.0902 0.04375 18.134C0.48125 18.6152 0.875 19.1402 1.3125 19.6215C1.35625 19.6652 1.4 19.709 1.4875 19.709C2.625 19.709 3.80625 19.709 4.94375 19.709C5.03125 19.709 5.03125 19.709 5.075 19.6215C5.1625 19.2715 5.25 18.8777 5.3375 18.5277C5.46875 18.0465 5.55625 17.5652 5.6875 17.084C5.25 17.084 4.8125 17.084 4.33125 17.084C4.4625 16.4715 4.59375 15.9465 4.68125 15.4652ZM19.1625 16.9965C18.9 16.9965 18.6375 16.9965 18.3313 16.9965C18.2438 16.9965 18.1562 16.9527 18.1125 16.8652C17.5 15.9027 16.8438 14.9402 16.2312 13.9777C16.5375 13.7152 18.6375 11.834 19.5125 11.0902C19.5562 11.0465 19.6437 11.0027 19.7312 11.0027C19.9937 11.0027 20.3 11.0027 20.5625 11.0027C20.65 11.0027 20.6938 10.959 20.6938 10.9152C20.7375 10.6527 20.825 10.3902 20.8687 10.084C21 9.51523 21.1312 8.94648 21.2625 8.37773C21.2188 8.37773 21.2188 8.37773 21.2188 8.37773C20.125 8.37773 19.0312 8.37773 17.9375 8.37773C17.8937 8.37773 17.85 8.37773 17.8062 8.42148C16.9312 9.16523 14.875 11.0465 14.525 11.309C13.8688 10.3027 13.2562 9.34023 12.6 8.33398C11.4625 8.33398 10.325 8.33398 9.1875 8.33398C9.1875 8.37773 9.1875 8.42148 9.1875 8.46523C9.0125 9.25273 8.79375 10.084 8.61875 10.8715C8.61875 10.959 8.61875 10.959 8.70625 10.959C8.96875 10.959 9.23125 10.959 9.5375 10.959C9.625 10.959 9.66875 11.0027 9.75625 11.0465C10.3687 12.009 11.025 12.9715 11.6375 13.934C10.1938 15.2465 8.79375 16.4715 8.4 16.8652C8.35625 16.909 8.26875 16.9527 8.18125 16.9527C7.9625 16.9527 7.74375 16.9527 7.48125 16.9527C7.39375 16.9527 7.39375 16.9965 7.35 17.0402C7.175 17.8277 6.95625 18.659 6.78125 19.4465C6.7375 19.534 6.78125 19.5777 6.86875 19.5777C7.39375 19.5777 7.875 19.5777 8.4 19.5777C8.925 19.5777 9.40625 19.5777 9.93125 19.5777C10.0188 19.5777 10.0625 19.534 10.1062 19.4902C10.5 19.1402 11.9 17.8715 13.3438 16.6027C13.9563 17.5652 14.6125 18.5277 15.225 19.4902C15.2687 19.534 15.2687 19.5777 15.3562 19.5777C16.45 19.5777 17.5 19.5777 18.5938 19.5777C18.6812 19.5777 18.6812 19.534 18.725 19.4902C18.9 18.659 19.1187 17.8277 19.2937 17.0402C19.25 16.9965 19.25 16.9965 19.1625 16.9965ZM27.3438 6.14648H0L0.6125 3.95898H27.9563L27.3438 6.14648ZM27.3438 24.0402H0L0.6125 21.8527H27.9563L27.3438 24.0402Z" fill="currentColor"/>
</svg>
