<svg width="36" height="36" viewBox="0 0 36 36" fill="none" xmlns="http://www.w3.org/2000/svg">
<path d="M9.96097 7.414C10.992 6.807 11.673 5.703 11.673 4.44C11.673 2.54 10.133 1 8.23297 1C6.33297 1 4.79297 2.54 4.79297 4.44C4.79297 5.074 4.96397 5.667 5.26297 6.177L5.25397 6.161C5.85997 7.196 6.96597 7.88 8.23297 7.88C8.86997 7.88 9.46597 7.707 9.97697 7.406L9.96097 7.414Z" fill="#B1BAD3"/>
<path d="M11.8132 11.5214L5.24023 15.2814L7.17323 18.6414L29.3332 5.84145L27.4002 2.48145L18.4802 7.65445C17.8452 6.33745 16.5202 5.44445 14.9862 5.44445C12.8502 5.44445 11.1192 7.17545 11.1192 9.31145C11.1192 10.1384 11.3792 10.9054 11.8212 11.5334L11.8132 11.5214Z" fill="#B1BAD3"/>
<path d="M31.68 16.147L18.733 23.654L16.906 20.494L20.253 18.561C21.429 17.883 22.207 16.633 22.207 15.2C22.207 14.472 22.006 13.791 21.656 13.21L21.666 13.227L14.999 17.094C13.82 17.775 13.04 19.029 13.04 20.465C13.04 21.188 13.238 21.865 13.583 22.445L13.573 22.427L15.4 25.587L9.813 28.774C9.448 28.99 9.008 29.118 8.539 29.118C7.607 29.118 6.793 28.615 6.353 27.866L6.347 27.854L3 29.787C4.127 31.73 6.197 33.016 8.567 33.016C9.764 33.016 10.884 32.688 11.843 32.117L11.814 32.133L33.681 19.506L31.68 16.147Z" fill="#B1BAD3"/>
</svg>
