<svg width="36" height="36" viewBox="0 0 36 36" xmlns="http://www.w3.org/2000/svg">
<path d="M16 2C7.163 2 0 9.163 0 18C0 26.837 7.163 34 16 34C24.837 34 32 26.837 32 18C32 9.163 24.837 2 16 2ZM16 5.5C21.104 5.501 25.492 8.56 27.433 12.945L27.465 13.025C25.995 12.775 24.515 12.59 23.13 12.46L18.575 11.32C17.802 11.117 16.915 11.001 16 11.001C15.085 11.001 14.198 11.117 13.352 11.336L13.425 11.32L8.87 12.46C7.485 12.59 6.005 12.775 4.535 13.025C6.508 8.56 10.896 5.501 16 5.5ZM12.75 30.07C8.273 28.825 4.855 25.274 3.822 20.81L3.805 20.725C5.472 20.251 7.45 19.878 9.478 19.681L9.62 19.67C11.059 20.049 12.202 21.072 12.739 22.404L12.75 22.435V30.07ZM16 20.25C13.929 20.25 12.25 18.571 12.25 16.5C12.25 14.429 13.929 12.75 16 12.75C18.071 12.75 19.75 14.429 19.75 16.5C19.75 18.571 18.071 20.25 16 20.25ZM19.25 30.07V22.435C19.798 21.072 20.941 20.049 22.348 19.677L22.38 19.67C24.55 19.878 26.528 20.251 28.439 20.783L28.195 20.725C27.145 25.274 23.727 28.825 19.338 30.049L19.25 30.07Z" />
<path d="M18.25 16.5C18.25 17.743 17.243 18.75 16 18.75C14.757 18.75 13.75 17.743 13.75 16.5C13.75 15.257 14.757 14.25 16 14.25C17.243 14.25 18.25 15.257 18.25 16.5Z" />
</svg>
