<svg width="36" height="36" viewBox="0 0 36 36" xmlns="http://www.w3.org/2000/svg">
<path d="M34 18C34 20.74 33.3 23.32 32.1 25.56C29.4 30.58 24.1 34 18 34H17.76C16.1 33.98 14.48 33.7 12.98 33.2C6.6 31.1 2 25.08 2 18C2 17.5 2.02 17 2.08 16.5C2.48 11.96 4.8 7.98 8.2 5.36C8.94 4.78 9.74 4.26 10.6 3.82C12.8 2.66 15.32 2 18 2C21.54 2 24.82 3.16 27.48 5.12C28.52 5.88 29.46 6.76 30.28 7.76C32.02 9.84 33.24 12.36 33.74 15.12C33.78 15.32 33.82 15.54 33.84 15.74C33.94 16.48 34 17.24 34 18Z" fill="#4B9DE9"/>
<path d="M20.1801 30.5804C19.9001 30.7004 19.3201 31.2003 19.2201 32.2603C19.1401 33.0603 18.4601 33.6204 17.7601 34.0004C16.1001 33.9804 14.4801 33.7004 12.9801 33.2004C13.0001 32.5604 13.0601 31.9604 13.1401 31.4804C13.2401 30.8404 13.0801 29.2604 11.4601 28.0004C9.44008 26.4404 9.78008 25.3204 10.3801 24.5204C10.9801 23.7404 10.3801 23.3004 9.78008 22.5004C9.32008 21.8804 7.44008 20.6804 6.56008 20.1404C3.32008 20.1404 2.90008 18.6604 3.10008 17.9004C2.24008 17.9004 2.18008 17.0003 2.26008 16.5604C2.20008 16.5403 2.14008 16.5204 2.08008 16.5004C2.48008 11.9604 4.80008 7.98035 8.20008 5.36035L8.36008 5.56035C10.1401 6.90035 11.9401 6.24035 12.4201 5.90035C12.7801 5.64035 13.3401 5.34035 13.7401 5.40035C13.8801 5.40035 14.0001 5.44035 14.0801 5.56035C14.7401 6.48035 14.0401 6.84035 13.3001 7.08035H13.2801C12.9601 7.18035 12.6401 7.26035 12.4201 7.36035C11.8401 7.62035 12.1801 8.36035 12.4201 8.70035C13.3401 9.26035 14.5201 8.64035 15.1601 8.12035C15.2601 8.06035 15.3401 7.98035 15.4001 7.92035C15.6601 7.78035 16.1801 7.60035 16.6201 7.70035C16.7801 7.72035 16.9401 7.80035 17.0601 7.92035C17.6601 8.48035 18.2601 8.92035 19.2201 9.60035C20.1801 10.2804 19.2201 11.5004 18.2601 10.7204C17.5001 10.1004 17.1401 10.4604 17.0601 10.7204C17.9001 12.0604 15.8801 11.9604 14.6801 12.1804C13.4801 12.4004 12.5401 14.0804 11.9401 14.4204C11.3401 14.7604 11.3401 16.9004 10.3801 17.1204C9.62008 17.3004 9.66008 16.8204 9.78008 16.5604C9.78008 14.4204 5.26008 15.4404 5.26008 17.1204C5.26008 18.8004 6.92008 18.6804 7.88008 18.6804C8.64008 18.6804 8.52008 19.2804 8.36008 19.5804C8.60008 19.5804 9.08008 19.7604 9.08008 20.4804C9.08008 21.2004 9.94008 21.5404 10.3801 21.6004C11.3401 21.0804 12.5401 20.8204 13.1401 20.8204C16.4801 21.0404 20.1801 24.8604 21.6001 27.4404C22.7601 29.5004 21.1201 30.4004 20.1801 30.5804Z" fill="#80E690"/>
<path d="M27.7793 11.2598C27.6793 10.6998 27.6993 9.61977 28.5793 9.61977C29.4593 9.61977 29.8393 8.95977 29.8993 8.63977L30.2793 7.75977C32.0193 9.83977 33.2393 12.3598 33.7393 15.1198C33.6793 15.0598 33.5993 14.9998 33.5393 14.9598C33.4193 14.9598 32.9593 14.7198 32.2193 13.7598C31.3193 12.5598 30.3993 13.7598 30.3993 14.0998C30.3993 14.4198 29.8993 14.9598 28.5793 14.9598C27.5393 14.9598 27.9393 14.1598 28.2793 13.7598C29.1793 13.9398 29.7393 13.3198 29.8993 12.9998C28.7593 12.4798 28.8793 11.6198 29.0993 11.2598C28.4393 11.8598 27.9393 11.4998 27.7793 11.2598Z" fill="#80E690"/>
<path d="M34 18C34 20.74 33.3 23.32 32.1 25.56C31.92 25.28 31.82 24.92 31.82 24.46C31.82 22.82 30.6 23.26 29.9 23.48C27.72 24.6 26.62 23.22 26.36 22.38C26.08 21.76 25.7 20.16 26.36 18.68C27 17.18 27.9 16.46 28.28 16.28C28.66 16.28 29.64 16.1 30.6 15.4C31.58 14.7 32.1 15.26 32.22 15.62C32.36 15.88 32.82 16.3 33.54 15.94C33.68 15.88 33.78 15.8 33.84 15.74C33.94 16.48 34 17.24 34 18Z" fill="#80E690"/>
<path d="M27.4796 5.12L27.2396 5.54C27.1996 6.14 26.1996 7.36 22.5396 7.36C22.1996 8 21.2396 9.22 20.1196 8.96C19.8196 8.9 19.2796 8.48 19.4796 7.36C19.7396 6.74 19.9796 5.54 18.8596 5.54C17.7396 5.54 16.7796 5.34 16.4396 5.24C16.0196 5.06 15.1396 4.9 15.0396 5.54C14.9396 6.18 15.3396 6.42 15.5396 6.44C16.0996 6.66 16.8796 7.14 16.6196 7.7C16.5396 7.88 16.3596 8.08 16.0596 8.26C15.8996 8.38 15.5596 8.42 15.1596 8.12C14.9196 7.94 14.6596 7.64 14.3996 7.16C14.0996 7.2 13.6596 7.2 13.2996 7.08H13.2796C12.9796 6.96 12.7596 6.78 12.7596 6.44C12.7596 6.02 13.3196 5.7 13.7396 5.4C14.2596 5.02 14.6196 4.66 13.6396 4.22C13.3396 3.96 12.3196 3.5 10.5996 3.82C12.7996 2.66 15.3196 2 17.9996 2C21.5396 2 24.8196 3.16 27.4796 5.12Z" fill="#80E690"/>
</svg>
