<svg width="28" height="28" viewBox="0 0 28 28" fill="none" xmlns="http://www.w3.org/2000/svg">
<path d="M19.9488 13.299C19.6426 10.9365 17.9801 9.01152 15.7926 8.31152C14.5238 7.91777 14.4363 6.78027 14.4363 6.78027V12.074C14.4363 12.074 14.4363 12.074 14.4801 12.074C14.5238 12.074 14.5676 12.1178 14.6113 12.1178C14.6551 12.1178 14.6988 12.1615 14.7426 12.1615C14.7426 12.1615 14.7426 12.1615 14.7863 12.1615C14.8301 12.1615 14.8738 12.2053 14.9176 12.2053C14.9613 12.2053 15.0051 12.249 15.0488 12.249C15.0926 12.2928 15.1363 12.2928 15.1801 12.3365C15.2238 12.3803 15.2676 12.3803 15.2676 12.424C15.3113 12.4678 15.3551 12.4678 15.3551 12.5115C15.3988 12.5553 15.4426 12.599 15.4426 12.599C15.6176 12.774 15.7488 12.9928 15.8363 13.2115C15.9238 13.4303 15.9676 13.6928 15.9676 13.9553C15.9676 14.9178 15.3113 15.7053 14.3926 15.924V19.599C17.2801 19.3803 19.5988 16.9303 19.5988 13.999C19.5988 13.7365 19.5988 13.474 19.5551 13.2553H19.9488V13.299Z" fill="currentColor"/>
<path d="M8.18164 14.7873C8.48789 17.1498 10.1504 19.0748 12.3379 19.7748C13.6066 20.1686 13.6941 21.3061 13.6941 21.3061V16.0123C13.6941 16.0123 13.6941 16.0123 13.6504 16.0123C13.6066 16.0123 13.5629 15.9686 13.5191 15.9686C13.4754 15.9686 13.4316 15.9248 13.3879 15.9248C13.3879 15.9248 13.3879 15.9248 13.3441 15.9248C13.3004 15.9248 13.2566 15.8811 13.2129 15.8811C13.1691 15.8811 13.1254 15.8373 13.0816 15.8373C13.0379 15.7936 12.9941 15.7936 12.9504 15.7498C12.9066 15.7061 12.8629 15.7061 12.8629 15.6623C12.8191 15.6186 12.7754 15.6186 12.7754 15.5748C12.7316 15.5311 12.6879 15.4873 12.6879 15.4873C12.5129 15.3123 12.3816 15.0936 12.2941 14.8748C12.2066 14.6561 12.1629 14.3936 12.1629 14.1311C12.1629 13.1686 12.8191 12.3811 13.7379 12.1623V8.4873C10.8504 8.70605 8.53164 11.1561 8.53164 14.0873C8.53164 14.3498 8.53164 14.6123 8.57539 14.8311H8.18164V14.7873Z" fill="currentColor"/>
<path d="M26.6438 11.5064C26.6 11.2439 26.5562 11.0252 26.4688 10.8064C25.2437 4.68144 28 1.35645 28 1.35645L20.7375 8.5752C21.9625 10.0627 22.6625 11.9439 22.6625 14.0439C22.6625 18.8127 18.7688 22.7064 14 22.7064C11.9 22.7064 9.975 21.9627 8.4875 20.7377L5.46875 23.7564C7.74375 25.7689 10.7188 26.9939 14 26.9939C16.8875 26.9939 19.5562 26.0314 21.7 24.4564L21.2625 24.0189C22.3125 23.2752 23.1875 22.3564 23.975 21.3064L24.5 21.6127C26.0312 19.4689 26.95 16.8877 26.95 14.0439C26.9062 13.1689 26.8188 12.3377 26.6438 11.5064Z" fill="currentColor"/>
<path d="M1.35625 16.4934C1.4 16.7559 1.44375 16.9746 1.53125 17.1934C2.75625 23.3184 0 26.6434 0 26.6434L7.2625 19.4246C6.0375 17.9371 5.3375 16.0559 5.3375 13.9559C5.3375 9.18711 9.23125 5.29336 14 5.29336C16.1 5.29336 18.025 6.03711 19.5125 7.26211L22.5312 4.24336C20.2563 2.23086 17.2812 1.00586 14 1.00586C11.1125 1.00586 8.44375 1.96836 6.3 3.54336L6.7375 3.98086C5.6875 4.76836 4.8125 5.68711 4.025 6.73711L3.5 6.43086C1.96875 8.57461 1.05 11.1559 1.05 13.9996C1.09375 14.8309 1.18125 15.6621 1.35625 16.4934Z" fill="currentColor"/>
</svg>
