<svg width="28" height="28" viewBox="0 0 28 28" fill="none" xmlns="http://www.w3.org/2000/svg">
<path d="M28 0.000976562H24.9198L14.2441 21.6673C12.6157 21.9771 10.743 22.1547 8.82843 22.1547C5.87949 22.1547 3.02856 21.7338 0.332521 20.9489L0.546909 21.0023C0.200388 21.8668 0 22.8697 0 23.9188C0 24.968 0.200388 25.9708 0.56616 26.8905L0.546909 26.8363C3.08719 27.5739 6.0055 27.9984 9.02356 27.9984C12.0416 27.9984 14.9591 27.5739 17.7225 26.782L17.5002 26.8363C17.7032 26.0636 17.8205 25.1772 17.8205 24.2636C17.8205 23.3501 17.7041 22.4628 17.4845 21.6183L17.5002 21.691L28 0.000976562ZM4.66579 25.3189C3.91937 25.2026 3.18432 25.0739 2.44928 24.9103C2.38015 24.5865 2.33815 24.212 2.3329 23.8296V23.8252C3.11432 23.9888 3.88437 24.1052 4.66667 24.2102L4.66579 25.3189ZM10.4989 25.669C10.0089 25.669 9.51884 25.669 9.02881 25.669C8.3524 25.669 7.66373 25.669 6.98731 25.5876V24.5025C7.61735 24.5025 8.25877 24.5611 8.90106 24.5611C9.43746 24.5611 9.97475 24.5611 10.4998 24.5611L10.4989 25.669ZM15.4578 24.9925C14.5828 25.1912 13.7077 25.3312 12.8327 25.4476V24.2811C13.7077 24.1647 14.5942 24.0361 15.4815 23.8497C15.4885 23.9678 15.492 24.1061 15.492 24.2452C15.492 24.492 15.4797 24.7361 15.4552 24.9768L15.4578 24.9462V24.9925Z" fill="currentColor"/>
<path d="M9.62343 15.7869C10.8529 15.0676 11.6658 13.7541 11.6658 12.2499C11.6658 9.99488 9.83782 8.16602 7.58193 8.16602C5.32604 8.16602 3.49805 9.994 3.49805 12.2499C3.49805 13.0024 3.70193 13.7069 4.05633 14.3124L4.04583 14.2931C4.76513 15.5217 6.07858 16.3338 7.58105 16.3338C8.33272 16.3338 9.03714 16.1308 9.64181 15.7764L9.62255 15.7869H9.62343Z" fill="currentColor"/>
</svg>
