<svg width="36" height="36" viewBox="0 0 36 36" fill="none" xmlns="http://www.w3.org/2000/svg">
<path d="M26.7992 17.0496C26.4492 14.3496 24.5492 12.1496 22.0492 11.3496C20.5992 10.8996 20.4992 9.59961 20.4992 9.59961V15.6496C20.4992 15.6496 20.4992 15.6496 20.5492 15.6496C20.5992 15.6496 20.6492 15.6996 20.6992 15.6996C20.7492 15.6996 20.7992 15.7496 20.8492 15.7496C20.8492 15.7496 20.8492 15.7496 20.8992 15.7496C20.9492 15.7496 20.9992 15.7996 21.0492 15.7996C21.0992 15.7996 21.1492 15.8496 21.1992 15.8496C21.2492 15.8996 21.2992 15.8996 21.3492 15.9496C21.3992 15.9996 21.4492 15.9996 21.4492 16.0496C21.4992 16.0996 21.5492 16.0996 21.5492 16.1496C21.5992 16.1996 21.6492 16.2496 21.6492 16.2496C21.8492 16.4496 21.9992 16.6996 22.0992 16.9496C22.1992 17.1996 22.2492 17.4996 22.2492 17.7996C22.2492 18.8996 21.4992 19.7996 20.4492 20.0496V24.2496C23.7492 23.9996 26.3992 21.1996 26.3992 17.8496C26.3992 17.5496 26.3992 17.2496 26.3492 16.9996H26.7992V17.0496Z" fill="#B1BAD3"/>
<path d="M13.3496 18.7498C13.6996 21.4498 15.5996 23.6498 18.0996 24.4498C19.5496 24.8998 19.6496 26.1998 19.6496 26.1998V20.1498C19.6496 20.1498 19.6496 20.1498 19.5996 20.1498C19.5496 20.1498 19.4996 20.0998 19.4496 20.0998C19.3996 20.0998 19.3496 20.0498 19.2996 20.0498C19.2996 20.0498 19.2996 20.0498 19.2496 20.0498C19.1996 20.0498 19.1496 19.9998 19.0996 19.9998C19.0496 19.9998 18.9996 19.9498 18.9496 19.9498C18.8996 19.8998 18.8496 19.8998 18.7996 19.8498C18.7496 19.7998 18.6996 19.7998 18.6996 19.7498C18.6496 19.6998 18.5996 19.6998 18.5996 19.6498C18.5496 19.5998 18.4996 19.5498 18.4996 19.5498C18.2996 19.3498 18.1496 19.0998 18.0496 18.8498C17.9496 18.5998 17.8996 18.2998 17.8996 17.9998C17.8996 16.8998 18.6496 15.9998 19.6996 15.7498V11.5498C16.3996 11.7998 13.7496 14.5998 13.7496 17.9498C13.7496 18.2498 13.7496 18.5498 13.7996 18.7998H13.3496V18.7498Z" fill="#B1BAD3"/>
<path d="M34.45 15.0004C34.4 14.7004 34.35 14.4504 34.25 14.2004C32.85 7.20039 36 3.40039 36 3.40039L27.7 11.6504C29.1 13.3504 29.9 15.5004 29.9 17.9004C29.9 23.3504 25.45 27.8004 20 27.8004C17.6 27.8004 15.4 26.9504 13.7 25.5504L10.25 29.0004C12.85 31.3004 16.25 32.7004 20 32.7004C23.3 32.7004 26.35 31.6004 28.8 29.8004L28.3 29.3004C29.5 28.4504 30.5 27.4004 31.4 26.2004L32 26.5504C33.75 24.1004 34.8 21.1504 34.8 17.9004C34.75 16.9004 34.65 15.9504 34.45 15.0004Z" fill="#B1BAD3"/>
<path d="M5.55 20.7C5.6 21 5.65 21.25 5.75 21.5C7.15 28.5 4 32.3 4 32.3L12.3 24.05C10.9 22.35 10.1 20.2 10.1 17.8C10.1 12.35 14.55 7.9 20 7.9C22.4 7.9 24.6 8.75 26.3 10.15L29.75 6.7C27.15 4.4 23.75 3 20 3C16.7 3 13.65 4.1 11.2 5.9L11.7 6.4C10.5 7.3 9.5 8.35 8.6 9.55L8 9.2C6.25 11.65 5.2 14.6 5.2 17.85C5.25 18.8 5.35 19.75 5.55 20.7Z" fill="#B1BAD3"/>
</svg>
