<svg width="28" height="28" viewBox="0 0 28 28" fill="none" xmlns="http://www.w3.org/2000/svg">
<path d="M6.67208 5.60945C7.57376 5.07859 8.16934 4.11307 8.16934 3.0085C8.16934 1.34683 6.82251 0 5.16084 0C3.49917 0 2.15234 1.34683 2.15234 3.0085C2.15234 3.56297 2.30189 4.08158 2.56339 4.52761L2.55552 4.51362C3.0855 5.41879 4.05277 6.01699 5.16084 6.01699C5.71794 6.01699 6.23918 5.86569 6.68608 5.60245L6.67208 5.60945Z" fill="currentColor"/>
<path d="M8.29147 9.20195L2.54297 12.4903L4.2335 15.4288L23.6138 4.23443L21.9233 1.2959L14.1222 5.82001C13.5668 4.66821 12.408 3.88723 11.0665 3.88723C9.19839 3.88723 7.68452 5.4011 7.68452 7.26916C7.68452 7.99243 7.91191 8.66322 8.29847 9.21244L8.29147 9.20195Z" fill="currentColor"/>
<path d="M25.6664 13.2473L14.3435 19.8126L12.7457 17.049L15.6728 15.3585C16.7013 14.7655 17.3817 13.6723 17.3817 12.4191C17.3817 11.7824 17.2059 11.1868 16.8998 10.6787L16.9086 10.6936L11.0779 14.0755C10.0468 14.6711 9.36459 15.7678 9.36459 17.0237C9.36459 17.656 9.53776 18.2481 9.83948 18.7553L9.83074 18.7396L11.4286 21.5032L6.54238 24.2904C6.22317 24.4793 5.83836 24.5913 5.42819 24.5913C4.61309 24.5913 3.9012 24.1514 3.51639 23.4963L3.51115 23.4858L0.583984 25.1763C1.56962 26.8756 3.37996 28.0003 5.45268 28.0003C6.49953 28.0003 7.47904 27.7134 8.31774 27.2141L8.29238 27.2281L27.4164 16.185L25.6664 13.2473Z" fill="currentColor"/>
</svg>
