<svg width="36" height="36" viewBox="0 0 36 36" fill="none" xmlns="http://www.w3.org/2000/svg">
<path d="M13.0058 31.162C12.6588 31.082 12.4458 30.842 12.2328 30.575C9.36578 27.002 6.49978 23.428 3.63278 19.855C3.20578 19.322 2.79278 18.788 2.36578 18.255C2.12578 17.948 2.00578 17.615 2.00578 17.202C2.00578 13.269 2.00578 9.33499 2.00578 5.38899C2.00578 5.32199 1.99278 5.25599 2.00578 5.20199C2.03278 5.12199 2.07278 5.01499 2.12578 5.00199C2.19278 4.98899 2.28578 5.04199 2.33878 5.09499C2.39178 5.13499 2.43178 5.20199 2.47178 5.25499C7.63178 11.722 12.7918 18.202 17.9518 24.682C19.5518 26.695 21.1388 28.722 22.7388 30.735C22.8318 30.855 22.8988 31.015 22.9788 31.148H12.9918L13.0058 31.162Z" fill="#B1BAD3"/>
<path d="M34.0049 5.04228V5.41528C34.0049 9.29528 34.0049 13.1623 34.0049 17.0423C34.0049 17.4553 33.8719 17.8023 33.6319 18.1223C32.6719 19.3493 31.6989 20.5893 30.7249 21.8023C30.4979 22.0953 30.1919 22.2553 29.8049 22.2553C26.6849 22.2553 23.5649 22.2553 20.4319 22.2553C20.3389 22.2553 20.2319 22.2023 20.1649 22.1483C20.1379 22.1213 20.1779 21.9753 20.2319 21.9083C20.6449 21.4153 21.0589 20.9213 21.4719 20.4283C24.2719 16.9213 27.0719 13.4283 29.8589 9.92128C31.0719 8.38828 32.2719 6.85428 33.4719 5.30828C33.5919 5.14828 33.6719 4.92128 33.9919 5.05528L34.0049 5.04228Z" fill="#B1BAD3"/>
</svg>
