<svg width="36" height="36" viewBox="0 0 36 36" fill="none" xmlns="http://www.w3.org/2000/svg">
<path d="M23.6413 25.2544C22.2223 26.0704 21.2812 27.5784 21.2812 29.3064C21.2812 31.8794 23.3672 33.9644 25.9392 33.9644C28.5112 33.9644 30.5972 31.8784 30.5972 29.3064C30.5972 28.4414 30.3613 27.6314 29.9503 26.9364L29.9622 26.9584C29.1392 25.5664 27.6462 24.6484 25.9392 24.6484C25.0942 24.6484 24.3012 24.8734 23.6182 25.2674L23.6413 25.2544Z" fill="#B1BAD3"/>
<path d="M33.53 5.369L30.589 2.428C30.345 2.164 29.997 2 29.611 2C29.225 2 28.877 2.165 28.634 2.428L28.633 2.429L28.141 2.908L28.993 5.011L21.007 12.158L12.928 17.615L2.839 27.717C2.321 28.225 2 28.932 2 29.714C2 30.496 2.321 31.203 2.838 31.71L4.289 33.161C4.797 33.679 5.504 34 6.285 34C7.066 34 7.774 33.679 8.281 33.162L18.383 23.06L23.84 14.994L30.987 7.008L33.077 7.86L33.53 7.328C33.794 7.084 33.958 6.736 33.958 6.35C33.958 5.964 33.793 5.616 33.53 5.373L33.529 5.372L33.53 5.369Z" fill="#B1BAD3"/>
</svg>
