<svg width="28" height="28" viewBox="0 0 28 28" fill="none" xmlns="http://www.w3.org/2000/svg">
<path d="M6.42803 24.4999H23.3336V25.6663C23.3336 26.9552 22.2888 28 20.9999 28H8.76086C7.47194 28 6.42716 26.9552 6.42716 25.6663L6.42803 24.4999ZM25.6664 8.16576V15.166L23.3327 22.1662H6.42716L2.33203 15.166V6.99934C2.38103 6.34395 2.9253 5.83031 3.58857 5.83031C3.61395 5.83031 3.6402 5.83118 3.66557 5.83293H3.66207H5.83214V4.66652C5.83214 2.73359 7.39931 1.16641 9.33225 1.16641H12.576C13.2156 0.453264 14.1379 0.00525016 15.1652 0H16.3333C17.3615 0.00525016 18.2838 0.454139 18.9208 1.16379L18.9234 1.16729H22.1671C24.1001 1.16729 25.6673 2.73446 25.6673 4.6674V8.16751L25.6664 8.16576ZM8.16584 5.83293H11.6659V3.49923H9.33225C8.68823 3.49923 8.16584 4.02163 8.16584 4.66565V5.83293ZM11.6659 8.16576H4.66573V10.4995H9.33225C10.6212 10.4995 11.6659 9.45467 11.6659 8.16576ZM17.4998 3.49923C17.4998 2.85521 16.9774 2.33282 16.3333 2.33282H15.1669C14.5229 2.33282 14.0005 2.85521 14.0005 3.49923V10.4995C14.0005 11.1435 14.5229 11.6659 15.1669 11.6659H16.3333C16.9774 11.6659 17.4998 11.1435 17.4998 10.4995V3.49923ZM23.3336 4.66565C23.3336 4.02163 22.8112 3.49923 22.1671 3.49923H19.8335V10.4995C19.83 10.9186 19.753 11.3194 19.6156 11.6904L19.6234 11.6659H20.9999C22.2888 11.6659 23.3336 10.6211 23.3336 9.33217V4.66565Z" fill="currentColor"/>
</svg>
