<svg width="28" height="30" viewBox="0 0 28 30" fill="none" xmlns="http://www.w3.org/2000/svg">
<path d="M22.0488 12.375C22.0506 12.3838 22.0523 12.3934 22.0523 12.4039C22.0523 12.4144 22.0515 12.424 22.0488 12.4336V12.375Z" fill="currentColor"/>
<path d="M20.6729 19.0964C21.6102 17.613 22.1668 15.8076 22.1668 13.8719C22.1668 13.3643 22.1283 12.8655 22.0548 12.3789L22.0618 12.434L11.4316 23.0642C11.8491 23.1307 12.3295 23.1692 12.8187 23.1692C12.8231 23.1692 12.8275 23.1692 12.8318 23.1692C12.8353 23.1692 12.838 23.1692 12.8423 23.1692C14.7895 23.1692 16.6054 22.6038 18.1333 21.629L18.094 21.6526L24.4999 29.0036L28.0003 25.5031L20.6729 19.0964Z" fill="currentColor"/>
<path d="M18.2577 4.90776C13.5907 0.240726 6.58966 -0.331604 2.63411 3.6362C-1.32145 7.60401 -0.761369 14.5927 3.90566 19.2598C5.32774 20.6775 7.07098 21.774 9.01638 22.4295L9.11002 22.4566L21.4904 10.1235C20.7964 8.07833 19.6894 6.33158 18.2586 4.90863L18.2577 4.90776ZM5.83093 15.0006C3.89779 15.0006 2.33044 13.4332 2.33044 11.5001C2.33044 9.56691 3.89779 7.99957 5.83093 7.99957C7.76408 7.99957 9.33143 9.56691 9.33143 11.5001C9.33143 13.4332 7.76408 15.0006 5.83093 15.0006Z" fill="currentColor"/>
</svg>
