<svg width="36" height="36" viewBox="0 0 36 36" xmlns="http://www.w3.org/2000/svg">
<path d="M14.333 2.374L1.373 15.334C1.142 14.135 1.006 12.752 1 11.339V11.334C1.004 8.497 1.532 5.785 2.492 3.286L2.44 3.44C4.784 2.532 7.496 2.004 10.332 2H10.334C11.752 2.006 13.135 2.142 14.475 2.396L14.333 2.374ZM32.64 20.668L19.667 33.641C20.868 33.867 22.251 33.998 23.664 34.001H23.667C26.504 33.997 29.216 33.469 31.715 32.509L31.561 32.561C32.469 30.217 32.997 27.505 33.001 24.669V24.667C32.998 23.251 32.867 21.868 32.619 20.526L32.641 20.667L32.64 20.668ZM31.667 17.014L16.014 32.667C9.623 30.328 4.673 25.378 2.385 19.144L2.334 18.987L17.987 3.334C24.378 5.673 29.328 10.623 31.616 16.857L31.667 17.014ZM24.093 18.481C23.85 18.229 23.51 18.073 23.133 18.073C22.756 18.073 22.416 18.229 22.173 18.481L21.253 19.401L19.386 17.548L20.319 16.615C20.559 16.367 20.707 16.028 20.707 15.655C20.707 14.892 20.089 14.274 19.326 14.274C18.936 14.274 18.584 14.435 18.333 14.695L17.399 15.629L15.666 13.762L16.586 12.842C16.833 12.597 16.986 12.257 16.986 11.882C16.986 11.135 16.38 10.529 15.633 10.529C15.261 10.529 14.924 10.679 14.68 10.922L9.92 15.615C9.677 15.86 9.527 16.196 9.527 16.568C9.527 17.315 10.133 17.921 10.88 17.921C11.255 17.921 11.595 17.768 11.84 17.521L12.76 16.668L14.627 18.521L13.707 19.454C13.481 19.694 13.343 20.018 13.343 20.374C13.343 21.116 13.945 21.718 14.687 21.718C15.073 21.718 15.421 21.555 15.666 21.295L15.667 21.294L16.6 20.374L18.453 22.241L17.533 23.161C17.286 23.406 17.133 23.746 17.133 24.121C17.133 24.868 17.739 25.474 18.486 25.474C18.858 25.474 19.195 25.324 19.439 25.081L24.132 20.388C24.364 20.148 24.507 19.821 24.507 19.461C24.507 19.074 24.342 18.726 24.079 18.482L24.078 18.481H24.093Z" />
</svg>
