<svg width="28" height="28" viewBox="0 0 28 28" fill="none" xmlns="http://www.w3.org/2000/svg">
<path d="M27.5445 14.8371C27.3491 14.6818 27.0978 14.5884 26.8256 14.5884C26.7043 14.5884 26.5873 14.6067 26.4774 14.6416L26.4853 14.639C25.412 14.9776 24.1425 15.2472 22.8363 15.3981L22.7394 15.4069C22.6347 14.1853 22.5414 12.9986 22.4602 11.9167C23.5422 11.4865 24.461 11.1602 24.4959 11.1488C22.9959 5.82368 18.1812 1.98535 12.4713 1.98535C5.58342 1.98535 0 7.56877 0 14.4567C0 17.8927 1.38909 21.0042 3.63677 23.2598C9.34933 23.2598 10.6171 25.6793 13.9791 25.6793C17.341 25.6793 19.4586 23.2825 19.4586 21.0261C19.4037 19.8359 19.011 18.7478 18.3758 17.8421L18.3889 17.8613C18.9936 17.8613 19.7614 17.8613 20.634 17.8613C20.7936 20.0916 21.1366 22.1569 21.6522 24.1524L21.599 23.9107C22.2185 25.1663 23.4898 26.0144 24.9583 26.0144C25.0988 26.0144 25.2366 26.0065 25.3736 25.9917L25.3571 25.9935C25.3605 25.9935 25.3658 25.9935 25.3701 25.9935C25.8143 25.9935 26.2479 25.9507 26.6685 25.8704L26.6257 25.8774C27.1423 25.7701 27.5288 25.3321 27.5567 24.7981V24.7954L27.9991 15.8143C28 15.7978 28 15.7794 28 15.7602C28 15.3859 27.8229 15.0526 27.548 14.8397L27.5454 14.838L27.5445 14.8371ZM25.6022 17.2916L25.5089 19.0829C24.8623 19.2059 24.0648 19.3098 23.256 19.3691L23.1827 19.3734C23.1827 18.8499 23.0544 18.2915 22.9968 17.7217C24.0186 17.6048 24.9051 17.4538 25.7759 17.2584L25.6031 17.2907L25.6022 17.2916ZM14.5148 22.9107C13.5445 22.9107 12.7584 22.1246 12.7584 21.1543C12.7584 20.184 13.5445 19.3979 14.5148 19.3979C15.4851 19.3979 16.2712 20.184 16.2712 21.1543C16.2712 22.1246 15.4851 22.9107 14.5148 22.9107ZM17.8654 15.4531C18.0512 14.6626 18.4858 13.9933 19.08 13.5152L19.0869 13.5099C19.4229 13.2709 19.8059 13.0597 20.2125 12.8948L20.25 12.8817C20.25 13.6146 20.3783 14.5221 20.4595 15.5342C20.298 15.5377 20.1078 15.5404 19.9167 15.5404C19.1943 15.5404 18.4797 15.5089 17.7738 15.4461L17.8654 15.4531ZM25.2881 23.655C24.6712 23.655 23.9505 23.5268 23.776 23.0617C23.6399 22.6621 23.5299 22.19 23.4662 21.704L23.4619 21.6656C24.009 21.6656 24.625 21.5496 25.3928 21.4449L25.2881 23.655Z" fill="currentColor"/>
</svg>
