<svg width="28" height="28" viewBox="0 0 28 28" fill="none" xmlns="http://www.w3.org/2000/svg">
<path d="M9.91692 18.7026C9.91692 20.3135 8.61138 21.6191 7.00045 21.6191C5.38953 21.6191 4.08398 20.3135 4.08398 18.7026C4.08398 17.0917 5.38953 15.7861 7.00045 15.7861C8.61138 15.7861 9.91692 17.0917 9.91692 18.7026Z" fill="currentColor"/>
<path d="M23.9189 18.7026C23.9189 20.3135 22.6133 21.6191 21.0024 21.6191C19.3915 21.6191 18.0859 20.3135 18.0859 18.7026C18.0859 17.0917 19.3915 15.7861 21.0024 15.7861C22.6133 15.7861 23.9189 17.0917 23.9189 18.7026Z" fill="currentColor"/>
<path d="M27.2317 13.4993C26.9867 12.0748 25.9078 10.9565 24.5244 10.6563L24.5016 10.652L21.0015 9.95195L18.6678 7.61825L8.16751 6.38184L3.76874 8.64553L0 6.61547V9.26418L1.16641 9.8942V12.2279L0 14.5616V18.0617H2.39145C2.75896 15.8199 4.68227 14.1302 7.00022 14.1302C9.31817 14.1302 11.2406 15.8199 11.6046 18.0346L11.6081 18.0617H16.3919C16.7594 15.8199 18.6827 14.1302 21.0007 14.1302C23.3186 14.1302 25.241 15.8199 25.6051 18.0346L25.6085 18.0617H28L27.2317 13.4993Z" fill="currentColor"/>
</svg>
