<svg width="28" height="28" viewBox="0 0 28 28" fill="none" xmlns="http://www.w3.org/2000/svg">
<path d="M14 0C6.26762 0 0 6.26762 0 14C0 21.7324 6.26762 28 14 28C21.7324 28 28 21.7324 28 14C28 6.26762 21.7324 0 14 0ZM13.5564 7.96863H19.8328L19.1327 9.74225H16.1228V11.3986H18.5964L17.9077 13.1723H16.1228V16.1122H13.5564V7.96863ZM9.26363 7.96863H11.8073V16.135H9.26363V7.96863ZM2.26362 7.96863H8.48225L7.81725 9.74225H4.80725V11.3986H7.28088L6.59225 13.1723H4.80725V16.1122H2.22862L2.26362 7.96863ZM24.43 20.0314H3.66362V18.095H24.3372L24.43 20.0314ZM24.2664 15.0036H21.3264L21 16.1H18.5614L21.4664 7.93363H24.1027L27.0541 16.1H24.4991L24.2664 15.0036Z" fill="currentColor"/>
<path d="M21.875 13.895H23.87L22.855 10.5L21.875 13.895Z" fill="currentColor"/>
</svg>
