<svg width="36" height="36" viewBox="0 0 36 36" fill="none" xmlns="http://www.w3.org/2000/svg">
<path d="M32 5.056V3.556C32 3.135 31.66 2.794 31.24 2.791H28.19C28.164 2.79 28.134 2.79 28.104 2.79C27.865 2.79 27.632 2.82 27.41 2.875L27.43 2.871V2.766C27.43 2.346 27.09 2.006 26.67 2.006C26.668 2.006 26.667 2.006 26.665 2.006H22.095C22.05 2.002 21.997 2 21.944 2C21.006 2 20.219 2.646 20.003 3.517L20 3.531H19.395C19.219 3.321 19.097 3.061 19.051 2.775L19.05 2.766C19.047 2.346 18.706 2.006 18.285 2.006H12.95C12.558 2.009 12.237 2.306 12.195 2.688V2.691C12.195 2.851 11.855 3.531 11.35 3.531H9.26C9.19 3.442 9.129 3.339 9.083 3.23L9.08 3.221C8.957 2.951 8.69 2.767 8.38 2.766H0.76C0.34 2.769 0 3.11 0 3.531V9.626C0.077 11.587 0.35 13.445 0.8 15.233L0.76 15.046V16.201L0.26 16.701C0.106 16.835 0.008 17.028 0 17.245V20.291C0 20.292 0 20.293 0 20.293C0 20.503 0.086 20.694 0.225 20.831L0.76 21.371V24.741L0.04 26.906C0.021 26.97 0.01 27.044 0.01 27.121C0.01 27.198 0.021 27.272 0.041 27.342L0.04 27.336L0.745 30.166L0.04 32.241C0.015 32.313 0.001 32.395 0.001 32.481C0.001 32.9 0.341 33.24 0.76 33.241H11.43C11.641 33.239 11.831 33.149 11.965 33.006L12.035 32.936C12.388 33.528 12.998 33.935 13.706 34.005L13.715 34.006H16C16.558 33.97 17.07 33.804 17.515 33.538L17.5 33.547C17.73 33.404 17.999 33.299 18.286 33.249L18.3 33.247H22.11C22.318 33.239 22.503 33.149 22.635 33.007L22.82 32.822L22.96 33.002C23.33 33.502 23.72 34.002 24.38 34.002H28.19C28.61 34.002 28.95 33.662 28.95 33.242V32.692L31.055 33.192C31.111 33.207 31.175 33.215 31.241 33.215C31.419 33.215 31.582 33.153 31.711 33.051L31.709 33.052C31.88 32.915 31.99 32.71 31.999 32.478C31.999 32.403 31.949 24.927 31.999 21.062C31.999 21.059 31.999 21.055 31.999 21.051C31.999 20.839 31.913 20.646 31.774 20.507L31.239 19.967V16.507C31.239 16.503 31.239 16.499 31.239 16.495C31.239 16.279 31.147 16.084 30.999 15.948L30.624 15.573L31.084 14.648L31.759 13.978C31.903 13.842 31.994 13.651 31.999 13.439V9.618C32.002 9.591 32.004 9.56 32.004 9.528C32.004 9.496 32.002 9.465 31.998 9.434V9.438L31.283 6.668L31.918 5.398C31.968 5.301 31.998 5.185 31.998 5.063C31.998 5.061 31.998 5.059 31.998 5.057L32 5.056ZM22.925 8.101L25.245 9.626L24.47 14.196L18.285 9.626L22.925 8.101ZM8.38 27.911L5.335 25.626L6.835 20.291L12.95 26.386L8.38 27.911ZM24.535 27.151H21L5.335 8.806L8.18 8.101L26.68 22.211L24.535 27.151Z" fill="#B1BAD3"/>
</svg>
