<svg width="29" height="28" viewBox="0 0 29 28" fill="none" xmlns="http://www.w3.org/2000/svg">
<path d="M3.33113 2.83842V4.83598H8.96197C8.96197 4.83598 8.83318 6.29647 8.83318 6.77484C8.83318 6.9965 9.27737 9.12285 9.75574 11.3894V2.83842C9.84948 2.52302 10.0475 2.23127 10.2814 1.9623C10.5153 2.24266 10.7019 2.52302 10.8071 2.83842V16.2019C10.9236 16.739 10.9937 17.078 10.9937 17.078L14.0189 6.02751L17.0442 17.078C17.0442 17.078 17.1143 16.739 17.2308 16.2019V2.83842C17.3246 2.52302 17.5226 2.23127 17.7565 1.9623C17.9904 2.24266 18.177 2.52302 18.2822 2.83842V11.3894C18.7614 9.12285 19.2047 6.99737 19.2047 6.77484C19.2047 6.28421 19.0759 4.83598 19.0759 4.83598H24.7068V2.83842C25.2088 1.19131 28.001 0.0234375 28.001 0.0234375H0.0351562C0.0351562 0.0234375 2.82736 1.19131 3.32938 2.83842H3.33113Z" fill="currentColor"/>
<path d="M24.6961 25.3375V4.84766C24.6961 4.84766 23.2707 5.70012 22.3595 9.94056C21.4597 14.181 19.7548 21.3065 19.7548 21.3065C19.7548 21.3065 20.0588 22.7784 20.701 23.0473H18.2593V25.3367C18.2593 25.3367 18.049 25.5706 17.7336 25.8737C17.4296 25.5583 17.2079 25.3367 17.2079 25.3367V23.0473H14.661C14.661 23.0473 15.2682 21.7507 15.093 21.1549C14.9177 20.5592 13.9952 16.0033 13.9952 16.0033C13.9952 16.0033 13.0726 20.5592 12.8974 21.1549C12.7222 21.7507 13.3293 23.0473 13.3293 23.0473H10.7824V25.3367C10.7824 25.3367 10.5722 25.5706 10.2568 25.8737C9.95275 25.5583 9.73109 25.3367 9.73109 25.3367V23.0473H7.28934C7.93154 22.7784 8.23555 21.3065 8.23555 21.3065C8.23555 21.3065 6.52974 14.1924 5.63084 9.94056C4.73106 5.70012 3.30649 4.84766 3.29422 4.84766V25.3375C3.29422 25.3375 1.08639 27.7556 0 27.9773H27.9544C26.868 27.767 24.6602 25.3375 24.6602 25.3375H24.6961Z" fill="currentColor"/>
</svg>
