<svg width="36" height="36" viewBox="0 0 36 36" fill="none" xmlns="http://www.w3.org/2000/svg">
<path d="M7.31 31.3454C7.31 32.8114 6.121 34.0004 4.655 34.0004C3.189 34.0004 2 32.8114 2 31.3454C2 29.8794 3.189 28.6904 4.655 28.6904C6.121 28.6904 7.31 29.8794 7.31 31.3454Z" fill="#B1BAD3"/>
<path d="M13.9799 31.3454C13.9799 32.8114 12.7909 34.0004 11.3249 34.0004C9.85892 34.0004 8.66992 32.8114 8.66992 31.3454C8.66992 29.8794 9.85892 28.6904 11.3249 28.6904C12.7909 28.6904 13.9799 29.8794 13.9799 31.3454Z" fill="#B1BAD3"/>
<path d="M20.6557 31.3454C20.6557 32.8114 19.4667 34.0004 18.0007 34.0004C16.5347 34.0004 15.3457 32.8114 15.3457 31.3454C15.3457 29.8794 16.5347 28.6904 18.0007 28.6904C19.4667 28.6904 20.6557 29.8794 20.6557 31.3454Z" fill="#B1BAD3"/>
<path d="M27.3295 31.3454C27.3295 32.8114 26.1405 34.0004 24.6745 34.0004C23.2085 34.0004 22.0195 32.8114 22.0195 31.3454C22.0195 29.8794 23.2085 28.6904 24.6745 28.6904C26.1405 28.6904 27.3295 29.8794 27.3295 31.3454Z" fill="#B1BAD3"/>
<path d="M33.9995 31.3454C33.9995 32.8114 32.8105 34.0004 31.3445 34.0004C29.8785 34.0004 28.6895 32.8114 28.6895 31.3454C28.6895 29.8794 29.8785 28.6904 31.3445 28.6904C32.8105 28.6904 33.9995 29.8794 33.9995 31.3454Z" fill="#B1BAD3"/>
<path d="M10.6459 24.6745C10.6459 26.1405 9.45694 27.3295 7.99094 27.3295C6.52494 27.3295 5.33594 26.1405 5.33594 24.6745C5.33594 23.2085 6.52494 22.0195 7.99094 22.0195C9.45694 22.0195 10.6459 23.2085 10.6459 24.6745Z" fill="#B1BAD3"/>
<path d="M17.3198 24.6745C17.3198 26.1405 16.1308 27.3295 14.6648 27.3295C13.1988 27.3295 12.0098 26.1405 12.0098 24.6745C12.0098 23.2085 13.1988 22.0195 14.6648 22.0195C16.1308 22.0195 17.3198 23.2085 17.3198 24.6745Z" fill="#B1BAD3"/>
<path d="M23.9897 24.6745C23.9897 26.1405 22.8007 27.3295 21.3347 27.3295C19.8687 27.3295 18.6797 26.1405 18.6797 24.6745C18.6797 23.2085 19.8687 22.0195 21.3347 22.0195C22.8007 22.0195 23.9897 23.2085 23.9897 24.6745Z" fill="#B1BAD3"/>
<path d="M30.6655 24.6745C30.6655 26.1405 29.4765 27.3295 28.0105 27.3295C26.5445 27.3295 25.3555 26.1405 25.3555 24.6745C25.3555 23.2085 26.5445 22.0195 28.0105 22.0195C29.4765 22.0195 30.6655 23.2085 30.6655 24.6745Z" fill="#B1BAD3"/>
<path d="M13.9799 17.9997C13.9799 19.4657 12.7909 20.6547 11.3249 20.6547C9.85892 20.6547 8.66992 19.4657 8.66992 17.9997C8.66992 16.5337 9.85892 15.3447 11.3249 15.3447C12.7909 15.3447 13.9799 16.5337 13.9799 17.9997Z" fill="#B1BAD3"/>
<path d="M20.6557 17.9997C20.6557 19.4657 19.4667 20.6547 18.0007 20.6547C16.5347 20.6547 15.3457 19.4657 15.3457 17.9997C15.3457 16.5337 16.5347 15.3447 18.0007 15.3447C19.4667 15.3447 20.6557 16.5337 20.6557 17.9997Z" fill="#B1BAD3"/>
<path d="M27.3295 17.9997C27.3295 19.4657 26.1405 20.6547 24.6745 20.6547C23.2085 20.6547 22.0195 19.4657 22.0195 17.9997C22.0195 16.5337 23.2085 15.3447 24.6745 15.3447C26.1405 15.3447 27.3295 16.5337 27.3295 17.9997Z" fill="#B1BAD3"/>
<path d="M17.3198 11.3249C17.3198 12.7909 16.1308 13.9799 14.6648 13.9799C13.1988 13.9799 12.0098 12.7909 12.0098 11.3249C12.0098 9.85892 13.1988 8.66992 14.6648 8.66992C16.1308 8.66992 17.3198 9.85892 17.3198 11.3249Z" fill="#B1BAD3"/>
<path d="M23.9897 11.3249C23.9897 12.7909 22.8007 13.9799 21.3347 13.9799C19.8687 13.9799 18.6797 12.7909 18.6797 11.3249C18.6797 9.85892 19.8687 8.66992 21.3347 8.66992C22.8007 8.66992 23.9897 9.85892 23.9897 11.3249Z" fill="#B1BAD3"/>
<path d="M20.6557 4.655C20.6557 6.121 19.4667 7.31 18.0007 7.31C16.5347 7.31 15.3457 6.121 15.3457 4.655C15.3457 3.189 16.5347 2 18.0007 2C19.4667 2 20.6557 3.189 20.6557 4.655Z" fill="#B1BAD3"/>
</svg>
