<svg width="28" height="28" viewBox="0 0 28 28" fill="none" xmlns="http://www.w3.org/2000/svg">
<path d="M0.0614215 9.32847C0.236369 8.97857 0.424437 8.63305 0.595011 8.27441C1.46975 6.3806 2.36635 4.48242 3.27171 2.53613L6.47325 9.38095H4.52696C4.49022 9.17014 4.43948 8.9847 4.37475 8.80625L4.38262 8.82987C3.98025 7.91139 3.55162 7.00167 3.10551 6.01759L2.55442 7.18099C2.81247 7.33407 3.1405 7.07165 3.31982 7.35594C3.43441 7.558 3.55862 7.8108 3.67059 8.0706L3.69158 8.12571C3.2236 8.12571 2.7906 8.12571 2.37948 8.12571C2.36286 8.12221 2.34361 8.12046 2.32437 8.12046C2.18266 8.12046 2.06282 8.2158 2.02521 8.34614L2.02433 8.34789C1.90624 8.68466 1.60883 8.96895 1.74879 9.38883H0.0605469L0.0614215 9.32847Z" fill="currentColor"/>
<path d="M21.8751 9.33738C21.3677 9.33738 20.9041 9.33738 20.4361 9.33738C20.3486 9.33738 20.2437 9.22367 20.1868 9.14057C19.6445 8.34455 19.1153 7.5398 18.5817 6.74379C18.5379 6.67206 18.4837 6.6117 18.4216 6.56096L18.4198 6.56009C18.4636 7.47856 18.258 8.40579 18.5423 9.32863H16.8672V4.51758C17.3527 4.51758 17.825 4.51758 18.2974 4.51758C18.3849 4.51758 18.4811 4.64442 18.5423 4.73626L20.1518 7.12867L20.2962 7.32111V4.52195H21.9975C21.9424 4.80887 21.8996 5.15701 21.8768 5.51041L21.8751 5.53665C21.8751 6.68255 21.8751 7.83283 21.8751 8.97874V9.33738Z" fill="currentColor"/>
<path d="M11.8815 9.5688C11.4048 9.5688 10.9324 9.5688 10.4557 9.5688C10.2843 9.5478 10.1329 9.4717 10.0183 9.35886C9.8434 9.18479 9.69469 8.98447 9.57835 8.76404L9.57223 8.75092C9.20922 8.03801 8.87244 7.3076 8.50068 6.53783C8.81558 6.53783 9.07363 6.53783 9.3273 6.53783C9.85652 6.53783 10.0402 6.34102 10.0621 5.8118C10.0621 5.66747 10.0621 5.52314 10.0621 5.37443H8.35197C8.35197 5.4794 8.35197 5.5625 8.35197 5.6456C8.35197 6.59906 8.35197 7.55253 8.35197 8.50162C8.37996 8.81477 8.43157 9.10081 8.50418 9.37723L8.4963 9.34137H6.7687V9.03083C6.7687 7.8062 6.7687 6.58157 6.7687 5.35694C6.73458 5.04728 6.67598 4.76736 6.59375 4.49707L6.6025 4.53031H11.501C11.4748 5.06827 11.501 5.60186 11.4179 6.12671C11.3357 6.55445 11.0558 6.9026 10.6779 7.07667L10.67 7.08017L10.377 7.22887C10.7706 8.05988 11.1118 8.93024 11.8815 9.5688Z" fill="currentColor"/>
<path d="M12.1348 9.31496V4.50391H16.2766V5.50111C15.45 5.11185 14.5622 5.40489 13.6787 5.28242V6.52018H15.7824C15.6582 6.82458 15.5401 7.06864 15.4115 7.30569L15.4325 7.2637C15.3975 7.32493 15.2663 7.3468 15.1789 7.3468C14.6846 7.3468 14.1904 7.3468 13.6787 7.3468V8.51895C14.5534 8.44022 15.4282 8.67203 16.281 8.34838V9.31059L12.1348 9.31496Z" fill="currentColor"/>
<path d="M25.4393 4.13623C26.0298 5.39585 26.629 6.69921 27.25 7.98945C27.4687 8.45306 27.7486 8.89043 27.9979 9.33654C27.5999 9.33654 27.1232 9.33654 26.6858 9.33654C26.6027 9.33654 26.4934 9.19658 26.4496 9.10036C25.9729 8.09004 25.5049 7.07972 25.0369 6.06502C25.0124 6.02479 24.9879 5.99067 24.9617 5.95831L24.9626 5.96006L24.3065 7.3815C24.5821 7.3815 24.8182 7.3815 25.0544 7.3815C25.0728 7.378 25.0929 7.37538 25.1148 7.37538C25.2556 7.37538 25.3746 7.46898 25.4122 7.59756L25.4131 7.59931C25.483 7.78738 25.5793 7.96233 25.6886 8.19413C25.2206 8.19413 24.7876 8.19413 24.3765 8.19413C24.3389 8.18451 24.2952 8.17839 24.2497 8.17839C23.9934 8.17839 23.7791 8.36296 23.7336 8.60614L23.7327 8.60964C23.6671 8.84581 23.6059 9.07762 23.5315 9.34879H22.0488C22.3112 8.80208 22.5212 8.31222 22.7486 7.79176C23.221 6.77269 23.7065 5.75799 24.1744 4.73017C24.2365 4.58409 24.3704 4.48087 24.5313 4.46338H24.5331C24.897 4.35579 25.1979 4.24382 25.4892 4.11523L25.4384 4.13535L25.4393 4.13623Z" fill="currentColor"/>
<path d="M27.9996 23.4777C27.3873 23.4777 26.8624 23.4777 26.3419 23.4777C26.1679 23.4549 26.0157 23.3718 25.9055 23.2511L25.9046 23.2503C25.7183 23.0709 25.5599 22.8654 25.4348 22.6379L25.4279 22.6248C24.9905 21.7807 24.6012 20.9191 24.1639 20.0006C24.5006 20.0006 24.7805 20.0006 25.0386 20.0006C25.5722 20.0006 25.7646 19.8038 25.7996 19.2658C25.7996 19.1084 25.7996 18.9465 25.7996 18.7629H24.0633C23.8708 19.3839 24.0064 22.568 24.247 22.9572H22.3531V22.6336C22.3531 21.3565 22.3531 20.075 22.3531 18.7978C22.3199 18.4523 22.2604 18.1374 22.1738 17.833L22.1826 17.8706H27.3304C27.3042 18.4917 27.4354 19.1171 27.2298 19.7251C27.0391 20.1992 26.656 20.5613 26.1792 20.7188L26.167 20.7223C26.6569 21.702 26.9849 22.7473 27.9996 23.4777Z" fill="currentColor"/>
<path d="M21.7502 20.402C21.7502 20.4055 21.7502 20.4108 21.7502 20.4152C21.7502 21.9293 20.5221 23.1575 19.0079 23.1575C17.4938 23.1575 16.2656 21.9293 16.2656 20.4152C16.2656 18.9071 17.4833 17.6825 18.9896 17.6729C18.9948 17.6729 19.0018 17.6729 19.0079 17.6729C20.5177 17.6729 21.7424 18.894 21.7502 20.402ZM20.4163 20.3364C20.4163 20.2883 20.4163 20.1659 20.3813 20.0478C20.2842 19.4258 19.8136 18.936 19.21 18.8118L19.2004 18.81C19.1426 18.8013 19.0762 18.796 19.0088 18.796C18.4656 18.796 17.9994 19.1267 17.7999 19.5973L17.7964 19.606C17.6678 19.8431 17.5926 20.1256 17.5926 20.4256C17.5926 20.8202 17.7238 21.1849 17.9442 21.478L17.9407 21.4736C18.1717 21.82 18.5609 22.0448 19.0027 22.0448C19.4059 22.0448 19.7654 21.8567 19.999 21.5637L20.0008 21.5611C20.2606 21.2575 20.4189 20.8604 20.4189 20.4265C20.4189 20.395 20.418 20.3635 20.4163 20.3321V20.3364Z" fill="currentColor"/>
<path d="M9.10056 19.3699L8.39202 20.8919C8.70255 20.8919 8.9606 20.8919 9.22302 20.8919C9.23964 20.8884 9.25889 20.8867 9.27813 20.8867C9.41547 20.8867 9.53181 20.9785 9.56767 21.1036L9.56854 21.1054C9.6429 21.3109 9.75224 21.5077 9.86596 21.7527C9.293 21.7527 8.76379 21.7527 8.2302 21.7527C8.21445 21.75 8.19608 21.7483 8.17771 21.7483C8.02901 21.7483 7.90392 21.8471 7.86368 21.9818L7.86281 21.9845C7.74472 22.2994 7.52166 22.5924 7.69661 22.9598H6.02148C6.45885 21.9757 6.92246 21.0135 7.37295 20.0557C7.67474 19.3996 7.9809 18.7436 8.27831 18.0963C8.33866 17.9484 8.47337 17.8435 8.6352 17.8251H8.63695C8.95623 17.7464 9.26239 17.6195 9.61666 17.4971L10.3908 19.1285C10.8588 20.1213 11.318 21.1185 11.8166 22.1157C11.9566 22.4043 12.1446 22.6668 12.324 22.9642C11.8604 22.9642 11.3705 22.9642 10.885 22.9642C10.8238 22.9642 10.7451 22.8417 10.7057 22.7586C10.2027 21.6871 9.70413 20.6111 9.20116 19.5396L9.10056 19.3699Z" fill="currentColor"/>
<path d="M3.71676 25.4627L2.85077 23.6214C2.07663 21.9376 1.31998 20.2624 0.519594 18.6004C0.357768 18.3144 0.188069 18.0686 0 17.8385L0.00787269 17.8482C0.188069 17.8613 0.39888 17.8692 0.611441 17.8692C0.824003 17.8692 1.03481 17.8613 1.243 17.8464L1.21501 17.8482C1.87106 17.7563 2.17722 18.0144 2.43527 18.6223C3.06945 20.1225 3.81298 21.6314 4.52152 23.1316C4.56525 23.2103 4.59062 23.303 4.59062 23.4027C4.59062 23.5025 4.56525 23.5952 4.52064 23.6765L4.52239 23.6739C4.2556 24.2469 4.00105 24.8286 3.71676 25.4627Z" fill="currentColor"/>
<path d="M14.3406 22.117C14.9485 22.0601 15.5215 22.2307 16.0332 21.9595L16.768 22.9436H12.7223C12.7223 22.8517 12.7223 22.7424 12.7223 22.6374V18.7711C12.7267 18.737 12.7285 18.6967 12.7285 18.6556C12.7285 18.3416 12.5894 18.0608 12.3689 17.871L12.3672 17.8701H14.3528L14.3406 22.117Z" fill="currentColor"/>
<path d="M4.81757 22.9747C4.55952 22.4411 4.31896 21.9644 4.10465 21.4745C4.10028 21.4509 4.09766 21.4238 4.09766 21.3958C4.09766 21.3118 4.12127 21.2331 4.16239 21.1666L4.16151 21.1684C4.57264 20.2936 4.99689 19.4189 5.39927 18.5442C5.46662 18.3509 5.5191 18.1243 5.54622 17.8907L5.54797 17.875H7.22309L4.81757 22.9747Z" fill="currentColor"/>
<path d="M12.8239 11.376C12.8274 11.376 12.8327 11.376 12.837 11.376C14.1246 11.376 15.1682 12.4195 15.1682 13.7072C15.1682 14.9948 14.1246 16.0383 12.837 16.0383C11.5494 16.0383 10.5059 14.9948 10.5059 13.7072C10.5059 13.7037 10.5059 13.701 10.5059 13.6975C10.5225 12.423 11.5503 11.3952 12.8222 11.376H12.8239ZM12.872 12.3338C12.174 12.3671 11.6212 12.9409 11.6212 13.6442C11.6212 13.6538 11.6212 13.6634 11.6212 13.673V13.6713C11.6203 13.6914 11.6194 13.715 11.6194 13.7386C11.6194 14.4288 12.1276 15.0009 12.7898 15.1006L12.7977 15.1015C13.5001 15.0455 14.0485 14.4612 14.0485 13.75C14.0485 13.7483 14.0485 13.7474 14.0485 13.7456C14.052 13.708 14.0547 13.6652 14.0547 13.6214C14.0547 12.9426 13.5386 12.3837 12.8781 12.3163L12.8729 12.3154L12.872 12.3338Z" fill="currentColor"/>
<path d="M19.1208 11.5762V12.2716H16.9034V13.3388H18.6266C18.3992 14.4934 17.4851 13.8767 16.9252 14.1698C16.5928 14.957 17.4238 16.2604 15.8887 16.6322V11.5762H19.1208Z" fill="currentColor"/>
</svg>
