<svg width="28" height="28" viewBox="0 0 28 28" fill="none" xmlns="http://www.w3.org/2000/svg">
<path d="M9.62858 25.4439C9.325 25.3739 9.13865 25.1639 8.95231 24.9303C6.44407 21.8045 3.9367 18.6777 1.42846 15.5518C1.05489 15.0855 0.693574 14.6183 0.320006 14.152C0.110039 13.8834 0.00505478 13.5921 0.00505478 13.2308C0.00505478 9.78992 0.00505478 6.3482 0.00505478 2.89598C0.00505478 2.83736 -0.00631848 2.77962 0.00505478 2.73238C0.0286762 2.66239 0.0636707 2.56878 0.110039 2.5574C0.168655 2.54603 0.250017 2.5924 0.296385 2.63877C0.342753 2.67376 0.377748 2.73238 0.412742 2.77874C4.92705 8.4365 9.44136 14.1056 13.9557 19.7748C15.3555 21.5359 16.7439 23.3092 18.1436 25.0703C18.225 25.1753 18.2836 25.3153 18.3536 25.4316H9.61633L9.62858 25.4439Z" fill="currentColor"/>
<path d="M28.0005 2.59253V2.91885C28.0005 6.31333 28.0005 9.69644 28.0005 13.0909C28.0005 13.4522 27.8841 13.7558 27.6742 14.0358C26.8343 15.1092 25.983 16.1941 25.1309 17.2553C24.9323 17.5116 24.6646 17.6516 24.326 17.6516C21.5965 17.6516 18.8669 17.6516 16.1259 17.6516C16.0446 17.6516 15.951 17.6052 15.8923 17.558C15.8687 17.5344 15.9037 17.4066 15.951 17.348C16.3123 16.9167 16.6745 16.4845 17.0358 16.0532C19.4854 12.9851 21.935 9.92915 24.3733 6.861C25.4345 5.51983 26.4843 4.17779 27.5342 2.82524C27.6392 2.68527 27.7092 2.48667 27.9891 2.6039L28.0005 2.59253Z" fill="currentColor"/>
</svg>
