<svg width="28" height="28" viewBox="0 0 28 28" fill="none" xmlns="http://www.w3.org/2000/svg">
<path d="M27.9982 15.7337C27.592 15.5447 27.1163 15.4339 26.615 15.4339C26.1138 15.4339 25.6381 15.5447 25.2107 15.7425L25.231 15.7337C25.3224 15.3996 25.3752 15.0162 25.3752 14.6214C25.3752 13.0896 24.5873 11.7415 23.3958 10.9607L23.3791 10.9501C25.3954 10.7628 26.4506 7.28063 26.4506 7.28063C25.1219 4.82726 23.1742 2.85666 20.8131 1.53765L20.741 1.50071C20.741 1.50071 17.3406 1.03203 16.3206 2.1101C15.0543 0.058594 11.4552 0.0585938 11.4552 0.0585938C8.59996 0.606424 6.12374 1.95533 4.19622 3.85911L4.19798 3.85735C4.19974 4.99434 4.72734 6.00734 5.55041 6.66597L5.55744 6.67124C3.76358 7.09333 1.89938 9.6144 2.20451 10.6344C1.84398 10.1552 1.27592 9.84831 0.635764 9.84831C0.618177 9.84831 0.60147 9.84831 0.583883 9.84918H0.586521C0.217197 11.053 0.00263803 12.4362 0 13.8695V13.8713C0 15.4181 0.25325 16.9059 0.720181 18.2953L0.692042 18.1977C1.34627 17.6683 1.84838 16.9745 2.13592 16.1778L2.14559 16.1462C3.03461 16.7327 4.12587 17.0809 5.29803 17.0809C5.87488 17.0809 6.43238 16.9965 6.95911 16.8391L6.91778 16.8496C6.54846 17.5962 6.33214 18.4746 6.33214 19.4041C6.33214 20.571 6.67332 21.6579 7.26073 22.5706L7.24666 22.5478C6.10087 22.7122 5.10722 23.2609 4.37736 24.0567L4.37385 24.0602C6.8914 26.4608 10.3076 27.939 14.0695 27.9408C15.2654 27.9381 16.4252 27.7842 17.5306 27.4976L17.4347 27.5187C16.7814 26.0053 15.5916 24.827 14.1108 24.2044L14.0695 24.1895C15.7112 24.0954 17.3292 21.6922 17.5868 20.0504C18.766 20.5868 20.1448 20.899 21.5966 20.899C21.9519 20.899 22.3027 20.8805 22.6483 20.8436L22.6052 20.8471C22.3537 21.4653 22.2078 22.1828 22.2078 22.9338C22.2078 23.6847 22.3537 24.4023 22.6193 25.0592L22.6061 25.0213C25.4868 22.8019 27.4706 19.5395 27.9912 15.8094L28 15.7355L27.9982 15.7337ZM17.2465 18.2786C15.4527 15.7461 10.3173 14.2336 7.62038 15.7346C9.16802 11.9359 8.62898 9.46227 6.70586 6.83568C10.2232 7.16368 14.3975 5.33464 16.0858 2.99032C16.5668 5.53426 19.3684 9.77884 21.9484 10.6344C17.7513 12.5452 17.2703 15.5588 17.2465 18.2786Z" fill="currentColor"/>
</svg>
