<svg width="29" height="28" viewBox="0 0 29 28" fill="none" xmlns="http://www.w3.org/2000/svg">
<g clip-path="url(#clip0_167_20409)">
<g clip-path="url(#clip1_167_20409)">
<path d="M0.101562 13.9973C0.101562 20.761 4.89569 26.4048 11.2797 27.7199V0.285156C4.89569 1.58453 0.101562 7.23353 0.101562 13.9982V13.9973ZM4.10556 11.423C4.10556 10.5034 4.84056 9.75791 5.76019 9.75791C6.67981 9.75791 7.41481 10.5025 7.41481 11.423V12.3427H8.33444C9.25406 12.3427 9.99956 13.0873 9.99956 13.9973C9.99956 14.9073 9.25494 15.6624 8.33444 15.6624H7.41481V16.582C7.41481 17.492 6.67019 18.2367 5.76019 18.2367C4.85019 18.2367 4.10556 17.492 4.10556 16.582V15.6624H3.17544C2.26544 15.6624 1.52081 14.9178 1.52081 13.9973C1.52081 13.0768 2.26544 12.3427 3.17544 12.3427H4.10556V11.423Z" fill="currentColor"/>
<path d="M13.3047 0.020125V27.9799C13.5698 27.9895 13.8349 28 14.0992 28C14.2943 28 14.4894 28 14.6846 27.9799V0.020125C14.4894 0 14.2943 0 14.0992 0C13.8341 0 13.5689 0.009625 13.3047 0.020125Z" fill="currentColor"/>
<path d="M16.707 0.245016V27.755C23.196 26.53 28.1004 20.8364 28.1004 13.9921C28.1004 7.14789 23.196 1.47002 16.707 0.245016ZM22.3359 9.65827C23.196 9.65827 23.9004 10.353 23.9004 11.2228C23.9004 12.0925 23.1952 12.7873 22.3359 12.7873C21.4758 12.7873 20.7714 12.082 20.7714 11.2228C20.7714 10.3635 21.4767 9.65827 22.3359 9.65827ZM19.5665 15.5619C18.6968 15.5619 18.002 14.8671 18.002 13.9974C18.002 13.1276 18.6968 12.4329 19.5665 12.4329C20.4363 12.4329 21.131 13.1373 21.131 13.9974C21.131 14.8575 20.4258 15.5619 19.5665 15.5619ZM22.3359 18.3418C21.4758 18.3418 20.7714 17.6365 20.7714 16.7773C20.7714 15.918 21.4767 15.2128 22.3359 15.2128C23.196 15.2128 23.9004 15.9075 23.9004 16.7773C23.9004 17.647 23.1952 18.3418 22.3359 18.3418ZM25.1158 15.5619C24.246 15.5619 23.5513 14.8671 23.5513 13.9974C23.5513 13.1276 24.246 12.4329 25.1158 12.4329C25.9855 12.4329 26.6803 13.1373 26.6803 13.9974C26.6803 14.8575 25.9759 15.5619 25.1158 15.5619Z" fill="currentColor"/>
</g>
</g>
<defs>
<clipPath id="clip0_167_20409">
<rect width="28" height="28" fill="white" transform="translate(0.101562)"/>
</clipPath>
<clipPath id="clip1_167_20409">
<rect width="28" height="28" fill="white" transform="translate(0.101562)"/>
</clipPath>
</defs>
</svg>
