<svg width="28" height="28" viewBox="0 0 28 28" fill="none" xmlns="http://www.w3.org/2000/svg">
<path d="M18.6278 27.1804C20.5732 26.4967 22.24 25.4559 23.6266 24.1261L23.6222 24.1305C22.8093 22.702 22.0392 21.5119 21.2115 20.3672L21.2936 20.4868C19.7638 22.2951 18.7824 24.6107 18.6287 27.1489L18.6278 27.1804Z" fill="currentColor"/>
<path d="M25.1924 22.2905C26.2244 20.9406 27.0251 19.3506 27.4984 17.6252L27.5211 17.5283C25.8656 17.668 24.3585 18.1954 23.0566 19.0188L23.0968 18.9952C23.8189 20.0666 24.5288 21.1615 25.1924 22.2905Z" fill="currentColor"/>
<path d="M4.16776 4.05955C9.02509 6.06517 13.1987 8.73351 16.8127 12.0087L16.776 11.9764C18.7432 9.04261 19.1047 5.0497 17.6841 0.544248C16.5586 0.215944 15.2664 0.0273438 13.9296 0.0273438C10.1235 0.0273438 6.67457 1.55885 4.16602 4.03859L4.16776 4.03684V4.05955Z" fill="currentColor"/>
<path d="M6.33291 19.0667C5.37245 19.0623 4.43032 19.0038 3.50478 18.8921L3.62091 18.9034C2.48058 18.769 1.49479 18.5978 0.527344 18.3769L0.722056 18.4145C2.62639 24.0131 7.83648 27.9693 13.9703 27.9728C14.7955 27.9702 15.6005 27.8942 16.382 27.751L16.299 27.7633C16.3348 24.2619 17.6524 21.0758 19.8047 18.6441L19.7916 18.6589C18.8504 17.4715 17.91 16.4123 16.9137 15.4082L16.9164 15.4108C14.2812 17.6924 10.82 19.0824 7.03405 19.0824C6.78782 19.0824 6.54247 19.0763 6.29973 19.065L6.33291 19.0667Z" fill="currentColor"/>
<path d="M15.2862 13.7457C11.695 10.4958 7.47852 7.85452 2.85083 6.03051L2.57317 5.93359C0.963957 8.17235 0 10.969 0 13.9901C0 13.9945 0 13.998 0 14.0024V14.0015C0.0052389 14.6721 0.0558816 15.3252 0.149309 15.9652L0.139704 15.8875C1.17264 16.1704 2.44045 16.4192 3.73446 16.5834L3.87678 16.5982C8.69657 17.1221 12.6668 16.1206 15.2862 13.7457Z" fill="currentColor"/>
<path d="M18.4883 13.5941C19.5797 14.6777 20.6109 15.8163 21.581 17.0072L21.6438 17.0867C23.4251 15.9228 25.5957 15.2121 27.9296 15.1658H27.9419C27.9419 14.7702 28.0004 14.3625 28.0004 14.0019C27.9864 8.61628 24.926 3.94843 20.4529 1.62847L20.3752 1.5918C21.4229 6.2483 20.7829 10.4167 18.4892 13.595L18.4883 13.5941Z" fill="currentColor"/>
</svg>
