<svg width="28" height="28" viewBox="0 0 28 28" fill="none" xmlns="http://www.w3.org/2000/svg">
<path d="M13.7949 0C14.1729 1.06049 14.5658 1.94598 15.0164 2.79734L14.9613 2.68359L16.2326 2.11222C16.3901 2.02735 16.5774 1.97748 16.7769 1.97748C17.4209 1.97748 17.9432 2.49984 17.9432 3.14384C17.9432 3.63995 17.6335 4.06345 17.1978 4.23232L17.1899 4.23495L16.1285 4.71357C16.9011 5.87555 17.6991 6.88879 18.5706 7.83378L18.5549 7.81715L20.2348 6.1258C20.4466 5.91405 20.7397 5.7828 21.0635 5.7828C21.7101 5.7828 22.2351 6.30692 22.2351 6.95441C22.2351 7.27816 22.1038 7.57041 21.8921 7.78303L20.1657 9.47438C21.0048 10.2522 21.9192 10.9811 22.8852 11.6391L22.9657 11.6907L23.4671 10.5244C23.6622 10.1052 24.0795 9.82 24.5634 9.82C25.2293 9.82 25.7691 10.3599 25.7691 11.0257C25.7691 11.2077 25.7289 11.3801 25.6572 11.535L25.6606 11.528L25.0307 12.9043C25.8584 13.3567 26.8375 13.7907 27.8534 14.1451L27.9942 14.1879C27.9942 14.1293 27.9942 14.0716 27.9942 14.0016C27.9942 6.2693 21.7267 0.00175006 13.9944 0.00175006L13.7949 0Z" fill="currentColor"/>
<path d="M24.0271 15.0032L23.4085 16.3332C23.2213 16.7418 22.817 17.0201 22.3472 17.0218C22.1739 17.0209 22.0094 16.9824 21.8615 16.9142L21.8685 16.9168C21.4608 16.7287 21.1834 16.3236 21.1834 15.8537C21.1834 15.6805 21.2211 15.5168 21.2884 15.369L21.2858 15.376L21.9972 13.7774C20.6847 12.9164 19.5419 12.0256 18.4762 11.0518L18.4972 11.071L17.7386 11.8296C17.5286 12.0379 17.2407 12.1665 16.9222 12.1683C16.9205 12.1683 16.9179 12.1683 16.9152 12.1683C16.595 12.1683 16.3045 12.0388 16.0936 11.8296C15.8836 11.6188 15.7541 11.3283 15.7541 11.0071C15.7541 10.686 15.8836 10.3955 16.0936 10.1847L16.84 9.42603C15.8311 8.3148 14.8931 7.09506 14.0601 5.8027L13.9936 5.69246L12.3373 6.43882C12.1973 6.50445 12.0328 6.54294 11.8595 6.54382C11.8508 6.54382 11.8394 6.54382 11.8289 6.54382C11.1849 6.54382 10.6626 6.02145 10.6626 5.37746C10.6626 4.90847 10.9399 4.50335 11.3389 4.31872L11.3459 4.3161L12.8273 3.63973C12.3303 2.68162 11.8709 1.55288 11.5122 0.379522L11.4737 0.233398C5.74862 1.31051 1.30455 5.75458 0.240562 11.393L0.226562 11.4796C1.54605 11.876 2.67566 12.3362 3.74927 12.8875L3.6329 12.8332L4.30926 11.3519C4.50876 10.9783 4.89638 10.7289 5.34175 10.7289C5.98574 10.7289 6.50811 11.2513 6.50811 11.8953C6.50811 12.044 6.48011 12.1858 6.43024 12.3161L6.43286 12.3082L5.68649 13.9996C7.10573 14.9157 8.34034 15.8721 9.48745 16.9229L9.46645 16.9046L10.2251 16.1582C10.4281 15.9841 10.6932 15.8773 10.9837 15.8773C11.6277 15.8773 12.15 16.3997 12.15 17.0437C12.15 17.3342 12.0442 17.6002 11.8683 17.8041L11.8692 17.8023L11.1228 18.5609C12.0905 19.603 12.9822 20.7466 13.7705 21.9638L13.83 22.0609L15.4164 21.3495C15.6141 21.1911 15.867 21.0958 16.1426 21.0958C16.7866 21.0958 17.309 21.6181 17.309 22.2621C17.309 22.8414 16.8864 23.3226 16.3325 23.4136L16.3255 23.4145L14.9491 24.0331C15.5135 25.0892 16.0289 26.3256 16.4252 27.6144L16.4655 27.7667C22.1905 26.6896 26.6346 22.2455 27.6986 16.6071L27.7126 16.5204C26.2846 16.0725 25.064 15.558 23.9038 14.9455L24.0254 15.0041L24.0271 15.0032Z" fill="currentColor"/>
<path d="M14.1807 28.0001C13.7869 26.8258 13.3529 25.8318 12.8446 24.8825L12.8971 24.9901L11.5207 25.6665C11.3807 25.7321 11.2162 25.7706 11.043 25.7715C11.0325 25.7715 11.0211 25.7723 11.0088 25.7723C10.3649 25.7723 9.84249 25.25 9.84249 24.606C9.84249 24.1265 10.1321 23.7144 10.5451 23.535L10.553 23.5324L11.7193 23.031C11.0097 21.9845 10.2809 21.0701 9.48899 20.2161L9.50299 20.231L7.78801 21.8646C7.58152 22.0527 7.30589 22.1682 7.00315 22.1682C7.00052 22.1682 6.99702 22.1682 6.9944 22.1682C6.99265 22.1682 6.9909 22.1682 6.98827 22.1682C6.66803 22.1682 6.37753 22.0387 6.16666 21.8296C5.95316 21.6179 5.82191 21.3248 5.82191 21.001C5.82191 20.6773 5.95404 20.3841 6.16666 20.1724L7.85801 18.4924C6.92352 17.6507 5.89891 16.8632 4.8148 16.1588L4.71943 16.1011L4.24081 17.1624C4.05356 17.5711 3.64931 17.8493 3.17945 17.8511C3.0062 17.8502 2.8417 17.8117 2.69383 17.7434L2.70083 17.7461C2.29308 17.5579 2.01571 17.1528 2.01571 16.6829C2.01571 16.5097 2.05333 16.3461 2.12071 16.1982L2.11808 16.2052L2.68945 14.9338C1.95271 14.5383 1.06722 14.1446 0.151983 13.813L0.00585938 13.7666C0.00585938 13.8366 0.00585938 13.8952 0.00585938 13.9652C0.00585938 13.9757 0.00585938 13.988 0.00585938 14.0002C0.00585938 21.7281 6.26728 27.9931 13.9934 28.0001H14.1807Z" fill="currentColor"/>
</svg>
