<svg width="28" height="28" viewBox="0 0 28 28" fill="none" xmlns="http://www.w3.org/2000/svg">
<path d="M1.15998 23.7409L0.0749844 26.4359C0.0312344 26.554 0.00585938 26.6905 0.00585938 26.8322C0.00585938 27.4727 0.521234 27.9916 1.15998 27.9986H3.49361L5.39498 22.2822H3.31861C2.34736 22.284 1.51523 22.8799 1.16611 23.7251L1.15998 23.7409Z" fill="currentColor"/>
<path d="M24.4934 0L13.7948 21C13.4106 21.7709 12.6328 22.2941 11.7315 22.3064H11.7298H7.79839L5.88477 28H13.9111H13.9129C14.8596 28 15.6743 27.4365 16.04 26.6263L16.0461 26.6114C18.9048 20.055 27.9925 0 27.9925 0H24.4934Z" fill="currentColor"/>
<path d="M3.02659 16.6135C4.48522 17.5585 7.69297 17.8735 10.2016 17.3371C11.8816 16.9757 12.8266 16.3335 12.8266 15.6335V13.5448C12.2115 13.8528 11.4975 14.1022 10.7493 14.258L10.6916 14.2685C9.77984 14.4688 8.73159 14.5835 7.65797 14.5835C7.62909 14.5835 7.60109 14.5835 7.57222 14.5835H7.57659C7.51534 14.5843 7.44359 14.5852 7.37097 14.5852C5.54659 14.5852 3.81234 14.1985 2.24609 13.502L2.32659 13.5343V15.6343C2.37472 16.0701 2.64422 16.4332 3.01959 16.6108L3.02659 16.6143V16.6135Z" fill="currentColor"/>
<path d="M12.8043 10.279C12.8043 11.3675 10.4646 12.2504 7.57794 12.2504C4.69131 12.2504 2.35156 11.3675 2.35156 10.279C2.35156 9.19049 4.69131 8.30762 7.57794 8.30762C10.4646 8.30762 12.8043 9.19049 12.8043 10.279Z" fill="currentColor"/>
</svg>
