<svg width="28" height="28" viewBox="0 0 28 28" fill="none" xmlns="http://www.w3.org/2000/svg">
<path d="M27.9055 27.9129L27.8355 27.8192L27.7069 27.6442L27.5905 27.4929L27.4041 27.2479L27.0077 26.7342L26.7514 26.3956L26.53 26.1156L26.215 25.7192L25.9814 25.4156L25.6664 24.972C25.6664 24.902 25.5614 24.8434 25.515 24.7856L24.64 23.7242L24.395 23.4329L23.975 22.9542L23.695 22.6279L23.275 22.1615L22.9714 21.8351L22.5627 21.4037L22.1664 21.0774L21.7577 20.681C21.6624 20.5777 21.5635 20.4824 21.4594 20.3931L21.455 20.3887L21.07 20.0274L20.8364 19.8287L20.475 19.5251C20.2764 19.3737 20.09 19.2451 19.9036 19.1287C19.7426 19.0194 19.5589 18.9179 19.3655 18.8339L19.3436 18.8251C19.2001 18.7542 19.0321 18.7114 18.8545 18.7087C18.8055 18.7017 18.7478 18.6982 18.69 18.6982C18.6322 18.6982 18.5754 18.7017 18.5203 18.7096L18.5264 18.7087L18.3864 18.7674L18.1414 18.8724L17.7214 19.106L17.4414 19.281C17.2078 19.4324 16.9514 19.6196 16.695 19.8174L16.59 19.8874C14.7035 21.3941 13.0183 22.9017 11.4205 24.4969L11.095 24.8224L10.1386 24.2387C9.46225 23.8424 8.52863 23.2937 7.7 22.8974C7.23625 22.6217 6.6955 22.4187 6.11888 22.3181L6.09 22.3137C6.055 22.3076 6.01475 22.305 5.97363 22.305C5.9325 22.305 5.89225 22.3085 5.85288 22.3146L5.85725 22.3137C5.06012 22.816 4.37063 23.3874 3.7625 24.0349L3.75725 24.0401C2.73088 25.0315 1.62225 26.2215 0.898625 27.0037L0 27.9951H28L27.9055 27.9129Z" fill="currentColor"/>
<path d="M9.98537 8.16174C9.10163 8.24836 8.3255 8.36824 7.5625 8.52574L7.71038 8.50036C7.73925 11.1971 8.26338 13.7635 9.19613 16.1234L9.14538 15.979C9.792 17.7622 10.5795 19.3022 11.5289 20.725L11.479 20.6454C11.8203 20.7381 12.2464 20.8239 12.6821 20.8842L12.739 20.8904C13.5904 20.109 14.3254 19.4904 14.9554 18.989C14.8267 18.7204 14.699 18.4754 14.5704 18.1954C13.243 15.2562 12.2166 11.842 11.6593 8.27199L11.6304 8.04536C11.0468 8.02174 10.499 8.04536 9.98537 8.16174Z" fill="currentColor"/>
<path d="M17.2298 6.4346C17.5798 5.99098 17.8948 5.5596 18.1985 5.11598C16.5386 4.52798 14.625 4.18848 12.6317 4.18848C12.3613 4.18848 12.0927 4.1946 11.8258 4.20685L11.8635 4.2051C9.23759 4.36698 6.78497 4.87535 4.47409 5.68648L4.66484 5.62785C4.41284 6.1021 4.17484 6.6621 3.98584 7.2431L3.96484 7.31923C5.65622 6.73735 7.63372 6.29723 9.67772 6.0811L9.79759 6.0706C10.5282 5.99973 11.3761 5.9586 12.2345 5.9586C14.0011 5.9586 15.7275 6.13098 17.3978 6.45998L17.229 6.43198L17.2298 6.4346Z" fill="currentColor"/>
<path d="M8.3403 19.2561C7.97805 18.5675 7.58517 17.6986 7.2378 16.807L7.17305 16.6197C6.29892 14.3474 5.75817 11.7197 5.6803 8.97661L5.67942 8.94336C4.97942 9.14198 4.27942 9.36336 3.56805 9.63198C3.49805 9.90061 3.49805 10.1806 3.49805 10.4956C3.5278 14.1619 5.43267 17.3766 8.2983 19.2325L8.33942 19.257L8.3403 19.2561Z" fill="currentColor"/>
<path d="M20.6379 9.61926C21.6608 8.55963 22.5542 7.36438 23.2874 6.06676L23.3329 5.97926C23.3347 5.95651 23.3356 5.93026 23.3356 5.90313C23.3356 5.87601 23.3347 5.84976 23.3329 5.82351V5.82701C22.8491 4.86188 22.2654 4.03238 21.5777 3.30176L21.5829 3.30701C21.5313 3.44613 21.4718 3.56513 21.4027 3.67713L21.4079 3.66838C20.6546 5.13926 19.8329 6.40451 18.8984 7.57701L18.9343 7.53063C19.5757 8.16063 20.1357 8.90701 20.6379 9.61926Z" fill="currentColor"/>
<path d="M22.6201 13.0139C23.2746 12.4609 23.8653 11.8852 24.413 11.27L24.4279 11.2525C24.4279 10.9839 24.4279 10.7275 24.4279 10.4589C24.4253 9.70203 24.3448 8.96441 24.1934 8.25391L24.2056 8.32391C23.4383 9.46753 22.6245 10.4668 21.7285 11.3847L21.7329 11.3803C22.0146 11.8257 22.3095 12.3612 22.5755 12.9133L22.6201 13.0139Z" fill="currentColor"/>
<path d="M19.3073 3.35428L19.6337 2.73566C19.7623 2.45566 19.9023 2.17566 20.0187 1.89566C18.3422 0.711781 16.2571 0.00390625 14.0066 0.00390625C11.1803 0.00390625 8.61481 1.12041 6.72656 2.93691L6.73006 2.93341C8.21406 2.54053 9.94219 2.27016 11.7184 2.17741L11.7814 2.17478C12.0299 2.16341 12.3213 2.15641 12.6136 2.15641C15.0163 2.15641 17.3167 2.59478 19.4394 3.39716L19.3064 3.35341L19.3073 3.35428Z" fill="currentColor"/>
<path d="M16.5899 17.74C17.2024 17.2605 17.9697 16.9525 18.8071 16.9009L18.8185 16.9C19.7714 16.9989 20.6201 17.3795 21.2982 17.9553L21.2921 17.95C21.5135 17.7286 21.7471 17.495 21.9571 17.2614C21.7034 16.1851 21.3954 15.2594 21.0156 14.3704L21.0594 14.485C20.0339 12.1741 18.7056 10.1914 17.0939 8.47727L17.1044 8.48865C16.1182 8.28215 14.9387 8.12465 13.7365 8.0494L13.6621 8.0459C14.2011 11.5083 15.133 14.6198 16.428 17.5344L16.3335 17.2973C16.4499 17.4959 16.5199 17.5886 16.5899 17.7409V17.74Z" fill="currentColor"/>
</svg>
