<svg width="28" height="28" viewBox="0 0 28 28" fill="none" xmlns="http://www.w3.org/2000/svg">
<path d="M27.8386 18.8381L24.2544 6.98331C23.773 5.43059 22.3499 4.32227 20.6685 4.32227C20.2805 4.32227 19.9067 4.38134 19.5549 4.49067L19.5813 4.48362C19.0152 4.65908 18.5285 4.94476 18.1238 5.31949L18.1265 5.31685H9.87354C9.47147 4.94476 8.98476 4.65908 8.44514 4.49067L8.41869 4.48362C8.09334 4.38134 7.71949 4.32227 7.33153 4.32227C5.6492 4.32227 4.2261 5.43059 3.75261 6.95685L3.74556 6.98331L0.161355 18.8381C0.0590755 19.1634 0 19.5373 0 19.9252C0 21.9946 1.67792 23.6726 3.74732 23.6726C5.42965 23.6726 6.85275 22.5642 7.32624 21.038L7.33329 21.0115L8.65588 16.6294C8.93186 16.7343 9.25192 16.796 9.58521 16.7969C10.8893 16.7951 11.9729 15.8508 12.1889 14.6084L12.1916 14.5926H15.7978C16.0165 15.8508 17.0993 16.7951 18.4033 16.7969C18.4051 16.7969 18.4077 16.7969 18.4104 16.7969C18.7437 16.7969 19.062 16.7369 19.3573 16.6276L19.3388 16.6338L20.6614 21.0159C21.1437 22.5686 22.5677 23.677 24.25 23.677C26.3212 23.677 28 21.9982 28 19.927C28 19.5382 27.9409 19.1634 27.8316 18.8116L27.8386 18.8381ZM5.79557 9.84891H4.52148V8.74234H5.79116C6.07155 8.76791 6.28845 9.00245 6.28845 9.28637C6.28845 9.57028 6.07066 9.80482 5.79292 9.83039H5.79116L5.79557 9.84891ZM7.6031 11.8372H6.50535V10.5543C6.50535 10.2545 6.74783 10.012 7.04761 10.012C7.3474 10.012 7.58987 10.2545 7.58987 10.5543L7.6031 11.8372ZM7.6031 8.03697C7.6031 8.33675 7.36062 8.57923 7.06084 8.57923C6.76105 8.57923 6.51858 8.33675 6.51858 8.03697V6.74965H7.6031V8.03697ZM9.59138 9.83127H8.3217C8.04131 9.8057 7.82441 9.57116 7.82441 9.28725C7.82441 9.00333 8.0422 8.7688 8.31994 8.74323H9.59138V9.83127ZM19.0699 9.9459C18.5832 9.9459 18.1882 9.55088 18.1882 9.06417C18.1882 8.57746 18.5832 8.18245 19.0699 8.18245C19.5566 8.18245 19.9516 8.57746 19.9516 9.06417C19.9516 9.55088 19.5566 9.9459 19.0699 9.9459ZM21.0538 11.9298C20.5671 11.9298 20.1721 11.5348 20.1721 11.048C20.1721 10.5613 20.5671 10.1663 21.0538 10.1663C21.5405 10.1663 21.9355 10.5613 21.9355 11.048C21.9355 11.5348 21.5405 11.9298 21.0538 11.9298ZM21.0538 7.96202C20.5671 7.96202 20.1721 7.56701 20.1721 7.0803C20.1721 6.59358 20.5671 6.19857 21.0538 6.19857C21.5405 6.19857 21.9355 6.59358 21.9355 7.0803C21.9355 7.56701 21.5405 7.96202 21.0538 7.96202ZM23.0377 9.9459C22.551 9.9459 22.1559 9.55088 22.1559 9.06417C22.1559 8.57746 22.551 8.18245 23.0377 8.18245C23.5244 8.18245 23.9194 8.57746 23.9194 9.06417C23.9194 9.55088 23.5244 9.9459 23.0377 9.9459Z" fill="currentColor"/>
</svg>
