<svg width="28" height="28" viewBox="0 0 28 28" fill="none" xmlns="http://www.w3.org/2000/svg">
<path d="M27.2625 14.4912C26.7892 12.8404 26.1777 11.4047 25.4148 10.0653L25.4664 10.1633L23.9503 11.6681L22.2941 10.0233L24.1725 8.1686C23.7989 7.65505 23.4026 7.16513 23.0063 6.69883L20.3703 9.33479L18.667 7.64368L21.2915 5.03046C20.8524 4.6289 20.3773 4.24309 19.8804 3.88439L19.834 3.85202L17.9907 5.73035L16.3346 4.07424L17.863 2.54585C16.6215 1.83371 15.1859 1.22131 13.675 0.783877L13.535 0.748883C11.9069 0.272957 10.0373 0 8.10298 0C7.98663 0 7.87115 0.000874882 7.75479 0.00262461H7.77228C4.36819 0.105858 1.50651 2.31751 0.440931 5.37079L0.423434 5.42678L8.88074 3.50208L9.76697 4.38831L8.75213 1.56513L13.0915 5.91583L8.76351 14.6058L8.85712 14.6995L15.5761 8.40044L21.8287 14.6408L20.1953 16.5419L16.3346 12.6689L15.1684 13.8351L17.7344 16.4133L16.241 18.0817L13.5814 15.4221L10.8868 18.1167L5.53264 12.7625L6.41887 11.3391L3.21075 8.16597L1.47239 8.73726L0.00262461 7.26749V7.76879C0.000874882 7.86502 0 7.97875 0 8.09249C0 10.0198 0.269458 11.8841 0.772504 13.6505L0.73751 13.5079C2.64996 20.1813 7.79591 25.3308 14.3268 27.2144L14.4667 27.2494C16.0931 27.7253 17.9609 27.9991 19.8926 27.9991C20.0107 27.9991 20.1289 27.9982 20.247 27.9965H20.2295H20.7308L15.7265 22.9923L22.3641 15.1649L26.3185 19.1306L23.4253 17.9644L24.2538 18.7929L20.3108 23.8908L23.5653 27.1453C26.1418 25.8391 27.8994 23.2495 27.9974 20.2408V20.2277C27.9991 20.1315 28 20.0177 28 19.904C28 17.9767 27.7305 16.1124 27.2275 14.346L27.2625 14.4886V14.4912Z" fill="currentColor"/>
<path d="M9.63767 6.20834L9.49769 6.06836L5.19336 7.49176L7.43301 9.73141L9.63767 6.20834Z" fill="currentColor"/>
</svg>
