<svg width="36" height="36" viewBox="0 0 36 36" xmlns="http://www.w3.org/2000/svg">
<path d="M29.56 9.509H25.35C25.758 8.868 26 8.088 26 7.25C26 4.903 24.097 3 21.75 3C19.403 3 17.5 4.903 17.5 7.25C17.5 4.903 15.597 3 13.25 3C10.903 3 9 4.903 9 7.25C9 8.087 9.242 8.868 9.66 9.526L9.65 9.509H5.44C4.645 9.509 4 10.154 4 10.949V14.069C4 14.864 4.645 15.509 5.44 15.509H29.56C30.355 15.509 31 14.864 31 14.069V10.949C31 10.154 30.355 9.509 29.56 9.509ZM20 7.259C20 6.293 20.784 5.509 21.75 5.509C22.716 5.509 23.5 6.293 23.5 7.259C23.5 8.225 22.716 9.009 21.75 9.009H20V7.259ZM13.25 5.509C14.216 5.509 15 6.293 15 7.259V9.009H13.25C12.284 9.009 11.5 8.225 11.5 7.259C11.5 6.293 12.284 5.509 13.25 5.509Z" />
<path d="M6 31.7594C6 32.7344 6.79 33.5244 7.765 33.5244H15V18.5244H6V31.7594Z" />
<path d="M20 33.5088H27.235C28.205 33.5088 28.991 32.7268 29 31.7598V18.5088H20V33.5088Z" />
</svg>
