<svg width="14" height="14" viewBox="0 0 14 14" fill="none" xmlns="http://www.w3.org/2000/svg">
<path fill-rule="evenodd" clip-rule="evenodd" d="M7 14C10.866 14 14 10.866 14 7C14 3.13401 10.866 0 7 0C3.13401 0 0 3.13401 0 7C0 10.866 3.13401 14 7 14ZM10.9721 3.6399C11.6081 3.7239 12.1121 4.1919 12.2201 4.8279C12.3401 5.5479 12.4001 6.2799 12.3761 6.9999C12.3761 7.7079 12.3161 8.4279 12.1961 9.1479C12.0881 9.7719 11.5841 10.2639 10.9481 10.3359C10.1921 10.4319 9.6761 10.4799 9.4121 10.5039C8.8961 10.5399 8.4401 10.0479 7.9961 9.5679C7.6601 9.1959 7.2761 8.7879 6.9881 8.7879C6.70765 8.7879 6.33617 9.18616 6.00663 9.53946C5.99775 9.54898 5.98891 9.55846 5.9801 9.5679C5.5601 10.0359 5.1281 10.5039 4.6241 10.5039H4.5641C4.55314 10.5029 4.54168 10.5018 4.52973 10.5006C4.26675 10.4756 3.7627 10.4277 3.0281 10.3359C2.4041 10.2639 1.8881 9.7719 1.7801 9.1479C1.6601 8.4399 1.6001 7.7199 1.6001 6.9999C1.6001 6.2799 1.6601 5.5479 1.7801 4.8279C1.8881 4.1919 2.3921 3.7239 3.0281 3.6399C4.3481 3.4839 5.6801 3.3999 7.0001 3.3999C8.3201 3.3999 9.6521 3.4719 10.9721 3.6399ZM3.6401 6.6999C3.6401 7.2639 4.0961 7.7199 4.6601 7.7199C5.2241 7.7199 5.6801 7.2639 5.6801 6.6999C5.6801 6.1359 5.2241 5.6799 4.6601 5.6799C4.0961 5.6799 3.6401 6.1359 3.6401 6.6999ZM8.3201 6.6999C8.3201 7.2639 8.7761 7.7199 9.3401 7.7199C9.9041 7.7199 10.3601 7.2639 10.3601 6.6999C10.3601 6.1359 9.9041 5.6799 9.3401 5.6799C8.7761 5.6799 8.3201 6.1359 8.3201 6.6999Z" fill="currentColor"/>
</svg>
