<svg width="36" height="36" viewBox="0 0 36 36" fill="none" xmlns="http://www.w3.org/2000/svg">
<path d="M9.26931 8.735H16.7693V4.435C16.7693 4.435 12.8243 2 11.8843 2C10.9443 2 6.45931 3.685 6.27431 4.06C6.22431 4.2 6.19531 4.362 6.19531 4.53C6.19531 4.698 6.22431 4.86 6.27731 5.01L6.27431 5C6.27431 5 9.09431 5.93 9.26931 8.735Z" fill="#B1BAD3"/>
<path d="M14.5951 27.9202L9.45508 28.0002C10.7651 32.3052 16.7551 34.0002 16.7551 34.0002V26.3252C16.2621 27.0982 15.5081 27.6672 14.6211 27.9142L14.5951 27.9202Z" fill="#B1BAD3"/>
<path d="M28.4605 5C28.5075 4.86 28.5355 4.7 28.5355 4.532C28.5355 4.364 28.5085 4.204 28.4575 4.054L28.4605 4.065C28.2705 3.685 23.7805 2 22.8455 2C21.9105 2 17.9805 4.435 17.9805 4.435V8.735H25.4805C25.6505 5.93 28.4605 5 28.4605 5Z" fill="#B1BAD3"/>
<path d="M18.0952 25.2954C18.0612 25.2434 18.0262 25.1834 17.9952 25.1204L17.9902 25.1104V34.0004C17.9902 34.0004 23.9902 32.3154 25.2902 28.0004L22.7452 27.9554C20.7802 27.9334 19.0652 26.8834 18.1092 25.3194L18.0952 25.2954Z" fill="#B1BAD3"/>
<path d="M14.0391 15.1951L17.9691 9.95508H6.55414C5.05414 9.95508 4.11914 11.6351 4.11914 11.6351V14.0701H13.0941L14.0391 15.1951Z" fill="#B1BAD3"/>
<path d="M6.74 21.7453L3 26.6103C3 26.6103 13.105 26.7953 14.04 26.6103C14.975 26.4253 16.47 24.5503 15.91 23.0553C15.35 21.5603 9.91 14.8203 9.91 14.8203H4.12L10.095 22.6803H7.49L6.74 21.7453Z" fill="#B1BAD3"/>
<path d="M18.3457 14.0701H27.1407L28.0957 15.1951L32.2107 9.95508H21.3407C19.9477 10.9641 18.9007 12.3731 18.3617 14.0131L18.3457 14.0701Z" fill="#B1BAD3"/>
<path d="M23.5945 22.1153C23.1185 21.5003 22.8265 20.7203 22.8145 19.8733V19.8703C22.8145 17.0653 22.9995 14.8203 22.9995 14.8203H18.1545C18.1545 14.8203 16.4695 18.5603 17.9695 22.3203C19.4695 26.0803 24.7045 28.6803 30.1345 24.1903H27.8045C27.7875 24.1903 27.7685 24.1903 27.7485 24.1903C26.0555 24.1903 24.5525 23.3813 23.6035 22.1283L23.5945 22.1153Z" fill="#B1BAD3"/>
</svg>
