<svg width="36" height="36" viewBox="0 0 36 36" xmlns="http://www.w3.org/2000/svg">
<path d="M15.567 2H16.422C17.068 2.264 17.624 2.574 18.137 2.942L18.112 2.925C18.277 3.625 18.567 4.375 18.317 5.095C18.097 5.256 17.844 5.391 17.573 5.488L17.552 5.495C17.582 5.77 17.627 6.045 17.672 6.32C18.24 6.247 18.728 6.156 19.208 6.041L19.112 6.06C19.147 5.747 19.241 5.463 19.383 5.209L19.377 5.22C19.417 5.415 19.447 5.61 19.472 5.805C19.695 5.993 19.98 6.114 20.293 6.135H20.297C22.297 6.135 24.297 6.135 26.332 6.135C26.557 6.135 26.662 6.35 26.832 6.47C26.832 6.045 26.832 5.62 26.832 5.19H27.067C27.064 5.259 27.062 5.34 27.062 5.422C27.062 5.738 27.091 6.046 27.147 6.346L27.142 6.315C27.239 6.337 27.357 6.354 27.477 6.364L27.487 6.365C27.487 6.51 27.487 6.66 27.487 6.805C27.698 6.822 27.944 6.832 28.192 6.832C28.597 6.832 28.996 6.806 29.388 6.755L29.342 6.76C29.528 6.744 29.745 6.736 29.964 6.736C30.183 6.736 30.4 6.745 30.615 6.762L30.587 6.76C30.596 6.924 30.612 7.076 30.635 7.225L30.632 7.2C30.401 7.229 30.133 7.245 29.862 7.245C29.591 7.245 29.323 7.229 29.06 7.197L29.092 7.2C28.272 7.1 27.457 7.275 26.637 7.23C26.637 7.34 26.582 7.45 26.557 7.56C25.772 7.56 24.987 7.56 24.202 7.56C24.175 7.557 24.143 7.555 24.111 7.555C23.866 7.555 23.645 7.661 23.492 7.829L23.491 7.83C23.256 8.12 22.991 8.365 22.756 8.66C22.756 8.68 22.756 8.704 22.756 8.728C22.756 9.272 22.851 9.793 23.027 10.276L23.017 10.244L22.467 10.444C22.277 11.029 22.352 11.779 21.817 12.189C21.554 12.43 21.261 12.646 20.946 12.831L20.922 12.844C20.829 12.867 20.721 12.88 20.611 12.88C20.45 12.88 20.296 12.852 20.153 12.801L20.163 12.804C19.243 12.664 18.478 12.099 17.663 11.704C17.608 11.929 17.548 12.149 17.488 12.369C17.738 12.534 18.063 12.669 18.143 12.989C18.179 13.204 18.199 13.452 18.199 13.704C18.199 13.956 18.179 14.204 18.139 14.445L18.143 14.419C18.103 14.854 18.093 15.289 18.048 15.724C17.972 16.157 17.782 16.536 17.511 16.841L17.513 16.839C17.278 16.784 17.048 16.714 16.818 16.654C16.754 16.811 16.717 16.994 16.717 17.185C16.717 17.608 16.898 17.988 17.187 18.253L17.188 18.254C18.258 19.419 18.838 20.919 19.383 22.379C19.478 22.689 19.793 22.879 19.848 23.199C19.963 23.511 20.031 23.872 20.033 24.248V24.249C19.993 24.884 19.948 25.519 19.883 26.154C19.814 26.451 19.774 26.793 19.774 27.143C19.774 27.268 19.779 27.392 19.789 27.515L19.788 27.499C19.839 27.674 19.869 27.874 19.869 28.081C19.869 28.288 19.84 28.489 19.785 28.679L19.789 28.664C19.663 29.032 19.59 29.456 19.59 29.897C19.59 29.991 19.593 30.084 19.6 30.176L19.599 30.164C19.595 30.202 19.593 30.246 19.593 30.291C19.593 30.599 19.691 30.885 19.857 31.119L19.854 31.115C20.122 31.469 20.402 31.783 20.706 32.072L20.709 32.075C21.109 32.335 21.659 32.34 21.989 32.715C22.014 32.816 22.028 32.931 22.028 33.05C22.028 33.169 22.014 33.284 21.987 33.395L21.989 33.385C21.617 33.457 21.19 33.498 20.753 33.498C20.078 33.498 19.427 33.4 18.811 33.218L18.859 33.23C18.289 33.045 17.659 33.365 17.119 33.05C17.16 32.358 17.309 31.713 17.549 31.113L17.534 31.155C17.556 30.973 17.568 30.763 17.568 30.55C17.568 29.869 17.442 29.218 17.211 28.618L17.223 28.655C17.033 27.91 16.916 27.051 16.898 26.167V26.155C16.848 25.74 17.198 25.43 17.213 25.025C17.232 24.943 17.243 24.848 17.243 24.751C17.243 24.479 17.157 24.227 17.01 24.021L17.013 24.025C16.623 24.025 16.103 24.115 15.888 23.7C15.433 23.03 14.998 22.35 14.543 21.7C14.388 21.41 14.008 21.475 13.753 21.35C13.546 21.129 13.378 20.868 13.259 20.582L13.253 20.565C13.174 20.875 13.028 21.144 12.831 21.367L12.833 21.365C12.529 21.739 12.295 22.184 12.159 22.669L12.153 22.695C12.022 22.992 11.917 23.338 11.857 23.699L11.853 23.725C11.803 23.995 11.793 24.31 11.548 24.485C11.193 24.755 11.048 25.21 10.743 25.485C10.517 25.715 10.354 26.007 10.28 26.333L10.278 26.345C10.288 26.474 10.293 26.625 10.293 26.778C10.293 26.931 10.288 27.081 10.277 27.231L10.278 27.211C10.08 27.788 9.867 28.273 9.62 28.738L9.648 28.681C9.498 29.026 9.418 29.396 9.253 29.736C9.148 29.971 8.868 30.046 8.713 30.236C8.404 30.769 8.222 31.409 8.222 32.092C8.222 32.339 8.246 32.581 8.291 32.815L8.287 32.791C8.39 33.02 8.45 33.287 8.45 33.568C8.45 33.673 8.442 33.776 8.426 33.877L8.427 33.866C8.152 33.901 7.882 33.946 7.607 33.971H6.757C6.515 33.937 6.296 33.872 6.092 33.78L6.107 33.786C6.039 33.568 6 33.318 6 33.059C6 32.8 6.039 32.549 6.112 32.314L6.107 32.332C6.307 31.622 6.487 30.907 6.667 30.197C6.787 29.847 6.497 29.532 6.527 29.197C6.566 28.679 6.748 28.209 7.032 27.819L7.027 27.827C7.242 27.442 7.167 26.982 7.317 26.582C7.657 25.702 8.317 24.992 8.682 24.137C8.705 23.976 8.718 23.789 8.718 23.599C8.718 23.409 8.705 23.223 8.68 23.04L8.682 23.061C8.738 22.312 8.837 21.628 8.98 20.96L8.962 21.061C8.995 20.943 9.014 20.808 9.014 20.669C9.014 20.53 8.995 20.394 8.959 20.266L8.962 20.277C8.871 20.054 8.818 19.796 8.818 19.525C8.818 19.457 8.821 19.39 8.828 19.324L8.827 19.332C8.867 19.032 8.692 18.737 8.827 18.447C8.962 18.157 9.112 18.062 9.292 17.912C9.327 16.912 8.957 15.912 9.112 14.912C9.315 14.721 9.566 14.579 9.845 14.505L9.857 14.502L8.777 14.272C8.776 14.242 8.776 14.207 8.776 14.172C8.776 13.778 8.822 13.396 8.909 13.029L8.902 13.063C9.037 12.443 8.962 11.798 9.062 11.173C9.062 11.013 9.252 10.958 9.387 10.953C9.75 10.94 10.094 10.898 10.428 10.831L10.387 10.838C10.321 10.479 10.284 10.067 10.284 9.646C10.284 9.225 10.322 8.812 10.393 8.411L10.387 8.453C10.52 7.462 11.015 6.607 11.731 6.008L11.737 6.003C12.272 5.643 13.047 5.428 13.612 5.863L13.792 5.738C13.667 5.419 13.595 5.049 13.595 4.662C13.595 4.066 13.767 3.509 14.065 3.041L14.058 3.053C14.416 2.55 14.935 2.182 15.54 2.022L15.558 2.018L15.567 2ZM20.832 8.045C20.83 8.285 20.704 8.495 20.515 8.613L20.512 8.615C20.828 8.608 21.131 8.578 21.427 8.525L21.392 8.53C21.392 8.365 21.392 8.195 21.392 8.03H20.852L20.832 8.045ZM20.242 8.68L20.142 8.81C20.244 9.13 20.392 9.407 20.581 9.651L20.576 9.645C20.801 9.325 21.031 9.01 21.246 8.68C21.096 8.668 20.922 8.661 20.746 8.661C20.57 8.661 20.396 8.668 20.223 8.681L20.246 8.68H20.242Z" />
</svg>
