<svg width="36" height="36" viewBox="0 0 36 36" fill="none" xmlns="http://www.w3.org/2000/svg">
<g clip-path="url(#clip0_490_1636)">
<path d="M2 28.9326H22.853V34.9856H2V28.9326Z" fill="#B1BAD3"/>
<path d="M13.933 3H2V9.053H9.52C10.427 6.666 11.96 4.586 13.933 3Z" fill="#B1BAD3"/>
<path d="M8.68 15.9727H2V22.0257H10.933C9.76 20.2387 8.973 18.1857 8.693 15.9727H8.68Z" fill="#B1BAD3"/>
<path d="M34 27.6404L30.507 22.1604C32.614 20.1334 33.934 17.3074 33.934 14.1604C33.934 8.04038 28.961 3.06738 22.841 3.06738C16.721 3.06738 11.748 8.04038 11.748 14.1604C11.748 20.2804 16.721 25.2534 22.841 25.2534C24.081 25.2534 25.281 25.0404 26.401 24.6534L29.961 30.2264L34.001 27.6394L34 27.6404ZM16.547 14.1604C16.547 10.6934 19.374 7.86738 22.84 7.86738C26.306 7.86738 29.133 10.6944 29.133 14.1604C29.133 17.6264 26.306 20.4534 22.84 20.4534C19.374 20.4534 16.547 17.6264 16.547 14.1604Z" fill="#B1BAD3"/>
</g>
<defs>
<clipPath id="clip0_490_1636">
<rect width="36" height="36" fill="white"/>
</clipPath>
</defs>
</svg>
