<svg width="36" height="36" viewBox="0 0 36 36" fill="none" xmlns="http://www.w3.org/2000/svg">
<g clip-path="url(#clip0_494_1663)">
<path d="M31.866 2H4.133C2.955 2 2 2.955 2 4.133V32C2 33.105 2.895 34 4 34H32C33.105 34 34 33.105 34 32V4.133C34 2.955 33.045 2 31.867 2H31.866ZM10.999 27.12L6.999 23.12L9.132 20.987L11.065 22.934L15.932 18.001L18.065 20.134L10.999 27.12ZM10.999 17.12L6.999 13.12L9.066 10.933L10.999 12.88L15.932 7.933L18.065 10.066L10.999 17.12ZM28.999 24.507H21.999V21.494H28.999V24.507ZM28.999 14.507H21.999V11.494H28.999V14.507Z" fill="#B1BAD3"/>
</g>
<defs>
<clipPath id="clip0_494_1663">
<rect width="36" height="36" fill="white"/>
</clipPath>
</defs>
</svg>
