<svg width="28" height="28" viewBox="0 0 28 28" fill="none" xmlns="http://www.w3.org/2000/svg">
<path d="M14 0.838055C13.874 0.83368 13.7252 0.831055 13.5756 0.831055C6.23612 0.831055 0.256375 6.65243 0.000874937 13.9298L0 13.9534C0.009625 17.1979 1.24687 20.1519 3.27075 22.3779L3.262 22.3674C2.961 24.1297 2.43512 25.7082 1.708 27.1686L1.75262 27.0688C3.78 26.8956 5.63675 26.3119 7.28875 25.4019L7.217 25.4378C9.17438 26.4659 11.4931 27.0688 13.9536 27.0688C13.9703 27.0688 13.9869 27.0688 14.0026 27.0688H14C14.1313 27.0732 14.2861 27.0758 14.441 27.0758C21.777 27.0758 27.7533 21.2527 27.9991 13.9762L28 13.9534C27.7436 6.65243 21.7639 0.83193 14.4244 0.83193C14.2748 0.83193 14.1269 0.834555 13.979 0.83893L14 0.838055ZM7.06038 16.4516C5.62363 16.4516 4.45812 15.2869 4.45812 13.8493C4.45812 12.4117 5.62363 11.2471 7.06038 11.2471C8.49713 11.2471 9.66263 12.4126 9.66263 13.8493C9.66263 15.2861 8.49713 16.4516 7.06038 16.4516ZM14 16.4516C12.5632 16.4516 11.3977 15.2869 11.3977 13.8493C11.3977 12.4117 12.5632 11.2471 14 11.2471C15.4368 11.2471 16.6023 12.4126 16.6023 13.8493C16.6023 15.2861 15.4376 16.4516 14 16.4516ZM20.9396 16.4516C19.5029 16.4516 18.3374 15.2869 18.3374 13.8493C18.3374 12.4117 19.502 11.2471 20.9396 11.2471C22.3764 11.2471 23.5419 12.4126 23.5419 13.8493C23.5419 15.2861 22.3773 16.4516 20.9396 16.4516Z" fill="currentColor"/>
</svg>
