<svg width="28" height="28" viewBox="0 0 28 28" fill="none" xmlns="http://www.w3.org/2000/svg">
<path d="M5.366 20.8799L0.0918836 6.38856C0.0341282 6.23192 0 6.05078 0 5.86088C0 5.19057 0.421789 4.61914 1.01422 4.39687L1.02472 4.39337L9.46051 1.32446C9.62065 1.2632 9.80529 1.2282 9.99869 1.2282C10.6637 1.2282 11.2317 1.64736 11.4522 2.23542L11.4557 2.24592L11.7594 3.086L5.5524 20.1562C5.47626 20.361 5.41151 20.6043 5.3695 20.8554L5.366 20.8799ZM27.9081 6.78584L21.0011 25.7812C20.7806 26.3798 20.2153 26.799 19.552 26.799C19.3603 26.799 19.1765 26.764 19.0068 26.7001L19.0173 26.7036L9.41501 23.2033C8.81208 22.9775 8.39029 22.4061 8.39029 21.7357C8.39029 21.5467 8.42354 21.3656 8.48567 21.1976L8.48217 21.2081L15.3892 2.22492C15.6115 1.62198 16.1811 1.2002 16.8488 1.2002C17.037 1.2002 17.2172 1.23345 17.3835 1.2947L17.373 1.2912L26.9753 4.79153C27.5782 5.0173 28 5.58873 28 6.25904C28 6.44806 27.9667 6.6292 27.9046 6.79722L27.9081 6.78584ZM22.0748 14.2993L21.4684 12.8755C21.3468 12.592 21.0702 12.3977 20.7482 12.3977C20.6423 12.3977 20.5408 12.4187 20.448 12.4573L20.4533 12.4555L19.2868 12.9692C19.1993 13.0059 19.0987 13.0269 18.9919 13.0269C18.6699 13.0269 18.3933 12.8327 18.2735 12.5544L18.2717 12.5491L17.7703 11.3826C17.6504 11.1035 17.3783 10.911 17.0606 10.911C16.9503 10.911 16.8453 10.9346 16.7499 10.9757L16.7552 10.974L15.3201 11.5804C15.0392 11.6959 14.8449 11.9672 14.8449 12.284C14.8449 12.3969 14.8694 12.5036 14.914 12.5999L14.9123 12.5955L16.6274 16.6445C16.7543 16.9228 17.0308 17.1127 17.3511 17.1127C17.4605 17.1127 17.5646 17.0908 17.6592 17.0506L17.6539 17.0523L21.6907 15.3258C21.9479 15.2006 22.1221 14.9416 22.1221 14.6415C22.1221 14.5163 22.0914 14.3991 22.0381 14.2949L22.0398 14.2993H22.0748Z" fill="currentColor"/>
</svg>
