<svg width="28" height="28" viewBox="0 0 28 28" fill="none" xmlns="http://www.w3.org/2000/svg">
<path d="M0 22.6973H18.2458V27.9935H0V22.6973Z" fill="currentColor"/>
<path d="M10.441 0.00683594H0V5.30304H6.57979C7.37338 3.21448 8.71472 1.39454 10.441 0.00683594Z" fill="currentColor"/>
<path d="M5.84481 11.3574H0V16.6536H7.81612C6.78978 15.09 6.10118 13.2937 5.85618 11.3574H5.84481Z" fill="currentColor"/>
<path d="M27.9992 21.5661L24.9429 16.7713C26.7864 14.9977 27.9414 12.525 27.9414 9.77149C27.9414 4.41666 23.5902 0.0654297 18.2354 0.0654297C12.8805 0.0654297 8.5293 4.41666 8.5293 9.77149C8.5293 15.1263 12.8805 19.4775 18.2354 19.4775C19.3203 19.4775 20.3703 19.2912 21.3503 18.9526L24.4652 23.8288L28 21.5652L27.9992 21.5661ZM12.7283 9.77149C12.7283 6.73796 15.2018 4.26529 18.2345 4.26529C21.2671 4.26529 23.7407 6.73884 23.7407 9.77149C23.7407 12.8041 21.2671 15.2777 18.2345 15.2777C15.2018 15.2777 12.7283 12.8041 12.7283 9.77149Z" fill="currentColor"/>
</svg>
