<svg width="36" height="39" viewBox="0 0 36 39" xmlns="http://www.w3.org/2000/svg">
<g clip-path="url(#clip0_490_1658)">
<path d="M18 4.008C17.856 4.003 17.686 4 17.515 4C9.127 4 2.293 10.653 2.001 18.97L2 18.997C2.011 22.705 3.425 26.081 5.738 28.625L5.728 28.613C5.384 30.627 4.783 32.431 3.952 34.1L4.003 33.986C6.32 33.788 8.442 33.121 10.33 32.081L10.248 32.122C12.485 33.297 15.135 33.986 17.947 33.986C17.966 33.986 17.985 33.986 18.003 33.986H18C18.15 33.991 18.327 33.994 18.504 33.994C26.888 33.994 33.718 27.339 33.999 19.023L34 18.997C33.707 10.653 26.873 4.001 18.485 4.001C18.314 4.001 18.145 4.004 17.976 4.009L18 4.008ZM10.069 21.852C8.427 21.852 7.095 20.521 7.095 18.878C7.095 17.235 8.427 15.904 10.069 15.904C11.711 15.904 13.043 17.236 13.043 18.878C13.043 20.52 11.711 21.852 10.069 21.852ZM18 21.852C16.358 21.852 15.026 20.521 15.026 18.878C15.026 17.235 16.358 15.904 18 15.904C19.642 15.904 20.974 17.236 20.974 18.878C20.974 20.52 19.643 21.852 18 21.852ZM25.931 21.852C24.289 21.852 22.957 20.521 22.957 18.878C22.957 17.235 24.288 15.904 25.931 15.904C27.573 15.904 28.905 17.236 28.905 18.878C28.905 20.52 27.574 21.852 25.931 21.852Z" />
</g>
<defs>
<clipPath id="clip0_490_1658">
<rect width="36" height="39" fill="white"/>
</clipPath>
</defs>
</svg>
