<svg width="36" height="36" viewBox="0 0 36 36" xmlns="http://www.w3.org/2000/svg">
<path d="M8.132 28.489L2.105 11.929C2.039 11.75 2 11.543 2 11.326C2 10.56 2.482 9.907 3.159 9.653L3.171 9.649L12.811 6.142C12.994 6.072 13.205 6.032 13.426 6.032C14.186 6.032 14.835 6.511 15.087 7.183L15.091 7.195L15.438 8.155L8.345 27.662C8.258 27.896 8.184 28.174 8.136 28.461L8.132 28.489ZM33.892 12.383L25.999 34.09C25.747 34.774 25.101 35.253 24.343 35.253C24.124 35.253 23.914 35.213 23.72 35.14L23.732 35.144L12.759 31.144C12.07 30.886 11.588 30.233 11.588 29.467C11.588 29.251 11.626 29.044 11.697 28.852L11.693 28.864L19.586 7.171C19.84 6.482 20.491 6 21.254 6C21.469 6 21.675 6.038 21.865 6.108L21.853 6.104L32.826 10.104C33.515 10.362 33.997 11.015 33.997 11.781C33.997 11.997 33.959 12.204 33.888 12.396L33.892 12.383ZM27.226 20.969L26.533 19.342C26.394 19.018 26.078 18.796 25.71 18.796C25.589 18.796 25.473 18.82 25.367 18.864L25.373 18.862L24.04 19.449C23.94 19.491 23.825 19.515 23.703 19.515C23.335 19.515 23.019 19.293 22.882 18.975L22.88 18.969L22.307 17.636C22.17 17.317 21.859 17.097 21.496 17.097C21.37 17.097 21.25 17.124 21.141 17.171L21.147 17.169L19.507 17.862C19.186 17.994 18.964 18.304 18.964 18.666C18.964 18.795 18.992 18.917 19.043 19.027L19.041 19.022L21.001 23.649C21.146 23.967 21.462 24.184 21.828 24.184C21.953 24.184 22.072 24.159 22.18 24.113L22.174 24.115L26.787 22.142C27.081 21.999 27.28 21.703 27.28 21.36C27.28 21.217 27.245 21.083 27.184 20.964L27.186 20.969H27.226Z" />
</svg>
