<svg width="36" height="12" viewBox="0 0 36 12" fill="none" xmlns="http://www.w3.org/2000/svg">
<path d="M5.424 0.207999H6.576V1.756H10.596V2.86H6.576V4.72H11.232V5.824H7.524C8.316 7.228 9.648 8.488 11.508 9.604L10.704 10.636C8.772 9.196 7.416 7.6 6.624 5.824H6.576V11.2H5.424V5.824H5.376C4.524 7.768 3.12 9.376 1.176 10.648L0.516 9.58C2.316 8.596 3.636 7.336 4.476 5.824H0.768V4.72H5.424V2.86H1.488V1.756H5.424V0.207999ZM13.62 0.279999C14.436 0.916 15.12 1.552 15.672 2.176L14.868 2.968C14.388 2.368 13.716 1.72 12.84 1.024L13.62 0.279999ZM20.52 11.032C19.86 11.032 19.14 11.02 18.372 11.008C17.592 10.996 16.956 10.924 16.452 10.804C15.972 10.66 15.552 10.372 15.192 9.964C15.024 9.76 14.88 9.664 14.736 9.664C14.484 9.664 14.052 10.204 13.44 11.284L12.6 10.504C13.2 9.532 13.74 8.92 14.22 8.68V5.284H12.612V4.228H15.288V8.764C15.348 8.812 15.408 8.872 15.468 8.944C15.744 9.268 16.032 9.508 16.332 9.664C16.692 9.832 17.22 9.94 17.928 9.964C18.612 9.976 19.416 9.988 20.352 9.988C20.94 9.988 21.54 9.976 22.14 9.964C22.74 9.952 23.208 9.928 23.532 9.904L23.256 11.032H20.52ZM18.444 1.468H16.128V0.52H22.716V1.324C22.02 1.924 21.276 2.428 20.484 2.86C20.508 2.884 20.532 2.896 20.556 2.92H22.968V8.248C22.968 8.956 22.572 9.316 21.792 9.316H20.868L20.628 8.368L21.48 8.416C21.744 8.416 21.888 8.284 21.888 8.02V7.408H20.16V9.376H19.116V7.408H17.424V9.4H16.344V2.92H19.104C18.708 2.656 18.264 2.38 17.772 2.116L18.444 1.468ZM19.788 2.32C20.292 2.068 20.76 1.78 21.192 1.468H18.504C18.96 1.756 19.392 2.032 19.788 2.32ZM17.424 5.644V6.484H19.116V5.644H17.424ZM20.16 5.644V6.484H21.888V5.644H20.16ZM21.888 4.708V3.868H20.16V4.708H21.888ZM19.116 4.708V3.868H17.424V4.708H19.116ZM25.572 0.279999C26.376 0.904 27.06 1.528 27.624 2.152L26.796 2.98C26.316 2.38 25.656 1.72 24.792 1.024L25.572 0.279999ZM32.772 11.032C32.088 11.032 31.344 11.02 30.54 11.008C29.724 10.996 29.052 10.924 28.548 10.804C28.044 10.66 27.6 10.372 27.228 9.964C27.06 9.76 26.892 9.664 26.748 9.664C26.496 9.664 26.052 10.216 25.428 11.332L24.588 10.552C25.2 9.556 25.752 8.932 26.232 8.68V5.296H24.6V4.216H27.324V8.764C27.396 8.812 27.456 8.872 27.516 8.944C27.804 9.256 28.116 9.496 28.428 9.652C28.8 9.82 29.352 9.916 30.096 9.94C30.804 9.952 31.644 9.964 32.628 9.964C33.168 9.964 33.72 9.952 34.284 9.952C34.86 9.928 35.292 9.904 35.592 9.88L35.316 11.032H32.772ZM32.424 9.412H30.732L30.48 8.32C31.02 8.368 31.536 8.392 32.028 8.392C32.352 8.392 32.52 8.224 32.52 7.912V3.148H28.008V2.032H32.52V0.184H33.66V2.032H35.364V3.148H33.66V8.188C33.66 9.004 33.24 9.412 32.424 9.412ZM29.52 4.024C30.264 4.9 30.828 5.668 31.224 6.316L30.312 6.952C29.904 6.244 29.34 5.452 28.632 4.576L29.52 4.024Z" fill="white"/>
</svg>
