<svg width="14" height="15" viewBox="0 0 14 15" fill="none" xmlns="http://www.w3.org/2000/svg">
<g clip-path="url(#clip0_9414_8191)">
<path d="M3.50195 0.5L2.80208 3.29195H11.9004V7.47988L12.9269 7.67377L14 2.59396L3.50195 0.5ZM12.6314 9.33343C12.1799 9.88018 11.6139 10.3218 10.9731 10.6272C10.3323 10.9327 9.63224 11.0946 8.92205 11.1017H2.80208V9.80651C2.80208 9.57384 2.55324 9.57384 2.42104 9.69018L0.0881383 11.9082C0.0607988 11.9284 0.0385852 11.9547 0.023279 11.985C0.00797281 12.0153 0 12.0488 0 12.0827C0 12.1167 0.00797281 12.1501 0.023279 12.1804C0.0385852 12.2107 0.0607988 12.237 0.0881383 12.2572L2.42104 14.452C2.55324 14.5683 2.80208 14.452 2.80208 14.3279V12.9087H8.67321C9.07639 12.8883 9.4745 12.8099 9.85521 12.676C12.8258 11.4662 14.2333 7.55743 12.6314 9.33343Z" fill="white"/>
<path d="M0 3.5V8.5H11V3.5H0ZM5.75208 7.23206V7.88596H5.34722V7.23206C5.05182 7.19942 4.7712 7.08058 4.5375 6.88915L4.8125 6.44258C5.03541 6.61179 5.30105 6.70885 5.57639 6.72169C5.78264 6.72169 5.88958 6.64195 5.88958 6.51435C5.88958 6.14753 4.65208 6.21132 4.65208 5.39793C4.65208 5.01515 4.92708 4.75997 5.34722 4.6882V4.11403H5.76736V4.69617C6.02674 4.73071 6.26682 4.85743 6.44722 5.05502L6.11111 5.42982C5.94494 5.28797 5.73755 5.20924 5.52292 5.20654C5.33194 5.20654 5.23264 5.27831 5.23264 5.41388C5.23264 5.72488 6.47014 5.68501 6.47014 6.4984C6.47778 6.86523 6.21042 7.14434 5.75208 7.23206Z" fill="white"/>
</g>
<defs>
<clipPath id="clip0_9414_8191">
<rect width="14" height="14" fill="white" transform="translate(0 0.5)"/>
</clipPath>
</defs>
</svg>
