<svg width="16" height="16" viewBox="0 0 16 16" fill="none" xmlns="http://www.w3.org/2000/svg">
<path d="M13.3344 5.21095H3.12186C3.06092 5.21095 3.01249 5.26408 3.01874 5.32501L3.9578 15.1688C3.9578 15.6266 4.32967 15.9985 4.78749 15.9985H11.6719C12.1297 15.9985 12.5015 15.6266 12.5015 15.1688L13.4406 5.32501C13.4437 5.26408 13.3969 5.21095 13.3344 5.21095ZM6.07499 13.9203H5.7703C5.56717 13.9203 5.40155 13.7547 5.40155 13.5516L5.02186 7.67658C5.02186 7.47345 5.18749 7.30783 5.39061 7.30783H5.6953C5.89842 7.30783 6.06405 7.47345 6.06405 7.67658L6.44374 13.5516C6.44374 13.7547 6.27811 13.9203 6.07499 13.9203ZM8.75155 13.5516C8.75155 13.7547 8.58592 13.9203 8.3828 13.9203H8.07811C7.87499 13.9203 7.70936 13.7547 7.70936 13.5516V7.67658C7.70936 7.47345 7.87499 7.30783 8.07811 7.30783H8.3828C8.58592 7.30783 8.75155 7.47345 8.75155 7.67658V13.5516ZM11.0687 13.5516C11.0687 13.7547 10.9031 13.9203 10.7 13.9203H10.3953C10.1922 13.9203 10.0265 13.7547 10.0265 13.5516L10.4062 7.67658C10.4062 7.47345 10.5719 7.30783 10.775 7.30783H11.0797C11.2828 7.30783 11.4484 7.47345 11.4484 7.67658L11.0687 13.5516ZM13.5828 2.39376L2.56717 4.92501C2.50467 4.93908 2.44374 4.90001 2.42967 4.83908L2.29217 4.23751C2.18592 3.77658 2.47655 3.31251 2.93749 3.20626L12.5 1.00783C12.9609 0.901576 13.425 1.1922 13.5312 1.65314L13.6687 2.2547C13.6828 2.3172 13.6453 2.3797 13.5828 2.39376ZM6.03905 1.98908C5.93749 1.55314 6.21092 1.11251 6.64842 1.01095L8.1828 0.654701C8.61874 0.553139 9.05936 0.826576 9.16092 1.26408L9.2203 1.5172L9.91249 1.35626L9.86405 1.14845C9.68124 0.360951 8.88749 -0.132799 8.10155 0.0500136L6.46249 0.431264C5.67499 0.614076 5.18124 1.40783 5.36405 2.19376L5.41092 2.39845L6.09686 2.23908L6.03905 1.98908Z" fill="#B1BAD3"/>
</svg>
