<svg fill="currentColor" viewBox="0 0 64 64" class="svg-icon" style=""> <title></title> <path fill-rule="evenodd" clip-rule="evenodd" d="M33.092 14.967 18.97.847a2.84 2.84 0 0 0-4.018 0L.833 14.966a2.84 2.84 0 0 0 0 4.018l14.12 14.12a2.84 2.84 0 0 0 4.018 0l14.12-14.12a2.84 2.84 0 0 0 0-4.018ZM61.16 4.137H41.191a2.84 2.84 0 0 0-2.84 2.84v19.969a2.84 2.84 0 0 0 2.84 2.84H61.16a2.84 2.84 0 0 0 2.84-2.84V6.977a2.84 2.84 0 0 0-2.84-2.84Zm-54.17 34.2h19.97a2.84 2.84 0 0 1 2.84 2.84v19.969a2.84 2.84 0 0 1-2.84 2.84H6.99a2.84 2.84 0 0 1-2.839-2.84V41.177a2.84 2.84 0 0 1 2.84-2.84Zm54.17 0H41.191a2.84 2.84 0 0 0-2.84 2.84v19.969a2.84 2.84 0 0 0 2.84 2.84H61.16a2.84 2.84 0 0 0 2.84-2.84V41.177a2.84 2.84 0 0 0-2.84-2.84Z"></path></svg>
