<svg width="28" height="28" viewBox="0 0 28 28" fill="none" xmlns="http://www.w3.org/2000/svg">
<path d="M23.3774 17.6969C22.3143 17.2331 26.3218 10.8806 19.5012 5.3025C19.5012 5.3025 19.8205 9.63813 17.9524 9.63813C16.5612 9.625 19.1949 3.0625 12.9168 0C12.9168 0 14.4393 3.5 9.18929 7C4.81429 9.92688 5.17304 13.0813 5.63679 15.2513C6.10054 17.4212 3.78617 16.8 3.16054 15.2513C3.16054 15.2513 2.53929 28 13.6912 28C24.843 28 24.8474 16.5331 24.8474 16.5331C24.8474 16.5331 24.4624 18.1606 23.3774 17.6969ZM20.1443 16.8219L17.9787 18.9438C17.8247 19.0951 17.7293 19.306 17.7293 19.5396C17.7293 19.5921 17.7345 19.6429 17.7433 19.6928L17.7424 19.6875L18.2543 22.6669C18.263 22.7115 18.2674 22.7631 18.2674 22.8156C18.2674 23.2698 17.899 23.6381 17.4449 23.6381C17.304 23.6381 17.171 23.6022 17.0555 23.5401L17.0599 23.5419L14.3868 22.1331C14.2748 22.0771 14.1418 22.0439 14.0018 22.0439C13.8618 22.0439 13.7288 22.0771 13.6115 22.1357L13.6168 22.1331L10.9393 23.52C10.8273 23.5804 10.6952 23.6162 10.5543 23.6162C10.1002 23.6162 9.73179 23.2479 9.73179 22.7937C9.73179 22.7412 9.73704 22.6896 9.74579 22.6406L9.74492 22.6459L10.2612 19.6884C10.2682 19.6472 10.2725 19.6 10.2725 19.551C10.2725 19.3191 10.178 19.1091 10.0249 18.9578L7.87679 16.8359C7.72104 16.6862 7.62479 16.4762 7.62479 16.2435C7.62479 15.8357 7.92054 15.498 8.30991 15.4324L8.31517 15.4315L11.3077 14.994C11.5789 14.9581 11.8047 14.7919 11.9228 14.5609L11.9245 14.5565L13.2633 11.8484C13.4024 11.5754 13.6807 11.3916 14.0027 11.3916C14.3247 11.3916 14.6029 11.5754 14.7403 11.844L14.742 11.8484L16.0808 14.5565C16.2007 14.7919 16.4264 14.9581 16.6933 14.994H16.6977L19.6902 15.4315C20.0839 15.498 20.3797 15.8357 20.3797 16.2435C20.3797 16.4762 20.2834 16.6862 20.1277 16.8359L20.1443 16.8219Z" fill="currentColor"/>
</svg>
