<svg width="200" height="200" viewBox="0 0 200 200" fill="none" xmlns="http://www.w3.org/2000/svg">
<path d="M100.073 46.7863C90.8467 46.7863 83.3467 39.2863 83.3467 30.0597C83.3467 20.833 90.8467 13.333 100.073 13.333C109.3 13.333 116.8 20.833 116.8 30.0597C116.8 39.2863 109.3 46.7863 100.073 46.7863ZM100.073 20.6997C94.9133 20.6997 90.7133 24.8997 90.7133 30.0597C90.7133 35.2197 94.9133 39.4197 100.073 39.4197C105.233 39.4197 109.433 35.2197 109.433 30.0597C109.433 24.8997 105.233 20.6997 100.073 20.6997Z" fill="#263742"/>
<path d="M172.541 119.66C172.541 159.68 140.094 192.127 100.074 192.127C60.0541 192.127 27.6074 159.68 27.6074 119.66C27.6074 79.64 60.0541 47.1934 100.074 47.1934C140.094 47.1934 172.541 79.64 172.541 119.66Z" fill="#263742"/>
<path d="M173.48 110.146C173.48 150.686 140.614 183.553 100.074 183.553C59.5337 183.553 26.667 150.686 26.667 110.146C26.667 69.6059 59.5337 36.7393 100.074 36.7393C140.614 36.7393 173.48 69.6059 173.48 110.146Z" fill="#334552"/>
<path d="M144.294 69.493L121.12 53.613L131.974 37.773C135.667 32.3797 158.834 48.2664 155.147 53.653L144.294 69.493Z" fill="#0C1D29"/>
<path d="M163.014 110.146C163.014 144.906 134.834 173.086 100.074 173.086C65.3138 173.086 37.1338 144.906 37.1338 110.146C37.1338 75.3861 65.3138 47.2061 100.074 47.2061C134.834 47.2061 163.014 75.3861 163.014 110.146Z" fill="#263742"/>
<path d="M153.6 110.147C153.6 139.713 129.634 163.673 100.074 163.673C70.5135 163.673 46.5469 139.707 46.5469 110.147C46.5469 80.5801 70.5135 56.6201 100.074 56.6201C129.634 56.6201 153.6 80.5868 153.6 110.147Z" fill="#0C1D29"/>
<path d="M104.56 110.147C104.56 112.627 102.554 114.633 100.074 114.633C97.5936 114.633 95.5869 112.627 95.5869 110.147C95.5869 107.667 97.5936 105.66 100.074 105.66C102.554 105.66 104.56 107.667 104.56 110.147Z" fill="#69E244"/>
<path d="M89.4141 132.826C76.9075 126.946 71.5141 111.986 77.3875 99.4864C83.2675 86.9797 98.2275 81.5864 110.727 87.4597C114.047 89.0197 115.474 92.9731 113.907 96.2931C112.341 99.6131 108.394 101.04 105.074 99.4731C99.1941 96.7064 92.1608 99.2397 89.4075 105.12C86.6408 111 89.1741 118.033 95.0541 120.786C97.5475 121.953 100.274 122.22 102.941 121.553C106.501 120.66 110.107 122.806 111.007 126.366C111.907 129.926 109.754 133.533 106.194 134.433C100.594 135.846 94.6408 135.266 89.4075 132.813L89.4141 132.826Z" fill="#3C8725"/>
<path d="M61.6535 92.0868C71.6135 70.9068 96.9401 61.7668 118.127 71.7268C139.307 81.6868 148.447 107.013 138.487 128.2C131.573 142.913 117.18 152.253 100.92 152.6C97.7135 152.667 95.0601 150.12 94.9868 146.907C94.9201 143.687 97.4668 141.047 100.68 140.973C112.493 140.727 122.947 133.94 127.967 123.26C135.193 107.873 128.567 89.4735 113.18 82.2468C97.7935 75.0201 79.3935 81.6468 72.1668 97.0335C70.8001 99.9335 67.3401 101.187 64.4335 99.8268C61.5268 98.4668 60.2801 95.0001 61.6401 92.0935L61.6535 92.0868Z" fill="#263742"/>
<path d="M65.54 126.26V136.986H76.2667L65.54 126.26Z" fill="#69E244"/>
</svg>
