<svg width="16" height="17" viewBox="0 0 16 17" fill="none" xmlns="http://www.w3.org/2000/svg">
<mask id="mask0_11370_1152" style="mask-type:luminance" maskUnits="userSpaceOnUse" x="0" y="0" width="16" height="17">
<path d="M16 0.453369H0V16.5464H16V0.453369Z" fill="white"/>
</mask>
<g mask="url(#mask0_11370_1152)">
<path d="M0.0351562 2.64895C0.0351562 3.8735 2.47702 4.86551 5.48937 4.86551C8.50172 4.86551 10.9454 3.8735 10.9454 2.64895C10.9454 1.42438 8.50355 0.432373 5.49118 0.432373C2.47883 0.432373 0.0351562 1.42438 0.0351562 2.64895Z" fill="#B1BAD3"/>
<path d="M5.48951 7.62528C6.28166 7.62709 7.07199 7.55441 7.84961 7.40543C8.63268 6.79678 9.56107 6.40435 10.544 6.26808C10.8002 6.05369 10.9546 5.74118 10.9746 5.4087V3.54642C10.8983 4.7401 8.49097 5.70485 5.5204 5.70485C2.54983 5.70485 0.0371104 4.71103 0.0371104 3.48828V5.39962C0.0352935 6.63145 2.48079 7.62528 5.48951 7.62528Z" fill="#B1BAD3"/>
<path d="M5.48937 8.41928C2.48065 8.41928 0.0351562 7.42545 0.0351562 6.16455V8.07408C0.0351562 9.29682 2.48065 10.2906 5.48937 10.2906H5.87091C6.07985 9.58025 6.42869 8.91891 6.89381 8.34116C6.42869 8.39384 5.95994 8.41928 5.48937 8.41928Z" fill="#B1BAD3"/>
<path d="M5.70921 11.1228H5.48937C2.46975 11.1228 0.0351562 10.1672 0.0351562 8.90625V10.8176C0.0351562 12.0404 2.48065 13.0341 5.48937 13.0341H5.76735C5.63654 12.4037 5.61655 11.7569 5.70921 11.1228Z" fill="#B1BAD3"/>
<path fill-rule="evenodd" clip-rule="evenodd" d="M11.2096 16.5465C13.8555 16.5465 16.0003 14.4016 16.0003 11.7558C16.0003 9.10995 13.8555 6.96509 11.2096 6.96509C8.56381 6.96509 6.41895 9.10995 6.41895 11.7558C6.41895 14.4016 8.56381 16.5465 11.2096 16.5465ZM12.8376 11.7093C12.8376 12.634 12.0879 13.3837 11.1631 13.3837C10.2384 13.3837 9.48871 12.634 9.48871 11.7093C9.48871 10.7845 10.2384 10.0349 11.1631 10.0349C12.0879 10.0349 12.8376 10.7845 12.8376 11.7093ZM12.6756 13.8301C12.2492 14.1347 11.7271 14.3139 11.1631 14.3139C10.6209 14.3139 10.1173 14.1483 9.70034 13.8647L9.22139 14.3436L8.63397 13.7562L9.09601 13.2942C8.75888 12.8551 8.55848 12.3056 8.55848 11.7093C8.55848 11.1216 8.75312 10.5793 9.08147 10.1435L8.63397 9.696L9.22139 9.10859L9.68034 9.56757C10.1012 9.27567 10.6122 9.10462 11.1631 9.10462C11.7358 9.10462 12.2652 9.2894 12.6951 9.60259L13.0007 9.297L13.1892 9.10858L13.7765 9.69599L13.5867 9.88593L13.2805 10.1921C13.5872 10.6193 13.7678 11.1432 13.7678 11.7093C13.7678 12.284 13.5816 12.8152 13.2664 13.246L13.5867 13.5663L13.7765 13.7563L13.1892 14.3436L13.0007 14.1552L12.6756 13.8301Z" fill="#B1BAD3"/>
</g>
</svg>
