<svg width="28" height="28" viewBox="0 0 28 28" fill="none" xmlns="http://www.w3.org/2000/svg">
<path d="M24.2553 14C24.2501 13.4024 24.1993 12.8214 24.1066 12.2544L24.1153 12.32L27.6853 9.695L24.5703 4.305L20.5217 6.07862C19.6878 5.39437 18.7227 4.82737 17.6771 4.42312L17.6053 4.39862L17.1153 0H10.8853L10.3953 4.39862C9.27795 4.82737 8.31283 5.39437 7.4597 6.0935L7.47808 6.07862L3.42945 4.305L0.314453 9.695L3.88445 12.32C3.80045 12.8214 3.7497 13.4024 3.74445 13.9947V14C3.7497 14.5976 3.80045 15.1786 3.8932 15.7456L3.88445 15.68L0.314453 18.305L3.42945 23.695L7.47808 21.9214C8.31195 22.6056 9.27708 23.1726 10.3227 23.5769L10.3945 23.6014L10.8845 28H17.1145L17.6045 23.6014C18.7218 23.1726 19.687 22.6056 20.5401 21.9065L20.5217 21.9214L24.5703 23.695L27.6853 18.305L24.1153 15.68C24.1993 15.1786 24.2501 14.5976 24.2553 14.0053V14ZM14.0003 17.7914C11.9065 17.7914 10.209 16.0939 10.209 14C10.209 11.9061 11.9065 10.2086 14.0003 10.2086C16.0942 10.2086 17.7917 11.9061 17.7917 14C17.7847 16.0912 16.0916 17.7852 14.0003 17.7914Z" fill="currentColor"/>
</svg>
