<svg width="28" height="28" viewBox="0 0 28 28" fill="none" xmlns="http://www.w3.org/2000/svg">
<path d="M5.81561 26.46C5.81561 26.985 5.85061 27.4986 5.92061 28H0.0292969C0.390668 24.6164 2.68927 21.8164 5.80423 20.7314C6.2006 20.9178 6.63285 21.0578 7.07559 21.1628C6.2706 22.7492 5.81561 24.5578 5.81561 26.4591V26.46Z" fill="currentColor"/>
<path d="M12.4764 15.8199C11.3564 16.3686 10.3301 17.0799 9.44283 17.9435C9.09283 18.2699 8.76646 18.6322 8.46284 19.0049C7.57648 18.9699 6.77149 18.6899 6.08287 18.2113C4.88151 17.3949 4.08789 16.0063 4.08789 14.4427C4.08789 11.9114 6.14149 9.86914 8.66146 9.86914C9.25646 9.86914 9.82783 9.98551 10.3414 10.1955C10.3178 10.3355 10.3178 10.4755 10.3178 10.6269C10.3178 12.6569 11.1464 14.4882 12.4764 15.8182V15.8199Z" fill="currentColor"/>
<path d="M14.8447 23.5308C14.8447 25.1058 15.1247 26.6108 15.6261 27.9994H8.26481C8.19481 27.498 8.14844 26.9844 8.14844 26.4594C8.14844 24.5458 8.71981 22.7608 9.6998 21.2681C9.88617 20.9645 10.0962 20.6845 10.3298 20.4045C10.5284 20.1595 10.7498 19.9145 10.9834 19.6809C11.077 19.5995 11.1584 19.5059 11.252 19.4245C11.6134 19.1095 11.987 18.8059 12.3834 18.5495C12.6048 18.3981 12.8148 18.2695 13.0484 18.1409C13.6084 17.8373 14.192 17.5809 14.822 17.3945C14.8456 17.4059 14.8684 17.4182 14.892 17.4182C15.3006 17.5818 15.7206 17.7095 16.1633 17.8032C15.802 18.5381 15.5097 19.3195 15.2884 20.1245C15.1834 20.5445 15.0897 20.9645 15.0197 21.3959C14.9384 21.8745 14.8911 22.3522 14.8561 22.8422C14.8447 23.0758 14.8447 23.3086 14.8447 23.5308Z" fill="currentColor"/>
<path d="M22.6167 11.585C22.6167 11.585 22.5467 11.6087 22.5231 11.6314C20.9245 12.355 19.5018 13.3814 18.3345 14.6528C18.0432 14.9564 17.7745 15.2714 17.5182 15.6091C16.8068 15.6091 16.1418 15.4341 15.5346 15.1428C15.3832 15.0841 15.2309 15.0028 15.0909 14.9091C14.8459 14.7805 14.6123 14.6055 14.4023 14.4191C13.3287 13.5091 12.6523 12.1555 12.6523 10.6278C12.6523 10.5342 12.6523 10.4292 12.6637 10.3364C12.6873 9.88144 12.7801 9.43782 12.9201 9.01782C13.5851 7.05784 15.4514 5.64648 17.645 5.64648C18.485 5.64648 19.2786 5.85648 19.9664 6.2301C20.1064 8.33008 21.075 10.1964 22.545 11.515C22.545 11.515 22.5914 11.5737 22.615 11.585H22.6167Z" fill="currentColor"/>
<path d="M27.9709 13.6145V27.9993H18.1597C17.5883 26.7629 17.2497 25.4093 17.1911 23.9743C17.1797 23.8343 17.1797 23.683 17.1797 23.5307C17.1797 23.0294 17.2147 22.5394 17.2847 22.0607C17.4947 20.5321 18.0197 19.0972 18.801 17.8494C18.9647 17.593 19.1274 17.3594 19.3024 17.1144C19.501 16.8458 19.711 16.5894 19.9324 16.3444C20.0024 16.2631 20.0838 16.1808 20.166 16.0994C20.481 15.7731 20.8196 15.4581 21.181 15.1781C21.6474 14.7931 22.1496 14.4545 22.6746 14.1631C23.2346 13.8481 23.8182 13.5917 24.4246 13.3817C24.681 13.2881 24.9496 13.2067 25.206 13.1367C25.206 13.1481 25.2173 13.1481 25.2296 13.1367C26.0582 13.4517 26.9682 13.6153 27.9132 13.6153H27.9718L27.9709 13.6145Z" fill="currentColor"/>
<path d="M7.07559 21.1637C6.2706 22.75 5.81561 24.5587 5.81561 26.46C5.81561 26.985 5.85061 27.4986 5.92061 28H0.0292969C0.390668 24.6164 2.68927 21.8164 5.80423 20.7314C6.2006 20.9178 6.63285 21.0587 7.07559 21.1637Z" fill="currentColor"/>
<path d="M4.08789 14.4437C4.08789 11.9123 6.14149 9.87012 8.66146 9.87012C9.25646 9.87012 9.82783 9.98649 10.3414 10.1965C10.3178 10.3365 10.3178 10.4765 10.3178 10.6279C10.3178 12.6578 11.1464 14.4892 12.4764 15.8192C11.3564 16.3678 10.3301 17.0792 9.44283 17.9428C9.09283 18.2691 8.76646 18.6314 8.46284 19.0041C7.57648 18.9691 6.77149 18.6891 6.08287 18.2105C4.88151 17.3942 4.08789 16.0055 4.08789 14.4419V14.4437Z" fill="currentColor"/>
<path d="M14.8561 22.8545C14.8911 22.3531 14.9375 21.8745 15.0197 21.3959C15.0897 20.9645 15.1834 20.5445 15.2884 20.1245C15.5097 19.3195 15.802 18.5381 16.1633 17.8032C15.7197 17.7095 15.2997 17.5818 14.892 17.4182C14.8684 17.4182 14.8456 17.4068 14.822 17.3945C14.192 17.5809 13.6084 17.8382 13.0484 18.1409C12.8148 18.2695 12.6048 18.3973 12.3834 18.5495C11.987 18.8059 11.6134 19.1095 11.252 19.4245C11.1584 19.5059 11.077 19.5995 10.9834 19.6809C10.7498 19.9145 10.5284 20.1595 10.3298 20.4045C10.0962 20.6845 9.88617 20.9645 9.6998 21.2681C8.71981 22.7617 8.14844 24.5467 8.14844 26.4594C8.14844 26.9844 8.19481 27.498 8.26481 27.9994H15.6261C15.1247 26.6108 14.8447 25.1058 14.8447 23.5308C14.8447 23.3095 14.8447 23.0758 14.8561 22.8545Z" fill="currentColor"/>
<path d="M14.4023 14.4201C13.3287 13.5101 12.6523 12.1565 12.6523 10.6288C12.6523 10.5352 12.6523 10.4302 12.6637 10.3374C12.6873 9.88241 12.7801 9.43879 12.9201 9.0188C13.5851 7.05882 15.4514 5.64746 17.645 5.64746C18.485 5.64746 19.2786 5.85746 19.9664 6.23108C20.1064 8.33106 21.075 10.1974 22.545 11.516C22.545 11.516 22.5914 11.5746 22.615 11.586C22.58 11.586 22.545 11.6096 22.5214 11.6324C20.9228 12.356 19.5 13.3824 18.3328 14.6537C18.0414 14.9574 17.7728 15.2724 17.5164 15.6101C16.805 15.6101 16.1401 15.4351 15.5328 15.1437C15.3814 15.0851 15.2292 15.0037 15.0892 14.9101C14.8442 14.7815 14.6106 14.6065 14.4006 14.4201H14.4023Z" fill="currentColor"/>
<path d="M27.9718 0V11.2812H27.9132C27.0268 11.2812 26.1868 11.0712 25.4396 10.7099C25.2759 10.6285 25.1132 10.5463 24.9609 10.4413C24.4709 10.1499 24.0396 9.77627 23.666 9.3449C23.0123 8.59853 22.5573 7.68854 22.3823 6.68493C22.3123 6.3463 22.2773 5.99631 22.2773 5.64631C22.2773 5.42494 22.2887 5.20269 22.3123 4.98132C22.6273 2.18135 25.0187 0 27.9123 0H27.9718Z" fill="currentColor"/>
<path d="M27.9123 13.6145H27.9709V27.9993H18.1597C17.5883 26.7629 17.2497 25.4093 17.1911 23.9743C17.1797 23.8343 17.1797 23.683 17.1797 23.5307C17.1797 23.0294 17.2147 22.5394 17.2847 22.0607C17.4947 20.5321 18.0197 19.0972 18.801 17.8494C18.9647 17.593 19.1274 17.3594 19.3024 17.1144C19.501 16.8458 19.711 16.5894 19.9324 16.3444C20.0024 16.2631 20.0838 16.1808 20.166 16.0994C20.481 15.7731 20.8196 15.4581 21.181 15.1781C21.6474 14.7931 22.1496 14.4545 22.6746 14.1631C23.2346 13.8481 23.8182 13.5917 24.4246 13.3817C24.681 13.2881 24.9496 13.2067 25.206 13.1367C25.206 13.1481 25.2173 13.1481 25.2296 13.1367C26.0582 13.4517 26.9682 13.6153 27.9132 13.6153L27.9123 13.6145Z" fill="currentColor"/>
</svg>
