<svg width="24" height="24" viewBox="0 0 24 24" xmlns="http://www.w3.org/2000/svg">
<path fill-rule="evenodd" clip-rule="evenodd" d="M19 7.16666L12 3L5 7.16666V15.5L12 19.6666L19 15.5V7.16666Z" fill="#636B6B"/>
<path fill-rule="evenodd" clip-rule="evenodd" d="M12 3L5 7.16666V15.5L12 19.6666L19 15.5V7.16666L12 3ZM18.5833 7.40354L12 3.48489L5.41667 7.40354V15.2631L12 19.1817L18.5833 15.2631V7.40354Z" fill="#FDE6CA"/>
<path d="M21.9993 9.83301L19.916 10.4163V12.7497C21.1478 12.4048 21.9993 11.282 21.9993 10.0029V9.83301Z" fill="#D1C3AF"/>
<path d="M2 9.83301L4.08333 10.4163V12.7497C2.85155 12.4048 2 11.282 2 10.0029V9.83301Z" fill="#D1C3AF"/>
<path d="M11.9993 15.333C13.8751 15.333 15.0827 14.3925 15.0827 13.0572C15.0827 11.8961 14.051 11.2808 13.2538 11.1995C14.1213 11.0485 14.9654 10.4099 14.9654 9.43461C14.9654 8.14578 13.8399 7.33301 12.011 7.33301C10.6394 7.33301 9.65461 7.85551 9.02153 8.56378L9.85391 9.59716C10.4049 9.07466 11.0849 8.796 11.8352 8.796C12.6558 8.796 13.2889 9.09789 13.2889 9.71327C13.2889 10.2822 12.7145 10.5376 11.8469 10.5376C11.5538 10.5376 11.0146 10.5376 10.8739 10.526V12.0122C10.9911 12.0006 11.5187 11.989 11.8469 11.989C12.9372 11.989 13.4179 12.2677 13.4179 12.8831C13.4179 13.4636 12.8903 13.87 11.9407 13.87C11.1787 13.87 10.3229 13.5449 9.78357 12.9876L8.91602 14.0906C9.49048 14.7873 10.5573 15.333 11.9993 15.333Z" fill="#FDE6CA"/>
</svg>
