<svg width="41" height="40" viewBox="0 0 41 40" fill="none" xmlns="http://www.w3.org/2000/svg">
<path d="M39.7986 30.9123L30.6507 21.7644C28.8461 19.9598 26.1509 19.6083 23.9792 20.6785L15.6515 12.3509V7.49958L5.65207 0L0.652343 4.99972L8.15193 14.9992H13.0032L21.3309 23.3268C20.2684 25.4986 20.6122 28.1937 22.4168 29.9983L31.5647 39.1463C32.7052 40.2868 34.5489 40.2868 35.6816 39.1463L39.7986 35.0293C40.9314 33.8887 40.9314 32.0451 39.7986 30.9123ZM26.565 17.5771C28.7758 17.5771 30.8538 18.4365 32.4162 19.9989L33.9317 21.5144C35.166 20.9754 36.3379 20.2254 37.3534 19.2099C40.2517 16.3116 41.236 12.2337 40.3142 8.53077C40.1423 7.82769 39.2596 7.58551 38.744 8.10111L32.9318 13.9133L27.6274 13.0305L26.7446 7.72613L32.5568 1.91396C33.0724 1.39836 32.8224 0.515596 32.1115 0.335919C28.4086 -0.578093 24.3307 0.406227 21.4402 3.29669C19.2138 5.52313 18.167 8.46047 18.2217 11.39L24.6354 17.8037C25.2682 17.6553 25.9244 17.5771 26.565 17.5771ZM18.4482 23.983L14.0188 19.5536L2.1132 31.467C0.160183 33.42 0.160183 36.5839 2.1132 38.5369C4.06622 40.4899 7.2301 40.4899 9.18312 38.5369L18.8388 28.8812C18.2451 27.3266 18.0654 25.6314 18.4482 23.983ZM5.65207 36.8729C4.62087 36.8729 3.77717 36.0292 3.77717 34.998C3.77717 33.959 4.61306 33.1232 5.65207 33.1232C6.69107 33.1232 7.52696 33.959 7.52696 34.998C7.52696 36.0292 6.69107 36.8729 5.65207 36.8729Z" fill="#B1BAD3"/>
</svg>
