<svg width="22" height="22" viewBox="0 0 22 22" xmlns="http://www.w3.org/2000/svg">
<path d="M11 1C5.49 1 1 5.49 1 11C1 16.51 5.49 21 11 21C16.51 21 21 16.51 21 11C21 5.49 16.51 1 11 1ZM12 17H10V15.41H12V17ZM13.92 10.97L13.06 11.85C12.45 12.47 12.13 12.82 12.05 14L10.04 13.97C10.04 12.92 10.47 12.07 11.16 11.37L12.34 10.17C12.69 9.83 12.9 9.35 12.9 8.82C12.9 7.77 12.04 6.91 10.99 6.91C10.03 6.91 9.23 7.85 9.1 8.82H7.19C7.33 6.82 8.97 5 10.99 5C13.01 5 14.81 6.71 14.81 8.82C14.81 9.66 14.47 10.42 13.92 10.97Z" />
</svg>
