<svg width="36" height="36" viewBox="0 0 36 36" fill="none" xmlns="http://www.w3.org/2000/svg">
<g clip-path="url(#clip0_614_4514)">
<path d="M29.361 18C29.355 17.317 29.297 16.653 29.191 16.005L29.201 16.08L33.281 13.08L29.721 6.92L25.094 8.947C24.141 8.165 23.038 7.517 21.843 7.055L21.761 7.027L21.201 2H14.081L13.521 7.027C12.244 7.517 11.141 8.165 10.166 8.964L10.187 8.947L5.56 6.92L2 13.08L6.08 16.08C5.984 16.653 5.926 17.317 5.92 17.994V18C5.926 18.683 5.984 19.347 6.09 19.995L6.08 19.92L2 22.92L5.56 29.08L10.187 27.053C11.14 27.835 12.243 28.483 13.438 28.945L13.52 28.973L14.08 34H21.2L21.76 28.973C23.037 28.483 24.14 27.835 25.115 27.036L25.094 27.053L29.721 29.08L33.281 22.92L29.201 19.92C29.297 19.347 29.355 18.683 29.361 18.006V18ZM17.641 22.333C15.248 22.333 13.308 20.393 13.308 18C13.308 15.607 15.248 13.667 17.641 13.667C20.034 13.667 21.974 15.607 21.974 18C21.966 20.39 20.031 22.326 17.641 22.333Z" fill="#B1BAD3"/>
</g>
<defs>
<clipPath id="clip0_614_4514">
<rect width="36" height="36" fill="white"/>
</clipPath>
</defs>
</svg>
