<svg width="36" height="36" viewBox="0 0 36 36" xmlns="http://www.w3.org/2000/svg">
<g clip-path="url(#clip0_637_2593)">
<path d="M30.653 16.832L7 3.179C6.809 3.067 6.579 3 6.333 3C5.597 3 5 3.597 5 4.333C5 4.335 5 4.337 5 4.339V31.646C5 31.648 5 31.649 5 31.651C5 32.387 5.597 32.984 6.333 32.984C6.578 32.984 6.808 32.918 7.006 32.802L7 32.805L30.653 19.152C31.06 18.918 31.329 18.487 31.329 17.992C31.329 17.497 31.06 17.066 30.66 16.835L30.653 16.832Z" />
</g>
<defs>
<clipPath id="clip0_637_2593">
<rect width="36" height="36" fill="white"/>
</clipPath>
</defs>
</svg>
