<svg fill="currentColor" viewBox="0 0 64 64" class="svg-icon" style=""> <title></title> <path fill-rule="evenodd" clip-rule="evenodd" d="M0 49.5v-46h64v46H0Zm26.5-7c2.21 0 4-1.79 4-4v-24c0-2.21-1.79-4-4-4h-16c-2.21 0-4 1.79-4 4v24c0 2.21 1.79 4 4 4h16Zm27 0c2.21 0 4-1.79 4-4v-24c0-2.21-1.79-4-4-4h-16c-2.21 0-4 1.79-4 4v24c0 2.21 1.79 4 4 4h16Zm-4.25 12h-34v6h34v-6Zm-30.75-38c-4.64 0-7.28 3.73-7.28 10s2.64 10 7.28 10c4.64 0 7.28-3.73 7.28-10s-2.65-10-7.28-10Zm0 15.78c-1.74 0-2.7-2.07-2.7-5.83 0-3.76 1-5.83 2.7-5.83 1.7 0 2.7 2.11 2.7 5.83s-.97 5.83-2.7 5.83Zm19.72-5.78c0-6.27 2.64-10 7.28-10 4.63 0 7.28 3.73 7.28 10s-2.64 10-7.28 10c-4.64 0-7.28-3.73-7.28-10Zm4.58-.05c0 3.76.96 5.83 2.7 5.83 1.73 0 2.7-2.11 2.7-5.83s-1-5.83-2.7-5.83c-1.7 0-2.7 2.07-2.7 5.83Z"></path></svg>
