<svg width="36" height="36" viewBox="0 0 36 36" fill="none" xmlns="http://www.w3.org/2000/svg">
<path d="M25.1654 21.2754C24.1224 22.8274 22.8274 24.1224 21.3254 25.1334L21.2754 25.1654L30.1104 34.0004L34.0004 30.1104L25.1654 21.2754Z" fill="#B1BAD3"/>
<path d="M13.55 2C7.171 2 2 7.171 2 13.55C2 19.929 7.171 25.1 13.55 25.1C19.929 25.1 25.1 19.929 25.1 13.55C25.1 7.171 19.929 2 13.55 2ZM13.55 20.5C9.712 20.5 6.6 17.388 6.6 13.55C6.6 9.712 9.712 6.6 13.55 6.6C17.388 6.6 20.5 9.712 20.5 13.55C20.5 17.388 17.388 20.5 13.55 20.5Z" fill="#B1BAD3"/>
</svg>
