<svg width="14" height="14" viewBox="0 0 14 14" fill="none" xmlns="http://www.w3.org/2000/svg">
<path d="M11.6674 4.55961H2.73148C2.67816 4.55961 2.63577 4.6061 2.64124 4.65942L3.46292 13.2727C3.46292 13.6733 3.78831 13.9987 4.1889 13.9987H10.2127C10.6133 13.9987 10.9387 13.6733 10.9387 13.2727L11.7604 4.65942C11.7631 4.6061 11.7221 4.55961 11.6674 4.55961ZM5.31546 12.1803H5.04886C4.87112 12.1803 4.7262 12.0354 4.7262 11.8577L4.39398 6.71703C4.39398 6.5393 4.5389 6.39438 4.71663 6.39438H4.98323C5.16097 6.39438 5.30589 6.5393 5.30589 6.71703L5.63812 11.8577C5.63812 12.0354 5.4932 12.1803 5.31546 12.1803ZM7.65745 11.8577C7.65745 12.0354 7.51253 12.1803 7.3348 12.1803H7.0682C6.89046 12.1803 6.74554 12.0354 6.74554 11.8577V6.71703C6.74554 6.5393 6.89046 6.39438 7.0682 6.39438H7.3348C7.51253 6.39438 7.65745 6.5393 7.65745 6.71703V11.8577ZM9.68499 11.8577C9.68499 12.0354 9.54007 12.1803 9.36234 12.1803H9.09573C8.918 12.1803 8.77308 12.0354 8.77308 11.8577L9.1053 6.71703C9.1053 6.5393 9.25023 6.39438 9.42796 6.39438H9.69456C9.8723 6.39438 10.0172 6.5393 10.0172 6.71703L9.68499 11.8577ZM11.8848 2.09457L2.24613 4.30942C2.19144 4.32172 2.13812 4.28754 2.12581 4.23422L2.0055 3.70786C1.91253 3.30453 2.16683 2.89848 2.57015 2.80551L10.9373 0.881878C11.3407 0.78891 11.7467 1.04321 11.8397 1.44653L11.96 1.97289C11.9723 2.02758 11.9395 2.08227 11.8848 2.09457ZM5.28402 1.74047C5.19515 1.35903 5.43441 0.97348 5.81722 0.884613L7.1598 0.572894C7.54124 0.484027 7.92679 0.723285 8.01566 1.1061L8.06761 1.32758L8.67327 1.18676L8.63089 1.00493C8.47093 0.315863 7.7764 -0.116168 7.0887 0.0437924L5.65452 0.377386C4.96546 0.537347 4.53343 1.23188 4.69339 1.91957L4.73441 2.09868L5.3346 1.95922L5.28402 1.74047Z" fill="#ED4163"/>
</svg>
