<svg width="28" height="28" viewBox="0 0 28 28" fill="none" xmlns="http://www.w3.org/2000/svg">
<path d="M12.8259 10.1379C12.2927 10.1379 11.8603 10.5703 11.8603 11.1034C11.8603 11.6366 12.2927 12.069 12.8259 12.069V10.1379ZM10.2255 0.51437C9.7332 0.719059 9.49997 1.28416 9.70466 1.77655C9.90935 2.26893 10.4744 2.50216 10.9669 2.29747L10.2255 0.51437ZM9.1406 6.44664C9.52434 6.81688 10.1356 6.80593 10.5057 6.42218C10.8761 6.03842 10.8651 5.42719 10.4814 5.05694L9.1406 6.44664ZM11.0385 2.26806C11.5236 2.04661 11.7371 1.47382 11.5157 0.988767C11.2944 0.503691 10.7214 0.289983 10.2363 0.511454L11.0385 2.26806ZM10.4988 18.0442C10.4988 17.511 10.0664 17.0786 9.53316 17.0786C8.99992 17.0786 8.56764 17.511 8.56764 18.0442H10.4988ZM16.8664 15.5325C16.5439 15.1078 15.9383 15.0248 15.5135 15.3471C15.0886 15.6696 15.0058 16.2751 15.3281 16.7L16.8664 15.5325ZM23.1723 17.2586C23.1723 22.058 18.9584 26.069 13.6064 26.069V28C19.8871 28 25.1034 23.2574 25.1034 17.2586H23.1723ZM13.6064 26.069C10.3375 26.069 7.47178 24.5612 5.75192 22.2882L4.212 23.4532C6.3025 26.2163 9.74192 28 13.6064 28V26.069ZM17.3493 9.14839C17.3588 9.15206 17.368 9.15573 17.3775 9.15944L18.0879 7.36386C18.0767 7.35944 18.0655 7.35504 18.0545 7.35066L17.3493 9.14839ZM17.3775 9.15944C20.8202 10.5216 23.1723 13.6619 23.1723 17.2586H25.1034C25.1034 12.7761 22.1763 8.98159 18.0879 7.36386L17.3775 9.15944ZM12.8259 1.93103C15.3775 1.93103 17.3211 3.83465 17.3211 6.03448H19.2522C19.2522 2.63528 16.3062 0 12.8259 0V1.93103ZM17.3211 6.03448C17.3211 6.67055 17.1632 7.27231 16.8787 7.811L18.5865 8.71231C19.0119 7.90649 19.2522 6.99652 19.2522 6.03448H17.3211ZM16.8787 7.811C16.8704 7.82677 16.8621 7.84234 16.8538 7.85761L18.5494 8.78173C18.562 8.7585 18.5744 8.73534 18.5865 8.71231L16.8787 7.811ZM16.8538 7.85761C16.1287 9.18794 14.6152 10.1379 12.8259 10.1379V12.069C15.297 12.069 17.4742 10.7545 18.5494 8.78173L16.8538 7.85761ZM10.9669 2.29747C11.5311 2.06292 12.1599 1.93103 12.8259 1.93103V0C11.9034 0 11.0231 0.182888 10.2255 0.51437L10.9669 2.29747ZM4.82752 19.4306C4.82752 16.631 7.29507 14.241 10.493 14.241V12.31C6.36651 12.31 2.89648 15.4317 2.89648 19.4306H4.82752ZM6.01769 22.6122C5.26639 21.7272 4.82752 20.6233 4.82752 19.4306H2.89648C2.89648 21.112 3.51863 22.6522 4.54555 23.862L6.01769 22.6122ZM10.493 14.241C12.8249 14.241 14.7919 15.5263 15.6658 17.3115L17.4003 16.4626C16.1886 13.9874 13.5311 12.31 10.493 12.31V14.241ZM15.6658 17.3115L15.6685 17.3169L17.4034 16.469L17.4003 16.4626L15.6658 17.3115ZM10.4814 5.05694C10.123 4.71118 9.92989 4.25546 9.95299 3.77511L8.02419 3.68233C7.97213 4.76452 8.41619 5.74772 9.1406 6.44664L10.4814 5.05694ZM9.95299 3.77511C9.98346 3.14162 10.3914 2.56347 11.0385 2.26806L10.2363 0.511454C9.01109 1.07091 8.09336 2.24431 8.02419 3.68233L9.95299 3.77511ZM15.7885 18.0442C15.7885 19.2955 14.6733 20.43 13.1435 20.43V22.361C15.6019 22.361 17.7195 20.4946 17.7195 18.0442H15.7885ZM13.1435 20.43C11.6139 20.43 10.4988 19.2955 10.4988 18.0442H8.56764C8.56764 20.4946 10.6853 22.361 13.1435 22.361V20.43ZM15.3281 16.7C15.4561 16.8686 15.5594 17.051 15.6355 17.2428L17.4306 16.5314C17.2881 16.1716 17.0969 15.8364 16.8664 15.5325L15.3281 16.7ZM15.6355 17.2428C15.7346 17.493 15.7885 17.7622 15.7885 18.0442H17.7195C17.7195 17.5127 17.6173 17.0024 17.4306 16.5314L15.6355 17.2428Z" fill="currentColor"/>
</svg>
