<svg width="16" height="16" viewBox="0 0 16 16" fill="none" xmlns="http://www.w3.org/2000/svg">
<path fill-rule="evenodd" clip-rule="evenodd" d="M3.499 3.5V6.875H2V2.75C2 2.551 2.079 2.36 2.219 2.22C2.36 2.079 2.551 2 2.75 2H6.872V3.5H3.499ZM12.501 3.5H9.128V2H13.251C13.449 2 13.64 2.079 13.781 2.22C13.921 2.36 14 2.551 14 2.75V6.875H12.501V3.5ZM12.493 12.5V9.125H14V13.25C14 13.449 13.921 13.64 13.781 13.78C13.64 13.921 13.449 14 13.251 14H9.128V12.5H12.493ZM6.879 12.5H3.507V9.125H2.008V13.25C2.008 13.449 2.086 13.64 2.227 13.78C2.368 13.921 2.558 14 2.757 14H6.879V12.5Z" fill="#B1BAD3"/>
</svg>
