<svg width="28" height="28" viewBox="0 0 28 28" fill="none" xmlns="http://www.w3.org/2000/svg">
<path d="M14 0C6.26803 0 0 6.26803 0 14C0 21.732 6.26803 28 14 28C21.732 28 28 21.732 28 14C28 6.26803 21.732 0 14 0ZM22.6199 10.9742L12.9813 20.6128C12.758 20.8361 12.4655 20.9477 12.173 20.9477C11.8805 20.9477 11.588 20.8361 11.3648 20.6128L6.18268 15.4307C5.73615 14.9842 5.73615 14.2608 6.18268 13.8142C6.6292 13.3677 7.3526 13.3677 7.79918 13.8142L12.1731 18.1881L21.0034 9.35773C21.4499 8.91121 22.1733 8.91121 22.6199 9.35773C23.0664 9.80431 23.0664 10.5277 22.6199 10.9742Z" fill="#2DFF0B"/>
</svg>
