<svg width="200" height="200" viewBox="0 0 200 200" fill="none" xmlns="http://www.w3.org/2000/svg">
<g clip-path="url(#clip0_520_1660)">
<path d="M66.8563 70.4128H50.543V62.7261C50.543 59.9728 66.8563 59.9728 66.8563 62.7261V70.4128Z" fill="#69E244"/>
<path d="M50.074 68.7393H156.001C165.247 68.7393 172.741 76.2326 172.741 85.4793V85.4726C172.741 94.7193 165.247 102.213 156.001 102.213H50.074C40.8273 102.213 33.334 94.7193 33.334 85.4726V85.4793C33.334 76.2326 40.8273 68.7393 50.074 68.7393Z" fill="#263742"/>
<path d="M50.0006 80.1279H156.087C159.047 80.1279 161.447 82.5279 161.447 85.4879C161.447 88.4479 159.047 90.8413 156.087 90.8413H50.0006C47.0406 90.8413 44.6406 88.4413 44.6406 85.4813C44.6406 82.5213 47.0406 80.1279 50.0006 80.1279Z" fill="#0C1D29"/>
<path d="M155.536 186.963V84.7764H50.543V186.963C53.623 186.963 56.123 189.463 56.123 192.543H65.963C65.963 189.463 68.463 186.963 71.543 186.963C74.623 186.963 77.123 189.463 77.123 192.543H86.963C86.963 189.463 89.463 186.963 92.543 186.963C95.623 186.963 98.123 189.463 98.123 192.543H107.963C107.963 189.463 110.463 186.963 113.543 186.963C116.623 186.963 119.123 189.463 119.123 192.543H128.963C128.963 189.463 131.463 186.963 134.543 186.963C137.623 186.963 140.123 189.463 140.123 192.543H149.963C149.963 189.463 152.463 186.963 155.543 186.963H155.536Z" fill="#334552"/>
<path d="M112.89 41.6441C112.89 56.6108 100.763 68.7374 85.7965 68.7374C70.8298 68.7374 58.7031 56.6108 58.7031 41.6441C58.7031 26.6841 70.8298 14.5508 85.7965 14.5508C100.763 14.5508 112.89 26.6774 112.89 41.6441Z" fill="#263742"/>
<path d="M67.1442 21.9941C64.8175 24.2075 62.8708 26.8341 61.4375 29.7875L68.1042 24.8141L67.1508 22.0008L67.1442 21.9941Z" fill="#3C8725"/>
<path d="M79.3099 32.7458L75.4766 45.0524L86.0099 52.4991L96.3432 44.7924L92.2032 32.5791L79.3099 32.7391V32.7458Z" fill="#0C1D29"/>
<path d="M110.531 52.6963L107.545 52.7296L105.078 60.6563C107.331 58.3763 109.191 55.6963 110.531 52.6963Z" fill="#3C8725"/>
<path d="M107.46 38.7548L112.714 38.6881C112.127 33.2681 109.907 28.2348 106.494 24.1748L103.32 26.5415L107.46 38.7548Z" fill="#0C1D29"/>
<path d="M92.1249 18.6203L93.0782 15.5536C92.1382 15.2869 91.1849 15.0736 90.1915 14.9136C86.0382 14.2336 81.9515 14.5269 78.1582 15.6469L79.2182 18.7803L92.1115 18.6203H92.1249Z" fill="#0C1D29"/>
<path d="M62.5935 44.4832L58.8535 44.5232C59.4002 49.6432 61.3935 54.4232 64.4869 58.3632L66.7335 56.6899L62.5935 44.4832Z" fill="#3C8725"/>
<path d="M77.9486 64.6297L77.1152 67.3031C78.4886 67.7631 79.9219 68.1297 81.4086 68.3764C85.0619 68.9764 88.6552 68.8097 92.0419 68.0097L90.8419 64.4697L77.9486 64.6297Z" fill="#3C8725"/>
<path d="M134.438 56.6091C134.438 60.0024 133.044 63.0691 130.804 65.2624C130.264 65.8024 129.678 66.2758 129.044 66.6958C127.118 67.9824 124.804 68.7358 122.311 68.7358C118.338 68.7358 114.804 66.8224 112.598 63.8691C112.238 63.4024 111.924 62.9158 111.651 62.4024C110.704 60.6758 110.178 58.7091 110.178 56.6091C110.178 54.5091 110.704 52.5358 111.651 50.8158C111.924 50.3024 112.238 49.8158 112.598 49.3491C114.798 46.3958 118.331 44.4824 122.311 44.4824C124.804 44.4824 127.118 45.2358 129.044 46.5224C129.678 46.9424 130.264 47.4158 130.804 47.9558C133.051 50.1491 134.438 53.2091 134.438 56.6091Z" fill="#263742"/>
<path d="M123.903 60.6625H124.23V58.9558H123.23C123.096 58.4691 122.99 57.9758 122.936 57.4625H123.876V55.7558H122.936C122.99 55.2425 123.09 54.7491 123.23 54.2625H124.23V52.5558H123.903C125.243 50.0225 127.81 48.2225 130.81 47.9558C130.27 47.4158 129.683 46.9425 129.05 46.5225C125.876 47.3225 123.27 49.5891 122.01 52.5558H120.57V54.2625H121.463C121.35 54.7491 121.276 55.2425 121.23 55.7558H120.203V57.4625H121.23C121.27 57.9758 121.35 58.4691 121.463 58.9558H120.57V60.6625H122.01C123.27 63.6291 125.876 65.8958 129.05 66.6958C129.683 66.2758 130.27 65.8025 130.81 65.2625C127.816 64.9958 125.243 63.1958 123.903 60.6625Z" fill="#0C1D29"/>
<path d="M116.401 57.461V55.7543H115.541C115.501 55.241 115.414 54.7477 115.301 54.261H116.041V52.5543H114.754C114.241 51.3543 113.508 50.261 112.601 49.3477C112.241 49.8143 111.928 50.301 111.654 50.8143C112.121 51.3343 112.534 51.921 112.868 52.5543H112.381V54.261H113.541C113.674 54.7477 113.781 55.241 113.834 55.7543H112.741V57.461H113.834C113.781 57.9743 113.681 58.4677 113.541 58.9543H112.381V60.661H112.868C112.534 61.2943 112.128 61.881 111.654 62.401C111.928 62.9143 112.241 63.401 112.601 63.8677C113.508 62.9543 114.241 61.861 114.754 60.661H116.041V58.9543H115.301C115.414 58.4677 115.494 57.9743 115.541 57.461H116.401Z" fill="#0C1D29"/>
</g>
<defs>
<clipPath id="clip0_520_1660">
<rect width="200" height="200" fill="white"/>
</clipPath>
</defs>
</svg>
