<svg width="15" height="15" viewBox="0 0 15 15" fill="none" xmlns="http://www.w3.org/2000/svg">
<path d="M5.66667 0H0.999982C0.44769 0 0 0.447728 0 1V5.66669C0 6.21894 0.447709 6.66669 0.999982 6.66669H5.66667C6.21894 6.66669 6.66665 6.21892 6.66665 5.66669V1C6.66667 0.447709 6.21894 0 5.66667 0ZM5.41665 3.74997H3.74999V5.41667H2.91666V3.74997H1.25002V2.91664H2.91668V1.25H3.75003V2.91666H5.41671V3.74997H5.41665ZM14 0H9.33333C8.78106 0 8.33335 0.447728 8.33335 1V5.66669C8.33335 6.21894 8.78106 6.66669 9.33333 6.66669H14C14.5523 6.66669 15 6.21892 15 5.66669V1C15 0.447709 14.5523 0 14 0ZM13.75 3.74997H9.58331V2.91664H13.75V3.74997ZM5.66667 8.33339H0.999982C0.44769 8.33339 0 8.78106 0 9.33337V14C0 14.5523 0.447709 15 0.999982 15H5.66667C6.21894 15 6.66665 14.5523 6.66665 14V9.33337C6.66667 8.78104 6.21894 8.33339 5.66667 8.33339ZM5.10106 12.8452L4.51183 13.4345L3.33331 12.256L2.15478 13.4345L1.56555 12.8452L2.74407 11.6667L1.56555 10.4882L2.15478 9.89892L3.33331 11.0774L4.51183 9.89892L5.10106 10.4882L3.92254 11.6667L5.10106 12.8452ZM14 8.33339H9.33333C8.78106 8.33339 8.33335 8.78106 8.33335 9.33337V14C8.33335 14.5523 8.78106 15 9.33333 15H14C14.5523 15 15 14.5523 15 14V9.33337C15 8.78104 14.5523 8.33339 14 8.33339ZM13.3334 12.9167H10V12.0834H13.3334V12.9167ZM13.3334 11.25H10V10.4167H13.3334V11.25Z" fill="white"/>
</svg>
