<svg width="36" height="36" viewBox="0 0 36 36" xmlns="http://www.w3.org/2000/svg">
<g clip-path="url(#clip0_614_4499)">
<path d="M8.613 32.2404C8.613 32.8404 8.653 33.4274 8.733 34.0004H2C2.413 30.1334 5.04 26.9334 8.6 25.6934C9.053 25.9064 9.547 26.0664 10.053 26.1864C9.133 27.9994 8.613 30.0664 8.613 32.2394V32.2404Z" />
<path d="M16.2257 20.0803C14.9457 20.7073 13.7727 21.5203 12.7587 22.5073C12.3587 22.8803 11.9857 23.2943 11.6387 23.7203C10.6257 23.6803 9.70567 23.3603 8.91867 22.8133C7.54567 21.8803 6.63867 20.2933 6.63867 18.5063C6.63867 15.6133 8.98567 13.2793 11.8657 13.2793C12.5457 13.2793 13.1987 13.4123 13.7857 13.6523C13.7587 13.8123 13.7587 13.9723 13.7587 14.1453C13.7587 16.4653 14.7057 18.5583 16.2257 20.0783V20.0803Z" />
<path d="M18.9323 28.8929C18.9323 30.6929 19.2523 32.4129 19.8253 33.9999H11.4123C11.3323 33.4269 11.2793 32.8399 11.2793 32.2399C11.2793 30.0529 11.9323 28.0129 13.0523 26.3069C13.2653 25.9599 13.5053 25.6399 13.7723 25.3199C13.9993 25.0399 14.2523 24.7599 14.5193 24.4929C14.6263 24.3999 14.7193 24.2929 14.8263 24.1999C15.2393 23.8399 15.6663 23.4929 16.1193 23.1999C16.3723 23.0269 16.6123 22.8799 16.8793 22.7329C17.5193 22.3859 18.1863 22.0929 18.9063 21.8799C18.9333 21.8929 18.9593 21.9069 18.9863 21.9069C19.4533 22.0939 19.9333 22.2399 20.4393 22.3469C20.0263 23.1869 19.6923 24.0799 19.4393 24.9999C19.3193 25.4799 19.2123 25.9599 19.1323 26.4529C19.0393 26.9999 18.9853 27.5459 18.9453 28.1059C18.9323 28.3729 18.9323 28.6389 18.9323 28.8929Z" />
<path d="M27.8138 15.2401C27.8138 15.2401 27.7338 15.2671 27.7068 15.2931C25.8798 16.1201 24.2538 17.2931 22.9198 18.7461C22.5868 19.0931 22.2798 19.4531 21.9868 19.8391C21.1738 19.8391 20.4138 19.6391 19.7198 19.3061C19.5468 19.2391 19.3728 19.1461 19.2128 19.0391C18.9328 18.8921 18.6658 18.6921 18.4258 18.4791C17.1988 17.4391 16.4258 15.8921 16.4258 14.1461C16.4258 14.0391 16.4258 13.9191 16.4388 13.8131C16.4658 13.2931 16.5718 12.7861 16.7318 12.3061C17.4918 10.0661 19.6248 8.45312 22.1318 8.45312C23.0918 8.45312 23.9988 8.69312 24.7848 9.12012C24.9448 11.5201 26.0518 13.6531 27.7318 15.1601C27.7318 15.1601 27.7848 15.2271 27.8118 15.2401H27.8138Z" />
<path d="M33.9326 17.5597V33.9997H22.7196C22.0666 32.5867 21.6796 31.0397 21.6126 29.3997C21.5996 29.2397 21.5996 29.0667 21.5996 28.8927C21.5996 28.3197 21.6396 27.7597 21.7196 27.2127C21.9596 25.4657 22.5596 23.8257 23.4526 22.3997C23.6396 22.1067 23.8256 21.8397 24.0256 21.5597C24.2526 21.2527 24.4926 20.9597 24.7456 20.6797C24.8256 20.5867 24.9186 20.4927 25.0126 20.3997C25.3726 20.0267 25.7596 19.6667 26.1726 19.3467C26.7056 18.9067 27.2796 18.5197 27.8796 18.1867C28.5196 17.8267 29.1866 17.5337 29.8796 17.2937C30.1726 17.1867 30.4796 17.0937 30.7726 17.0137C30.7726 17.0267 30.7856 17.0267 30.7996 17.0137C31.7466 17.3737 32.7866 17.5607 33.8666 17.5607H33.9336L33.9326 17.5597Z" />
<path d="M10.053 26.1874C9.133 28.0004 8.613 30.0674 8.613 32.2404C8.613 32.8404 8.653 33.4274 8.733 34.0004H2C2.413 30.1334 5.04 26.9334 8.6 25.6934C9.053 25.9064 9.547 26.0674 10.053 26.1874Z" />
<path d="M6.63867 18.5073C6.63867 15.6143 8.98567 13.2803 11.8657 13.2803C12.5457 13.2803 13.1987 13.4133 13.7857 13.6533C13.7587 13.8133 13.7587 13.9733 13.7587 14.1463C13.7587 16.4663 14.7057 18.5593 16.2257 20.0793C14.9457 20.7063 13.7727 21.5193 12.7587 22.5063C12.3587 22.8793 11.9857 23.2933 11.6387 23.7193C10.6257 23.6793 9.70567 23.3593 8.91867 22.8123C7.54567 21.8793 6.63867 20.2923 6.63867 18.5053V18.5073Z" />
<path d="M18.9453 28.1199C18.9853 27.5469 19.0383 26.9999 19.1323 26.4529C19.2123 25.9599 19.3193 25.4799 19.4393 24.9999C19.6923 24.0799 20.0263 23.1869 20.4393 22.3469C19.9323 22.2399 19.4523 22.0939 18.9863 21.9069C18.9593 21.9069 18.9333 21.8939 18.9063 21.8799C18.1863 22.0929 17.5193 22.3869 16.8793 22.7329C16.6123 22.8799 16.3723 23.0259 16.1193 23.1999C15.6663 23.4929 15.2393 23.8399 14.8263 24.1999C14.7193 24.2929 14.6263 24.3999 14.5193 24.4929C14.2523 24.7599 13.9993 25.0399 13.7723 25.3199C13.5053 25.6399 13.2653 25.9599 13.0523 26.3069C11.9323 28.0139 11.2793 30.0539 11.2793 32.2399C11.2793 32.8399 11.3323 33.4269 11.4123 33.9999H19.8253C19.2523 32.4129 18.9323 30.6929 18.9323 28.8929C18.9323 28.6399 18.9323 28.3729 18.9453 28.1199Z" />
<path d="M18.4258 18.4801C17.1988 17.4401 16.4258 15.8931 16.4258 14.1471C16.4258 14.0401 16.4258 13.9201 16.4388 13.8141C16.4658 13.2941 16.5718 12.7871 16.7318 12.3071C17.4918 10.0671 19.6248 8.4541 22.1318 8.4541C23.0918 8.4541 23.9988 8.6941 24.7848 9.1211C24.9448 11.5211 26.0518 13.6541 27.7318 15.1611C27.7318 15.1611 27.7848 15.2281 27.8118 15.2411C27.7718 15.2411 27.7318 15.2681 27.7048 15.2941C25.8778 16.1211 24.2518 17.2941 22.9178 18.7471C22.5848 19.0941 22.2778 19.4541 21.9848 19.8401C21.1718 19.8401 20.4118 19.6401 19.7178 19.3071C19.5448 19.2401 19.3708 19.1471 19.2108 19.0401C18.9308 18.8931 18.6638 18.6931 18.4238 18.4801H18.4258Z" />
<path d="M33.9338 2V14.893H33.8668C32.8538 14.893 31.8938 14.653 31.0398 14.24C30.8528 14.147 30.6668 14.053 30.4928 13.933C29.9328 13.6 29.4398 13.173 29.0128 12.68C28.2658 11.827 27.7458 10.787 27.5458 9.64C27.4658 9.253 27.4258 8.853 27.4258 8.453C27.4258 8.2 27.4388 7.946 27.4658 7.693C27.8258 4.493 30.5588 2 33.8658 2H33.9338Z" />
<path d="M33.8656 17.5597H33.9326V33.9997H22.7196C22.0666 32.5867 21.6796 31.0397 21.6126 29.3997C21.5996 29.2397 21.5996 29.0667 21.5996 28.8927C21.5996 28.3197 21.6396 27.7597 21.7196 27.2127C21.9596 25.4657 22.5596 23.8257 23.4526 22.3997C23.6396 22.1067 23.8256 21.8397 24.0256 21.5597C24.2526 21.2527 24.4926 20.9597 24.7456 20.6797C24.8256 20.5867 24.9186 20.4927 25.0126 20.3997C25.3726 20.0267 25.7596 19.6667 26.1726 19.3467C26.7056 18.9067 27.2796 18.5197 27.8796 18.1867C28.5196 17.8267 29.1866 17.5337 29.8796 17.2937C30.1726 17.1867 30.4796 17.0937 30.7726 17.0137C30.7726 17.0267 30.7856 17.0267 30.7996 17.0137C31.7466 17.3737 32.7866 17.5607 33.8666 17.5607L33.8656 17.5597Z" />
</g>
<defs>
<clipPath id="clip0_614_4499">
<rect width="36" height="36" fill="white"/>
</clipPath>
</defs>
</svg>
