<svg width="24" height="24" viewBox="0 0 24 24" fill="none" xmlns="http://www.w3.org/2000/svg">
<path fill-rule="evenodd" clip-rule="evenodd" d="M19 8.16667L12 4L5 8.16667V16.5L12 20.6666L19 16.5V8.16667Z" fill="#5D6559"/>
<path fill-rule="evenodd" clip-rule="evenodd" d="M12 4L5 8.16667V16.5L12 20.6666L19 16.5V8.16667L12 4ZM18.5833 8.40355L12 4.4849L5.41667 8.40355V16.2631L12 20.1817L18.5833 16.2631V8.40355Z" fill="#E9D18C"/>
<path d="M11.2576 16.1095C11.2576 16.2271 11.3518 16.333 11.4812 16.333H12.7875C12.9052 16.333 12.9993 16.2271 12.9993 16.1095V8.55654C12.9993 8.43889 12.9052 8.33301 12.7875 8.33301H11.7048L9.98663 9.67419C9.95132 9.70948 9.91602 9.8036 9.91602 9.85066V10.5918C9.91602 10.7095 10.0102 10.8154 10.1278 10.8154H11.2576V16.1095Z" fill="#E9D18C"/>
<path d="M21.9993 7.5L19.916 8.08334V10.4167C21.1478 10.0718 21.9993 8.94903 21.9993 7.66988V7.5Z" fill="#CBC9B5"/>
<path d="M21.9993 10.167L19.916 10.7503V13.0837C21.1478 12.7388 21.9993 11.616 21.9993 10.3369V10.167Z" fill="#A1A498"/>
<path d="M21.9993 12.833L19.916 13.4163V15.7497C21.1478 15.4048 21.9993 14.282 21.9993 13.0029V12.833Z" fill="#5D6559"/>
<path d="M2 7.5L4.08333 8.08334V10.4167C2.85155 10.0718 2 8.94903 2 7.66988V7.5Z" fill="#CBC9B5"/>
<path d="M2 10.167L4.08333 10.7503V13.0837C2.85155 12.7388 2 11.616 2 10.3369V10.167Z" fill="#A1A498"/>
<path d="M2 12.833L4.08333 13.4163V15.7497C2.85155 15.4048 2 14.282 2 13.0029V12.833Z" fill="#5D6559"/>
</svg>
