<svg fill="currentColor" viewBox="0 0 64 64" class="svg-icon" style=""> <title></title> <path fill-rule="evenodd" clip-rule="evenodd" d="m56.339.05.03-.004a6.835 6.835 0 0 1 7.586 7.585l-.8 6.835-.012.134a28.89 28.89 0 0 1-8.262 17.083L44.188 42.366l.93 8.474L31.977 64l-1.639-12.92c-8.374-3.029-14.1-8.944-17.437-17.438L0 32.023l13.16-13.14 8.474.929L32.317 9.119C36.807 4.643 42.76 1.63 49.534.845L56.336.05h.002l.03-.004-.03.004ZM36.284 18.932a7.995 7.995 0 0 0 7.994 7.995v.04a7.995 7.995 0 0 0 7.994-7.995v-.04a7.995 7.995 0 0 0-15.988 0ZM8.636 41.125c2.4 6.9 7.869 12.369 14.938 14.82 0 0-4.697 8.465-20.676 5.647C.07 45.613 8.584 40.957 8.584 40.957l.052.168Z"></path></svg>
