<svg width="24" height="24" viewBox="0 0 24 24" fill="none" xmlns="http://www.w3.org/2000/svg">
<path fill-rule="evenodd" clip-rule="evenodd" d="M19 7.16667L12 3L5 7.16667V15.5L12 19.6666L19 15.5V7.16667Z" fill="#55626F"/>
<path fill-rule="evenodd" clip-rule="evenodd" d="M12 3L5 7.16667V15.5L12 19.6666L19 15.5V7.16667L12 3ZM18.5833 7.40355L12 3.4849L5.41667 7.40355V15.2631L12 19.1817L18.5833 15.2631V7.40355Z" fill="#DEE1EF"/>
<path d="M9.41602 15.1127C9.41602 15.2287 9.50932 15.333 9.63761 15.333H14.3027C14.4194 15.333 14.5243 15.2287 14.5243 15.1127V14.0692C14.5243 13.9533 14.4194 13.8489 14.3027 13.8489H12.2501C12.7982 13.0837 13.7546 11.8431 14.1278 11.1823C14.4077 10.6374 14.5827 10.2895 14.5827 9.67504C14.5827 8.38808 13.603 7.33301 11.9352 7.33301C10.5473 7.33301 9.60262 8.46924 9.60262 8.46924C9.52098 8.562 9.53265 8.70113 9.61429 8.77069L10.3257 9.48953C10.419 9.58229 10.559 9.58229 10.6523 9.48953C10.8739 9.24605 11.3054 8.90982 11.7836 8.90982C12.4367 8.90982 12.8099 9.30402 12.8099 9.7446C12.8099 10.0692 12.6583 10.3939 12.5067 10.6258C11.8186 11.6692 10.0925 13.9997 9.41602 14.8808V15.1127Z" fill="#DEE1EF"/>
<path d="M21.9993 8.5L19.916 9.08334V11.4166C21.1478 11.0717 21.9993 9.94903 21.9993 8.66988V8.5Z" fill="#B7BDCA"/>
<path d="M21.9993 11.167L19.916 11.7504V14.0837C21.1478 13.7388 21.9993 12.6161 21.9993 11.3369V11.167Z" fill="#9099A6"/>
<path d="M2 8.5L4.08333 9.08334V11.4166C2.85155 11.0717 2 9.94903 2 8.66988V8.5Z" fill="#B7BDCA"/>
<path d="M2 11.167L4.08333 11.7504V14.0837C2.85155 13.7388 2 12.6161 2 11.3369V11.167Z" fill="#9099A6"/>
</svg>
