<svg width="36" height="36" viewBox="0 0 36 36" fill="none" xmlns="http://www.w3.org/2000/svg">
<path d="M17.056 29.928L9.976 33.368C9.744 33.492 9.468 33.564 9.175 33.564C8.218 33.564 7.442 32.788 7.442 31.831C7.442 31.752 7.447 31.675 7.457 31.599L7.456 31.608L8.549 23.608C8.561 23.532 8.568 23.444 8.568 23.355C8.568 22.899 8.388 22.486 8.095 22.181L8.096 22.182L2.483 16.275C2.184 15.964 2 15.541 2 15.075C2 14.225 2.612 13.518 3.419 13.37L3.43 13.368L11.43 11.928C11.96 11.835 12.398 11.507 12.639 11.057L12.643 11.048L16.483 3.915C16.778 3.367 17.348 3 18.003 3C18.658 3 19.228 3.367 19.518 3.906L19.523 3.915L23.31 11.048C23.555 11.507 23.993 11.835 24.513 11.927L24.523 11.928L32.523 13.368C33.341 13.518 33.952 14.225 33.952 15.074C33.952 15.54 33.768 15.963 33.469 16.275L33.47 16.274L27.857 22.127C27.56 22.432 27.377 22.849 27.377 23.308C27.377 23.414 27.387 23.517 27.405 23.617L27.403 23.607L28.496 31.607C28.505 31.674 28.51 31.751 28.51 31.83C28.51 32.787 27.734 33.563 26.777 33.563C26.484 33.563 26.208 33.49 25.967 33.362L18.856 29.927C18.592 29.8 18.283 29.726 17.956 29.726C17.629 29.726 17.32 29.8 17.043 29.932L17.056 29.926V29.928Z" fill="#B1BAD3"/>
</svg>
