<svg width="6" height="4" viewBox="0 0 6 4" fill="none" xmlns="http://www.w3.org/2000/svg">
<path d="M3.23554 0.577774L5.9676 3.73319C5.99001 3.75867 6.00342 3.78935 6.00342 3.82217C6.00342 3.92036 5.88395 4 5.73668 4C5.73628 4 5.73588 4 5.73548 4L0.271161 4C0.270761 4 0.270561 4 0.270161 4C0.122882 4 0.00341797 3.92036 0.00341797 3.82217C0.00341797 3.78949 0.0166259 3.7588 0.0398383 3.73239L0.0392375 3.73319L2.77129 0.577774C2.81812 0.523479 2.90437 0.487593 3.00342 0.487593C3.10247 0.487593 3.18872 0.523479 3.23494 0.576841L3.23554 0.577774Z" fill="currentColor"/>
</svg>
