<svg width="35" height="12" viewBox="0 0 35 12" fill="none" xmlns="http://www.w3.org/2000/svg">
<path d="M3.06 6.736V7.852H5.472V6.736H3.06ZM5.472 8.896H3.06V9.544H1.944V3.556H5.472V2.512H6.6V3.556H10.164V9.508H9.048V8.896H6.6V11.272H5.472V8.896ZM6.6 7.852H9.048V6.736H6.6V7.852ZM9.048 5.74V4.612H6.6V5.74H9.048ZM5.472 4.612H3.06V5.74H5.472V4.612ZM11.088 0.976V3.244H9.984V2.02H1.968V3.304H0.864V0.976H5.352C5.244 0.711999 5.136 0.472 5.016 0.244L6.228 0.0519993C6.324 0.327999 6.432 0.64 6.528 0.976H11.088ZM15.264 5.428V11.236H14.172V5.692C13.824 6.724 13.392 7.684 12.864 8.548L12.396 7.372C13.188 6.244 13.752 4.948 14.112 3.508H12.612V2.416H14.172V0.171999H15.264V2.416H16.584V3.508H15.264V4.156C15.816 4.768 16.368 5.452 16.932 6.208L16.296 7.18C15.9 6.484 15.552 5.896 15.264 5.428ZM16.812 1.384H19.656C19.5 0.999999 19.332 0.651999 19.14 0.339999L20.304 0.148C20.472 0.508 20.628 0.927999 20.772 1.384H23.388V2.428H20.1C19.512 3.448 18.996 4.192 18.552 4.66C19.2 4.636 19.848 4.588 20.496 4.528C20.784 4.108 21.048 3.676 21.288 3.22L22.212 3.712C21.012 6.1 19.26 7.72 16.944 8.584L16.32 7.636C17.652 7.168 18.78 6.448 19.704 5.488C18.936 5.536 18.12 5.572 17.268 5.608L17.04 4.684C17.136 4.66 17.208 4.624 17.256 4.588C17.688 4.312 18.24 3.592 18.924 2.428H16.812V1.384ZM20.7 8.932C19.572 9.928 18.264 10.684 16.776 11.212L16.152 10.24C18.936 9.328 21.012 7.588 22.404 4.996L23.352 5.488C22.8 6.52 22.152 7.444 21.408 8.236C22.224 8.956 22.932 9.664 23.52 10.384L22.68 11.224C22.188 10.504 21.528 9.736 20.7 8.932ZM29.412 0.111999H30.588V2.188H34.86V7.984H33.72V7.3H30.588V11.32H29.412V7.3H26.292V7.984H25.152V2.188H29.412V0.111999ZM26.292 6.184H29.412V3.304H26.292V6.184ZM30.588 6.184H33.72V3.304H30.588V6.184Z" fill="white"/>
</svg>
