<svg width="28" height="28" viewBox="0 0 28 28" fill="none" xmlns="http://www.w3.org/2000/svg">
<path d="M15.8667 20.5333V18.1114C17.7987 17.5797 19.2267 15.7485 19.2267 13.5333C19.2267 11.3181 17.7987 9.48692 15.8667 8.95527V6.53333C19.0307 7.09451 21.4667 10.0186 21.4667 13.5333C21.4667 17.0481 19.0307 19.9722 15.8667 20.5333ZM15.8667 0V2.39746C21.3873 3.4926 25.5733 8.28753 25.5733 14C25.5733 19.7125 21.3873 24.5074 15.8667 25.6025V28C22.7523 26.8753 28 21.0444 28 14C28 6.9556 22.7523 1.12474 15.8667 0ZM4.66667 9.33333H0V18.6667H4.66667L14 28V0L4.66667 9.33333Z" fill="#B1BAD3"/>
</svg>
