<svg width="25" height="21" viewBox="0 0 25 21" fill="none" xmlns="http://www.w3.org/2000/svg">
<path fill-rule="evenodd" clip-rule="evenodd" d="M20.7342 5.50017L12.3339 0.5L3.93359 5.50017V15.5005L12.3339 20.5006L20.7342 15.5005V5.50017Z" fill="#55626F"/>
<path fill-rule="evenodd" clip-rule="evenodd" d="M12.3339 0.5L3.93359 5.50017V15.5005L12.3339 20.5006L20.7342 15.5005V5.50017L12.3339 0.5ZM20.2341 5.78444L12.3339 1.0819L4.43361 5.78444V15.2163L12.3339 19.9187L20.2341 15.2163V5.78444Z" fill="#DEE1EF"/>
<path d="M9.23315 15.0357C9.23315 15.1749 9.34512 15.3001 9.49907 15.3001H15.0974C15.2375 15.3001 15.3633 15.1749 15.3633 15.0357V13.7835C15.3633 13.6444 15.2375 13.5191 15.0974 13.5191H12.6342C13.2919 12.6009 14.4397 11.1121 14.8875 10.3191C15.2234 9.66514 15.4334 9.24773 15.4334 8.51031C15.4334 6.96591 14.2577 5.69978 12.2563 5.69978C10.5908 5.69978 9.45708 7.06331 9.45708 7.06331C9.35911 7.17462 9.37312 7.34158 9.47109 7.42506L10.3248 8.2877C10.4368 8.39901 10.6048 8.39901 10.7167 8.2877C10.9826 7.99551 11.5005 7.59202 12.0743 7.59202C12.8581 7.59202 13.306 8.06508 13.306 8.59379C13.306 8.98337 13.1241 9.37295 12.9421 9.65122C12.1163 10.9034 10.0449 13.7001 9.23315 14.7575V15.0357Z" fill="#DEE1EF"/>
<path d="M24.3335 7.10022L21.8335 7.80025V10.6003C23.3117 10.1864 24.3335 8.83911 24.3335 7.30408V7.10022Z" fill="#B7BDCA"/>
<path d="M24.3335 10.3007L21.8335 11.0008V13.8009C23.3117 13.387 24.3335 12.0397 24.3335 10.5046V10.3007Z" fill="#9099A6"/>
<path d="M0.333496 7.10022L2.83358 7.80025V10.6003C1.3554 10.1864 0.333496 8.83911 0.333496 7.30408V7.10022Z" fill="#B7BDCA"/>
<path d="M0.333496 10.3007L2.83358 11.0008V13.8009C1.3554 13.387 0.333496 12.0397 0.333496 10.5046V10.3007Z" fill="#9099A6"/>
</svg>
