<svg width="28" height="28" viewBox="0 0 28 28" fill="none" xmlns="http://www.w3.org/2000/svg">
<path d="M20.8691 20.8772L1.68878 1.70117L0.0525009 3.33745L5.08822 8.37317C3.00043 9.86332 1.2924 11.7472 0.0446259 13.9278L0 14.0127C2.90068 19.1184 8.08515 22.5222 14.0003 22.5222C14.002 22.5222 14.0038 22.5222 14.0055 22.5222C15.6243 22.5222 17.1827 22.2658 18.644 21.7924L18.5381 21.8222L23.0138 26.2979L24.6501 24.6616L20.87 20.8815L20.8691 20.8772ZM14.0265 20.0809C10.6769 20.0756 7.96265 17.3587 7.96265 14.0083C7.96265 13.177 8.12978 12.3842 8.43253 11.6624L8.41766 11.7026L10.4564 13.737C10.4564 13.8289 10.4564 13.9208 10.4564 14.0127C10.4564 15.9937 12.063 17.6002 14.044 17.6002H14.3196L16.3541 19.6346C15.6785 19.9173 14.8945 20.0809 14.0711 20.0809C14.0554 20.0809 14.0396 20.0809 14.0239 20.0809H14.0265Z" fill="currentColor"/>
<path d="M14.0263 7.94423C17.3776 7.94423 20.0954 10.6612 20.0954 14.0125C20.0954 14.8604 19.9213 15.668 19.6072 16.4013L19.622 16.3619L22.9165 19.6563C25.0008 18.1627 26.707 16.2779 27.9557 14.0973L28.0003 14.0125C25.0996 8.90674 19.9152 5.50293 14.0001 5.50293C12.3795 5.50555 10.8185 5.76106 9.35547 6.23269L9.4631 6.20294L11.6813 8.41673C12.3734 8.11835 13.1793 7.94423 14.0263 7.94423Z" fill="currentColor"/>
<path d="M13.7031 10.4423L17.5969 14.3361C17.5969 14.2268 17.5969 14.1217 17.5969 14.0124C17.5969 12.0313 15.9904 10.4248 14.0094 10.4248C13.9175 10.4248 13.8125 10.4336 13.7031 10.4423Z" fill="currentColor"/>
</svg>
