<svg width="28" height="28" viewBox="0 0 28 28" fill="none" xmlns="http://www.w3.org/2000/svg">
<path d="M7.11655 12.554C7.76406 9.3033 10.5939 6.88737 13.9881 6.88737C15.7898 6.88737 17.4322 7.56814 18.6729 8.68554L18.6668 8.68029L21.7233 5.1802C19.674 3.35491 16.957 2.23926 13.9793 2.23926C8.01257 2.23926 3.09232 6.71849 2.39668 12.498L2.39143 12.554H0L4.66649 19.1228L9.33297 12.554H7.11655Z" fill="currentColor"/>
<path d="M28.0006 15.4467L23.3341 8.87793L18.6676 15.4467H20.884C20.219 18.6755 17.3988 21.0687 14.0212 21.0687C12.2432 21.0687 10.62 20.4055 9.38539 19.3134L9.39239 19.3196L6.33594 22.8196C8.38524 24.6449 11.1022 25.7606 14.0799 25.7606C20.0466 25.7606 24.9669 21.2814 25.6625 15.5018L25.6678 15.4458L28.0006 15.4467Z" fill="currentColor"/>
</svg>
