<svg width="18" height="18" viewBox="0 0 18 18" xmlns="http://www.w3.org/2000/svg">
<g clip-path="url(#clip0_764_2185)">
<path d="M8.142 7.25C7.8659 7.25 7.642 7.4739 7.642 7.75C7.642 8.0261 7.8659 8.25 8.142 8.25V7.25ZM6.7954 2.26637C6.54044 2.37237 6.41966 2.66501 6.52566 2.92C6.63166 3.17498 6.9243 3.29576 7.1793 3.18976L6.7954 2.26637ZM6.23356 5.33844C6.43228 5.53017 6.74882 5.5245 6.9405 5.32577C7.1323 5.12704 7.1266 4.81051 6.9279 4.61877L6.23356 5.33844ZM7.2164 3.17453C7.4676 3.05985 7.5782 2.76323 7.4635 2.51204C7.3489 2.26084 7.0522 2.15017 6.801 2.26486L7.2164 3.17453ZM6.9369 11.3443C6.9369 11.0682 6.713 10.8443 6.43685 10.8443C6.16071 10.8443 5.93685 11.0682 5.93685 11.3443H6.9369ZM10.2344 10.0436C10.0674 9.8237 9.7538 9.7807 9.5338 9.9476C9.3138 10.1146 9.2709 10.4282 9.4378 10.6482L10.2344 10.0436ZM13.5 10.9375C13.5 13.4229 11.3178 15.5 8.5462 15.5V16.5C11.7987 16.5 14.5 14.044 14.5 10.9375H13.5ZM8.5462 15.5C6.8534 15.5 5.36935 14.7192 4.47871 13.5421L3.68125 14.1454C4.76383 15.5763 6.54496 16.5 8.5462 16.5V15.5ZM10.4845 6.73756C10.4894 6.73946 10.4942 6.74136 10.4991 6.74328L10.867 5.81343C10.8612 5.81114 10.8554 5.80886 10.8497 5.80659L10.4845 6.73756ZM10.4991 6.74328C12.2819 7.4487 13.5 9.0749 13.5 10.9375H14.5C14.5 8.6162 12.9842 6.65118 10.867 5.81343L10.4991 6.74328ZM8.142 3C9.4634 3 10.4699 3.9858 10.4699 5.125H11.4699C11.4699 3.3647 9.9443 2 8.142 2V3ZM10.4699 5.125C10.4699 5.45439 10.3881 5.76602 10.2408 6.04498L11.1252 6.51173C11.3455 6.09443 11.4699 5.6232 11.4699 5.125H10.4699ZM10.2408 6.04498C10.2365 6.05315 10.2322 6.06121 10.2279 6.06912L11.106 6.54768C11.1125 6.53565 11.1189 6.52366 11.1252 6.51173L10.2408 6.04498ZM10.2279 6.06912C9.8524 6.75804 9.0686 7.25 8.142 7.25V8.25C9.4217 8.25 10.5492 7.5693 11.106 6.54768L10.2279 6.06912ZM7.1793 3.18976C7.4715 3.0683 7.7971 3 8.142 3V2C7.6643 2 7.2084 2.09471 6.7954 2.26637L7.1793 3.18976ZM4 12.0623C4 10.6125 5.27784 9.3748 6.9339 9.3748V8.3748C4.79698 8.3748 3 9.9914 3 12.0623H4ZM4.61634 13.7099C4.22727 13.2516 4 12.6799 4 12.0623H3C3 12.933 3.32218 13.7306 3.85398 14.3571L4.61634 13.7099ZM6.9339 9.3748C8.1415 9.3748 9.1601 10.0404 9.6127 10.9649L10.5109 10.5253C9.8834 9.2435 8.5072 8.3748 6.9339 8.3748V9.3748ZM9.6127 10.9649L9.6141 10.9677L10.5125 10.5286L10.5109 10.5253L9.6127 10.9649ZM6.9279 4.61877C6.74229 4.43972 6.6423 4.20372 6.65426 3.95497L5.65542 3.90692C5.62846 4.46734 5.85842 4.9765 6.23356 5.33844L6.9279 4.61877ZM6.65426 3.95497C6.67004 3.62691 6.8813 3.32751 7.2164 3.17453L6.801 2.26486C6.16649 2.55458 5.69124 3.16223 5.65542 3.90692L6.65426 3.95497ZM9.6762 11.3443C9.6762 11.9923 9.0987 12.5798 8.3065 12.5798V13.5798C9.5796 13.5798 10.6762 12.6133 10.6762 11.3443H9.6762ZM8.3065 12.5798C7.5144 12.5798 6.9369 11.9923 6.9369 11.3443H5.93685C5.93685 12.6133 7.0335 13.5798 8.3065 13.5798V12.5798ZM9.4378 10.6482C9.5041 10.7355 9.5576 10.83 9.597 10.9293L10.5266 10.5609C10.4528 10.3746 10.3538 10.201 10.2344 10.0436L9.4378 10.6482ZM9.597 10.9293C9.6483 11.0589 9.6762 11.1983 9.6762 11.3443H10.6762C10.6762 11.0691 10.6233 10.8048 10.5266 10.5609L9.597 10.9293Z" />
</g>
<defs>
<clipPath id="clip0_764_2185">
<rect width="18" height="18" fill="white"/>
</clipPath>
</defs>
</svg>
