<svg width="28" height="28" viewBox="0 0 28 28" fill="none" xmlns="http://www.w3.org/2000/svg">
<path d="M11.6061 6.7528C13.9686 6.7528 15.5382 7.01859 16.9821 7.8662C18.4309 8.71381 19.2614 9.13033 21.6223 9.13033C23.9881 9.13033 25.5479 8.89209 27 8.03961V21.5187C25.5479 22.3696 24.0354 22.9595 21.6696 22.9595C19.3055 22.9595 18.4293 22.7034 16.9821 21.8461C15.5365 20.9985 13.9686 20.7343 11.6061 20.7343C9.24353 20.7343 7.23832 21.5657 5.78947 22.4198V8.44154C7.23832 7.58582 9.24353 6.7528 11.6061 6.7528Z" fill="#1FFF20"/>
<path d="M3.73684 6.07752H5.78947V28H3.73684V6.07752Z" fill="#1FFF20"/>
<path d="M8.52632 3.71404C8.52632 5.76525 6.84149 7.42808 4.76316 7.42808C2.68482 7.42808 1 5.76525 1 3.71404C1 1.66283 2.68482 0 4.76316 0C6.84149 0 8.52632 1.66283 8.52632 3.71404Z" fill="#1FFF20"/>
</svg>
