<svg width="45" height="17" viewBox="0 0 45 17" xmlns="http://www.w3.org/2000/svg">
<rect y="1" width="45" height="15" rx="2" fill="#FF0606"/>
<path d="M9.424 3.208H10.576V4.756H14.596V5.86H10.576V7.72H15.232V8.824H11.524C12.316 10.228 13.648 11.488 15.508 12.604L14.704 13.636C12.772 12.196 11.416 10.6 10.624 8.824H10.576V14.2H9.424V8.824H9.376C8.524 10.768 7.12 12.376 5.176 13.648L4.516 12.58C6.316 11.596 7.636 10.336 8.476 8.824H4.768V7.72H9.424V5.86H5.488V4.756H9.424V3.208ZM17.62 3.28C18.436 3.916 19.12 4.552 19.672 5.176L18.868 5.968C18.388 5.368 17.716 4.72 16.84 4.024L17.62 3.28ZM24.52 14.032C23.86 14.032 23.14 14.02 22.372 14.008C21.592 13.996 20.956 13.924 20.452 13.804C19.972 13.66 19.552 13.372 19.192 12.964C19.024 12.76 18.88 12.664 18.736 12.664C18.484 12.664 18.052 13.204 17.44 14.284L16.6 13.504C17.2 12.532 17.74 11.92 18.22 11.68V8.284H16.612V7.228H19.288V11.764C19.348 11.812 19.408 11.872 19.468 11.944C19.744 12.268 20.032 12.508 20.332 12.664C20.692 12.832 21.22 12.94 21.928 12.964C22.612 12.976 23.416 12.988 24.352 12.988C24.94 12.988 25.54 12.976 26.14 12.964C26.74 12.952 27.208 12.928 27.532 12.904L27.256 14.032H24.52ZM22.444 4.468H20.128V3.52H26.716V4.324C26.02 4.924 25.276 5.428 24.484 5.86C24.508 5.884 24.532 5.896 24.556 5.92H26.968V11.248C26.968 11.956 26.572 12.316 25.792 12.316H24.868L24.628 11.368L25.48 11.416C25.744 11.416 25.888 11.284 25.888 11.02V10.408H24.16V12.376H23.116V10.408H21.424V12.4H20.344V5.92H23.104C22.708 5.656 22.264 5.38 21.772 5.116L22.444 4.468ZM23.788 5.32C24.292 5.068 24.76 4.78 25.192 4.468H22.504C22.96 4.756 23.392 5.032 23.788 5.32ZM21.424 8.644V9.484H23.116V8.644H21.424ZM24.16 8.644V9.484H25.888V8.644H24.16ZM25.888 7.708V6.868H24.16V7.708H25.888ZM23.116 7.708V6.868H21.424V7.708H23.116ZM29.572 3.28C30.376 3.904 31.06 4.528 31.624 5.152L30.796 5.98C30.316 5.38 29.656 4.72 28.792 4.024L29.572 3.28ZM36.772 14.032C36.088 14.032 35.344 14.02 34.54 14.008C33.724 13.996 33.052 13.924 32.548 13.804C32.044 13.66 31.6 13.372 31.228 12.964C31.06 12.76 30.892 12.664 30.748 12.664C30.496 12.664 30.052 13.216 29.428 14.332L28.588 13.552C29.2 12.556 29.752 11.932 30.232 11.68V8.296H28.6V7.216H31.324V11.764C31.396 11.812 31.456 11.872 31.516 11.944C31.804 12.256 32.116 12.496 32.428 12.652C32.8 12.82 33.352 12.916 34.096 12.94C34.804 12.952 35.644 12.964 36.628 12.964C37.168 12.964 37.72 12.952 38.284 12.952C38.86 12.928 39.292 12.904 39.592 12.88L39.316 14.032H36.772ZM36.424 12.412H34.732L34.48 11.32C35.02 11.368 35.536 11.392 36.028 11.392C36.352 11.392 36.52 11.224 36.52 10.912V6.148H32.008V5.032H36.52V3.184H37.66V5.032H39.364V6.148H37.66V11.188C37.66 12.004 37.24 12.412 36.424 12.412ZM33.52 7.024C34.264 7.9 34.828 8.668 35.224 9.316L34.312 9.952C33.904 9.244 33.34 8.452 32.632 7.576L33.52 7.024Z" fill="white"/>
</svg>
