<svg width="28" height="28" viewBox="0 0 28 28" fill="none" xmlns="http://www.w3.org/2000/svg">
<path d="M25.1204 14C25.1179 13.1515 25.0166 12.306 24.8183 11.48L28 9.6911L24.8183 4.29333L21.6363 6.09777C20.3798 4.91694 18.8524 4.04752 17.1818 3.56221V0H10.8182V3.56221C9.15101 4.05515 7.62522 4.92361 6.36361 6.09777L3.1818 4.29333L0 9.6911L3.1818 11.48C2.75753 13.1291 2.75753 14.8553 3.1818 16.5044L0 18.2933L3.1818 23.691L6.36361 21.9023C7.63 23.0666 9.1546 23.929 10.8182 24.4223V28H17.1818V24.4223C18.8475 23.9337 20.373 23.0708 21.6363 21.9023L24.8183 23.691L28 18.2933L24.8183 16.5044C25.0157 15.6835 25.1169 14.8433 25.1204 14ZM13.9841 20.2223C12.7255 20.2223 11.4951 19.8574 10.4486 19.1737C9.40214 18.4899 8.58646 17.5181 8.10481 16.3811C7.62316 15.2442 7.49728 13.9931 7.74282 12.7861C7.98835 11.5791 8.59446 10.4704 9.48442 9.60022C10.3744 8.73003 11.5081 8.13743 12.7425 7.89733C13.977 7.65725 15.2566 7.78048 16.4194 8.25144C17.5822 8.72237 18.5761 9.51988 19.2752 10.5431C19.9745 11.5664 20.3476 12.7694 20.3476 14C20.3476 15.6502 19.6772 17.2329 18.4839 18.3998C17.2905 19.5666 15.6718 20.2223 13.9841 20.2223Z" fill="currentColor"/>
</svg>
