<svg width="28" height="28" viewBox="0 0 28 28" fill="none" xmlns="http://www.w3.org/2000/svg">
<path d="M14 0C6.3 0 0 6.3 0 14C0 21.7 6.3 28 14 28C21.7 28 28 21.7 28 14C28 6.3 21.7 0 14 0ZM16.2167 3.96667L15.6333 17.2667C15.6333 18.0833 14.9333 18.6667 14.1167 18.6667H13.7667C12.95 18.6667 12.3667 18.0833 12.25 17.2667L11.6667 3.96667C11.6667 3.15 12.25 2.56667 12.95 2.56667H14.8167C15.6333 2.56667 16.3333 3.15 16.2167 3.96667ZM15.6333 24.9667C15.1667 25.4333 14.5833 25.6667 14 25.6667C13.3 25.6667 12.8333 25.4333 12.3667 24.9667C11.9 24.5 11.6667 24.0333 11.6667 23.3333C11.6667 22.6333 11.9 22.1667 12.3667 21.7C12.8333 21.2333 13.3 21 14 21C14.7 21 15.2833 21.2333 15.75 21.7C16.2167 22.1667 16.45 22.6333 16.45 23.3333C16.3333 24.0333 16.1 24.6167 15.6333 24.9667Z" fill="#F7411C"/>
</svg>
