<svg width="28" height="28" viewBox="0 0 28 28" fill="none" xmlns="http://www.w3.org/2000/svg">
<path d="M13.993 0L0.483312 12.9124C0.252318 13.1294 0.0959882 13.407 0.0329897 13.7104C-0.0323421 14.0113 5.98628e-05 14.3263 0.123988 14.611C0.249985 14.8957 0.459979 15.1383 0.728307 15.311C0.998967 15.4813 1.31629 15.57 1.64062 15.57H4.21423V27.9994H10.7334V18.9882H17.2503V27.9994H23.7694V15.57H26.3594C26.6837 15.57 27.001 15.4813 27.2717 15.311C27.54 15.1383 27.75 14.8957 27.876 14.611C27.9999 14.3263 28.0323 14.0113 27.967 13.7104C27.904 13.407 27.7477 13.1294 27.5167 12.9124L13.993 0Z" fill="currentColor"/>
</svg>
