<svg width="34" height="27" viewBox="0 0 34 27" fill="none" xmlns="http://www.w3.org/2000/svg">
<path d="M30.6098 0H3.27586C1.4666 0 0 1.46671 0 3.27604V23.5076C0 25.3169 1.4666 26.7835 3.27586 26.7835H30.6098C32.4193 26.7835 33.886 25.3169 33.886 23.5076V3.27604C33.886 1.46668 32.4193 0 30.6098 0ZM30.6505 3.78587L17.3688 17.3076C17.2437 17.4341 17.0742 17.506 16.8959 17.506H16.8945C16.7162 17.5053 16.5466 17.4334 16.4216 17.3062L3.23327 3.79807C2.97886 3.53646 2.98314 3.11674 3.24475 2.8616C3.5078 2.60575 3.92465 2.61148 4.18194 2.87237L16.8973 15.8968L29.7047 2.85728C29.9605 2.59567 30.3803 2.59279 30.6419 2.84936C30.9021 3.10525 30.9064 3.52498 30.6505 3.78587Z" fill="#52FF00"/>
</svg>
