<svg width="28" height="28" viewBox="0 0 28 28" fill="none" xmlns="http://www.w3.org/2000/svg">
<path d="M14 0C21.732 0 28 6.268 28 14C28 21.732 21.732 28 14 28C6.268 28 0 21.732 0 14C0 6.268 6.268 0 14 0ZM14 2C7.3725 2 2 7.3725 2 14C2 20.6275 7.3725 26 14 26C20.6275 26 26 20.6275 26 14C26 7.3725 20.6275 2 14 2ZM19.5 15C19.719 15 19.922 15.07 20.0865 15.19L20.0965 15.1975L20.114 15.2105C20.2289 15.2963 20.324 15.4058 20.3928 15.5316C20.4617 15.6574 20.5027 15.7966 20.513 15.9396C20.5233 16.0826 20.5028 16.2262 20.4527 16.3606C20.4027 16.495 20.3244 16.6171 20.223 16.7185L18.1015 18.84C18.0093 18.9355 17.8989 19.0117 17.7769 19.0641C17.6549 19.1165 17.5237 19.1441 17.3909 19.1453C17.2581 19.1464 17.1264 19.1211 17.0035 19.0708C16.8806 19.0205 16.769 18.9463 16.6751 18.8524C16.5812 18.7585 16.507 18.6469 16.4567 18.524C16.4064 18.4011 16.3811 18.2694 16.3822 18.1366C16.3834 18.0038 16.411 17.8726 16.4634 17.7506C16.5158 17.6286 16.592 17.5182 16.6875 17.426L17.1125 17H8.5C8.23478 17 7.98043 16.8946 7.79289 16.7071C7.60536 16.5196 7.5 16.2652 7.5 16C7.5 15.7348 7.60536 15.4804 7.79289 15.2929C7.98043 15.1054 8.23478 15 8.5 15H19.5ZM11.3285 8.793C11.516 8.98053 11.6213 9.23484 11.6213 9.5C11.6213 9.76516 11.516 10.0195 11.3285 10.207L10.9025 10.6325H19.5155C19.7807 10.6325 20.0351 10.7379 20.2226 10.9254C20.4101 11.1129 20.5155 11.3673 20.5155 11.6325C20.5155 11.8977 20.4101 12.1521 20.2226 12.3396C20.0351 12.5271 19.7807 12.6325 19.5155 12.6325H8.5155C8.2805 12.6325 8.0645 12.552 7.894 12.416C7.78064 12.3296 7.68707 12.2199 7.61957 12.0943C7.55207 11.9687 7.5122 11.8302 7.50264 11.6879C7.49307 11.5457 7.51403 11.403 7.56411 11.2696C7.61419 11.1361 7.69223 11.0148 7.793 10.914L9.914 8.793C10.0069 8.7001 10.1171 8.6264 10.2385 8.57612C10.3598 8.52584 10.4899 8.49996 10.6213 8.49996C10.7526 8.49996 10.8827 8.52584 11.004 8.57612C11.1254 8.6264 11.2356 8.7001 11.3285 8.793Z" fill="white"/>
</svg>
