<svg width="30" height="28" viewBox="0 0 30 28" fill="none" xmlns="http://www.w3.org/2000/svg">
<path d="M7.30195 0H2.2882C1.51733 0 0.892578 0.62475 0.892578 1.39562V6.40937C0.892578 7.18025 1.51733 7.805 2.2882 7.805H7.30195C8.07283 7.805 8.69758 7.18025 8.69758 6.40937V1.39562C8.69758 0.62475 8.07283 0 7.30195 0ZM6.51008 5.6175H3.08008V2.1875H6.51008V5.6175Z" fill="currentColor"/>
<path d="M13.6151 6.56219H26.2326C27.7017 6.56219 28.8926 5.37131 28.8926 3.90219C28.8926 2.43306 27.7017 1.24219 26.2326 1.24219H13.6151C12.146 1.24219 10.9551 2.43306 10.9551 3.90219C10.9551 5.37131 12.146 6.56219 13.6151 6.56219Z" fill="currentColor"/>
<path d="M13.6151 16.66H19.7051V19.25L29.107 14L19.7051 8.75V11.34H13.6151C12.146 11.34 10.9551 12.5309 10.9551 14C10.9551 15.4691 12.146 16.66 13.6151 16.66Z" fill="currentColor"/>
<path d="M26.2326 21.4375H13.6151C12.146 21.4375 10.9551 22.6284 10.9551 24.0975C10.9551 25.5666 12.146 26.7575 13.6151 26.7575H26.2326C27.7017 26.7575 28.8926 25.5666 28.8926 24.0975C28.8926 22.6284 27.7017 21.4375 26.2326 21.4375Z" fill="currentColor"/>
<path d="M7.30195 10.0977H2.2882C1.51733 10.0977 0.892578 10.7224 0.892578 11.4933V16.507C0.892578 17.2779 1.51733 17.9027 2.2882 17.9027H7.30195C8.07283 17.9027 8.69758 17.2779 8.69758 16.507V11.4933C8.69758 10.7224 8.07283 10.0977 7.30195 10.0977ZM6.51008 15.7152H3.08008V12.2852H6.51008V15.7152Z" fill="currentColor"/>
<path d="M7.30195 20.1953H2.2882C1.51733 20.1953 0.892578 20.8201 0.892578 21.5909V26.6047C0.892578 27.3756 1.51733 28.0003 2.2882 28.0003H7.30195C8.07283 28.0003 8.69758 27.3756 8.69758 26.6047V21.5909C8.69758 20.8201 8.07283 20.1953 7.30195 20.1953ZM6.51008 25.8128H3.08008V22.3828H6.51008V25.8128Z" fill="currentColor"/>
</svg>
