<svg width="32" height="28" viewBox="0 0 32 28" fill="none" xmlns="http://www.w3.org/2000/svg">
<path d="M16 4.27539C9.24 4.27539 3.315 8.16539 0 14.0004C3.315 19.8354 9.24 23.7254 16 23.7254C22.76 23.7254 28.685 19.8354 32 14.0004C28.685 8.16539 22.76 4.27539 16 4.27539ZM16.03 20.9354C12.2 20.9354 9.095 17.8304 9.095 14.0004C9.095 10.1704 12.2 7.06539 16.03 7.06539C19.86 7.06539 22.965 10.1704 22.965 14.0004C22.965 14.0004 22.965 14.0034 22.965 14.0054C22.965 17.8324 19.862 20.9354 16.035 20.9354C16.033 20.9354 16.032 20.9354 16.03 20.9354Z" fill="currentColor"/>
<path d="M20.1297 14.0004C20.1297 16.2644 18.2937 18.1004 16.0297 18.1004C13.7657 18.1004 11.9297 16.2644 11.9297 14.0004C11.9297 11.7364 13.7657 9.90039 16.0297 9.90039C18.2937 9.90039 20.1297 11.7364 20.1297 14.0004Z" fill="currentColor"/>
</svg>
