<svg width="36" height="36" viewBox="0 0 36 36" xmlns="http://www.w3.org/2000/svg">
<g clip-path="url(#clip0_1091_5900)">
<path d="M17.9991 0.760742C8.47811 0.760742 0.759766 8.47909 0.759766 18.0001C0.759766 27.5211 8.47811 35.2395 17.9991 35.2395C27.5202 35.2395 35.2385 27.5211 35.2385 18.0001C35.2385 8.47909 27.5202 0.760742 17.9991 0.760742ZM28.6135 14.2742L16.7447 26.1431C16.4697 26.418 16.1096 26.5554 15.7494 26.5554C15.3893 26.5554 15.0291 26.4179 14.7542 26.1431L8.37301 19.7619C7.82317 19.212 7.82317 18.3212 8.37301 17.7713C8.92285 17.2215 9.81364 17.2215 10.3635 17.7713L15.7495 23.1573L26.623 12.2837C27.1729 11.7339 28.0637 11.7339 28.6136 12.2837C29.1634 12.8336 29.1634 13.7244 28.6135 14.2742Z" fill="#2DFF0B"/>
</g>
<defs>
<clipPath id="clip0_1091_5900">
<rect width="36" height="36" fill="white"/>
</clipPath>
</defs>
</svg>
