<svg width="32" height="32" viewBox="0 0 32 32" xmlns="http://www.w3.org/2000/svg">
<g clip-path="url(#clip0_783_6609)">
<path d="M19.906 16.842C20.093 15.345 20.28 12.351 20.28 8.982C20.28 1.122 13.917 0 13.917 0C13.917 0 14.478 11.415 10.549 11.415C10.549 11.415 10.362 6.924 8.491 6.924C8.117 9.918 4 14.035 4 20.023C4 26.573 9.427 32 15.977 32C22.527 32 27.954 26.573 27.954 20.023C27.954 16.655 27.018 12.725 24.773 10.479C23.837 17.216 19.908 16.842 19.908 16.842H19.906Z" />
</g>
<defs>
<clipPath id="clip0_783_6609">
<rect width="32" height="32" fill="white"/>
</clipPath>
</defs>
</svg>
