<svg width="28" height="28" viewBox="0 0 28 28" fill="none" xmlns="http://www.w3.org/2000/svg">
<g clip-path="url(#clip0_3601_1779)">
<path d="M18.2212 22.4486C17.8764 21.6158 16.7387 20.192 14.8393 18.2165C14.3323 17.6883 14.3649 17.283 14.546 16.0788L14.5669 15.9428C14.69 15.1179 14.8966 14.6302 17.6966 14.1896C19.1191 13.9661 19.4932 14.5295 20.0118 15.31C20.0692 15.3964 20.1265 15.4813 20.1851 15.5663C20.6777 16.2802 21.0427 16.4435 21.594 16.6919C21.841 16.8031 22.1491 16.943 22.5622 17.1757C23.541 17.7301 23.541 18.3563 23.541 19.7291V19.8847C23.541 22.0786 22.7264 23.2658 22.4085 23.6462C21.1952 24.683 19.787 25.5001 18.244 26.0361C19.009 24.6202 18.4238 22.9389 18.2212 22.4486ZM14 1.25004C15.9966 1.25004 17.8876 1.70108 19.5766 2.50781C18.6486 3.08963 17.3155 3.99963 16.7668 4.7448C16.5635 5.02069 16.3889 5.28213 16.2272 5.52272C15.6916 6.3229 15.4336 6.67981 14.9396 6.74125C14.6947 6.77127 14.3662 6.75035 14.0183 6.72816C13.0852 6.66804 11.8087 6.58694 11.4001 7.68651C11.1407 8.38333 11.0951 10.2752 11.9344 11.2571C12.0687 11.414 12.0947 11.7042 12.0035 12.0298C11.8835 12.4573 11.6412 12.7175 11.5656 12.7711C11.4209 12.6887 11.1322 12.3566 10.9368 12.1305C10.4656 11.5879 9.87788 10.9119 9.11811 10.7027C8.84184 10.6269 8.53815 10.5642 8.24365 10.5027C7.41933 10.3314 6.4856 10.1366 6.26864 9.67778C6.11029 9.34173 6.11094 8.87893 6.11157 8.38998C6.11157 7.77025 6.11157 7.06945 5.80531 6.38829C5.53949 5.79605 5.07097 5.47569 4.57899 5.31884C6.93261 2.81766 10.2839 1.25004 14.0001 1.25004H14ZM0 14C0 21.655 6.26792 27.86 14 27.86C21.7321 27.86 28 21.655 28 14C28 6.34505 21.7321 0.140015 14 0.140015C6.26789 0.140015 0 6.34505 0 14Z" fill="#B1BAD3"/>
</g>
<defs>
<clipPath id="clip0_3601_1779">
<rect width="28" height="28" fill="white"/>
</clipPath>
</defs>
</svg>