<svg width="28" height="28" viewBox="0 0 28 28" fill="none" xmlns="http://www.w3.org/2000/svg">
<g clip-path="url(#clip0_7927_42303)">
<path d="M28 14C28 16.3975 27.3875 18.655 26.3375 20.615C23.975 25.0075 19.3375 28 14 28H13.79C12.3375 27.9825 10.92 27.7375 9.6075 27.3C4.025 25.4625 0 20.195 0 14C0 13.5625 0.0174999 13.125 0.0699999 12.6875C0.42 8.715 2.45 5.2325 5.425 2.94C6.0725 2.4325 6.7725 1.9775 7.525 1.5925C9.45 0.5775 11.655 0 14 0C17.0975 0 19.9675 1.015 22.295 2.73C23.205 3.395 24.0275 4.165 24.745 5.04C26.2675 6.86 27.335 9.065 27.7725 11.48C27.8075 11.655 27.8425 11.8475 27.86 12.0225C27.9475 12.67 28 13.335 28 14Z" fill="#399BED"/>
<path d="M15.5895 23.1729C15.3854 23.2604 14.9624 23.625 14.8895 24.3979C14.8312 24.9812 14.3354 25.3896 13.8249 25.6667C12.6145 25.6521 11.4333 25.4479 10.3395 25.0833C10.3541 24.6167 10.3979 24.1792 10.4562 23.8292C10.5291 23.3625 10.4124 22.2104 9.23118 21.2917C7.75827 20.1542 8.00618 19.3375 8.44368 18.7542C8.88118 18.1854 8.44368 17.8646 8.00618 17.2812C7.67077 16.8292 6.29993 15.9542 5.65827 15.5604C3.29577 15.5604 2.98952 14.4812 3.13535 13.9271C2.50827 13.9271 2.46452 13.2708 2.52285 12.95L2.3916 12.9062C2.68327 9.59583 4.37493 6.69374 6.8541 4.78333L6.97077 4.92916C8.26868 5.90624 9.58118 5.42499 9.93118 5.17708C10.1937 4.98749 10.602 4.76874 10.8937 4.81249C10.9958 4.81249 11.0833 4.84166 11.1416 4.92916C11.6229 5.59999 11.1124 5.86249 10.5729 6.03749H10.5583C10.3249 6.11041 10.0916 6.16874 9.93118 6.24166C9.50827 6.43124 9.75618 6.97083 9.93118 7.21874C10.602 7.62708 11.4624 7.17499 11.9291 6.79583C12.002 6.75207 12.0604 6.69374 12.1041 6.64999C12.2937 6.54791 12.6729 6.41666 12.9937 6.48958C13.1104 6.50416 13.227 6.56249 13.3145 6.64999C13.752 7.05833 14.1895 7.37916 14.8895 7.87499C15.5895 8.37083 14.8895 9.26041 14.1895 8.69166C13.6354 8.23957 13.3729 8.50207 13.3145 8.69166C13.927 9.66874 12.4541 9.59583 11.5791 9.75624C10.7041 9.91666 10.0187 11.1417 9.58118 11.3896C9.14368 11.6375 9.14368 13.1979 8.44368 13.3583C7.88952 13.4896 7.91868 13.1396 8.00618 12.95C8.00618 11.3896 4.71035 12.1333 4.71035 13.3583C4.71035 14.5833 5.92077 14.4958 6.62077 14.4958C7.17493 14.4958 7.08743 14.9333 6.97077 15.1521C7.14577 15.1521 7.49577 15.2833 7.49577 15.8083C7.49577 16.3333 8.12285 16.5812 8.44368 16.625C9.14368 16.2458 10.0187 16.0562 10.4562 16.0562C12.8916 16.2167 15.5895 19.0021 16.6249 20.8833C17.4708 22.3854 16.2749 23.0417 15.5895 23.1729ZM21.1312 9.08541C21.0583 8.67708 21.0729 7.88958 21.7145 7.88958C22.3562 7.88958 22.6333 7.40833 22.677 7.17499L22.9541 6.53333C24.2229 8.04999 25.1124 9.88749 25.477 11.9C25.4333 11.8562 25.3749 11.8125 25.3312 11.7833C25.2437 11.7833 24.9083 11.6083 24.3687 10.9083C23.7124 10.0333 23.0416 10.9083 23.0416 11.1562C23.0416 11.3896 22.677 11.7833 21.7145 11.7833C20.9562 11.7833 21.2479 11.2 21.4958 10.9083C22.152 11.0396 22.5604 10.5875 22.677 10.3542C21.8458 9.97499 21.9333 9.34791 22.0937 9.08541C21.6124 9.52291 21.2479 9.26041 21.1312 9.08541Z" fill="#69C531"/>
<path d="M25.6665 14C25.6665 15.9979 25.1561 17.8792 24.2811 19.5125C24.1498 19.3083 24.0769 19.0458 24.0769 18.7104C24.0769 17.5146 23.1873 17.8354 22.6769 17.9958C21.0873 18.8125 20.2853 17.8063 20.0957 17.1938C19.8915 16.7417 19.6144 15.575 20.0957 14.4958C20.5623 13.4021 21.2186 12.8771 21.4957 12.7458C21.7728 12.7458 22.4873 12.6146 23.1873 12.1042C23.9019 11.5938 24.2811 12.0021 24.3686 12.2646C24.4707 12.4542 24.8061 12.7604 25.3311 12.4979C25.4332 12.4542 25.5061 12.3958 25.5498 12.3521C25.6228 12.8917 25.6665 13.4458 25.6665 14ZM20.9123 4.60834L20.7373 4.91459C20.7082 5.35209 19.979 6.24168 17.3103 6.24168C17.0623 6.70834 16.3623 7.59793 15.5457 7.40834C15.3269 7.36459 14.9332 7.05834 15.079 6.24168C15.2686 5.78959 15.4436 4.91459 14.6269 4.91459C13.8103 4.91459 13.1103 4.76876 12.8623 4.69584C12.5561 4.56459 11.9144 4.44793 11.8415 4.91459C11.7686 5.38126 12.0603 5.55626 12.2061 5.57084C12.6144 5.73126 13.1832 6.08126 12.9936 6.48959C12.9353 6.62084 12.804 6.76668 12.5853 6.89793C12.4686 6.98543 12.2207 7.01459 11.929 6.79584C11.754 6.66459 11.5644 6.44584 11.3748 6.09584C11.1561 6.12501 10.8353 6.12501 10.5728 6.03751H10.5582C10.3394 5.95001 10.179 5.81876 10.179 5.57084C10.179 5.26459 10.5873 5.03126 10.8936 4.81251C11.2728 4.53543 11.5353 4.27293 10.8207 3.95209C10.6019 3.76251 9.85817 3.42709 8.604 3.66043C10.2082 2.81459 12.0457 2.33334 13.9998 2.33334C16.5811 2.33334 18.9728 3.17918 20.9123 4.60834Z" fill="#69C531"/>
</g>
<defs>
<clipPath id="clip0_7927_42303">
<rect width="28" height="28" fill="white"/>
</clipPath>
</defs>
</svg>
