<svg width="15" height="14" viewBox="0 0 15 14" fill="none" xmlns="http://www.w3.org/2000/svg">
<g clip-path="url(#clip0_8607_16213)">
<path d="M7.5 0C6.11553 0 4.76216 0.410543 3.61101 1.17971C2.45987 1.94888 1.56266 3.04213 1.03285 4.32122C0.503033 5.6003 0.36441 7.00776 0.634506 8.36563C0.904603 9.7235 1.57129 10.9708 2.55026 11.9497C3.52922 12.9287 4.7765 13.5954 6.13437 13.8655C7.49224 14.1356 8.8997 13.997 10.1788 13.4672C11.4579 12.9373 12.5511 12.0401 13.3203 10.889C14.0895 9.73785 14.5 8.38447 14.5 7C14.5 5.14348 13.7625 3.36301 12.4498 2.05025C11.137 0.737498 9.35652 0 7.5 0ZM7.5 11.9C7.30222 11.9 7.10888 11.8414 6.94443 11.7315C6.77998 11.6216 6.65181 11.4654 6.57612 11.2827C6.50044 11.1 6.48063 10.8989 6.51922 10.7049C6.5578 10.5109 6.65304 10.3327 6.7929 10.1929C6.93275 10.053 7.11093 9.9578 7.30491 9.91922C7.49889 9.88063 7.69996 9.90043 7.88269 9.97612C8.06541 10.0518 8.22159 10.18 8.33147 10.3444C8.44135 10.5089 8.5 10.7022 8.5 10.9C8.5 11.1652 8.39465 11.4196 8.20711 11.6071C8.01957 11.7946 7.76522 11.9 7.5 11.9ZM10.23 6.17C9.86173 6.6605 9.42765 7.09795 8.94 7.47C8.68392 7.65629 8.46654 7.89065 8.3 8.16C8.19995 8.45918 8.1625 8.77574 8.19 9.09H6.72V8.7C6.70701 8.29656 6.78923 7.89574 6.96 7.53C7.20591 7.13916 7.52511 6.79959 7.9 6.53C8.20274 6.30289 8.48697 6.0521 8.75 5.78C8.88758 5.60275 8.96154 5.38437 8.96 5.16C8.96023 5.00533 8.92629 4.85252 8.8606 4.7125C8.7949 4.57248 8.69909 4.44869 8.58 4.35C8.29983 4.11753 7.94381 3.99648 7.58 4.01C7.21591 4.00559 6.86188 4.1295 6.58 4.36C6.2899 4.65358 6.0918 5.02545 6.01 5.43C5.96 5.73 4.51 5.86 4.52 5.25C4.54189 4.91421 4.63107 4.58625 4.78225 4.28561C4.93342 3.98498 5.1435 3.71781 5.4 3.5C5.98078 2.99262 6.7289 2.71831 7.5 2.73C8.30518 2.68772 9.09705 2.94811 9.72 3.46C9.96693 3.66865 10.1648 3.92915 10.2997 4.22298C10.4345 4.51681 10.5029 4.83673 10.5 5.16C10.509 5.51562 10.4152 5.86629 10.23 6.17Z" fill="#1475E1"/>
</g>
<defs>
<clipPath id="clip0_8607_16213">
<rect width="14" height="14" fill="white" transform="translate(0.5)"/>
</clipPath>
</defs>
</svg>
