<svg width="25" height="21" viewBox="0 0 25 21" fill="none" xmlns="http://www.w3.org/2000/svg">
<path fill-rule="evenodd" clip-rule="evenodd" d="M20.7342 5.66686L12.3339 0.666687L3.93359 5.66686V15.6672L12.3339 20.6673L20.7342 15.6672V5.66686Z" fill="#5D6559"/>
<path fill-rule="evenodd" clip-rule="evenodd" d="M12.3339 0.666687L3.93359 5.66686V15.6672L12.3339 20.6673L20.7342 15.6672V5.66686L12.3339 0.666687ZM20.2341 5.95113L12.3339 1.24859L4.43361 5.95113V15.3829L12.3339 20.0854L20.2341 15.3829V5.95113Z" fill="#E9D18C"/>
<path d="M11.443 15.1986C11.443 15.3397 11.556 15.4668 11.7113 15.4668H13.2789C13.4202 15.4668 13.5331 15.3397 13.5331 15.1986V6.13472C13.5331 5.99353 13.4202 5.86647 13.2789 5.86647H11.9796L9.91774 7.47594C9.87537 7.51829 9.83301 7.63124 9.83301 7.68771V8.57715C9.83301 8.71833 9.94598 8.84539 10.0872 8.84539H11.443V15.1986Z" fill="#E9D18C"/>
<path d="M24.3335 4.86684L21.8335 5.56687V8.36696C23.3117 7.95307 24.3335 6.60573 24.3335 5.0707V4.86684Z" fill="#CBC9B5"/>
<path d="M24.3335 8.06734L21.8335 8.76737V11.5674C23.3117 11.1536 24.3335 9.80623 24.3335 8.2712V8.06734Z" fill="#A1A498"/>
<path d="M24.3335 11.2667L21.8335 11.9666V14.7668C23.3117 14.3529 24.3335 13.0055 24.3335 11.4705V11.2667Z" fill="#5D6559"/>
<path d="M0.333496 4.86684L2.83358 5.56687V8.36696C1.3554 7.95307 0.333496 6.60573 0.333496 5.0707V4.86684Z" fill="#CBC9B5"/>
<path d="M0.333496 8.06734L2.83358 8.76737V11.5674C1.3554 11.1536 0.333496 9.80623 0.333496 8.2712V8.06734Z" fill="#A1A498"/>
<path d="M0.333496 11.2667L2.83358 11.9666V14.7668C1.3554 14.3529 0.333496 13.0055 0.333496 11.4705V11.2667Z" fill="#5D6559"/>
</svg>
