<svg width="171" height="126" viewBox="0 0 171 126" fill="none" xmlns="http://www.w3.org/2000/svg">
<rect y="15.6106" width="152.761" height="110.389" fill="#41657B"/>
<g filter="url(#filter0_d_6965_25285)">
<rect x="15.6106" width="152.761" height="110.389" fill="#0C1D29"/>
</g>
<g opacity="0.5">
<path d="M80.3065 75.0078C80.166 74.0579 79.9655 72.5407 79.7053 70.456C79.4658 68.348 79.4058 66.719 79.5255 65.5689C79.6659 64.3955 79.9688 63.1778 80.4342 61.9159C80.8968 60.6341 81.4491 59.5514 82.0914 58.6677C82.7307 57.7643 83.46 56.9789 84.2792 56.3117C85.1191 55.6212 85.9411 55.0547 86.7453 54.6121C87.5494 54.1695 88.355 53.8178 89.1618 53.5568C89.9687 53.2958 90.8775 53.0703 91.8881 52.8803C92.9489 52.703 94.0215 52.605 95.1058 52.586C96.1871 52.5473 97.2978 52.6255 98.438 52.8208C99.5752 52.9962 100.476 53.2067 101.14 53.4521C101.826 53.6742 102.524 53.9854 103.235 54.3856C103.944 54.766 104.655 55.2472 105.369 55.829C106.104 56.3875 106.83 57.1294 107.547 58.0546C108.261 58.96 108.791 59.9329 109.138 60.9735C109.509 62.0105 109.824 63.157 110.082 64.4129C110.338 65.6491 110.672 67.5003 111.086 69.9668C111.499 72.4333 111.808 74.5209 112.013 76.2296C112.211 78.2224 112.266 79.8217 112.179 81.0277C112.113 82.2104 111.897 83.4455 111.532 84.733C111.19 86.017 110.599 87.247 109.759 88.4229C108.942 89.5953 107.904 90.659 106.644 91.6138C105.381 92.5489 104.142 93.2378 102.928 93.6805C101.736 94.1196 100.467 94.439 99.1196 94.6384C96.735 95.0116 94.757 95.0313 93.1857 94.6977C91.6115 94.3443 90.2532 93.8174 89.1107 93.117C87.9683 92.4165 87.0607 91.7521 86.3879 91.1238C85.7359 90.4721 84.9159 89.4206 83.9281 87.9694C82.9639 86.5146 82.1851 84.4359 81.5919 81.7332C80.9986 79.0304 80.5701 76.7886 80.3065 75.0078ZM90.0038 74.1791C90.2234 75.6632 90.5138 77.2985 90.8749 79.0852C91.236 80.8719 91.7126 82.3786 92.3049 83.6053C92.8942 84.8123 93.5755 85.6618 94.3489 86.154C95.1431 86.6229 95.8591 86.891 96.4972 86.9583C97.1352 87.0256 97.7365 87.0074 98.3009 86.9036C98.9628 86.8057 99.5598 86.596 100.092 86.2745C100.645 85.9298 101.101 85.4175 101.459 84.7376C101.841 84.0542 102.09 83.2085 102.207 82.2004C102.32 81.1725 102.34 79.916 102.265 78.4307C102.187 76.9256 101.984 75.065 101.656 72.8487C101.351 70.9526 101.017 69.1822 100.652 67.5376C100.285 65.8731 99.8838 64.5474 99.4478 63.5604C99.0355 62.5699 98.5415 61.8443 97.966 61.3835C97.4112 60.8994 96.8813 60.5836 96.3763 60.4359C95.895 60.2847 95.3426 60.2249 94.7192 60.2565C93.9776 60.3056 93.2565 60.4932 92.5559 60.8194C91.876 61.1222 91.2505 61.6293 90.6794 62.3407C90.1083 63.0521 89.7276 63.8263 89.5375 64.6633C89.368 65.477 89.2988 66.4781 89.3297 67.6665C89.3814 68.8317 89.4671 69.9818 89.5867 71.1166C89.7035 72.2318 89.8425 73.2526 90.0038 74.1791Z" fill="#69E244"/>
<path d="M67.9232 87.9389L58.2494 90.8057L56.3821 84.5042L37.8944 89.9828L35.5139 81.9499L47.3039 50.4502L56.0377 47.8311L63.8015 74.0303L66.8196 73.1669L69.0486 80.6889L66.0558 81.6375L67.9232 87.9389ZM50.0482 63.1304L44.2306 79.7991L54.1552 76.8581L50.0482 63.1304Z" fill="#69E244"/>
<path d="M147.639 87.7215L137.638 86.3867L138.508 79.8722L119.395 77.3214L120.503 69.0168L144.131 45.0804L153.173 46.2572L149.558 73.3425L152.666 73.7871L151.628 81.5635L148.509 81.2069L147.639 87.7215ZM141.457 57.7755L129.338 70.614L139.598 71.9834L141.457 57.7755Z" fill="#69E244"/>
</g>
<rect x="63.5576" y="13.3806" width="57.9823" height="2.23009" fill="#507484"/>
<rect x="15.6106" y="28.9911" width="152.761" height="2.23009" fill="#507484"/>
<defs>
<filter id="filter0_d_6965_25285" x="13.6106" y="0" width="156.761" height="114.389" filterUnits="userSpaceOnUse" color-interpolation-filters="sRGB">
<feFlood flood-opacity="0" result="BackgroundImageFix"/>
<feColorMatrix in="SourceAlpha" type="matrix" values="0 0 0 0 0 0 0 0 0 0 0 0 0 0 0 0 0 0 127 0" result="hardAlpha"/>
<feOffset dy="2"/>
<feGaussianBlur stdDeviation="1"/>
<feComposite in2="hardAlpha" operator="out"/>
<feColorMatrix type="matrix" values="0 0 0 0 0 0 0 0 0 0 0 0 0 0 0 0 0 0 0.5 0"/>
<feBlend mode="normal" in2="BackgroundImageFix" result="effect1_dropShadow_6965_25285"/>
<feBlend mode="normal" in="SourceGraphic" in2="effect1_dropShadow_6965_25285" result="shape"/>
</filter>
</defs>
</svg>
