<svg width="36" height="36" viewBox="0 0 36 36" fill="none" xmlns="http://www.w3.org/2000/svg">
<g clip-path="url(#clip0_783_6602)">
<path d="M25.85 25.915L3.93 4L2.06 5.87L7.815 11.625C5.429 13.328 3.477 15.481 2.051 17.973L2 18.07C5.315 23.905 11.24 27.795 18 27.795C18.002 27.795 18.004 27.795 18.006 27.795C19.856 27.795 21.637 27.502 23.307 26.961L23.186 26.995L28.301 32.11L30.171 30.24L25.851 25.92L25.85 25.915ZM18.03 25.005C14.202 24.999 11.1 21.894 11.1 18.065C11.1 17.115 11.291 16.209 11.637 15.384L11.62 15.43L13.95 17.755C13.95 17.86 13.95 17.965 13.95 18.07C13.95 20.334 15.786 22.17 18.05 22.17H18.365L20.69 24.495C19.918 24.818 19.022 25.005 18.081 25.005C18.063 25.005 18.045 25.005 18.027 25.005H18.03Z" fill="#B1BAD3"/>
<path d="M18.0294 11.1347C21.8594 11.1347 24.9654 14.2397 24.9654 18.0697C24.9654 19.0387 24.7664 19.9617 24.4074 20.7997L24.4244 20.7547L28.1894 24.5197C30.5714 22.8127 32.5214 20.6587 33.9484 18.1667L33.9994 18.0697C30.6844 12.2347 24.7594 8.34473 17.9994 8.34473C16.1474 8.34773 14.3634 8.63973 12.6914 9.17873L12.8144 9.14473L15.3494 11.6747C16.1404 11.3337 17.0614 11.1347 18.0294 11.1347Z" fill="#B1BAD3"/>
<path d="M17.6602 13.9897L22.1102 18.4397C22.1102 18.3147 22.1102 18.1947 22.1102 18.0697C22.1102 15.8057 20.2742 13.9697 18.0102 13.9697C17.9052 13.9697 17.7852 13.9797 17.6602 13.9897Z" fill="#B1BAD3"/>
</g>
<defs>
<clipPath id="clip0_783_6602">
<rect width="36" height="36" fill="white"/>
</clipPath>
</defs>
</svg>
