<svg width="18" height="18" viewBox="0 0 18 18" xmlns="http://www.w3.org/2000/svg">
<g clip-path="url(#clip0_704_5073)">
<path d="M8.99714 3L3.20714 8.534C3.10814 8.627 3.04114 8.746 3.01414 8.876C2.98614 9.005 3.00003 9.14 3.05314 9.262C3.10714 9.384 3.19714 9.488 3.31214 9.562C3.42814 9.635 3.56414 9.673 3.70314 9.673H4.80614V15H7.60014V11.138H10.3931V15H13.1871V9.673H14.2971C14.4361 9.673 14.5721 9.635 14.6881 9.562C14.8031 9.488 14.8931 9.384 14.9471 9.262C15.0003 9.14 15.0141 9.005 14.9861 8.876C14.9591 8.746 14.8921 8.627 14.7931 8.534L8.99714 3Z" />
</g>
<defs>
<clipPath id="clip0_704_5073">
<rect width="18" height="18" fill="white"/>
</clipPath>
</defs>
</svg>
