<svg width="28" height="28" viewBox="0 0 28 28" fill="none" xmlns="http://www.w3.org/2000/svg">
<path d="M14 0C6.26762 0 0 6.26762 0 14C0 21.7324 6.26762 28 14 28C21.7324 28 28 21.7324 28 14C28 6.26762 21.7324 0 14 0ZM16.2925 22.61H11.7075V13.4225H16.2925V22.61ZM14 10.745C12.5212 10.745 11.3225 9.54625 11.3225 8.0675C11.3225 6.58875 12.5212 5.39 14 5.39C15.4788 5.39 16.6775 6.58875 16.6775 8.0675C16.6775 8.07275 16.6775 8.07887 16.6775 8.085C16.6775 9.55412 15.4866 10.745 14.0175 10.745C14.0114 10.745 14.0061 10.745 14 10.745Z" fill="currentColor"/>
</svg>
