<svg width="14" height="14" viewBox="0 0 14 14" fill="none" xmlns="http://www.w3.org/2000/svg">
<g clip-path="url(#clip0_401_268)">
<path d="M9.01871 7.13109C9.23719 7.06991 9.44693 7.00874 9.64793 6.94757C9.82271 6.89513 10.0019 6.8427 10.1854 6.79026C10.3689 6.73783 10.5218 6.68976 10.6442 6.64607L10.4607 7.34082C10.4082 7.53308 10.3602 7.67728 10.3165 7.77341C10.2291 8.00936 10.1264 8.22784 10.0084 8.42884C9.89044 8.62984 9.77901 8.80462 9.67414 8.95318C9.5518 9.12796 9.42508 9.28964 9.29399 9.4382L7.68163 9.92322L9.0056 10.1592C8.83082 10.3077 8.64293 10.4607 8.44193 10.618C8.26715 10.7491 8.06834 10.8867 7.84549 11.0309C7.62265 11.1751 7.38888 11.3084 7.14418 11.4307C6.89949 11.5531 6.62639 11.6164 6.32489 11.6208C6.0234 11.6252 5.73719 11.6055 5.46628 11.5618C5.15167 11.5181 4.83707 11.4438 4.52246 11.339C4.61859 11.1904 4.72346 11.0243 4.83707 10.8408C4.9332 10.6835 5.04899 10.4978 5.18444 10.2837C5.3199 10.0696 5.46191 9.83146 5.61047 9.56929C6.02995 8.86142 6.43632 8.16667 6.82957 7.48502C7.22283 6.80337 7.57677 6.18727 7.89137 5.6367C8.24967 4.99875 8.59487 4.39576 8.92695 3.82772C8.51622 4.29963 8.08363 4.82834 7.6292 5.41386C7.23594 5.91198 6.79899 6.50406 6.31834 7.19008C5.83769 7.87609 5.3483 8.62547 4.85017 9.4382C4.74531 9.60425 4.62733 9.7965 4.49624 10.015C4.36516 10.2335 4.22751 10.465 4.08332 10.7097C3.93913 10.9544 3.79056 11.2057 3.63763 11.4635C3.48469 11.7213 3.33394 11.9725 3.18538 12.2172C2.83582 12.7853 2.47751 13.3795 2.11047 14C2.11921 13.8165 2.15417 13.5805 2.21534 13.2921C2.26778 13.0474 2.35517 12.7416 2.47751 12.3745C2.59986 12.0075 2.77464 11.5749 3.00186 11.0768C3.15042 10.7622 3.26403 10.5175 3.34268 10.3427C3.42134 10.1679 3.48251 10.0325 3.5262 9.93633C3.5699 9.83146 3.60486 9.76155 3.63107 9.72659C3.58738 9.67416 3.57864 9.56929 3.60486 9.41199C3.62233 9.27216 3.67258 9.06898 3.7556 8.80243C3.83863 8.53589 3.98064 8.1623 4.18163 7.68165C4.38263 7.19226 4.64699 6.66573 4.97471 6.10206C5.30242 5.53839 5.67165 4.97909 6.08238 4.42416C6.49312 3.86923 6.93881 3.33177 7.41946 2.8118C7.90011 2.29182 8.39168 1.83084 8.89418 1.42884C9.39668 1.02684 9.89918 0.696941 10.4017 0.439139C10.9042 0.181336 11.3914 0.0349563 11.8633 0C11.872 0.305868 11.8414 0.71005 11.7715 1.21255C11.7016 1.71504 11.6142 2.2525 11.5093 2.82491C11.4045 3.39732 11.2865 3.97846 11.1554 4.56835C11.0243 5.15824 10.8976 5.69351 10.7753 6.17416L9.01871 7.13109Z" fill="white"/>
</g>
<defs>
<clipPath id="clip0_401_268">
<rect width="14" height="14" fill="white"/>
</clipPath>
</defs>
</svg>
