<svg width="20" height="20" viewBox="0 0 20 20" xmlns="http://www.w3.org/2000/svg">
<path d="M18.1987 9.93285C18.1987 5.36774 14.498 1.66699 9.93285 1.66699C5.36774 1.66699 1.66699 5.36774 1.66699 9.93285C1.66699 14.498 5.36774 18.1987 9.93285 18.1987C14.498 18.1987 18.1987 14.498 18.1987 9.93285ZM8.98818 5.19938H10.8775L10.6076 11.2723H9.25809L8.98818 5.19938ZM9.93285 14.6663C9.28069 14.6663 8.75201 14.1376 8.75201 13.4855C8.75201 12.8333 9.28069 12.3046 9.93285 12.3046C10.585 12.3046 11.1137 12.8333 11.1137 13.4855C11.1137 14.1376 10.585 14.6663 9.93285 14.6663Z" fill="#ED4163"/>
</svg>
