<svg width="20" height="17" viewBox="0 0 20 17" fill="none" xmlns="http://www.w3.org/2000/svg">
<path d="M1.25 4.46744H3.75L7.925 0.797435C8.10563 0.638749 8.32819 0.535523 8.56601 0.500133C8.80382 0.464742 9.0468 0.498688 9.26581 0.597902C9.48482 0.697116 9.67056 0.857387 9.80079 1.0595C9.93101 1.26162 10.0002 1.497 10 1.73744V14.2624C10.0001 14.501 9.93196 14.7347 9.80357 14.9357C9.67518 15.1368 9.49192 15.297 9.27544 15.3973C9.05896 15.4976 8.81829 15.5338 8.58188 15.5017C8.34546 15.4696 8.12317 15.3706 7.94125 15.2162L3.75 11.6612H1.25C0.918479 11.6612 0.600537 11.5295 0.366117 11.2951C0.131696 11.0606 0 10.7427 0 10.4112V5.71744C0 5.38591 0.131696 5.06797 0.366117 4.83355C0.600537 4.59913 0.918479 4.46744 1.25 4.46744ZM1.875 9.78619H3.75C4.19375 9.78619 4.625 9.94494 4.9625 10.2312L8.125 12.9124V3.11869L4.9875 5.87494C4.6455 6.17594 4.2056 6.34212 3.75 6.34244H1.875V9.78619ZM13.7913 13.1887C13.6135 13.3543 13.3785 13.4444 13.1356 13.4402C12.8927 13.4359 12.661 13.3375 12.4892 13.1657C12.3175 12.9939 12.2191 12.7622 12.2148 12.5193C12.2105 12.2765 12.3006 12.0414 12.4662 11.8637C13.4624 10.8674 14.022 9.51627 14.022 8.10744C14.022 6.6986 13.4624 5.34745 12.4662 4.35119C12.3791 4.26418 12.3099 4.16087 12.2627 4.04713C12.2154 3.9334 12.1911 3.81147 12.191 3.68832C12.1907 3.4396 12.2893 3.20097 12.465 3.02494C12.6407 2.8489 12.8791 2.74987 13.1279 2.74963C13.3766 2.7494 13.6152 2.84798 13.7913 3.02369C14.4587 3.69111 14.9882 4.48348 15.3494 5.35554C15.7107 6.2276 15.8966 7.16227 15.8966 8.10619C15.8966 9.0501 15.7107 9.98478 15.3494 10.8568C14.9882 11.7289 14.4587 12.5213 13.7913 13.1887ZM16.4438 15.8399C16.267 16.0108 16.0302 16.1054 15.7844 16.1034C15.5386 16.1014 15.3034 16.0029 15.1295 15.8291C14.9556 15.6554 14.8569 15.4203 14.8547 15.1745C14.8524 14.9287 14.9468 14.6918 15.1175 14.5149C16.817 12.8154 17.7718 10.5103 17.7718 8.10681C17.7718 5.7033 16.817 3.39823 15.1175 1.69869C14.9519 1.52097 14.8617 1.28591 14.866 1.04303C14.8703 0.800156 14.9687 0.568424 15.1405 0.396658C15.3122 0.224892 15.544 0.126502 15.7868 0.122216C16.0297 0.117931 16.2648 0.208085 16.4425 0.373685C18.4932 2.42479 19.6452 5.20642 19.6452 8.10681C19.6452 11.0072 18.4932 13.7888 16.4425 15.8399H16.4438Z" fill="#B1BAD3"/>
</svg>
