<svg width="18" height="18" viewBox="0 0 18 18" fill="none" xmlns="http://www.w3.org/2000/svg">
<g clip-path="url(#clip0_3722_2)">
<path fill-rule="evenodd" clip-rule="evenodd" d="M4.19088 0.000170014C5.61955 -0.0130649 7.01614 0.423779 8.18263 1.24876L9.33148 2.32263H11.141C12.843 2.54153 14.4944 3.05219 16.0229 3.83219C16.4998 4.0364 16.9373 4.32242 17.3157 4.67734C17.582 5.01479 17.1418 5.3665 16.9708 5.54798C16.5651 5.98067 15.4522 7.14378 14.7878 7.11603L14.6731 6.47711C14.3334 5.91618 12.9948 5.45574 12.1459 5.43174C11.7124 5.41974 11.0008 5.27051 10.7676 5.51873C11.264 6.06841 12.6251 5.87419 13.2377 6.68033C13.4027 6.87231 13.7409 7.23601 13.4672 7.58022C13.0585 8.37287 9.72518 8.39312 9.30299 9.11903C9.25499 9.17977 9.25874 9.17677 9.24524 9.29301H9.29999C9.6277 9.40474 10.1826 9.17227 10.3911 9.38C10.6551 9.65371 10.4458 11.344 10.2764 11.5862L10.1039 11.557C9.65394 11.3612 8.34986 10.0084 7.89241 10.1322C7.56029 10.3575 7.30884 10.683 7.17475 11.0613C6.29586 12.7861 7.42822 14.2109 8.66782 14.9803C8.91154 15.1303 10.2261 16.0032 10.3049 15.4737C10.1166 15.1205 9.71169 14.9773 9.67269 14.4869C10.1761 13.3445 11.0588 12.4112 12.1714 11.8449C12.4616 11.6762 12.9558 11.3298 13.3772 11.4385V11.6125C12.4406 12.3264 11.009 14.2311 11.6254 16.0249C11.7912 16.5064 12.8545 17.7182 12.7458 17.9994C11.715 17.8639 10.7569 17.3948 10.0176 16.6638L9.55796 15.9379C8.83754 15.7231 8.09829 15.5775 7.35023 15.503C7.21514 15.6678 7.13491 15.8708 7.12076 16.0834L6.94828 16.1127C6.51305 15.7654 6.18452 15.3025 6.0004 14.7771C5.90216 14.5708 5.92541 14.2874 5.74168 14.1674L5.5977 14.1382L5.28199 14.5446C4.83654 14.7058 3.12751 12.9975 2.92728 12.6863C1.70944 10.7943 2.44734 8.77107 3.70269 7.48948L3.67569 7.25776C3.59545 7.06654 3.19875 6.68258 2.92578 6.79357C2.23512 7.13478 1.79193 8.1209 1.37498 8.73883H1.29024L1.26174 8.70958C1.24599 7.61472 1.9749 6.95555 2.29586 6.15465C1.9899 5.42124 0.985026 5.28926 0.601074 4.64509C0.616404 4.60584 0.639619 4.57015 0.669285 4.54023C0.698951 4.5103 0.734438 4.48678 0.773553 4.47111L1.92241 4.44186C3.2875 4.44827 4.64356 4.66374 5.94341 5.08078C6.25912 5.18727 6.57783 5.29376 6.89129 5.40024L9.41847 4.79057C10.1249 4.66009 10.9183 4.81457 11.4005 4.47111H11.4582L11.4297 4.35488C10.3208 4.21406 9.1965 4.25331 8.10014 4.47111C7.70119 4.55285 7.20925 4.84606 6.72181 4.73208L5.62545 4.26789L4.85154 4.1224L4.82305 4.06466C4.8358 3.86069 4.89804 3.85844 4.96628 3.7452C5.68951 3.49112 6.39159 3.18045 7.06602 2.81607L7.03752 2.69983C6.50584 2.69983 5.99665 2.84231 5.60145 2.78682C5.38323 2.53635 5.42672 2.13065 5.28574 1.7707C4.99585 1.16988 4.58388 0.636086 4.07614 0.203395L4.10464 0.116405L4.19088 0.000170014ZM13.2647 3.33875L13.15 3.48423C13.185 3.66502 13.2638 3.83445 13.3795 3.97767C13.5196 4.05365 13.6792 4.08597 13.8379 4.07047C13.9965 4.05496 14.1469 3.99235 14.2696 3.89068C14.2749 3.79591 14.2441 3.70265 14.1834 3.62972C13.8908 3.49542 13.5827 3.39769 13.2662 3.33875H13.2647Z" fill="#B1BAD3"/>
</g>
<defs>
<clipPath id="clip0_3722_2">
<rect width="16.7979" height="18" fill="white" transform="translate(0.601074)"/>
</clipPath>
</defs>
</svg>
