<svg width="25" height="21" viewBox="0 0 25 21" fill="none" xmlns="http://www.w3.org/2000/svg">
<path fill-rule="evenodd" clip-rule="evenodd" d="M20.7342 5.50016L12.3339 0.5L3.93359 5.50016V15.5006L12.3339 20.5007L20.7342 15.5006V5.50016Z" fill="#636B6B"/>
<path fill-rule="evenodd" clip-rule="evenodd" d="M12.3339 0.5L3.93359 5.50016V15.5006L12.3339 20.5007L20.7342 15.5006V5.50016L12.3339 0.5ZM20.2341 5.78443L12.3339 1.08189L4.43361 5.78443V15.2163L12.3339 19.9188L20.2341 15.2163V5.78443Z" fill="#FDE6CA"/>
<path d="M24.3335 8.69989L21.8335 9.39991V12.2C23.3117 11.7862 24.3335 10.4387 24.3335 8.90374V8.69989Z" fill="#D1C3AF"/>
<path d="M0.333496 8.69989L2.83358 9.39991V12.2C1.3554 11.7862 0.333496 10.4387 0.333496 8.90374V8.69989Z" fill="#D1C3AF"/>
<path d="M12.3329 15.3001C14.5839 15.3001 16.0331 14.1715 16.0331 12.5691C16.0331 11.1757 14.795 10.4373 13.8384 10.3397C14.8794 10.1585 15.8924 9.39221 15.8924 8.22179C15.8924 6.67514 14.5417 5.69978 12.347 5.69978C10.7009 5.69978 9.51915 6.3268 8.75943 7.17676L9.75832 8.41686C10.4196 7.78983 11.2356 7.45543 12.136 7.45543C13.1207 7.45543 13.8805 7.81771 13.8805 8.55619C13.8805 9.23894 13.1912 9.54548 12.15 9.54548C11.7983 9.54548 11.1511 9.54548 10.9823 9.53155V11.315C11.123 11.3011 11.7561 11.2872 12.15 11.2872C13.4584 11.2872 14.0353 11.6216 14.0353 12.3601C14.0353 13.0568 13.4021 13.5445 12.2626 13.5445C11.3481 13.5445 10.3211 13.1543 9.67391 12.4855L8.63281 13.8092C9.32219 14.6452 10.6025 15.3001 12.3329 15.3001Z" fill="#FDE6CA"/>
</svg>
