<svg width="18" height="12" viewBox="0 0 18 12" xmlns="http://www.w3.org/2000/svg">
<g clip-path="url(#clip0_768_2185)">
<path d="M8.416 10.218L1.5895 2.33366C1.5335 2.26999 1.5 2.19333 1.5 2.11133C1.5 1.86599 1.7985 1.66699 2.1665 1.66699C2.1675 1.66699 2.1685 1.66699 2.1695 1.66699L15.823 1.66699C15.824 1.66699 15.8245 1.66699 15.8255 1.66699C16.1935 1.66699 16.492 1.86599 16.492 2.11133C16.492 2.19299 16.459 2.26966 16.401 2.33566L16.4025 2.33366L9.576 10.218C9.459 10.3537 9.2435 10.4433 8.996 10.4433C8.7485 10.4433 8.533 10.3537 8.4175 10.2203L8.416 10.218Z" fill="#F81919"/>
</g>
<defs>
<clipPath id="clip0_768_2185">
<rect width="12" height="18" fill="white" transform="matrix(-4.37114e-08 1 1 4.37114e-08 0 0)"/>
</clipPath>
</defs>
</svg>
