<svg width="28" height="28" viewBox="0 0 28 28" fill="none" xmlns="http://www.w3.org/2000/svg">
<path d="M13.1938 24.2058L6.98948 27.2203C6.78618 27.329 6.54432 27.3921 6.28756 27.3921C5.44892 27.3921 4.7689 26.7121 4.7689 25.8734C4.7689 25.8042 4.77328 25.7367 4.78205 25.6701L4.78117 25.678L5.73898 18.6675C5.7495 18.6009 5.75563 18.5238 5.75563 18.4458C5.75563 18.0462 5.5979 17.6843 5.34114 17.417L5.34201 17.4179L0.42326 12.2415C0.161242 11.9689 0 11.5983 0 11.1899C0 10.445 0.536304 9.82547 1.24349 9.69578L1.25313 9.69403L8.26365 8.43213C8.72809 8.35064 9.11192 8.06321 9.32311 7.66886L9.32661 7.66098L12.6917 1.41023C12.9502 0.930006 13.4497 0.608398 14.0237 0.608398C14.5976 0.608398 15.0971 0.930006 15.3513 1.40234L15.3557 1.41023L18.6743 7.66098C18.889 8.06321 19.2728 8.35064 19.7285 8.43126L19.7372 8.43213L26.7477 9.69403C27.4646 9.82547 28 10.445 28 11.189C28 11.5974 27.8388 11.9681 27.5767 12.2415L27.5776 12.2406L22.6589 17.3697C22.3986 17.6369 22.2382 18.0024 22.2382 18.4046C22.2382 18.4975 22.247 18.5877 22.2628 18.6754L22.261 18.6666L23.2188 25.6771C23.2267 25.7358 23.2311 25.8033 23.2311 25.8725C23.2311 26.7112 22.5511 27.3912 21.7124 27.3912C21.4557 27.3912 21.2138 27.3272 21.0026 27.2151L14.7712 24.2049C14.5398 24.0936 14.269 24.0288 13.9825 24.0288C13.6959 24.0288 13.4251 24.0936 13.1824 24.2093L13.1938 24.204V24.2058Z" fill="currentColor"/>
</svg>
