<svg width="30" height="30" viewBox="0 0 30 30" fill="none" xmlns="http://www.w3.org/2000/svg">
<path d="M19.905 21.8807L22.3661 10.2793C22.5836 9.25821 21.9975 8.85643 21.3279 9.10714L6.86357 14.6818C5.87571 15.0664 5.89286 15.6193 6.69643 15.87L10.3961 17.025L18.9846 11.6175C19.3864 11.3496 19.755 11.5007 19.4539 11.7686L12.5068 18.0461L12.2389 21.8636C12.6236 21.8636 12.7918 21.6964 12.9921 21.495L14.7996 19.7539L18.5496 22.5161C19.2364 22.9007 19.7218 22.7004 19.9061 21.8796L19.905 21.8807ZM30 15C30 23.2864 23.2864 30 15 30C6.71357 30 0 23.2864 0 15C0 6.71357 6.71357 0 15 0C23.2864 0 30 6.71357 30 15Z" fill="currentColor"/>
</svg>
