<svg width="36" height="36" viewBox="0 0 36 36" fill="none" xmlns="http://www.w3.org/2000/svg">
<path d="M28.1121 22.225C26.8971 21.695 31.4771 14.435 23.6821 8.06C23.6821 8.06 24.0471 13.015 21.9121 13.015C20.3221 13 23.3321 5.5 16.1571 2C16.1571 2 17.8971 6 11.8971 10C6.89713 13.345 7.30714 16.95 7.83714 19.43C8.36714 21.91 5.72214 21.2 5.00714 19.43C5.00714 19.43 4.29714 34 17.0421 34C29.7871 34 29.7921 20.895 29.7921 20.895C29.7921 20.895 29.3521 22.755 28.1121 22.225ZM24.4171 21.225L21.9421 23.65C21.7661 23.823 21.6571 24.064 21.6571 24.331C21.6571 24.391 21.6631 24.449 21.6731 24.506L21.6721 24.5L22.2571 27.905C22.2671 27.956 22.2721 28.015 22.2721 28.075C22.2721 28.594 21.8511 29.015 21.3321 29.015C21.1711 29.015 21.0191 28.974 20.8871 28.903L20.8921 28.905L17.8371 27.295C17.7091 27.231 17.5571 27.193 17.3971 27.193C17.2371 27.193 17.0851 27.231 16.9511 27.298L16.9571 27.295L13.8971 28.88C13.7691 28.949 13.6181 28.99 13.4571 28.99C12.9381 28.99 12.5171 28.569 12.5171 28.05C12.5171 27.99 12.5231 27.931 12.5331 27.875L12.5321 27.881L13.1221 24.501C13.1301 24.454 13.1351 24.4 13.1351 24.344C13.1351 24.079 13.0271 23.839 12.8521 23.666L10.3971 21.241C10.2191 21.07 10.1091 20.83 10.1091 20.564C10.1091 20.098 10.4471 19.712 10.8921 19.637L10.8981 19.636L14.3181 19.136C14.6281 19.095 14.8861 18.905 15.0211 18.641L15.0231 18.636L16.5531 15.541C16.7121 15.229 17.0301 15.019 17.3981 15.019C17.7661 15.019 18.0841 15.229 18.2411 15.536L18.2431 15.541L19.7731 18.636C19.9101 18.905 20.1681 19.095 20.4731 19.136H20.4781L23.8981 19.636C24.3481 19.712 24.6861 20.098 24.6861 20.564C24.6861 20.83 24.5761 21.07 24.3981 21.241L24.4171 21.225Z" fill="#B1BAD3"/>
</svg>
