<svg width="28" height="28" viewBox="0 0 28 28" fill="none" xmlns="http://www.w3.org/2000/svg">
<path d="M25.6626 12.9168L3.57469 0.167156C3.39633 0.0625666 3.18155 0 2.95183 0C2.26453 0 1.70703 0.557498 1.70703 1.2448C1.70703 1.24667 1.70703 1.24853 1.70703 1.2504V26.7505C1.70703 26.7524 1.70703 26.7533 1.70703 26.7552C1.70703 27.4425 2.26453 28 2.95183 28C3.18062 28 3.3954 27.9384 3.5803 27.83L3.57469 27.8328L25.6626 15.0832C26.0427 14.8647 26.2939 14.4622 26.2939 14C26.2939 13.5378 26.0427 13.1353 25.6691 12.9196L25.6626 12.9168Z" fill="currentColor"/>
</svg>
