<svg width="36" height="36" viewBox="0 0 36 36" fill="none" xmlns="http://www.w3.org/2000/svg">
<rect x="5.88672" y="2.53027" width="4.42275" height="29.4223" rx="2.21137" fill="#B1BAD3"/>
<rect width="4.48563" height="30.0035" rx="2.24281" transform="matrix(-0.00372302 -0.999993 0.999995 -0.00326851 5.90625 32.0557)" fill="#B1BAD3"/>
<mask id="path-3-inside-1_1025_6598" fill="white">
<path d="M7.80008 15.0272C8.87867 14.2436 10.1114 13.6666 11.428 13.3293C12.7446 12.9921 14.1192 12.9011 15.4733 13.0615C16.8274 13.222 18.1345 13.6308 19.32 14.2646C20.5054 14.8984 21.5461 15.7447 22.3825 16.7553C23.2189 17.766 23.8346 18.921 24.1946 20.1546C24.5546 21.3882 24.6517 22.6761 24.4804 23.9449C24.3091 25.2137 23.8728 26.4384 23.1964 27.5491C22.52 28.6599 21.6167 29.635 20.5381 30.4186L18.0735 27.4406C18.7347 26.9602 19.2885 26.3625 19.7031 25.6815C20.1178 25.0006 20.3853 24.2498 20.4902 23.472C20.5952 22.6942 20.5357 21.9047 20.315 21.1485C20.0944 20.3923 19.7169 19.6842 19.2041 19.0646C18.6914 18.4451 18.0535 17.9262 17.3267 17.5377C16.6 17.1492 15.7987 16.8986 14.9686 16.8002C14.1385 16.7018 13.2958 16.7576 12.4887 16.9644C11.6816 17.1711 10.9259 17.5248 10.2647 18.0052L7.80008 15.0272Z"/>
</mask>
<path d="M7.80008 15.0272C8.87867 14.2436 10.1114 13.6666 11.428 13.3293C12.7446 12.9921 14.1192 12.9011 15.4733 13.0615C16.8274 13.222 18.1345 13.6308 19.32 14.2646C20.5054 14.8984 21.5461 15.7447 22.3825 16.7553C23.2189 17.766 23.8346 18.921 24.1946 20.1546C24.5546 21.3882 24.6517 22.6761 24.4804 23.9449C24.3091 25.2137 23.8728 26.4384 23.1964 27.5491C22.52 28.6599 21.6167 29.635 20.5381 30.4186L18.0735 27.4406C18.7347 26.9602 19.2885 26.3625 19.7031 25.6815C20.1178 25.0006 20.3853 24.2498 20.4902 23.472C20.5952 22.6942 20.5357 21.9047 20.315 21.1485C20.0944 20.3923 19.7169 19.6842 19.2041 19.0646C18.6914 18.4451 18.0535 17.9262 17.3267 17.5377C16.6 17.1492 15.7987 16.8986 14.9686 16.8002C14.1385 16.7018 13.2958 16.7576 12.4887 16.9644C11.6816 17.1711 10.9259 17.5248 10.2647 18.0052L7.80008 15.0272Z" stroke="#B1BAD3" stroke-width="16" mask="url(#path-3-inside-1_1025_6598)"/>
</svg>
