<svg width="28" height="28" viewBox="0 0 28 28" fill="none" xmlns="http://www.w3.org/2000/svg">
<path d="M0.75 1.16667C0.75 0.936548 0.936549 0.75 1.16667 0.75H26.8333C27.0635 0.75 27.25 0.936549 27.25 1.16667V26.8333C27.25 27.0635 27.0635 27.25 26.8333 27.25H1.16667C0.936549 27.25 0.75 27.0635 0.75 26.8333V1.16667Z" fill="#308CC9" stroke="white" stroke-width="1.5"/>
<path d="M13.6599 5.83334C15.1665 5.83334 16.3718 6.22738 17.299 7.06182C18.2029 7.87308 18.6665 8.98566 18.6665 10.3764C18.6665 11.5122 18.3652 12.4625 17.8089 13.2042C17.6003 13.4592 16.9513 14.0618 15.8387 15.0122C15.4215 15.383 15.097 15.7771 14.8884 16.1943C14.6334 16.6578 14.5175 17.1678 14.5175 17.7473V18.1413H12.0374V17.7473C12.0374 16.8896 12.1764 16.1479 12.4778 15.5453C12.8023 14.8963 13.6831 13.9459 15.1201 12.6711L15.5142 12.2307C15.9314 11.6976 16.14 11.1413 16.14 10.5386C16.14 9.72738 15.9082 9.10156 15.4678 8.63798C15.0043 8.1744 14.3552 7.94262 13.5208 7.94262C12.4778 7.94262 11.7129 8.26712 11.2493 8.91613C10.8321 9.47242 10.6235 10.2837 10.6235 11.3035H8.1665C8.1665 9.61149 8.65326 8.2903 9.64995 7.31679C10.6235 6.3201 11.9678 5.83334 13.6599 5.83334ZM13.2658 19.3929C13.7526 19.3929 14.1698 19.532 14.4943 19.8565C14.8188 20.1578 14.9811 20.5519 14.9811 21.0386C14.9811 21.5254 14.8188 21.9194 14.4943 22.2439C14.1466 22.5453 13.7294 22.7075 13.2658 22.7075C12.7791 22.7075 12.385 22.5453 12.0837 22.2208C11.736 21.8963 11.5738 21.5022 11.5738 21.0386C11.5738 20.5519 11.736 20.1578 12.0837 19.8565C12.385 19.532 12.7791 19.3929 13.2658 19.3929Z" fill="white"/>
</svg>
