<svg width="28" height="28" viewBox="0 0 28 28" fill="none" xmlns="http://www.w3.org/2000/svg">
<path d="M2.47128 0H19.7654C20.6713 0 21.4125 0.741176 21.4125 1.64706V13.1765C21.4125 14.0824 20.6713 14.8235 19.7654 14.8235H10.7066L4.13481 19.7647V14.8235H2.47128C1.5654 14.8235 0.824219 14.0824 0.824219 13.1765V1.64706C0.824219 0.741176 1.5654 0 2.47128 0ZM23.8666 28V23.0588H25.5301C26.436 23.0588 27.1772 22.3176 27.1772 21.4118V9.88235C27.1772 8.97647 26.436 8.23529 25.5301 8.23529H23.883V14C23.883 15.8118 22.4007 17.2941 20.5889 17.2941H11.5301L6.58892 21.0988V21.4118C6.58892 22.3176 7.3301 23.0588 8.23598 23.0588H17.2948L23.8666 28Z" fill="currentColor"/>
</svg>
