<svg width="28" height="28" viewBox="0 0 28 28" fill="none" xmlns="http://www.w3.org/2000/svg">
<path d="M24.5034 13.6878C24.3345 14.3511 24.1245 14.9251 23.8646 15.4711L23.8891 15.4133C23.596 16.0302 23.2792 16.5579 22.9196 17.0514L22.9397 17.0225C23.8147 17.7943 24.3634 18.9178 24.3634 20.17C24.3634 20.8228 24.2138 21.4405 23.9477 21.9918L23.9582 21.9664C23.2635 23.4146 21.8092 24.3964 20.1256 24.3964C19.4694 24.3964 18.849 24.2476 18.2942 23.9816L18.3196 23.993L11.8706 20.9593C10.4671 20.2855 9.50542 18.8925 9.46255 17.271V17.2658C9.45467 17.1704 9.44942 17.0593 9.44942 16.9473C9.44942 16.8353 9.4538 16.7241 9.46342 16.6148L9.46255 16.6288C9.46255 16.501 9.46255 16.3855 9.46255 16.2586C9.4783 16.1545 9.49842 16.0644 9.52467 15.9769L9.52117 15.9926C9.59818 15.7266 9.68043 15.5035 9.77756 15.2882L9.76443 15.3215C9.89481 15.0633 10.0287 14.8428 10.1792 14.6354L10.1696 14.6494L10.2737 14.5217C10.433 14.3161 10.6036 14.1341 10.7908 13.9695L10.7952 13.966C11.5337 13.3247 12.505 12.9335 13.5673 12.9335C13.6145 12.9335 13.6609 12.9344 13.7082 12.9361H13.7012C13.7091 12.9361 13.7187 12.9361 13.7274 12.9361C14.3749 12.9361 14.9866 13.0858 15.5317 13.3527L15.5072 13.3422L17.4524 14.2566C16.7174 14.8761 15.7601 15.2532 14.7145 15.2532C14.6917 15.2532 14.6698 15.2532 14.6471 15.2523H14.6506H13.7012C12.9679 15.2567 12.3353 15.6855 12.0386 16.3067L12.0343 16.3181C11.924 16.5465 11.8592 16.8151 11.8592 17.0986C11.8592 17.6893 12.1393 18.2152 12.5741 18.5494L12.5785 18.5529C13.1989 18.7323 13.9112 18.8373 14.6488 18.8426H14.6515C18.9426 18.8084 22.4077 15.3223 22.4077 11.0268C22.4077 7.94498 20.6235 5.27965 18.0326 4.00736L17.9862 3.98723L11.56 0.953514C10.4811 0.356745 9.19479 0.00585938 7.82712 0.00585938C3.50448 0.00585938 0 3.51034 0 7.83298C0 11.1108 2.01431 13.9179 4.87303 15.0835L4.92553 15.1027L6.08319 15.6356C5.99044 16.0871 5.93794 16.606 5.93794 17.138C5.93794 20.2409 7.74662 22.922 10.3673 24.1837L10.4137 24.2039L16.8513 27.2376C17.8322 27.7153 18.9855 27.9945 20.2035 27.9945C23.3125 27.9945 25.9971 26.1762 27.2519 23.545L27.272 23.4977C27.7314 22.5317 28 21.3994 28 20.2032C28 17.4959 26.6236 15.1106 24.5331 13.7079L24.5051 13.6904L24.5034 13.6878ZM4.39176 6.21943C5.08828 4.77301 6.54083 3.79123 8.22351 3.78773H8.22438C8.87628 3.7886 9.49405 3.93736 10.0444 4.20424L10.0191 4.19374L16.503 7.22746C17.8663 7.92923 18.7886 9.31353 18.8183 10.9175V10.9218L16.9887 10.0538C16.0165 9.58653 14.8746 9.3144 13.6697 9.3144C11.1531 9.3144 8.9139 10.5044 7.48411 12.3516L7.47098 12.37L6.31332 11.8494C4.9124 11.1415 3.96825 9.71341 3.96825 8.06486C3.96825 7.39459 4.124 6.7602 4.40226 6.19755L4.39089 6.22205L4.39176 6.21943Z" fill="currentColor"/>
</svg>
