<svg width="36" height="36" viewBox="0 0 36 36" fill="none" xmlns="http://www.w3.org/2000/svg">
<path d="M18.4641 23.9453H16.9641C13.8491 23.2003 10.2391 23.3453 6.36914 23.9453V25.1753L7.86914 25.4603C7.86914 25.4603 7.86914 30.0003 12.4091 30.0003C15.4691 30.0003 16.4641 27.2553 16.7891 25.4603H18.6191C18.9441 27.2553 19.9391 30.0003 22.9991 30.0003C27.5391 30.0003 27.5391 25.4603 27.5391 25.4603L29.0391 25.1753V23.9453C25.2441 23.3353 21.6591 23.2153 18.4641 23.9453Z" fill="#B1BAD3"/>
<path d="M32.235 17.8946H3.21C2.542 17.8946 2 18.4366 2 19.1046C2 19.7726 2.542 20.3146 3.21 20.3146C7.573 20.9396 12.612 21.2966 17.735 21.2966C22.858 21.2966 27.896 20.9396 32.829 20.2486L32.26 20.3136C32.928 20.3136 33.47 19.7716 33.47 19.1036C33.47 18.4356 32.928 17.8936 32.26 17.8936L32.235 17.8946Z" fill="#B1BAD3"/>
<path d="M25.6054 9.21C25.2304 7.924 24.0614 7 22.6774 7H22.6754H12.7454H12.7434C11.3594 7 10.1904 7.924 9.82039 9.188L9.81539 9.21L8.02539 15.5H27.3954L25.6054 9.21Z" fill="#B1BAD3"/>
</svg>
