<svg width="28" height="28" viewBox="0 0 28 28" fill="none" xmlns="http://www.w3.org/2000/svg">
<path d="M6.87453 16.1364C6.56226 16.1364 6.26837 16.0551 6.01208 15.9239L6.02433 15.93C5.73655 15.7804 5.54324 15.4865 5.54324 15.1489C5.54324 14.6678 5.93686 14.2742 6.41794 14.2742C6.56139 14.2742 6.69259 14.3057 6.81155 14.3678H6.80543C6.8238 14.38 6.84916 14.3931 6.88065 14.3931C6.85529 14.2742 6.81155 14.1683 6.75557 14.0686V14.0748C6.54302 13.7249 5.61235 13.2254 4.79363 12.7881C2.669 11.651 -0.535882 9.9392 0.0764038 6.47191C0.54524 3.83558 2.82557 2.85418 4.74377 3.05448C6.27449 3.21105 7.318 4.0665 7.28651 5.12226C7.26814 5.79665 7.28651 6.3652 7.28651 6.3652C7.28651 6.37744 7.28651 6.39057 7.28651 6.40281C7.28651 6.88389 6.8929 7.2775 6.41182 7.2775C5.94298 7.2775 5.55549 6.90226 5.53712 6.44042C5.53712 6.41506 5.51875 5.8535 5.53712 5.12838C5.175 4.89746 4.72453 4.76013 4.25045 4.76013C4.04402 4.76013 3.83847 4.7855 3.64428 4.83536L3.66265 4.82924C2.67512 4.99193 1.91939 5.77915 1.80742 6.75969V6.77193C1.4453 8.82746 3.1632 9.92083 5.62459 11.239C6.79318 11.8574 7.81133 12.4015 8.24868 13.1633C8.47347 13.4817 8.60468 13.8753 8.60468 14.3004C8.60468 14.7938 8.42361 15.2442 8.12972 15.5941C7.81745 15.9256 7.36786 16.1373 6.87365 16.1373L6.87453 16.1364Z" fill="#F0A400"/>
<path d="M21.1317 16.1364C21.1317 16.1364 21.1256 16.1364 21.1194 16.1364C20.6261 16.1364 20.1826 15.9239 19.8695 15.5932C19.5756 15.2495 19.3945 14.7999 19.3945 14.3066C19.3945 13.8814 19.5257 13.4878 19.7567 13.1633L19.7505 13.1694C20.1879 12.4076 21.2191 11.8574 22.3746 11.2451C24.836 9.93308 26.5548 8.83359 26.1918 6.77805C26.0728 5.7844 25.3171 4.99718 24.3488 4.83536H24.3366C24.1616 4.79162 23.9552 4.76013 23.7496 4.76013C23.2747 4.76013 22.8251 4.89746 22.4498 5.13538L22.4621 5.12926C22.4621 5.84738 22.4621 6.40981 22.4621 6.4413C22.4437 6.91013 22.0562 7.2845 21.5874 7.2845C21.1063 7.2845 20.7127 6.89089 20.7127 6.40981C20.7127 6.39756 20.7127 6.38444 20.7127 6.3722C20.7127 6.3722 20.7127 5.80364 20.7127 5.12226C20.6873 4.0665 21.7308 3.21018 23.2616 3.05448C25.1798 2.85418 27.4601 3.83558 27.9228 6.47191C28.5351 9.93308 25.3302 11.651 23.2056 12.7881C22.3869 13.2254 21.4562 13.7249 21.2436 14.0748C21.1815 14.1622 21.1439 14.2681 21.1439 14.3809C21.1439 14.387 21.1439 14.3931 21.1439 14.3931C21.1562 14.3809 21.1754 14.3748 21.1938 14.3678C21.3066 14.3118 21.4439 14.2742 21.5874 14.2742C22.0685 14.2742 22.4621 14.6678 22.4621 15.1489C22.4621 15.4926 22.2688 15.7865 21.981 15.93H21.9749C21.7378 16.0612 21.4439 16.1364 21.1317 16.1364Z" fill="#F0A400"/>
<path d="M23.5123 26.2702L23.1371 25.0955C22.9307 24.4456 22.5432 24.0459 22.1312 24.0459H5.87412C5.45514 24.0459 5.07465 24.4456 4.86822 25.0955L4.49297 26.2702C4.25593 27.0321 4.55508 27.982 5.04316 27.982H22.9744C23.4555 27.982 23.7555 27.026 23.5115 26.2702H23.5123Z" fill="#A14400"/>
<path d="M7.88086 23.1709H20.1266V27.5444H7.88086V23.1709Z" fill="#A14400"/>
<path d="M11.7409 24.0459H16.2639C16.7074 24.0459 17.0634 24.4019 17.0634 24.8454V25.8696C17.0634 26.3131 16.7074 26.6691 16.2639 26.6691H11.7409C11.2974 26.6691 10.9414 26.3131 10.9414 25.8696V24.8454C10.9414 24.4019 11.2974 24.0459 11.7409 24.0459Z" fill="#FED100"/>
<path d="M20.1266 23.1711H7.88086L8.64272 20.9844H19.3577L20.1266 23.1711Z" fill="#B95200"/>
<path d="M17.4577 21.7216L16.8638 20.5469H11.1346L10.5476 21.7216C10.5223 21.7592 10.5039 21.8091 10.5039 21.8589C10.5039 22.34 12.0722 22.7336 14.0027 22.7336C15.9331 22.7336 17.5015 22.34 17.5015 21.8589C17.5015 21.8091 17.4831 21.7592 17.4577 21.7216Z" fill="#FED100"/>
<path d="M16.871 20.5475C16.871 21.0286 15.5905 21.4222 14.0029 21.4222C12.4153 21.4222 11.1348 21.0286 11.1348 20.5475C11.1348 20.0665 12.4153 19.6729 14.0029 19.6729C15.5905 19.6729 16.871 20.0665 16.871 20.5475Z" fill="#F0A400"/>
<path d="M15.316 17.0484H12.6919C12.6919 17.0982 12.6919 17.1612 12.6919 17.2233C12.6919 18.4479 12.3674 19.5911 11.7988 20.5786L11.8172 20.5472C11.8172 21.128 16.1907 21.128 16.1907 20.5472C15.6405 19.5911 15.316 18.4479 15.316 17.2233C15.316 17.1612 15.316 17.0982 15.316 17.0361V17.0484Z" fill="#FED100"/>
<path d="M15.4343 18.4112L14.0033 19.6734L12.5723 18.4112L12.6597 17.749H15.3459L15.4334 18.4112H15.4343Z" fill="#F0A400"/>
<path d="M21.9688 2.78511C19.8004 1.06109 17.0207 0.0175781 14.003 0.0175781C10.9853 0.0175781 8.20461 1.06109 6.01175 2.80435L6.03711 2.78599L5.69336 3.05452L8.6612 15.7376L14.003 18.799L19.3447 15.7376L22.3126 3.05452L21.9688 2.78511Z" fill="#FED100"/>
<path d="M12.8795 13.2754V6.38373L11.1555 8.13311L9.63086 6.55254L13.2232 3.00391H15.5228V13.2816L12.8804 13.2754H12.8795Z" fill="#071824"/>
</svg>
