<svg width="36" height="36" viewBox="0 0 36 36" xmlns="http://www.w3.org/2000/svg">
<g clip-path="url(#clip0_663_3388)">
<path d="M10.133 16.788C10.873 13.073 14.107 10.312 17.986 10.312C20.045 10.312 21.922 11.09 23.34 12.367L23.333 12.361L26.826 8.361C24.484 6.275 21.379 5 17.976 5C11.157 5 5.534 10.119 4.739 16.724L4.733 16.788H2L7.333 24.295L12.666 16.788H10.133Z" />
<path d="M33.9992 20.0939L28.6662 12.5869L23.3332 20.0939H25.8662C25.1062 23.7839 21.8832 26.5189 18.0232 26.5189C15.9912 26.5189 14.1362 25.7609 12.7252 24.5129L12.7332 24.5199L9.24023 28.5199C11.5822 30.6059 14.6872 31.8809 18.0902 31.8809C24.9092 31.8809 30.5322 26.7619 31.3272 20.1569L31.3332 20.0929L33.9992 20.0939Z" />
</g>
<defs>
<clipPath id="clip0_663_3388">
<rect width="36" height="36" fill="white"/>
</clipPath>
</defs>
</svg>
