<svg width="18" height="12" viewBox="0 0 18 12" fill="none" xmlns="http://www.w3.org/2000/svg">
<g clip-path="url(#clip0_768_2190)">
<path d="M8.416 1.78201L1.5895 9.66634C1.5335 9.73001 1.5 9.80667 1.5 9.88867C1.5 10.134 1.7985 10.333 2.1665 10.333C2.1675 10.333 2.1685 10.333 2.1695 10.333L15.823 10.333C15.824 10.333 15.8245 10.333 15.8255 10.333C16.1935 10.333 16.492 10.134 16.492 9.88867C16.492 9.80701 16.459 9.73034 16.401 9.66434L16.4025 9.66634L9.576 1.78201C9.459 1.64634 9.2435 1.55667 8.996 1.55667C8.7485 1.55667 8.533 1.64634 8.4175 1.77967L8.416 1.78201Z" fill="#38F819"/>
</g>
<defs>
<clipPath id="clip0_768_2190">
<rect width="12" height="18" fill="white" transform="translate(0 12) rotate(-90)"/>
</clipPath>
</defs>
</svg>
