<svg width="28" height="28" viewBox="0 0 28 28" fill="none" xmlns="http://www.w3.org/2000/svg">
<path d="M12.9168 6.22493L0.167156 20.9502C0.0625666 21.0691 -4.29689e-08 21.2123 -3.62745e-08 21.3654C-1.6246e-08 21.8236 0.557498 22.1953 1.2448 22.1953C1.24667 22.1953 1.24853 22.1953 1.2504 22.1953L26.7505 22.1953C26.7524 22.1953 26.7533 22.1953 26.7552 22.1953C27.4425 22.1953 28 21.8236 28 21.3654C28 21.2129 27.9384 21.0697 27.83 20.9465L27.8328 20.9502L15.0832 6.22493C14.8647 5.97155 14.4622 5.80408 14 5.80408C13.5378 5.80408 13.1353 5.97155 12.9196 6.22057L12.9168 6.22493Z" fill="#38F819"/>
</svg>
