<svg width="36" height="36" viewBox="0 0 36 36" fill="none" xmlns="http://www.w3.org/2000/svg">
<g clip-path="url(#clip0_614_4519)">
<path d="M29.374 9.2H30.934V5.88H19.334V3H16.001V5.88H4.374V9.2H6.627L2 20.427C2 23.947 4.853 26.8 8.373 26.8C11.893 26.8 14.746 23.947 14.746 20.427L10.119 9.2H15.986V29.08H11.333V32.4H23.92V29.08H19.333V9.2H25.893L21.266 20.427C21.266 23.947 24.119 26.8 27.639 26.8C31.159 26.8 34.012 23.947 34.012 20.427L29.374 9.2ZM4.668 20.427L8.375 11.48L12.055 20.427H4.668ZM23.921 20.427L27.601 11.48L31.334 20.427H23.921Z" fill="#B1BAD3"/>
</g>
<defs>
<clipPath id="clip0_614_4519">
<rect width="36" height="36" fill="white"/>
</clipPath>
</defs>
</svg>
