<svg width="28" height="28" viewBox="0 0 28 28" fill="none" xmlns="http://www.w3.org/2000/svg">
<path d="M14.6481 18.8446H13.3135C10.5419 18.1817 7.33 18.3107 3.88672 18.8446V19.939L5.22132 20.1925C5.22132 20.1925 5.22132 24.2319 9.26073 24.2319C11.9833 24.2319 12.8686 21.7896 13.1578 20.1925H14.786C15.0752 21.7896 15.9604 24.2319 18.683 24.2319C22.7224 24.2319 22.7224 20.1925 22.7224 20.1925L24.057 19.939V18.8446C20.6805 18.3018 17.4908 18.1951 14.6481 18.8446Z" fill="currentColor"/>
<path d="M26.9012 13.4609H1.07658C0.482237 13.4609 0 13.9431 0 14.5374C0 15.1318 0.482237 15.614 1.07658 15.614C4.9585 16.1701 9.44188 16.4877 14 16.4877C18.5581 16.4877 23.0406 16.1701 27.4297 15.5553L26.9234 15.6131C27.5178 15.6131 28 15.1309 28 14.5365C28 13.9422 27.5178 13.46 26.9234 13.46L26.9012 13.4609Z" fill="currentColor"/>
<path d="M21.0029 5.7339C20.6692 4.58969 19.6291 3.76758 18.3977 3.76758H18.396H9.56088H9.5591C8.32771 3.76758 7.28761 4.58969 6.9584 5.71432L6.95396 5.7339L5.36133 11.3303H22.5955L21.0029 5.7339Z" fill="currentColor"/>
</svg>
