<svg width="28" height="28" viewBox="0 0 28 28" fill="none" xmlns="http://www.w3.org/2000/svg">
<path fill-rule="evenodd" clip-rule="evenodd" d="M22.1673 8.3611L14.0007 3.5L5.83398 8.3611V18.0834L14.0007 22.9444L22.1673 18.0834V8.3611Z" fill="#636B6B"/>
<path fill-rule="evenodd" clip-rule="evenodd" d="M14.0007 3.5L5.83398 8.3611V18.0834L14.0007 22.9444L22.1673 18.0834V8.3611L14.0007 3.5ZM21.6812 8.63746L14.0007 4.0657L6.3201 8.63746V17.807L14.0007 22.3787L21.6812 17.807V8.63746Z" fill="#FDE6CA"/>
<path d="M25.6649 11.4717L23.2344 12.1522V14.8745C24.6715 14.4721 25.6649 13.1622 25.6649 11.6699V11.4717Z" fill="#D1C3AF"/>
<path d="M2.33398 11.4717L4.76454 12.1522V14.8745C3.32746 14.4721 2.33398 13.1622 2.33398 11.6699V11.4717Z" fill="#D1C3AF"/>
<path d="M13.9995 17.888C16.188 17.888 17.5968 16.7908 17.5968 15.2329C17.5968 13.8783 16.3932 13.1605 15.4631 13.0656C16.4752 12.8894 17.46 12.1444 17.46 11.0066C17.46 9.50292 16.1469 8.55469 14.0132 8.55469C12.413 8.55469 11.264 9.16427 10.5254 9.99059L11.4965 11.1962C12.1394 10.5866 12.9327 10.2615 13.8081 10.2615C14.7655 10.2615 15.5041 10.6137 15.5041 11.3317C15.5041 11.9954 14.8339 12.2934 13.8218 12.2934C13.4798 12.2934 12.8506 12.2934 12.6865 12.2799V14.0138C12.8233 14.0002 13.4388 13.9867 13.8218 13.9867C15.0938 13.9867 15.6546 14.3118 15.6546 15.0298C15.6546 15.7071 15.039 16.1812 13.9312 16.1812C13.0421 16.1812 12.0437 15.8019 11.4145 15.1517L10.4023 16.4386C11.0725 17.2514 12.3172 17.888 13.9995 17.888Z" fill="#FDE6CA"/>
</svg>
