<svg width="18" height="18" viewBox="0 0 18 18" fill="none" xmlns="http://www.w3.org/2000/svg">
<path d="M9 14.8125C7.45843 14.8125 5.98 14.2001 4.88995 13.1101C3.79989 12.02 3.18751 10.5416 3.18751 9H1.31251C1.31251 13.245 4.75501 16.6875 9 16.6875V14.8125ZM9 3.1875C10.5416 3.1875 12.02 3.79989 13.1101 4.88994C14.2001 5.98 14.8125 7.45843 14.8125 9H16.6875C16.6875 4.75425 13.245 1.3125 9 1.3125V3.1875ZM3.18751 9C3.18751 7.395 3.83701 5.943 4.89001 4.89L3.56401 3.564C2.84923 4.27718 2.28238 5.12454 1.896 6.05741C1.50962 6.99028 1.31133 7.99028 1.31251 9H3.18751ZM4.89001 4.89C5.42904 4.34932 6.06967 3.92056 6.77502 3.62838C7.48037 3.3362 8.23653 3.18637 9 3.1875V1.3125C6.87751 1.3125 4.9545 2.17425 3.56401 3.564L4.89001 4.89ZM3.56401 4.89L13.11 14.436L14.436 13.11L4.89001 3.564L3.56401 4.89ZM14.8125 9C14.8125 10.605 14.163 12.057 13.11 13.11L14.436 14.436C15.1508 13.7228 15.7177 12.8755 16.1041 11.9426C16.4904 11.0097 16.6887 10.0097 16.6875 9H14.8125ZM13.11 13.11C12.571 13.6507 11.9303 14.0794 11.225 14.3716C10.5196 14.6638 9.76348 14.8136 9 14.8125V16.6875C11.1225 16.6875 13.0455 15.8257 14.436 14.436L13.11 13.11Z" fill="#E91134"/>
</svg>
