<svg width="28" height="28" viewBox="0 0 28 28" fill="none" xmlns="http://www.w3.org/2000/svg">
<path fill-rule="evenodd" clip-rule="evenodd" d="M22.1673 9.52811L14.0007 4.66699L5.83398 9.52811V19.2504L14.0007 24.1114L22.1673 19.2504V9.52811Z" fill="#5D6559"/>
<path fill-rule="evenodd" clip-rule="evenodd" d="M14.0007 4.66699L5.83398 9.52811V19.2504L14.0007 24.1114L22.1673 19.2504V9.52811L14.0007 4.66699ZM21.6812 9.80447L14.0007 5.23271L6.3201 9.80447V18.974L14.0007 23.5457L21.6812 18.974V9.80447Z" fill="#E9D18C"/>
<path d="M13.1336 18.7943C13.1336 18.9315 13.2434 19.055 13.3944 19.055H14.9185C15.0558 19.055 15.1656 18.9315 15.1656 18.7943V9.98246C15.1656 9.84521 15.0558 9.72168 14.9185 9.72168H13.6553L11.6507 11.2864C11.6095 11.3276 11.5684 11.4374 11.5684 11.4923V12.357C11.5684 12.4942 11.6782 12.6178 11.8155 12.6178H13.1336V18.7943Z" fill="#E9D18C"/>
<path d="M25.6649 8.75L23.2344 9.43056V12.1528C24.6715 11.7504 25.6649 10.4405 25.6649 8.94819V8.75Z" fill="#CBC9B5"/>
<path d="M25.6649 11.8613L23.2344 12.5419V15.2641C24.6715 14.8617 25.6649 13.5519 25.6649 12.0595V11.8613Z" fill="#A1A498"/>
<path d="M25.6649 14.9717L23.2344 15.6522V18.3745C24.6715 17.9721 25.6649 16.6622 25.6649 15.1699V14.9717Z" fill="#5D6559"/>
<path d="M2.33398 8.75L4.76454 9.43056V12.1528C3.32746 11.7504 2.33398 10.4405 2.33398 8.94819V8.75Z" fill="#CBC9B5"/>
<path d="M2.33398 11.8613L4.76454 12.5419V15.2641C3.32746 14.8617 2.33398 13.5519 2.33398 12.0595V11.8613Z" fill="#A1A498"/>
<path d="M2.33398 14.9717L4.76454 15.6522V18.3745C3.32746 17.9721 2.33398 16.6622 2.33398 15.1699V14.9717Z" fill="#5D6559"/>
</svg>
