<svg width="45" height="17" viewBox="0 0 45 17" xmlns="http://www.w3.org/2000/svg">
<rect y="1" width="45" height="15" rx="2" />
<path d="M7.06 9.736V10.852H9.472V9.736H7.06ZM9.472 11.896H7.06V12.544H5.944V6.556H9.472V5.512H10.6V6.556H14.164V12.508H13.048V11.896H10.6V14.272H9.472V11.896ZM10.6 10.852H13.048V9.736H10.6V10.852ZM13.048 8.74V7.612H10.6V8.74H13.048ZM9.472 7.612H7.06V8.74H9.472V7.612ZM15.088 3.976V6.244H13.984V5.02H5.968V6.304H4.864V3.976H9.352C9.244 3.712 9.136 3.472 9.016 3.244L10.228 3.052C10.324 3.328 10.432 3.64 10.528 3.976H15.088ZM19.264 8.428V14.236H18.172V8.692C17.824 9.724 17.392 10.684 16.864 11.548L16.396 10.372C17.188 9.244 17.752 7.948 18.112 6.508H16.612V5.416H18.172V3.172H19.264V5.416H20.584V6.508H19.264V7.156C19.816 7.768 20.368 8.452 20.932 9.208L20.296 10.18C19.9 9.484 19.552 8.896 19.264 8.428ZM20.812 4.384H23.656C23.5 4 23.332 3.652 23.14 3.34L24.304 3.148C24.472 3.508 24.628 3.928 24.772 4.384H27.388V5.428H24.1C23.512 6.448 22.996 7.192 22.552 7.66C23.2 7.636 23.848 7.588 24.496 7.528C24.784 7.108 25.048 6.676 25.288 6.22L26.212 6.712C25.012 9.1 23.26 10.72 20.944 11.584L20.32 10.636C21.652 10.168 22.78 9.448 23.704 8.488C22.936 8.536 22.12 8.572 21.268 8.608L21.04 7.684C21.136 7.66 21.208 7.624 21.256 7.588C21.688 7.312 22.24 6.592 22.924 5.428H20.812V4.384ZM24.7 11.932C23.572 12.928 22.264 13.684 20.776 14.212L20.152 13.24C22.936 12.328 25.012 10.588 26.404 7.996L27.352 8.488C26.8 9.52 26.152 10.444 25.408 11.236C26.224 11.956 26.932 12.664 27.52 13.384L26.68 14.224C26.188 13.504 25.528 12.736 24.7 11.932ZM33.412 3.112H34.588V5.188H38.86V10.984H37.72V10.3H34.588V14.32H33.412V10.3H30.292V10.984H29.152V5.188H33.412V3.112ZM30.292 9.184H33.412V6.304H30.292V9.184ZM34.588 9.184H37.72V6.304H34.588V9.184Z" fill="white"/>
</svg>
