<svg width="36" height="36" viewBox="0 0 36 36" fill="none" xmlns="http://www.w3.org/2000/svg">
<g clip-path="url(#clip0_1040_6040)">
<path d="M18 0C8.1 0 0 8.1 0 18C0 27.9 8.1 36 18 36C27.9 36 36 27.9 36 18C36 8.1 27.9 0 18 0ZM20.85 5.1L20.1 22.2C20.1 23.25 19.2 24 18.15 24H17.7C16.65 24 15.9 23.25 15.75 22.2L15 5.1C15 4.05 15.75 3.3 16.65 3.3H19.05C20.1 3.3 21 4.05 20.85 5.1ZM20.1 32.1C19.5 32.7 18.75 33 18 33C17.1 33 16.5 32.7 15.9 32.1C15.3 31.5 15 30.9 15 30C15 29.1 15.3 28.5 15.9 27.9C16.5 27.3 17.1 27 18 27C18.9 27 19.65 27.3 20.25 27.9C20.85 28.5 21.15 29.1 21.15 30C21 30.9 20.7 31.65 20.1 32.1Z" fill="#F7411C"/>
</g>
<defs>
<clipPath id="clip0_1040_6040">
<rect width="36" height="36" fill="white"/>
</clipPath>
</defs>
</svg>
