<svg width="28" height="28" viewBox="0 0 28 28" fill="none" xmlns="http://www.w3.org/2000/svg">
<path d="M12.8733 0.941865C16.2355 0.42818 19.6757 1.23762 22.462 3.19896L22.3998 3.16783C26.6556 6.17274 28.752 11.3954 27.7549 16.5088C26.7578 21.6223 22.8528 25.6747 17.7797 26.8604C12.7067 28.0462 7.40999 26.1446 4.24957 22.0029L6.7246 20.1194C9.36919 23.593 13.9435 24.9786 18.0711 23.5564C22.1986 22.1342 24.9485 18.2249 24.8921 13.8596C24.8357 9.49423 21.9858 5.65732 17.8228 4.34223C13.6599 3.02714 9.1229 4.53046 6.56894 8.07119L8.77934 10.2193L0 12.5387L2.14814 3.74378L4.38967 5.92305C6.47328 3.23522 9.51082 1.45171 12.8733 0.941865Z" fill="currentColor"/>
<path d="M13.746 14.5165V6.99805H16.081V13.5359L20.8287 18.2835L19.1786 19.9336L13.7305 14.5165H13.746Z" fill="currentColor"/>
</svg>
