<svg width="36" height="36" viewBox="0 0 36 36" xmlns="http://www.w3.org/2000/svg">
<path d="M9.325 2H3.595C2.714 2 2 2.714 2 3.595V9.325C2 10.206 2.714 10.92 3.595 10.92H9.325C10.206 10.92 10.92 10.206 10.92 9.325V3.595C10.92 2.714 10.206 2 9.325 2ZM8.42 8.42H4.5V4.5H8.42V8.42Z" />
<path d="M16.54 9.49992H30.96C32.639 9.49992 34 8.13892 34 6.45992C34 4.78092 32.639 3.41992 30.96 3.41992H16.54C14.861 3.41992 13.5 4.78092 13.5 6.45992C13.5 8.13892 14.861 9.49992 16.54 9.49992Z" />
<path d="M16.54 21.04H23.5V24L34.245 18L23.5 12V14.96H16.54C14.861 14.96 13.5 16.321 13.5 18C13.5 19.679 14.861 21.04 16.54 21.04Z" />
<path d="M30.96 26.5H16.54C14.861 26.5 13.5 27.861 13.5 29.54C13.5 31.219 14.861 32.58 16.54 32.58H30.96C32.639 32.58 34 31.219 34 29.54C34 27.861 32.639 26.5 30.96 26.5Z" />
<path d="M9.325 13.54H3.595C2.714 13.54 2 14.254 2 15.135V20.865C2 21.746 2.714 22.46 3.595 22.46H9.325C10.206 22.46 10.92 21.746 10.92 20.865V15.135C10.92 14.254 10.206 13.54 9.325 13.54ZM8.42 19.96H4.5V16.04H8.42V19.96Z" />
<path d="M9.325 25.0801H3.595C2.714 25.0801 2 25.7941 2 26.6751V32.4051C2 33.2861 2.714 34.0001 3.595 34.0001H9.325C10.206 34.0001 10.92 33.2861 10.92 32.4051V26.6751C10.92 25.7941 10.206 25.0801 9.325 25.0801ZM8.42 31.5001H4.5V27.5801H8.42V31.5001Z" />
</svg>
