<svg width="35" height="12" viewBox="0 0 35 12" fill="none" xmlns="http://www.w3.org/2000/svg">
<path d="M9.128 5.764H1.688V9.064C1.688 9.52 1.916 9.748 2.372 9.748H8.36C8.576 9.748 8.78 9.676 8.948 9.532C9.14 9.352 9.26 8.632 9.332 7.372L10.448 7.732C10.304 9.244 10.1 10.144 9.848 10.42C9.56 10.684 9.176 10.828 8.684 10.852H2.06C1.04 10.852 0.536 10.324 0.536 9.268V3.028H1.688V4.672H7.964V1.816H0.0440001V0.723999H9.128V5.764ZM12.62 0.279999C13.436 0.916 14.12 1.552 14.672 2.176L13.868 2.968C13.388 2.368 12.716 1.72 11.84 1.024L12.62 0.279999ZM19.52 11.032C18.86 11.032 18.14 11.02 17.372 11.008C16.592 10.996 15.956 10.924 15.452 10.804C14.972 10.66 14.552 10.372 14.192 9.964C14.024 9.76 13.88 9.664 13.736 9.664C13.484 9.664 13.052 10.204 12.44 11.284L11.6 10.504C12.2 9.532 12.74 8.92 13.22 8.68V5.284H11.612V4.228H14.288V8.764C14.348 8.812 14.408 8.872 14.468 8.944C14.744 9.268 15.032 9.508 15.332 9.664C15.692 9.832 16.22 9.94 16.928 9.964C17.612 9.976 18.416 9.988 19.352 9.988C19.94 9.988 20.54 9.976 21.14 9.964C21.74 9.952 22.208 9.928 22.532 9.904L22.256 11.032H19.52ZM17.444 1.468H15.128V0.52H21.716V1.324C21.02 1.924 20.276 2.428 19.484 2.86C19.508 2.884 19.532 2.896 19.556 2.92H21.968V8.248C21.968 8.956 21.572 9.316 20.792 9.316H19.868L19.628 8.368L20.48 8.416C20.744 8.416 20.888 8.284 20.888 8.02V7.408H19.16V9.376H18.116V7.408H16.424V9.4H15.344V2.92H18.104C17.708 2.656 17.264 2.38 16.772 2.116L17.444 1.468ZM18.788 2.32C19.292 2.068 19.76 1.78 20.192 1.468H17.504C17.96 1.756 18.392 2.032 18.788 2.32ZM16.424 5.644V6.484H18.116V5.644H16.424ZM19.16 5.644V6.484H20.888V5.644H19.16ZM20.888 4.708V3.868H19.16V4.708H20.888ZM18.116 4.708V3.868H16.424V4.708H18.116ZM24.572 0.279999C25.376 0.904 26.06 1.528 26.624 2.152L25.796 2.98C25.316 2.38 24.656 1.72 23.792 1.024L24.572 0.279999ZM31.772 11.032C31.088 11.032 30.344 11.02 29.54 11.008C28.724 10.996 28.052 10.924 27.548 10.804C27.044 10.66 26.6 10.372 26.228 9.964C26.06 9.76 25.892 9.664 25.748 9.664C25.496 9.664 25.052 10.216 24.428 11.332L23.588 10.552C24.2 9.556 24.752 8.932 25.232 8.68V5.296H23.6V4.216H26.324V8.764C26.396 8.812 26.456 8.872 26.516 8.944C26.804 9.256 27.116 9.496 27.428 9.652C27.8 9.82 28.352 9.916 29.096 9.94C29.804 9.952 30.644 9.964 31.628 9.964C32.168 9.964 32.72 9.952 33.284 9.952C33.86 9.928 34.292 9.904 34.592 9.88L34.316 11.032H31.772ZM31.424 9.412H29.732L29.48 8.32C30.02 8.368 30.536 8.392 31.028 8.392C31.352 8.392 31.52 8.224 31.52 7.912V3.148H27.008V2.032H31.52V0.184H32.66V2.032H34.364V3.148H32.66V8.188C32.66 9.004 32.24 9.412 31.424 9.412ZM28.52 4.024C29.264 4.9 29.828 5.668 30.224 6.316L29.312 6.952C28.904 6.244 28.34 5.452 27.632 4.576L28.52 4.024Z" fill="#343221"/>
</svg>
