<svg width="16" height="16" viewBox="0 0 16 16" fill="none" xmlns="http://www.w3.org/2000/svg">
<path d="M12.7659 8C12.7648 7.63636 12.7214 7.27402 12.6364 6.92L14 6.15333L12.6364 3.84L11.2727 4.61333C10.7342 4.10726 10.0796 3.73465 9.36363 3.52666V2H6.63637V3.52666C5.92186 3.73792 5.26795 4.11012 4.72726 4.61333L3.36363 3.84L2 6.15333L3.36363 6.92C3.1818 7.62677 3.1818 8.36657 3.36363 9.07333L2 9.84L3.36363 12.1533L4.72726 11.3867C5.27 11.8857 5.9234 12.2553 6.63637 12.4667V14H9.36363V12.4667C10.0775 12.2573 10.7313 11.8875 11.2727 11.3867L12.6364 12.1533L14 9.84L12.6364 9.07333C12.721 8.72151 12.7644 8.36142 12.7659 8ZM7.99317 10.6667C7.45377 10.6667 6.92648 10.5103 6.47799 10.2173C6.02949 9.92424 5.67991 9.50776 5.47349 9.02049C5.26707 8.53322 5.21312 7.99704 5.31835 7.47976C5.42358 6.96247 5.68334 6.48732 6.06475 6.11438C6.44617 5.74144 6.93205 5.48747 7.46109 5.38457C7.99013 5.28168 8.53853 5.33449 9.03687 5.53633C9.53521 5.73816 9.96117 6.07995 10.2608 6.51848C10.5605 6.95701 10.7204 7.47258 10.7204 8C10.7204 8.70724 10.4331 9.38552 9.92168 9.88562C9.41022 10.3857 8.71649 10.6667 7.99317 10.6667Z" fill="#B1BAD3"/>
</svg>
