<svg width="36" height="36" viewBox="0 0 36 36" xmlns="http://www.w3.org/2000/svg">
<g clip-path="url(#clip0_986_6163)">
<path d="M18 8C11.24 8 5.315 11.89 2 17.725C5.315 23.56 11.24 27.45 18 27.45C24.76 27.45 30.685 23.56 34 17.725C30.685 11.89 24.76 8 18 8ZM18.03 24.66C14.2 24.66 11.095 21.555 11.095 17.725C11.095 13.895 14.2 10.79 18.03 10.79C21.86 10.79 24.965 13.895 24.965 17.725C24.965 17.725 24.965 17.728 24.965 17.73C24.965 21.557 21.862 24.66 18.035 24.66C18.033 24.66 18.032 24.66 18.03 24.66Z" />
<path d="M22.1297 17.725C22.1297 19.989 20.2937 21.825 18.0297 21.825C15.7657 21.825 13.9297 19.989 13.9297 17.725C13.9297 15.461 15.7657 13.625 18.0297 13.625C20.2937 13.625 22.1297 15.461 22.1297 17.725Z" />
</g>
<defs>
<clipPath id="clip0_986_6163">
<rect width="36" height="36" fill="white"/>
</clipPath>
</defs>
</svg>
