<svg width="28" height="28" viewBox="0 0 28 28" fill="none" xmlns="http://www.w3.org/2000/svg">
<path fill-rule="evenodd" clip-rule="evenodd" d="M22.1673 8.36111L14.0007 3.5L5.83398 8.36111V18.0834L14.0007 22.9444L22.1673 18.0834V8.36111Z" fill="#55626F"/>
<path fill-rule="evenodd" clip-rule="evenodd" d="M14.0007 3.5L5.83398 8.36111V18.0834L14.0007 22.9444L22.1673 18.0834V8.36111L14.0007 3.5ZM21.6812 8.63748L14.0007 4.06572L6.3201 8.63748V17.807L14.0007 22.3787L21.6812 17.807V8.63748Z" fill="#DEE1EF"/>
<path d="M10.9844 17.631C10.9844 17.7663 11.0932 17.888 11.2429 17.888H16.6855C16.8217 17.888 16.9441 17.7663 16.9441 17.631V16.4136C16.9441 16.2784 16.8217 16.1566 16.6855 16.1566H14.2908C14.9303 15.2638 16.0461 13.8165 16.4815 13.0455C16.808 12.4098 17.0122 12.004 17.0122 11.2871C17.0122 9.7856 15.8692 8.55469 13.9234 8.55469C12.3042 8.55469 11.2021 9.88029 11.2021 9.88029C11.1068 9.98851 11.1204 10.1508 11.2157 10.232L12.0457 11.0706C12.1546 11.1788 12.3178 11.1788 12.4267 11.0706C12.6852 10.7866 13.1887 10.3943 13.7465 10.3943C14.5085 10.3943 14.9439 10.8542 14.9439 11.3682C14.9439 11.747 14.7671 12.1257 14.5902 12.3962C13.7874 13.6136 11.7736 16.3325 10.9844 17.3605V17.631Z" fill="#DEE1EF"/>
<path d="M25.6649 9.91699L23.2344 10.5976V13.3197C24.6715 12.9173 25.6649 11.6075 25.6649 10.1152V9.91699Z" fill="#B7BDCA"/>
<path d="M25.6649 13.0283L23.2344 13.709V16.4311C24.6715 16.0288 25.6649 14.7189 25.6649 13.2265V13.0283Z" fill="#9099A6"/>
<path d="M2.33398 9.91699L4.76454 10.5976V13.3197C3.32746 12.9173 2.33398 11.6075 2.33398 10.1152V9.91699Z" fill="#B7BDCA"/>
<path d="M2.33398 13.0283L4.76454 13.709V16.4311C3.32746 16.0288 2.33398 14.7189 2.33398 13.2265V13.0283Z" fill="#9099A6"/>
</svg>
