<svg width="28" height="28" viewBox="0 0 28 28" fill="none" xmlns="http://www.w3.org/2000/svg">
<path d="M12.9168 21.7751L0.167156 7.0498C0.0625666 6.93089 -4.29689e-08 6.7877 -3.62745e-08 6.63455C-1.6246e-08 6.17635 0.557498 5.80469 1.2448 5.80469C1.24667 5.80469 1.24853 5.80469 1.2504 5.80469L26.7505 5.80469C26.7524 5.80469 26.7533 5.80469 26.7552 5.80469C27.4425 5.80469 28 6.17635 28 6.63455C28 6.78708 27.9384 6.93027 27.83 7.05353L27.8328 7.0498L15.0832 21.7751C14.8647 22.0285 14.4622 22.1959 14 22.1959C13.5378 22.1959 13.1353 22.0285 12.9196 21.7794L12.9168 21.7751Z" fill="#F81919"/>
</svg>
