<svg width="28" height="28" viewBox="0 0 28 28" fill="none" xmlns="http://www.w3.org/2000/svg">
<mask id="mask0_339_560" style="mask-type:alpha" maskUnits="userSpaceOnUse" x="3" y="0" width="22" height="14">
<path d="M3.7334 14H24.2667V0H3.7334V14Z" fill="#D9D9D9"/>
</mask>
<g mask="url(#mask0_339_560)">
<path fill-rule="evenodd" clip-rule="evenodd" d="M19.7475 16.0141V8.51414C19.7475 5.5226 17.1743 3.09747 14.0001 3.09747C10.8259 3.09747 8.25273 5.5226 8.25273 8.51414V16.0141C8.25273 19.0057 10.8259 21.4308 14.0001 21.4308C17.1743 21.4308 19.7475 19.0057 19.7475 16.0141ZM14.0001 0.597473C9.36091 0.597473 5.6001 4.14189 5.6001 8.51414V16.0141C5.6001 20.3864 9.36091 23.9308 14.0001 23.9308C18.6393 23.9308 22.4001 20.3864 22.4001 16.0141V8.51414C22.4001 4.14189 18.6393 0.597473 14.0001 0.597473Z" fill="currentColor"/>
</g>
<path fill-rule="evenodd" clip-rule="evenodd" d="M3.7334 14.9333C3.7334 14.4179 4.15127 14 4.66673 14H23.3334C23.8489 14 24.2667 14.4179 24.2667 14.9333V27.0667C24.2667 27.5821 23.8489 28 23.3334 28H4.66673C4.15127 28 3.7334 27.5821 3.7334 27.0667V14.9333ZM14.9334 22.2407C16.0209 21.8563 16.8001 20.8191 16.8001 19.6C16.8001 18.0536 15.5465 16.8 14.0001 16.8C12.4537 16.8 11.2001 18.0536 11.2001 19.6C11.2001 20.8191 11.9792 21.8563 13.0667 22.2407V24.2667C13.0667 24.7821 13.4846 25.2 14.0001 25.2C14.5155 25.2 14.9334 24.7821 14.9334 24.2667V22.2407Z" fill="currentColor"/>
</svg>
