<svg width="14" height="14" viewBox="0 0 14 14" fill="none" xmlns="http://www.w3.org/2000/svg">
<g clip-path="url(#clip0_6369_22189)">
<path d="M9.11059 11.2241C8.93822 10.8077 8.36937 10.0958 7.41963 9.10806C7.16615 8.84396 7.18246 8.64131 7.27302 8.03923L7.28345 7.97122C7.345 7.55876 7.44829 7.3149 8.84832 7.09461C9.55956 6.98285 9.74658 7.26458 10.0059 7.65483C10.0346 7.69801 10.0633 7.74048 10.0926 7.78294C10.3389 8.1399 10.5213 8.22158 10.797 8.34579C10.9205 8.40135 11.0746 8.47132 11.2811 8.58765C11.7705 8.86485 11.7705 9.17796 11.7705 9.86436V9.94215C11.7705 11.0391 11.3632 11.6327 11.2042 11.8229C10.5976 12.3413 9.89348 12.7499 9.12199 13.0179C9.50448 12.3099 9.21191 11.4693 9.11059 11.2241ZM7.00001 0.624835C7.99829 0.624835 8.94379 0.850356 9.7883 1.25372C9.32432 1.54463 8.65774 1.99963 8.3834 2.37222C8.28175 2.51016 8.19444 2.64088 8.11362 2.76118C7.84582 3.16127 7.7168 3.33972 7.46981 3.37044C7.34735 3.38545 7.18312 3.37499 7.00914 3.3639C6.54259 3.33384 5.90435 3.29328 5.70003 3.84307C5.57036 4.19148 5.54756 5.1374 5.96721 5.62836C6.03435 5.70681 6.04734 5.85192 6.00174 6.01471C5.94177 6.22849 5.8206 6.35857 5.78281 6.38537C5.71045 6.34419 5.56612 6.17813 5.46839 6.06504C5.2328 5.79374 4.93894 5.45578 4.55905 5.35117C4.42092 5.31327 4.26908 5.28191 4.12183 5.25117C3.70967 5.16553 3.2428 5.06812 3.13432 4.83871C3.05514 4.67068 3.05547 4.43928 3.05578 4.19481C3.05578 3.88494 3.05578 3.53454 2.90266 3.19396C2.76975 2.89784 2.53549 2.73766 2.2895 2.65924C3.4663 1.40865 5.14195 0.624835 7.00004 0.624835H7.00001ZM0 6.99981C0 10.8273 3.13396 13.9298 7.00001 13.9298C10.8661 13.9298 14 10.8273 14 6.99981C14 3.17234 10.8661 0.0698242 7.00001 0.0698242C3.13394 0.0698242 0 3.17234 0 6.99981Z" fill="#B1BAD3"/>
</g>
<defs>
<clipPath id="clip0_6369_22189">
<rect width="14" height="14" fill="white"/>
</clipPath>
</defs>
</svg>
