<svg width="28" height="28" viewBox="0 0 28 28" fill="none" xmlns="http://www.w3.org/2000/svg">
<rect x="4.58984" y="0.951172" width="3.44856" height="22.9416" rx="1.72428" fill="currentColor"/>
<rect width="3.49759" height="23.3947" rx="1.7488" transform="matrix(-0.00372302 -0.999993 0.999995 -0.00326851 4.60547 23.9727)" fill="currentColor"/>
<mask id="path-3-inside-1_2185_15909" fill="white">
<path d="M6.0821 10.6954C6.92311 10.0844 7.88435 9.63452 8.91092 9.37154C9.93749 9.10855 11.0093 9.03759 12.0651 9.16272C13.121 9.28784 14.1402 9.6066 15.0645 10.1008C15.9889 10.595 16.8003 11.2549 17.4525 12.0429C18.1046 12.8309 18.5848 13.7316 18.8654 14.6934C19.1461 15.6553 19.2218 16.6596 19.0883 17.6488C18.9548 18.6381 18.6146 19.5931 18.0871 20.4592C17.5597 21.3253 16.8554 22.0856 16.0144 22.6966L14.0926 20.3746C14.6082 20 15.04 19.5339 15.3633 19.003C15.6866 18.472 15.8952 17.8866 15.977 17.2801C16.0589 16.6737 16.0125 16.058 15.8404 15.4684C15.6684 14.8787 15.374 14.3266 14.9742 13.8435C14.5744 13.3605 14.077 12.9559 13.5103 12.6529C12.9437 12.35 12.3189 12.1546 11.6716 12.0779C11.0244 12.0012 10.3673 12.0447 9.738 12.2059C9.10868 12.3671 8.51941 12.6429 8.00384 13.0175L6.0821 10.6954Z"/>
</mask>
<path d="M6.0821 10.6954C6.92311 10.0844 7.88435 9.63452 8.91092 9.37154C9.93749 9.10855 11.0093 9.03759 12.0651 9.16272C13.121 9.28784 14.1402 9.6066 15.0645 10.1008C15.9889 10.595 16.8003 11.2549 17.4525 12.0429C18.1046 12.8309 18.5848 13.7316 18.8654 14.6934C19.1461 15.6553 19.2218 16.6596 19.0883 17.6488C18.9548 18.6381 18.6146 19.5931 18.0871 20.4592C17.5597 21.3253 16.8554 22.0856 16.0144 22.6966L14.0926 20.3746C14.6082 20 15.04 19.5339 15.3633 19.003C15.6866 18.472 15.8952 17.8866 15.977 17.2801C16.0589 16.6737 16.0125 16.058 15.8404 15.4684C15.6684 14.8787 15.374 14.3266 14.9742 13.8435C14.5744 13.3605 14.077 12.9559 13.5103 12.6529C12.9437 12.35 12.3189 12.1546 11.6716 12.0779C11.0244 12.0012 10.3673 12.0447 9.738 12.2059C9.10868 12.3671 8.51941 12.6429 8.00384 13.0175L6.0821 10.6954Z" stroke="#B1BAD3" stroke-width="16" mask="url(#path-3-inside-1_2185_15909)"/>
</svg>
