<svg width="22" height="22" viewBox="0 0 22 22" fill="none" xmlns="http://www.w3.org/2000/svg">
<path d="M10.27 3.09691C12.43 2.76691 14.64 3.28691 16.43 4.54691L16.39 4.52691C19.124 6.45731 20.4708 9.81242 19.8302 13.0974C19.1897 16.3824 16.681 18.9857 13.422 19.7475C10.163 20.5092 6.7603 19.2876 4.73 16.6269L6.32 15.4169C8.01893 17.6484 10.9576 18.5385 13.6092 17.6249C16.2608 16.7112 18.0274 14.1999 17.9911 11.3955C17.9549 8.59109 16.124 6.1262 13.4497 5.28136C10.7754 4.43653 7.86071 5.40229 6.22 7.67691L7.64 9.05691L2 10.5469L3.38 4.89691L4.82 6.29691C6.15855 4.5702 8.10992 3.42444 10.27 3.09691Z" fill="#B1BAD3"/>
<path d="M10.8303 11.8173V6.9873H12.3303V11.1873L15.3803 14.2373L14.3203 15.2973L10.8203 11.8173H10.8303Z" fill="#B1BAD3"/>
</svg>
