<svg width="28" height="28" viewBox="0 0 28 28" fill="none" xmlns="http://www.w3.org/2000/svg">
<path d="M23.9433 6.56554H25.3078V3.66163H15.1616V1.14258H12.2463V3.66163H2.07647V6.56554H4.04711L0 16.3855C0 19.4643 2.49544 21.9598 5.57428 21.9598C8.65313 21.9598 11.1486 19.4643 11.1486 16.3855L7.10146 6.56554H12.2332V23.954H8.16331V26.8579H19.1728V23.954H15.1607V6.56554H20.8985L16.8514 16.3855C16.8514 19.4643 19.3469 21.9598 22.4257 21.9598C25.5046 21.9598 28 19.4643 28 16.3855L23.9433 6.56554ZM2.33363 16.3855L5.57603 8.5598L8.79483 16.3855H2.33363ZM19.1737 16.3855L22.3925 8.5598L25.6576 16.3855H19.1737Z" fill="currentColor"/>
</svg>
