<svg version="1.1" xmlns:xlink="http://www.w3.org/1999/xlink" width="100px" height="62px" xmlns="http://www.w3.org/2000/svg">
  <g transform="matrix(1 0 0 1 -43 -234 )">
    <path d="M 8.38908505008075 12.41873171500669  L 1.8193743128587374 12.41873171500669  C 1.1596740714296574 12.41873171500669  0.6248814012015327 11.88435441772632  0.6248814012015327 11.225166615139276  C 0.6248814012015327 10.565978812552236  1.1596740714296574 10.031601515271866  1.8193742625146294 10.031601515271866  L 8.38908505008075 10.031601515271866  C 9.048785291509828 10.031601515271866  9.583577961737955 10.565978812552236  9.583577961737955 11.225166615139276  C 9.583577961737955 11.88435441772632  9.048785291509828 12.41873171500669  8.389085100424861 12.41873171500669  Z M 18.510840264772114 13  L 18.479406234124664 12.41873171500669  C 17.819705992695585 12.41873171500669  17.28491332246746 11.88435441772632  17.28491332246746 11.225166615139276  C 17.28491332246746 10.565978812552236  17.819705992695585 10.031601515271866  18.479406183780558 10.031601515271866  C 18.479406217343296 10.031601515271866  18.479406200561925 10.031601515271866  18.479406234124664 10  L 37.717027986078996 10  C 37.717027986078996 10.031601515271866  37.71702803642311 10.031601515271866  37.71702803642311 10.031601515271866  C 38.37672822750808 10.031601515271866  38.9115208977362 10.565978812552236  38.9115208977362 11.225166615139276  C 38.9115208977362 11.88435441772632  38.37672822750808 12.41873171500669  37.71702803642311 12.41873171500669  C 37.71702803642311 12.41873171500669  37.717027986078996 12.41873171500669  37.717027986078996 13  L 18.510840264772114 13  Z M 8.38908505008075 22.84672145514979  L 1.8193743128587374 22.84672145514979  C 1.1596741217737676 22.84672145514979  0.6248814515456428 22.31234415786942  0.6248814515456428 21.653156355282377  C 0.6248814515456428 20.993968552695335  1.1596741217737676 20.45959125541497  1.8193743128587374 20.45959125541497  L 8.38908505008075 20.45959125541497  C 9.04878524116572 20.45959125541497  9.583577911393846 20.993968552695335  9.583577911393846 21.653156355282377  C 9.583577911393846 22.31234415786942  9.04878524116572 22.84672145514979  8.38908505008075 22.84672145514979  Z M 8.38908505008075 32.489471025924594  L 1.8193743128587374 32.489471025924594  C 1.1596740210855474 32.489471025924594  0.6248813508574225 31.955093728644222  0.6248813508574225 31.295905926057173  C 0.6248813508574225 30.636718123470136  1.1596740210855474 30.102340826189774  1.8193742121705172 30.102340826189774  L 8.38908505008075 30.102340826189774  C 9.048785341853938 30.102340826189774  9.583578012082066 30.636718123470136  9.583578012082066 31.295905926057173  C 9.583578012082066 31.955093728644222  9.048785341853938 32.489471025924594  8.389085150768965 32.489471025924594  Z M 8.38908505008075 42.1322205209358  L 1.8193743128587374 42.1322205209358  C 1.1593731742387137 42.13222055881761  0.6245805040105908 41.597843261537236  0.6245805040105908 40.938655458950194  C 0.6245805040105908 40.27946765636315  1.1593731742387137 39.74509035908277  1.8190733653236832 39.74509035908277  L 8.38908505008075 39.74509039696458  C 9.049086188700777 39.74509035908277  9.583878858928898 40.27946765636315  9.583878858928898 40.938655458950194  C 9.583878858928898 41.597843261537236  9.049086188700777 42.13222055881761  8.389385997615804 42.13222055881761  Z M 38.188538294145744 23  L 18.950916542191425 23  C 18.950916542191425 22.84672145514979  18.950916542191425 22.84672145514979  18.950916542191425 22.84672145514979  C 18.291216351106453 22.84672145514979  17.756423680878324 22.31234415786942  17.756423680878324 21.653156355282377  C 17.756423680878324 20.993968552695335  18.291216351106453 20.45959125541497  18.950916542191425 20.45959125541497  C 18.950916542191425 20.45959125541497  18.950916542191425 20.45959125541497  18.950916542191422 21  L 38.188538294145744 21  C 38.188538294145744 20.45959125541497  38.188538294145744 20.45959125541497  38.188538294145744 20.45959125541497  C 38.84823848523071 20.45959125541497  39.383031155458845 20.993968552695335  39.383031155458845 21.653156355282377  C 39.383031155458845 22.31234415786942  38.84823848523071 22.84672145514979  38.188538294145744 22.84672145514979  C 38.188538294145744 22.84672145514979  38.188538294145744 22.84672145514979  38.188538294145744 23  Z M 38.188538294145744 32  L 18.950916542191425 32  C 18.95091647506594 32.4894710259246  18.950916508628687 32.489471025924594  18.950916441503203 32.489471025924594  C 18.291216250418238 32.489471025924594  17.75642358019011 31.955093728644222  17.75642358019011 31.295905926057173  C 17.75642358019011 30.636718123470136  18.291216250418238 30.102340826189774  18.950916441503203 30.102340826189774  C 18.950916508628687 30.102340826189774  18.95091647506594 30.102340826189774  18.950916542191422 31  L 38.188538294145744 31  C 38.188538294145744 30.102340826189774  38.18853839483396 30.102340826189774  38.18853839483396 30.102340826189774  C 38.848238585918935 30.102340826189774  39.383031256147056 30.636718123470136  39.383031256147056 31.295905926057173  C 39.383031256147056 31.955093728644222  38.848238585918935 32.489471025924594  38.18853839483396 32.489471025924594  C 38.18853839483396 32.489471025924594  38.188538294145744 32.489471025924594  38.188538294145744 32  Z M 38.188538294145744 42  L 18.950916542191425 42  C 18.950816226348014 42.13222054619033  18.950715910502964 42.13222055881761  18.95061559465637 42.13222055881761  C 18.290915403571397 42.13222055881761  17.75612273334328 41.597843261537236  17.75612273334328 40.938655458950194  C 17.75612273334328 40.27946765636315  18.290915403571397 39.74509035908277  18.95061559465637 39.74509035908277  C 18.950715910502964 39.74509035908277  18.950816226348014 39.74509037171005  18.950916542191422 39  L 38.188538294145744 39  C 38.188638609989155 39.74509037171005  38.1887389258342 39.74509035908277  38.188839241680796 39.74509035908277  C 38.84853943276577 39.74509035908277  39.38333210299389 40.27946765636315  39.38333210299389 40.938655458950194  C 39.38333210299389 41.597843261537236  38.84853943276577 42.13222055881761  38.188839241680796 42.13222055881761  C 38.1887389258342 42.13222055881761  38.188638609989155 42.13222054619033  38.188538294145744 42  Z M 37.214083571542304 51  L 2.793829035462176 51  C 1.5050340822067374 51.80637970757697  0.5934474967206782 51.30382600524235  0.5934474967206782 50.61281460770956  C 0.5934474967206782 49.921803210176755  1.5050341580292215 49.41924950784213  2.793829035462176 49  L 37.214083571542304 49  C 38.50287852479774 49.41924950784213  39.4144651102838 49.921803210176755  39.41446518610629 50.61281460770956  C 39.41446526192877 51.30382600524235  38.50287852479774 51.80637970757697  37.214083571542304 51  Z M 48.7503698620789 60.85234672841808  L 48.8761059088462 61.00939473198629  C 48.674904352839896 60.636937898051016  48.674904352839896 60.188286466054144  48.8761059088462 59.815829632118884  C 52.60984910844941 53.783294303060316  58.694362668094 49.58209267148446  65.66187387687945 48.22568440797474  L 65.66187387687947 45.71291582053804  C 61.60823508890919 43.078606567808315  58.83063621944259 38.8813199974249  57.991972446109166 34.1227705963939  C 55.71111506004549 33.401884225961325  53.97158685932413 31.5446538855799  53.40260518474149 29.222871809222386  C 52.89796212928233 27.81326635831613  52.78925092792134 26.292491667848026  53.08826495408947 24.825526724385483  C 53.21753730097419 23.388348663236748  54.17657885506697 22.159763176191273  55.5401186621881 21.68456597114874  C 53.74985668472838 14.631435305155911  56.626238744583056 7.219158977796792  62.707075830066636 3.215716614833782  C 66.01488167108407 1.1501171466208377  69.83981091989777 0.06124010560715931  73.74041770606655 0.07475586159702423  C 77.16432510035516 -0.07912399191509374  80.52389816157627 1.0398639027802898  83.170624398159 3.2157166148337777  C 88.2104640465073 3.972158536947985  92.29486229090178 7.69364114184731  93.51241775156005 12.638598950307639  C 94.45145893578706 15.852033597044102  94.62371314911779 19.240654066277042  94.01536216609672 22.532625372249747  C 94.9173277842416 23.16216890580996  95.51102129086321 24.143284030227132  95.6499313048291 25.23385165488461  C 95.94733778747306 26.700920391667005  95.83865767362418 28.221260168817462  95.33559107417709 29.6311966639579  C 94.6990983631026 31.915770574072454  92.98545963283973 33.745359706451964  90.74622381280945 34.53109552689303  C 89.69118217063343 39.167004724384476  86.85829807089365 43.2043943560928  82.85628416750703 45.77573505227077  L 82.85628416750703 48.06863640440651  C 89.66888350850004 49.45355906548607  95.63832823062668 53.51687246768156  99.4220139968306 59.34468554565061  C 99.62321555283691 59.717142379585894  99.62321555283691 60.16579381158278  99.4220139968306 60.53825064551804  C 99.21844433330875 60.918581100819935  98.81607323988341 61.15006937856083  98.38469128875475 61.135033195451754  L 49.78769257015473 61.449129278351776  C 49.356310619026054 61.46416546146087  48.95393952560072 61.23267718371997  48.7503698620789 60.85234672841808  Z M 66.35342239947833 50.518585760110454  L 66.259120307536 50.51858576011049  C 60.66260385665013 51.63381181334334  55.65356837335147 54.72161840475351  52.145244262133495 59.21904708218517  L 96.15287564354334 58.90495099928513  C 92.60751899221779 54.600495110951336  87.69258425398971 51.64052147259376  82.22760370620301 50.518585760110454  C 80.58343201928454 53.367787967649804  77.62232079094026 55.20673051125474  74.3376641367231 55.41848462304557  C 71.02406951308447 55.22085099275564  68.02828029839922 53.38234651735192  66.35342239947833 50.518585760110454  Z M 68.01942556885821 48.82246695790845  L 67.98799153821076 48.82246695790845  C 68.22319649332792 49.10759892539913  68.4335255084062 49.41233911933231  68.61667199951476 49.733345590742175  C 69.88233861857458 51.57141167113022  71.920954708613 52.72881660797684  74.14905995283844 52.87430634397894  C 76.38991937996285 52.77214672476555  78.44650351285682 51.60454060212034  79.6814479061621 49.733345590742175  C 79.92224217981484 49.41885723987964  80.13273904927397 49.0823238573816  80.31012836746612 48.72823818607295  L 80.31012836746612 46.93789053627184  C 76.36988375469626 48.538901256825994  71.95967018162807 48.53890125682601  68.01942556885821 46.93789053627184  L 68.01942556885821 48.82246695790845  Z M 58.77782298482791 31.57859239309086  L 58.87212507677029 31.73564039665908  C 59.12315504394945 31.750480602610473  59.36881223196557 31.814515306488037  59.59510755419413 31.924098016093655  C 59.88145032604362 32.08762755036762  60.06937450531568 32.381031004770726  60.098051968730836 32.70933826122555  C 60.708648746092905 36.95598386563356  62.966915483987194 40.79205554184901  66.38485643012582 43.38860485253595  C 67.61781134539635 44.244722290825955  69.00576790759885 44.85281519168304  70.4712793527793 45.17895250233706  C 71.67138326291699 45.49932635237441  72.90693676316685 45.66815969332277  74.14905995283846 45.681506204671685  C 75.39054976358824 45.65974024833663  76.62508452914345 45.49104611332473  77.82684055289761 45.17895250233706  C 79.271035883819 44.79005692345572  80.64855441782832 44.18653714182732  81.9132634755511 43.38860485253595  C 85.36292788326489 40.82034726273462  87.62963159244205 36.96994392181438  88.20006801276855 32.70933826122554  C 88.27163534793566 32.397284309696936  88.44940412689407 32.11973630125734  88.70301235148274 31.924098016093662  C 88.92438276436859 31.801705201587545  89.17299970466811 31.736898994979136  89.4259949047291 31.73564039665908  L 89.7403350595586 31.73564039665908  C 90.55761962892483 31.73564039665908  92.003584659595 30.447846449192582  92.60083116607402 28.594679643422328  C 92.98891915291627 27.595594216798084  93.09758198898183 26.509809865525426  92.91517139672601 25.453718890185566  C 92.9655513760547 25.355071372358964  92.9655513760547 25.238270325112158  92.91517139672602 25.139622807285534  C 92.42342672631865 26.32073644092309  91.69614883108939 27.389432039188705  90.77765784345695 28.280583560522295  C 90.55658205228055 28.48767131668526  90.26334878101342 28.60036575058654  89.96037327409073 28.59467964342232  L 89.5517309514964 28.59467964342232  C 89.14986891215845 28.38951880791679  88.85315518467827 28.024616302454433  88.73444638213016 27.58957216298949  C 88.68752057203683 23.966370074055224  87.38817446299282 20.470847628948114  85.05666578207104 17.695545816810966  C 84.23938118743067 16.6066794364981  83.5268766696743 16.009896886564402  82.91915222880193 15.905198167009852  L 82.85628416750701 15.905198167009852  C 81.28912012149505 16.298951139778804  79.84950943480375 17.088499684207083  78.67555922873369 18.198099519145593  L 77.54393435289299 19.10897815197933  C 76.05893615107911 20.202387874929467  74.26478797782462 20.79630659570722  72.42018872216367 20.80509695418137  C 70.37120632996621 20.692631758510924  68.359014153702 20.213910494569372  66.47915852206812 19.39166461901301  C 65.6148373105663 19.04765501266982  64.7203490483394 18.78477455094551  63.80726659943738 18.606424373881122  L 63.39862427684304 18.606424373881122  C 62.769943815539044 18.606424373881122  62.58133970747684 18.920520456781162  61.54401699940099 22.406986908784308  C 61.041072660686794 24.270623611764556  60.464782250461866 26.102850724132956  59.81514576872625 27.90366824588953  C 59.642223811436224 28.37831123818522  59.189013924579434 28.692795879031635  58.68352089288557 28.688908491021415  C 58.19896539584043 28.71708152451501  57.7478501694357 28.441614105418815  57.55189609286736 27.997897093488607  C 57.020429839137066 26.764607757518313  56.579195688347504 25.4944204647337  56.23166718478697 24.197334558585425  C 55.885377334611206 24.466735022779595  55.659457315782525 24.861787966363007  55.602986723482964 25.29667081085376  C 55.42057611718077 26.352761810725067  55.52923895343881 27.43854619011121  55.91732695413497 28.4376316398541  C 56.6403095073813 30.447846524956176  57.96053841546171 31.57859239309086  58.77782298482791 31.57859239309086  Z " fill-rule="nonzero" fill="#707a8a" stroke="none" fill-opacity="0.14901960784313725" transform="matrix(1 0 0 1 43 234 )" />
  </g>
</svg>
