<?xml version="1.0" encoding="utf-8"?>
<svg version="1.1" xmlns:xlink="http://www.w3.org/1999/xlink" width="16px" height="16px" xmlns="http://www.w3.org/2000/svg">
  <g transform="matrix(1 0 0 1 -1389 -662 )">
    <path d="M 10.801319462065464 16  C 13.679464407705971 15.994847071223626  15.997970058360826 13.67634142056877  16 10.798196474928274  L 16 5.201803525071727  C 15.997970058360826 2.3236585794312297  13.679464407705971 0.005152928776374461  10.801319462065464 0  L 5.204926512208928 0  C 2.32678156656842 0.005152928776374461  0.008275915913575342 2.3236585794312297  0 5.201803525071727  L 0 10.798196474928274  C 0.008275915913575342 13.67634142056877  2.32678156656842 15.994847071223626  5.204926512208928 16  L 10.801319462065464 16  Z M 3.0463178029785523 4.21978021978022  L 12.933278675853456 4.21978021978022  C 13.146474592547767 4.162473405812657  13.33302102941463 4.349019842679519  13.33302102941463 4.5622157593738395  C 13.33302102941463 4.775411676068161  13.17312408799016 4.961958112935023  12.95992817129585 4.961958112935023  L 12.219780219780219 4.961958112935023  L 12.219780219780219 12.210619452306133  C 12.240391934885718 12.79690824273418  11.760701110612299 13.276599067007588  11.22771131106904 13.274725274725276  L 4.778534663205352 13.274725274725276  C 4.245544863662092 13.276599067007588  3.765854039388674 12.79690824273418  3.78021978021978 12.210619452306133  L 3.78021978021978 4.961958112935023  L 3.0463178029785523 4.961958112935023  C 2.8331218862842316 4.961958112935023  2.646575449417369 4.775411676068161  2.646575449417369 4.5622157593738395  C 2.646575449417369 4.349019842679519  2.8331218862842316 4.162473405812657  3.0463178029785523 4.21978021978022  Z M 11.428571428571429 12.157320477036283  L 11.428571428571429 5.010989010989011  L 4.571428571428571 5.010989010989011  L 4.571428571428571 12.157320477036283  C 4.5386892666835825 12.31721741846076  4.671936712665668 12.450464864442838  4.778534663205352 12.395604395604396  L 11.201061815626646 12.395604395604396  C 11.307659781781275 12.450464864442838  11.44090722776335 12.31721741846076  11.428571428571429 12.157320477036283  Z M 9.761989342806393 3.4285714285714284  L 6.270906126910392 3.4285714285714284  C 6.0577102102160705 3.3629886986903  5.871163773349208 3.1764422618234374  5.871163773349208 2.9632463451291167  C 5.871163773349208 2.7234009329924027  6.031060714773678 2.5635039915679334  6.270906126910392 2.6373626373626373  L 9.761989342806393 2.6373626373626373  C 9.975185259500714 2.5635039915679334  10.161731696367577 2.750050428434796  10.161731696367577 2.9632463451291167  C 10.161731696367577 3.1764422618234374  9.975185259500714 3.3629886986903  9.761989342806393 3.4285714285714284  Z M 9.31868131868132 9.625618909687116  C 9.335597493802826 9.838814826381437  9.149051056935955 10.0253612632483  8.935855140241644 10.0253612632483  C 8.722659223547323 10.0253612632483  8.53611278668046 9.865464321823831  8.527472527472527 9.652268389514575  L 8.527472527472527 7.760154587863296  C 8.53611278668046 7.546958671168976  8.722659223547323 7.360412234302113  8.935855140241644 7.360412234302113  C 9.149051056935955 7.360412234302113  9.335597493802826 7.546958671168976  9.31868131868132 7.760154587863296  L 9.31868131868132 9.625618909687116  Z M 7.472527472527473 9.625618909687116  C 7.470133187593931 9.838814826381437  7.283586750727069 10.0253612632483  7.070390834032758 10.0253612632483  C 6.857194917338437 10.0253612632483  6.670648480471574 9.838814826381437  6.681318681318682 9.625618909687116  L 6.681318681318682 7.760154587863296  C 6.670648480471574 7.546958671168976  6.857194917338437 7.360412234302113  7.070390834032758 7.360412234302113  C 7.283586750727069 7.360412234302113  7.470133187593931 7.546958671168976  7.472527472527473 7.760154587863296  L 7.472527472527473 9.625618909687116  Z " fill-rule="nonzero" fill="#fd3c13" stroke="none" transform="matrix(1 0 0 1 1389 662 )" />
  </g>
</svg>