<?xml version="1.0" encoding="utf-8"?>
<svg version="1.1" xmlns:xlink="http://www.w3.org/1999/xlink" width="121px" height="79px" xmlns="http://www.w3.org/2000/svg">
  <g transform="matrix(1 0 0 1 -109 -226 )">
    <path d="M 12.312921348314603 9  L 108.68874754103757 9  C 111.63430278155721 7.030384968118113  113.84388635116744 9.30266002125461  113.84388635116744 12.333499128274354  L 113.84388635116744 14.510099454273927  C 113.84388635116744 16.025518951056966  115.0037508196541 17.70495239545039  117.23002317196278 17.70495239545039  C 118.69862862425384 17.706660892980267  120.704610131013 16.70891002125461  120.5660938663097 14.858628866038629  L 120.5660938663097 11.480968844784002  C 120.5660938663097 5.42099912827436  115.41095505617977 0.1178849681181191  109.52151357531602 1  L 11.478486424683979 1  C 5.5890449438202126 0.11617647058821488  0.4339061336903143 5.419290630744484  1 11.479260347254126  L 1 67.53953289866729  C 0.4339061336903143 73.59950261517696  5.5890449438202126 78.90261677533317  11.478486424683979 78  L 109.5231824646682 78  C 115.41429283488412 78.90261677533317  120.56776275566182 73.59950261517696  120.43258426966293 67.53953289866729  L 120.43258426966293 60.7346669950598  C 120.56776275566182 59.21753900074674  119.73332783203125 57.498810566980694  117.09150690725949 57.42705446490123  C 115.61956378708743 57.387759475528526  113.8422174618153 58.46239182846966  113.623595505618 60.7346669950598  L 113.623595505618 67.53953289866729  C 113.8422174618153 70.57037200568703  111.63263389220504 71.98840827780327  108.6870786516854 72  L 12.312921348314603 72  C 9.36736610779495 71.98840827780327  7.157782538184691 70.57037189223342  8 67.53953289866729  L 8 12.333499128274354  C 7.157782538184691 9.30266002125461  9.36736610779495 7.030384968118113  12.312921348314603 9  Z M 90.27924333357521 62.404230392153806  C 91.49809573892938 63.87566949902265  93.30516698587934 64.72689744726648  95.21106360465444 64.72738353708041  C 97.1129758312371 64.72738353708041  98.91203633618741 63.88075336058745  100.1445698759191 62.405923672296694  C 106.37973950139883 54.95388513136811  116.84025680358695 41.140267530627966  116.84025680358695 32.37425900345818  C 116.84025680358695 20.206490473916176  107.13848112462912 10.305997519241316  95.21106360465444 10.30599740679827  C 83.28533208486519 10.30599740679827  73.58524251805986 20.204797081330128  73.58524251805986 32.37425900345818  C 73.58524251805986 41.140267530627966  84.04575970828091 54.952191851225116  90.27924333357521 62.404230392153806  Z M 94.750760361439 57.166976303875686  C 85.94767193486359 46.64675001323167  80.47967438140964 37.284713847208195  80.47967426944257 32.74169640920206  C 80.47967426944257 24.436254683651725  87.08915642606343 17.678452792995103  95.21106360465444 17.678452792995103  C 103.33297067127839 17.678452792995103  109.94245282789927 24.4379479637947  109.94582494023717 32.74338968934501  C 109.94582494023717 37.28810029505104  104.47614116266368 46.64675001323167  95.67642507236036 57.165283023732684  C 95.46060529208188 57.4209652893577  94.96320802937953 57.4192721216578  94.750760361439 57.166976303875686  Z M 62.74970259721732 62  C 64.4102279977177 62.7028330049402  66.0707535090414 60.99606394042974  66.0707535090414 59.285877994312955  C 66.0707535090414 57.57569204819623  64.41022810854108 55.86892298368565  62.74970259721732 55  L 14.54086247915204 55  C 12.880337078651678 55.86892298368565  11.219811567327937 57.57569204819623  11.21981167815133 59.285877994312955  C 11.21981178897471 60.99606394042974  12.880337078651678 62.7028330049402  14.54086247915204 62  L 62.74970259721732 62  Z M 52.60964969605865 41.42374564137174  C 52.60964969605865 39.716976576861214  50.949124295558306 38.00679063074449  49.28859878423458 39  L 15.049867857926614 39  C 13.389342457426267 38.00679063074449  11.728816946102512 39.71355969525502  11.728816946102512 41.42374564137174  C 11.728816946102512 43.13393158748846  13.38934234660286 44.84070065199905  15.049867857926614 44  L 49.28859878423458 44  C 50.9491241847349 44.84070065199905  52.60964969605865 43.13393158748846  52.60964969605865 41.42374564137174  Z M 94.71689546996276 20.685170920389282  C 90.21632579833368 20.691681306657273  86.56973505942238 24.42234595163302  86.56428100707208 29.025747836872313  C 86.57064602436503 33.62914845493577  90.21797488152384 37.35905803059501  94.71854570650785 37.36463669938564  C 99.21659097704381 37.352569939309035  102.86118398992227 33.624882873205706  102.87116016939848 29.02405978290264  C 102.86570235383394 24.420274034525363  99.21784263856534 20.68982158137294  94.71689546996276 20.685170920389282  Z M 94.71854570650785 32.48115384615386  C 92.89447004855253 32.42327125963675  91.44508122820434 30.894060090563812  91.44508122820434 29.027409501290833  C 91.44508122820434 27.161414207584865  92.8934880266657 25.63249172788204  94.71689546996276 25.573717935530173  C 96.58011003090758 25.57835360152711  98.08967183695725 27.121652278774604  98.09511434040542 29.027435890842014  C 98.0923876682968 30.933715222503565  96.58224247677708 32.478364873844725  94.71854570650785 32.48115384615386  Z " fill-rule="nonzero" fill="#707a8a" stroke="none" fill-opacity="0.14901960784313725" transform="matrix(1 0 0 1 109 226 )" />
  </g>
</svg>