<svg version="1.1" xmlns:xlink="http://www.w3.org/1999/xlink" width="40px" height="42px" xmlns="http://www.w3.org/2000/svg">
  <g transform="matrix(1 0 0 1 -197 -244 )">
    <path d="M 8.389085050080752 2.418731715006686  L 1.8193743128587343 2.418731715006686  C 1.1596740714296558 2.418731715006686  0.6248814012015345 1.8843544177263425  0.6248814012015345 1.225166615139301  C 0.6248814012015345 0.5659788125522596  1.1596740714296558 0.03160151527185917  1.8193742625146285 0.03160151527185917  L 8.389085050080752 0.03160151527185917  C 9.04878529150983 0.03160151527185917  9.583577961737959 0.5659788125522596  9.583577961737959 1.225166615139301  C 9.583577961737959 1.8843544177263425  9.04878529150983 2.418731715006686  8.389085100424865 2.418731715006686  Z M 18.510840264772114 3  L 18.479406234124667 2.418731715006686  C 17.81970599269559 2.418731715006686  17.28491332246746 1.8843544177263425  17.28491332246746 1.225166615139301  C 17.28491332246746 0.5659788125522596  17.81970599269559 0.03160151527185917  18.479406183780554 0.03160151527185917  C 18.479406217343296 0.03160151527185917  18.479406200561925 0.03160151527185917  18.479406234124667 0  L 37.71702798607899 0  C 37.71702798607899 0.03160151527185917  37.7170280364231 0.03160151527185917  37.7170280364231 0.03160151527185917  C 38.37672822750808 0.03160151527185917  38.91152089773621 0.5659788125522596  38.91152089773621 1.225166615139301  C 38.91152089773621 1.8843544177263425  38.37672822750808 2.418731715006686  37.7170280364231 2.418731715006686  C 37.7170280364231 2.418731715006686  37.71702798607899 2.418731715006686  37.71702798607899 3  L 18.510840264772114 3  Z M 8.389085050080752 12.846721455149803  L 1.8193743128587343 12.846721455149803  C 1.1596741217737687 12.846721455149803  0.6248814515456402 12.312344157869404  0.6248814515456402 11.653156355282361  C 0.6248814515456402 10.993968552695321  1.1596741217737687 10.459591255414978  1.8193743128587343 10.459591255414978  L 8.389085050080752 10.459591255414978  C 9.048785241165717 10.459591255414978  9.583577911393846 10.993968552695321  9.583577911393846 11.653156355282361  C 9.583577911393846 12.312344157869404  9.048785241165717 12.846721455149803  8.389085050080752 12.846721455149803  Z M 8.389085050080752 22.489471025924615  L 1.8193743128587343 22.489471025924615  C 1.15967402108555 22.489471025924615  0.6248813508574216 21.955093728644215  0.6248813508574216 21.295905926057173  C 0.6248813508574216 20.636718123470132  1.15967402108555 20.10234082618979  1.8193742121705156 20.10234082618979  L 8.389085050080752 20.10234082618979  C 9.048785341853936 20.10234082618979  9.583578012082064 20.636718123470132  9.583578012082064 21.295905926057173  C 9.583578012082064 21.955093728644215  9.048785341853936 22.489471025924615  8.389085150768963 22.489471025924615  Z M 8.389085050080752 32.13222052093579  L 1.8193743128587343 32.13222052093579  C 1.1593731742387163 32.13222055881761  0.6245805040105878 31.597843261537264  0.6245805040105878 30.938655458950166  C 0.6245805040105878 30.27946765636318  1.1593731742387163 29.74509035908278  1.819073365323682 29.74509035908278  L 8.389085050080752 29.7450903969646  C 9.049086188700777 29.74509035908278  9.583878858928898 30.27946765636318  9.583878858928898 30.938655458950166  C 9.583878858928898 31.597843261537264  9.049086188700777 32.13222055881761  8.389385997615804 32.13222055881761  Z M 38.188538294145744 13  L 18.950916542191422 13  C 18.950916542191422 12.846721455149803  18.950916542191422 12.846721455149803  18.950916542191422 12.846721455149803  C 18.291216351106456 12.846721455149803  17.756423680878328 12.312344157869404  17.756423680878328 11.653156355282361  C 17.756423680878328 10.993968552695321  18.291216351106456 10.459591255414978  18.950916542191422 10.459591255414978  C 18.950916542191422 10.459591255414978  18.950916542191422 10.459591255414978  18.950916542191422 11  L 38.188538294145744 11  C 38.188538294145744 10.459591255414978  38.188538294145744 10.459591255414978  38.188538294145744 10.459591255414978  C 38.84823848523071 10.459591255414978  39.38303115545884 10.993968552695321  39.38303115545884 11.653156355282361  C 39.38303115545884 12.312344157869404  38.84823848523071 12.846721455149803  38.188538294145744 12.846721455149803  C 38.188538294145744 12.846721455149803  38.188538294145744 12.846721455149803  38.188538294145744 13  Z M 38.188538294145744 22  L 18.950916542191422 22  C 18.950916475065938 22.489471025924615  18.950916508628687 22.489471025924615  18.950916441503203 22.489471025924615  C 18.291216250418238 22.489471025924615  17.75642358019011 21.955093728644215  17.75642358019011 21.295905926057173  C 17.75642358019011 20.636718123470132  18.291216250418238 20.10234082618979  18.950916441503203 20.10234082618979  L 38.188538294145744 20.10234082618979  C 38.848238585918935 20.10234082618979  39.38303125614706 20.636718123470132  39.38303125614706 21.295905926057173  C 39.38303125614706 21.955093728644215  38.848238585918935 22.489471025924615  38.188538394833955 22.489471025924615  C 38.188538394833955 22.489471025924615  38.188538294145744 22.489471025924615  38.188538294145744 22  Z M 38.188538294145744 32  L 18.950916542191422 32  C 18.95081622634801 32.132220546190354  18.950715910502964 32.13222055881761  18.95061559465637 32.13222055881761  C 18.290915403571397 32.13222055881761  17.756122733343275 31.597843261537264  17.756122733343275 30.938655458950166  C 17.756122733343275 30.27946765636318  18.290915403571397 29.74509035908278  18.95061559465637 29.74509035908278  C 18.950715910502964 29.74509035908278  18.95081622634801 29.745090371710035  18.950916542191422 29  L 38.188538294145744 29  C 38.188638609989155 29.745090371710035  38.1887389258342 29.74509035908278  38.188839241680796 29.74509035908278  C 38.84853943276576 29.74509035908278  39.38333210299389 30.27946765636318  39.38333210299389 30.938655458950166  C 39.38333210299389 31.597843261537264  38.84853943276576 32.13222055881761  38.188839241680796 32.13222055881761  C 38.1887389258342 32.13222055881761  38.188638609989155 32.132220546190354  38.188538294145744 32  Z M 37.214083571542304 41  L 2.793829035462174 41  C 1.505034082206734 41.80637970757698  0.5934474967206782 41.30382600524234  0.5934474967206782 40.61281460770954  C 0.5934474967206782 39.92180321017673  1.5050341580292184 39.41924950784215  2.793829035462174 39  L 37.214083571542304 39  C 38.50287852479774 39.41924950784215  39.4144651102838 39.92180321017673  39.4144651861063 40.61281460770954  C 39.41446526192877 41.30382600524234  38.50287852479774 41.80637970757698  37.214083571542304 41  Z " fill-rule="nonzero" fill="#707a8a" stroke="none" fill-opacity="0.14901960784313725" transform="matrix(1 0 0 1 197 244 )" />
  </g>
</svg>
