<svg version="1.1" xmlns:xlink="http://www.w3.org/1999/xlink" width="121px" height="78px" xmlns="http://www.w3.org/2000/svg">
  <g transform="matrix(1 0 0 1 -32 -226 )">
    <path d="M 8.85822008710381 77.50928616740089  L 8.85822008710381 75.25508949024544  L 113.08366112170427 75.47424755191946  C 115.77266920502663 75.47424755191946  117.95254095977003 73.301581984795  117.95254095977003 70.62146318439272  C 117.95254095977003 70.62146318439272  117.95254095977003 70.62146310887351  118 70.62146310887351  L 118 8.00489044682189  C 117.95361463315243 7.9630283814694565  117.95415153559588 7.921154350169218  117.95415153559588 7.879278609208001  C 117.95415153559588 5.18837413191352  115.78328267306023 2.99765657441094  113.08366112170424 3  L 7.319025863132417 3  C 4.630017779810046 2.8703315040906148  2.4501460250666156 5.042997071215069  3 7.723115871617381  L 3 70.33968853366895  C 2.4840089826670635 73.00570207668875  4.644169821326088 75.15872192128734  7.319025863132417 75.1924729767149  L 8.858220087103817 75.1924729767149  L 8.858220087103817 77.50928616740089  L 7.319025863132417 77.50928616740089  C 3.3184754693280354 77.52680596819448  0.05169310894380175 74.32671957433337  0 70.33968853366895  L 0 7.723115871617381  C 0.008059298310911345 5.761541622263478  0.7728823979465673 3.878225178407405  2.136024737858847 2.4633237507866563  C 3.505782744057292 1.08731005426435  5.3742846841744125 0.3198063759365368  7.319025863132417 1  L 113.08366112170424 1  C 113.09415443671224 0.334315073434027  113.104647837384 0.3342924842067134  113.11514125029385 0.3342924842067134  C 117.13997917428219 0.3342924842067134  120.40275497712855 3.586282251341146  120.40275497712855 7.597814925993987  C 120.40275497712855 7.608273649935569  120.40273231297837 7.618732361679463  120 7.629190988042808  L 120 70.24576372561359  C 120.38659867971774 72.19649425566081  119.62235524109087 74.06718160651349  118.2666622469778 75.47424755191946  C 116.90741153606467 76.8732659717324  115.03758442428227 77.66390360157828  113.08366112170421 77.665827564506  L 8.85822008710381 77.50928616740089  Z " fill-rule="nonzero" fill="#707a8a" stroke="none" fill-opacity="0.14901960784313725" transform="matrix(1 0 0 1 32 226 )" />
  </g>
</svg>
