<?xml version="1.0" encoding="utf-8"?>
<svg version="1.1" xmlns:xlink="http://www.w3.org/1999/xlink" width="25px" height="25px" xmlns="http://www.w3.org/2000/svg">
  <g transform="matrix(1 0 0 1 -80 -254 )">
    <path d="M 25 15.799129353233832  L 25 23.833955223880597  C 25 24.477943971351205  24.47533369120796 25  23.828125 25  L 1.171875 25  C 0.5246663087920389 25  0 24.477943971351205  0 23.833955223880597  L 0 15.799129353233832  C 0 15.155140605763224  0.5246663087920389 14.633084577114428  1.171875 14.633084577114428  C 1.819083691207961 14.633084577114428  2.34375 15.155140605763224  2.34375 15.799129353233832  L 2.34375 22.667910447761194  L 22.65625 22.667910447761194  L 22.65625 15.799129353233832  C 22.65625 15.155140605763224  23.18091630879204 14.633084577114428  23.828125 14.633084577114428  C 24.47533369120796 14.633084577114428  25 15.155140605763224  25 15.799129353233832  Z M 5.214401727274859 9.725266762641692  C 5.517962535367172 9.725266762641692  5.80967923522144 9.60805791218369  6.028125 9.398320895522389  L 11.346874999999999 4.104477611940299  L 11.346874999999999 18.521455223880594  C 11.346874999999999 19.16544397135121  11.871541308792038 19.687499999999996  12.51875 19.687499999999996  C 13.165958691207958 19.687499999999996  13.690625 19.165443971351202  13.690625 18.521455223880594  L 13.690625 4.1060323383084585  L 19.009375000000002 9.399875621890546  C 19.229214606031057 9.618621498538365  19.527381097604117 9.741511652423702  19.838281249999998 9.741511652423702  C 20.485697302418902 9.741511652423702  21.01053171068582 9.21928836061582  21.01053171068582 8.575093283582088  C 21.01053171068582 8.265739898113553  20.887027106031056 7.96905682192145  20.6671875 7.750310945273631  L 13.3484375 0.46641791044776126  C 13.128850873374903 0.24719832725565113  12.830589582045137 0.12398088233446942  12.519531250000002 0.12398088233446942  C 12.208472917954863 0.12398088233446942  11.910211626625097 0.24719832725565047  11.690624999999999 0.46641791044776115  L 4.371875 7.748756218905473  C 4.160617715924891 7.96619078175243  4.042526727274859 8.256791072359542  4.042526727274859 8.559221986522289  C 4.042526727274859 9.203210733992895  4.567193036066898 9.725266762641692  5.214401727274859 9.725266762641692  Z " fill-rule="nonzero" fill="#707a8a" stroke="none" transform="matrix(1 0 0 1 80 254 )" />
  </g>
</svg>