<?xml version="1.0" encoding="utf-8"?>
<svg version="1.1" xmlns:xlink="http://www.w3.org/1999/xlink" width="143px" height="91px" xmlns="http://www.w3.org/2000/svg">
  <g transform="matrix(1 0 0 1 -21 -221 )">
    <path d="M 142.37546077112776 90.96290832682769  L 132.93133563436962 90.96290832682769  L 132.93133563436962 89.22570681818178  L 140.57139076284142 89.22570681818178  L 140.57139076284142 81.87523589816152  L 142.37546077112776 81.87523589816152  L 142.37546077112776 90.96290832682769  Z M 140.57139076284142 9.121416915180134  L 140.57139076284142 1.77764036847654  L 132.93133563436962 1.77764036847654  L 132.93133563436962 0.040438948631901894  L 142.37546077112776 0.040438948631901894  L 142.37546077112776 9.121416915180134  L 140.57139076284142 9.121416915180134  Z M 1.8063763729461506 1.77764036847654  L 1.8063763729461506 9.121416915180134  L 0 9.121416915180134  L 0 0.040438948631901894  L 9.44643150141793 0.040438948631901894  L 9.44643150141793 1.77764036847654  L 1.8063763729461506 1.77764036847654  Z M 1.8063763729461506 81.87523589816152  L 1.8063763729461506 89.22570681818178  L 9.44643150141793 89.22570681818178  L 9.44643150141793 90.96290832682769  L 0 90.96290832682769  L 0 81.87523589816152  L 1.8063763729461506 81.87523589816152  Z " fill-rule="nonzero" fill="#707a8a" stroke="none" transform="matrix(1 0 0 1 21 221 )" />
  </g>
</svg>