<svg version="1.1" xmlns:xlink="http://www.w3.org/1999/xlink" width="121px" height="79px" xmlns="http://www.w3.org/2000/svg">
  <g transform="matrix(1 0 0 1 -108 -227 )">
    <path d="M 9.83124999999998 5  C 6.957499999999981 4.557692307692308  4.537499999999979 6.988461538461573  5 9.875  L 5 67.30192307692309  C 4.537499999999979 70.18846153846151  6.95749999999997 72.61923076923078  9.83124999999998 72  L 46.73624999999996 72  L 46.73625000000001 76  L 9.83125 76  C 4.386249999999998 77.17692307692309  0 72.77115384615382  0 67.30192307692309  L 0 9.875  C 0 4.405769230769197  4.386250000000009 0  9.83125 0  L 111.16874999999999 0  C 116.61374999999998 0  120.99999999999997 4.405769230769197  121 9.875  L 121 26.890384615384598  L 116 26.890384615384598  L 116 9.875  C 116.46249999999998 6.988461538461573  114.04249999999999 4.557692307692308  111.16874999999997 5  L 9.83124999999998 5  Z M 121 52.86923076923078  C 121 66.99807692307695  109.65625000000003 78.39230769230772  95.59 78.39230769230772  C 81.52375 78.39230769230772  70.18 66.84615384615384  70.18 52.86923076923078  C 70.18 38.892307692307725  81.67500000000001 27.346153846153847  95.59 27.346153846153847  C 109.505 27.346153846153847  121 38.74038461538461  121 52.86923076923078  Z M 116.4625 52.86923076923078  C 116.4625 41.32307692307691  107.08500000000001 31.751923076923042  95.59 31.751923076923042  C 84.09500000000001 31.751923076923042  74.7175 41.171153846153885  74.7175 52.71730769230767  C 74.7175 64.26346153846156  84.095 73.6826923076923  95.59 73.6826923076923  C 107.08500000000001 73.6826923076923  116.4625 64.41538461538458  116.4625 52.86923076923078  Z M 21.93125 16  C 20.721250000000005 15.344230769230805  19.6625 14.280769230769195  19.6625 13.06538461538465  C 19.6625 11.850000000000017  20.721250000000005 10.786538461538495  21.93125 12  L 96.4975 12  C 97.70749999999998 10.786538461538495  98.76624999999999 11.850000000000017  98.76624999999999 13.06538461538465  C 98.76624999999999 14.432692307692307  97.70749999999998 15.344230769230805  96.4975 16  L 21.93125 16  Z M 21.93125 25  C 20.721250000000005 24.611538461538444  19.6625 23.548076923076923  19.6625 22.33269230769229  C 19.6625 21.117307692307655  20.721250000000005 20.053846153846134  21.93125 21  L 80.01125000000002 21  C 81.22125 20.053846153846134  82.28 21.117307692307655  82.28 22.33269230769229  C 82.28 23.548076923076923  81.22125 24.611538461538444  80.01125000000002 25  L 21.93125 25  Z M 21.93125 44  C 20.721250000000005 43.601923076923065  19.6625 42.53846153846153  19.6625 41.32307692307691  C 19.6625 40.10769230769227  20.721250000000005 39.04423076923075  21.93125 39  L 54.752500000000005 39  C 55.962500000000006 39.04423076923075  57.02125000000001 40.10769230769227  57.02125000000001 41.32307692307691  C 57.02125000000001 42.53846153846153  56.11375000000001 43.601923076923065  54.752500000000005 44  L 21.93125 44  Z M 93 37.37307692307696  L 93 68.06153846153849  C 93.32124999999999 69.27692307692311  94.38000000000001 70.34038461538462  95.59 70.34038461538462  C 96.80000000000001 70.34038461538462  97.85875000000001 69.27692307692311  97 68.06153846153849  L 97 37.37307692307696  C 97.85875000000001 36.15769230769232  96.80000000000001 35.094230769230805  95.59 35.094230769230805  C 94.38000000000001 35.094230769230805  93.32124999999999 36.15769230769232  93 37.37307692307696  Z M 93.32124999999999 62.11466151012844  L 93.3212504979878 67.04999944031292  C 89.26918234397475 66.41685199488944  86.06124999999997 62.992206335917444  86.06125 58.79423076923075  C 86.06125 57.42692307692309  87.12 56.36346153846158  88.48124999999999 56.36346153846158  C 89.8425 56.36346153846158  90.90125 57.42692307692309  90.90125 58.79423076923075  C 90.90125 60.37423076923078  91.96605 61.662538461538496  93.32124999999999 62.11466151012844  Z M 97.85875000000001 67.08437578458137  L 97.85874384755259 62.13294175968509  C 99.28378557312256 61.69812301675212  100.27875 60.39608571000988  100.27875 58.79423076923075  C 100.27875 57.36010275817673  99.80024302726576 56.64692930871211  97.85875000000001 55.956691072283  L 97.85865017768154 51.01754346459309  C 103.00033876125643 52.44666186189949  105.11875 54.24360972271659  105.11875 58.79423076923075  C 105.11875 63.00244435318842  102.02409551079853 66.56306918781651  97.85875000000001 67.08437578458137  Z M 93.32124999999999 49.781770466178486  L 93.3213498223185 54.7209180738684  C 88.17966123874356 53.29179967656199  86.06125 51.494851815744894  86.06125 46.944230769230735  C 86.06125 42.74625520254111  89.2691823439793 39.19272122561459  93.32124999999999 38.657944499916425  L 93.32125615244742 43.60551977877648  C 91.89621442687742 44.04033852170946  90.90124999999999 45.342375828451694  90.90124999999999 46.944230769230735  C 90.90124999999999 48.378358780284756  91.37975697273426 49.091532229749454  93.32124999999999 49.781770466178486  Z M 97.85875000000001 43.605519807398636  L 97.85874950200365 38.65794449237846  C 101.91081765602073 39.19272122561459  105.11875 42.74625520254111  105.11875 46.944230769230735  C 105.11875 48.31153846153848  104.06000000000002 49.375  102.69875000000002 49.375  C 101.3375 49.375  100.27875 48.31153846153848  100.27875 46.944230769230735  C 100.27875 45.342375828451694  99.28378557312256 44.04033852170946  97.85875000000001 43.605519807398636  Z " fill-rule="nonzero" fill="#707a8a" stroke="none" fill-opacity="0.14901960784313725" transform="matrix(1 0 0 1 108 227 )" />
  </g>
</svg>
