<svg width="24" height="27" viewBox="0 0 24 27" fill="none" xmlns="http://www.w3.org/2000/svg">
<path d="M23.0826 18.7361C23.0826 19.0173 23.0088 19.2935 22.8685 19.5372C22.7281 19.7809 22.5263 19.9834 22.283 20.1246L12.6805 25.6966C12.4357 25.8387 12.1578 25.9135 11.8748 25.9135C11.5918 25.9135 11.3138 25.8387 11.0691 25.6966L1.4665 20.1244C1.22329 19.9832 1.02141 19.7807 0.881088 19.537C0.740765 19.2934 0.666914 19.0171 0.666931 18.7359V7.57752C0.666949 7.29636 0.740816 7.02015 0.881137 6.77651C1.02146 6.53288 1.22332 6.33037 1.4665 6.18927L11.0693 0.617004C11.314 0.474965 11.592 0.400146 11.875 0.400146C12.158 0.400146 12.4359 0.474965 12.6807 0.617004L22.2833 6.18927C22.5264 6.33037 22.7283 6.53288 22.8686 6.77651C23.0089 7.02015 23.0828 7.29636 23.0828 7.57752L23.0826 18.7361Z" fill="#646B6B"/>
<path fill-rule="evenodd" clip-rule="evenodd" d="M11.8246 0.984743C11.5946 0.984743 11.3688 1.04553 11.1699 1.16094L1.56714 6.73321C1.36955 6.84786 1.20554 7.0124 1.09152 7.21035C0.977516 7.4083 0.9175 7.63272 0.917482 7.86115C0.917482 7.86114 0.917482 7.86116 0.917482 7.86115V19.0195C0.917468 19.248 0.977472 19.4725 1.09148 19.6705C1.2055 19.8684 1.36952 20.033 1.56713 20.1477L11.1697 25.7199C11.3686 25.8353 11.5944 25.8961 11.8244 25.8961C12.0543 25.8961 12.2801 25.8354 12.479 25.7199L22.0816 20.1479C22.2792 20.0332 22.4432 19.8686 22.5572 19.6707C22.6712 19.4727 22.7312 19.2482 22.7312 19.0198L22.7314 7.86117C22.7314 7.86116 22.7314 7.86118 22.7314 7.86117C22.7314 7.63274 22.6714 7.4083 22.5574 7.21035C22.4434 7.0124 22.2794 6.84786 22.0818 6.73321L12.4792 1.16095C12.2803 1.04554 12.0545 0.984743 11.8246 0.984743ZM10.8678 0.640322C11.1585 0.471659 11.4885 0.382812 11.8246 0.382812C12.1606 0.382812 12.4907 0.471659 12.7813 0.640323C12.7813 0.640321 12.7813 0.640325 12.7813 0.640323L22.3839 6.21259C22.6727 6.38014 22.9124 6.62062 23.079 6.90994C23.2456 7.19925 23.3333 7.52726 23.3334 7.86113L23.3332 19.0197C23.3332 19.0197 23.3332 19.0197 23.3332 19.0197C23.3332 19.3536 23.2455 19.6817 23.0789 19.971C22.9122 20.2604 22.6725 20.5009 22.3837 20.6685L12.7811 26.2406C12.4905 26.4092 12.1604 26.4981 11.8244 26.4981C11.4883 26.4981 11.1583 26.4092 10.8676 26.2406C10.8676 26.2406 10.8676 26.2406 10.8676 26.2406L1.26504 20.6683C0.976224 20.5007 0.736497 20.2602 0.569863 19.9708C0.403229 19.6815 0.315532 19.3534 0.315552 19.0195V7.86115C0.315574 7.52728 0.40329 7.19925 0.569922 6.90994C0.736553 6.62062 0.976258 6.38014 1.26504 6.21258L10.8678 0.640322C10.8678 0.64032 10.8678 0.640324 10.8678 0.640322Z" fill="#BF9E73"/>
<path d="M5.91444 15.448L4.06696 10.6717H5.22701L6.55176 14.3452L7.86935 10.6717H9.0294L7.18907 15.448H5.91444Z" fill="#E7CAA5"/>
<path d="M9.47046 15.448V10.6717H10.4873V15.448H9.47046Z" fill="#E7CAA5"/>
<path d="M11.4355 15.448V10.6717H13.6697C14.708 10.6717 15.2737 11.3735 15.2737 12.2113C15.2737 13.0419 14.7008 13.7365 13.6697 13.7365H12.4523V15.448H11.4355ZM14.2354 12.2041C14.2354 11.8103 13.9346 11.5453 13.5336 11.5453H12.4523V12.8629H13.5336C13.9346 12.8629 14.2354 12.6051 14.2354 12.2041Z" fill="#E7CAA5"/>
<path d="M15.6749 13.0634C15.6749 11.8318 16.2835 10.6001 17.6512 10.6001C19.0118 10.6001 19.6276 11.8318 19.6276 13.0634C19.6276 14.2951 19.0118 15.5339 17.6512 15.5339C16.2835 15.5339 15.6749 14.2951 15.6749 13.0634ZM18.5893 13.0634C18.5893 12.1826 18.3315 11.5024 17.6512 11.5024C16.9638 11.5024 16.706 12.1826 16.706 13.0634C16.706 13.9442 16.9638 14.6316 17.6512 14.6316C18.3315 14.6316 18.5893 13.9442 18.5893 13.0634Z" fill="#E7CAA5"/>
</svg>
