<svg width="32" height="32" viewBox="0 0 32 32" fill="none" xmlns="http://www.w3.org/2000/svg">
<path d="M25.6044 20.6895C25.6045 20.9452 25.5373 21.1964 25.4097 21.418C25.2821 21.6395 25.0985 21.8237 24.8774 21.9521L16.1452 27.019C15.9227 27.1482 15.6699 27.2162 15.4126 27.2162C15.1552 27.2162 14.9025 27.1482 14.6799 27.019L5.94779 21.9519C5.72663 21.8235 5.54305 21.6394 5.41545 21.4178C5.28784 21.1962 5.22069 20.945 5.2207 20.6893V10.5424C5.22072 10.2867 5.28789 10.0355 5.41549 9.81399C5.54309 9.59244 5.72665 9.40829 5.94779 9.27997L14.6801 4.21282C14.9027 4.08366 15.1554 4.01562 15.4128 4.01562C15.6701 4.01562 15.9228 4.08366 16.1454 4.21282L24.8776 9.27997C25.0987 9.40829 25.2822 9.59244 25.4098 9.81399C25.5374 10.0355 25.6046 10.2867 25.6046 10.5424L25.6044 20.6895Z" fill="#646B6B"/>
<path fill-rule="evenodd" clip-rule="evenodd" d="M15.3661 4.54737C15.1571 4.54737 14.9517 4.60265 14.7709 4.70759L6.03852 9.77475C5.85885 9.879 5.7097 10.0286 5.60602 10.2086C5.50235 10.3886 5.44777 10.5927 5.44776 10.8004C5.44776 10.8004 5.44776 10.8004 5.44776 10.8004V20.9474C5.44774 21.1551 5.50231 21.3592 5.60599 21.5393C5.70966 21.7193 5.85882 21.8689 6.03852 21.9732L14.7707 27.0404C14.9515 27.1453 15.1569 27.2006 15.3659 27.2006C15.575 27.2006 15.7804 27.1453 15.9612 27.0404L24.6934 21.9734C24.8731 21.8691 25.0222 21.7195 25.1259 21.5394C25.2296 21.3594 25.2841 21.1553 25.2841 20.9475L25.2843 10.8005C25.2843 10.8005 25.2843 10.8005 25.2843 10.8005C25.2843 10.5927 25.2297 10.3886 25.1261 10.2086C25.0224 10.0286 24.8732 9.87901 24.6936 9.77475L15.9614 4.7076C15.7806 4.60265 15.5752 4.54737 15.3661 4.54737ZM14.4961 4.23417C14.7604 4.08079 15.0606 4 15.3661 4C15.6717 4 15.9719 4.08079 16.2361 4.23417C16.2361 4.23417 16.2361 4.23417 16.2361 4.23417L24.9683 9.30132C25.2309 9.45369 25.4488 9.67237 25.6004 9.93545C25.7519 10.1985 25.8317 10.4968 25.8317 10.8004L25.8315 20.9475C25.8315 20.9475 25.8315 20.9475 25.8315 20.9475C25.8315 21.2511 25.7518 21.5495 25.6002 21.8126C25.4487 22.0757 25.2307 22.2944 24.9681 22.4468L16.236 27.5138C15.9717 27.6672 15.6715 27.748 15.3659 27.748C15.0604 27.748 14.7602 27.6672 14.4959 27.5138C14.4959 27.5138 14.4959 27.5138 14.4959 27.5138L5.76381 22.4467C5.50117 22.2943 5.28318 22.0756 5.13165 21.8124C4.98012 21.5493 4.90037 21.251 4.90039 20.9473V10.8004C4.90041 10.4968 4.98018 10.1985 5.1317 9.93545C5.28323 9.67236 5.50121 9.45369 5.76381 9.30131L14.4961 4.23417C14.4961 4.23416 14.4961 4.23417 14.4961 4.23417Z" fill="#BF9E73"/>
<path d="M9.99252 17.6994L8.3125 13.3561H9.3674L10.5721 16.6966L11.7702 13.3561H12.8251L11.1516 17.6994H9.99252Z" fill="#E7CAA5"/>
<path d="M13.2262 17.6994V13.3561H14.1508V17.6994H13.2262Z" fill="#E7CAA5"/>
<path d="M15.0131 17.6994V13.3561H17.0447C17.9889 13.3561 18.5034 13.9943 18.5034 14.7561C18.5034 15.5115 17.9824 16.1431 17.0447 16.1431H15.9378V17.6994H15.0131ZM17.5592 14.7496C17.5592 14.3915 17.2857 14.1506 16.921 14.1506H15.9378V15.3487H16.921C17.2857 15.3487 17.5592 15.1143 17.5592 14.7496Z" fill="#E7CAA5"/>
<path d="M18.8682 15.531C18.8682 14.411 19.4217 13.291 20.6654 13.291C21.9026 13.291 22.4626 14.411 22.4626 15.531C22.4626 16.6511 21.9026 17.7776 20.6654 17.7776C19.4217 17.7776 18.8682 16.6511 18.8682 15.531ZM21.5184 15.531C21.5184 14.7301 21.284 14.1115 20.6654 14.1115C20.0403 14.1115 19.8059 14.7301 19.8059 15.531C19.8059 16.332 20.0403 16.9571 20.6654 16.9571C21.284 16.9571 21.5184 16.332 21.5184 15.531Z" fill="#E7CAA5"/>
</svg>
