<svg width="115" height="131" viewBox="0 0 115 131" fill="none" xmlns="http://www.w3.org/2000/svg">
<path d="M113.218 93.3855C113.218 94.7868 112.85 96.1634 112.15 97.3777C111.451 98.5919 110.445 99.6012 109.233 100.304L61.374 128.076C60.1543 128.784 58.7692 129.157 57.359 129.157C55.9489 129.157 54.5637 128.784 53.344 128.076L5.48404 100.304C4.27203 99.6012 3.26598 98.5919 2.56662 97.3777C1.86726 96.1634 1.49911 94.7868 1.49902 93.3855V37.7715C1.49911 36.3702 1.86726 34.9935 2.56662 33.7793C3.26598 32.565 4.27203 31.5557 5.48404 30.8525L53.344 3.08048C54.5637 2.37275 55.9489 2 57.359 2C58.7692 2 60.1543 2.37275 61.374 3.08048L109.234 30.8525C110.446 31.5557 111.452 32.565 112.151 33.7793C112.851 34.9935 113.219 36.3702 113.219 37.7715L113.218 93.3855Z" fill="#646B6B" stroke="#BF9E73" stroke-width="3"/>
<path d="M28.1219 74L19.8659 52.656H25.0499L30.9699 69.072L36.8579 52.656H42.0419L33.8179 74H28.1219ZM44.0129 74V52.656H48.5569V74H44.0129ZM52.7941 74V52.656H62.7781C67.4181 52.656 69.9461 55.792 69.9461 59.536C69.9461 63.248 67.3861 66.352 62.7781 66.352H57.3381V74H52.7941ZM65.3061 59.504C65.3061 57.744 63.9621 56.56 62.1701 56.56H57.3381V62.448H62.1701C63.9621 62.448 65.3061 61.296 65.3061 59.504ZM71.7389 63.344C71.7389 57.84 74.4589 52.336 80.5709 52.336C86.6509 52.336 89.4029 57.84 89.4029 63.344C89.4029 68.848 86.6509 74.384 80.5709 74.384C74.4589 74.384 71.7389 68.848 71.7389 63.344ZM84.7629 63.344C84.7629 59.408 83.6109 56.368 80.5709 56.368C77.4989 56.368 76.3469 59.408 76.3469 63.344C76.3469 67.28 77.4989 70.352 80.5709 70.352C83.6109 70.352 84.7629 67.28 84.7629 63.344Z" fill="#E7CAA5"/>
</svg>
