<svg width="32" height="28" viewBox="0 0 32 28" fill="none" xmlns="http://www.w3.org/2000/svg">
<path d="M27.6753 19.7252V7.38019C27.6753 6.93291 27.4957 6.57508 27.0466 6.30671L16.6287 0.134185C16.2694 -0.0447284 15.8204 -0.0447284 15.4611 0.134185L4.95338 6.30671C4.50433 6.48562 4.32471 6.93291 4.32471 7.38019V19.7252C4.32471 20.1725 4.50433 20.5303 4.95338 20.7987L15.4611 26.9712C15.8204 27.1502 16.2694 27.1502 16.6287 26.9712L27.1364 20.7987C27.4957 20.5303 27.6753 20.1725 27.6753 19.7252Z" fill="url(#paint0_linear_8344_15280)"/>
<path d="M25.6995 18.5622V8.54306C25.6995 8.09577 25.5199 7.73795 25.0708 7.46957L16.6287 2.45999C16.2694 2.28108 15.8204 2.28108 15.4611 2.45999L6.92921 7.46957C6.56997 7.64849 6.30054 8.09577 6.30054 8.54306V18.5622C6.30054 19.0095 6.48016 19.3673 6.92921 19.6357L15.3713 24.6453C15.7306 24.8242 16.1796 24.8242 16.5389 24.6453L24.981 19.6357C25.43 19.3673 25.6995 19.0095 25.6995 18.5622Z" fill="#DEDEDE"/>
<path d="M25.6995 18.7412V9.25882C25.6995 8.81153 25.4301 8.45371 25.0708 8.18534L20.1313 5.41217L19.1434 4.87543L16.5389 3.44412C16.1796 3.26521 15.7306 3.26521 15.3713 3.44412L6.92921 8.18534C6.56997 8.36425 6.30054 8.81153 6.30054 9.25882V18.7412C6.30054 19.1885 6.56997 19.5464 6.92921 19.8147L15.3713 24.6454C15.7306 24.8243 16.1796 24.8243 16.5389 24.6454L24.981 19.8147C25.43 19.6358 25.6995 19.1885 25.6995 18.7412Z" fill="#EDF4FE"/>
<path d="M11.7464 6.45763L13.6466 7.63068L15.5404 5.17566C15.5823 5.12135 15.6375 5.07708 15.7016 5.04654C15.7657 5.016 15.8367 5.00006 15.9087 5.00006C15.9808 5.00006 16.0518 5.016 16.1158 5.04654C16.1799 5.07708 16.2351 5.12135 16.277 5.17566L18.1708 7.63068L20.071 6.45763C20.1429 6.41333 20.227 6.38901 20.3134 6.38756C20.3997 6.3861 20.4847 6.40757 20.5583 6.44943C20.632 6.49129 20.6911 6.55178 20.7287 6.62376C20.7664 6.69574 20.781 6.7762 20.7709 6.85563L20.0276 10.7071C20.0146 10.809 19.9617 10.9029 19.8789 10.9711C19.7961 11.0393 19.6891 11.077 19.5783 11.077H12.2391C12.1283 11.077 12.0213 11.0393 11.9385 10.9711C11.8557 10.9029 11.8028 10.809 11.7899 10.7071L11.0465 6.85521C11.0365 6.77581 11.0512 6.69541 11.0889 6.6235C11.1266 6.55159 11.1857 6.49116 11.2593 6.44936C11.3329 6.40756 11.4179 6.38613 11.5042 6.38759C11.5905 6.38906 11.6745 6.41336 11.7464 6.45763ZM15.9087 9.56331C16.1487 9.56331 16.3788 9.47503 16.5485 9.31789C16.7182 9.16076 16.8136 8.94764 16.8136 8.72541C16.8136 8.50319 16.7182 8.29007 16.5485 8.13293C16.3788 7.9758 16.1487 7.88752 15.9087 7.88752C15.6687 7.88752 15.4386 7.9758 15.2689 8.13293C15.0992 8.29007 15.0039 8.50319 15.0039 8.72541C15.0039 8.94764 15.0992 9.16076 15.2689 9.31789C15.4386 9.47503 15.6687 9.56331 15.9087 9.56331Z" fill="url(#paint1_linear_8344_15280)"/>
<path opacity="0.8" d="M22.0656 6.78415C21.6765 6.69772 21.371 6.40003 21.2825 6.02167C21.2747 5.99286 21.2368 5.99286 21.23 6.02167C21.1415 6.40003 20.835 6.69772 20.4469 6.78415C20.4167 6.79183 20.4167 6.82833 20.4469 6.83601C20.836 6.92244 21.1415 7.22013 21.23 7.59849C21.2378 7.6273 21.2757 7.6273 21.2825 7.59849C21.371 7.22013 21.6775 6.92244 22.0656 6.83601C22.0938 6.82833 22.0938 6.78991 22.0656 6.78415ZM20.4031 8.31488C20.0986 8.23806 19.8573 8.00374 19.7785 7.70701C19.7708 7.6782 19.7309 7.6782 19.7221 7.70701C19.6433 8.00374 19.4021 8.23806 19.0976 8.31488C19.0674 8.32256 19.0674 8.36098 19.0976 8.37058C19.4021 8.4474 19.6433 8.68172 19.7221 8.97845C19.7299 9.00726 19.7698 9.00726 19.7785 8.97845C19.8573 8.68172 20.0986 8.4474 20.4031 8.37058C20.4332 8.36098 20.4332 8.32256 20.4031 8.31488Z" fill="white"/>
<path opacity="0.05" d="M4.32471 7.82739V19.9041C4.32471 20.3514 4.50433 20.7092 4.95338 20.8881L15.4611 26.9712C15.8204 27.1501 16.2694 27.1501 16.6287 26.9712L25.1606 22.051L4.32471 7.82739Z" fill="#7684A1"/>
<path opacity="0.12" d="M7.73748 4.69653L4.95338 6.30676C4.59414 6.57513 4.32471 6.93295 4.32471 7.38024L16 15.3419L20.0414 12.5687L7.73748 4.69653Z" fill="white"/>
<path opacity="0.05" d="M27.6753 7.82739V19.9041C27.6753 20.3514 27.4956 20.7092 27.0466 20.8881L16.5388 26.9712C16.1796 27.1501 15.7305 27.1501 15.3713 26.9712L6.83936 22.051L27.6753 7.82739Z" fill="#7684A1"/>
<path d="M8.03149 14.1133H8.99047L10.4705 18.8195H10.4931L11.9731 14.1133H12.9321L11.0141 19.8869H9.94945L8.03149 14.1133Z" fill="#707F9C"/>
<path d="M13.4998 14.1133H14.3832V19.8869H13.4998V14.1133Z" fill="#707F9C"/>
<path d="M15.4391 14.1133H17.6742C18.973 14.1133 19.6299 14.7036 19.6299 15.8842C19.6299 17.0728 18.973 17.6712 17.6591 17.6712H16.3226V19.8869H15.4391V14.1133ZM16.3226 14.9219V16.8626H17.6063C17.9989 16.8626 18.2859 16.7817 18.4671 16.6362C18.6483 16.4825 18.7389 16.2319 18.7389 15.8842C18.7389 15.5364 18.6408 15.2939 18.4595 15.1483C18.2783 14.9947 17.9914 14.9219 17.6063 14.9219H16.3226Z" fill="#707F9C"/>
<path d="M22.1238 14.0001C22.7506 14.0001 23.2414 14.275 23.5963 14.841C23.9285 15.3747 24.0946 16.0944 24.0946 17.0001C24.0946 17.9057 23.9285 18.6254 23.5963 19.1591C23.2414 19.717 22.7506 20.0001 22.1238 20.0001C21.4895 20.0001 20.9987 19.717 20.6514 19.1591C20.3191 18.6254 20.153 17.9057 20.153 17.0001C20.153 16.0944 20.3191 15.3747 20.6514 14.841C20.9987 14.275 21.4895 14.0001 22.1238 14.0001ZM22.1238 14.8006C21.6934 14.8006 21.3914 15.0513 21.2177 15.5688C21.0969 15.9165 21.0365 16.3936 21.0365 17.0001C21.0365 17.5984 21.0969 18.0755 21.2177 18.4313C21.3914 18.9408 21.6934 19.1995 22.1238 19.1995C22.5467 19.1995 22.8487 18.9408 23.03 18.4313C23.1508 18.0755 23.2112 17.5984 23.2112 17.0001C23.2112 16.3936 23.1508 15.9165 23.03 15.5688C22.8487 15.0513 22.5467 14.8006 22.1238 14.8006Z" fill="#707F9C"/>
<path opacity="0.8" d="M1.33514e-05 9.69232L4.32471 10.9846V16.1539C1.76763 15.3898 1.33514e-05 12.9025 1.33514e-05 10.0687V9.69232Z" fill="#DEE6FF"/>
<path opacity="0.8" d="M32 9.69232L27.6753 10.9846V16.1539C30.2324 15.3898 32 12.9025 32 10.0687V9.69232Z" fill="#DEE6FF"/>
<defs>
<linearGradient id="paint0_linear_8344_15280" x1="16" y1="0" x2="16" y2="27.1054" gradientUnits="userSpaceOnUse">
<stop stop-color="#EEF5FF"/>
<stop offset="1" stop-color="#DDEBFF"/>
</linearGradient>
<linearGradient id="paint1_linear_8344_15280" x1="15.9087" y1="5.00006" x2="15.9087" y2="13.077" gradientUnits="userSpaceOnUse">
<stop stop-color="#7684A1" stop-opacity="0.2"/>
<stop offset="1" stop-color="#7684A1"/>
</linearGradient>
</defs>
</svg>
