<svg width="32" height="28" viewBox="0 0 32 28" fill="none" xmlns="http://www.w3.org/2000/svg">
<path opacity="0.8" d="M15.3693 23.0779L8.16213 19.0491C7.89186 18.874 7.62159 18.9616 7.44141 19.2243C7.44141 19.3119 7.35132 19.3995 7.35132 19.4871V27.5447C7.44141 27.8074 7.62159 27.9826 7.89186 27.9826C7.98195 27.9826 8.07204 27.9826 8.16213 27.895L15.3693 23.8662C15.5495 23.7786 15.6396 23.4283 15.5495 23.2531C15.4594 23.1655 15.3693 23.1655 15.3693 23.0779Z" fill="#31B2F2"/>
<path opacity="0.3" d="M15.9999 23.5159L10.2341 20.2754V26.7565L15.9999 23.5159Z" fill="white"/>
<path opacity="0.8" d="M17.2614 23.9188L24.4686 27.9476C24.6488 28.0352 25.0092 28.0352 25.0993 27.7724C25.0993 27.6848 25.1893 27.5973 25.1893 27.5097V19.4521C25.1893 19.1893 25.0092 19.0142 24.7389 19.0142C24.6488 19.0142 24.5587 19.0142 24.4686 19.1017L17.2614 23.1305C17.0812 23.2181 16.9912 23.5685 17.0812 23.7436C17.0812 23.8312 17.1713 23.9188 17.2614 23.9188Z" fill="#31B2F2"/>
<path opacity="0.3" d="M16.5405 23.5159L22.3063 26.7565V20.2754L16.5405 23.5159Z" fill="white"/>
<path opacity="0.2" d="M27.7118 20.1878V8.10136C27.7118 7.66345 27.5316 7.31312 27.0811 7.05037L16.6307 1.00717C16.2703 0.832002 15.8199 0.832002 15.4595 1.00717L4.91896 7.05037C4.46851 7.31312 4.28833 7.66345 4.28833 8.10136V20.1878C4.28833 20.6257 4.46851 20.976 4.91896 21.2388L15.4595 27.282C15.8199 27.4571 16.2703 27.4571 16.6307 27.282L27.1712 21.2388C27.5316 20.976 27.7118 20.6257 27.7118 20.1878Z" fill="#D4A87D"/>
<path d="M27.7118 19.312V7.22557C27.7118 6.78765 27.5316 6.43732 27.0811 6.17458L16.6307 0.131374C16.2703 -0.0437913 15.8199 -0.0437913 15.4595 0.131374L4.91896 6.17458C4.46851 6.34974 4.28833 6.78765 4.28833 7.22557V19.312C4.28833 19.7499 4.46851 20.1002 4.91896 20.363L15.4595 26.4062C15.8199 26.5813 16.2703 26.5813 16.6307 26.4062L27.1712 20.363C27.5316 20.1002 27.7118 19.7499 27.7118 19.312Z" fill="#C7F1FC"/>
<path d="M25.7297 18.1734V8.36415C25.7297 7.92624 25.5495 7.57591 25.0991 7.31316L16.6306 2.40853C16.2703 2.23337 15.8198 2.23337 15.4595 2.40853L6.90089 7.31316C6.54053 7.48833 6.27026 7.92624 6.27026 8.36415V18.1734C6.27026 18.6113 6.45044 18.9617 6.90089 19.2244L15.3694 24.129C15.7297 24.3042 16.1802 24.3042 16.5405 24.129L25.009 19.2244C25.4595 18.9617 25.7297 18.6113 25.7297 18.1734Z" fill="#B5E6FB"/>
<path d="M25.7297 18.3485V9.06472C25.7297 8.62681 25.4595 8.27648 25.0991 8.01373L20.1441 5.29867L19.1531 4.77317L16.5405 3.37185C16.1802 3.19669 15.7297 3.19669 15.3694 3.37185L6.90089 8.01373C6.54053 8.1889 6.27026 8.62681 6.27026 9.06472V18.3485C6.27026 18.7864 6.54053 19.1367 6.90089 19.3995L15.3694 24.1289C15.7297 24.3041 16.1802 24.3041 16.5405 24.1289L25.009 19.3995C25.4595 19.2243 25.7297 18.7864 25.7297 18.3485Z" fill="#DEFEFD"/>
<path opacity="0.196" d="M4.28833 7.66345V19.4871C4.28833 19.925 4.46851 20.2754 4.91896 20.4505L15.4595 26.4061C15.8199 26.5813 16.2703 26.5813 16.6307 26.4061L25.1892 21.5891L4.28833 7.66345Z" fill="#99DBFB"/>
<path opacity="0.12" d="M7.71175 4.59808L4.91896 6.17457C4.5586 6.43732 4.28833 6.78765 4.28833 7.22556L16 15.0204L20.0541 12.3054L7.71175 4.59808Z" fill="white"/>
<path opacity="0.196" d="M27.7117 7.66345V19.4871C27.7117 19.925 27.5315 20.2754 27.0811 20.4505L16.5405 26.4061C16.1802 26.5813 15.7297 26.5813 15.3693 26.4061L6.81079 21.5891L27.7117 7.66345Z" fill="#99DBFB"/>
<g filter="url(#filter0_i_8460_22941)">
<path d="M7.05078 11.1132H7.74814V16.3127H11.3038V16.8868H7.05078V11.1132Z" fill="#039CE8"/>
<path d="M11.5353 11.1132H12.3102L14.2301 16.1671H14.2559L16.1758 11.1132H16.9506L14.6778 16.8868H13.8082L11.5353 11.1132Z" fill="#039CE8"/>
<path d="M18.971 11.1132H19.522V16.8868H18.816V11.9218C18.4286 12.2938 17.9465 12.5526 17.3697 12.7143V12.0512C17.6452 11.9784 17.9379 11.8652 18.2306 11.7035C18.5233 11.5256 18.7644 11.3315 18.971 11.1132Z" fill="#039CE8"/>
<path d="M23.0292 11C23.761 11 24.312 11.2992 24.6908 11.9137C25.018 12.4313 25.1815 13.1267 25.1815 14C25.1815 14.8733 25.018 15.5687 24.6908 16.0863C24.312 16.6927 23.761 17 23.0292 17C22.2888 17 21.7378 16.6927 21.3676 16.0863C21.0404 15.5687 20.8768 14.8733 20.8768 14C20.8768 13.1267 21.0404 12.4313 21.3676 11.9137C21.7378 11.2992 22.2888 11 23.0292 11ZM23.0292 11.566C22.4782 11.566 22.0822 11.841 21.8411 12.3989C21.6689 12.7871 21.5828 13.3208 21.5828 14C21.5828 14.6712 21.6689 15.2049 21.8411 15.6011C22.0822 16.1509 22.4782 16.434 23.0292 16.434C23.5802 16.434 23.9762 16.1509 24.2173 15.6011C24.3895 15.2049 24.4842 14.6712 24.4842 14C24.4842 13.3208 24.3895 12.7871 24.2173 12.3989C23.9762 11.841 23.5802 11.566 23.0292 11.566Z" fill="#039CE8"/>
</g>
<path d="M7.05078 11.0632H7.00078V11.1132V16.8868V16.9368H7.05078H11.3038H11.3538V16.8868V16.3127V16.2627H11.3038H7.79814V11.1132V11.0632H7.74814H7.05078ZM11.5353 11.0632H11.4619L11.4888 11.1315L13.7617 16.9051L13.7742 16.9368H13.8082H14.6778H14.7118L14.7243 16.9051L16.9972 11.1315L17.024 11.0632H16.9506H16.1758H16.1413L16.129 11.0955L14.243 16.0603L12.3569 11.0955L12.3447 11.0632H12.3102H11.5353ZM18.971 11.0632H18.9495L18.9347 11.0788C18.7316 11.2935 18.4943 11.4846 18.2055 11.6602C17.9168 11.8197 17.6282 11.9312 17.3569 12.0029L17.3197 12.0127V12.0512V12.7143V12.7802L17.3832 12.7624C17.9255 12.6104 18.387 12.3729 18.766 12.0361V16.8868V16.9368H18.816H19.522H19.572V16.8868V11.1132V11.0632H19.522H18.971ZM21.8868 12.4192L21.887 12.4188C22.0048 12.1462 22.1589 11.9462 22.3476 11.8142C22.536 11.6825 22.7624 11.616 23.0292 11.616C23.296 11.616 23.5224 11.6825 23.7108 11.8142C23.8995 11.9462 24.0536 12.1462 24.1714 12.4188L24.1716 12.4192C24.3399 12.7986 24.4342 13.3247 24.4342 14C24.4342 14.667 24.34 15.1932 24.1715 15.581C24.0537 15.8497 23.8996 16.0498 23.7107 16.1828C23.5221 16.3157 23.2957 16.384 23.0292 16.384C22.7627 16.384 22.5363 16.3157 22.3477 16.1828C22.1588 16.0498 22.0047 15.8497 21.8869 15.5812C21.7186 15.1937 21.6328 14.6677 21.6328 14C21.6328 13.324 21.7186 12.7983 21.8868 12.4192ZM24.7333 11.8873C24.345 11.2576 23.7777 10.95 23.0292 10.95C22.2724 10.95 21.7048 11.2574 21.325 11.8875C20.9913 12.4157 20.8268 13.1213 20.8268 14C20.8268 14.8788 20.9913 15.5844 21.3251 16.1126C21.7047 16.7342 22.272 17.05 23.0292 17.05C23.7781 17.05 24.3452 16.734 24.7332 16.1127C25.067 15.5845 25.2315 14.8788 25.2315 14C25.2315 13.1212 25.0671 12.4155 24.7333 11.8873Z" stroke="#039CE8" stroke-width="0.1"/>
<path opacity="0.3" d="M32.0001 6.40222L27.6758 7.66343V12.7082C30.2326 11.9625 32.0001 9.53509 32.0001 6.76951V6.40222Z" fill="#0BADFD"/>
<path opacity="0.8" d="M32.0001 12.7083L27.6758 13.9695V19.0142C30.2326 18.2685 32.0001 15.8411 32.0001 13.0755V12.7083Z" fill="#0BADFD"/>
<path opacity="0.3" d="M0.00013876 6.40222L4.32446 7.66343V12.7082C1.76761 11.9625 0.00013876 9.53509 0.00013876 6.76951V6.40222Z" fill="#0BADFD"/>
<path opacity="0.8" d="M0.00013876 12.7083L4.32446 13.9695V19.0142C1.76761 18.2685 0.00013876 15.8411 0.00013876 13.0755V12.7083Z" fill="#0BADFD"/>
<defs>
<filter id="filter0_i_8460_22941" x="6.95068" y="10.9" width="18.3308" height="7.19995" filterUnits="userSpaceOnUse" color-interpolation-filters="sRGB">
<feFlood flood-opacity="0" result="BackgroundImageFix"/>
<feBlend mode="normal" in="SourceGraphic" in2="BackgroundImageFix" result="shape"/>
<feColorMatrix in="SourceAlpha" type="matrix" values="0 0 0 0 0 0 0 0 0 0 0 0 0 0 0 0 0 0 127 0" result="hardAlpha"/>
<feOffset dy="1"/>
<feGaussianBlur stdDeviation="0.5"/>
<feComposite in2="hardAlpha" operator="arithmetic" k2="-1" k3="1"/>
<feColorMatrix type="matrix" values="0 0 0 0 0 0 0 0 0 0 0 0 0 0 0 0 0 0 0.1 0"/>
<feBlend mode="normal" in2="shape" result="effect1_innerShadow_8460_22941"/>
</filter>
</defs>
</svg>
