<svg width="34" height="28" viewBox="0 0 34 28" fill="none" xmlns="http://www.w3.org/2000/svg">
<path d="M19.0356 19.6731L23.936 18.9707C23.936 18.9707 26.6222 26.8319 26.225 27.5164C25.8279 28.201 24.1953 27.2687 22.1453 25.9633C20.0953 24.6578 19.0356 19.6731 19.0356 19.6731Z" fill="#4F8188"/>
<path d="M14.6388 19.6731L9.73844 18.9707C9.73844 18.9707 7.05226 26.8319 7.4494 27.5164C7.84654 28.201 9.47913 27.2687 11.5291 25.9633C13.5791 24.6578 14.6388 19.6731 14.6388 19.6731Z" fill="#4F8188"/>
<path d="M4.901 7.07477C4.901 7.07477 2.03727 5.1455 1.09495 5.22453C-0.123991 5.32677 -0.356165 5.7298 0.554699 7.16304C1.65922 8.90102 4.14231 10.6195 4.9012 10.5362L4.901 7.07477Z" fill="#8BDAE5"/>
<path d="M4.901 11.3949C4.901 11.3949 2.03727 9.46822 1.09495 9.54686C-0.123991 9.6489 -0.356165 10.0515 0.554699 11.4832C1.65922 13.2192 4.14231 14.936 4.9012 14.8524L4.901 11.3949Z" fill="#4F8188"/>
<path d="M4.901 15.8975C4.901 15.8975 2.03727 13.9708 1.09495 14.0495C-0.123991 14.1515 -0.356165 14.5542 0.554699 15.9858C1.65922 17.7218 4.14231 19.4384 4.9012 19.355L4.901 15.8975Z" fill="#375256"/>
<path d="M29.099 7.07477C29.099 7.07477 31.9627 5.1455 32.905 5.22453C34.124 5.32677 34.3562 5.7298 33.4453 7.16304C32.3408 8.90102 29.8577 10.6195 29.0988 10.5362L29.099 7.07477Z" fill="#8BDAE5"/>
<path d="M29.099 11.3949C29.099 11.3949 31.9627 9.46822 32.905 9.54686C34.124 9.6489 34.3562 10.0515 33.4453 11.4832C32.3408 13.2192 29.8577 14.936 29.0988 14.8524L29.099 11.3949Z" fill="#4F8188"/>
<path d="M29.099 15.8975C29.099 15.8975 31.9627 13.9708 32.905 14.0495C34.124 14.1515 34.3562 14.5542 33.4453 15.9858C32.3408 17.7218 29.8577 19.4384 29.0988 19.355L29.099 15.8975Z" fill="#375256"/>
<path d="M27.95 18.9382C27.95 19.2138 27.8776 19.4846 27.7399 19.7234C27.6023 19.9622 27.4044 20.1607 27.1659 20.2989L17.7567 25.7523C17.5171 25.8912 17.245 25.9643 16.968 25.9643C16.691 25.9643 16.419 25.8912 16.1794 25.7523L6.77009 20.2989C6.5316 20.1607 6.33362 19.9622 6.19598 19.7234C6.05834 19.4846 5.98587 19.2138 5.98584 18.9382V8.02119C5.98583 7.74551 6.05829 7.47468 6.19593 7.23583C6.33357 6.99698 6.53158 6.79851 6.77009 6.6603L16.1786 1.2069C16.4182 1.06802 16.6903 0.994873 16.9672 0.994873C17.2442 0.994873 17.5163 1.06802 17.7559 1.2069L27.1652 6.6603C27.4036 6.79853 27.6016 6.99702 27.7392 7.23587C27.8768 7.47472 27.9492 7.74553 27.9492 8.02119L27.95 18.9382Z" fill="#4C6E73"/>
<path fill-rule="evenodd" clip-rule="evenodd" d="M16.9672 1.28976C16.7422 1.28976 16.5211 1.34919 16.3264 1.46204L6.91797 6.91542C6.72417 7.02772 6.56326 7.189 6.45143 7.38306C6.33959 7.57713 6.28072 7.79718 6.28073 8.02117V18.9381C6.28073 18.9381 6.28073 18.9382 6.28073 18.9381C6.28076 19.1621 6.33964 19.3821 6.45147 19.5762C6.5633 19.7702 6.72416 19.9314 6.91794 20.0437L16.3272 25.4971C16.5219 25.61 16.743 25.6694 16.968 25.6694C17.193 25.6694 17.4141 25.61 17.6088 25.4971L27.018 20.0437C27.2118 19.9314 27.3726 19.7702 27.4844 19.5761C27.5962 19.3821 27.6551 19.1621 27.6551 18.9382C27.6551 18.9382 27.6551 18.9382 27.6551 18.9382L27.6543 8.02119C27.6543 7.79722 27.5955 7.57713 27.4837 7.38307C27.3719 7.18902 27.211 7.02774 27.0172 6.91542L17.608 1.46204C17.4133 1.34919 17.1923 1.28976 16.9672 1.28976ZM16.0307 0.951736C16.3152 0.78681 16.6383 0.699951 16.9672 0.699951C17.2961 0.699951 17.6192 0.78681 17.9038 0.951736L27.313 6.40513C27.5962 6.56928 27.8313 6.805 27.9947 7.08863C28.1581 7.37225 28.2441 7.69383 28.2441 8.02115C28.2441 8.02113 28.2441 8.02116 28.2441 8.02115L28.2449 18.9382C28.2449 19.2655 28.1588 19.587 27.9954 19.8706C27.832 20.1542 27.597 20.3899 27.3138 20.554L17.9046 26.0074C17.62 26.1723 17.2969 26.2592 16.968 26.2592C16.6391 26.2592 16.316 26.1723 16.0315 26.0074L6.62222 20.554C6.33901 20.3899 6.10391 20.1543 5.94046 19.8707C5.77701 19.5871 5.69095 19.2655 5.69092 18.9382V8.02117C5.69091 7.69381 5.77695 7.3722 5.9404 7.08857C6.10385 6.80495 6.33896 6.56926 6.62219 6.40514C6.62218 6.40514 6.6222 6.40513 6.62219 6.40514L16.0307 0.951736Z" fill="#8BDAE5"/>
<path d="M10.5867 15.1503L8.9635 10.954H9.98269L11.1466 14.1815L12.3042 10.954H13.3234L11.7065 15.1503H10.5867Z" fill="#8BDAE5"/>
<path d="M13.7109 15.1503V10.954H14.6043V15.1503H13.7109Z" fill="#8BDAE5"/>
<path d="M15.4373 15.1503V10.954H17.4002C18.3124 10.954 18.8095 11.5706 18.8095 12.3067C18.8095 13.0365 18.3062 13.6467 17.4002 13.6467H16.3307V15.1503H15.4373ZM17.8972 12.3004C17.8972 11.9543 17.633 11.7216 17.2807 11.7216H16.3307V12.8792H17.2807C17.633 12.8792 17.8972 12.6527 17.8972 12.3004Z" fill="#8BDAE5"/>
<path d="M20.2189 15.1503V12.1053L19.5268 12.8163L19.0172 12.2815L20.3384 10.954H21.1185V15.1503H20.2189Z" fill="#8BDAE5"/>
<path d="M21.7485 13.0553C21.7485 11.9732 22.2833 10.8911 23.4849 10.8911C24.6802 10.8911 25.2213 11.9732 25.2213 13.0553C25.2213 14.1374 24.6802 15.2258 23.4849 15.2258C22.2833 15.2258 21.7485 14.1374 21.7485 13.0553ZM24.3091 13.0553C24.3091 12.2815 24.0826 11.6838 23.4849 11.6838C22.8809 11.6838 22.6544 12.2815 22.6544 13.0553C22.6544 13.8292 22.8809 14.4331 23.4849 14.4331C24.0826 14.4331 24.3091 13.8292 24.3091 13.0553Z" fill="#8BDAE5"/>
</svg>
