<svg width="173" height="131" viewBox="0 0 173 131" fill="none" xmlns="http://www.w3.org/2000/svg">
<path d="M24.9821 55.1171C24.9821 55.1171 10.4161 45.0881 5.62308 45.4991C-0.576916 46.0301 -1.7579 48.1261 2.8751 55.5761C8.4931 64.6101 21.1231 73.5441 24.9831 73.1101L24.9821 55.1171Z" fill="#EBAAC9"/>
<path d="M24.9821 78.017C24.9821 78.017 10.4161 67.988 5.62308 68.399C-0.576916 68.93 -1.7579 71.026 2.8751 78.476C8.4931 87.51 21.1231 96.444 24.9831 96.01L24.9821 78.017Z" fill="#805B6D"/>
<path d="M148.062 55.1171C148.062 55.1171 162.628 45.0881 167.421 45.4991C173.621 46.0301 174.802 48.1261 170.169 55.5761C164.551 64.6101 151.921 73.5441 148.061 73.1101L148.062 55.1171Z" fill="#EBAAC9"/>
<path d="M148.062 78.017C148.062 78.017 162.628 67.988 167.421 68.399C173.621 68.93 174.802 71.026 170.169 78.476C164.551 87.51 151.921 96.444 148.061 96.01L148.062 78.017Z" fill="#805B6D"/>
<path d="M142.218 93.3855C142.218 94.7867 141.85 96.1634 141.15 97.3777C140.451 98.5919 139.445 99.6012 138.233 100.304L90.374 128.076C89.1543 128.784 87.7692 129.157 86.359 129.157C84.9488 129.157 83.5637 128.784 82.344 128.076L34.485 100.304C33.273 99.6012 32.2669 98.5919 31.5676 97.3777C30.8682 96.1634 30.5001 94.7867 30.5 93.3855V37.7715C30.5001 36.3702 30.8682 34.9936 31.5676 33.7793C32.2669 32.565 33.273 31.5557 34.485 30.8525L82.344 3.08047C83.5637 2.37275 84.9488 2 86.359 2C87.7692 2 89.1543 2.37275 90.374 3.08047L138.233 30.8525C139.445 31.5557 140.451 32.565 141.15 33.7793C141.85 34.9936 142.218 36.3702 142.218 37.7715V93.3855Z" fill="#6B646A" stroke="#EBB9D1" stroke-width="3"/>
<path d="M51.074 74L42.818 52.656H48.002L53.922 69.072L59.81 52.656H64.994L56.77 74H51.074ZM66.965 74V52.656H71.509V74H66.965ZM75.7463 74V52.656H85.7303C90.3703 52.656 92.8983 55.792 92.8983 59.536C92.8983 63.248 90.3383 66.352 85.7303 66.352H80.2903V74H75.7463ZM88.2583 59.504C88.2583 57.744 86.9143 56.56 85.1223 56.56H80.2903V62.448H85.1223C86.9143 62.448 88.2583 61.296 88.2583 59.504ZM100.067 74V58.512L96.547 62.128L93.955 59.408L100.675 52.656H104.643V74H100.067ZM107.399 70.96L109.767 67.984C111.239 69.52 113.575 70.416 115.655 70.416C118.247 70.416 119.687 69.296 119.687 67.664C119.687 65.936 118.375 65.136 115.399 65.136C114.503 65.136 113.063 65.136 112.743 65.168V61.2C113.127 61.232 114.567 61.232 115.399 61.232C117.767 61.232 119.335 60.464 119.335 58.864C119.335 57.168 117.607 56.304 115.367 56.304C113.287 56.304 111.431 57.104 109.927 58.544L107.687 55.728C109.415 53.776 112.103 52.336 115.847 52.336C120.839 52.336 123.911 54.576 123.911 58.128C123.911 60.816 121.607 62.576 119.239 62.992C121.415 63.216 124.231 64.912 124.231 68.112C124.231 71.792 120.935 74.384 115.815 74.384C111.879 74.384 108.967 72.88 107.399 70.96Z" fill="#F7B6D5"/>
</svg>
