<svg width="173" height="131" viewBox="0 0 173 131" fill="none" xmlns="http://www.w3.org/2000/svg">
<path d="M24.9821 55.1171C24.9821 55.1171 10.4161 45.0881 5.62308 45.4991C-0.576916 46.0301 -1.7579 48.1261 2.8751 55.5761C8.4931 64.6101 21.1231 73.5441 24.9831 73.1101L24.9821 55.1171Z" fill="#EBAAC9"/>
<path d="M24.9821 78.0171C24.9821 78.0171 10.4161 67.988 5.62308 68.399C-0.576916 68.93 -1.7579 71.026 2.8751 78.476C8.4931 87.51 21.1231 96.444 24.9831 96.01L24.9821 78.0171Z" fill="#805B6D"/>
<path d="M148.062 55.1171C148.062 55.1171 162.628 45.0881 167.421 45.4991C173.621 46.0301 174.802 48.1261 170.169 55.5761C164.551 64.6101 151.921 73.5441 148.061 73.1101L148.062 55.1171Z" fill="#EBAAC9"/>
<path d="M148.062 78.0171C148.062 78.0171 162.628 67.988 167.421 68.399C173.621 68.93 174.802 71.026 170.169 78.476C164.551 87.51 151.921 96.444 148.061 96.01L148.062 78.0171Z" fill="#805B6D"/>
<path d="M142.218 93.3855C142.218 94.7869 141.85 96.1638 141.151 97.3782C140.451 98.5927 139.445 99.6021 138.233 100.305L90.374 128.076C89.1543 128.784 87.7692 129.157 86.359 129.157C84.9488 129.157 83.5637 128.784 82.344 128.076L34.485 100.305C33.2728 99.6012 32.2667 98.5917 31.5673 97.3773C30.868 96.1628 30.4999 94.7859 30.5 93.3845V37.7715C30.5001 36.3702 30.8682 34.9936 31.5676 33.7793C32.2669 32.565 33.273 31.5557 34.485 30.8525L82.344 3.08047C83.5637 2.37275 84.9488 2 86.359 2C87.7692 2 89.1543 2.37275 90.374 3.08047L138.233 30.8525C139.445 31.5557 140.451 32.565 141.15 33.7793C141.85 34.9936 142.218 36.3702 142.218 37.7715V93.3855Z" fill="#6B646A" stroke="#EBB9D1" stroke-width="3"/>
<path d="M50.9144 74L42.6584 52.656H47.8424L53.7624 69.072L59.6504 52.656H64.8344L56.6104 74H50.9144ZM66.8054 74V52.656H71.3494V74H66.8054ZM75.5866 74V52.656H85.5706C90.2106 52.656 92.7386 55.792 92.7386 59.536C92.7386 63.248 90.1786 66.352 85.5706 66.352H80.1306V74H75.5866ZM88.0986 59.504C88.0986 57.744 86.7546 56.56 84.9626 56.56H80.1306V62.448H84.9626C86.7546 62.448 88.0986 61.296 88.0986 59.504ZM99.9074 74V58.512L96.3874 62.128L93.7954 59.408L100.515 52.656H104.483V74H99.9074ZM117.608 74V69.584H107.4V66L115.88 52.656H122.152V65.584H124.904V69.584H122.152V74H117.608ZM117.608 56.688L111.848 65.584H117.608V56.688Z" fill="#F7B6D5"/>
</svg>
