<svg width="173" height="131" viewBox="0 0 173 131" fill="none" xmlns="http://www.w3.org/2000/svg">
<path d="M24.9821 55.1171C24.9821 55.1171 10.4161 45.0881 5.62308 45.4991C-0.576916 46.0301 -1.7579 48.1261 2.8751 55.5761C8.4931 64.6101 21.1231 73.5441 24.9831 73.1101L24.9821 55.1171Z" fill="#EBAAC9"/>
<path d="M24.9821 78.0171C24.9821 78.0171 10.4161 67.988 5.62308 68.399C-0.576916 68.93 -1.7579 71.026 2.8751 78.476C8.4931 87.51 21.1231 96.444 24.9831 96.01L24.9821 78.0171Z" fill="#805B6D"/>
<path d="M148.062 55.1171C148.062 55.1171 162.628 45.0881 167.421 45.4991C173.621 46.0301 174.802 48.1261 170.169 55.5761C164.551 64.6101 151.921 73.5441 148.061 73.1101L148.062 55.1171Z" fill="#EBAAC9"/>
<path d="M148.062 78.0171C148.062 78.0171 162.628 67.988 167.421 68.399C173.621 68.93 174.802 71.026 170.169 78.476C164.551 87.51 151.921 96.444 148.061 96.01L148.062 78.0171Z" fill="#805B6D"/>
<path d="M142.218 93.3855C142.218 94.7869 141.85 96.1638 141.151 97.3782C140.451 98.5927 139.445 99.6021 138.233 100.305L90.374 128.076C89.1543 128.784 87.7692 129.157 86.359 129.157C84.9488 129.157 83.5637 128.784 82.344 128.076L34.485 100.305C33.2728 99.6012 32.2667 98.5917 31.5673 97.3773C30.868 96.1628 30.4999 94.7859 30.5 93.3845V37.7715C30.5001 36.3702 30.8682 34.9936 31.5676 33.7793C32.2669 32.565 33.273 31.5557 34.485 30.8525L82.344 3.08051C83.5637 2.37278 84.9488 2 86.359 2C87.7692 2 89.1543 2.37278 90.374 3.08051L138.233 30.8525C139.445 31.5557 140.451 32.565 141.15 33.7793C141.85 34.9936 142.218 36.3702 142.218 37.7715V93.3855Z" fill="#6B646A" stroke="#EBB9D1" stroke-width="3"/>
<path d="M50.7381 74L42.4821 52.656H47.6661L53.5861 69.072L59.4741 52.656H64.6581L56.4341 74H50.7381ZM66.6291 74V52.656H71.1731V74H66.6291ZM75.4103 74V52.656H85.3943C90.0343 52.656 92.5623 55.792 92.5623 59.536C92.5623 63.248 90.0023 66.352 85.3943 66.352H79.9543V74H75.4103ZM87.9223 59.504C87.9223 57.744 86.5783 56.56 84.7863 56.56H79.9543V62.448H84.7863C86.5783 62.448 87.9223 61.296 87.9223 59.504ZM99.7311 74V58.512L96.2111 62.128L93.6191 59.408L100.339 52.656H104.307V74H99.7311ZM107.991 71.184L110.487 68.112C111.959 69.616 113.943 70.416 116.183 70.416C118.711 70.416 120.151 68.976 120.151 67.216C120.151 65.264 118.743 63.952 116.311 63.952C114.551 63.952 113.111 64.496 111.831 65.712L108.663 64.848V52.656H123.319V56.56H113.111V61.904C114.231 60.912 115.959 60.144 117.911 60.144C121.527 60.144 124.759 62.704 124.759 67.024C124.759 71.536 121.367 74.384 116.215 74.384C112.503 74.384 109.815 73.168 107.991 71.184Z" fill="#F7B6D5"/>
</svg>
