<svg width="173" height="131" viewBox="0 0 173 131" fill="none" xmlns="http://www.w3.org/2000/svg">
<path d="M24.9821 55.1172C24.9821 55.1172 10.4161 45.0881 5.62308 45.4991C-0.576916 46.0301 -1.7579 48.1261 2.8751 55.5761C8.4931 64.6101 21.1231 73.5442 24.9831 73.1102L24.9821 55.1172Z" fill="#9BA2B1"/>
<path d="M148.062 55.1172C148.062 55.1172 162.628 45.0881 167.421 45.4991C173.621 46.0301 174.802 48.1261 170.169 55.5761C164.551 64.6101 151.921 73.5442 148.062 73.1102V55.1172Z" fill="#9BA2B1"/>
<path d="M142.218 93.3855C142.218 94.7868 141.85 96.1634 141.15 97.3777C140.451 98.5919 139.445 99.6012 138.233 100.304L90.374 128.077C89.1542 128.784 87.7691 129.157 86.3589 129.157C84.9488 129.157 83.5637 128.784 82.344 128.077L34.485 100.304C33.273 99.6012 32.2669 98.5919 31.5676 97.3777C30.8682 96.1634 30.5001 94.7868 30.5 93.3855V37.7715C30.5001 36.3702 30.8682 34.9936 31.5676 33.7793C32.2669 32.565 33.273 31.5558 34.485 30.8525L82.344 3.08044C83.5637 2.37271 84.9488 2 86.3589 2C87.7691 2 89.1542 2.37271 90.374 3.08044L138.233 30.8525C139.445 31.5558 140.451 32.565 141.15 33.7793C141.85 34.9936 142.218 36.3702 142.218 37.7715V93.3855Z" fill="#57626E" stroke="#DFE1EE" stroke-width="3"/>
<path d="M53.8899 75L45.6339 53.656H50.8179L56.7379 70.072L62.6259 53.656H67.8099L59.5859 75H53.8899ZM69.7809 75V53.656H74.3249V75H69.7809ZM78.5622 75V53.656H88.5462C93.1862 53.656 95.7142 56.792 95.7142 60.536C95.7142 64.248 93.1542 67.352 88.5462 67.352H83.1062V75H78.5622ZM91.0742 60.504C91.0742 58.744 89.7302 57.56 87.9382 57.56H83.1062V63.448H87.9382C89.7302 63.448 91.0742 62.296 91.0742 60.504ZM102.883 75V59.512L99.3629 63.128L96.7709 60.408L103.491 53.656H107.459V75H102.883ZM116.039 75V59.512L112.519 63.128L109.927 60.408L116.647 53.656H120.615V75H116.039Z" fill="#DFE1EE"/>
</svg>
