<svg width="32" height="28" viewBox="0 0 32 28" fill="none" xmlns="http://www.w3.org/2000/svg">
<path d="M27.7668 19.7252V7.38019C27.7668 6.93291 27.5866 6.57508 27.1361 6.30671L16.6837 0.134185C16.3233 -0.0447284 15.8728 -0.0447284 15.5123 0.134185L4.96986 6.30671C4.51932 6.48562 4.33911 6.93291 4.33911 7.38019V19.7252C4.33911 20.1725 4.51932 20.5303 4.96986 20.7987L15.5123 26.9712C15.8728 27.1502 16.3233 27.1502 16.6837 26.9712L27.2262 20.7987C27.5866 20.5303 27.7668 20.1725 27.7668 19.7252Z" fill="#FEC872"/>
<path d="M25.7846 18.5622V8.54306C25.7846 8.09577 25.6044 7.73795 25.1538 7.46957L16.6838 2.45999C16.3234 2.28108 15.8728 2.28108 15.5124 2.45999L6.95228 7.46957C6.59185 7.64849 6.32153 8.09577 6.32153 8.54306V18.5622C6.32153 19.0095 6.50175 19.3673 6.95228 19.6357L15.4223 24.6453C15.7827 24.8242 16.2333 24.8242 16.5937 24.6453L25.0637 19.6357C25.5143 19.3673 25.7846 19.0095 25.7846 18.5622Z" fill="#E5C783"/>
<path d="M25.7846 18.7412V9.25882C25.7846 8.81153 25.5143 8.45371 25.1538 8.18534L20.198 5.41217L19.2068 4.87543L16.5937 3.44412C16.2333 3.26521 15.7827 3.26521 15.4223 3.44412L6.95228 8.18534C6.59185 8.36425 6.32153 8.81153 6.32153 9.25882V18.7412C6.32153 19.1885 6.59185 19.5464 6.95228 19.8147L15.4223 24.6454C15.7827 24.8243 16.2333 24.8243 16.5937 24.6454L25.0637 19.8147C25.5143 19.6358 25.7846 19.1885 25.7846 18.7412Z" fill="#FFE399"/>
<path opacity="0.05" d="M4.33911 7.82739V19.9041C4.33911 20.3514 4.51932 20.7092 4.96986 20.8881L15.5123 26.9712C15.8728 27.1501 16.3233 27.1501 16.6837 26.9712L25.2439 22.051L4.33911 7.82739Z" fill="#FF6D32"/>
<path opacity="0.12" d="M7.76317 4.69653L4.96986 6.30676C4.60943 6.57513 4.33911 6.93295 4.33911 7.38024L16.053 15.3419L20.1078 12.5687L7.76317 4.69653Z" fill="white"/>
<path opacity="0.05" d="M27.7668 7.82739V19.9041C27.7668 20.3514 27.5866 20.7092 27.1361 20.8881L16.5936 26.9712C16.2332 27.1501 15.7826 27.1501 15.4222 26.9712L6.86206 22.051L27.7668 7.82739Z" fill="#FF6D32"/>
<path d="M11.7854 6.45757L13.6918 7.63062L15.5919 5.1756C15.6339 5.12129 15.6893 5.07702 15.7536 5.04648C15.8179 5.01593 15.8891 5 15.9614 5C16.0337 5 16.1049 5.01593 16.1692 5.04648C16.2335 5.07702 16.2889 5.12129 16.3309 5.1756L18.231 7.63062L20.1374 6.45757C20.2096 6.41327 20.294 6.38895 20.3806 6.3875C20.4673 6.38604 20.5526 6.40751 20.6264 6.44937C20.7003 6.49122 20.7596 6.55172 20.7974 6.6237C20.8352 6.69568 20.8498 6.77614 20.8396 6.85557L20.0939 10.707C20.0809 10.8089 20.0278 10.9029 19.9447 10.971C19.8616 11.0392 19.7543 11.0769 19.6431 11.0769H12.2797C12.1685 11.0769 12.0612 11.0392 11.9781 10.971C11.895 10.9029 11.842 10.8089 11.8289 10.707L11.0832 6.85515C11.0731 6.77575 11.0878 6.69535 11.1257 6.62344C11.1635 6.55153 11.2228 6.4911 11.2966 6.4493C11.3705 6.4075 11.4557 6.38607 11.5423 6.38753C11.6289 6.389 11.7133 6.4133 11.7854 6.45757ZM15.9614 9.56325C16.2022 9.56325 16.4331 9.47497 16.6033 9.31783C16.7736 9.1607 16.8692 8.94758 16.8692 8.72535C16.8692 8.50313 16.7736 8.29001 16.6033 8.13287C16.4331 7.97574 16.2022 7.88746 15.9614 7.88746C15.7206 7.88746 15.4897 7.97574 15.3195 8.13287C15.1492 8.29001 15.0536 8.50313 15.0536 8.72535C15.0536 8.94758 15.1492 9.1607 15.3195 9.31783C15.4897 9.47497 15.7206 9.56325 15.9614 9.56325Z" fill="url(#paint0_linear_8460_23048)"/>
<path opacity="0.8" d="M22.1387 6.78409C21.7483 6.69766 21.4419 6.39997 21.353 6.02161C21.3452 5.9928 21.3072 5.9928 21.3003 6.02161C21.2115 6.39997 20.9041 6.69766 20.5146 6.78409C20.4844 6.79177 20.4844 6.82827 20.5146 6.83595C20.905 6.92238 21.2115 7.22007 21.3003 7.59843C21.3081 7.62724 21.3462 7.62724 21.353 7.59843C21.4419 7.22007 21.7493 6.92238 22.1387 6.83595C22.1671 6.82827 22.1671 6.78985 22.1387 6.78409ZM20.4707 8.31482C20.1652 8.238 19.9232 8.00368 19.8441 7.70695C19.8363 7.67814 19.7963 7.67814 19.7875 7.70695C19.7084 8.00368 19.4664 8.238 19.1609 8.31482C19.1306 8.3225 19.1306 8.36092 19.1609 8.37052C19.4664 8.44734 19.7084 8.68166 19.7875 8.97839C19.7953 9.0072 19.8353 9.0072 19.8441 8.97839C19.9232 8.68166 20.1652 8.44734 20.4707 8.37052C20.501 8.36092 20.501 8.3225 20.4707 8.31482Z" fill="white"/>
<path d="M8.05811 14H9.14318L10.8178 18.8908H10.8434L12.518 14H13.6031L11.4329 20H10.2283L8.05811 14Z" fill="#A26301"/>
<path d="M14.2454 14H15.245V20H14.2454V14Z" fill="#A26301"/>
<path d="M16.4398 14H18.9688C20.4383 14 21.1816 14.6134 21.1816 15.8403C21.1816 17.0756 20.4383 17.6975 18.9517 17.6975H17.4394V20H16.4398V14ZM17.4394 14.8403V16.8571H18.8919C19.3362 16.8571 19.6608 16.7731 19.8659 16.6218C20.0709 16.4622 20.1735 16.2017 20.1735 15.8403C20.1735 15.479 20.0624 15.2269 19.8573 15.0756C19.6523 14.916 19.3276 14.8403 18.8919 14.8403H17.4394Z" fill="#A26301"/>
<path d="M23.4225 14H24.1743V20H23.1747V15.1849C22.8073 15.5126 22.3459 15.7563 21.782 15.916V14.9412C22.0554 14.8739 22.3459 14.7563 22.6535 14.5882C22.9611 14.4034 23.2174 14.2101 23.4225 14Z" fill="#A26301"/>
<defs>
<linearGradient id="paint0_linear_8460_23048" x1="15.9614" y1="5" x2="15.9614" y2="13.0769" gradientUnits="userSpaceOnUse">
<stop stop-color="#F19F21" stop-opacity="0.2"/>
<stop offset="1" stop-color="#F19F21"/>
</linearGradient>
</defs>
</svg>
