<svg width="32" height="28" viewBox="0 0 32 28" fill="none" xmlns="http://www.w3.org/2000/svg">
<path d="M27.5665 19.7252V7.38019C27.5665 6.93291 27.3876 6.57508 26.9403 6.30671L16.5633 0.134185C16.2055 -0.0447284 15.7582 -0.0447284 15.4004 0.134185L4.93394 6.30671C4.48665 6.48562 4.30774 6.93291 4.30774 7.38019V19.7252C4.30774 20.1725 4.48665 20.5303 4.93394 20.7987L15.4004 26.9712C15.7582 27.1502 16.2055 27.1502 16.5633 26.9712L27.0298 20.7987C27.3876 20.5303 27.5665 20.1725 27.5665 19.7252Z" fill="#FEC872"/>
<path d="M25.5984 18.5621V8.54294C25.5984 8.09565 25.4195 7.73782 24.9722 7.46945L16.5633 2.45987C16.2055 2.28096 15.7582 2.28096 15.4004 2.45987L6.90196 7.46945C6.54413 7.64837 6.27576 8.09565 6.27576 8.54294V18.5621C6.27576 19.0094 6.45467 19.3672 6.90196 19.6356L15.3109 24.6452C15.6687 24.8241 16.116 24.8241 16.4738 24.6452L24.8828 19.6356C25.3301 19.3672 25.5984 19.0094 25.5984 18.5621Z" fill="#E5C783"/>
<path d="M25.5984 18.7414V9.25894C25.5984 8.81166 25.3301 8.45383 24.9722 8.18546L20.0521 5.41229L19.0681 4.87555L16.4738 3.44424C16.116 3.26533 15.6687 3.26533 15.3109 3.44424L6.90196 8.18546C6.54413 8.36437 6.27576 8.81166 6.27576 9.25894V18.7414C6.27576 19.1887 6.54413 19.5465 6.90196 19.8149L15.3109 24.6455C15.6687 24.8244 16.116 24.8244 16.4738 24.6455L24.8828 19.8149C25.3301 19.6359 25.5984 19.1887 25.5984 18.7414Z" fill="#FFE399"/>
<path opacity="0.05" d="M4.30774 7.82764V19.9043C4.30774 20.3516 4.48665 20.7094 4.93394 20.8883L15.4004 26.9714C15.7582 27.1503 16.2055 27.1503 16.5633 26.9714L25.0617 22.0513L4.30774 7.82764Z" fill="#FF6D32"/>
<path opacity="0.12" d="M7.7071 4.69678L4.93394 6.307C4.57611 6.57537 4.30774 6.9332 4.30774 7.38048L15.9371 15.3421L19.9627 12.569L7.7071 4.69678Z" fill="white"/>
<path opacity="0.05" d="M27.5665 7.82764V19.9043C27.5665 20.3516 27.3876 20.7094 26.9403 20.8883L16.4738 26.9714C16.116 27.1503 15.6687 27.1503 15.3109 26.9714L6.8125 22.0513L27.5665 7.82764Z" fill="#FF6D32"/>
<path d="M11.7387 8.45757L13.6314 9.63062L15.5178 7.1756C15.5594 7.12129 15.6145 7.07702 15.6783 7.04648C15.7421 7.01593 15.8128 7 15.8846 7C15.9563 7 16.0271 7.01593 16.0909 7.04648C16.1547 7.07702 16.2097 7.12129 16.2514 7.1756L18.1378 9.63062L20.0305 8.45757C20.1021 8.41327 20.1859 8.38895 20.2719 8.3875C20.3579 8.38604 20.4426 8.40751 20.5159 8.44937C20.5893 8.49122 20.6481 8.55172 20.6857 8.6237C20.7232 8.69568 20.7377 8.77614 20.7276 8.85557L19.9872 14.707C19.9743 14.8089 19.9216 14.9029 19.8391 14.971C19.7567 15.0392 19.6501 15.0769 19.5397 15.0769H12.2294C12.119 15.0769 12.0125 15.0392 11.93 14.971C11.8475 14.9029 11.7948 14.8089 11.7819 14.707L11.0415 8.85515C11.0315 8.77575 11.0461 8.69535 11.0837 8.62344C11.1213 8.55153 11.1802 8.4911 11.2535 8.4493C11.3268 8.4075 11.4114 8.38607 11.4974 8.38753C11.5833 8.389 11.6671 8.4133 11.7387 8.45757ZM15.8846 12.5632C16.1236 12.5632 16.3529 12.475 16.5219 12.3178C16.6909 12.1607 16.7859 11.9476 16.7859 11.7254C16.7859 11.5031 16.6909 11.29 16.5219 11.1329C16.3529 10.9757 16.1236 10.8875 15.8846 10.8875C15.6455 10.8875 15.4163 10.9757 15.2473 11.1329C15.0782 11.29 14.9833 11.5031 14.9833 11.7254C14.9833 11.9476 15.0782 12.1607 15.2473 12.3178C15.4163 12.475 15.6455 12.5632 15.8846 12.5632Z" fill="url(#paint0_linear_6525_24664)"/>
<path opacity="0.8" d="M23.1236 8.12587C22.5671 8.00177 22.1302 7.57431 22.0036 7.03103C21.9924 6.98966 21.9382 6.98966 21.9284 7.03103C21.8018 7.57431 21.3635 8.00177 20.8084 8.12587C20.7652 8.13691 20.7652 8.1893 20.8084 8.20033C21.3649 8.32444 21.8018 8.7519 21.9284 9.29518C21.9396 9.33655 21.9938 9.33655 22.0036 9.29518C22.1302 8.7519 22.5685 8.32444 23.1236 8.20033C23.164 8.1893 23.164 8.13415 23.1236 8.12587ZM20.7458 10.3238C20.3103 10.2135 19.9652 9.87708 19.8525 9.451C19.8414 9.40963 19.7843 9.40963 19.7718 9.451C19.6591 9.87708 19.314 10.2135 18.8785 10.3238C18.8354 10.3349 18.8354 10.39 18.8785 10.4038C19.314 10.5141 19.6591 10.8506 19.7718 11.2767C19.7829 11.318 19.84 11.318 19.8525 11.2767C19.9652 10.8506 20.3103 10.5141 20.7458 10.4038C20.7889 10.39 20.7889 10.3349 20.7458 10.3238Z" fill="white"/>
<path d="M11.3693 16.8477H11.9163L12.7606 19.3547H12.7736L13.6179 16.8477H14.165L13.0708 19.9233H12.4634L11.3693 16.8477Z" fill="#F19F21"/>
<path d="M14.4888 16.8477H14.9928V19.9233H14.4888V16.8477Z" fill="#F19F21"/>
<path d="M15.5952 16.8477H16.8703C17.6112 16.8477 17.9859 17.1621 17.9859 17.791C17.9859 18.4243 17.6112 18.743 16.8616 18.743H16.0992V19.9233H15.5952V16.8477ZM16.0992 17.2784V18.3123H16.8315C17.0555 18.3123 17.2192 18.2692 17.3226 18.1917C17.4259 18.1098 17.4776 17.9763 17.4776 17.791C17.4776 17.6058 17.4216 17.4766 17.3183 17.399C17.2149 17.3172 17.0512 17.2784 16.8315 17.2784H16.0992Z" fill="#F19F21"/>
<path d="M19.1157 16.8477H19.4948V19.9233H18.9908V17.455C18.8056 17.623 18.573 17.748 18.2887 17.8298V17.3301C18.4265 17.2957 18.573 17.2353 18.728 17.1492C18.8831 17.0544 19.0124 16.9553 19.1157 16.8477Z" fill="#F19F21"/>
<path opacity="0.8" d="M4.72069e-05 9.69238L4.30774 10.9847V16.1539C1.76072 15.3898 4.72069e-05 12.9025 4.72069e-05 10.0687V9.69238Z" fill="#F19F21"/>
<path opacity="0.8" d="M31.7692 9.69238L27.4615 10.9847V16.1539C30.0086 15.3898 31.7692 12.9025 31.7692 10.0687V9.69238Z" fill="#F19F21"/>
<defs>
<linearGradient id="paint0_linear_6525_24664" x1="15.8846" y1="7" x2="15.8846" y2="15.0769" gradientUnits="userSpaceOnUse">
<stop stop-color="#F19F21" stop-opacity="0.2"/>
<stop offset="1" stop-color="#F19F21"/>
</linearGradient>
</defs>
</svg>
