<svg width="32" height="28" viewBox="0 0 32 28" fill="none" xmlns="http://www.w3.org/2000/svg">
<path opacity="0.8" d="M15.2585 23.0779L8.1033 19.0491C7.83498 18.874 7.56666 18.9616 7.38778 19.2243C7.38778 19.3119 7.29834 19.3995 7.29834 19.4871V27.5447C7.38778 27.8074 7.56666 27.9826 7.83498 27.9826C7.92442 27.9826 8.01386 27.9826 8.1033 27.895L15.2585 23.8662C15.4374 23.7786 15.5269 23.4283 15.4374 23.2531C15.348 23.1655 15.2585 23.1655 15.2585 23.0779Z" fill="#31B2F2"/>
<path opacity="0.3" d="M15.8846 23.5159L10.1604 20.2754V26.7565L15.8846 23.5159Z" fill="white"/>
<path opacity="0.8" d="M17.1368 23.9188L24.2921 27.9476C24.4709 28.0352 24.8287 28.0352 24.9181 27.7724C24.9181 27.6848 25.0076 27.5973 25.0076 27.5097V19.4521C25.0076 19.1893 24.8287 19.0142 24.5604 19.0142C24.4709 19.0142 24.3815 19.0142 24.2921 19.1017L17.1368 23.1305C16.9579 23.2181 16.8685 23.5685 16.9579 23.7436C16.9579 23.8312 17.0474 23.9188 17.1368 23.9188Z" fill="#31B2F2"/>
<path opacity="0.3" d="M16.4213 23.5159L22.1454 26.7565V20.2754L16.4213 23.5159Z" fill="white"/>
<path opacity="0.2" d="M27.5118 20.1877V8.1013C27.5118 7.66339 27.3329 7.31306 26.8857 7.05031L16.5107 1.00711C16.1529 0.831941 15.7057 0.831941 15.3479 1.00711L4.88341 7.05031C4.43621 7.31306 4.25732 7.66339 4.25732 8.1013V20.1877C4.25732 20.6256 4.43621 20.9759 4.88341 21.2387L15.3479 27.2819C15.7057 27.4571 16.1529 27.4571 16.5107 27.2819L26.9752 21.2387C27.3329 20.9759 27.5118 20.6256 27.5118 20.1877Z" fill="#D4A87D"/>
<path d="M27.5118 19.312V7.22557C27.5118 6.78765 27.3329 6.43732 26.8857 6.17458L16.5107 0.131374C16.1529 -0.0437913 15.7057 -0.0437913 15.3479 0.131374L4.88341 6.17458C4.43621 6.34974 4.25732 6.78765 4.25732 7.22557V19.312C4.25732 19.7499 4.43621 20.1002 4.88341 20.363L15.3479 26.4062C15.7057 26.5813 16.1529 26.5813 16.5107 26.4062L26.9752 20.363C27.3329 20.1002 27.5118 19.7499 27.5118 19.312Z" fill="#C7F1FC"/>
<path d="M25.5442 18.1733V8.36409C25.5442 7.92618 25.3653 7.57585 24.9181 7.3131L16.5107 2.40847C16.153 2.23331 15.7058 2.23331 15.348 2.40847L6.85118 7.3131C6.49342 7.48827 6.2251 7.92618 6.2251 8.36409V18.1733C6.2251 18.6113 6.40398 18.9616 6.85118 19.2243L15.2586 24.129C15.6163 24.3041 16.0635 24.3041 16.4213 24.129L24.8287 19.2243C25.2759 18.9616 25.5442 18.6113 25.5442 18.1733Z" fill="#B5E6FB"/>
<path d="M25.5442 18.3485V9.06472C25.5442 8.62681 25.2759 8.27648 24.9181 8.01373L19.9989 5.29867L19.0151 4.77317L16.4213 3.37185C16.0635 3.19669 15.6163 3.19669 15.2586 3.37185L6.85118 8.01373C6.49342 8.1889 6.2251 8.62681 6.2251 9.06472V18.3485C6.2251 18.7864 6.49342 19.1367 6.85118 19.3995L15.2586 24.1289C15.6163 24.3041 16.0635 24.3041 16.4213 24.1289L24.8287 19.3995C25.2759 19.2243 25.5442 18.7864 25.5442 18.3485Z" fill="#DEFEFD"/>
<path opacity="0.196" d="M4.25732 7.66357V19.4872C4.25732 19.9251 4.43621 20.2755 4.88341 20.4506L15.3479 26.4063C15.7057 26.5814 16.1529 26.5814 16.5107 26.4063L25.0075 21.5892L4.25732 7.66357Z" fill="#99DBFB"/>
<path opacity="0.12" d="M7.65606 4.59814L4.88341 6.17463C4.52565 6.43738 4.25732 6.78771 4.25732 7.22562L15.8846 15.0205L19.9094 12.3054L7.65606 4.59814Z" fill="white"/>
<path opacity="0.196" d="M27.5119 7.66357V19.4872C27.5119 19.9251 27.333 20.2755 26.8858 20.4506L16.4213 26.4063C16.0635 26.5814 15.6163 26.5814 15.2586 26.4063L6.76172 21.5892L27.5119 7.66357Z" fill="#99DBFB"/>
<g filter="url(#filter0_i_4974_3115)">
<path d="M8.0791 11.6891H8.63549V16.0142H11.4724V16.4918H8.0791V11.6891Z" fill="#0BADFD"/>
<path d="M11.6571 11.6891H12.2753L13.8071 15.8931H13.8277L15.3595 11.6891H15.9777L14.1643 16.4918H13.4705L11.6571 11.6891Z" fill="#0BADFD"/>
<path d="M17.5897 11.6891H18.0293V16.4918H17.4661V12.3618C17.1569 12.6712 16.7723 12.8864 16.3121 13.021V12.4694C16.5319 12.4089 16.7654 12.3147 16.999 12.1802C17.2325 12.0322 17.4248 11.8708 17.5897 11.6891Z" fill="#0BADFD"/>
<path d="M20.8275 11.595C21.4114 11.595 21.851 11.8438 22.1532 12.355C22.4143 12.7855 22.5448 13.364 22.5448 14.0904C22.5448 14.8169 22.4143 15.3954 22.1532 15.8258C21.851 16.3303 21.4114 16.5859 20.8275 16.5859C20.2368 16.5859 19.7972 16.3303 19.5018 15.8258C19.2408 15.3954 19.1103 14.8169 19.1103 14.0904C19.1103 13.364 19.2408 12.7855 19.5018 12.355C19.7972 11.8438 20.2368 11.595 20.8275 11.595ZM20.8275 12.0658C20.3879 12.0658 20.0719 12.2945 19.8796 12.7586C19.7422 13.0815 19.6735 13.5254 19.6735 14.0904C19.6735 14.6487 19.7422 15.0927 19.8796 15.4223C20.0719 15.8797 20.3879 16.1151 20.8275 16.1151C21.2671 16.1151 21.5831 15.8797 21.7754 15.4223C21.9128 15.0927 21.9884 14.6487 21.9884 14.0904C21.9884 13.5254 21.9128 13.0815 21.7754 12.7586C21.5831 12.2945 21.2671 12.0658 20.8275 12.0658Z" fill="#0BADFD"/>
</g>
<path opacity="0.3" d="M31.7692 6.40234L27.4761 7.66355V12.7083C30.0145 11.9626 31.7692 9.53521 31.7692 6.76963V6.40234Z" fill="#0BADFD"/>
<path opacity="0.8" d="M31.7692 12.7083L27.4761 13.9695V19.0142C30.0145 18.2685 31.7692 15.8411 31.7692 13.0755V12.7083Z" fill="#0BADFD"/>
<path opacity="0.3" d="M7.39098e-05 6.40234L4.29321 7.66355V12.7083C1.7548 11.9626 7.39098e-05 9.53521 7.39098e-05 6.76963V6.40234Z" fill="#0BADFD"/>
<path opacity="0.8" d="M7.39098e-05 12.7083L4.29321 13.9695V19.0142C1.7548 18.2685 7.39098e-05 15.8411 7.39098e-05 13.0755V12.7083Z" fill="#0BADFD"/>
<defs>
<filter id="filter0_i_4974_3115" x="8.0791" y="11.595" width="14.4657" height="5.99097" filterUnits="userSpaceOnUse" color-interpolation-filters="sRGB">
<feFlood flood-opacity="0" result="BackgroundImageFix"/>
<feBlend mode="normal" in="SourceGraphic" in2="BackgroundImageFix" result="shape"/>
<feColorMatrix in="SourceAlpha" type="matrix" values="0 0 0 0 0 0 0 0 0 0 0 0 0 0 0 0 0 0 127 0" result="hardAlpha"/>
<feOffset dy="1"/>
<feGaussianBlur stdDeviation="0.5"/>
<feComposite in2="hardAlpha" operator="arithmetic" k2="-1" k3="1"/>
<feColorMatrix type="matrix" values="0 0 0 0 0 0 0 0 0 0 0 0 0 0 0 0 0 0 0.1 0"/>
<feBlend mode="normal" in2="shape" result="effect1_innerShadow_4974_3115"/>
</filter>
</defs>
</svg>
