<svg width="173" height="131" viewBox="0 0 173 131" fill="none" xmlns="http://www.w3.org/2000/svg">
<path d="M24.9821 55.1171C24.9821 55.1171 10.4161 45.0881 5.62308 45.4991C-0.576916 46.0301 -1.7579 48.1261 2.8751 55.5761C8.4931 64.6101 21.1231 73.5441 24.9831 73.1101L24.9821 55.1171Z" fill="#9BA2B1"/>
<path d="M148.062 55.1171C148.062 55.1171 162.628 45.0881 167.421 45.4991C173.621 46.0301 174.802 48.1261 170.169 55.5761C164.551 64.6101 151.921 73.5441 148.062 73.1101V55.1171Z" fill="#9BA2B1"/>
<path d="M142.218 93.3855C142.218 94.7868 141.85 96.1634 141.15 97.3777C140.451 98.5919 139.445 99.6012 138.233 100.304L90.374 128.077C89.1542 128.784 87.7691 129.157 86.3589 129.157C84.9488 129.157 83.5637 128.784 82.344 128.077L34.485 100.304C33.273 99.6012 32.2669 98.5919 31.5676 97.3777C30.8682 96.1634 30.5001 94.7868 30.5 93.3855V37.7715C30.5001 36.3702 30.8682 34.9936 31.5676 33.7793C32.2669 32.565 33.273 31.5557 34.485 30.8525L82.344 3.08051C83.5637 2.37278 84.9488 2 86.3589 2C87.7691 2 89.1542 2.37278 90.374 3.08051L138.233 30.8525C139.445 31.5557 140.451 32.565 141.15 33.7793C141.85 34.9936 142.218 36.3702 142.218 37.7715V93.3855Z" fill="#57626E" stroke="#DFE1EE" stroke-width="3"/>
<path d="M50.5462 74L42.2902 52.656H47.4742L53.3942 69.072L59.2822 52.656H64.4662L56.2422 74H50.5462ZM66.4372 74V52.656H70.9812V74H66.4372ZM75.2184 74V52.656H85.2024C89.8424 52.656 92.3704 55.792 92.3704 59.536C92.3704 63.248 89.8104 66.352 85.2024 66.352H79.7624V74H75.2184ZM87.7304 59.504C87.7304 57.744 86.3864 56.56 84.5944 56.56H79.7624V62.448H84.5944C86.3864 62.448 87.7304 61.296 87.7304 59.504ZM99.5392 74V58.512L96.0192 62.128L93.4272 59.408L100.147 52.656H104.115V74H99.5392ZM107.319 63.344C107.319 57.84 110.039 52.336 116.151 52.336C122.231 52.336 124.983 57.84 124.983 63.344C124.983 68.848 122.231 74.384 116.151 74.384C110.039 74.384 107.319 68.848 107.319 63.344ZM120.343 63.344C120.343 59.408 119.191 56.368 116.151 56.368C113.079 56.368 111.927 59.408 111.927 63.344C111.927 67.28 113.079 70.352 116.151 70.352C119.191 70.352 120.343 67.28 120.343 63.344Z" fill="#DFE1EE"/>
</svg>
