<svg width="173" height="131" viewBox="0 0 173 131" fill="none" xmlns="http://www.w3.org/2000/svg">
<path d="M24.9821 55.1172C24.9821 55.1172 10.4161 45.0881 5.62308 45.4991C-0.576916 46.0301 -1.7579 48.1261 2.8751 55.5761C8.4931 64.6101 21.1231 73.5442 24.9831 73.1102L24.9821 55.1172Z" fill="#9BA2B1"/>
<path d="M148.062 55.1172C148.062 55.1172 162.628 45.0881 167.421 45.4991C173.621 46.0301 174.802 48.1261 170.169 55.5761C164.551 64.6101 151.921 73.5442 148.062 73.1102V55.1172Z" fill="#9BA2B1"/>
<path d="M142.218 93.3855C142.218 94.7868 141.85 96.1634 141.15 97.3777C140.451 98.5919 139.445 99.6012 138.233 100.304L90.374 128.077C89.1542 128.784 87.7691 129.157 86.3589 129.157C84.9488 129.157 83.5637 128.784 82.344 128.077L34.485 100.304C33.273 99.6012 32.2669 98.5919 31.5676 97.3777C30.8682 96.1634 30.5001 94.7868 30.5 93.3855V37.7715C30.5001 36.3702 30.8682 34.9936 31.5676 33.7793C32.2669 32.565 33.273 31.5558 34.485 30.8525L82.344 3.08044C83.5637 2.37271 84.9488 2 86.3589 2C87.7691 2 89.1542 2.37271 90.374 3.08044L138.233 30.8525C139.445 31.5558 140.451 32.565 141.15 33.7793C141.85 34.9936 142.218 36.3702 142.218 37.7715V93.3855Z" fill="#57626E" stroke="#DFE1EE" stroke-width="3"/>
<path d="M50.866 75L42.61 53.656H47.794L53.714 70.072L59.602 53.656H64.786L56.562 75H50.866ZM66.757 75V53.656H71.301V75H66.757ZM75.5383 75V53.656H85.5223C90.1623 53.656 92.6903 56.792 92.6903 60.536C92.6903 64.248 90.1303 67.352 85.5223 67.352H80.0823V75H75.5383ZM88.0503 60.504C88.0503 58.744 86.7063 57.56 84.9143 57.56H80.0823V63.448H84.9143C86.7063 63.448 88.0503 62.296 88.0503 60.504ZM99.859 75V59.512L96.339 63.128L93.747 60.408L100.467 53.656H104.435V75H99.859ZM108.055 75V71.416C116.791 64.984 119.351 62.776 119.351 60.152C119.351 58.296 117.655 57.368 115.863 57.368C113.463 57.368 111.607 58.328 110.167 59.832L107.575 56.824C109.655 54.424 112.823 53.336 115.799 53.336C120.343 53.336 123.959 55.896 123.959 60.152C123.959 63.8 120.951 66.968 115.223 71H124.119V75H108.055Z" fill="#DFE1EE"/>
</svg>
