<svg width="173" height="131" viewBox="0 0 173 131" fill="none" xmlns="http://www.w3.org/2000/svg">
<path d="M24.9821 55.1172C24.9821 55.1172 10.4161 45.0881 5.62308 45.4991C-0.576916 46.0301 -1.7579 48.1261 2.8751 55.5761C8.4931 64.6101 21.1231 73.5442 24.9831 73.1102L24.9821 55.1172Z" fill="#EBAAC9"/>
<path d="M24.9821 78.0171C24.9821 78.0171 10.4161 67.988 5.62308 68.399C-0.576916 68.93 -1.7579 71.026 2.8751 78.476C8.4931 87.51 21.1231 96.444 24.9831 96.01L24.9821 78.0171Z" fill="#805B6D"/>
<path d="M148.062 55.1172C148.062 55.1172 162.628 45.0881 167.421 45.4991C173.621 46.0301 174.802 48.1261 170.169 55.5761C164.551 64.6101 151.921 73.5442 148.061 73.1102L148.062 55.1172Z" fill="#EBAAC9"/>
<path d="M148.062 78.0171C148.062 78.0171 162.628 67.988 167.421 68.399C173.621 68.93 174.802 71.026 170.169 78.476C164.551 87.51 151.921 96.444 148.061 96.01L148.062 78.0171Z" fill="#805B6D"/>
<path d="M142.218 93.3855C142.218 94.7868 141.85 96.1634 141.15 97.3777C140.451 98.5919 139.445 99.6012 138.233 100.304L90.374 128.077C89.1543 128.784 87.7692 129.157 86.359 129.157C84.9488 129.157 83.5637 128.784 82.344 128.077L34.485 100.304C33.273 99.6012 32.2669 98.5919 31.5676 97.3777C30.8682 96.1634 30.5001 94.7868 30.5 93.3855V37.7715C30.5001 36.3702 30.8682 34.9936 31.5676 33.7793C32.2669 32.565 33.273 31.5558 34.485 30.8525L82.344 3.08044C83.5637 2.37271 84.9488 2 86.359 2C87.7692 2 89.1543 2.37271 90.374 3.08044L138.233 30.8525C139.445 31.5558 140.451 32.565 141.15 33.7793C141.85 34.9936 142.218 36.3702 142.218 37.7715V93.3855Z" fill="#6B646A" stroke="#EBB9D1" stroke-width="3"/>
<path d="M50.7698 74L42.5138 52.656H47.6978L53.6178 69.072L59.5058 52.656H64.6898L56.4658 74H50.7698ZM66.6608 74V52.656H71.2048V74H66.6608ZM75.4421 74V52.656H85.4261C90.0661 52.656 92.5941 55.792 92.5941 59.536C92.5941 63.248 90.0341 66.352 85.4261 66.352H79.9861V74H75.4421ZM87.9541 59.504C87.9541 57.744 86.6101 56.56 84.8181 56.56H79.9861V62.448H84.8181C86.6101 62.448 87.9541 61.296 87.9541 59.504ZM99.7628 74V58.512L96.2428 62.128L93.6508 59.408L100.371 52.656H104.339V74H99.7628ZM107.575 68.464C107.575 65.872 109.591 63.888 112.151 62.992C109.783 62.192 107.927 60.624 107.927 57.968C107.927 53.968 112.183 52.336 116.151 52.336C120.087 52.336 124.375 53.968 124.375 57.968C124.375 60.624 122.487 62.192 120.119 62.992C122.679 63.888 124.727 65.872 124.727 68.464C124.727 72.432 120.631 74.384 116.151 74.384C111.671 74.384 107.575 72.464 107.575 68.464ZM119.735 58.672C119.735 57.168 118.231 56.24 116.151 56.24C114.039 56.24 112.535 57.168 112.535 58.672C112.535 60.336 114.839 61.072 116.151 61.264C117.463 61.072 119.735 60.336 119.735 58.672ZM120.119 67.92C120.119 66.064 117.463 65.168 116.151 65.008C114.807 65.168 112.183 66.064 112.183 67.92C112.183 69.488 113.911 70.48 116.151 70.48C118.327 70.48 120.119 69.488 120.119 67.92Z" fill="#F7B6D5"/>
</svg>
