<svg width="173" height="131" viewBox="0 0 173 131" fill="none" xmlns="http://www.w3.org/2000/svg">
<path d="M24.9821 55.1172C24.9821 55.1172 10.4161 45.0881 5.62308 45.4991C-0.576916 46.0301 -1.7579 48.1261 2.8751 55.5761C8.4931 64.6101 21.1231 73.5442 24.9831 73.1102L24.9821 55.1172Z" fill="#EBAAC9"/>
<path d="M24.9821 78.0171C24.9821 78.0171 10.4161 67.988 5.62308 68.399C-0.576916 68.93 -1.7579 71.026 2.8751 78.476C8.4931 87.51 21.1231 96.444 24.9831 96.01L24.9821 78.0171Z" fill="#805B6D"/>
<path d="M148.062 55.1172C148.062 55.1172 162.628 45.0881 167.421 45.4991C173.621 46.0301 174.802 48.1261 170.169 55.5761C164.551 64.6101 151.921 73.5442 148.061 73.1102L148.062 55.1172Z" fill="#EBAAC9"/>
<path d="M148.062 78.0171C148.062 78.0171 162.628 67.988 167.421 68.399C173.621 68.93 174.802 71.026 170.169 78.476C164.551 87.51 151.921 96.444 148.061 96.01L148.062 78.0171Z" fill="#805B6D"/>
<path d="M142.218 93.3855C142.218 94.7868 141.85 96.1634 141.15 97.3777C140.451 98.5919 139.445 99.6012 138.233 100.304L90.374 128.077C89.1543 128.784 87.7692 129.157 86.359 129.157C84.9488 129.157 83.5637 128.784 82.344 128.077L34.485 100.304C33.273 99.6012 32.2669 98.5919 31.5676 97.3777C30.8682 96.1634 30.5001 94.7868 30.5 93.3855V37.7715C30.5001 36.3702 30.8682 34.9936 31.5676 33.7793C32.2669 32.565 33.273 31.5558 34.485 30.8525L82.344 3.08044C83.5637 2.37271 84.9488 2 86.359 2C87.7692 2 89.1543 2.37271 90.374 3.08044L138.233 30.8525C139.445 31.5558 140.451 32.565 141.15 33.7793C141.85 34.9936 142.218 36.3702 142.218 37.7715V93.3855Z" fill="#6B646A" stroke="#EBB9D1" stroke-width="3"/>
<path d="M51.7464 74L43.4904 52.656H48.6744L54.5944 69.072L60.4824 52.656H65.6664L57.4424 74H51.7464ZM67.6374 74V52.656H72.1814V74H67.6374ZM76.4186 74V52.656H86.4026C91.0426 52.656 93.5706 55.792 93.5706 59.536C93.5706 63.248 91.0106 66.352 86.4026 66.352H80.9626V74H76.4186ZM88.9306 59.504C88.9306 57.744 87.5866 56.56 85.7946 56.56H80.9626V62.448H85.7946C87.5866 62.448 88.9306 61.296 88.9306 59.504ZM100.739 74V58.512L97.2194 62.128L94.6274 59.408L101.347 52.656H105.315V74H100.739ZM111.304 74L118.952 56.656H108.2V52.656H124.232V55.824L116.296 74H111.304Z" fill="#F7B6D5"/>
</svg>
