<svg width="115" height="131" viewBox="0 0 115 131" fill="none" xmlns="http://www.w3.org/2000/svg">
<path d="M113.218 93.3857C113.218 94.787 112.85 96.1637 112.15 97.378C111.451 98.5922 110.445 99.6015 109.233 100.305L61.374 128.077C60.1542 128.785 58.7689 129.158 57.3585 129.158C55.9482 129.158 54.5629 128.785 53.343 128.077L5.48404 100.305C4.27203 99.6015 3.26598 98.5922 2.56662 97.378C1.86726 96.1637 1.49911 94.787 1.49902 93.3857V37.7718C1.49911 36.3705 1.86726 34.9938 2.56662 33.7796C3.26598 32.5653 4.27203 31.556 5.48404 30.8528L53.344 3.08075C54.5639 2.37283 55.9492 2 57.3595 2C58.7699 2 60.1552 2.37283 61.375 3.08075L109.234 30.8528C110.446 31.556 111.452 32.5653 112.151 33.7796C112.851 34.9938 113.219 36.3705 113.219 37.7718L113.218 93.3857Z" fill="#646B6B" stroke="#BF9E73" stroke-width="3"/>
<path d="M31.4661 74L23.2101 52.656H28.3941L34.3141 69.072L40.2021 52.656H45.3861L37.1621 74H31.4661ZM47.3571 74V52.656H51.9011V74H47.3571ZM56.1384 74V52.656H66.1224C70.7624 52.656 73.2904 55.792 73.2904 59.536C73.2904 63.248 70.7304 66.352 66.1224 66.352H60.6824V74H56.1384ZM68.6504 59.504C68.6504 57.744 67.3064 56.56 65.5144 56.56H60.6824V62.448H65.5144C67.3064 62.448 68.6504 61.296 68.6504 59.504ZM80.4591 74V58.512L76.9391 62.128L74.3471 59.408L81.0671 52.656H85.0351V74H80.4591Z" fill="#E7CAA5"/>
</svg>
