<svg width="32" height="32" viewBox="0 0 32 32" fill="none" xmlns="http://www.w3.org/2000/svg">
<path d="M17.9159 21.4574L22.528 20.7962C22.528 20.7962 25.0562 28.195 24.6824 28.8393C24.3086 29.4836 22.7721 28.6061 20.8427 27.3775C18.9133 26.1488 17.9159 21.4574 17.9159 21.4574Z" fill="#4F8188"/>
<path d="M13.7777 21.4574L9.16559 20.7962C9.16559 20.7962 6.63742 28.195 7.0112 28.8393C7.38497 29.4836 8.92153 28.6061 10.8509 27.3775C12.7803 26.1488 13.7777 21.4574 13.7777 21.4574Z" fill="#4F8188"/>
<path d="M4.61271 9.60007C4.61271 9.60007 1.91743 7.78428 1.03054 7.85867C-0.116698 7.95489 -0.335214 8.33422 0.52207 9.68315C1.56162 11.3189 3.89864 12.9363 4.61289 12.8579L4.61271 9.60007Z" fill="#8BDAE5"/>
<path d="M4.61271 13.6661C4.61271 13.6661 1.91743 11.8527 1.03054 11.9267C-0.116698 12.0228 -0.335214 12.4017 0.52207 13.7492C1.56162 15.3831 3.89864 16.9988 4.61289 16.9202L4.61271 13.6661Z" fill="#4F8188"/>
<path d="M4.61271 17.9039C4.61271 17.9039 1.91743 16.0905 1.03054 16.1645C-0.116698 16.2605 -0.335214 16.6395 0.52207 17.9869C1.56162 19.6208 3.89864 21.2364 4.61289 21.158L4.61271 17.9039Z" fill="#375256"/>
<path d="M27.3873 9.60007C27.3873 9.60007 30.0826 7.78428 30.9695 7.85867C32.1167 7.95489 32.3352 8.33422 31.4779 9.68315C30.4384 11.3189 28.1013 12.9363 27.3871 12.8579L27.3873 9.60007Z" fill="#8BDAE5"/>
<path d="M27.3873 13.6661C27.3873 13.6661 30.0826 11.8527 30.9695 11.9267C32.1167 12.0228 32.3352 12.4017 31.4779 13.7492C30.4384 15.3831 28.1013 16.9988 27.3871 16.9202L27.3873 13.6661Z" fill="#4F8188"/>
<path d="M27.3873 17.9039C27.3873 17.9039 30.0826 16.0905 30.9695 16.1645C32.1167 16.2605 32.3352 16.6395 31.4779 17.9869C30.4384 19.6208 28.1013 21.2364 27.3871 21.158L27.3873 17.9039Z" fill="#375256"/>
<path d="M26.305 20.7653C26.305 21.0247 26.2368 21.2795 26.1073 21.5043C25.9778 21.7291 25.7915 21.9158 25.567 22.0459L16.7113 27.1785C16.4857 27.3092 16.2297 27.3781 15.969 27.3781C15.7083 27.3781 15.4522 27.3092 15.2267 27.1785L6.37093 22.0459C6.14647 21.9159 5.96014 21.7291 5.83059 21.5043C5.70105 21.2796 5.63284 21.0247 5.63281 20.7653V10.4904C5.63281 10.231 5.701 9.97608 5.83055 9.75129C5.96009 9.52649 6.14645 9.33969 6.37093 9.2096L15.226 4.077C15.4515 3.94628 15.7076 3.87744 15.9682 3.87744C16.2289 3.87744 16.485 3.94628 16.7105 4.077L25.5663 9.2096C25.7907 9.33971 25.9771 9.52652 26.1066 9.75132C26.2361 9.97612 26.3043 10.231 26.3042 10.4904L26.305 20.7653Z" fill="#4C6E73"/>
<path fill-rule="evenodd" clip-rule="evenodd" d="M15.9685 4.15521C15.7567 4.15521 15.5486 4.21115 15.3654 4.31735L6.51034 9.44995C6.32794 9.55565 6.1765 9.70744 6.07124 9.89009C5.96599 10.0727 5.91058 10.2798 5.91058 10.4907V20.7655C5.91058 20.7654 5.91058 20.7655 5.91058 20.7655C5.91061 20.9762 5.96603 21.1833 6.07128 21.3659C6.17654 21.5486 6.32793 21.7003 6.51031 21.806L15.3661 26.9386C15.5493 27.0448 15.7574 27.1007 15.9692 27.1007C16.181 27.1007 16.389 27.0448 16.5723 26.9386L25.4281 21.806C25.6104 21.7003 25.7618 21.5486 25.867 21.3659C25.9722 21.1833 26.0276 20.9762 26.0276 20.7655C26.0276 20.7655 26.0276 20.7655 26.0276 20.7655L26.0269 10.4907C26.0269 10.2799 25.9715 10.0727 25.8663 9.89009C25.7611 9.70745 25.6097 9.55567 25.4273 9.44995L16.5716 4.31735C16.3883 4.21115 16.1803 4.15521 15.9685 4.15521ZM15.087 3.83707C15.3548 3.68185 15.6589 3.6001 15.9685 3.6001C16.278 3.6001 16.5821 3.68185 16.8499 3.83707L25.7057 8.96968C25.9722 9.12418 26.1935 9.34602 26.3473 9.61297C26.5011 9.87991 26.582 10.1826 26.582 10.4906C26.582 10.4906 26.582 10.4907 26.582 10.4906L26.5827 20.7655C26.5827 21.0735 26.5018 21.3762 26.348 21.6431C26.1942 21.91 25.973 22.1318 25.7064 22.2863L16.8507 27.4189C16.5828 27.5741 16.2788 27.6559 15.9692 27.6559C15.6596 27.6559 15.3556 27.5741 15.0877 27.4189L6.23199 22.2863C5.96544 22.1318 5.74417 21.91 5.59033 21.6431C5.4365 21.3762 5.3555 21.0736 5.35547 20.7655V10.4907C5.35546 10.1826 5.43644 9.87986 5.59028 9.61291C5.74411 9.34597 5.96539 9.12416 6.23196 8.96968C6.23195 8.96969 6.23197 8.96968 6.23196 8.96968L15.087 3.83707Z" fill="#8BDAE5"/>
<path d="M9.96518 17.2006L8.4375 13.2511H9.39674L10.4922 16.2887L11.5817 13.2511H12.5409L11.0192 17.2006H9.96518Z" fill="#8BDAE5"/>
<path d="M12.9056 17.2006V13.2511H13.7464V17.2006H12.9056Z" fill="#8BDAE5"/>
<path d="M14.5305 17.2006V13.2511H16.3779C17.2365 13.2511 17.7043 13.8314 17.7043 14.5242C17.7043 15.211 17.2306 15.7854 16.3779 15.7854H15.3713V17.2006H14.5305ZM16.8457 14.5183C16.8457 14.1926 16.597 13.9735 16.2654 13.9735H15.3713V15.063H16.2654C16.597 15.063 16.8457 14.8498 16.8457 14.5183Z" fill="#8BDAE5"/>
<path d="M19.0308 17.2006V14.3347L18.3794 15.0038L17.8998 14.5005L19.1433 13.2511H19.8775V17.2006H19.0308Z" fill="#8BDAE5"/>
<path d="M20.4704 15.2288C20.4704 14.2103 20.9737 13.1919 22.1047 13.1919C23.2297 13.1919 23.739 14.2103 23.739 15.2288C23.739 16.2473 23.2297 17.2716 22.1047 17.2716C20.9737 17.2716 20.4704 16.2473 20.4704 15.2288ZM22.8804 15.2288C22.8804 14.5005 22.6672 13.938 22.1047 13.938C21.5363 13.938 21.3231 14.5005 21.3231 15.2288C21.3231 15.9571 21.5363 16.5256 22.1047 16.5256C22.6672 16.5256 22.8804 15.9571 22.8804 15.2288Z" fill="#8BDAE5"/>
</svg>
