<svg width="173" height="131" viewBox="0 0 173 131" fill="none" xmlns="http://www.w3.org/2000/svg">
<path d="M24.9821 55.1171C24.9821 55.1171 10.4161 45.0881 5.62308 45.4991C-0.576916 46.0301 -1.7579 48.1261 2.8751 55.5761C8.4931 64.6101 21.1231 73.5441 24.9831 73.1101L24.9821 55.1171Z" fill="#EBAAC9"/>
<path d="M24.9821 78.0171C24.9821 78.0171 10.4161 67.988 5.62308 68.399C-0.576916 68.93 -1.7579 71.026 2.8751 78.476C8.4931 87.51 21.1231 96.444 24.9831 96.01L24.9821 78.0171Z" fill="#805B6D"/>
<path d="M148.062 55.1171C148.062 55.1171 162.628 45.0881 167.421 45.4991C173.621 46.0301 174.802 48.1261 170.169 55.5761C164.551 64.6101 151.921 73.5441 148.061 73.1101L148.062 55.1171Z" fill="#EBAAC9"/>
<path d="M148.062 78.0171C148.062 78.0171 162.628 67.988 167.421 68.399C173.621 68.93 174.802 71.026 170.169 78.476C164.551 87.51 151.921 96.444 148.061 96.01L148.062 78.0171Z" fill="#805B6D"/>
<path d="M142.218 93.3855C142.218 94.7868 141.85 96.1634 141.15 97.3777C140.451 98.5919 139.445 99.6012 138.233 100.304L90.374 128.077C89.1543 128.784 87.7692 129.157 86.359 129.157C84.9488 129.157 83.5637 128.784 82.344 128.077L34.485 100.304C33.273 99.6012 32.2669 98.5919 31.5676 97.3777C30.8682 96.1634 30.5001 94.7868 30.5 93.3855V37.7715C30.5001 36.3702 30.8682 34.9936 31.5676 33.7793C32.2669 32.565 33.273 31.5557 34.485 30.8525L82.344 3.08051C83.5637 2.37278 84.9488 2 86.359 2C87.7692 2 89.1543 2.37278 90.374 3.08051L138.233 30.8525C139.445 31.5557 140.451 32.565 141.15 33.7793C141.85 34.9936 142.218 36.3702 142.218 37.7715V93.3855Z" fill="#6B646A" stroke="#EBB9D1" stroke-width="3"/>
<path d="M50.7381 74L42.4821 52.656H47.6661L53.5861 69.072L59.4741 52.656H64.6581L56.4341 74H50.7381ZM66.6291 74V52.656H71.1731V74H66.6291ZM75.4103 74V52.656H85.3943C90.0343 52.656 92.5623 55.792 92.5623 59.536C92.5623 63.248 90.0023 66.352 85.3943 66.352H79.9543V74H75.4103ZM87.9223 59.504C87.9223 57.744 86.5783 56.56 84.7863 56.56H79.9543V62.448H84.7863C86.5783 62.448 87.9223 61.296 87.9223 59.504ZM99.7311 74V58.512L96.2111 62.128L93.6191 59.408L100.339 52.656H104.307V74H99.7311ZM107.511 63.376C107.511 56.912 111.159 52.336 117.463 52.336C120.055 52.336 122.231 53.232 123.767 54.544L121.719 57.968C120.567 56.88 119.351 56.272 117.463 56.272C114.231 56.272 112.119 59.056 112.119 62.448C112.119 62.608 112.119 62.768 112.151 62.896C113.143 61.456 115.287 60.176 117.623 60.176C121.463 60.176 124.887 62.512 124.887 67.056C124.887 71.216 121.591 74.384 116.727 74.384C110.231 74.384 107.511 69.392 107.511 63.376ZM120.279 67.248C120.279 64.944 118.391 63.952 116.311 63.952C114.711 63.952 113.175 64.752 112.151 66C112.343 68.048 113.495 70.416 116.503 70.416C118.967 70.416 120.279 68.752 120.279 67.248Z" fill="#F7B6D5"/>
</svg>
