<svg width="173" height="131" viewBox="0 0 173 131" fill="none" xmlns="http://www.w3.org/2000/svg">
<path d="M24.9821 33.132C24.9821 33.132 10.416 23.103 5.62305 23.514C-0.576954 24.045 -1.75788 26.141 2.87512 33.591C8.49312 42.625 21.123 51.559 24.983 51.125L24.9821 33.132Z" fill="#EACE60"/>
<path d="M24.9821 55.1171C24.9821 55.1171 10.416 45.0881 5.62305 45.4991C-0.576954 46.0301 -1.75788 48.1261 2.87512 55.5761C8.49312 64.6101 21.123 73.5441 24.983 73.1101L24.9821 55.1171Z" fill="#8B7C40"/>
<path d="M24.9821 78.017C24.9821 78.017 10.416 67.988 5.62305 68.399C-0.576954 68.93 -1.75788 71.026 2.87512 78.476C8.49312 87.51 21.123 96.444 24.983 96.01L24.9821 78.017Z" fill="#524822"/>
<path d="M148.062 33.132C148.062 33.132 162.628 23.103 167.421 23.514C173.621 24.045 174.802 26.141 170.169 33.591C164.551 42.625 151.921 51.559 148.061 51.125L148.062 33.132Z" fill="#EACE60"/>
<path d="M148.062 55.1171C148.062 55.1171 162.628 45.0881 167.421 45.4991C173.621 46.0301 174.802 48.1261 170.169 55.5761C164.551 64.6101 151.921 73.5441 148.061 73.1101L148.062 55.1171Z" fill="#8B7C40"/>
<path d="M148.062 78.017C148.062 78.017 162.628 67.988 167.421 68.399C173.621 68.93 174.802 71.026 170.169 78.476C164.551 87.51 151.921 96.444 148.061 96.01L148.062 78.017Z" fill="#524822"/>
<path d="M142.218 93.3855C142.218 94.7867 141.85 96.1634 141.15 97.3777C140.451 98.5919 139.445 99.6012 138.233 100.304L90.374 128.076C89.1543 128.784 87.7692 129.157 86.359 129.157C84.9488 129.157 83.5637 128.784 82.344 128.076L34.485 100.304C33.273 99.6012 32.267 98.5919 31.5676 97.3777C30.8683 96.1634 30.5001 94.7867 30.5 93.3855V37.7715C30.5001 36.3702 30.8683 34.9936 31.5676 33.7793C32.267 32.565 33.273 31.5557 34.485 30.8525L82.344 3.08047C83.5637 2.37275 84.9488 2 86.359 2C87.7692 2 89.1543 2.37275 90.374 3.08047L138.233 30.8525C139.445 31.5557 140.451 32.565 141.15 33.7793C141.85 34.9936 142.218 36.3702 142.218 37.7715V93.3855Z" fill="#50554C" stroke="#EDD060" stroke-width="3"/>
<path d="M50.7381 74L42.4821 52.656H47.6661L53.5861 69.072L59.4741 52.656H64.6581L56.4341 74H50.7381ZM66.6291 74V52.656H71.1731V74H66.6291ZM75.4103 74V52.656H85.3943C90.0343 52.656 92.5623 55.792 92.5623 59.536C92.5623 63.248 90.0023 66.352 85.3943 66.352H79.9543V74H75.4103ZM87.9223 59.504C87.9223 57.744 86.5783 56.56 84.7863 56.56H79.9543V62.448H84.7863C86.5783 62.448 87.9223 61.296 87.9223 59.504ZM99.7311 74V58.512L96.2111 62.128L93.6191 59.408L100.339 52.656H104.307V74H99.7311ZM108.567 72.144L110.583 68.752C111.735 69.808 112.951 70.384 114.839 70.384C118.263 70.384 120.183 67.472 120.183 64.24V63.792C119.159 65.232 117.015 66.544 114.679 66.544C110.839 66.544 107.383 64.176 107.383 59.632C107.383 55.472 110.711 52.304 115.575 52.304C122.039 52.304 124.759 57.296 124.759 63.344C124.759 69.776 121.143 74.352 114.839 74.352C112.247 74.352 110.071 73.488 108.567 72.144ZM120.119 60.72C119.959 58.672 118.807 56.24 115.767 56.24C113.335 56.24 112.023 57.936 112.023 59.44C112.023 61.712 113.911 62.704 115.959 62.704C117.559 62.704 119.127 61.968 120.119 60.72Z" fill="#EACE60"/>
</svg>
