<svg width="173" height="131" viewBox="0 0 173 131" fill="none" xmlns="http://www.w3.org/2000/svg">
<path d="M24.9821 33.132C24.9821 33.132 10.416 23.103 5.62305 23.514C-0.576954 24.045 -1.75788 26.141 2.87512 33.591C8.49312 42.625 21.123 51.5591 24.983 51.1251L24.9821 33.132Z" fill="#EACE60"/>
<path d="M24.9821 55.1172C24.9821 55.1172 10.416 45.0881 5.62305 45.4991C-0.576954 46.0301 -1.75788 48.1261 2.87512 55.5761C8.49312 64.6101 21.123 73.5442 24.983 73.1102L24.9821 55.1172Z" fill="#8B7C40"/>
<path d="M24.9821 78.0171C24.9821 78.0171 10.416 67.988 5.62305 68.399C-0.576954 68.93 -1.75788 71.026 2.87512 78.476C8.49312 87.51 21.123 96.444 24.983 96.01L24.9821 78.0171Z" fill="#524822"/>
<path d="M148.062 33.132C148.062 33.132 162.628 23.103 167.421 23.514C173.621 24.045 174.802 26.141 170.169 33.591C164.551 42.625 151.921 51.5591 148.061 51.1251L148.062 33.132Z" fill="#EACE60"/>
<path d="M148.062 55.1172C148.062 55.1172 162.628 45.0881 167.421 45.4991C173.621 46.0301 174.802 48.1261 170.169 55.5761C164.551 64.6101 151.921 73.5442 148.061 73.1102L148.062 55.1172Z" fill="#8B7C40"/>
<path d="M148.062 78.0171C148.062 78.0171 162.628 67.988 167.421 68.399C173.621 68.93 174.802 71.026 170.169 78.476C164.551 87.51 151.921 96.444 148.061 96.01L148.062 78.0171Z" fill="#524822"/>
<path d="M142.218 93.3855C142.218 94.7868 141.85 96.1634 141.15 97.3777C140.451 98.5919 139.445 99.6012 138.233 100.304L90.374 128.077C89.1543 128.784 87.7692 129.157 86.359 129.157C84.9488 129.157 83.5637 128.784 82.344 128.077L34.485 100.304C33.273 99.6012 32.267 98.5919 31.5676 97.3777C30.8683 96.1634 30.5001 94.7868 30.5 93.3855V37.7715C30.5001 36.3702 30.8683 34.9936 31.5676 33.7793C32.267 32.565 33.273 31.5558 34.485 30.8525L82.344 3.08044C83.5637 2.37271 84.9488 2 86.359 2C87.7692 2 89.1543 2.37271 90.374 3.08044L138.233 30.8525C139.445 31.5558 140.451 32.565 141.15 33.7793C141.85 34.9936 142.218 36.3702 142.218 37.7715V93.3855Z" fill="#50554C" stroke="#EDD060" stroke-width="3"/>
<path d="M47.8899 74L39.6339 52.656H44.8179L50.7379 69.072L56.6259 52.656H61.8099L53.5859 74H47.8899ZM63.7809 74V52.656H68.3249V74H63.7809ZM72.5622 74V52.656H82.5462C87.1862 52.656 89.7142 55.792 89.7142 59.536C89.7142 63.248 87.1542 66.352 82.5462 66.352H77.1062V74H72.5622ZM85.0742 59.504C85.0742 57.744 83.7302 56.56 81.9382 56.56H77.1062V62.448H81.9382C83.7302 62.448 85.0742 61.296 85.0742 59.504ZM91.9229 74V70.416C100.659 63.984 103.219 61.776 103.219 59.152C103.219 57.296 101.523 56.368 99.7309 56.368C97.3309 56.368 95.4749 57.328 94.0349 58.832L91.4429 55.824C93.5229 53.424 96.6909 52.336 99.6669 52.336C104.211 52.336 107.827 54.896 107.827 59.152C107.827 62.8 104.819 65.968 99.0909 70H107.987V74H91.9229ZM120.614 74V69.584H110.406V66L118.886 52.656H125.158V65.584H127.91V69.584H125.158V74H120.614ZM120.614 56.688L114.854 65.584H120.614V56.688Z" fill="#EACE60"/>
</svg>
