<svg width="173" height="139" viewBox="0 0 173 139" fill="none" xmlns="http://www.w3.org/2000/svg">
<path d="M96.876 97.0051L121.801 93.4321C121.801 93.4321 135.464 133.418 133.448 136.899C131.432 140.38 123.124 135.639 112.697 128.999C102.27 122.359 96.876 97.0051 96.876 97.0051Z" fill="#4F8188"/>
<path d="M74.5123 97.0051L49.5873 93.4321C49.5873 93.4321 35.9243 133.418 37.9403 136.899C39.9563 140.38 48.2643 135.639 58.6913 128.999C69.1183 122.359 74.5123 97.0051 74.5123 97.0051Z" fill="#4F8188"/>
<path d="M24.9821 32.925C24.9821 32.925 10.416 23.112 5.62305 23.514C-0.576954 24.034 -1.75788 26.084 2.87512 33.374C8.49312 42.214 21.123 50.955 24.983 50.531L24.9821 32.925Z" fill="#8BDAE5"/>
<path d="M24.9821 54.8992C24.9821 54.8992 10.416 45.0992 5.62305 45.4992C-0.576954 46.0182 -1.75788 48.0662 2.87512 55.3482C8.49312 64.1782 21.123 72.9092 24.983 72.4852L24.9821 54.8992Z" fill="#4F8188"/>
<path d="M24.9821 77.8011C24.9821 77.8011 10.416 68.0011 5.62305 68.4011C-0.576954 68.9201 -1.75788 70.9681 2.87512 78.2501C8.49312 87.0801 21.123 95.8111 24.983 95.3871L24.9821 77.8011Z" fill="#375256"/>
<path d="M148.062 32.925C148.062 32.925 162.628 23.112 167.421 23.514C173.621 24.034 174.802 26.084 170.169 33.374C164.551 42.214 151.921 50.955 148.061 50.531L148.062 32.925Z" fill="#8BDAE5"/>
<path d="M148.062 54.8992C148.062 54.8992 162.628 45.0992 167.421 45.4992C173.621 46.0182 174.802 48.0662 170.169 55.3482C164.551 64.1782 151.921 72.9092 148.061 72.4852L148.062 54.8992Z" fill="#4F8188"/>
<path d="M148.062 77.8011C148.062 77.8011 162.628 68.0011 167.421 68.4011C173.621 68.9201 174.802 70.9681 170.169 78.2501C164.551 87.0801 151.921 95.8111 148.061 95.3871L148.062 77.8011Z" fill="#375256"/>
<path d="M142.218 93.2665C142.218 94.6685 141.85 96.046 141.15 97.2609C140.45 98.4757 139.443 99.4853 138.23 100.188L90.371 127.926C89.1521 128.633 87.7683 129.005 86.3595 129.005C84.9507 129.005 83.5669 128.633 82.348 127.926L34.489 100.188C33.2758 99.4855 32.2687 98.4759 31.5686 97.261C30.8685 96.0461 30.5 94.6686 30.5 93.2665V37.7374C30.5 36.3353 30.8685 34.9577 31.5686 33.7429C32.2687 32.528 33.2758 31.5184 34.489 30.8154L82.344 3.07843C83.5629 2.37201 84.9467 2 86.3555 2C87.7643 2 89.1481 2.37201 90.3669 3.07843L138.226 30.8164C139.439 31.5195 140.446 32.5292 141.146 33.744C141.846 34.9589 142.214 36.3363 142.214 37.7384L142.218 93.2665Z" fill="#4C6E73" stroke="#8BDAE5" stroke-width="3"/>
<path d="M50.7464 74L42.4904 52.656H47.6744L53.5944 69.072L59.4824 52.656H64.6664L56.4424 74H50.7464ZM66.6374 74V52.656H71.1814V74H66.6374ZM75.4186 74V52.656H85.4026C90.0426 52.656 92.5706 55.792 92.5706 59.536C92.5706 63.248 90.0106 66.352 85.4026 66.352H79.9626V74H75.4186ZM87.9306 59.504C87.9306 57.744 86.5866 56.56 84.7946 56.56H79.9626V62.448H84.7946C86.5866 62.448 87.9306 61.296 87.9306 59.504ZM94.7794 74V70.416C103.515 63.984 106.075 61.776 106.075 59.152C106.075 57.296 104.379 56.368 102.587 56.368C100.187 56.368 98.3314 57.328 96.8914 58.832L94.2994 55.824C96.3794 53.424 99.5474 52.336 102.523 52.336C107.067 52.336 110.683 54.896 110.683 59.152C110.683 62.8 107.675 65.968 101.947 70H110.843V74H94.7794ZM113.583 68.464C113.583 65.872 115.599 63.888 118.159 62.992C115.791 62.192 113.935 60.624 113.935 57.968C113.935 53.968 118.191 52.336 122.159 52.336C126.095 52.336 130.383 53.968 130.383 57.968C130.383 60.624 128.495 62.192 126.127 62.992C128.687 63.888 130.735 65.872 130.735 68.464C130.735 72.432 126.639 74.384 122.159 74.384C117.679 74.384 113.583 72.464 113.583 68.464ZM125.743 58.672C125.743 57.168 124.239 56.24 122.159 56.24C120.047 56.24 118.543 57.168 118.543 58.672C118.543 60.336 120.847 61.072 122.159 61.264C123.471 61.072 125.743 60.336 125.743 58.672ZM126.127 67.92C126.127 66.064 123.471 65.168 122.159 65.008C120.815 65.168 118.191 66.064 118.191 67.92C118.191 69.488 119.919 70.48 122.159 70.48C124.335 70.48 126.127 69.488 126.127 67.92Z" fill="#8BDAE5"/>
</svg>
