<svg width="173" height="131" viewBox="0 0 173 131" fill="none" xmlns="http://www.w3.org/2000/svg">
<path d="M24.9821 33.132C24.9821 33.132 10.416 23.103 5.62305 23.514C-0.576954 24.045 -1.75788 26.141 2.87512 33.591C8.49312 42.625 21.123 51.5591 24.983 51.1251L24.9821 33.132Z" fill="#EACE60"/>
<path d="M24.9821 55.1172C24.9821 55.1172 10.416 45.0881 5.62305 45.4991C-0.576954 46.0301 -1.75788 48.1261 2.87512 55.5761C8.49312 64.6101 21.123 73.5442 24.983 73.1102L24.9821 55.1172Z" fill="#8B7C40"/>
<path d="M24.9821 78.0171C24.9821 78.0171 10.416 67.988 5.62305 68.399C-0.576954 68.93 -1.75788 71.026 2.87512 78.476C8.49312 87.51 21.123 96.444 24.983 96.01L24.9821 78.0171Z" fill="#524822"/>
<path d="M148.062 33.132C148.062 33.132 162.628 23.103 167.421 23.514C173.621 24.045 174.802 26.141 170.169 33.591C164.551 42.625 151.921 51.5591 148.061 51.1251L148.062 33.132Z" fill="#EACE60"/>
<path d="M148.062 55.1172C148.062 55.1172 162.628 45.0881 167.421 45.4991C173.621 46.0301 174.802 48.1261 170.169 55.5761C164.551 64.6101 151.921 73.5442 148.061 73.1102L148.062 55.1172Z" fill="#8B7C40"/>
<path d="M148.062 78.0171C148.062 78.0171 162.628 67.988 167.421 68.399C173.621 68.93 174.802 71.026 170.169 78.476C164.551 87.51 151.921 96.444 148.061 96.01L148.062 78.0171Z" fill="#524822"/>
<path d="M142.218 93.3855C142.218 94.7868 141.85 96.1634 141.15 97.3777C140.451 98.5919 139.445 99.6012 138.233 100.304L90.374 128.077C89.1543 128.784 87.7692 129.157 86.359 129.157C84.9488 129.157 83.5637 128.784 82.344 128.077L34.485 100.304C33.273 99.6012 32.267 98.5919 31.5676 97.3777C30.8683 96.1634 30.5001 94.7868 30.5 93.3855V37.7715C30.5001 36.3702 30.8683 34.9936 31.5676 33.7793C32.267 32.565 33.273 31.5558 34.485 30.8525L82.344 3.08044C83.5637 2.37271 84.9488 2 86.359 2C87.7692 2 89.1543 2.37271 90.374 3.08044L138.233 30.8525C139.445 31.5558 140.451 32.565 141.15 33.7793C141.85 34.9936 142.218 36.3702 142.218 37.7715V93.3855Z" fill="#50554C" stroke="#EDD060" stroke-width="3"/>
<path d="M48.0501 74L39.7941 52.656H44.9781L50.8981 69.072L56.7861 52.656H61.9701L53.7461 74H48.0501ZM63.9411 74V52.656H68.4851V74H63.9411ZM72.7224 74V52.656H82.7064C87.3464 52.656 89.8744 55.792 89.8744 59.536C89.8744 63.248 87.3144 66.352 82.7064 66.352H77.2664V74H72.7224ZM85.2344 59.504C85.2344 57.744 83.8904 56.56 82.0984 56.56H77.2664V62.448H82.0984C83.8904 62.448 85.2344 61.296 85.2344 59.504ZM92.0831 74V70.416C100.819 63.984 103.379 61.776 103.379 59.152C103.379 57.296 101.683 56.368 99.8911 56.368C97.4911 56.368 95.6351 57.328 94.1951 58.832L91.6031 55.824C93.6831 53.424 96.8511 52.336 99.8271 52.336C104.371 52.336 107.987 54.896 107.987 59.152C107.987 62.8 104.979 65.968 99.2511 70H108.147V74H92.0831ZM110.407 70.96L112.775 67.984C114.247 69.52 116.583 70.416 118.663 70.416C121.255 70.416 122.695 69.296 122.695 67.664C122.695 65.936 121.383 65.136 118.407 65.136C117.511 65.136 116.071 65.136 115.751 65.168V61.2C116.135 61.232 117.575 61.232 118.407 61.232C120.775 61.232 122.343 60.464 122.343 58.864C122.343 57.168 120.615 56.304 118.375 56.304C116.295 56.304 114.439 57.104 112.935 58.544L110.695 55.728C112.423 53.776 115.111 52.336 118.855 52.336C123.847 52.336 126.919 54.576 126.919 58.128C126.919 60.816 124.615 62.576 122.247 62.992C124.423 63.216 127.239 64.912 127.239 68.112C127.239 71.792 123.943 74.384 118.823 74.384C114.887 74.384 111.975 72.88 110.407 70.96Z" fill="#EACE60"/>
</svg>
