<svg width="32" height="28" viewBox="0 0 32 28" fill="none" xmlns="http://www.w3.org/2000/svg">
<path d="M27.5665 19.7252V7.38019C27.5665 6.93291 27.3876 6.57508 26.9403 6.30671L16.5633 0.134185C16.2055 -0.0447284 15.7582 -0.0447284 15.4004 0.134185L4.93394 6.30671C4.48665 6.48562 4.30774 6.93291 4.30774 7.38019V19.7252C4.30774 20.1725 4.48665 20.5303 4.93394 20.7987L15.4004 26.9712C15.7582 27.1502 16.2055 27.1502 16.5633 26.9712L27.0298 20.7987C27.3876 20.5303 27.5665 20.1725 27.5665 19.7252Z" fill="#FEC872"/>
<path d="M25.5984 18.5621V8.54294C25.5984 8.09565 25.4195 7.73782 24.9722 7.46945L16.5633 2.45987C16.2055 2.28096 15.7582 2.28096 15.4004 2.45987L6.90196 7.46945C6.54413 7.64837 6.27576 8.09565 6.27576 8.54294V18.5621C6.27576 19.0094 6.45467 19.3672 6.90196 19.6356L15.3109 24.6452C15.6687 24.8241 16.116 24.8241 16.4738 24.6452L24.8828 19.6356C25.3301 19.3672 25.5984 19.0094 25.5984 18.5621Z" fill="#E5C783"/>
<path d="M25.5984 18.7414V9.25894C25.5984 8.81166 25.3301 8.45383 24.9722 8.18546L20.0521 5.41229L19.0681 4.87555L16.4738 3.44424C16.116 3.26533 15.6687 3.26533 15.3109 3.44424L6.90196 8.18546C6.54413 8.36437 6.27576 8.81166 6.27576 9.25894V18.7414C6.27576 19.1887 6.54413 19.5465 6.90196 19.8149L15.3109 24.6455C15.6687 24.8244 16.116 24.8244 16.4738 24.6455L24.8828 19.8149C25.3301 19.6359 25.5984 19.1887 25.5984 18.7414Z" fill="#FFE399"/>
<path opacity="0.05" d="M4.30774 7.82764V19.9043C4.30774 20.3516 4.48665 20.7094 4.93394 20.8883L15.4004 26.9714C15.7582 27.1503 16.2055 27.1503 16.5633 26.9714L25.0617 22.0513L4.30774 7.82764Z" fill="#FF6D32"/>
<path opacity="0.12" d="M7.7071 4.69678L4.93394 6.307C4.57611 6.57537 4.30774 6.9332 4.30774 7.38048L15.9371 15.3421L19.9627 12.569L7.7071 4.69678Z" fill="white"/>
<path opacity="0.05" d="M27.5665 7.82764V19.9043C27.5665 20.3516 27.3876 20.7094 26.9403 20.8883L16.4738 26.9714C16.116 27.1503 15.6687 27.1503 15.3109 26.9714L6.8125 22.0513L27.5665 7.82764Z" fill="#FF6D32"/>
<path d="M11.7387 8.45757L13.6314 9.63062L15.5178 7.1756C15.5594 7.12129 15.6145 7.07702 15.6783 7.04648C15.7421 7.01593 15.8128 7 15.8846 7C15.9563 7 16.0271 7.01593 16.0909 7.04648C16.1547 7.07702 16.2097 7.12129 16.2514 7.1756L18.1378 9.63062L20.0305 8.45757C20.1021 8.41327 20.1859 8.38895 20.2719 8.3875C20.3579 8.38604 20.4426 8.40751 20.5159 8.44937C20.5893 8.49122 20.6481 8.55172 20.6857 8.6237C20.7232 8.69568 20.7377 8.77614 20.7276 8.85557L19.9872 14.707C19.9743 14.8089 19.9216 14.9029 19.8391 14.971C19.7567 15.0392 19.6501 15.0769 19.5397 15.0769H12.2294C12.119 15.0769 12.0125 15.0392 11.93 14.971C11.8475 14.9029 11.7948 14.8089 11.7819 14.707L11.0415 8.85515C11.0315 8.77575 11.0461 8.69535 11.0837 8.62344C11.1213 8.55153 11.1802 8.4911 11.2535 8.4493C11.3268 8.4075 11.4114 8.38607 11.4974 8.38753C11.5833 8.389 11.6671 8.4133 11.7387 8.45757ZM15.8846 12.5632C16.1236 12.5632 16.3529 12.475 16.5219 12.3178C16.6909 12.1607 16.7859 11.9476 16.7859 11.7254C16.7859 11.5031 16.6909 11.29 16.5219 11.1329C16.3529 10.9757 16.1236 10.8875 15.8846 10.8875C15.6455 10.8875 15.4163 10.9757 15.2473 11.1329C15.0782 11.29 14.9833 11.5031 14.9833 11.7254C14.9833 11.9476 15.0782 12.1607 15.2473 12.3178C15.4163 12.475 15.6455 12.5632 15.8846 12.5632Z" fill="url(#paint0_linear_6525_24636)"/>
<path opacity="0.8" d="M23.1236 8.12587C22.5671 8.00177 22.1302 7.57431 22.0036 7.03103C21.9924 6.98966 21.9382 6.98966 21.9284 7.03103C21.8018 7.57431 21.3635 8.00177 20.8084 8.12587C20.7652 8.13691 20.7652 8.1893 20.8084 8.20033C21.3649 8.32444 21.8018 8.7519 21.9284 9.29518C21.9396 9.33655 21.9938 9.33655 22.0036 9.29518C22.1302 8.7519 22.5685 8.32444 23.1236 8.20033C23.164 8.1893 23.164 8.13415 23.1236 8.12587ZM20.7458 10.3238C20.3103 10.2135 19.9652 9.87708 19.8525 9.451C19.8414 9.40963 19.7843 9.40963 19.7718 9.451C19.6591 9.87708 19.314 10.2135 18.8785 10.3238C18.8354 10.3349 18.8354 10.39 18.8785 10.4038C19.314 10.5141 19.6591 10.8506 19.7718 11.2767C19.7829 11.318 19.84 11.318 19.8525 11.2767C19.9652 10.8506 20.3103 10.5141 20.7458 10.4038C20.7889 10.39 20.7889 10.3349 20.7458 10.3238Z" fill="white"/>
<path d="M10.9612 16.8474H11.5083L12.3526 19.3545H12.3655L13.2098 16.8474H13.7569L12.6627 19.9231H12.0553L10.9612 16.8474Z" fill="#F19F21"/>
<path d="M14.0807 16.8474H14.5847V19.9231H14.0807V16.8474Z" fill="#F19F21"/>
<path d="M15.1871 16.8474H16.4622C17.2031 16.8474 17.5779 17.1619 17.5779 17.7908C17.5779 18.424 17.2031 18.7428 16.4536 18.7428H15.6911V19.9231H15.1871V16.8474ZM15.6911 17.2782V18.312H16.4234C16.6474 18.312 16.8111 18.269 16.9145 18.1914C17.0179 18.1096 17.0696 17.976 17.0696 17.7908C17.0696 17.6056 17.0136 17.4763 16.9102 17.3988C16.8068 17.317 16.6431 17.2782 16.4234 17.2782H15.6911Z" fill="#F19F21"/>
<path d="M19.048 16.7871C19.3452 16.7871 19.5907 16.8733 19.7846 17.0456C19.9741 17.2179 20.0689 17.4376 20.0689 17.7133C20.0689 17.9803 19.9655 18.2216 19.7673 18.4413C19.6467 18.5705 19.4313 18.7342 19.1298 18.9366C18.8153 19.1434 18.6258 19.3243 18.5569 19.4794H20.0732V19.9231H17.928C17.928 19.6086 18.027 19.3373 18.2338 19.1046C18.3458 18.9754 18.5827 18.7859 18.9403 18.5403C19.1384 18.4025 19.2763 18.2862 19.3624 18.1957C19.496 18.045 19.5649 17.8813 19.5649 17.709C19.5649 17.541 19.5175 17.416 19.4313 17.3342C19.3409 17.2523 19.2073 17.2136 19.0307 17.2136C18.8412 17.2136 18.699 17.2782 18.6043 17.4074C18.5095 17.528 18.4578 17.7133 18.4492 17.9545H17.9452C17.9495 17.6099 18.0486 17.3342 18.2467 17.1231C18.4492 16.8991 18.7163 16.7871 19.048 16.7871Z" fill="#F19F21"/>
<path opacity="0.8" d="M4.72069e-05 9.69238L4.30774 10.9847V16.1539C1.76072 15.3898 4.72069e-05 12.9025 4.72069e-05 10.0687V9.69238Z" fill="#F19F21"/>
<path opacity="0.8" d="M31.7692 9.69238L27.4615 10.9847V16.1539C30.0086 15.3898 31.7692 12.9025 31.7692 10.0687V9.69238Z" fill="#F19F21"/>
<defs>
<linearGradient id="paint0_linear_6525_24636" x1="15.8846" y1="7" x2="15.8846" y2="15.0769" gradientUnits="userSpaceOnUse">
<stop stop-color="#F19F21" stop-opacity="0.2"/>
<stop offset="1" stop-color="#F19F21"/>
</linearGradient>
</defs>
</svg>
