<svg width="115" height="131" viewBox="0 0 115 131" fill="none" xmlns="http://www.w3.org/2000/svg">
<path d="M113.218 93.3858C113.218 94.7872 112.85 96.1641 112.151 97.3785C111.451 98.593 110.445 99.6024 109.233 100.306L61.374 128.077C60.1542 128.785 58.7689 129.158 57.3585 129.158C55.9482 129.158 54.5629 128.785 53.343 128.077L5.48404 100.305C4.27188 99.6014 3.26574 98.592 2.56638 97.3775C1.86701 96.1631 1.49894 94.7862 1.49902 93.3847V37.7718C1.49911 36.3705 1.86726 34.9938 2.56662 33.7796C3.26598 32.5653 4.27203 31.556 5.48404 30.8528L53.344 3.08075C54.5639 2.37283 55.9492 2 57.3595 2C58.7699 2 60.1552 2.37283 61.375 3.08075L109.234 30.8528C110.446 31.556 111.452 32.5653 112.151 33.7796C112.851 34.9938 113.219 36.3705 113.219 37.7718L113.218 93.3858Z" fill="#646B6B" stroke="#BF9E73" stroke-width="3"/>
<path d="M28.4422 74L20.1862 52.656H25.3702L31.2902 69.072L37.1782 52.656H42.3622L34.1382 74H28.4422ZM44.3332 74V52.656H48.8772V74H44.3332ZM53.1144 74V52.656H63.0984C67.7384 52.656 70.2664 55.792 70.2664 59.536C70.2664 63.248 67.7064 66.352 63.0984 66.352H57.6584V74H53.1144ZM65.6264 59.504C65.6264 57.744 64.2824 56.56 62.4904 56.56H57.6584V62.448H62.4904C64.2824 62.448 65.6264 61.296 65.6264 59.504ZM72.4752 74V70.416C81.2112 63.984 83.7712 61.776 83.7712 59.152C83.7712 57.296 82.0752 56.368 80.2832 56.368C77.8832 56.368 76.0272 57.328 74.5872 58.832L71.9952 55.824C74.0752 53.424 77.2432 52.336 80.2192 52.336C84.7632 52.336 88.3792 54.896 88.3792 59.152C88.3792 62.8 85.3712 65.968 79.6432 70H88.5392V74H72.4752Z" fill="#E7CAA5"/>
</svg>
