<svg width="173" height="139" viewBox="0 0 173 139" fill="none" xmlns="http://www.w3.org/2000/svg">
<path d="M96.876 97.0051L121.801 93.4321C121.801 93.4321 135.464 133.417 133.444 136.899C131.424 140.381 123.12 135.639 112.693 128.999C102.266 122.359 96.876 97.0051 96.876 97.0051Z" fill="#4F8188"/>
<path d="M74.512 97.0051L49.587 93.4321C49.587 93.4321 35.924 133.417 37.944 136.899C39.964 140.381 48.268 135.639 58.695 128.999C69.122 122.359 74.512 97.0051 74.512 97.0051Z" fill="#4F8188"/>
<path d="M24.9821 32.925C24.9821 32.925 10.416 23.112 5.62305 23.514C-0.576954 24.034 -1.75788 26.084 2.87512 33.374C8.49312 42.214 21.123 50.955 24.983 50.531L24.9821 32.925Z" fill="#8BDAE5"/>
<path d="M24.9821 54.8992C24.9821 54.8992 10.416 45.0992 5.62305 45.4992C-0.576954 46.0182 -1.75788 48.0662 2.87512 55.3482C8.49312 64.1782 21.123 72.9102 24.983 72.4852L24.9821 54.8992Z" fill="#4F8188"/>
<path d="M24.9821 77.8011C24.9821 77.8011 10.416 68.0011 5.62305 68.4011C-0.576954 68.9201 -1.75788 70.9681 2.87512 78.2501C8.49312 87.0801 21.123 95.8111 24.983 95.3871L24.9821 77.8011Z" fill="#375256"/>
<path d="M148.062 32.925C148.062 32.925 162.628 23.112 167.421 23.514C173.621 24.034 174.802 26.084 170.169 33.374C164.551 42.214 151.921 50.955 148.061 50.531L148.062 32.925Z" fill="#8BDAE5"/>
<path d="M148.062 54.8992C148.062 54.8992 162.628 45.0992 167.421 45.4992C173.621 46.0182 174.802 48.0662 170.169 55.3482C164.551 64.1782 151.921 72.9102 148.061 72.4852L148.062 54.8992Z" fill="#4F8188"/>
<path d="M148.062 77.8011C148.062 77.8011 162.628 68.0011 167.421 68.4011C173.621 68.9201 174.802 70.9681 170.169 78.2501C164.551 87.0801 151.921 95.8111 148.061 95.3871L148.062 77.8011Z" fill="#375256"/>
<path d="M142.218 93.2664C142.218 94.6685 141.85 96.046 141.15 97.2609C140.45 98.4758 139.443 99.4853 138.23 100.188L90.371 127.926C89.1521 128.633 87.7683 129.005 86.3595 129.005C84.9507 129.005 83.5669 128.633 82.348 127.926L34.489 100.188C33.2758 99.4854 32.2687 98.476 31.5686 97.2611C30.8685 96.0462 30.5 94.6686 30.5 93.2664V37.7375C30.5 36.3353 30.8685 34.9578 31.5686 33.7429C32.2687 32.528 33.2758 31.5185 34.489 30.8155L82.344 3.07846C83.5629 2.37204 84.9467 2 86.3555 2C87.7643 2 89.1481 2.37204 90.3669 3.07846L138.226 30.8164C139.439 31.5196 140.446 32.5292 141.146 33.744C141.846 34.9589 142.214 36.3364 142.214 37.7384L142.218 93.2664Z" fill="#4C6E73" stroke="#8BDAE5" stroke-width="3"/>
<path d="M50.7142 74L42.4582 52.656H47.6422L53.5622 69.072L59.4502 52.656H64.6342L56.4102 74H50.7142ZM66.6052 74V52.656H71.1492V74H66.6052ZM75.3864 74V52.656H85.3704C90.0104 52.656 92.5384 55.792 92.5384 59.536C92.5384 63.248 89.9784 66.352 85.3704 66.352H79.9304V74H75.3864ZM87.8984 59.504C87.8984 57.744 86.5544 56.56 84.7624 56.56H79.9304V62.448H84.7624C86.5544 62.448 87.8984 61.296 87.8984 59.504ZM94.7472 74V70.416C103.483 63.984 106.043 61.776 106.043 59.152C106.043 57.296 104.347 56.368 102.555 56.368C100.155 56.368 98.2992 57.328 96.8592 58.832L94.2672 55.824C96.3472 53.424 99.5152 52.336 102.491 52.336C107.035 52.336 110.651 54.896 110.651 59.152C110.651 62.8 107.643 65.968 101.915 70H110.811V74H94.7472ZM113.519 63.376C113.519 56.912 117.167 52.336 123.471 52.336C126.063 52.336 128.239 53.232 129.775 54.544L127.727 57.968C126.575 56.88 125.359 56.272 123.471 56.272C120.239 56.272 118.127 59.056 118.127 62.448C118.127 62.608 118.127 62.768 118.159 62.896C119.151 61.456 121.295 60.176 123.631 60.176C127.471 60.176 130.895 62.512 130.895 67.056C130.895 71.216 127.599 74.384 122.735 74.384C116.239 74.384 113.519 69.392 113.519 63.376ZM126.287 67.248C126.287 64.944 124.399 63.952 122.319 63.952C120.719 63.952 119.183 64.752 118.159 66C118.351 68.048 119.503 70.416 122.511 70.416C124.975 70.416 126.287 68.752 126.287 67.248Z" fill="#8BDAE5"/>
</svg>
