<svg width="173" height="131" viewBox="0 0 173 131" fill="none" xmlns="http://www.w3.org/2000/svg">
<path d="M24.9821 33.132C24.9821 33.132 10.416 23.103 5.62305 23.514C-0.576954 24.045 -1.75788 26.141 2.87512 33.591C8.49312 42.625 21.123 51.559 24.983 51.125L24.9821 33.132Z" fill="#EACE60"/>
<path d="M24.9821 55.1171C24.9821 55.1171 10.416 45.0881 5.62305 45.4991C-0.576954 46.0301 -1.75788 48.1261 2.87512 55.5761C8.49312 64.6101 21.123 73.5441 24.983 73.1101L24.9821 55.1171Z" fill="#8B7C40"/>
<path d="M24.9821 78.0171C24.9821 78.0171 10.416 67.988 5.62305 68.399C-0.576954 68.93 -1.75788 71.026 2.87512 78.476C8.49312 87.51 21.123 96.444 24.983 96.01L24.9821 78.0171Z" fill="#524822"/>
<path d="M148.062 33.132C148.062 33.132 162.628 23.103 167.421 23.514C173.621 24.045 174.802 26.141 170.169 33.591C164.551 42.625 151.921 51.559 148.061 51.125L148.062 33.132Z" fill="#EACE60"/>
<path d="M148.062 55.1171C148.062 55.1171 162.628 45.0881 167.421 45.4991C173.621 46.0301 174.802 48.1261 170.169 55.5761C164.551 64.6101 151.921 73.5441 148.061 73.1101L148.062 55.1171Z" fill="#8B7C40"/>
<path d="M148.062 78.0171C148.062 78.0171 162.628 67.988 167.421 68.399C173.621 68.93 174.802 71.026 170.169 78.476C164.551 87.51 151.921 96.444 148.061 96.01L148.062 78.0171Z" fill="#524822"/>
<path d="M142.218 93.3855C142.218 94.7869 141.85 96.1638 141.151 97.3782C140.451 98.5927 139.445 99.6021 138.233 100.305L90.374 128.076C89.1543 128.784 87.7692 129.157 86.359 129.157C84.9488 129.157 83.5637 128.784 82.344 128.076L34.485 100.305C33.2728 99.6012 32.2666 98.5917 31.5673 97.3773C30.8679 96.1628 30.4999 94.7859 30.5 93.3845V37.7715C30.5001 36.3702 30.8683 34.9936 31.5676 33.7793C32.267 32.565 33.273 31.5557 34.485 30.8525L82.344 3.08051C83.5637 2.37278 84.9488 2 86.359 2C87.7692 2 89.1543 2.37278 90.374 3.08051L138.233 30.8525C139.445 31.5557 140.451 32.565 141.15 33.7793C141.85 34.9936 142.218 36.3702 142.218 37.7715V93.3855Z" fill="#50554C" stroke="#EDD060" stroke-width="3"/>
<path d="M50.866 74L42.61 52.656H47.794L53.714 69.072L59.602 52.656H64.786L56.562 74H50.866ZM66.757 74V52.656H71.301V74H66.757ZM75.5383 74V52.656H85.5223C90.1623 52.656 92.6903 55.792 92.6903 59.536C92.6903 63.248 90.1303 66.352 85.5223 66.352H80.0823V74H75.5383ZM88.0503 59.504C88.0503 57.744 86.7063 56.56 84.9143 56.56H80.0823V62.448H84.9143C86.7063 62.448 88.0503 61.296 88.0503 59.504ZM94.899 74V70.416C103.635 63.984 106.195 61.776 106.195 59.152C106.195 57.296 104.499 56.368 102.707 56.368C100.307 56.368 98.451 57.328 97.011 58.832L94.419 55.824C96.499 53.424 99.667 52.336 102.643 52.336C107.187 52.336 110.803 54.896 110.803 59.152C110.803 62.8 107.795 65.968 102.067 70H110.963V74H94.899ZM119.047 74V58.512L115.527 62.128L112.935 59.408L119.655 52.656H123.623V74H119.047Z" fill="#EACE60"/>
</svg>
