<svg width="173" height="139" viewBox="0 0 173 139" fill="none" xmlns="http://www.w3.org/2000/svg">
<path d="M96.876 97.0051L121.801 93.4321C121.801 93.4321 135.464 133.417 133.444 136.899C131.424 140.381 123.12 135.639 112.693 128.999C102.266 122.359 96.876 97.0051 96.876 97.0051Z" fill="#4F8188"/>
<path d="M74.512 97.0051L49.587 93.4321C49.587 93.4321 35.924 133.417 37.944 136.899C39.964 140.381 48.268 135.639 58.695 128.999C69.122 122.359 74.512 97.0051 74.512 97.0051Z" fill="#4F8188"/>
<path d="M24.9821 32.925C24.9821 32.925 10.416 23.112 5.62305 23.514C-0.576954 24.034 -1.75788 26.084 2.87512 33.374C8.49312 42.214 21.123 50.955 24.983 50.531L24.9821 32.925Z" fill="#8BDAE5"/>
<path d="M24.9821 54.8992C24.9821 54.8992 10.416 45.0992 5.62305 45.4992C-0.576954 46.0182 -1.75788 48.0662 2.87512 55.3482C8.49312 64.1782 21.123 72.9092 24.983 72.4852L24.9821 54.8992Z" fill="#4F8188"/>
<path d="M24.9821 77.8011C24.9821 77.8011 10.416 68.0011 5.62305 68.4011C-0.576954 68.9201 -1.75788 70.9681 2.87512 78.2501C8.49312 87.0801 21.123 95.8111 24.983 95.3871L24.9821 77.8011Z" fill="#375256"/>
<path d="M148.062 32.925C148.062 32.925 162.628 23.112 167.421 23.514C173.621 24.034 174.802 26.084 170.169 33.374C164.551 42.214 151.921 50.955 148.061 50.531L148.062 32.925Z" fill="#8BDAE5"/>
<path d="M148.062 54.8992C148.062 54.8992 162.628 45.0992 167.421 45.4992C173.621 46.0182 174.802 48.0662 170.169 55.3482C164.551 64.1782 151.921 72.9092 148.061 72.4852L148.062 54.8992Z" fill="#4F8188"/>
<path d="M148.062 77.8011C148.062 77.8011 162.628 68.0011 167.421 68.4011C173.621 68.9201 174.802 70.9681 170.169 78.2501C164.551 87.0801 151.921 95.8111 148.061 95.3871L148.062 77.8011Z" fill="#375256"/>
<path d="M142.218 93.2664C142.218 94.6685 141.85 96.046 141.15 97.2609C140.45 98.4757 139.443 99.4853 138.23 100.188L90.371 127.926C89.1521 128.633 87.7683 129.005 86.3595 129.005C84.9507 129.005 83.5669 128.633 82.348 127.926L34.489 100.188C33.2758 99.4854 32.2687 98.4759 31.5686 97.261C30.8685 96.0462 30.5 94.6686 30.5 93.2664V37.7374C30.5 36.3353 30.8685 34.9577 31.5686 33.7429C32.2687 32.528 33.2758 31.5184 34.489 30.8154L82.344 3.07843C83.5629 2.37201 84.9467 2 86.3555 2C87.7643 2 89.1481 2.37201 90.3669 3.07843L138.226 30.8164C139.439 31.5195 140.446 32.5292 141.146 33.744C141.846 34.9589 142.214 36.3363 142.214 37.7384L142.218 93.2664Z" fill="#4C6E73" stroke="#8BDAE5" stroke-width="3"/>
<path d="M51.722 74L43.466 52.656H48.65L54.57 69.072L60.458 52.656H65.642L57.418 74H51.722ZM67.613 74V52.656H72.157V74H67.613ZM76.3942 74V52.656H86.3782C91.0182 52.656 93.5462 55.792 93.5462 59.536C93.5462 63.248 90.9862 66.352 86.3782 66.352H80.9382V74H76.3942ZM88.9062 59.504C88.9062 57.744 87.5622 56.56 85.7702 56.56H80.9382V62.448H85.7702C87.5622 62.448 88.9062 61.296 88.9062 59.504ZM95.755 74V70.416C104.491 63.984 107.051 61.776 107.051 59.152C107.051 57.296 105.355 56.368 103.563 56.368C101.163 56.368 99.307 57.328 97.867 58.832L95.275 55.824C97.355 53.424 100.523 52.336 103.499 52.336C108.043 52.336 111.659 54.896 111.659 59.152C111.659 62.8 108.651 65.968 102.923 70H111.819V74H95.755ZM117.31 74L124.958 56.656H114.206V52.656H130.238V55.824L122.302 74H117.31Z" fill="#8BDAE5"/>
</svg>
