<svg width="173" height="131" viewBox="0 0 173 131" fill="none" xmlns="http://www.w3.org/2000/svg">
<path d="M24.9821 33.132C24.9821 33.132 10.416 23.103 5.62305 23.514C-0.576954 24.045 -1.75788 26.141 2.87512 33.591C8.49312 42.625 21.123 51.559 24.983 51.125L24.9821 33.132Z" fill="#EACE60"/>
<path d="M24.9821 55.1171C24.9821 55.1171 10.416 45.0881 5.62305 45.4991C-0.576954 46.0301 -1.75788 48.1261 2.87512 55.5761C8.49312 64.6101 21.123 73.5441 24.983 73.1101L24.9821 55.1171Z" fill="#8B7C40"/>
<path d="M24.9821 78.0171C24.9821 78.0171 10.416 67.988 5.62305 68.399C-0.576954 68.93 -1.75788 71.026 2.87512 78.476C8.49312 87.51 21.123 96.444 24.983 96.01L24.9821 78.0171Z" fill="#524822"/>
<path d="M148.062 33.132C148.062 33.132 162.628 23.103 167.421 23.514C173.621 24.045 174.802 26.141 170.169 33.591C164.551 42.625 151.921 51.559 148.061 51.125L148.062 33.132Z" fill="#EACE60"/>
<path d="M148.062 55.1171C148.062 55.1171 162.628 45.0881 167.421 45.4991C173.621 46.0301 174.802 48.1261 170.169 55.5761C164.551 64.6101 151.921 73.5441 148.061 73.1101L148.062 55.1171Z" fill="#8B7C40"/>
<path d="M148.062 78.0171C148.062 78.0171 162.628 67.988 167.421 68.399C173.621 68.93 174.802 71.026 170.169 78.476C164.551 87.51 151.921 96.444 148.061 96.01L148.062 78.0171Z" fill="#524822"/>
<path d="M142.218 93.3855C142.218 94.7869 141.85 96.1638 141.151 97.3782C140.451 98.5927 139.445 99.6021 138.233 100.305L90.374 128.076C89.1543 128.784 87.7692 129.157 86.359 129.157C84.9488 129.157 83.5637 128.784 82.344 128.076L34.485 100.305C33.2728 99.6012 32.2666 98.5917 31.5673 97.3773C30.8679 96.1628 30.4999 94.7859 30.5 93.3845V37.7715C30.5001 36.3702 30.8683 34.9936 31.5676 33.7793C32.267 32.565 33.273 31.5557 34.485 30.8525L82.344 3.08047C83.5637 2.37275 84.9488 2 86.359 2C87.7692 2 89.1543 2.37275 90.374 3.08047L138.233 30.8525C139.445 31.5557 140.451 32.565 141.15 33.7793C141.85 34.9936 142.218 36.3702 142.218 37.7715V93.3855Z" fill="#50554C" stroke="#EDD060" stroke-width="3"/>
<path d="M47.5223 74L39.2663 52.656H44.4503L50.3703 69.072L56.2583 52.656H61.4423L53.2183 74H47.5223ZM63.4133 74V52.656H67.9573V74H63.4133ZM72.1945 74V52.656H82.1785C86.8185 52.656 89.3465 55.792 89.3465 59.536C89.3465 63.248 86.7865 66.352 82.1785 66.352H76.7385V74H72.1945ZM84.7065 59.504C84.7065 57.744 83.3625 56.56 81.5705 56.56H76.7385V62.448H81.5705C83.3625 62.448 84.7065 61.296 84.7065 59.504ZM91.5553 74V70.416C100.291 63.984 102.851 61.776 102.851 59.152C102.851 57.296 101.155 56.368 99.3633 56.368C96.9633 56.368 95.1073 57.328 93.6673 58.832L91.0753 55.824C93.1553 53.424 96.3233 52.336 99.2993 52.336C103.843 52.336 107.459 54.896 107.459 59.152C107.459 62.8 104.451 65.968 98.7233 70H107.619V74H91.5553ZM110.327 63.344C110.327 57.84 113.047 52.336 119.159 52.336C125.239 52.336 127.991 57.84 127.991 63.344C127.991 68.848 125.239 74.384 119.159 74.384C113.047 74.384 110.327 68.848 110.327 63.344ZM123.351 63.344C123.351 59.408 122.199 56.368 119.159 56.368C116.087 56.368 114.935 59.408 114.935 63.344C114.935 67.28 116.087 70.352 119.159 70.352C122.199 70.352 123.351 67.28 123.351 63.344Z" fill="#EACE60"/>
</svg>
