<svg width="173" height="131" viewBox="0 0 173 131" fill="none" xmlns="http://www.w3.org/2000/svg">
<path d="M24.9821 33.132C24.9821 33.132 10.416 23.103 5.62305 23.514C-0.576954 24.045 -1.75788 26.141 2.87512 33.591C8.49312 42.625 21.123 51.559 24.983 51.125L24.9821 33.132Z" fill="#EACE60"/>
<path d="M24.9821 55.1171C24.9821 55.1171 10.416 45.0881 5.62305 45.4991C-0.576954 46.0301 -1.75788 48.1261 2.87512 55.5761C8.49312 64.6101 21.123 73.5441 24.983 73.1101L24.9821 55.1171Z" fill="#8B7C40"/>
<path d="M24.9821 78.0171C24.9821 78.0171 10.416 67.988 5.62305 68.399C-0.576954 68.93 -1.75788 71.026 2.87512 78.476C8.49312 87.51 21.123 96.444 24.983 96.01L24.9821 78.0171Z" fill="#524822"/>
<path d="M148.062 33.132C148.062 33.132 162.628 23.103 167.421 23.514C173.621 24.045 174.802 26.141 170.169 33.591C164.551 42.625 151.921 51.559 148.061 51.125L148.062 33.132Z" fill="#EACE60"/>
<path d="M148.062 55.1171C148.062 55.1171 162.628 45.0881 167.421 45.4991C173.621 46.0301 174.802 48.1261 170.169 55.5761C164.551 64.6101 151.921 73.5441 148.061 73.1101L148.062 55.1171Z" fill="#8B7C40"/>
<path d="M148.062 78.0171C148.062 78.0171 162.628 67.988 167.421 68.399C173.621 68.93 174.802 71.026 170.169 78.476C164.551 87.51 151.921 96.444 148.061 96.01L148.062 78.0171Z" fill="#524822"/>
<path d="M142.218 93.3855C142.218 94.7868 141.85 96.1634 141.15 97.3777C140.451 98.5919 139.445 99.6012 138.233 100.304L90.374 128.077C89.1543 128.784 87.7692 129.157 86.359 129.157C84.9488 129.157 83.5637 128.784 82.344 128.077L34.485 100.304C33.273 99.6012 32.267 98.5919 31.5676 97.3777C30.8683 96.1634 30.5001 94.7868 30.5 93.3855V37.7715C30.5001 36.3702 30.8683 34.9936 31.5676 33.7793C32.267 32.565 33.273 31.5557 34.485 30.8525L82.344 3.08051C83.5637 2.37278 84.9488 2 86.359 2C87.7692 2 89.1543 2.37278 90.374 3.08051L138.233 30.8525C139.445 31.5557 140.451 32.565 141.15 33.7793C141.85 34.9936 142.218 36.3702 142.218 37.7715V93.3855Z" fill="#50554C" stroke="#EDD060" stroke-width="3"/>
<path d="M47.8421 74L39.5861 52.656H44.7701L50.6901 69.072L56.5781 52.656H61.7621L53.5381 74H47.8421ZM63.7331 74V52.656H68.2771V74H63.7331ZM72.5143 74V52.656H82.4983C87.1383 52.656 89.6663 55.792 89.6663 59.536C89.6663 63.248 87.1063 66.352 82.4983 66.352H77.0583V74H72.5143ZM85.0263 59.504C85.0263 57.744 83.6823 56.56 81.8903 56.56H77.0583V62.448H81.8903C83.6823 62.448 85.0263 61.296 85.0263 59.504ZM91.8751 74V70.416C100.611 63.984 103.171 61.776 103.171 59.152C103.171 57.296 101.475 56.368 99.6831 56.368C97.2831 56.368 95.4271 57.328 93.9871 58.832L91.3951 55.824C93.4751 53.424 96.6431 52.336 99.6191 52.336C104.163 52.336 107.779 54.896 107.779 59.152C107.779 62.8 104.771 65.968 99.0431 70H107.939V74H91.8751ZM111.063 74V70.416C119.799 63.984 122.359 61.776 122.359 59.152C122.359 57.296 120.663 56.368 118.871 56.368C116.471 56.368 114.615 57.328 113.175 58.832L110.583 55.824C112.663 53.424 115.831 52.336 118.807 52.336C123.351 52.336 126.967 54.896 126.967 59.152C126.967 62.8 123.959 65.968 118.231 70H127.127V74H111.063Z" fill="#EACE60"/>
</svg>
