<svg width="173" height="139" viewBox="0 0 173 139" fill="none" xmlns="http://www.w3.org/2000/svg">
<path d="M96.876 97.0051L121.801 93.4321C121.801 93.4321 135.464 133.418 133.448 136.899C131.432 140.38 123.124 135.639 112.697 128.999C102.27 122.359 96.876 97.0051 96.876 97.0051Z" fill="#4F8188"/>
<path d="M74.5123 97.0051L49.5873 93.4321C49.5873 93.4321 35.9243 133.418 37.9403 136.899C39.9563 140.38 48.2643 135.639 58.6913 128.999C69.1183 122.359 74.5123 97.0051 74.5123 97.0051Z" fill="#4F8188"/>
<path d="M24.9821 32.925C24.9821 32.925 10.416 23.112 5.62305 23.514C-0.576954 24.034 -1.75788 26.084 2.87512 33.374C8.49312 42.214 21.123 50.9549 24.983 50.5309L24.9821 32.925Z" fill="#8BDAE5"/>
<path d="M24.9821 54.899C24.9821 54.899 10.416 45.099 5.62305 45.499C-0.576954 46.018 -1.75788 48.066 2.87512 55.348C8.49312 64.178 21.123 72.9091 24.983 72.4851L24.9821 54.899Z" fill="#4F8188"/>
<path d="M24.9821 77.801C24.9821 77.801 10.416 68.0011 5.62305 68.4011C-0.576954 68.9201 -1.75788 70.9681 2.87512 78.2501C8.49312 87.0801 21.123 95.811 24.983 95.387L24.9821 77.801Z" fill="#375256"/>
<path d="M148.062 32.925C148.062 32.925 162.628 23.112 167.421 23.514C173.621 24.034 174.802 26.084 170.169 33.374C164.551 42.214 151.921 50.9549 148.061 50.5309L148.062 32.925Z" fill="#8BDAE5"/>
<path d="M148.062 54.899C148.062 54.899 162.628 45.099 167.421 45.499C173.621 46.018 174.802 48.066 170.169 55.348C164.551 64.178 151.921 72.9091 148.061 72.4851L148.062 54.899Z" fill="#4F8188"/>
<path d="M148.062 77.801C148.062 77.801 162.628 68.0011 167.421 68.4011C173.621 68.9201 174.802 70.9681 170.169 78.2501C164.551 87.0801 151.921 95.811 148.061 95.387L148.062 77.801Z" fill="#375256"/>
<path d="M142.218 93.2675C142.218 94.6695 141.85 96.047 141.15 97.2618C140.45 98.4767 139.443 99.4863 138.23 100.189L90.371 127.927C89.1521 128.634 87.7683 129.006 86.3595 129.006C84.9507 129.006 83.5669 128.634 82.348 127.927L34.489 100.189C33.2758 99.4864 32.2687 98.4768 31.5686 97.262C30.8685 96.0471 30.5 94.6696 30.5 93.2675V37.7384C30.5 36.3362 30.8685 34.9586 31.5686 33.7438C32.2687 32.5289 33.2758 31.5194 34.489 30.8164L82.348 3.07837C83.5669 2.37194 84.9507 2 86.3595 2C87.7683 2 89.1521 2.37194 90.371 3.07837L138.23 30.8164C139.443 31.5195 140.45 32.5292 141.15 33.744C141.85 34.9589 142.218 36.3363 142.218 37.7384V93.2675Z" fill="#4C6E73" stroke="#8BDAE5" stroke-width="3"/>
<path d="M50.7142 74L42.4582 52.656H47.6422L53.5622 69.072L59.4502 52.656H64.6342L56.4102 74H50.7142ZM66.6052 74V52.656H71.1492V74H66.6052ZM75.3864 74V52.656H85.3704C90.0104 52.656 92.5384 55.792 92.5384 59.536C92.5384 63.248 89.9784 66.352 85.3704 66.352H79.9304V74H75.3864ZM87.8984 59.504C87.8984 57.744 86.5544 56.56 84.7624 56.56H79.9304V62.448H84.7624C86.5544 62.448 87.8984 61.296 87.8984 59.504ZM94.7472 74V70.416C103.483 63.984 106.043 61.776 106.043 59.152C106.043 57.296 104.347 56.368 102.555 56.368C100.155 56.368 98.2992 57.328 96.8592 58.832L94.2672 55.824C96.3472 53.424 99.5152 52.336 102.491 52.336C107.035 52.336 110.651 54.896 110.651 59.152C110.651 62.8 107.643 65.968 101.915 70H110.811V74H94.7472ZM114.575 72.144L116.591 68.752C117.743 69.808 118.959 70.384 120.847 70.384C124.271 70.384 126.191 67.472 126.191 64.24V63.792C125.167 65.232 123.023 66.544 120.687 66.544C116.847 66.544 113.391 64.176 113.391 59.632C113.391 55.472 116.719 52.304 121.583 52.304C128.047 52.304 130.767 57.296 130.767 63.344C130.767 69.776 127.151 74.352 120.847 74.352C118.255 74.352 116.079 73.488 114.575 72.144ZM126.127 60.72C125.967 58.672 124.815 56.24 121.775 56.24C119.343 56.24 118.031 57.936 118.031 59.44C118.031 61.712 119.919 62.704 121.967 62.704C123.567 62.704 125.135 61.968 126.127 60.72Z" fill="#8BDAE5"/>
</svg>
