<svg width="115" height="131" viewBox="0 0 115 131" fill="none" xmlns="http://www.w3.org/2000/svg">
<path d="M113.218 93.3858C113.218 94.7872 112.85 96.1641 112.151 97.3785C111.451 98.593 110.445 99.6024 109.233 100.306L61.374 128.077C60.1542 128.785 58.7689 129.158 57.3585 129.158C55.9482 129.158 54.5629 128.785 53.343 128.077L5.48404 100.305C4.27188 99.6015 3.26574 98.592 2.56638 97.3776C1.86701 96.1631 1.49894 94.7862 1.49902 93.3848V37.7718C1.49911 36.3705 1.86726 34.9939 2.56662 33.7796C3.26598 32.5653 4.27203 31.556 5.48404 30.8528L53.344 3.08081C54.5639 2.37289 55.9492 2 57.3595 2C58.7699 2 60.1552 2.37289 61.375 3.08081L109.234 30.8528C110.446 31.556 111.452 32.5653 112.151 33.7796C112.851 34.9939 113.219 36.3705 113.219 37.7718L113.218 93.3858Z" fill="#646B6B" stroke="#BF9E73" stroke-width="3"/>
<path d="M28.6502 74L20.3942 52.656H25.5782L31.4982 69.072L37.3862 52.656H42.5702L34.3462 74H28.6502ZM44.5412 74V52.656H49.0852V74H44.5412ZM53.3224 74V52.656H63.3064C67.9464 52.656 70.4745 55.792 70.4745 59.536C70.4745 63.248 67.9144 66.352 63.3064 66.352H57.8664V74H53.3224ZM65.8344 59.504C65.8344 57.744 64.4904 56.56 62.6985 56.56H57.8664V62.448H62.6985C64.4904 62.448 65.8344 61.296 65.8344 59.504ZM71.8192 70.96L74.1872 67.984C75.6592 69.52 77.9952 70.416 80.0752 70.416C82.6672 70.416 84.1072 69.296 84.1072 67.664C84.1072 65.936 82.7952 65.136 79.8192 65.136C78.9232 65.136 77.4832 65.136 77.1632 65.168V61.2C77.5472 61.232 78.9872 61.232 79.8192 61.232C82.1872 61.232 83.7552 60.464 83.7552 58.864C83.7552 57.168 82.0272 56.304 79.7872 56.304C77.7072 56.304 75.8512 57.104 74.3472 58.544L72.1072 55.728C73.8352 53.776 76.5232 52.336 80.2672 52.336C85.2592 52.336 88.3312 54.576 88.3312 58.128C88.3312 60.816 86.0272 62.576 83.6592 62.992C85.8352 63.216 88.6512 64.912 88.6512 68.112C88.6512 71.792 85.3552 74.384 80.2352 74.384C76.2992 74.384 73.3872 72.88 71.8192 70.96Z" fill="#E7CAA5"/>
</svg>
