<svg width="24" height="27" viewBox="0 0 24 27" fill="none" xmlns="http://www.w3.org/2000/svg">
<path d="M23.0826 18.7361C23.0826 19.0173 23.0088 19.2935 22.8685 19.5372C22.7281 19.7809 22.5263 19.9834 22.283 20.1246L12.6805 25.6966C12.4357 25.8387 12.1578 25.9135 11.8748 25.9135C11.5918 25.9135 11.3138 25.8387 11.0691 25.6966L1.4665 20.1244C1.22329 19.9832 1.02141 19.7807 0.881088 19.537C0.740765 19.2934 0.666914 19.0171 0.666931 18.7359V7.57752C0.666949 7.29636 0.740816 7.02015 0.881137 6.77651C1.02146 6.53288 1.22332 6.33037 1.4665 6.18927L11.0693 0.617004C11.314 0.474965 11.592 0.400146 11.875 0.400146C12.158 0.400146 12.4359 0.474965 12.6807 0.617004L22.2833 6.18927C22.5264 6.33037 22.7283 6.53288 22.8686 6.77651C23.0089 7.02015 23.0828 7.29636 23.0828 7.57752L23.0826 18.7361Z" fill="#646B6B"/>
<path fill-rule="evenodd" clip-rule="evenodd" d="M11.8246 0.984743C11.5946 0.984743 11.3688 1.04553 11.1699 1.16094L1.56714 6.73321C1.36955 6.84786 1.20554 7.0124 1.09152 7.21035C0.977516 7.4083 0.9175 7.63272 0.917482 7.86115C0.917482 7.86114 0.917482 7.86116 0.917482 7.86115V19.0195C0.917468 19.248 0.977472 19.4725 1.09148 19.6705C1.2055 19.8684 1.36952 20.033 1.56713 20.1477L11.1697 25.7199C11.3686 25.8353 11.5944 25.8961 11.8244 25.8961C12.0543 25.8961 12.2801 25.8354 12.479 25.7199L22.0816 20.1479C22.2792 20.0332 22.4432 19.8686 22.5572 19.6707C22.6712 19.4727 22.7312 19.2482 22.7312 19.0198L22.7314 7.86117C22.7314 7.86116 22.7314 7.86118 22.7314 7.86117C22.7314 7.63274 22.6714 7.4083 22.5574 7.21035C22.4434 7.0124 22.2794 6.84786 22.0818 6.73321L12.4792 1.16095C12.2803 1.04554 12.0545 0.984743 11.8246 0.984743ZM10.8678 0.640322C11.1585 0.471659 11.4885 0.382812 11.8246 0.382812C12.1606 0.382812 12.4907 0.471659 12.7813 0.640323C12.7813 0.640321 12.7813 0.640325 12.7813 0.640323L22.3839 6.21259C22.6727 6.38014 22.9124 6.62062 23.079 6.90994C23.2456 7.19925 23.3333 7.52726 23.3334 7.86113L23.3332 19.0197C23.3332 19.0197 23.3332 19.0197 23.3332 19.0197C23.3332 19.3536 23.2455 19.6817 23.0789 19.971C22.9122 20.2604 22.6725 20.5009 22.3837 20.6685L12.7811 26.2406C12.4905 26.4092 12.1604 26.4981 11.8244 26.4981C11.4883 26.4981 11.1583 26.4092 10.8676 26.2406C10.8676 26.2406 10.8676 26.2406 10.8676 26.2406L1.26504 20.6683C0.976224 20.5007 0.736497 20.2602 0.569863 19.9708C0.403229 19.6815 0.315532 19.3534 0.315552 19.0195V7.86115C0.315574 7.52728 0.40329 7.19925 0.569922 6.90994C0.736553 6.62062 0.976258 6.38014 1.26504 6.21258L10.8678 0.640322C10.8678 0.64032 10.8678 0.640324 10.8678 0.640322Z" fill="#BF9E73"/>
<path d="M5.94885 15.5389L4.06671 10.673H5.24852L6.59811 14.4154L7.94041 10.673H9.12221L7.24737 15.5389H5.94885Z" fill="#E7CAA5"/>
<path d="M9.57154 15.5389V10.673H10.6074V15.5389H9.57154Z" fill="#E7CAA5"/>
<path d="M11.5734 15.5389V10.673H13.8495C14.9073 10.673 15.4836 11.388 15.4836 12.2415C15.4836 13.0877 14.9 13.7953 13.8495 13.7953H12.6093V15.5389H11.5734ZM14.4258 12.2342C14.4258 11.833 14.1194 11.5631 13.7109 11.5631H12.6093V12.9053H13.7109C14.1194 12.9053 14.4258 12.6427 14.4258 12.2342Z" fill="#E7CAA5"/>
<path d="M15.7902 14.8458L16.33 14.1674C16.6656 14.5176 17.1981 14.7218 17.6723 14.7218C18.2632 14.7218 18.5915 14.4665 18.5915 14.0944C18.5915 13.7005 18.2924 13.5181 17.6139 13.5181C17.4097 13.5181 17.0814 13.5181 17.0084 13.5254V12.6208C17.096 12.6281 17.4243 12.6281 17.6139 12.6281C18.1538 12.6281 18.5112 12.4531 18.5112 12.0883C18.5112 11.7017 18.1173 11.5047 17.6066 11.5047C17.1325 11.5047 16.7093 11.6871 16.3665 12.0153L15.8558 11.3734C16.2497 10.9284 16.8625 10.6001 17.7161 10.6001C18.8541 10.6001 19.5544 11.1108 19.5544 11.9205C19.5544 12.5333 19.0292 12.9345 18.4893 13.0294C18.9854 13.0804 19.6274 13.4671 19.6274 14.1966C19.6274 15.0355 18.876 15.6264 17.7088 15.6264C16.8115 15.6264 16.1476 15.2835 15.7902 14.8458Z" fill="#E7CAA5"/>
</svg>
