<svg width="32" height="32" viewBox="0 0 32 32" fill="none" xmlns="http://www.w3.org/2000/svg">
<path d="M25.6064 20.6894C25.6064 20.9451 25.5392 21.1964 25.4116 21.4179C25.284 21.6395 25.1005 21.8237 24.8793 21.952L16.1472 27.019C15.9246 27.1482 15.6718 27.2162 15.4145 27.2162C15.1572 27.2162 14.9044 27.1482 14.6819 27.019L5.94974 21.9519C5.72858 21.8235 5.545 21.6393 5.4174 21.4178C5.2898 21.1962 5.22264 20.945 5.22266 20.6893V10.5424C5.22267 10.2867 5.28984 10.0355 5.41744 9.81398C5.54505 9.59243 5.72861 9.40828 5.94974 9.27997L14.682 4.21282C14.9046 4.08366 15.1574 4.01562 15.4147 4.01562C15.672 4.01562 15.9248 4.08366 16.1473 4.21282L24.8795 9.27997C25.1006 9.40828 25.2842 9.59243 25.4118 9.81398C25.5394 10.0355 25.6065 10.2867 25.6066 10.5424L25.6064 20.6894Z" fill="#646B6B"/>
<path fill-rule="evenodd" clip-rule="evenodd" d="M15.3681 4.54737C15.159 4.54737 14.9536 4.60264 14.7728 4.70759L6.04047 9.77474C5.8608 9.87899 5.71165 10.0286 5.60798 10.2086C5.5043 10.3886 5.44973 10.5927 5.44971 10.8004C5.44971 10.8004 5.44971 10.8004 5.44971 10.8004V20.9473C5.4497 21.1551 5.50426 21.3592 5.60794 21.5392C5.71162 21.7193 5.86077 21.8689 6.04047 21.9732L14.7726 27.0403C14.9534 27.1453 15.1588 27.2006 15.3679 27.2006C15.577 27.2006 15.7823 27.1453 15.9632 27.0403L24.6953 21.9734C24.875 21.8691 25.0242 21.7195 25.1278 21.5394C25.2315 21.3594 25.2861 21.1553 25.2861 20.9475L25.2862 10.8005C25.2862 10.8004 25.2862 10.8005 25.2862 10.8005C25.2862 10.5927 25.2316 10.3886 25.128 10.2086C25.0243 10.0286 24.8752 9.879 24.6955 9.77474L15.9634 4.7076C15.7825 4.60265 15.5771 4.54737 15.3681 4.54737ZM14.4981 4.23417C14.7623 4.08079 15.0625 4 15.3681 4C15.6736 4 15.9738 4.08079 16.2381 4.23417C16.2381 4.23417 16.2381 4.23417 16.2381 4.23417L24.9702 9.30131C25.2328 9.45368 25.4508 9.67236 25.6023 9.93544C25.7538 10.1985 25.8336 10.4968 25.8336 10.8004L25.8334 20.9475C25.8334 20.9475 25.8334 20.9475 25.8334 20.9475C25.8334 21.2511 25.7537 21.5494 25.6022 21.8126C25.4506 22.0757 25.2326 22.2944 24.97 22.4468L16.2379 27.5138C15.9736 27.6671 15.6735 27.7479 15.3679 27.7479C15.0623 27.7479 14.7622 27.6671 14.4979 27.5138C14.4979 27.5138 14.4979 27.5138 14.4979 27.5138L5.76576 22.4466C5.50313 22.2942 5.28513 22.0755 5.1336 21.8124C4.98207 21.5493 4.90233 21.2509 4.90234 20.9473V10.8004C4.90236 10.4968 4.98213 10.1985 5.13366 9.93544C5.28518 9.67235 5.50316 9.45368 5.76576 9.3013L14.4981 4.23417C14.4981 4.23416 14.4981 4.23417 14.4981 4.23417Z" fill="#BF9E73"/>
<path d="M10.5955 17.3405L8.9375 13.054H9.97859L11.1675 16.3508L12.35 13.054H13.3911L11.7395 17.3405H10.5955Z" fill="#E7CAA5"/>
<path d="M13.7869 17.3405V13.054H14.6995V17.3405H13.7869Z" fill="#E7CAA5"/>
<path d="M15.5504 17.3405V13.054H17.5555C18.4873 13.054 18.995 13.6838 18.995 14.4357C18.995 15.1812 18.4809 15.8046 17.5555 15.8046H16.463V17.3405H15.5504ZM18.0632 14.4293C18.0632 14.0758 17.7933 13.838 17.4334 13.838H16.463V15.0205H17.4334C17.7933 15.0205 18.0632 14.7892 18.0632 14.4293Z" fill="#E7CAA5"/>
<path d="M19.2651 16.73L19.7406 16.1323C20.0363 16.4408 20.5054 16.6207 20.9231 16.6207C21.4437 16.6207 21.7329 16.3958 21.7329 16.068C21.7329 15.721 21.4694 15.5603 20.8717 15.5603C20.6918 15.5603 20.4026 15.5603 20.3383 15.5668V14.7699C20.4154 14.7763 20.7046 14.7763 20.8717 14.7763C21.3473 14.7763 21.6622 14.6221 21.6622 14.3008C21.6622 13.9601 21.3151 13.7866 20.8653 13.7866C20.4476 13.7866 20.0748 13.9473 19.7728 14.2365L19.3229 13.671C19.6699 13.2789 20.2098 12.9897 20.9617 12.9897C21.9642 12.9897 22.5811 13.4396 22.5811 14.1529C22.5811 14.6928 22.1184 15.0462 21.6429 15.1298C22.0799 15.1748 22.6454 15.5154 22.6454 16.158C22.6454 16.8971 21.9835 17.4176 20.9552 17.4176C20.1648 17.4176 19.58 17.1156 19.2651 16.73Z" fill="#E7CAA5"/>
</svg>
