<svg width="32" height="28" viewBox="0 0 32 28" fill="none" xmlns="http://www.w3.org/2000/svg">
<path d="M27.7668 19.7252V7.38019C27.7668 6.93291 27.5866 6.57508 27.1361 6.30671L16.6837 0.134185C16.3233 -0.0447284 15.8728 -0.0447284 15.5123 0.134185L4.96986 6.30671C4.51932 6.48562 4.33911 6.93291 4.33911 7.38019V19.7252C4.33911 20.1725 4.51932 20.5303 4.96986 20.7987L15.5123 26.9712C15.8728 27.1502 16.3233 27.1502 16.6837 26.9712L27.2262 20.7987C27.5866 20.5303 27.7668 20.1725 27.7668 19.7252Z" fill="#FEC872"/>
<path d="M25.7843 18.5622V8.54306C25.7843 8.09577 25.6041 7.73795 25.1536 7.46957L16.6836 2.45999C16.3231 2.28108 15.8726 2.28108 15.5122 2.45999L6.95204 7.46957C6.59161 7.64849 6.32129 8.09577 6.32129 8.54306V18.5622C6.32129 19.0095 6.5015 19.3673 6.95204 19.6357L15.4221 24.6453C15.7825 24.8242 16.233 24.8242 16.5935 24.6453L25.0635 19.6357C25.514 19.3673 25.7843 19.0095 25.7843 18.5622Z" fill="#E5C783"/>
<path d="M25.7843 18.7412V9.25882C25.7843 8.81153 25.514 8.45371 25.1536 8.18534L20.1977 5.41217L19.2065 4.87543L16.5935 3.44412C16.233 3.26521 15.7825 3.26521 15.4221 3.44412L6.95204 8.18534C6.59161 8.36425 6.32129 8.81153 6.32129 9.25882V18.7412C6.32129 19.1885 6.59161 19.5464 6.95204 19.8147L15.4221 24.6454C15.7825 24.8243 16.233 24.8243 16.5935 24.6454L25.0635 19.8147C25.514 19.6358 25.7843 19.1885 25.7843 18.7412Z" fill="#FFE399"/>
<path opacity="0.05" d="M4.33911 7.82739V19.9041C4.33911 20.3514 4.51932 20.7092 4.96986 20.8881L15.5123 26.9712C15.8728 27.1501 16.3233 27.1501 16.6837 26.9712L25.2439 22.051L4.33911 7.82739Z" fill="#FF6D32"/>
<path opacity="0.12" d="M7.76317 4.69653L4.96986 6.30676C4.60943 6.57513 4.33911 6.93295 4.33911 7.38024L16.053 15.3419L20.1078 12.5687L7.76317 4.69653Z" fill="white"/>
<path opacity="0.05" d="M27.7668 7.82739V19.9041C27.7668 20.3514 27.5866 20.7092 27.1361 20.8881L16.5936 26.9712C16.2332 27.1501 15.7826 27.1501 15.4222 26.9712L6.86206 22.051L27.7668 7.82739Z" fill="#FF6D32"/>
<path d="M11.7851 6.45757L13.6916 7.63062L15.5917 5.1756C15.6337 5.12129 15.6891 5.07702 15.7534 5.04648C15.8176 5.01593 15.8889 5 15.9612 5C16.0334 5 16.1047 5.01593 16.169 5.04648C16.2332 5.07702 16.2887 5.12129 16.3306 5.1756L18.2307 7.63062L20.1372 6.45757C20.2093 6.41327 20.2937 6.38895 20.3804 6.3875C20.467 6.38604 20.5523 6.40751 20.6262 6.44937C20.7 6.49122 20.7593 6.55172 20.7971 6.6237C20.8349 6.69568 20.8496 6.77614 20.8394 6.85557L20.0936 10.707C20.0806 10.8089 20.0275 10.9029 19.9444 10.971C19.8614 11.0392 19.7541 11.0769 19.6429 11.0769H12.2794C12.1683 11.0769 12.061 11.0392 11.9779 10.971C11.8948 10.9029 11.8417 10.8089 11.8287 10.707L11.0829 6.85515C11.0728 6.77575 11.0876 6.69535 11.1254 6.62344C11.1632 6.55153 11.2226 6.4911 11.2964 6.4493C11.3702 6.4075 11.4555 6.38607 11.5421 6.38753C11.6287 6.389 11.713 6.4133 11.7851 6.45757ZM15.9612 9.56325C16.2019 9.56325 16.4328 9.47497 16.6031 9.31783C16.7733 9.1607 16.869 8.94758 16.869 8.72535C16.869 8.50313 16.7733 8.29001 16.6031 8.13287C16.4328 7.97574 16.2019 7.88746 15.9612 7.88746C15.7204 7.88746 15.4895 7.97574 15.3192 8.13287C15.149 8.29001 15.0533 8.50313 15.0533 8.72535C15.0533 8.94758 15.149 9.1607 15.3192 9.31783C15.4895 9.47497 15.7204 9.56325 15.9612 9.56325Z" fill="url(#paint0_linear_8344_15266)"/>
<path opacity="0.8" d="M22.1385 6.78409C21.7481 6.69766 21.4416 6.39997 21.3528 6.02161C21.345 5.9928 21.3069 5.9928 21.3001 6.02161C21.2113 6.39997 20.9038 6.69766 20.5144 6.78409C20.4841 6.79177 20.4841 6.82827 20.5144 6.83595C20.9048 6.92238 21.2113 7.22007 21.3001 7.59843C21.3079 7.62724 21.346 7.62724 21.3528 7.59843C21.4416 7.22007 21.7491 6.92238 22.1385 6.83595C22.1668 6.82827 22.1668 6.78985 22.1385 6.78409ZM20.4705 8.31482C20.165 8.238 19.9229 8.00368 19.8439 7.70695C19.836 7.67814 19.796 7.67814 19.7872 7.70695C19.7082 8.00368 19.4661 8.238 19.1606 8.31482C19.1304 8.3225 19.1304 8.36092 19.1606 8.37052C19.4661 8.44734 19.7082 8.68166 19.7872 8.97839C19.7951 9.0072 19.8351 9.0072 19.8439 8.97839C19.9229 8.68166 20.165 8.44734 20.4705 8.37052C20.5007 8.36092 20.5007 8.3225 20.4705 8.31482Z" fill="white"/>
<path d="M8.05811 14.1132H9.02025L10.5051 18.8194H10.5279L12.0127 14.1132H12.9749L11.0506 19.8868H9.9824L8.05811 14.1132Z" fill="#A26301"/>
<path d="M13.5445 14.1132H14.4308V19.8868H13.5445V14.1132Z" fill="#A26301"/>
<path d="M15.4902 14.1132H17.7327C19.0358 14.1132 19.6949 14.7035 19.6949 15.8841C19.6949 17.0728 19.0358 17.6712 17.7176 17.6712H16.3766V19.8868H15.4902V14.1132ZM16.3766 14.9218V16.8625H17.6645C18.0585 16.8625 18.3464 16.7817 18.5282 16.6361C18.71 16.4825 18.8009 16.2318 18.8009 15.8841C18.8009 15.5364 18.7024 15.2938 18.5206 15.1482C18.3388 14.9946 18.0509 14.9218 17.6645 14.9218H16.3766Z" fill="#A26301"/>
<path d="M22.25 14C22.7955 14 23.2425 14.1375 23.5758 14.4205C23.9016 14.7035 24.0683 15.0916 24.0683 15.593C24.0683 16.2237 23.7652 16.6442 23.1667 16.8544C23.4849 16.9596 23.7349 17.1132 23.9016 17.3235C24.0834 17.5418 24.1743 17.8248 24.1743 18.1644C24.1743 18.6981 24.0001 19.1348 23.6516 19.4744C23.2879 19.8221 22.8107 20 22.2197 20C21.6591 20 21.2046 19.8464 20.8636 19.5391C20.4848 19.1995 20.2727 18.6981 20.2273 18.0512H21.1288C21.144 18.4232 21.25 18.7143 21.4621 18.9164C21.6515 19.1024 21.9015 19.1995 22.2122 19.1995C22.5531 19.1995 22.8258 19.0943 23.0228 18.8922C23.197 18.7062 23.2879 18.4798 23.2879 18.2049C23.2879 17.8733 23.1895 17.6307 23.0076 17.4771C22.8258 17.3154 22.5607 17.2426 22.2122 17.2426H21.8334V16.531H22.2122C22.5303 16.531 22.7728 16.4582 22.9394 16.3127C23.0985 16.1671 23.1819 15.9488 23.1819 15.6658C23.1819 15.3827 23.1061 15.1725 22.9622 15.027C22.8031 14.8814 22.5682 14.8086 22.2576 14.8086C21.9394 14.8086 21.697 14.8895 21.5227 15.0593C21.3409 15.2291 21.2349 15.4879 21.2046 15.8356H20.3333C20.3788 15.2534 20.5758 14.8005 20.9394 14.4771C21.2803 14.1536 21.7197 14 22.25 14Z" fill="#A26301"/>
<path opacity="0.8" d="M0.000128269 9.69232L4.33911 10.9846V16.1539C1.77359 15.3898 0.000128269 12.9025 0.000128269 10.0687V9.69232Z" fill="#F19F21"/>
<path opacity="0.8" d="M32.0001 9.69232L27.6611 10.9846V16.1539C30.2267 15.3898 32.0001 12.9025 32.0001 10.0687V9.69232Z" fill="#F19F21"/>
<defs>
<linearGradient id="paint0_linear_8344_15266" x1="15.9612" y1="5" x2="15.9612" y2="13.0769" gradientUnits="userSpaceOnUse">
<stop stop-color="#F19F21" stop-opacity="0.2"/>
<stop offset="1" stop-color="#F19F21"/>
</linearGradient>
</defs>
</svg>
