<svg width="59" height="52" viewBox="0 0 59 52" fill="none" xmlns="http://www.w3.org/2000/svg">
<path d="M51.1949 36.6326V13.7061C51.1949 12.8754 50.8626 12.2109 50.0319 11.7125L30.7604 0.249201C30.0958 -0.0830671 29.2652 -0.0830671 28.6006 0.249201L9.16294 11.7125C8.33227 12.0447 8 12.8754 8 13.7061V36.6326C8 37.4633 8.33227 38.1278 9.16294 38.6262L28.6006 50.0895C29.2652 50.4217 30.0958 50.4217 30.7604 50.0895L50.1981 38.6262C50.8626 38.1278 51.1949 37.4633 51.1949 36.6326Z" fill="#FFD991"/>
<path d="M47.5399 34.4728V15.8658C47.5399 15.0351 47.2076 14.3706 46.377 13.8722L30.7603 4.56866C30.0958 4.23639 29.2651 4.23639 28.6006 4.56866L12.8178 13.8722C12.1533 14.2044 11.6549 15.0351 11.6549 15.8658V34.4728C11.6549 35.3035 11.9872 35.968 12.8178 36.4664L28.4345 45.7699C29.099 46.1022 29.9297 46.1022 30.5942 45.7699L46.2108 36.4664C47.0415 35.968 47.5399 35.3035 47.5399 34.4728Z" fill="#E5C783"/>
<path d="M47.5399 34.8051V17.1949C47.5399 16.3642 47.0415 15.6997 46.377 15.2013L37.2396 10.0511L35.4121 9.05432L30.5942 6.39617C29.9297 6.06391 29.099 6.06391 28.4345 6.39617L12.8178 15.2013C12.1533 15.5336 11.6549 16.3642 11.6549 17.1949V34.8051C11.6549 35.6358 12.1533 36.3003 12.8178 36.7987L28.4345 45.77C29.099 46.1022 29.9297 46.1022 30.5942 45.77L46.2108 36.7987C47.0415 36.4665 47.5399 35.6358 47.5399 34.8051Z" fill="#FFE7B1"/>
<path opacity="0.05" d="M8 14.5367V36.9649C8 37.7955 8.33227 38.4601 9.16294 38.7923L28.6006 50.0895C29.2652 50.4217 30.0958 50.4217 30.7604 50.0895L46.5431 40.9521L8 14.5367Z" fill="#F19F21"/>
<path opacity="0.12" d="M14.3131 8.72205L9.16294 11.7125C8.4984 12.2109 8 12.8754 8 13.7061L29.5974 28.492L37.0735 23.3419L14.3131 8.72205Z" fill="white"/>
<path opacity="0.05" d="M51.1949 14.5367V36.9649C51.1949 37.7955 50.8626 38.4601 50.0319 38.7923L30.5942 50.0895C29.9297 50.4217 29.099 50.4217 28.4345 50.0895L12.6517 40.9521L51.1949 14.5367Z" fill="#F19F21"/>
<path d="M21.8004 15.7069L25.3154 17.8854L28.8187 13.3261C28.8961 13.2252 28.9983 13.143 29.1168 13.0863C29.2353 13.0296 29.3667 13 29.4999 13C29.6332 13 29.7646 13.0296 29.8831 13.0863C30.0016 13.143 30.1038 13.2252 30.1812 13.3261L33.6845 17.8854L37.1995 15.7069C37.3325 15.6246 37.4881 15.5795 37.6479 15.5768C37.8076 15.5741 37.9649 15.614 38.101 15.6917C38.2372 15.7694 38.3466 15.8818 38.4163 16.0154C38.4859 16.1491 38.513 16.2985 38.4942 16.4461L37.1192 27.313C37.0952 27.5022 36.9973 27.6767 36.8441 27.8034C36.691 27.93 36.4931 28 36.2881 28H22.7118C22.5068 28 22.3089 27.93 22.1558 27.8034C22.0026 27.6767 21.9047 27.5022 21.8807 27.313L20.5057 16.4453C20.4871 16.2978 20.5143 16.1485 20.584 16.015C20.6538 15.8814 20.7632 15.7692 20.8993 15.6916C21.0354 15.6139 21.1926 15.5741 21.3523 15.5768C21.5119 15.5796 21.6674 15.6247 21.8004 15.7069ZM29.4999 23.3317C29.9439 23.3317 30.3696 23.1678 30.6835 22.876C30.9974 22.5842 31.1738 22.1884 31.1738 21.7757C31.1738 21.363 30.9974 20.9672 30.6835 20.6753C30.3696 20.3835 29.9439 20.2196 29.4999 20.2196C29.056 20.2196 28.6303 20.3835 28.3164 20.6753C28.0025 20.9672 27.8261 21.363 27.8261 21.7757C27.8261 22.1884 28.0025 22.5842 28.3164 22.876C28.6303 23.1678 29.056 23.3317 29.4999 23.3317Z" fill="url(#paint0_linear_5035_16196)"/>
<path opacity="0.8" d="M42.9438 15.0909C41.9102 14.8604 41.0988 14.0666 40.8637 13.0576C40.843 12.9808 40.7422 12.9808 40.7242 13.0576C40.489 14.0666 39.6751 14.8604 38.6441 15.0909C38.564 15.1114 38.564 15.2087 38.6441 15.2292C39.6776 15.4597 40.489 16.2535 40.7242 17.2625C40.7448 17.3393 40.8456 17.3393 40.8637 17.2625C41.0988 16.2535 41.9128 15.4597 42.9438 15.2292C43.0187 15.2087 43.0187 15.1063 42.9438 15.0909ZM38.5278 19.1729C37.719 18.968 37.0782 18.3432 36.8689 17.5519C36.8482 17.475 36.7422 17.475 36.719 17.5519C36.5097 18.3432 35.8689 18.968 35.0601 19.1729C34.98 19.1933 34.98 19.2958 35.0601 19.3214C35.8689 19.5262 36.5097 20.1511 36.719 20.9424C36.7397 21.0192 36.8456 21.0192 36.8689 20.9424C37.0782 20.1511 37.719 19.5262 38.5278 19.3214C38.6079 19.2958 38.6079 19.1933 38.5278 19.1729Z" fill="white"/>
<path d="M20.3564 31.288H21.3724L22.9404 35.944H22.9644L24.5324 31.288H25.5484L23.5164 37H22.3884L20.3564 31.288ZM26.1498 31.288H27.0858V37H26.1498V31.288ZM28.2045 31.288H30.5725C31.9485 31.288 32.6445 31.872 32.6445 33.04C32.6445 34.216 31.9485 34.808 30.5565 34.808H29.1405V37H28.2045V31.288ZM29.1405 32.088V34.008H30.5005C30.9165 34.008 31.2205 33.928 31.4125 33.784C31.6045 33.632 31.7005 33.384 31.7005 33.04C31.7005 32.696 31.5965 32.456 31.4045 32.312C31.2125 32.16 30.9085 32.088 30.5005 32.088H29.1405ZM35.3427 31.176C35.9187 31.176 36.3907 31.312 36.7427 31.592C37.0867 31.872 37.2627 32.256 37.2627 32.752C37.2627 33.376 36.9427 33.792 36.3107 34C36.6467 34.104 36.9107 34.256 37.0867 34.464C37.2787 34.68 37.3747 34.96 37.3747 35.296C37.3747 35.824 37.1907 36.256 36.8227 36.592C36.4387 36.936 35.9347 37.112 35.3107 37.112C34.7187 37.112 34.2387 36.96 33.8787 36.656C33.4787 36.32 33.2547 35.824 33.2067 35.184H34.1587C34.1747 35.552 34.2867 35.84 34.5107 36.04C34.7107 36.224 34.9747 36.32 35.3027 36.32C35.6627 36.32 35.9507 36.216 36.1587 36.016C36.3427 35.832 36.4387 35.608 36.4387 35.336C36.4387 35.008 36.3347 34.768 36.1427 34.616C35.9507 34.456 35.6707 34.384 35.3027 34.384H34.9027V33.68H35.3027C35.6387 33.68 35.8947 33.608 36.0707 33.464C36.2387 33.32 36.3267 33.104 36.3267 32.824C36.3267 32.544 36.2467 32.336 36.0947 32.192C35.9267 32.048 35.6787 31.976 35.3507 31.976C35.0147 31.976 34.7587 32.056 34.5747 32.224C34.3827 32.392 34.2707 32.648 34.2387 32.992H33.3187C33.3667 32.416 33.5747 31.968 33.9587 31.648C34.3187 31.328 34.7827 31.176 35.3427 31.176Z" fill="#F19F21"/>
<path opacity="0.8" d="M0 18L8 20.4V30C3.26982 28.581 0 23.9617 0 18.6989V18Z" fill="#F19F21"/>
<path opacity="0.8" d="M59 18L51 20.4V30C55.7302 28.581 59 23.9617 59 18.6989V18Z" fill="#F19F21"/>
<defs>
<linearGradient id="paint0_linear_5035_16196" x1="29.5" y1="13" x2="29.5" y2="28" gradientUnits="userSpaceOnUse">
<stop stop-color="#F19F21" stop-opacity="0.2"/>
<stop offset="1" stop-color="#F19F21"/>
</linearGradient>
</defs>
</svg>
