<svg width="173" height="139" viewBox="0 0 173 139" fill="none" xmlns="http://www.w3.org/2000/svg">
<path d="M96.876 97.0051L121.801 93.4321C121.801 93.4321 135.464 133.418 133.448 136.899C131.432 140.38 123.124 135.639 112.697 128.999C102.27 122.359 96.876 97.0051 96.876 97.0051Z" fill="#4F8188"/>
<path d="M74.5123 97.0051L49.5873 93.4321C49.5873 93.4321 35.9243 133.418 37.9403 136.899C39.9563 140.38 48.2643 135.639 58.6913 128.999C69.1183 122.359 74.5123 97.0051 74.5123 97.0051Z" fill="#4F8188"/>
<path d="M24.9821 32.925C24.9821 32.925 10.416 23.112 5.62305 23.514C-0.576954 24.034 -1.75788 26.084 2.87512 33.374C8.49312 42.214 21.123 50.9549 24.983 50.5309L24.9821 32.925Z" fill="#8BDAE5"/>
<path d="M24.9821 54.899C24.9821 54.899 10.416 45.099 5.62305 45.499C-0.576954 46.018 -1.75788 48.066 2.87512 55.348C8.49312 64.178 21.123 72.9091 24.983 72.4851L24.9821 54.899Z" fill="#4F8188"/>
<path d="M24.9821 77.801C24.9821 77.801 10.416 68.0011 5.62305 68.4011C-0.576954 68.9201 -1.75788 70.9681 2.87512 78.2501C8.49312 87.0801 21.123 95.811 24.983 95.387L24.9821 77.801Z" fill="#375256"/>
<path d="M148.062 32.925C148.062 32.925 162.628 23.112 167.421 23.514C173.621 24.034 174.802 26.084 170.169 33.374C164.551 42.214 151.921 50.9549 148.061 50.5309L148.062 32.925Z" fill="#8BDAE5"/>
<path d="M148.062 54.899C148.062 54.899 162.628 45.099 167.421 45.499C173.621 46.018 174.802 48.066 170.169 55.348C164.551 64.178 151.921 72.9091 148.061 72.4851L148.062 54.899Z" fill="#4F8188"/>
<path d="M148.062 77.801C148.062 77.801 162.628 68.0011 167.421 68.4011C173.621 68.9201 174.802 70.9681 170.169 78.2501C164.551 87.0801 151.921 95.811 148.061 95.387L148.062 77.801Z" fill="#375256"/>
<path d="M142.218 93.2675C142.218 94.6695 141.85 96.047 141.15 97.2618C140.45 98.4767 139.443 99.4863 138.23 100.189L90.371 127.927C89.1521 128.634 87.7683 129.006 86.3595 129.006C84.9507 129.006 83.5669 128.634 82.348 127.927L34.489 100.189C33.2758 99.4864 32.2687 98.4768 31.5686 97.262C30.8685 96.0471 30.5 94.6696 30.5 93.2675V37.7384C30.5 36.3362 30.8685 34.9586 31.5686 33.7438C32.2687 32.5289 33.2758 31.5194 34.489 30.8164L82.348 3.07837C83.5669 2.37194 84.9507 2 86.3595 2C87.7683 2 89.1521 2.37194 90.371 3.07837L138.23 30.8164C139.443 31.5195 140.45 32.5292 141.15 33.744C141.85 34.9589 142.218 36.3363 142.218 37.7384V93.2675Z" fill="#4C6E73" stroke="#8BDAE5" stroke-width="3"/>
<path d="M50.7298 74L42.4738 52.656H47.6578L53.5778 69.072L59.4658 52.656H64.6498L56.4258 74H50.7298ZM66.6208 74V52.656H71.1648V74H66.6208ZM75.402 74V52.656H85.386C90.026 52.656 92.554 55.792 92.554 59.536C92.554 63.248 89.994 66.352 85.386 66.352H79.946V74H75.402ZM87.914 59.504C87.914 57.744 86.57 56.56 84.778 56.56H79.946V62.448H84.778C86.57 62.448 87.914 61.296 87.914 59.504ZM93.8988 70.96L96.2668 67.984C97.7388 69.52 100.075 70.416 102.155 70.416C104.747 70.416 106.187 69.296 106.187 67.664C106.187 65.936 104.875 65.136 101.899 65.136C101.003 65.136 99.5628 65.136 99.2428 65.168V61.2C99.6268 61.232 101.067 61.232 101.899 61.232C104.267 61.232 105.835 60.464 105.835 58.864C105.835 57.168 104.107 56.304 101.867 56.304C99.7868 56.304 97.9308 57.104 96.4268 58.544L94.1868 55.728C95.9148 53.776 98.6028 52.336 102.347 52.336C107.339 52.336 110.411 54.576 110.411 58.128C110.411 60.816 108.107 62.576 105.739 62.992C107.915 63.216 110.731 64.912 110.731 68.112C110.731 71.792 107.435 74.384 102.315 74.384C98.3788 74.384 95.4668 72.88 93.8988 70.96ZM113.128 63.344C113.128 57.84 115.848 52.336 121.96 52.336C128.04 52.336 130.792 57.84 130.792 63.344C130.792 68.848 128.04 74.384 121.96 74.384C115.848 74.384 113.128 68.848 113.128 63.344ZM126.152 63.344C126.152 59.408 125 56.368 121.96 56.368C118.888 56.368 117.736 59.408 117.736 63.344C117.736 67.28 118.888 70.352 121.96 70.352C125 70.352 126.152 67.28 126.152 63.344Z" fill="#8BDAE5"/>
</svg>
