<svg width="115" height="131" viewBox="0 0 115 131" fill="none" xmlns="http://www.w3.org/2000/svg">
<path d="M113.218 93.3858C113.218 94.7871 112.85 96.1637 112.15 97.378C111.451 98.5923 110.445 99.6015 109.233 100.305L61.374 128.077C60.1542 128.785 58.7689 129.158 57.3585 129.158C55.9482 129.158 54.5629 128.785 53.343 128.077L5.48404 100.305C4.27203 99.6015 3.26598 98.5923 2.56662 97.378C1.86726 96.1637 1.49911 94.7871 1.49902 93.3858V37.7718C1.49911 36.3705 1.86726 34.9939 2.56662 33.7796C3.26598 32.5653 4.27203 31.556 5.48404 30.8528L53.344 3.08081C54.5639 2.37289 55.9492 2 57.3595 2C58.7699 2 60.1552 2.37289 61.375 3.08081L109.234 30.8528C110.446 31.556 111.452 32.5653 112.151 33.7796C112.851 34.9939 113.219 36.3705 113.219 37.7718L113.218 93.3858Z" fill="#646B6B" stroke="#BF9E73" stroke-width="3"/>
<path d="M28.49 74L20.234 52.656H25.418L31.338 69.072L37.226 52.656H42.41L34.186 74H28.49ZM44.381 74V52.656H48.925V74H44.381ZM53.1623 74V52.656H63.1463C67.7863 52.656 70.3143 55.792 70.3143 59.536C70.3143 63.248 67.7543 66.352 63.1463 66.352H57.7063V74H53.1623ZM65.6743 59.504C65.6743 57.744 64.3303 56.56 62.5383 56.56H57.7063V62.448H62.5383C64.3303 62.448 65.6743 61.296 65.6743 59.504ZM82.027 74V69.584H71.819V66L80.299 52.656H86.571V65.584H89.323V69.584H86.571V74H82.027ZM82.027 56.688L76.267 65.584H82.027V56.688Z" fill="#E7CAA5"/>
</svg>
