<svg width="34" height="26" viewBox="0 0 34 26" fill="none" xmlns="http://www.w3.org/2000/svg">
<path d="M4.90101 10.9354C4.90101 10.9354 2.03728 8.96361 1.09496 9.04441C-0.123984 9.14881 -0.35617 9.56089 0.554695 11.0256C1.65921 12.8017 4.14231 14.5582 4.9012 14.4729L4.90101 10.9354Z" fill="#9BA2B1"/>
<path d="M29.099 10.9354C29.099 10.9354 31.9627 8.96361 32.905 9.04441C34.124 9.14881 34.3562 9.56089 33.4453 11.0256C32.3408 12.8017 29.8577 14.5582 29.099 14.4729V10.9354Z" fill="#9BA2B1"/>
<path d="M27.9498 18.4592C27.9497 18.7347 27.8774 19.0053 27.7399 19.244C27.6024 19.4828 27.4046 19.6812 27.1663 19.8194L17.757 25.2795C17.5172 25.4187 17.2449 25.492 16.9677 25.492C16.6904 25.492 16.4181 25.4187 16.1783 25.2795L6.76906 19.8194C6.53077 19.6812 6.33298 19.4828 6.19548 19.244C6.05799 19.0053 5.98561 18.7347 5.9856 18.4592V7.52524C5.98561 7.24974 6.05799 6.97909 6.19548 6.74036C6.33298 6.50163 6.53077 6.30321 6.76906 6.16495L16.1783 0.704851C16.4181 0.565709 16.6904 0.492432 16.9677 0.492432C17.2449 0.492432 17.5172 0.565709 17.757 0.704851L27.1663 6.16495C27.4046 6.30321 27.6024 6.50163 27.7399 6.74036C27.8774 6.97909 27.9497 7.24974 27.9498 7.52524V18.4592Z" fill="#57626E"/>
<path fill-rule="evenodd" clip-rule="evenodd" d="M16.3262 0.95991C16.3262 0.959912 16.3262 0.959909 16.3262 0.95991L6.917 6.42C6.72338 6.53234 6.56267 6.69356 6.45096 6.88753C6.33925 7.08149 6.28044 7.30138 6.28042 7.52522C6.28042 7.52521 6.28042 7.52523 6.28042 7.52522V18.4591C6.28044 18.683 6.33924 18.9029 6.45096 19.0968C6.56267 19.2908 6.72337 19.452 6.91699 19.5644L16.3263 25.0245C16.5211 25.1375 16.7423 25.197 16.9676 25.197C17.1929 25.197 17.4141 25.1375 17.6089 25.0245L27.0182 19.5644C27.2118 19.452 27.3725 19.2908 27.4842 19.0968C27.596 18.9029 27.6548 18.683 27.6548 18.4591V7.52524C27.6548 7.3014 27.596 7.08149 27.4842 6.88753C27.3725 6.69356 27.2118 6.53235 27.0182 6.42001L17.609 0.95991C17.609 0.959909 17.609 0.959912 17.609 0.95991C17.4141 0.846863 17.1929 0.787321 16.9676 0.787321C16.7423 0.787321 16.5211 0.846862 16.3262 0.95991ZM16.0302 0.449759C16.315 0.284526 16.6384 0.19751 16.9676 0.19751C17.2968 0.19751 17.6202 0.284525 17.905 0.449759L27.3142 5.90986C27.5972 6.07404 27.8321 6.30966 27.9953 6.59316C28.1586 6.87665 28.2446 7.19806 28.2446 7.52522V18.4592C28.2446 18.7863 28.1586 19.1077 27.9953 19.3912C27.8321 19.6747 27.5972 19.9103 27.3142 20.0745L17.905 25.5346C17.6202 25.6998 17.2968 25.7869 16.9676 25.7869C16.6384 25.7869 16.315 25.6998 16.0302 25.5346L6.62098 20.0745C6.33802 19.9103 6.10314 19.6747 5.93986 19.3912C5.77658 19.1077 5.69063 18.7863 5.69061 18.4591V7.52522C5.69063 7.19808 5.77658 6.87665 5.93986 6.59316C6.10313 6.30966 6.33801 6.07405 6.62097 5.90986C6.62096 5.90986 6.62097 5.90986 6.62097 5.90986L16.0302 0.449759Z" fill="#DFE1EE"/>
<path d="M11.7061 14.8445L10.0829 10.6482H11.1021L12.266 13.8756L13.4236 10.6482H14.4428L12.826 14.8445H11.7061Z" fill="#DFE1EE"/>
<path d="M14.8303 14.8445V10.6482H15.7237V14.8445H14.8303Z" fill="#DFE1EE"/>
<path d="M16.5568 14.8445V10.6482H18.5197C19.4319 10.6482 19.9289 11.2647 19.9289 12.0008C19.9289 12.7306 19.4256 13.3409 18.5197 13.3409H17.4501V14.8445H16.5568ZM19.0167 11.9945C19.0167 11.6485 18.7524 11.4157 18.4001 11.4157H17.4501V12.5733H18.4001C18.7524 12.5733 19.0167 12.3468 19.0167 11.9945Z" fill="#DFE1EE"/>
<path d="M22.2317 14.8445V13.9763H20.2247V13.2717L21.8919 10.6482H23.125V13.1899H23.6661V13.9763H23.125V14.8445H22.2317ZM22.2317 11.4409L21.0992 13.1899H22.2317V11.4409Z" fill="#DFE1EE"/>
</svg>
