<svg width="32" height="32" viewBox="0 0 32 32" fill="none" xmlns="http://www.w3.org/2000/svg">
<path d="M4.61272 13.1155C4.61272 13.1155 1.91744 11.2597 1.03055 11.3358C-0.11669 11.434 -0.335219 11.8219 0.522066 13.2004C1.56161 14.8721 3.89865 16.5252 4.6129 16.4449L4.61272 13.1155Z" fill="#9BA2B1"/>
<path d="M27.3873 13.1155C27.3873 13.1155 30.0826 11.2597 30.9694 11.3358C32.1167 11.434 32.3352 11.8219 31.4779 13.2004C30.4384 14.8721 28.1013 16.5252 27.3873 16.4449V13.1155Z" fill="#9BA2B1"/>
<path d="M26.305 20.197C26.3049 20.4563 26.2368 20.711 26.1074 20.9357C25.978 21.1604 25.7919 21.3471 25.5676 21.4772L16.7118 26.6162C16.4861 26.7471 16.2298 26.8161 15.9689 26.8161C15.7079 26.8161 15.4517 26.7471 15.226 26.6162L6.37019 21.4772C6.14592 21.3471 5.95976 21.1604 5.83035 20.9357C5.70095 20.711 5.63283 20.4563 5.63281 20.197V9.90622C5.63283 9.64693 5.70095 9.3922 5.83035 9.16751C5.95976 8.94282 6.14592 8.75608 6.37019 8.62595L15.226 3.48703C15.4517 3.35608 15.7079 3.28711 15.9689 3.28711C16.2298 3.28711 16.4861 3.35608 16.7118 3.48703L25.5676 8.62595C25.7919 8.75608 25.978 8.94282 26.1074 9.16751C26.2368 9.3922 26.3049 9.64693 26.305 9.90622V20.197Z" fill="#57626E"/>
<path fill-rule="evenodd" clip-rule="evenodd" d="M15.3655 3.72683C15.3655 3.72683 15.3655 3.72683 15.3655 3.72683L6.50971 8.86574C6.32749 8.97147 6.17623 9.12321 6.07109 9.30576C5.96595 9.48831 5.9106 9.69528 5.91059 9.90595C5.91059 9.90594 5.91059 9.90595 5.91059 9.90595V20.1967C5.9106 20.4074 5.96594 20.6143 6.07109 20.7969C6.17623 20.9794 6.32748 21.1312 6.5097 21.2369L15.3655 26.3758C15.5488 26.4822 15.7571 26.5382 15.9691 26.5382C16.1811 26.5382 16.3894 26.4822 16.5727 26.3758L25.4285 21.2369C25.6107 21.1312 25.762 20.9794 25.8671 20.7969C25.9723 20.6143 26.0276 20.4074 26.0276 20.1967V9.90597C26.0276 9.69529 25.9723 9.48832 25.8671 9.30576C25.762 9.12321 25.6107 8.97148 25.4285 8.86575L16.5727 3.72683C16.5727 3.72683 16.5727 3.72683 16.5727 3.72683C16.3894 3.62043 16.1811 3.56439 15.9691 3.56439C15.7571 3.56439 15.5488 3.62043 15.3655 3.72683ZM15.0869 3.24669C15.3549 3.09118 15.6592 3.00928 15.9691 3.00928C16.279 3.00928 16.5833 3.09117 16.8513 3.24669L25.7071 8.38561C25.9734 8.54013 26.1945 8.76189 26.3482 9.02871C26.5018 9.29553 26.5827 9.59803 26.5827 9.90595V20.1967C26.5827 20.5046 26.5018 20.8071 26.3482 21.0739C26.1945 21.3408 25.9734 21.5625 25.7071 21.717L16.8513 26.856C16.5833 27.0115 16.279 27.0934 15.9691 27.0934C15.6592 27.0934 15.3549 27.0115 15.0869 26.856L6.2311 21.717C5.96479 21.5625 5.74373 21.3408 5.59005 21.0739C5.43638 20.8071 5.35549 20.5046 5.35547 20.1967V9.90595C5.35549 9.59805 5.43638 9.29553 5.59005 9.02871C5.74372 8.76189 5.96479 8.54013 6.2311 8.38561C6.23109 8.38561 6.2311 8.38561 6.2311 8.38561L15.0869 3.24669Z" fill="#DFE1EE"/>
<path d="M11.0179 16.7947L9.49023 12.8452H10.4495L11.5449 15.8828L12.6344 12.8452H13.5937L12.0719 16.7947H11.0179Z" fill="#DFE1EE"/>
<path d="M13.9584 16.7947V12.8452H14.7992V16.7947H13.9584Z" fill="#DFE1EE"/>
<path d="M15.5832 16.7947V12.8452H17.4307C18.2892 12.8452 18.757 13.4255 18.757 14.1183C18.757 14.8051 18.2833 15.3795 17.4307 15.3795H16.4241V16.7947H15.5832ZM17.8984 14.1124C17.8984 13.7867 17.6498 13.5676 17.3182 13.5676H16.4241V14.6571H17.3182C17.6498 14.6571 17.8984 14.444 17.8984 14.1124Z" fill="#DFE1EE"/>
<path d="M20.9243 16.7947V15.9776H19.0355V15.3144L20.6046 12.8452H21.7652V15.2374H22.2744V15.9776H21.7652V16.7947H20.9243ZM20.9243 13.5913L19.8585 15.2374H20.9243V13.5913Z" fill="#DFE1EE"/>
</svg>
