<svg width="32" height="32" viewBox="0 0 32 32" fill="none" xmlns="http://www.w3.org/2000/svg">
<path d="M4.61272 13.1155C4.61272 13.1155 1.91744 11.2597 1.03055 11.3358C-0.11669 11.434 -0.335219 11.8219 0.522066 13.2004C1.56161 14.8721 3.89865 16.5252 4.6129 16.4449L4.61272 13.1155Z" fill="#9BA2B1"/>
<path d="M27.3873 13.1155C27.3873 13.1155 30.0826 11.2597 30.9694 11.3358C32.1167 11.434 32.3352 11.8219 31.4779 13.2004C30.4384 14.8721 28.1013 16.5252 27.3873 16.4449V13.1155Z" fill="#9BA2B1"/>
<path d="M26.305 20.197C26.3049 20.4563 26.2368 20.711 26.1074 20.9357C25.978 21.1604 25.7919 21.3471 25.5676 21.4772L16.7118 26.6162C16.4861 26.7471 16.2298 26.8161 15.9689 26.8161C15.7079 26.8161 15.4517 26.7471 15.226 26.6162L6.37019 21.4772C6.14592 21.3471 5.95976 21.1604 5.83035 20.9357C5.70095 20.711 5.63283 20.4563 5.63281 20.197V9.90622C5.63283 9.64693 5.70095 9.3922 5.83035 9.16751C5.95976 8.94282 6.14592 8.75608 6.37019 8.62595L15.226 3.48703C15.4517 3.35608 15.7079 3.28711 15.9689 3.28711C16.2298 3.28711 16.4861 3.35608 16.7118 3.48703L25.5676 8.62595C25.7919 8.75608 25.978 8.94282 26.1074 9.16751C26.2368 9.3922 26.3049 9.64693 26.305 9.90622V20.197Z" fill="#57626E"/>
<path fill-rule="evenodd" clip-rule="evenodd" d="M15.3655 3.72683C15.3655 3.72683 15.3655 3.72683 15.3655 3.72683L6.50971 8.86574C6.32749 8.97147 6.17623 9.12321 6.07109 9.30576C5.96595 9.48831 5.9106 9.69528 5.91059 9.90595C5.91059 9.90594 5.91059 9.90595 5.91059 9.90595V20.1967C5.9106 20.4074 5.96594 20.6143 6.07109 20.7969C6.17623 20.9794 6.32748 21.1312 6.5097 21.2369L15.3655 26.3758C15.5488 26.4822 15.7571 26.5382 15.9691 26.5382C16.1811 26.5382 16.3894 26.4822 16.5727 26.3758L25.4285 21.2369C25.6107 21.1312 25.762 20.9794 25.8671 20.7969C25.9723 20.6143 26.0276 20.4074 26.0276 20.1967V9.90597C26.0276 9.69529 25.9723 9.48832 25.8671 9.30576C25.762 9.12321 25.6107 8.97148 25.4285 8.86575L16.5727 3.72683C16.5727 3.72683 16.5727 3.72683 16.5727 3.72683C16.3894 3.62043 16.1811 3.56439 15.9691 3.56439C15.7571 3.56439 15.5488 3.62043 15.3655 3.72683ZM15.0869 3.24669C15.3549 3.09118 15.6592 3.00928 15.9691 3.00928C16.279 3.00928 16.5833 3.09117 16.8513 3.24669L25.7071 8.38561C25.9734 8.54013 26.1945 8.76189 26.3482 9.02871C26.5018 9.29553 26.5827 9.59803 26.5827 9.90595V20.1967C26.5827 20.5046 26.5018 20.8071 26.3482 21.0739C26.1945 21.3408 25.9734 21.5625 25.7071 21.717L16.8513 26.856C16.5833 27.0115 16.279 27.0934 15.9691 27.0934C15.6592 27.0934 15.3549 27.0115 15.0869 26.856L6.2311 21.717C5.96479 21.5625 5.74373 21.3408 5.59005 21.0739C5.43638 20.8071 5.35549 20.5046 5.35547 20.1967V9.90595C5.35549 9.59805 5.43638 9.29553 5.59005 9.02871C5.74372 8.76189 5.96479 8.54013 6.2311 8.38561C6.23109 8.38561 6.2311 8.38561 6.2311 8.38561L15.0869 3.24669Z" fill="#DFE1EE"/>
<path d="M10.8223 16.7957L9.19922 12.5996H10.2184L11.3822 15.8269L12.5397 12.5996H13.5589L11.9421 16.7957H10.8223Z" fill="#DFE1EE"/>
<path d="M13.9463 16.7957V12.5996H14.8397V16.7957H13.9463Z" fill="#DFE1EE"/>
<path d="M15.6727 16.7957V12.5996H17.6354C18.5476 12.5996 19.0446 13.2161 19.0446 13.9522C19.0446 14.6819 18.5413 15.2921 17.6354 15.2921H16.566V16.7957H15.6727ZM18.1324 13.9459C18.1324 13.5999 17.8682 13.3671 17.5159 13.3671H16.566V14.5246H17.5159C17.8682 14.5246 18.1324 14.2982 18.1324 13.9459Z" fill="#DFE1EE"/>
<path d="M19.4914 16.2421L19.9821 15.6381C20.2715 15.9338 20.6615 16.0911 21.1019 16.0911C21.5989 16.0911 21.882 15.808 21.882 15.462C21.882 15.0782 21.6052 14.8203 21.1271 14.8203C20.7811 14.8203 20.498 14.9273 20.2463 15.1663L19.6235 14.9965V12.5996H22.5048V13.3671H20.498V14.4177C20.7182 14.2227 21.0579 14.0717 21.4416 14.0717C22.1525 14.0717 22.7879 14.575 22.7879 15.4243C22.7879 16.3113 22.121 16.8712 21.1082 16.8712C20.3784 16.8712 19.85 16.6321 19.4914 16.2421Z" fill="#DFE1EE"/>
</svg>
