<svg width="115" height="131" viewBox="0 0 115 131" fill="none" xmlns="http://www.w3.org/2000/svg">
<path d="M113.218 93.3857C113.218 94.787 112.85 96.1637 112.15 97.3779C111.451 98.5922 110.445 99.6014 109.233 100.305L61.374 128.077C60.1542 128.785 58.7689 129.157 57.3585 129.157C55.9482 129.157 54.5629 128.785 53.343 128.077L5.48404 100.305C4.27203 99.6014 3.26598 98.5922 2.56662 97.3779C1.86726 96.1637 1.49911 94.787 1.49902 93.3857V37.7717C1.49911 36.3705 1.86726 34.9938 2.56662 33.7795C3.26598 32.5653 4.27203 31.556 5.48404 30.8528L53.343 3.08069C54.5629 2.37277 55.9482 2 57.3585 2C58.7689 2 60.1542 2.37277 61.374 3.08069L109.233 30.8528C110.445 31.556 111.451 32.5653 112.15 33.7795C112.85 34.9938 113.218 36.3705 113.218 37.7717V93.3857Z" fill="#646B6B" stroke="#BF9E73" stroke-width="3"/>
<path d="M28.3138 74L20.0578 52.656H25.2418L31.1618 69.072L37.0498 52.656H42.2338L34.0098 74H28.3138ZM44.2048 74V52.656H48.7488V74H44.2048ZM52.986 74V52.656H62.97C67.61 52.656 70.138 55.792 70.138 59.536C70.138 63.248 67.578 66.352 62.97 66.352H57.53V74H52.986ZM65.498 59.504C65.498 57.744 64.154 56.56 62.362 56.56H57.53V62.448H62.362C64.154 62.448 65.498 61.296 65.498 59.504ZM72.4108 71.184L74.9068 68.112C76.3788 69.616 78.3628 70.416 80.6028 70.416C83.1308 70.416 84.5708 68.976 84.5708 67.216C84.5708 65.264 83.1628 63.952 80.7308 63.952C78.9708 63.952 77.5308 64.496 76.2508 65.712L73.0828 64.848V52.656H87.7388V56.56H77.5308V61.904C78.6508 60.912 80.3788 60.144 82.3308 60.144C85.9468 60.144 89.1788 62.704 89.1788 67.024C89.1788 71.536 85.7868 74.384 80.6348 74.384C76.9228 74.384 74.2348 73.168 72.4108 71.184Z" fill="#E7CAA5"/>
</svg>
