<svg width="32" height="28" viewBox="0 0 32 28" fill="none" xmlns="http://www.w3.org/2000/svg">
<path d="M27.7668 19.7252V7.38019C27.7668 6.93291 27.5866 6.57508 27.1361 6.30671L16.6837 0.134185C16.3233 -0.0447284 15.8728 -0.0447284 15.5123 0.134185L4.96986 6.30671C4.51932 6.48562 4.33911 6.93291 4.33911 7.38019V19.7252C4.33911 20.1725 4.51932 20.5303 4.96986 20.7987L15.5123 26.9712C15.8728 27.1502 16.3233 27.1502 16.6837 26.9712L27.2262 20.7987C27.5866 20.5303 27.7668 20.1725 27.7668 19.7252Z" fill="#E8C8F8"/>
<path d="M25.7843 18.5623V8.54318C25.7843 8.0959 25.6041 7.73807 25.1536 7.4697L16.6836 2.46011C16.3231 2.2812 15.8726 2.2812 15.5122 2.46011L6.95204 7.4697C6.59161 7.64861 6.32129 8.0959 6.32129 8.54318V18.5623C6.32129 19.0096 6.5015 19.3675 6.95204 19.6358L15.4221 24.6454C15.7825 24.8243 16.233 24.8243 16.5935 24.6454L25.0635 19.6358C25.514 19.3675 25.7843 19.0096 25.7843 18.5623Z" fill="#E2A8F8"/>
<path d="M25.7843 18.7412V9.25882C25.7843 8.81153 25.514 8.45371 25.1536 8.18534L20.1977 5.41217L19.2065 4.87543L16.5935 3.44412C16.233 3.26521 15.7825 3.26521 15.4221 3.44412L6.95204 8.18534C6.59161 8.36425 6.32129 8.81153 6.32129 9.25882V18.7412C6.32129 19.1885 6.59161 19.5464 6.95204 19.8147L15.4221 24.6454C15.7825 24.8243 16.233 24.8243 16.5935 24.6454L25.0635 19.8147C25.514 19.6358 25.7843 19.1885 25.7843 18.7412Z" fill="#F5E0FF"/>
<path opacity="0.05" d="M4.33911 7.82739V19.9041C4.33911 20.3514 4.51932 20.7092 4.96986 20.8881L15.5123 26.9712C15.8728 27.1501 16.3233 27.1501 16.6837 26.9712L25.2439 22.051L4.33911 7.82739Z" fill="#993FF3"/>
<path opacity="0.12" d="M7.76317 4.69653L4.96986 6.30676C4.60943 6.57513 4.33911 6.93295 4.33911 7.38024L16.053 15.3419L20.1078 12.5687L7.76317 4.69653Z" fill="white"/>
<path opacity="0.05" d="M27.9555 8V20.0767C27.9555 20.524 27.7753 20.8818 27.3248 21.0607L16.7823 27.1438C16.4219 27.3227 15.9713 27.3227 15.6109 27.1438L7.05078 22.2236L27.9555 8Z" fill="#993FF3"/>
<path d="M11.7851 6.45757L13.6916 7.63062L15.5917 5.1756C15.6337 5.12129 15.6891 5.07702 15.7534 5.04648C15.8176 5.01593 15.8889 5 15.9612 5C16.0334 5 16.1047 5.01593 16.169 5.04648C16.2332 5.07702 16.2887 5.12129 16.3306 5.1756L18.2307 7.63062L20.1372 6.45757C20.2093 6.41327 20.2937 6.38895 20.3804 6.3875C20.467 6.38604 20.5523 6.40751 20.6262 6.44937C20.7 6.49122 20.7593 6.55172 20.7971 6.6237C20.8349 6.69568 20.8496 6.77614 20.8394 6.85557L20.0936 10.707C20.0806 10.8089 20.0275 10.9029 19.9444 10.971C19.8614 11.0392 19.7541 11.0769 19.6429 11.0769H12.2794C12.1683 11.0769 12.061 11.0392 11.9779 10.971C11.8948 10.9029 11.8417 10.8089 11.8287 10.707L11.0829 6.85515C11.0728 6.77575 11.0876 6.69535 11.1254 6.62344C11.1632 6.55153 11.2226 6.4911 11.2964 6.4493C11.3702 6.4075 11.4555 6.38607 11.5421 6.38753C11.6287 6.389 11.713 6.4133 11.7851 6.45757ZM15.9612 9.56325C16.2019 9.56325 16.4328 9.47497 16.6031 9.31783C16.7733 9.1607 16.869 8.94758 16.869 8.72535C16.869 8.50313 16.7733 8.29001 16.6031 8.13287C16.4328 7.97574 16.2019 7.88746 15.9612 7.88746C15.7204 7.88746 15.4895 7.97574 15.3192 8.13287C15.149 8.29001 15.0533 8.50313 15.0533 8.72535C15.0533 8.94758 15.149 9.1607 15.3192 9.31783C15.4895 9.47497 15.7204 9.56325 15.9612 9.56325Z" fill="url(#paint0_linear_8344_15148)"/>
<path opacity="0.8" d="M22.1385 6.78409C21.7481 6.69766 21.4416 6.39997 21.3528 6.02161C21.345 5.9928 21.3069 5.9928 21.3001 6.02161C21.2113 6.39997 20.9038 6.69766 20.5144 6.78409C20.4841 6.79177 20.4841 6.82827 20.5144 6.83595C20.9048 6.92238 21.2113 7.22007 21.3001 7.59843C21.3079 7.62724 21.346 7.62724 21.3528 7.59843C21.4416 7.22007 21.7491 6.92238 22.1385 6.83595C22.1668 6.82827 22.1668 6.78985 22.1385 6.78409ZM20.4705 8.31482C20.165 8.238 19.9229 8.00368 19.8439 7.70695C19.836 7.67814 19.796 7.67814 19.7872 7.70695C19.7082 8.00368 19.4661 8.238 19.1606 8.31482C19.1304 8.3225 19.1304 8.36092 19.1606 8.37052C19.4661 8.44734 19.7082 8.68166 19.7872 8.97839C19.7951 9.0072 19.8351 9.0072 19.8439 8.97839C19.9229 8.68166 20.165 8.44734 20.4705 8.37052C20.5007 8.36092 20.5007 8.3225 20.4705 8.31482Z" fill="white"/>
<path d="M8.05811 14H9.04246L10.5616 18.8908H10.5849L12.104 14H13.0884L11.1197 20H10.0268L8.05811 14Z" fill="#993FF3"/>
<path d="M13.6711 14H14.5779V20H13.6711V14Z" fill="#993FF3"/>
<path d="M15.6618 14H17.956C19.2892 14 19.9635 14.6134 19.9635 15.8403C19.9635 17.0756 19.2892 17.6975 17.9405 17.6975H16.5686V20H15.6618V14ZM16.5686 14.8403V16.8571H17.8863C18.2893 16.8571 18.5839 16.7731 18.7699 16.6218C18.9559 16.4622 19.0489 16.2017 19.0489 15.8403C19.0489 15.479 18.9481 15.2269 18.7621 15.0756C18.5761 14.916 18.2816 14.8403 17.8863 14.8403H16.5686Z" fill="#993FF3"/>
<path d="M20.4307 14H24.1743V14.7899L22.2366 20H21.2755L23.2597 14.8908H20.4307V14Z" fill="#993FF3"/>
<path opacity="0.8" d="M0.000128269 9.69232L4.33911 10.9846V16.1539C1.77359 15.3898 0.000128269 12.9025 0.000128269 10.0687V9.69232Z" fill="#B773FB"/>
<path opacity="0.8" d="M32.0001 9.69232L27.6611 10.9846V16.1539C30.2267 15.3898 32.0001 12.9025 32.0001 10.0687V9.69232Z" fill="#B773FB"/>
<defs>
<linearGradient id="paint0_linear_8344_15148" x1="15.9612" y1="5" x2="15.9612" y2="13.0769" gradientUnits="userSpaceOnUse">
<stop stop-color="#993FF3" stop-opacity="0.2"/>
<stop offset="1" stop-color="#993FF3"/>
</linearGradient>
</defs>
</svg>
