<svg width="173" height="131" viewBox="0 0 173 131" fill="none" xmlns="http://www.w3.org/2000/svg">
<path d="M24.9821 55.1171C24.9821 55.1171 10.4161 45.0881 5.62308 45.4991C-0.576916 46.0301 -1.7579 48.1261 2.8751 55.5761C8.4931 64.6101 21.1231 73.5441 24.9831 73.1101L24.9821 55.1171Z" fill="#9BA2B1"/>
<path d="M148.062 55.1171C148.062 55.1171 162.628 45.0881 167.421 45.4991C173.621 46.0301 174.802 48.1261 170.169 55.5761C164.551 64.6101 151.921 73.5441 148.062 73.1101V55.1171Z" fill="#9BA2B1"/>
<path d="M142.218 93.3855C142.218 94.7867 141.85 96.1634 141.15 97.3777C140.451 98.5919 139.445 99.6012 138.233 100.304L90.374 128.076C89.1543 128.784 87.7692 129.157 86.359 129.157C84.9488 129.157 83.5638 128.784 82.3441 128.076L34.484 100.304C33.272 99.6012 32.266 98.5919 31.5667 97.3777C30.8673 96.1634 30.4991 94.7867 30.499 93.3855V37.7715C30.4991 36.3702 30.8673 34.9936 31.5667 33.7793C32.266 32.565 33.272 31.5557 34.484 30.8525L82.3441 3.08047C83.5638 2.37275 84.9488 2 86.359 2C87.7692 2 89.1543 2.37275 90.374 3.08047L138.233 30.8525C139.445 31.5557 140.451 32.565 141.15 33.7793C141.85 34.9936 142.218 36.3702 142.218 37.7715V93.3855Z" fill="#57626E" stroke="#DFE1EE" stroke-width="3"/>
<path d="M58.3221 74L50.0661 52.656H55.2501L61.1701 69.072L67.0581 52.656H72.2421L64.0181 74H58.3221ZM74.2131 74V52.656H78.7571V74H74.2131ZM82.9943 74V52.656H92.9783C97.6183 52.656 100.146 55.792 100.146 59.536C100.146 63.248 97.5863 66.352 92.9783 66.352H87.5383V74H82.9943ZM95.5063 59.504C95.5063 57.744 94.1623 56.56 92.3703 56.56H87.5383V62.448H92.3703C94.1623 62.448 95.5063 61.296 95.5063 59.504ZM104.723 74L112.371 56.656H101.619V52.656H117.651V55.824L109.715 74H104.723Z" fill="#DFE1EE"/>
</svg>
