<svg width="32" height="32" viewBox="0 0 32 32" fill="none" xmlns="http://www.w3.org/2000/svg">
<path d="M4.61272 14.0136C4.61272 14.0136 1.91744 12.1579 1.03055 12.2339C-0.11669 12.3322 -0.335218 12.72 0.522066 14.0986C1.56161 15.7702 3.89865 17.4234 4.6129 17.3431L4.61272 14.0136Z" fill="#EBAAC9"/>
<path d="M4.61272 18.251C4.61272 18.251 1.91744 16.3953 1.03055 16.4713C-0.11669 16.5696 -0.335218 16.9574 0.522066 18.336C1.56161 20.0076 3.89865 21.6607 4.6129 21.5804L4.61272 18.251Z" fill="#805B6D"/>
<path d="M27.3873 13.9236C27.3873 13.9236 30.0826 12.0678 30.9695 12.1439C32.1167 12.2421 32.3352 12.63 31.4779 14.0085C30.4384 15.6802 28.1013 17.3333 27.3871 17.253L27.3873 13.9236Z" fill="#EBAAC9"/>
<path d="M27.3873 18.1609C27.3873 18.1609 30.0826 16.3052 30.9695 16.3812C32.1167 16.4795 32.3352 16.8673 31.4779 18.2459C30.4384 19.9175 28.1013 21.5707 27.3871 21.4903L27.3873 18.1609Z" fill="#805B6D"/>
<path d="M26.6722 20.9098C26.6721 21.1691 26.604 21.4239 26.4746 21.6486C26.3452 21.8733 26.159 22.06 25.9348 22.1901L17.079 27.329C16.8533 27.46 16.597 27.529 16.3361 27.529C16.0751 27.529 15.8188 27.46 15.5931 27.329L6.73738 22.1901C6.51311 22.06 6.32695 21.8733 6.19754 21.6486C6.06813 21.4239 6.00002 21.1691 6 20.9098V10.6191C6.00002 10.3598 6.06813 10.1051 6.19754 9.8804C6.32695 9.65571 6.51311 9.46896 6.73738 9.33883L15.5931 4.19993C15.8188 4.06897 16.0751 4 16.3361 4C16.597 4 16.8533 4.06897 17.079 4.19993L25.9348 9.33883C26.159 9.46896 26.3452 9.65571 26.4746 9.8804C26.604 10.1051 26.6721 10.3598 26.6722 10.6191V20.9098Z" fill="#6B646A"/>
<path fill-rule="evenodd" clip-rule="evenodd" d="M15.2834 4.62479C15.2834 4.62479 15.2834 4.62478 15.2834 4.62479L6.42768 9.76368C6.24546 9.86941 6.0942 10.0212 5.98905 10.2037C5.88392 10.3863 5.82857 10.5932 5.82855 10.8039C5.82855 10.8039 5.82855 10.8039 5.82855 10.8039V21.0946C5.82857 21.3053 5.88391 21.5123 5.98905 21.6948C6.0942 21.8774 6.24545 22.0291 6.42767 22.1348L15.2835 27.2737C15.4668 27.3801 15.6751 27.4362 15.8871 27.4362C16.0991 27.4362 16.3073 27.3801 16.4907 27.2737L25.3464 22.1349C25.5287 22.0291 25.6799 21.8774 25.7851 21.6948C25.8902 21.5123 25.9456 21.3053 25.9456 21.0946V10.8039C25.9456 10.5932 25.8902 10.3863 25.7851 10.2037C25.6799 10.0212 25.5287 9.86942 25.3465 9.76368L16.4907 4.62479C16.4907 4.62478 16.4907 4.62479 16.4907 4.62479C16.3073 4.51839 16.0991 4.46234 15.8871 4.46234C15.6751 4.46234 15.4668 4.51839 15.2834 4.62479ZM15.0048 4.14464C15.2729 3.98913 15.5772 3.90723 15.8871 3.90723C16.1969 3.90723 16.5013 3.98913 16.7693 4.14464L25.6251 9.28354C25.8914 9.43807 26.1124 9.65984 26.2661 9.92666C26.4198 10.1935 26.5007 10.496 26.5007 10.8039V21.0947C26.5007 21.4026 26.4198 21.7051 26.2661 21.9719C26.1124 22.2387 25.8914 22.4605 25.6251 22.615L16.7693 27.7539C16.5013 27.9094 16.1969 27.9913 15.8871 27.9913C15.5772 27.9913 15.2729 27.9094 15.0048 27.7539L6.14907 22.615C5.88276 22.4605 5.66169 22.2387 5.50802 21.9719C5.35434 21.7051 5.27346 21.4026 5.27344 21.0946V10.8039C5.27346 10.496 5.35434 10.1935 5.50802 9.92666C5.66169 9.65984 5.88275 9.43807 6.14907 9.28354L15.0048 4.14464Z" fill="#EBB9D1"/>
<path d="M10.5648 18.0455L9 14H9.98257L11.1046 17.1115L12.2206 14H13.2032L11.6444 18.0455H10.5648Z" fill="#F7B6D5"/>
<path d="M13.5768 18.0455V14H14.4381V18.0455H13.5768Z" fill="#F7B6D5"/>
<path d="M15.2412 18.0455V14H17.1335C18.013 14 18.4922 14.5944 18.4922 15.304C18.4922 16.0076 18.0069 16.5959 17.1335 16.5959H16.1025V18.0455H15.2412ZM17.6127 15.298C17.6127 14.9644 17.358 14.74 17.0183 14.74H16.1025V15.856H17.0183C17.358 15.856 17.6127 15.6376 17.6127 15.298Z" fill="#F7B6D5"/>
<path d="M19.3596 18.0455L20.8092 14.7582H18.7713V14H21.81V14.6005L20.3058 18.0455H19.3596Z" fill="#F7B6D5"/>
</svg>
