<svg width="34" height="26" viewBox="0 0 34 26" fill="none" xmlns="http://www.w3.org/2000/svg">
<path d="M4.90101 10.8272C4.90101 10.8272 2.03728 8.85545 1.09496 8.93625C-0.123984 9.04065 -0.35617 9.45273 0.554695 10.9174C1.65921 12.6935 4.14231 14.45 4.9012 14.3647L4.90101 10.8272Z" fill="#EBAAC9"/>
<path d="M4.90101 15.3294C4.90101 15.3294 2.03728 13.3577 1.09496 13.4385C-0.123984 13.5429 -0.35617 13.955 0.554695 15.4197C1.65921 17.1958 4.14231 18.9522 4.9012 18.8669L4.90101 15.3294Z" fill="#805B6D"/>
<path d="M29.099 10.7315C29.099 10.7315 31.9627 8.75975 32.905 8.84055C34.124 8.94495 34.3562 9.35704 33.4453 10.8217C32.3408 12.5978 29.8577 14.3543 29.0988 14.269L29.099 10.7315Z" fill="#EBAAC9"/>
<path d="M29.099 15.2337C29.099 15.2337 31.9627 13.262 32.905 13.3428C34.124 13.4472 34.3562 13.8592 33.4453 15.3239C32.3408 17.1 29.8577 18.8565 29.0988 18.7712L29.099 15.2337Z" fill="#805B6D"/>
<path d="M27.8625 18.3507C27.8625 18.6262 27.7901 18.8969 27.6526 19.1356C27.5152 19.3744 27.3173 19.5728 27.0791 19.7111L17.6698 25.1711C17.43 25.3103 17.1577 25.3836 16.8805 25.3836C16.6032 25.3836 16.3309 25.3103 16.0911 25.1711L6.68184 19.7111C6.44355 19.5728 6.24576 19.3744 6.10826 19.1356C5.97077 18.8969 5.89839 18.6262 5.89838 18.3507V7.41684C5.89839 7.14134 5.97077 6.87069 6.10826 6.63196C6.24576 6.39323 6.44355 6.1948 6.68184 6.05654L16.0911 0.596459C16.3309 0.457316 16.6032 0.384033 16.8805 0.384033C17.1577 0.384033 17.43 0.457316 17.6698 0.596459L27.0791 6.05654C27.3173 6.1948 27.5152 6.39323 27.6526 6.63196C27.7901 6.87069 27.8625 7.14134 27.8625 7.41684V18.3507Z" fill="#6B646A"/>
<path fill-rule="evenodd" clip-rule="evenodd" d="M16.2387 0.851518C16.2387 0.851519 16.2387 0.851516 16.2387 0.851518L6.82947 6.31159C6.63586 6.42393 6.47515 6.58516 6.36343 6.77913C6.25172 6.97309 6.19292 7.19299 6.1929 7.41682C6.1929 7.41681 6.1929 7.41683 6.1929 7.41682V18.3507C6.19291 18.5746 6.25172 18.7945 6.36343 18.9884C6.47515 19.1824 6.63585 19.3436 6.82946 19.456L16.2387 24.916C16.4336 25.0291 16.6548 25.0886 16.8801 25.0886C17.1053 25.0886 17.3266 25.0291 17.5214 24.916L26.9307 19.456C27.1243 19.3436 27.285 19.1824 27.3967 18.9884C27.5084 18.7945 27.5672 18.5746 27.5673 18.3507V7.41684C27.5672 7.19301 27.5084 6.9731 27.3967 6.77913C27.285 6.58517 27.1243 6.42394 26.9307 6.3116L17.5214 0.851518C17.5214 0.851516 17.5214 0.851519 17.5214 0.851518C17.3266 0.738469 17.1053 0.678922 16.8801 0.678922C16.6548 0.678922 16.4336 0.738469 16.2387 0.851518ZM15.9427 0.341367C16.2275 0.176135 16.5509 0.0891113 16.8801 0.0891113C17.2093 0.0891113 17.5327 0.176135 17.8175 0.341367L27.2267 5.80145C27.5096 5.96563 27.7445 6.20126 27.9078 6.48476C28.0711 6.76825 28.157 7.08965 28.1571 7.41682V18.3508C28.157 18.6779 28.0711 18.9993 27.9078 19.2828C27.7445 19.5663 27.5096 19.8019 27.2267 19.9661L17.8175 25.4262C17.5327 25.5914 17.2093 25.6784 16.8801 25.6784C16.5509 25.6784 16.2275 25.5914 15.9427 25.4262L6.53345 19.9661C6.25049 19.8019 6.01561 19.5663 5.85233 19.2828C5.68905 18.9993 5.60311 18.6779 5.60309 18.3507V7.41682C5.60311 7.08968 5.68905 6.76825 5.85233 6.48476C6.01561 6.20127 6.25049 5.96563 6.53345 5.80144L15.9427 0.341367Z" fill="#EBB9D1"/>
<path d="M11.8627 14.8987L10.2 10.6001H11.244L12.4363 13.9062L13.6221 10.6001H14.6662L13.0099 14.8987H11.8627Z" fill="#F7B6D5"/>
<path d="M15.0631 14.8987V10.6001H15.9783V14.8987H15.0631Z" fill="#F7B6D5"/>
<path d="M16.8316 14.8987V10.6001H18.8424C19.7768 10.6001 20.286 11.2317 20.286 11.9857C20.286 12.7333 19.7704 13.3584 18.8424 13.3584H17.7468V14.8987H16.8316ZM19.3515 11.9793C19.3515 11.6248 19.0808 11.3863 18.7199 11.3863H17.7468V12.5722H18.7199C19.0808 12.5722 19.3515 12.3402 19.3515 11.9793Z" fill="#F7B6D5"/>
<path d="M21.2077 14.8987L22.748 11.4057H20.5826V10.6001H23.8113V11.2381L22.2131 14.8987H21.2077Z" fill="#F7B6D5"/>
</svg>
