<svg width="173" height="131" viewBox="0 0 173 131" fill="none" xmlns="http://www.w3.org/2000/svg">
<path d="M24.9821 55.1171C24.9821 55.1171 10.4161 45.0881 5.62308 45.4991C-0.576916 46.0301 -1.7579 48.1261 2.8751 55.5761C8.4931 64.6101 21.1231 73.5441 24.9831 73.1101L24.9821 55.1171Z" fill="#9BA2B1"/>
<path d="M148.062 55.1171C148.062 55.1171 162.628 45.0881 167.421 45.4991C173.621 46.0301 174.802 48.1261 170.169 55.5761C164.551 64.6101 151.921 73.5441 148.062 73.1101V55.1171Z" fill="#9BA2B1"/>
<path d="M142.218 93.3855C142.218 94.7869 141.85 96.1638 141.151 97.3782C140.451 98.5927 139.445 99.6021 138.233 100.305L90.374 128.076C89.1543 128.784 87.7692 129.157 86.359 129.157C84.9488 129.157 83.5638 128.784 82.3441 128.076L34.484 100.305C33.2719 99.6012 32.2658 98.5917 31.5664 97.3773C30.867 96.1628 30.4989 94.7859 30.499 93.3845V37.7715C30.4991 36.3702 30.8673 34.9936 31.5667 33.7793C32.266 32.565 33.272 31.5557 34.484 30.8525L82.3441 3.08047C83.5638 2.37275 84.9488 2 86.359 2C87.7692 2 89.1543 2.37275 90.374 3.08047L138.233 30.8525C139.445 31.5557 140.451 32.565 141.15 33.7793C141.85 34.9936 142.218 36.3702 142.218 37.7715V93.3855Z" fill="#57626E" stroke="#DFE1EE" stroke-width="3"/>
<path d="M57.346 74L49.09 52.656H54.274L60.194 69.072L66.082 52.656H71.266L63.042 74H57.346ZM73.237 74V52.656H77.781V74H73.237ZM82.0182 74V52.656H92.0023C96.6423 52.656 99.1703 55.792 99.1703 59.536C99.1703 63.248 96.6103 66.352 92.0023 66.352H86.5623V74H82.0182ZM94.5303 59.504C94.5303 57.744 93.1863 56.56 91.3943 56.56H86.5623V62.448H91.3943C93.1863 62.448 94.5303 61.296 94.5303 59.504ZM100.995 68.464C100.995 65.872 103.011 63.888 105.571 62.992C103.203 62.192 101.347 60.624 101.347 57.968C101.347 53.968 105.603 52.336 109.571 52.336C113.507 52.336 117.795 53.968 117.795 57.968C117.795 60.624 115.907 62.192 113.539 62.992C116.099 63.888 118.147 65.872 118.147 68.464C118.147 72.432 114.051 74.384 109.571 74.384C105.091 74.384 100.995 72.464 100.995 68.464ZM113.155 58.672C113.155 57.168 111.651 56.24 109.571 56.24C107.459 56.24 105.955 57.168 105.955 58.672C105.955 60.336 108.259 61.072 109.571 61.264C110.883 61.072 113.155 60.336 113.155 58.672ZM113.539 67.92C113.539 66.064 110.883 65.168 109.571 65.008C108.227 65.168 105.603 66.064 105.603 67.92C105.603 69.488 107.331 70.48 109.571 70.48C111.747 70.48 113.539 69.488 113.539 67.92Z" fill="#DFE1EE"/>
</svg>
