<svg width="32" height="28" viewBox="0 0 32 28" fill="none" xmlns="http://www.w3.org/2000/svg">
<path d="M27.5665 19.7252V7.38019C27.5665 6.93291 27.3876 6.57508 26.9403 6.30671L16.5633 0.134185C16.2055 -0.0447284 15.7582 -0.0447284 15.4004 0.134185L4.93394 6.30671C4.48665 6.48562 4.30774 6.93291 4.30774 7.38019V19.7252C4.30774 20.1725 4.48665 20.5303 4.93394 20.7987L15.4004 26.9712C15.7582 27.1502 16.2055 27.1502 16.5633 26.9712L27.0298 20.7987C27.3876 20.5303 27.5665 20.1725 27.5665 19.7252Z" fill="#E8C8F8"/>
<path d="M25.5984 18.5623V8.54318C25.5984 8.0959 25.4195 7.73807 24.9722 7.4697L16.5633 2.46011C16.2055 2.2812 15.7582 2.2812 15.4004 2.46011L6.90196 7.4697C6.54413 7.64861 6.27576 8.0959 6.27576 8.54318V18.5623C6.27576 19.0096 6.45467 19.3675 6.90196 19.6358L15.3109 24.6454C15.6687 24.8243 16.116 24.8243 16.4738 24.6454L24.8828 19.6358C25.3301 19.3675 25.5984 19.0096 25.5984 18.5623Z" fill="#E2A8F8"/>
<path d="M25.5984 18.7411V9.2587C25.5984 8.81141 25.3301 8.45358 24.9722 8.18521L20.0521 5.41205L19.0681 4.87531L16.4738 3.444C16.116 3.26509 15.6687 3.26509 15.3109 3.444L6.90196 8.18521C6.54413 8.36413 6.27576 8.81141 6.27576 9.2587V18.7411C6.27576 19.1884 6.54413 19.5462 6.90196 19.8146L15.3109 24.6453C15.6687 24.8242 16.116 24.8242 16.4738 24.6453L24.8828 19.8146C25.3301 19.6357 25.5984 19.1884 25.5984 18.7411Z" fill="#F5E0FF"/>
<path opacity="0.05" d="M4.30774 7.82739V19.9041C4.30774 20.3514 4.48665 20.7092 4.93394 20.8881L15.4004 26.9712C15.7582 27.1501 16.2055 27.1501 16.5633 26.9712L25.0617 22.051L4.30774 7.82739Z" fill="#993FF3"/>
<path opacity="0.12" d="M7.7071 4.69653L4.93394 6.30676C4.57611 6.57513 4.30774 6.93295 4.30774 7.38024L15.9371 15.3419L19.9627 12.5687L7.7071 4.69653Z" fill="white"/>
<path opacity="0.05" d="M27.5665 7.82739V19.9041C27.5665 20.3514 27.3876 20.7092 26.9403 20.8881L16.4738 26.9712C16.116 27.1501 15.6687 27.1501 15.3109 26.9712L6.8125 22.051L27.5665 7.82739Z" fill="#993FF3"/>
<path d="M11.7387 8.45757L13.6314 9.63062L15.5178 7.1756C15.5594 7.12129 15.6145 7.07702 15.6783 7.04648C15.7421 7.01593 15.8128 7 15.8846 7C15.9563 7 16.0271 7.01593 16.0909 7.04648C16.1547 7.07702 16.2097 7.12129 16.2514 7.1756L18.1378 9.63062L20.0305 8.45757C20.1021 8.41327 20.1859 8.38895 20.2719 8.3875C20.3579 8.38604 20.4426 8.40751 20.5159 8.44937C20.5893 8.49122 20.6481 8.55172 20.6857 8.6237C20.7232 8.69568 20.7377 8.77614 20.7276 8.85557L19.9872 14.707C19.9743 14.8089 19.9216 14.9029 19.8391 14.971C19.7567 15.0392 19.6501 15.0769 19.5397 15.0769H12.2294C12.119 15.0769 12.0125 15.0392 11.93 14.971C11.8475 14.9029 11.7948 14.8089 11.7819 14.707L11.0415 8.85515C11.0315 8.77575 11.0461 8.69535 11.0837 8.62344C11.1213 8.55153 11.1802 8.4911 11.2535 8.4493C11.3268 8.4075 11.4114 8.38607 11.4974 8.38753C11.5833 8.389 11.6671 8.4133 11.7387 8.45757ZM15.8846 12.5632C16.1236 12.5632 16.3529 12.475 16.5219 12.3178C16.6909 12.1607 16.7859 11.9476 16.7859 11.7254C16.7859 11.5031 16.6909 11.29 16.5219 11.1329C16.3529 10.9757 16.1236 10.8875 15.8846 10.8875C15.6455 10.8875 15.4163 10.9757 15.2473 11.1329C15.0782 11.29 14.9833 11.5031 14.9833 11.7254C14.9833 11.9476 15.0782 12.1607 15.2473 12.3178C15.4163 12.475 15.6455 12.5632 15.8846 12.5632Z" fill="url(#paint0_linear_6525_24566)"/>
<path opacity="0.8" d="M23.1236 8.12587C22.5671 8.00177 22.1302 7.57431 22.0036 7.03103C21.9924 6.98966 21.9382 6.98966 21.9284 7.03103C21.8018 7.57431 21.3635 8.00177 20.8084 8.12587C20.7652 8.13691 20.7652 8.1893 20.8084 8.20033C21.3649 8.32444 21.8018 8.7519 21.9284 9.29518C21.9396 9.33655 21.9938 9.33655 22.0036 9.29518C22.1302 8.7519 22.5685 8.32444 23.1236 8.20033C23.164 8.1893 23.164 8.13415 23.1236 8.12587ZM20.7458 10.3238C20.3103 10.2135 19.9652 9.87708 19.8525 9.451C19.8414 9.40963 19.7843 9.40963 19.7718 9.451C19.6591 9.87708 19.314 10.2135 18.8785 10.3238C18.8354 10.3349 18.8354 10.39 18.8785 10.4038C19.314 10.5141 19.6591 10.8506 19.7718 11.2767C19.7829 11.318 19.84 11.318 19.8525 11.2767C19.9652 10.8506 20.3103 10.5141 20.7458 10.4038C20.7889 10.39 20.7889 10.3349 20.7458 10.3238Z" fill="white"/>
<path d="M10.9612 16.8474H11.5083L12.3526 19.3545H12.3655L13.2098 16.8474H13.7569L12.6627 19.9231H12.0553L10.9612 16.8474Z" fill="#993FF3"/>
<path d="M14.0807 16.8474H14.5847V19.9231H14.0807V16.8474Z" fill="#993FF3"/>
<path d="M15.1871 16.8474H16.4622C17.2031 16.8474 17.5779 17.1619 17.5779 17.7908C17.5779 18.424 17.2031 18.7428 16.4536 18.7428H15.6911V19.9231H15.1871V16.8474ZM15.6911 17.2782V18.312H16.4234C16.6474 18.312 16.8111 18.269 16.9145 18.1914C17.0179 18.1096 17.0696 17.976 17.0696 17.7908C17.0696 17.6056 17.0136 17.4763 16.9102 17.3988C16.8068 17.317 16.6431 17.2782 16.4234 17.2782H15.6911Z" fill="#993FF3"/>
<path d="M19.0006 16.7871C19.328 16.7871 19.5907 16.8733 19.7889 17.0499C19.9612 17.205 20.0517 17.3988 20.0517 17.6314C20.0517 17.7865 20.0172 17.92 19.9483 18.0277C19.8707 18.1397 19.7587 18.2302 19.608 18.2905V18.2991C19.7501 18.3379 19.875 18.424 19.9784 18.5576C20.0947 18.704 20.155 18.872 20.155 19.0616C20.155 19.3373 20.0517 19.557 19.8535 19.7293C19.651 19.8973 19.3667 19.9834 19.0006 19.9834C18.6301 19.9834 18.3458 19.8973 18.1477 19.7293C17.9452 19.557 17.8461 19.3373 17.8461 19.0616C17.8461 18.872 17.9021 18.704 18.0227 18.5576C18.1261 18.424 18.2467 18.3379 18.3932 18.2991V18.2905C18.2381 18.2302 18.1261 18.1397 18.0529 18.0277C17.984 17.92 17.9495 17.7865 17.9495 17.6314C17.9495 17.3988 18.0357 17.205 18.2123 17.0499C18.4061 16.8733 18.6689 16.7871 19.0006 16.7871ZM19.0006 17.1877C18.8197 17.1877 18.6732 17.2351 18.5655 17.3342C18.4707 17.4203 18.4233 17.5237 18.4233 17.6486C18.4233 17.7908 18.4621 17.9028 18.5397 17.9846C18.6344 18.0837 18.7852 18.1354 19.0006 18.1354C19.2117 18.1354 19.3667 18.0837 19.4615 17.9846C19.539 17.9028 19.5778 17.7908 19.5778 17.6486C19.5778 17.5237 19.5304 17.4203 19.4357 17.3342C19.3237 17.2351 19.1815 17.1877 19.0006 17.1877ZM19.0006 18.5102C18.7852 18.5102 18.6215 18.5619 18.5095 18.6653C18.3975 18.7643 18.3458 18.8979 18.3458 19.0616C18.3458 19.2166 18.4018 19.3416 18.5181 19.4363C18.6301 19.5311 18.7895 19.5785 19.0006 19.5785C19.2073 19.5785 19.371 19.5268 19.4917 19.432C19.5993 19.3373 19.6553 19.2166 19.6553 19.0616C19.6553 18.8979 19.5993 18.7643 19.496 18.6696C19.3797 18.5619 19.216 18.5102 19.0006 18.5102Z" fill="#993FF3"/>
<path opacity="0.8" d="M4.72069e-05 9.69238L4.30774 10.9847V16.1539C1.76072 15.3898 4.72069e-05 12.9025 4.72069e-05 10.0687V9.69238Z" fill="#B773FB"/>
<path opacity="0.8" d="M31.7692 9.69238L27.4615 10.9847V16.1539C30.0086 15.3898 31.7692 12.9025 31.7692 10.0687V9.69238Z" fill="#B773FB"/>
<defs>
<linearGradient id="paint0_linear_6525_24566" x1="15.8846" y1="7" x2="15.8846" y2="15.0769" gradientUnits="userSpaceOnUse">
<stop stop-color="#993FF3" stop-opacity="0.2"/>
<stop offset="1" stop-color="#993FF3"/>
</linearGradient>
</defs>
</svg>
