<svg width="32" height="32" viewBox="0 0 32 32" fill="none" xmlns="http://www.w3.org/2000/svg">
<path d="M4.61271 9.70483C4.61271 9.70483 1.91743 7.84908 1.03054 7.92513C-0.116698 8.02338 -0.335214 8.41122 0.52207 9.78976C1.56162 11.4614 3.89864 13.1145 4.61289 13.0342L4.61271 9.70483Z" fill="#EACE60"/>
<path d="M4.61271 13.7729C4.61271 13.7729 1.91743 11.9171 1.03054 11.9932C-0.116698 12.0915 -0.335214 12.4793 0.52207 13.8578C1.56162 15.5295 3.89864 17.1826 4.61289 17.1023L4.61271 13.7729Z" fill="#8B7C40"/>
<path d="M4.61271 18.0103C4.61271 18.0103 1.91743 16.1545 1.03054 16.2306C-0.116698 16.3288 -0.335214 16.7167 0.52207 18.0952C1.56162 19.7669 3.89864 21.42 4.61289 21.3397L4.61271 18.0103Z" fill="#524822"/>
<path d="M27.3873 9.70483C27.3873 9.70483 30.0826 7.84908 30.9695 7.92513C32.1167 8.02338 32.3352 8.41122 31.4779 9.78976C30.4384 11.4614 28.1013 13.1145 27.3871 13.0342L27.3873 9.70483Z" fill="#EACE60"/>
<path d="M27.3873 13.7729C27.3873 13.7729 30.0826 11.9171 30.9695 11.9932C32.1167 12.0915 32.3352 12.4793 31.4779 13.8578C30.4384 15.5295 28.1013 17.1826 27.3871 17.1023L27.3873 13.7729Z" fill="#8B7C40"/>
<path d="M27.3873 18.0103C27.3873 18.0103 30.0826 16.1545 30.9695 16.2306C32.1167 16.3288 32.3352 16.7167 31.4779 18.0952C30.4384 19.7669 28.1013 21.42 27.3871 21.3397L27.3873 18.0103Z" fill="#524822"/>
<path d="M26.305 20.8539C26.305 21.1132 26.2368 21.368 26.1074 21.5927C25.978 21.8173 25.7918 22.0041 25.5676 22.1342L16.7118 27.2731C16.4861 27.4041 16.2298 27.4731 15.9689 27.4731C15.708 27.4731 15.4517 27.4041 15.226 27.2731L6.37019 22.1342C6.14592 22.0041 5.95977 21.8173 5.83036 21.5927C5.70096 21.368 5.63283 21.1132 5.63281 20.8539V10.5632C5.63283 10.3039 5.70096 10.0492 5.83036 9.82449C5.95977 9.59981 6.14592 9.41305 6.37019 9.28292L15.226 4.14402C15.4517 4.01306 15.708 3.94409 15.9689 3.94409C16.2298 3.94409 16.4861 4.01306 16.7118 4.14402L25.5676 9.28292C25.7918 9.41305 25.978 9.59981 26.1074 9.82449C26.2368 10.0492 26.305 10.3039 26.305 10.5632V20.8539Z" fill="#50554C"/>
<path fill-rule="evenodd" clip-rule="evenodd" d="M15.3655 4.38431C15.3655 4.38431 15.3655 4.38431 15.3655 4.38431L6.50971 9.5232C6.3275 9.62893 6.17624 9.78067 6.0711 9.96323C5.96595 10.1458 5.9106 10.3528 5.91058 10.5634C5.91058 10.5634 5.91058 10.5634 5.91058 10.5634V20.8542C5.9106 21.0648 5.96595 21.2718 6.0711 21.4543C6.17624 21.6369 6.32749 21.7886 6.5097 21.8944L15.3655 27.0333C15.5488 27.1397 15.7571 27.1957 15.9691 27.1957C16.1811 27.1957 16.3894 27.1397 16.5727 27.0333L25.4285 21.8944C25.6107 21.7886 25.762 21.6369 25.8671 21.4543C25.9723 21.2718 26.0276 21.0648 26.0276 20.8542V10.5634C26.0276 10.3528 25.9723 10.1458 25.8671 9.96323C25.762 9.78068 25.6107 9.62894 25.4285 9.5232L16.5727 4.38431C16.5727 4.38431 16.5727 4.38431 16.5727 4.38431C16.3894 4.27791 16.1811 4.22186 15.9691 4.22186C15.7571 4.22186 15.5488 4.27791 15.3655 4.38431ZM15.0869 3.90416C15.3549 3.74865 15.6592 3.66675 15.9691 3.66675C16.279 3.66675 16.5833 3.74865 16.8513 3.90416L25.7071 9.04307C25.9734 9.19759 26.1945 9.41936 26.3482 9.68618C26.5018 9.95299 26.5827 10.2555 26.5827 10.5634V20.8542C26.5827 21.1621 26.5018 21.4646 26.3482 21.7314C26.1945 21.9982 25.9734 22.22 25.7071 22.3745L16.8513 27.5134C16.5833 27.6689 16.279 27.7508 15.9691 27.7508C15.6592 27.7508 15.3549 27.6689 15.0869 27.5134L6.2311 22.3745C5.96478 22.22 5.74373 21.9982 5.59006 21.7314C5.43639 21.4646 5.35549 21.1621 5.35547 20.8542V10.5634C5.35549 10.2555 5.43639 9.95299 5.59006 9.68618C5.74373 9.41937 5.96478 9.19759 6.2311 9.04306L15.0869 3.90416Z" fill="#EDD060"/>
<path d="M10.7621 17.2672L9.23438 13.3178H10.1936L11.289 16.3554L12.3786 13.3178H13.3378L11.816 17.2672H10.7621Z" fill="#EACE60"/>
<path d="M13.7025 17.2672V13.3178H14.5433V17.2672H13.7025Z" fill="#EACE60"/>
<path d="M15.3274 17.2672V13.3178H17.1748C18.0334 13.3178 18.5012 13.898 18.5012 14.5908C18.5012 15.2777 18.0275 15.852 17.1748 15.852H16.1682V17.2672H15.3274ZM17.6426 14.5849C17.6426 14.2592 17.3939 14.0401 17.0623 14.0401H16.1682V15.1297H17.0623C17.3939 15.1297 17.6426 14.9165 17.6426 14.5849Z" fill="#EACE60"/>
<path d="M18.8388 16.2429C18.8388 15.7632 19.2118 15.3961 19.6855 15.2303C19.2474 15.0823 18.9039 14.7921 18.9039 14.3007C18.9039 13.5605 19.6915 13.2585 20.4257 13.2585C21.154 13.2585 21.9475 13.5605 21.9475 14.3007C21.9475 14.7921 21.5981 15.0823 21.1599 15.2303C21.6336 15.3961 22.0126 15.7632 22.0126 16.2429C22.0126 16.9771 21.2547 17.3383 20.4257 17.3383C19.5967 17.3383 18.8388 16.983 18.8388 16.2429ZM21.0889 14.431C21.0889 14.1527 20.8106 13.9809 20.4257 13.9809C20.0349 13.9809 19.7566 14.1527 19.7566 14.431C19.7566 14.7389 20.1829 14.875 20.4257 14.9106C20.6685 14.875 21.0889 14.7389 21.0889 14.431ZM21.1599 16.1422C21.1599 15.7988 20.6685 15.633 20.4257 15.6034C20.177 15.633 19.6915 15.7988 19.6915 16.1422C19.6915 16.4323 20.0112 16.6159 20.4257 16.6159C20.8283 16.6159 21.1599 16.4323 21.1599 16.1422Z" fill="#EACE60"/>
</svg>
