<svg width="34" height="27" viewBox="0 0 34 27" fill="none" xmlns="http://www.w3.org/2000/svg">
<path d="M4.901 7.24882C4.901 7.24882 2.03727 5.27708 1.09495 5.35789C-0.123991 5.46228 -0.356165 5.87436 0.554699 7.33906C1.65922 9.11518 4.14231 10.8716 4.9012 10.7863L4.901 7.24882Z" fill="#EACE60"/>
<path d="M4.901 11.5712C4.901 11.5712 2.03727 9.59941 1.09495 9.68021C-0.123991 9.78461 -0.356165 10.1967 0.554699 11.6614C1.65922 13.4375 4.14231 15.194 4.9012 15.1086L4.901 11.5712Z" fill="#8B7C40"/>
<path d="M4.901 16.0734C4.901 16.0734 2.03727 14.1016 1.09495 14.1824C-0.123991 14.2868 -0.356165 14.6989 0.554699 16.1636C1.65922 17.9397 4.14231 19.6962 4.9012 19.6109L4.901 16.0734Z" fill="#524822"/>
<path d="M29.099 7.24882C29.099 7.24882 31.9627 5.27708 32.905 5.35789C34.124 5.46228 34.3562 5.87436 33.4453 7.33906C32.3408 9.11518 29.8577 10.8716 29.0988 10.7863L29.099 7.24882Z" fill="#EACE60"/>
<path d="M29.099 11.5712C29.099 11.5712 31.9627 9.59941 32.905 9.68021C34.124 9.78461 34.3562 10.1967 33.4453 11.6614C32.3408 13.4375 29.8577 15.194 29.0988 15.1086L29.099 11.5712Z" fill="#8B7C40"/>
<path d="M29.099 16.0734C29.099 16.0734 31.9627 14.1016 32.905 14.1824C34.124 14.2868 34.3562 14.6989 33.4453 16.1636C32.3408 17.9397 29.8577 19.6962 29.0988 19.6109L29.099 16.0734Z" fill="#524822"/>
<path d="M27.95 19.0949C27.95 19.3704 27.8776 19.641 27.7401 19.8798C27.6026 20.1185 27.4048 20.3169 27.1665 20.4552L17.7573 25.9153C17.5175 26.0544 17.2452 26.1277 16.9679 26.1277C16.6907 26.1277 16.4184 26.0544 16.1786 25.9153L6.7693 20.4552C6.53102 20.3169 6.33324 20.1185 6.19574 19.8798C6.05824 19.641 5.98586 19.3704 5.98584 19.0949V8.16098C5.98586 7.88548 6.05824 7.61483 6.19574 7.3761C6.33324 7.13737 6.53102 6.93894 6.7693 6.80068L16.1786 1.3406C16.4184 1.20146 16.6907 1.12817 16.9679 1.12817C17.2452 1.12817 17.5175 1.20146 17.7573 1.3406L27.1665 6.80068C27.4048 6.93894 27.6026 7.13737 27.7401 7.3761C27.8776 7.61483 27.95 7.88548 27.95 8.16098V19.0949Z" fill="#50554C"/>
<path fill-rule="evenodd" clip-rule="evenodd" d="M16.3265 1.59566C16.3265 1.59566 16.3266 1.59566 16.3265 1.59566L6.9173 7.05573C6.7237 7.16807 6.56299 7.32929 6.45127 7.52327C6.33956 7.71723 6.28075 7.93713 6.28073 8.16096C6.28073 8.16096 6.28073 8.16097 6.28073 8.16096V19.0949C6.28074 19.3187 6.33956 19.5386 6.45127 19.7326C6.56299 19.9265 6.72369 20.0878 6.91729 20.2001L16.3266 25.6602C16.5214 25.7732 16.7426 25.8328 16.9679 25.8328C17.1932 25.8328 17.4144 25.7732 17.6093 25.6602L27.0185 20.2001C27.2121 20.0878 27.3728 19.9265 27.4845 19.7326C27.5963 19.5386 27.6551 19.3187 27.6551 19.0949V8.16098C27.6551 7.93715 27.5963 7.71724 27.4845 7.52327C27.3728 7.32931 27.2121 7.16808 27.0185 7.05574L17.6093 1.59566C17.6093 1.59566 17.6093 1.59566 17.6093 1.59566C17.4144 1.48261 17.1932 1.42306 16.9679 1.42306C16.7427 1.42306 16.5214 1.48261 16.3265 1.59566ZM16.0305 1.08551C16.3153 0.920275 16.6387 0.833252 16.9679 0.833252C17.2971 0.833252 17.6205 0.920275 17.9053 1.08551L27.3145 6.54559C27.5975 6.70977 27.8324 6.9454 27.9956 7.2289C28.1589 7.51239 28.2449 7.83379 28.2449 8.16096V19.0949C28.2449 19.422 28.1589 19.7435 27.9956 20.0269C27.8324 20.3104 27.5975 20.5461 27.3145 20.7103L17.9053 26.1703C17.6205 26.3356 17.2971 26.4226 16.9679 26.4226C16.6387 26.4226 16.3153 26.3356 16.0305 26.1703L6.62128 20.7103C6.33831 20.5461 6.10345 20.3104 5.94017 20.0269C5.7769 19.7435 5.69094 19.422 5.69092 19.0949V8.16096C5.69094 7.83381 5.7769 7.51239 5.94017 7.2289C6.10345 6.94541 6.33831 6.70978 6.62128 6.54558L16.0305 1.08551Z" fill="#EDD060"/>
<path d="M11.4361 15.2836L9.81299 11.0873H10.8322L11.9961 14.3148L13.1537 11.0873H14.1729L12.556 15.2836H11.4361Z" fill="#EACE60"/>
<path d="M14.5604 15.2836V11.0873H15.4537V15.2836H14.5604Z" fill="#EACE60"/>
<path d="M16.2868 15.2836V11.0873H18.2497C19.1619 11.0873 19.6589 11.7039 19.6589 12.44C19.6589 13.1698 19.1556 13.78 18.2497 13.78H17.1802V15.2836H16.2868ZM18.7467 12.4337C18.7467 12.0876 18.4825 11.8549 18.1302 11.8549H17.1802V13.0125H18.1302C18.4825 13.0125 18.7467 12.786 18.7467 12.4337Z" fill="#EACE60"/>
<path d="M20.0177 14.1952C20.0177 13.6856 20.4141 13.2956 20.9174 13.1194C20.4518 12.9621 20.0869 12.6539 20.0869 12.1317C20.0869 11.3453 20.9237 11.0244 21.7038 11.0244C22.4776 11.0244 23.3206 11.3453 23.3206 12.1317C23.3206 12.6539 22.9495 12.9621 22.4839 13.1194C22.9872 13.2956 23.3898 13.6856 23.3898 14.1952C23.3898 14.9754 22.5846 15.3591 21.7038 15.3591C20.823 15.3591 20.0177 14.9817 20.0177 14.1952ZM22.4084 12.2701C22.4084 11.9744 22.1127 11.792 21.7038 11.792C21.2885 11.792 20.9929 11.9744 20.9929 12.2701C20.9929 12.5972 21.4458 12.7419 21.7038 12.7797C21.9617 12.7419 22.4084 12.5972 22.4084 12.2701ZM22.4839 14.0883C22.4839 13.7234 21.9617 13.5472 21.7038 13.5158C21.4395 13.5472 20.9237 13.7234 20.9237 14.0883C20.9237 14.3966 21.2634 14.5916 21.7038 14.5916C22.1316 14.5916 22.4839 14.3966 22.4839 14.0883Z" fill="#EACE60"/>
</svg>
