<svg width="32" height="28" viewBox="0 0 32 28" fill="none" xmlns="http://www.w3.org/2000/svg">
<path d="M27.7668 19.7252V7.38019C27.7668 6.93291 27.5866 6.57508 27.1361 6.30671L16.6837 0.134185C16.3233 -0.0447284 15.8728 -0.0447284 15.5123 0.134185L4.96986 6.30671C4.51932 6.48562 4.33911 6.93291 4.33911 7.38019V19.7252C4.33911 20.1725 4.51932 20.5303 4.96986 20.7987L15.5123 26.9712C15.8728 27.1502 16.3233 27.1502 16.6837 26.9712L27.2262 20.7987C27.5866 20.5303 27.7668 20.1725 27.7668 19.7252Z" fill="#E8C8F8"/>
<path d="M25.7846 18.5623V8.54318C25.7846 8.0959 25.6044 7.73807 25.1538 7.4697L16.6838 2.46011C16.3234 2.2812 15.8728 2.2812 15.5124 2.46011L6.95228 7.4697C6.59185 7.64861 6.32153 8.0959 6.32153 8.54318V18.5623C6.32153 19.0096 6.50175 19.3675 6.95228 19.6358L15.4223 24.6454C15.7827 24.8243 16.2333 24.8243 16.5937 24.6454L25.0637 19.6358C25.5143 19.3675 25.7846 19.0096 25.7846 18.5623Z" fill="#E2A8F8"/>
<path d="M25.7846 18.7412V9.25882C25.7846 8.81153 25.5143 8.45371 25.1538 8.18534L20.198 5.41217L19.2068 4.87543L16.5937 3.44412C16.2333 3.26521 15.7827 3.26521 15.4223 3.44412L6.95228 8.18534C6.59185 8.36425 6.32153 8.81153 6.32153 9.25882V18.7412C6.32153 19.1885 6.59185 19.5464 6.95228 19.8147L15.4223 24.6454C15.7827 24.8243 16.2333 24.8243 16.5937 24.6454L25.0637 19.8147C25.5143 19.6358 25.7846 19.1885 25.7846 18.7412Z" fill="#F5E0FF"/>
<path opacity="0.05" d="M4.33911 7.82739V19.9041C4.33911 20.3514 4.51932 20.7092 4.96986 20.8881L15.5123 26.9712C15.8728 27.1501 16.3233 27.1501 16.6837 26.9712L25.2439 22.051L4.33911 7.82739Z" fill="#993FF3"/>
<path opacity="0.12" d="M7.76317 4.69653L4.96986 6.30676C4.60943 6.57513 4.33911 6.93295 4.33911 7.38024L16.053 15.3419L20.1078 12.5687L7.76317 4.69653Z" fill="white"/>
<path opacity="0.05" d="M27.9558 8V20.0767C27.9558 20.524 27.7756 20.8818 27.325 21.0607L16.7825 27.1438C16.4221 27.3227 15.9716 27.3227 15.6112 27.1438L7.05103 22.2236L27.9558 8Z" fill="#993FF3"/>
<path d="M11.7854 6.45757L13.6918 7.63062L15.5919 5.1756C15.6339 5.12129 15.6893 5.07702 15.7536 5.04648C15.8179 5.01593 15.8891 5 15.9614 5C16.0337 5 16.1049 5.01593 16.1692 5.04648C16.2335 5.07702 16.2889 5.12129 16.3309 5.1756L18.231 7.63062L20.1374 6.45757C20.2096 6.41327 20.294 6.38895 20.3806 6.3875C20.4673 6.38604 20.5526 6.40751 20.6264 6.44937C20.7003 6.49122 20.7596 6.55172 20.7974 6.6237C20.8352 6.69568 20.8498 6.77614 20.8396 6.85557L20.0939 10.707C20.0809 10.8089 20.0278 10.9029 19.9447 10.971C19.8616 11.0392 19.7543 11.0769 19.6431 11.0769H12.2797C12.1685 11.0769 12.0612 11.0392 11.9781 10.971C11.895 10.9029 11.842 10.8089 11.8289 10.707L11.0832 6.85515C11.0731 6.77575 11.0878 6.69535 11.1257 6.62344C11.1635 6.55153 11.2228 6.4911 11.2966 6.4493C11.3705 6.4075 11.4557 6.38607 11.5423 6.38753C11.6289 6.389 11.7133 6.4133 11.7854 6.45757ZM15.9614 9.56325C16.2022 9.56325 16.4331 9.47497 16.6033 9.31783C16.7736 9.1607 16.8692 8.94758 16.8692 8.72535C16.8692 8.50313 16.7736 8.29001 16.6033 8.13287C16.4331 7.97574 16.2022 7.88746 15.9614 7.88746C15.7206 7.88746 15.4897 7.97574 15.3195 8.13287C15.1492 8.29001 15.0536 8.50313 15.0536 8.72535C15.0536 8.94758 15.1492 9.1607 15.3195 9.31783C15.4897 9.47497 15.7206 9.56325 15.9614 9.56325Z" fill="url(#paint0_linear_8460_22988)"/>
<path opacity="0.8" d="M22.1387 6.78409C21.7483 6.69766 21.4419 6.39997 21.353 6.02161C21.3452 5.9928 21.3072 5.9928 21.3003 6.02161C21.2115 6.39997 20.9041 6.69766 20.5146 6.78409C20.4844 6.79177 20.4844 6.82827 20.5146 6.83595C20.905 6.92238 21.2115 7.22007 21.3003 7.59843C21.3081 7.62724 21.3462 7.62724 21.353 7.59843C21.4419 7.22007 21.7493 6.92238 22.1387 6.83595C22.1671 6.82827 22.1671 6.78985 22.1387 6.78409ZM20.4707 8.31482C20.1652 8.238 19.9232 8.00368 19.8441 7.70695C19.8363 7.67814 19.7963 7.67814 19.7875 7.70695C19.7084 8.00368 19.4664 8.238 19.1609 8.31482C19.1306 8.3225 19.1306 8.36092 19.1609 8.37052C19.4664 8.44734 19.7084 8.68166 19.7875 8.97839C19.7953 9.0072 19.8353 9.0072 19.8441 8.97839C19.9232 8.68166 20.1652 8.44734 20.4707 8.37052C20.501 8.36092 20.501 8.3225 20.4707 8.31482Z" fill="white"/>
<path d="M8.05811 14.1132H9.02025L10.5051 18.8194H10.5279L12.0127 14.1132H12.9749L11.0506 19.8868H9.9824L8.05811 14.1132Z" fill="#993FF3"/>
<path d="M13.5445 14.1132H14.4308V19.8868H13.5445V14.1132Z" fill="#993FF3"/>
<path d="M15.4902 14.1132H17.7327C19.0358 14.1132 19.6949 14.7035 19.6949 15.8841C19.6949 17.0728 19.0358 17.6712 17.7176 17.6712H16.3766V19.8868H15.4902V14.1132ZM16.3766 14.9218V16.8625H17.6645C18.0585 16.8625 18.3464 16.7817 18.5282 16.6361C18.71 16.4825 18.8009 16.2318 18.8009 15.8841C18.8009 15.5364 18.7024 15.2938 18.5206 15.1482C18.3388 14.9946 18.0509 14.9218 17.6645 14.9218H16.3766Z" fill="#993FF3"/>
<path d="M22.1364 14C22.7955 14 23.3031 14.2507 23.6516 14.7601C24.0001 15.2615 24.1743 15.9488 24.1743 16.8383C24.1743 17.7763 23.9849 18.5445 23.6213 19.1267C23.2501 19.7089 22.7501 20 22.1288 20C21.0606 20 20.4621 19.4744 20.3333 18.4232H21.197C21.303 18.9569 21.6137 19.2237 22.1364 19.2237C22.4925 19.2237 22.7804 19.0296 23.0001 18.6577C23.2046 18.3019 23.3107 17.8571 23.3107 17.3235V17.2507H23.2728C23.1137 17.4852 22.9243 17.6631 22.7046 17.7763C22.4925 17.8814 22.25 17.938 21.9773 17.938C21.447 17.938 21.0152 17.752 20.697 17.3801C20.3788 17.0243 20.2273 16.5633 20.2273 15.9973C20.2273 15.4151 20.4091 14.938 20.7727 14.566C21.1364 14.186 21.5909 14 22.1364 14ZM22.1667 14.7844C21.8485 14.7844 21.5909 14.8976 21.394 15.124C21.197 15.3504 21.1061 15.6415 21.1061 15.9973C21.1061 16.3531 21.197 16.6361 21.394 16.8464C21.5758 17.0566 21.8334 17.1698 22.1667 17.1698C22.4925 17.1698 22.7501 17.0566 22.9394 16.8464C23.1213 16.628 23.2198 16.3369 23.2198 15.965C23.2198 15.593 23.1213 15.31 22.9243 15.0997C22.7273 14.8895 22.4697 14.7844 22.1667 14.7844Z" fill="#993FF3"/>
<defs>
<linearGradient id="paint0_linear_8460_22988" x1="15.9614" y1="5" x2="15.9614" y2="13.0769" gradientUnits="userSpaceOnUse">
<stop stop-color="#993FF3" stop-opacity="0.2"/>
<stop offset="1" stop-color="#993FF3"/>
</linearGradient>
</defs>
</svg>
