<svg width="173" height="131" viewBox="0 0 173 131" fill="none" xmlns="http://www.w3.org/2000/svg">
<path d="M24.9821 55.1171C24.9821 55.1171 10.4161 45.0881 5.62308 45.4991C-0.576916 46.0301 -1.7579 48.1261 2.8751 55.5761C8.4931 64.6101 21.1231 73.5441 24.9831 73.1101L24.9821 55.1171Z" fill="#9BA2B1"/>
<path d="M148.062 55.1171C148.062 55.1171 162.628 45.0881 167.421 45.4991C173.621 46.0301 174.802 48.1261 170.169 55.5761C164.551 64.6101 151.921 73.5441 148.062 73.1101V55.1171Z" fill="#9BA2B1"/>
<path d="M142.218 93.3855C142.218 94.7869 141.85 96.1638 141.151 97.3782C140.451 98.5927 139.445 99.6021 138.233 100.305L90.374 128.076C89.1543 128.784 87.7692 129.157 86.359 129.157C84.9488 129.157 83.5638 128.784 82.3441 128.076L34.484 100.305C33.2719 99.6012 32.2658 98.5917 31.5664 97.3773C30.867 96.1628 30.4989 94.7859 30.499 93.3845V37.7715C30.4991 36.3702 30.8673 34.9936 31.5667 33.7793C32.266 32.565 33.272 31.5557 34.484 30.8525L82.3441 3.08051C83.5638 2.37278 84.9488 2 86.359 2C87.7692 2 89.1543 2.37278 90.374 3.08051L138.233 30.8525C139.445 31.5557 140.451 32.565 141.15 33.7793C141.85 34.9936 142.218 36.3702 142.218 37.7715V93.3855Z" fill="#57626E" stroke="#DFE1EE" stroke-width="3"/>
<path d="M57.3143 74L49.0583 52.656H54.2423L60.1623 69.072L66.0503 52.656H71.2343L63.0103 74H57.3143ZM73.2053 74V52.656H77.7493V74H73.2053ZM81.9865 74V52.656H91.9705C96.6105 52.656 99.1385 55.792 99.1385 59.536C99.1385 63.248 96.5785 66.352 91.9705 66.352H86.5305V74H81.9865ZM94.4985 59.504C94.4985 57.744 93.1545 56.56 91.3625 56.56H86.5305V62.448H91.3625C93.1545 62.448 94.4985 61.296 94.4985 59.504ZM101.987 72.144L104.003 68.752C105.155 69.808 106.371 70.384 108.259 70.384C111.683 70.384 113.603 67.472 113.603 64.24V63.792C112.579 65.232 110.435 66.544 108.099 66.544C104.259 66.544 100.803 64.176 100.803 59.632C100.803 55.472 104.131 52.304 108.995 52.304C115.459 52.304 118.179 57.296 118.179 63.344C118.179 69.776 114.563 74.352 108.259 74.352C105.667 74.352 103.491 73.488 101.987 72.144ZM113.539 60.72C113.379 58.672 112.227 56.24 109.187 56.24C106.755 56.24 105.443 57.936 105.443 59.44C105.443 61.712 107.331 62.704 109.379 62.704C110.979 62.704 112.547 61.968 113.539 60.72Z" fill="#DFE1EE"/>
</svg>
