<svg width="32" height="28" viewBox="0 0 32 28" fill="none" xmlns="http://www.w3.org/2000/svg">
<path d="M27.5667 19.7254V7.38025C27.5667 6.93296 27.3878 6.57513 26.9405 6.30676L16.5634 0.134186C16.2056 -0.0447288 15.7583 -0.0447288 15.4005 0.134186L4.93394 6.30676C4.48665 6.48567 4.30774 6.93296 4.30774 7.38025V19.7254C4.30774 20.1727 4.48665 20.5305 4.93394 20.7989L15.4005 26.9714C15.7583 27.1504 16.2056 27.1504 16.5634 26.9714L27.03 20.7989C27.3878 20.5305 27.5667 20.1727 27.5667 19.7254Z" fill="#E8C8F8"/>
<path d="M25.5988 18.563V8.54372C25.5988 8.09643 25.4199 7.7386 24.9726 7.47022L16.5636 2.4606C16.2058 2.28169 15.7585 2.28169 15.4007 2.4606L6.9022 7.47022C6.54437 7.64914 6.276 8.09643 6.276 8.54372V18.563C6.276 19.0103 6.45492 19.3681 6.9022 19.6365L15.3112 24.6461C15.669 24.825 16.1163 24.825 16.4742 24.6461L24.8832 19.6365C25.3305 19.3681 25.5988 19.0103 25.5988 18.563Z" fill="#E2A8F8"/>
<path d="M25.5988 18.741V9.2585C25.5988 8.81121 25.3305 8.45338 24.9726 8.18501L20.0525 5.41182L19.0684 4.87508L16.4742 3.44376C16.1163 3.26484 15.669 3.26484 15.3112 3.44376L6.9022 8.18501C6.54437 8.36392 6.276 8.81121 6.276 9.2585V18.741C6.276 19.1883 6.54437 19.5461 6.9022 19.8145L15.3112 24.6452C15.669 24.8241 16.1163 24.8241 16.4742 24.6452L24.8832 19.8145C25.3305 19.6356 25.5988 19.1883 25.5988 18.741Z" fill="#F5E0FF"/>
<path opacity="0.05" d="M4.30774 7.82764V19.9044C4.30774 20.3517 4.48665 20.7095 4.93394 20.8884L15.4005 26.9716C15.7583 27.1505 16.2056 27.1505 16.5634 26.9716L25.0619 22.0514L4.30774 7.82764Z" fill="#993FF3"/>
<path opacity="0.12" d="M7.70713 4.69678L4.93394 6.30701C4.57611 6.57539 4.30774 6.93322 4.30774 7.3805L15.9372 15.3422L19.9628 12.569L7.70713 4.69678Z" fill="white"/>
<path opacity="0.05" d="M27.5668 7.82764V19.9044C27.5668 20.3517 27.3879 20.7095 26.9406 20.8884L16.474 26.9716C16.1162 27.1505 15.6689 27.1505 15.3111 26.9716L6.81262 22.0514L27.5668 7.82764Z" fill="#993FF3"/>
<path d="M11.7388 8.45758L13.6315 9.63064L15.5179 7.1756C15.5596 7.12129 15.6146 7.07702 15.6784 7.04648C15.7422 7.01593 15.813 7 15.8847 7C15.9565 7 16.0272 7.01593 16.091 7.04648C16.1548 7.07702 16.2099 7.12129 16.2516 7.1756L18.138 9.63064L20.0307 8.45758C20.1023 8.41328 20.1861 8.38896 20.2721 8.38751C20.3581 8.38605 20.4428 8.40752 20.5161 8.44938C20.5894 8.49124 20.6483 8.55173 20.6859 8.62371C20.7234 8.69569 20.7379 8.77615 20.7278 8.85558L19.9874 14.7071C19.9745 14.809 19.9218 14.9029 19.8393 14.9711C19.7568 15.0393 19.6503 15.077 19.5399 15.077H12.2295C12.1192 15.077 12.0126 15.0393 11.9301 14.9711C11.8477 14.9029 11.795 14.809 11.782 14.7071L11.0416 8.85517C11.0316 8.77577 11.0463 8.69537 11.0838 8.62345C11.1214 8.55154 11.1803 8.49111 11.2536 8.44931C11.3269 8.40751 11.4115 8.38608 11.4975 8.38754C11.5835 8.38901 11.6672 8.41331 11.7388 8.45758ZM15.8847 12.5633C16.1238 12.5633 16.353 12.475 16.522 12.3179C16.6911 12.1607 16.786 11.9476 16.786 11.7254C16.786 11.5032 16.6911 11.29 16.522 11.1329C16.353 10.9758 16.1238 10.8875 15.8847 10.8875C15.6457 10.8875 15.4165 10.9758 15.2474 11.1329C15.0784 11.29 14.9834 11.5032 14.9834 11.7254C14.9834 11.9476 15.0784 12.1607 15.2474 12.3179C15.4165 12.475 15.6457 12.5633 15.8847 12.5633Z" fill="url(#paint0_linear_6525_25129)"/>
<path opacity="0.8" d="M23.125 8.12618C22.5683 8.00205 22.1313 7.57447 22.0047 7.03103C21.9935 6.98966 21.9393 6.98966 21.9295 7.03103C21.8029 7.57447 21.3645 8.00205 20.8092 8.12618C20.766 8.13722 20.766 8.18963 20.8092 8.20067C21.3659 8.3248 21.8029 8.75238 21.9295 9.29582C21.9407 9.33719 21.9949 9.33719 22.0047 9.29582C22.1313 8.75238 22.5697 8.3248 23.125 8.20067C23.1654 8.18963 23.1654 8.13446 23.125 8.12618ZM20.7465 10.3248C20.3109 10.2144 19.9658 9.87787 19.853 9.45168C19.8419 9.4103 19.7848 9.4103 19.7723 9.45168C19.6596 9.87787 19.3144 10.2144 18.8788 10.3248C18.8356 10.3358 18.8356 10.391 18.8788 10.4048C19.3144 10.5151 19.6596 10.8516 19.7723 11.2778C19.7834 11.3192 19.8405 11.3192 19.853 11.2778C19.9658 10.8516 20.3109 10.5151 20.7465 10.4048C20.7897 10.391 20.7897 10.3358 20.7465 10.3248Z" fill="white"/>
<path d="M10.9609 16.8477H11.508L12.3523 19.3548H12.3653L13.2096 16.8477H13.7567L12.6625 19.9234H12.0551L10.9609 16.8477Z" fill="#993FF3"/>
<path d="M14.0805 16.8477H14.5845V19.9234H14.0805V16.8477Z" fill="#993FF3"/>
<path d="M15.1869 16.8477H16.462C17.2029 16.8477 17.5777 17.1621 17.5777 17.7911C17.5777 18.4243 17.2029 18.7431 16.4534 18.7431H15.6909V19.9234H15.1869V16.8477ZM15.6909 17.2784V18.3123H16.4232C16.6472 18.3123 16.8109 18.2692 16.9143 18.1917C17.0177 18.1098 17.0694 17.9763 17.0694 17.7911C17.0694 17.6058 17.0134 17.4766 16.91 17.3991C16.8066 17.3172 16.6429 17.2784 16.4232 17.2784H15.6909Z" fill="#993FF3"/>
<path d="M18.9659 16.7874C19.3407 16.7874 19.6293 16.9209 19.8275 17.1923C20.0256 17.4594 20.1247 17.8255 20.1247 18.2994C20.1247 18.7991 20.017 19.2083 19.8103 19.5185C19.5992 19.8286 19.3149 19.9837 18.9616 19.9837C18.3542 19.9837 18.0139 19.7037 17.9407 19.1437H18.4318C18.4921 19.428 18.6687 19.5701 18.9659 19.5701C19.1684 19.5701 19.3321 19.4668 19.457 19.2686C19.5733 19.0791 19.6336 18.8421 19.6336 18.5578V18.5191H19.6121C19.5216 18.644 19.4139 18.7388 19.289 18.7991C19.1684 18.8551 19.0306 18.8852 18.8755 18.8852C18.5739 18.8852 18.3284 18.7861 18.1475 18.588C17.9665 18.3984 17.8804 18.1529 17.8804 17.8514C17.8804 17.5412 17.9838 17.287 18.1905 17.0889C18.3973 16.8864 18.6558 16.7874 18.9659 16.7874ZM18.9832 17.2052C18.8022 17.2052 18.6558 17.2655 18.5438 17.3861C18.4318 17.5067 18.3801 17.6618 18.3801 17.8514C18.3801 18.0409 18.4318 18.1917 18.5438 18.3037C18.6472 18.4157 18.7936 18.476 18.9832 18.476C19.1684 18.476 19.3149 18.4157 19.4226 18.3037C19.5259 18.1874 19.5819 18.0323 19.5819 17.8341C19.5819 17.636 19.5259 17.4852 19.4139 17.3732C19.3019 17.2612 19.1555 17.2052 18.9832 17.2052Z" fill="#993FF3"/>
<path opacity="0.8" d="M1.38283e-05 9.69214L4.30774 10.9845V16.1537C1.7607 15.3896 1.38283e-05 12.9023 1.38283e-05 10.0685V9.69214Z" fill="#B773FB"/>
<path opacity="0.8" d="M31.7694 9.69214L27.4617 10.9845V16.1537C30.0087 15.3896 31.7694 12.9023 31.7694 10.0685V9.69214Z" fill="#B773FB"/>
<defs>
<linearGradient id="paint0_linear_6525_25129" x1="15.8848" y1="7" x2="15.8848" y2="15.077" gradientUnits="userSpaceOnUse">
<stop stop-color="#993FF3" stop-opacity="0.2"/>
<stop offset="1" stop-color="#993FF3"/>
</linearGradient>
</defs>
</svg>
