<svg width="28" height="25" viewBox="0 0 28 25" fill="none" xmlns="http://www.w3.org/2000/svg">
<path fill-rule="evenodd" clip-rule="evenodd" d="M13.65 3.94319C13.895 4.31681 14.0932 4.71319 14.2332 5.13319L16.2632 5.635V8.28319L14.245 8.79681C14.0139 9.45761 13.6574 10.0676 13.195 10.5932L13.7782 12.6L11.48 13.9182L10.0332 12.4132C9.695 12.4832 9.345 12.5182 8.995 12.5182C8.645 12.5182 8.295 12.4832 7.95681 12.4132L6.49819 13.9182L4.21181 12.6L4.78319 10.5932C4.32809 10.0664 3.97953 9.45636 3.75681 8.79681L1.715 8.28319V5.635L3.75681 5.13319C3.8891 4.70899 4.08579 4.30764 4.34 3.94319C4.46819 3.73319 4.62 3.52319 4.78319 3.33681L4.21181 1.31819L6.49819 0L7.95681 1.505C8.295 1.435 8.645 1.4 8.995 1.4C9.345 1.4 9.695 1.435 10.0332 1.505L11.48 0L13.7782 1.31819L13.195 3.325C13.366 3.51608 13.5184 3.72309 13.65 3.94319ZM6.83681 6.965C6.83762 7.53714 7.06526 8.08561 7.46983 8.49018C7.87439 8.89474 8.42286 9.12238 8.995 9.12319C9.56714 9.12238 10.1156 8.89474 10.5202 8.49018C10.9247 8.08561 11.1524 7.53714 11.1532 6.965C11.1524 6.39286 10.9247 5.84439 10.5202 5.43983C10.1156 5.03526 9.56714 4.80762 8.995 4.80681C8.42286 4.80762 7.87439 5.03526 7.46983 5.43983C7.06526 5.84439 6.83762 6.39286 6.83681 6.965ZM17.0918 14.7814V14.105C17.0918 12.25 18.5968 10.745 20.4518 10.745H28V5.53C28 4.655 27.2882 3.94319 26.4132 3.94319H16.695C17.465 4.13 18.0132 4.83 18.0132 5.635V8.28319C18.0132 9.08819 17.465 9.78819 16.6832 9.975L15.47 10.29C15.365 10.5 15.2368 10.71 15.1082 10.9082L15.4582 12.1214C15.68 12.8914 15.3418 13.7082 14.6532 14.1164L12.355 15.435C12.0868 15.5982 11.7832 15.6682 11.48 15.6682C11.025 15.6682 10.5582 15.4932 10.22 15.1432L9.36819 14.2568C9.11181 14.2682 8.86681 14.2682 8.61 14.2568L7.75819 15.1432C7.48597 15.4232 7.12788 15.604 6.74096 15.6569C6.35404 15.7098 5.96056 15.6317 5.62319 15.435L3.33681 14.1164C2.99889 13.9217 2.73596 13.6194 2.59003 13.2578C2.4441 12.8962 2.42361 12.496 2.53181 12.1214L2.87 10.9082C2.74181 10.71 2.625 10.5 2.50819 10.29L1.295 9.975C0.972822 9.89576 0.679896 9.72635 0.450542 9.48662C0.221188 9.24688 0.064904 8.94674 0 8.62138L0 23.3564C0 24.2314 0.711813 24.9432 1.58681 24.9432H26.4132C27.2882 24.9432 28 24.2314 28 23.3564V18.1414H20.4518C18.5968 18.1414 17.0918 16.6364 17.0918 14.7814ZM20.4518 12.495C20.0251 12.4958 19.616 12.6657 19.3143 12.9675C19.0125 13.2692 18.8426 13.6783 18.8418 14.105V14.7818C18.8426 15.2086 19.0125 15.6176 19.3143 15.9194C19.616 16.2211 20.0251 16.391 20.4518 16.3918H28V12.495H20.4514H20.4518Z" fill="currentColor"/>
</svg>
