<svg width="18" height="18" viewBox="0 0 18 18" fill="none" xmlns="http://www.w3.org/2000/svg">
<g id="Frame">
<g id="&#233;&#161;&#181;&#233;&#157;&#162;-1">
<g id="&#233;&#146;&#177;&#229;&#140;&#133;&#232;&#174;&#190;&#228;&#184;&#186;">
<path id="&#232;&#183;&#175;&#229;&#190;&#132;" d="M12.6856 8.63965H16.9991V10.8661H12.6856C12.1791 10.8661 11.7656 10.4526 11.7656 9.94615V9.55965C11.7656 9.05315 12.1791 8.63965 12.6856 8.63965Z" fill="currentColor"/>
<path id="&#232;&#183;&#175;&#229;&#190;&#132;_2" d="M10.766 9.56041V9.94691C10.766 11.0069 11.626 11.8669 12.686 11.8669H16.9995V14.8469C16.9995 15.3469 16.593 15.7534 16.093 15.7534H1.9065C1.4065 15.7534 1 15.3469 1 14.8469V6.42691C1.0735 6.80041 1.36 7.10691 1.74 7.20041L2.4335 7.38041C2.5 7.50041 2.567 7.62041 2.64 7.73391L2.4465 8.42741C2.32 8.86741 2.5065 9.33391 2.9065 9.56741L4.213 10.3209C4.613 10.5544 5.113 10.4809 5.433 10.1544L5.9195 9.64791C6.066 9.65441 6.206 9.65441 6.353 9.64791L6.8395 10.1544C7.033 10.3544 7.2995 10.4544 7.5595 10.4544C7.733 10.4544 7.906 10.4144 8.0595 10.3209L9.373 9.56741C9.7665 9.33391 9.9595 8.86741 9.833 8.42741L9.633 7.73391C9.7065 7.62041 9.7795 7.50041 9.8395 7.38041L10.533 7.20041C10.9795 7.09391 11.293 6.69391 11.293 6.23391V4.72041C11.293 4.26041 10.9795 3.86041 10.5395 3.75391H16.093C16.593 3.75391 16.9995 4.16041 16.9995 4.66041V7.64041H12.686C11.626 7.64041 10.766 8.50041 10.766 9.56041Z" fill="currentColor"/>
<path id="&#232;&#183;&#175;&#229;&#190;&#132;_3" d="M16.9991 8.63965V10.8661H12.6856C12.1791 10.8661 11.7656 10.4526 11.7656 9.94615V9.55965C11.7656 9.05315 12.1791 8.63965 12.6856 8.63965H16.9991Z" fill="currentColor"/>
<path id="&#229;&#189;&#162;&#231;&#138;&#182;" d="M9.13447 4.4335C9.05447 4.1935 8.94097 3.967 8.80097 3.7535C8.72747 3.627 8.63447 3.507 8.54097 3.4L8.87447 2.2535L7.56097 1.5L6.73447 2.36C6.54097 2.32 6.34097 2.3 6.14097 2.3C5.94097 2.3 5.74097 2.32 5.54747 2.36L4.71397 1.5L3.40747 2.2535L3.73397 3.407C3.64047 3.5135 3.55397 3.6335 3.48047 3.7535C3.33397 3.967 3.22047 4.1935 3.14697 4.4335L1.98047 4.72V6.2335L3.14697 6.527C3.27347 6.907 3.48047 7.2605 3.73347 7.5535L3.40697 8.7L4.71347 9.4535L5.54697 8.5935C5.74047 8.6335 5.94047 8.6535 6.14047 8.6535C6.34047 8.6535 6.54047 8.6335 6.73397 8.5935L7.56047 9.4535L8.87397 8.7L8.54047 7.5535C8.80047 7.26 9.00697 6.907 9.14047 6.527L10.294 6.2335V4.72L9.13397 4.4335H9.13447ZM6.14097 6.7135C5.46097 6.7135 4.90747 6.16 4.90747 5.48C4.90747 4.8 5.46097 4.2465 6.14097 4.2465C6.82097 4.2465 7.37447 4.8 7.37447 5.48C7.37447 6.16 6.82097 6.7135 6.14097 6.7135Z" fill="currentColor"/>
</g>
</g>
</g>
</svg>
