<svg width="24" height="24" viewBox="0 0 24 24" fill="none" xmlns="http://www.w3.org/2000/svg">
<g id="svgexport-38 1" clip-path="url(#clip0_52_4218)">
<path id="Vector" fill-rule="evenodd" clip-rule="evenodd" d="M12 2.31C17.352 2.31 21.69 6.648 21.69 12C21.69 17.352 17.352 21.69 12 21.69C6.648 21.69 2.31 17.352 2.31 12C2.316 6.651 6.651 2.316 11.9993 2.31H12ZM12 0C5.37225 0 0 5.37225 0 12C0 18.6278 5.37225 24 12 24C18.6278 24 24 18.6278 24 12C24 5.37225 18.6278 0 12 0ZM12.0005 7.08C14.7177 7.08 16.9205 9.2825 16.9205 12C16.9205 14.7172 14.7177 16.92 12.0005 16.92C9.28325 16.92 7.0805 14.7172 7.0805 12C7.0865 9.285 9.2855 7.086 11.9998 7.08H12.0005ZM12.0005 4.77C8.0075 4.77 4.7705 8.007 4.7705 12C4.7705 15.993 8.0075 19.23 12.0005 19.23C15.9935 19.23 19.2305 15.993 19.2305 12C19.2305 8.007 15.9935 4.77 12.0005 4.77ZM12 14.46C13.359 14.46 14.46 13.3582 14.46 12C14.46 10.6418 13.3582 9.54 12 9.54C10.6418 9.54 9.54 10.641 9.54 12C9.53993 12.3231 9.60352 12.643 9.72712 12.9415C9.85073 13.24 10.0319 13.5112 10.2604 13.7396C10.4888 13.9681 10.76 14.1493 11.0585 14.2729C11.357 14.3965 11.6769 14.4601 12 14.46Z" fill="#008A01"/>
</g>
<defs>
<clipPath id="clip0_52_4218">
<rect width="24" height="24" fill="white"/>
</clipPath>
</defs>
</svg>
