<svg width="20" height="20" viewBox="0 0 20 20" fill="none" xmlns="http://www.w3.org/2000/svg">
<g id="svgexport-21 (1) 1">
<path id="Vector" d="M5.45469 8.06813H4.09062V6.65C4.09062 5.17719 5.29063 3.97719 6.76344 3.97719H13.2359C14.2359 3.97719 15.0906 4.53187 15.5544 5.34094H18.4725C17.8819 2.99531 15.7634 1.25 13.2362 1.25H6.76375C3.79094 1.25 1.36375 3.66813 1.36375 6.65V8.06813H0L2.72719 12.6137L5.45469 8.06813ZM20 12.6137L17.2728 8.06813L14.5453 12.6137H15.9091V13.1228C15.9091 14.5953 14.7091 15.7953 13.2362 15.7953H6.76375C5.76375 15.7953 4.90906 15.2409 4.44531 14.4319H1.52719C2.11812 16.7772 4.23656 18.5225 6.76375 18.5225H13.2362C16.2091 18.5225 18.6362 16.1047 18.6362 13.1225V12.6137H20Z" fill="#00E701"/>
<path id="Vector_2" d="M8.31817 5.34064L5.30005 13.5231H7.99067L8.30942 12.4684H11.4454L11.7638 13.5231H14.4544L11.4363 5.34064H8.31817ZM8.94536 10.4047L9.88192 7.52282L10.8182 10.4047H8.94536Z" fill="#00E701"/>
</g>
</svg>
