<svg width="16" height="16" viewBox="0 0 16 16" fill="none" xmlns="http://www.w3.org/2000/svg">
<g id="svgexport-291 1" clip-path="url(#clip0_4_4604)">
<path id="Vector" d="M15.9825 8.0175C15.9825 12.4262 12.4088 16 8.00035 16C3.59152 16 0.0175171 12.426 0.0175171 8.0175C0.0175171 3.60884 3.59168 0.0350037 8.00018 0.0350037C12.4087 0.0350037 15.9827 3.60884 15.9827 8.0175H15.9825Z" fill="#F7931A"/>
<path id="Vector_2" d="M11.5875 7.03C11.7425 5.985 10.9475 5.4225 9.85752 5.0475L10.21 3.63L9.35002 3.415L9.00002 4.795C8.77252 4.7375 8.54002 4.685 8.31002 4.6325L8.66002 3.25L7.79752 3.035L7.44502 4.45C7.25752 4.4075 7.07252 4.365 6.89502 4.32L5.70502 4.0225L5.47752 4.9425C5.47752 4.9425 6.11752 5.09 6.10252 5.0975C6.22181 5.11211 6.33065 5.17278 6.40582 5.26654C6.481 5.3603 6.51654 5.47973 6.50486 5.59934L6.50502 5.59767L6.10252 7.21267C6.13802 7.22084 6.16819 7.23034 6.19719 7.24167L6.19252 7.24L6.10252 7.2175L5.53752 9.4675C5.52517 9.5072 5.50504 9.54404 5.47829 9.57588C5.45155 9.60771 5.41874 9.6339 5.38177 9.65292C5.3448 9.67194 5.30442 9.68341 5.26297 9.68666C5.22152 9.6899 5.17984 9.68487 5.14036 9.67184L5.14252 9.6725L4.51502 9.5175L4.08752 10.5L5.21002 10.7775L5.82502 10.9375L5.46752 12.37L6.33002 12.585L6.68252 11.1675C6.91752 11.23 7.14502 11.29 7.37002 11.345L7.01752 12.7575L7.88002 12.9725L8.23502 11.5425C9.70752 11.82 10.8125 11.7075 11.2775 10.3775C11.6525 9.3075 11.26 8.69 10.485 8.2875C11.05 8.1675 11.4725 7.795 11.5875 7.03ZM9.61502 9.7925C9.35002 10.865 7.54752 10.2925 6.96252 10.14L7.43502 8.25C8.02002 8.3875 9.89502 8.6775 9.61502 9.7925ZM9.88252 7.015C9.63252 7.99 8.13252 7.4925 7.65252 7.3725L8.08252 5.6525C8.56752 5.7725 10.135 6 9.88252 7.015Z" fill="white"/>
</g>
<defs>
<clipPath id="clip0_4_4604">
<rect width="16" height="16" fill="white"/>
</clipPath>
</defs>
</svg>
