<svg width="69" height="77" viewBox="0 0 69 77" fill="none" xmlns="http://www.w3.org/2000/svg">
<path d="M65.2655 16.6993L37.9134 0.915229C36.8751 0.31752 35.698 0.00292969 34.5 0.00292969C33.3019 0.00292969 32.1249 0.31752 31.0866 0.915229L3.7495 16.6993C2.7104 17.2975 1.84716 18.1588 1.24663 19.1965C0.646107 20.2343 0.329483 21.4119 0.328613 22.6109L0.328613 54.119C0.329483 55.318 0.646107 56.4956 1.24663 57.5334C1.84716 58.5711 2.7104 59.4324 3.7495 60.0306L31.0866 75.8897C32.1249 76.4874 33.3019 76.802 34.5 76.802C35.698 76.802 36.8751 76.4874 37.9134 75.8897L65.2655 60.1056C66.3008 59.5044 67.1602 58.642 67.7578 57.6047C68.3555 56.5673 68.6705 55.3913 68.6714 54.1941V22.6859C68.6837 21.476 68.375 20.2844 67.7767 19.2328C67.1784 18.1811 66.3118 17.3069 65.2655 16.6993Z" fill="white"/>
<path d="M32.0318 36.9696L3.10433 20.2703C2.82417 20.1067 2.50585 20.02 2.18146 20.0187C1.85707 20.0174 1.53807 20.1016 1.25661 20.2629C0.975148 20.4241 0.741167 20.6567 0.578246 20.9373C0.415325 21.2178 0.329222 21.5363 0.328613 21.8607L0.328613 54.8692C0.329334 55.8389 0.584721 56.7914 1.06922 57.6314C1.55371 58.4713 2.25032 59.1693 3.08933 59.6555L31.7318 76.1598C32.5763 76.6447 33.5337 76.8983 34.5075 76.895C38.7531 65.3601 38.7531 52.6905 34.5075 41.1557C34.4899 40.3039 34.2527 39.4711 33.819 38.7377C33.3854 38.0044 32.7698 37.3954 32.0318 36.9696Z" fill="#E9F0F5"/>
<path d="M65.8956 20.2703L36.9681 36.9696C36.2177 37.4063 35.5954 38.0327 35.1635 38.7859C34.7316 39.539 34.5054 40.3925 34.5075 41.2607V77C35.4763 77.0014 36.4284 76.7478 37.2682 76.2648L65.9106 59.7605C66.7496 59.2744 67.4462 58.5764 67.9307 57.7364C68.4152 56.8964 68.6706 55.944 68.6713 54.9743V21.9657C68.69 21.6325 68.618 21.3005 68.4629 21.0049C68.3078 20.7094 68.0755 20.4615 67.7907 20.2875C67.5059 20.1136 67.1793 20.0201 66.8456 20.017C66.5118 20.014 66.1835 20.1015 65.8956 20.2703Z" fill="#D3DEE6"/>
</svg>
