<svg width="16" height="16" viewBox="0 0 16 16" fill="none" xmlns="http://www.w3.org/2000/svg">
<g id="svgexport-10 1">
<path id="Vector" d="M4.595 7.476C6.186 7.476 7.476 6.186 7.476 4.595C7.476 3.004 6.186 1.714 4.595 1.714C3.004 1.714 1.71375 3.004 1.71375 4.595C1.71375 6.186 3.004 7.476 4.595 7.476ZM4.595 3.8095C4.69816 3.80951 4.80032 3.82985 4.89563 3.86935C4.99094 3.90884 5.07754 3.96673 5.15048 4.03969C5.22342 4.11265 5.28128 4.19927 5.32074 4.29459C5.36021 4.38991 5.38051 4.49208 5.3805 4.59525C5.38048 4.69842 5.36014 4.80057 5.32065 4.89588C5.28115 4.99119 5.22327 5.07779 5.1503 5.15073C5.07734 5.22367 4.99072 5.28153 4.8954 5.32099C4.80008 5.36046 4.69791 5.38076 4.59475 5.38075C4.38638 5.38075 4.18656 5.29798 4.03922 5.15064C3.89189 5.00331 3.80912 4.80348 3.80912 4.59512C3.80912 4.38676 3.89189 4.18693 4.03922 4.0396C4.18656 3.89227 4.38663 3.8095 4.595 3.8095ZM11.405 8.524C9.814 8.524 8.524 9.814 8.524 11.405C8.524 12.996 9.814 14.286 11.405 14.286C12.996 14.286 14.286 12.996 14.286 11.405C14.286 9.814 12.996 8.524 11.405 8.524ZM11.405 12.1905C11.1966 12.1905 10.9968 12.1077 10.8495 11.9604C10.7021 11.8131 10.6194 11.6132 10.6194 11.4049C10.6194 11.1965 10.7021 10.9967 10.8495 10.8494C10.9968 10.702 11.1966 10.6192 11.405 10.6192C11.6134 10.6192 11.8132 10.702 11.9605 10.8494C12.1078 10.9967 12.1906 11.1965 12.1906 11.4049C12.1906 11.6132 12.1078 11.8131 11.9605 11.9604C11.8132 12.1077 11.6134 12.1905 11.405 12.1905ZM11.5512 1.7145L1.71425 14.286H4.37525L14.2125 1.7145H11.5512Z" fill="#B1BAD3"/>
</g>
</svg>
