<svg width="14" height="14" viewBox="0 0 14 14" fill="none" xmlns="http://www.w3.org/2000/svg">
<g clip-path="url(#clip0_6_4650)">
<path fill-rule="evenodd" clip-rule="evenodd" d="M5.10563 3.52844H11.4866L10.2003 4.8125L11.1278 5.74L14 2.87219L11.1278 0L10.2003 0.9275L11.4866 2.21594H5.10563C3.41425 2.21594 2.04313 3.58706 2.04313 5.27844H3.35563C3.35563 4.81431 3.54 4.36919 3.86819 4.041C4.19638 3.71281 4.6415 3.52844 5.10563 3.52844ZM8.89437 10.4716H2.51344L3.79969 9.1875L2.87219 8.26L0 11.1278L2.87219 14L3.79969 13.0725L2.51344 11.7841H8.89437C10.5857 11.7841 11.9569 10.4129 11.9569 8.72156H10.6444C10.6444 9.18569 10.46 9.63081 10.1318 9.959C9.80362 10.2872 9.3585 10.4716 8.89437 10.4716ZM7.75031 7.75031V9.625H6.24969V7.75031H4.375V6.24969H6.24969V4.375H7.75031V6.24969H9.625V7.75031H7.75031Z" fill="#B1BAD3"/>
</g>
<defs>
<clipPath id="clip0_6_4650">
<rect width="14" height="14" fill="white"/>
</clipPath>
</defs>
</svg>
