<?xml version="1.0" encoding="UTF-8" standalone="no"?>
<!DOCTYPE svg PUBLIC "-//W3C//DTD SVG 1.1//EN" "http://www.w3.org/Graphics/SVG/1.1/DTD/svg11.dtd">
<svg width="100%" height="100%" viewBox="0 0 962 591" version="1.1" xmlns="http://www.w3.org/2000/svg" xmlns:xlink="http://www.w3.org/1999/xlink" xml:space="preserve" xmlns:serif="http://www.serif.com/" style="fill-rule:evenodd;clip-rule:evenodd;stroke-linejoin:round;stroke-miterlimit:2;">
    <g transform="matrix(2.6169,0,0,2.6169,223.592,-0.000485069)">
        <g id="Layer-1" serif:id="Layer 1">
            <g transform="matrix(1,0,0,1,237.875,225.84)">
                <path d="M0,-37.64L21.63,0L43.249,-37.64L0,-37.64Z" style="fill:rgb(18,36,49);fill-rule:nonzero;stroke:rgb(17,35,48);stroke-width:0.53px;"/>
            </g>
            <g transform="matrix(1,0,0,1,194.625,225.84)">
                <path d="M0,-37.64L21.63,0L43.25,-37.64L0,-37.64Z" style="fill:rgb(21,40,52);fill-rule:nonzero;stroke:rgb(17,35,48);stroke-width:0.53px;"/>
            </g>
            <g transform="matrix(1,0,0,1,151.375,225.84)">
                <path d="M0,-37.64L21.631,0L43.25,-37.64L0,-37.64Z" style="fill:rgb(21,40,52);fill-rule:nonzero;stroke:rgb(17,35,48);stroke-width:0.53px;"/>
            </g>
            <g transform="matrix(1,0,0,1,64.8747,225.84)">
                <path d="M0,-37.64L21.631,0L43.25,-37.64L0,-37.64Z" style="fill:rgb(21,40,52);fill-rule:nonzero;stroke:rgb(17,35,48);stroke-width:0.53px;"/>
            </g>
            <g transform="matrix(1,0,0,1,0,188.2)">
                <path d="M0,37.64L43.25,37.64L21.62,0L0,37.64Z" style="fill:rgb(18,37,49);fill-rule:nonzero;stroke:rgb(17,35,48);stroke-width:0.53px;"/>
            </g>
            <g transform="matrix(1,0,0,1,43.2504,188.2)">
                <path d="M0,37.64L43.25,37.64L21.62,0L0,37.64Z" style="fill:rgb(18,37,49);fill-rule:nonzero;stroke:rgb(18,36,49);stroke-width:0.53px;"/>
            </g>
            <g transform="matrix(1,0,0,1,86.4999,188.2)">
                <path d="M0,37.64L43.25,37.64L21.62,0L0,37.64Z" style="fill:rgb(18,36,49);fill-rule:nonzero;stroke:rgb(18,36,49);stroke-width:0.53px;"/>
            </g>
            <g transform="matrix(1,0,0,1,129.75,188.2)">
                <path d="M0,37.64L43.25,37.64L21.62,0L0,37.64Z" style="fill:rgb(25,44,56);fill-rule:nonzero;stroke:rgb(25,44,56);stroke-width:0.53px;"/>
            </g>
            <g transform="matrix(1,0,0,1,64.875,150.56)">
                <path d="M0,37.64L21.62,0L43.25,37.64L0,37.64Z" style="fill:rgb(18,37,49);fill-rule:nonzero;stroke:rgb(18,36,49);stroke-width:0.53px;"/>
            </g>
            <g transform="matrix(1,0,0,1,108.125,150.56)">
                <path d="M0,37.64L21.62,0L43.25,37.64L0,37.64Z" style="fill:rgb(18,36,49);fill-rule:nonzero;stroke:rgb(17,35,48);stroke-width:0.53px;"/>
            </g>
            <g transform="matrix(1,0,0,1,151.375,150.56)">
                <path d="M0,37.64L21.62,0L43.25,37.64L0,37.64Z" style="fill:rgb(25,44,56);fill-rule:nonzero;stroke:rgb(25,44,56);stroke-width:0.53px;"/>
            </g>
            <g transform="matrix(1,0,0,1,194.625,150.56)">
                <path d="M0,37.64L21.62,0L43.25,37.64L0,37.64Z" style="fill:rgb(15,33,46);fill-rule:nonzero;stroke:rgb(17,35,48);stroke-width:0.53px;"/>
            </g>
            <g transform="matrix(1,0,0,1,86.5,112.92)">
                <path d="M0,37.64L21.62,0L43.25,37.64L0,37.64Z" style="fill:rgb(22,40,54);fill-rule:nonzero;stroke:rgb(21,40,52);stroke-width:0.53px;"/>
            </g>
            <g transform="matrix(1,0,0,1,129.75,112.92)">
                <path d="M0,37.64L21.62,0L43.25,37.64L0,37.64Z" style="fill:rgb(18,37,49);fill-rule:nonzero;stroke:rgb(17,35,48);stroke-width:0.53px;"/>
            </g>
            <g transform="matrix(1,0,0,1,173,112.92)">
                <path d="M0,37.64L21.62,0L43.25,37.64L0,37.64Z" style="fill:rgb(18,36,49);fill-rule:nonzero;stroke:rgb(17,35,48);stroke-width:0.53px;"/>
            </g>
            <g transform="matrix(1,0,0,1,216.25,112.92)">
                <path d="M0,37.64L21.62,0L43.25,37.64L0,37.64Z" style="fill:rgb(18,36,49);fill-rule:nonzero;stroke:rgb(17,35,48);stroke-width:0.53px;"/>
            </g>
            <g transform="matrix(1,0,0,1,64.875,75.28)">
                <path d="M0,37.64L21.62,0L43.25,37.64L0,37.64Z" style="fill:rgb(18,37,49);fill-rule:nonzero;stroke:rgb(17,35,48);stroke-width:0.53px;"/>
            </g>
            <g transform="matrix(1,0,0,1,151.375,75.28)">
                <path d="M0,37.64L21.62,0L43.25,37.64L0,37.64Z" style="fill:rgb(21,40,52);fill-rule:nonzero;stroke:rgb(21,40,52);stroke-width:0.53px;"/>
            </g>
            <g transform="matrix(1,0,0,1,194.625,75.28)">
                <path d="M0,37.64L21.62,0L43.25,37.64L0,37.64Z" style="fill:rgb(18,36,49);fill-rule:nonzero;stroke:rgb(17,35,48);stroke-width:0.53px;"/>
            </g>
            <g transform="matrix(1,0,0,1,173,37.6399)">
                <path d="M0,37.64L21.62,0L43.25,37.64L0,37.64Z" style="fill:rgb(23,40,53);fill-rule:nonzero;stroke:rgb(17,35,48);stroke-width:0.53px;"/>
            </g>
            <g transform="matrix(1,0,0,1,216.25,37.6399)">
                <path d="M0,37.64L21.62,0L43.25,37.64L0,37.64Z" style="fill:rgb(23,42,54);fill-rule:nonzero;stroke:rgb(17,35,48);stroke-width:0.53px;"/>
            </g>
            <g transform="matrix(1,0,0,1,216.245,37.6403)">
                <path d="M0,-37.64L-21.62,0L21.631,0L0,-37.64Z" style="fill:rgb(18,36,49);fill-rule:nonzero;stroke:rgb(17,35,48);stroke-width:0.53px;"/>
            </g>
            <g transform="matrix(1,0,0,1,259.5,188.2)">
                <path d="M0,-37.64L-21.62,0L-43.25,-37.64L0,-37.64Z" style="fill:rgb(21,40,52);fill-rule:nonzero;stroke:rgb(17,35,48);stroke-width:0.53px;"/>
            </g>
            <g transform="matrix(1,0,0,1,216.25,188.2)">
                <path d="M0,-37.64L-21.62,0L-43.25,-37.64L0,-37.64Z" style="fill:rgb(16,34,47);fill-rule:nonzero;stroke:rgb(17,35,48);stroke-width:0.53px;"/>
            </g>
            <g transform="matrix(1,0,0,1,173,188.2)">
                <path d="M0,-37.64L-21.62,0L-43.25,-37.64L0,-37.64Z" style="fill:rgb(21,40,52);fill-rule:nonzero;stroke:rgb(21,40,52);stroke-width:0.53px;"/>
            </g>
            <g transform="matrix(1,0,0,1,129.75,188.2)">
                <path d="M0,-37.64L-21.62,0L-43.25,-37.64L0,-37.64Z" style="fill:rgb(21,40,52);fill-rule:nonzero;stroke:rgb(21,40,52);stroke-width:0.53px;"/>
            </g>
            <g transform="matrix(1,0,0,1,237.875,150.561)">
                <path d="M0,-37.641L21.63,0L43.249,-37.641L0,-37.641Z" style="fill:rgb(23,42,54);fill-rule:nonzero;stroke:rgb(17,35,48);stroke-width:0.53px;"/>
            </g>
            <g transform="matrix(1,0,0,1,237.875,150.56)">
                <path d="M0,-37.64L-21.62,0L-43.25,-37.64L0,-37.64Z" style="fill:rgb(21,40,52);fill-rule:nonzero;stroke:rgb(17,35,48);stroke-width:0.53px;"/>
            </g>
            <g transform="matrix(1,0,0,1,194.625,150.56)">
                <path d="M0,-37.64L-21.62,0L-43.25,-37.64L0,-37.64Z" style="fill:rgb(21,40,53);fill-rule:nonzero;stroke:rgb(21,40,53);stroke-width:0.53px;"/>
            </g>
            <g transform="matrix(1,0,0,1,151.375,150.56)">
                <path d="M0,-37.64L-21.62,0L-43.25,-37.64L0,-37.64Z" style="fill:rgb(21,40,52);fill-rule:nonzero;stroke:rgb(21,40,52);stroke-width:0.53px;"/>
            </g>
            <g transform="matrix(1,0,0,1,216.25,112.92)">
                <path d="M0,-37.64L-21.62,0L-43.25,-37.64L0,-37.64Z" style="fill:rgb(20,37,50);fill-rule:nonzero;stroke:rgb(20,37,50);stroke-width:0.53px;"/>
            </g>
        </g>
    </g>
</svg>
