<svg id="B" xmlns="http://www.w3.org/2000/svg" viewBox="0 0 657 232.09"><defs><style>.cls-1{fill:#fff;fill-rule:evenodd;}</style></defs><g id="M"><path class="cls-1" d="M295.41,24l.06.27C295.47,24,295.45,23.93,295.41,24ZM286.48,8.82a35.77,35.77,0,0,0-11.33-5.65,75.86,75.86,0,0,0-17.58-3q-10.15,21.11-30.48,60.69c-13.55,26.39-34.56,71-54.88,106.72q-3.53-18.1-6.45-35.25c-1.95-11.43-4.58-30.32-6.4-42.51C156.78,72.55,153.77,12,152.06.15a62.24,62.24,0,0,0-21.68,2.26q-10.36,3-14.27,11.31c-4,12.34-15.1,45.85-42.28,125.58C60.48,178.44,56,199.74,42.31,204.13c-10.41,3.33-20.51,2.44-23.13-6.81-5.09-17.94,12.94-32.24,9.52-34C18.5,158,2.12,176.38.12,196c-1.31,12.87,8.28,24.21,15,29.94,7.17,6.15,24.35,7.15,35.39,5.45C64.91,228.75,73,223,83.14,198.68c27.06-65,42.12-136,43.52-140.86,2.35,37.66,7.48,85.09,8.2,93.23s4.91,46.41,5.69,51.94q18,4.14,26.77,2.64c5.86-1,8.4-1,15.17-8.31,9.45-10.23,19.8-31.26,33.67-56.67,15.15-27.77,44.93-93,44.93-93s-27.57,151.91-25.58,135q-1.95,16.59-1.17,23.75,1.17,11.31,11.33,12.82t25.4-.76c-1.56-2-2.55-9.09-1.56-17.15,4.89-39.8,11.19-83,18.93-130.65,2.62-16.13,6.46-45.66,7-46.63C294.35,19,292.11,13.26,286.48,8.82Z"/></g><g id="e"><path class="cls-1" d="M382,162.28a2.22,2.22,0,0,0-1.62.63c-4.56,4-30,22.43-35.38,25.45s-10.62,4.54-15.61,4.54q-6.82,0-9.92-5.32c-2.06-3.55-3.09-8.13-3.09-13.77v-4.07a58.31,58.31,0,0,0,20.49-3A51,51,0,0,0,354,157.23a45.64,45.64,0,0,0,11.55-15,40.3,40.3,0,0,0,3.9-19.09,19.63,19.63,0,0,0-6.67-14.24q-6.33-5.79-18.7-5.79-10.08,0-20.16,6a69,69,0,0,0-18.37,16.11,96,96,0,0,0-20.65,51.48q-1,15.33,7.15,25.19c5.42,6.57,10.17,10.57,23.87,10.47S363.24,202,380.71,177l3.9-11.58C384,163.33,383.1,162.28,382,162.28Zm-60.09-18.35a87.93,87.93,0,0,1,6-13.93,44.74,44.74,0,0,1,7.48-10.32q4.06-4.07,8.61-4.07,5.54,0,6.51,5.79t-2.44,13.14A46.85,46.85,0,0,1,337,148.94a42.5,42.5,0,0,1-19,9.85A104.54,104.54,0,0,1,321.92,143.93Z"/></g><g id="i"><path class="cls-1" d="M415.76,85.57a13.22,13.22,0,0,0,8.13-1.25,17.54,17.54,0,0,0,6-5.16,25.19,25.19,0,0,0,3.74-7.2,24.13,24.13,0,0,0,1.3-7.67q0-6.26-3.74-9.07a17.41,17.41,0,0,0-8.29-3.44q-6.82-.63-12.85,5.16a21.68,21.68,0,0,0-6.66,14.55,11.52,11.52,0,0,0,2.92,9.39A14.08,14.08,0,0,0,415.76,85.57Zm34.14,70.72c-1.51-1.46-2.82-2-3.9-1.57a1.93,1.93,0,0,0-1.3,1.26,114.62,114.62,0,0,1-7.48,14.39,79.72,79.72,0,0,1-8.94,12,41,41,0,0,1-9.6,8,16,16,0,0,1-9.1,2.5q-2.61,0-2.44-5a82.29,82.29,0,0,1,1.62-12.51q1.47-7.51,3.74-16.59t4.23-17.36q1.95-8.3,3.25-14.87t.65-9.07q-1.62-5.33-8.78-9.39a36.09,36.09,0,0,0-15.28-4.69,115.22,115.22,0,0,1-3.74,17.83q-3.09,11.27-6.51,23.47T380,168q-2.93,11.11-2.92,17.37a18.17,18.17,0,0,0,2.6,8.76,38.69,38.69,0,0,0,6.5,8.61,39.52,39.52,0,0,0,8.62,6.57,18.8,18.8,0,0,0,9.27,2.66q13.65,0,26.18-11.74t21-32.07Z"/></g><g id="b-2" data-name="b"><path class="cls-1" d="M559.74,97.08A30.58,30.58,0,0,0,552,84.8a28.91,28.91,0,0,0-11.14-6.44,44.51,44.51,0,0,0-13.17-1.94,40.93,40.93,0,0,0-19.65,4.87A61.32,61.32,0,0,0,492.89,92.4q2.43-10.92,4.05-19.69t3-16.56q1.41-7.8,2.63-15.21T505,25a12.07,12.07,0,0,0-1.82-7.6,25,25,0,0,0-6.28-6.82,39.77,39.77,0,0,0-9.32-5.27,34.57,34.57,0,0,0-10.53-2.53q.81,1.17-.41,8.58T473,30q-3.24,16-8.11,35.86t-9.52,39.76q-4.65,19.89-8.71,38t-6.07,30.6q-2.43,16,6.07,26.7t28,10.72a69.79,69.79,0,0,0,34.64-9,102.1,102.1,0,0,0,27.95-23,110.24,110.24,0,0,0,18.64-30.8,87.26,87.26,0,0,0,6.68-32.35Q562.57,104.87,559.74,97.08Zm-37.07,39a130.87,130.87,0,0,1-8.71,26.5,82.62,82.62,0,0,1-13.58,21.25q-7.89,8.77-16.81,8.77a7.81,7.81,0,0,1-8.1-7.8,74.53,74.53,0,0,1,1.62-13.44A179.13,179.13,0,0,1,481.75,153q3-9.93,7.09-20.07a136.33,136.33,0,0,1,8.71-18.13,64.43,64.43,0,0,1,9.92-13.25q5.26-5.27,10.54-5.26,4.46,0,6.07,4.48a33,33,0,0,1,1.62,11.11A117.09,117.09,0,0,1,522.67,136.06Z"/></g><g id="o"><path class="cls-1" d="M650,115.83q-7-10-23.91-10a43.12,43.12,0,0,0-24.39,7.35,71.8,71.8,0,0,0-18.86,18.3,87.93,87.93,0,0,0-12,23.94,78.57,78.57,0,0,0-4.23,24.25q0,15,9.59,24.88t25.21,9.86q14,0,24.39-7.2a63.32,63.32,0,0,0,17.4-18.15,83.57,83.57,0,0,0,10.4-23.94A96.5,96.5,0,0,0,657,140.55Q657,125.84,650,115.83Zm-15.61,34a128,128,0,0,1-6.18,21,84.21,84.21,0,0,1-9.76,18.46q-5.69,8-12.85,8a5.56,5.56,0,0,1-4.22-1.72,10.84,10.84,0,0,1-2.44-4.38,30.84,30.84,0,0,1-1.14-5.32,37.89,37.89,0,0,1-.33-4.54,113.35,113.35,0,0,1,1.63-15.8,123.53,123.53,0,0,1,5.2-21,71.45,71.45,0,0,1,9.11-18.3q5.52-7.83,13.33-7.83A8.05,8.05,0,0,1,632,119.9a9.63,9.63,0,0,1,2.92,3.91,18.78,18.78,0,0,1,1.3,5.16,43.64,43.64,0,0,1,.33,5Q636.51,139.29,634.4,149.78Z"/></g></svg>