<svg width="296" height="234" viewBox="0 0 296 234" fill="none" xmlns="http://www.w3.org/2000/svg">
<path fill-rule="evenodd" clip-rule="evenodd" d="M295.41 25.0002L295.47 25.2702C295.47 25.0002 295.45 24.9302 295.41 25.0002ZM286.48 9.8202C283.069 7.27816 279.233 5.36487 275.15 4.1702C269.428 2.48246 263.528 1.4755 257.57 1.1702C250.803 15.2435 240.643 35.4735 227.09 61.8602C213.54 88.2502 192.53 132.86 172.21 168.58C169.857 156.514 167.707 144.764 165.76 133.33C163.81 121.9 161.18 103.01 159.36 90.8202C156.78 73.5502 153.77 13.0002 152.06 1.1502C144.757 0.622367 137.417 1.38743 130.38 3.4102C123.473 5.4102 118.717 9.1802 116.11 14.7202C112.11 27.0602 101.01 60.5702 73.83 140.3C60.48 179.44 56 200.74 42.31 205.13C31.9 208.46 21.8 207.57 19.18 198.32C14.09 180.38 32.12 166.08 28.7 164.32C18.5 159 2.12003 177.38 0.120032 197C-1.18997 209.87 8.40003 221.21 15.12 226.94C22.29 233.09 39.47 234.09 50.51 232.39C64.91 229.75 73 224 83.14 199.68C110.2 134.68 125.26 63.6802 126.66 58.8202C129.01 96.4802 134.14 143.91 134.86 152.05C135.58 160.19 139.77 198.46 140.55 203.99C152.55 206.75 161.473 207.63 167.32 206.63C173.18 205.63 175.72 205.63 182.49 198.32C191.94 188.09 202.29 167.06 216.16 141.65C231.31 113.88 261.09 48.6502 261.09 48.6502C261.09 48.6502 233.52 200.56 235.51 183.65C234.21 194.71 233.82 202.627 234.34 207.4C235.12 214.94 238.897 219.214 245.67 220.22C252.443 221.227 260.91 220.974 271.07 219.46C269.51 217.46 268.52 210.37 269.51 202.31C274.4 162.51 280.7 119.31 288.44 71.6602C291.06 55.5302 294.9 26.0002 295.44 25.0302C294.35 20.0002 292.11 14.2602 286.48 9.8202Z" fill="white"/>
</svg>
