<svg width="14" height="14" viewBox="0 0 14 14" fill="none" xmlns="http://www.w3.org/2000/svg">
<g clip-path="url(#clip0_49_603)">
<path d="M6.38225 4.57887C5.99331 5.2688 5.7645 6.09305 5.7645 6.97112C5.7645 7.84918 5.99375 8.67387 6.39494 9.3883L6.38225 9.36337C6.19763 9.41368 5.985 9.44343 5.76581 9.44562H5.7645C4.39994 9.44562 3.29394 8.33962 3.29394 6.97505C3.29394 5.61049 4.39994 4.50449 5.7645 4.50449H5.77325C5.98938 4.50449 6.19938 4.53162 6.39975 4.58237L6.38225 4.57843V4.57887ZM1.97663 5.3528C1.76706 5.83012 1.64544 6.38618 1.64544 6.97112C1.64544 7.55605 1.7675 8.11212 1.98712 8.61568L1.97663 8.58899C1.86448 8.59726 1.75187 8.59711 1.63975 8.58855L1.64719 8.58899C1.21033 8.58899 0.791358 8.41545 0.48245 8.10654C0.173542 7.79763 0 7.37867 0 6.9418C0 6.50494 0.173542 6.08598 0.48245 5.77707C0.791358 5.46816 1.21033 5.29462 1.64719 5.29462C1.771 5.30687 1.883 5.32743 1.99194 5.35587L1.97663 5.35237V5.3528ZM10.7061 10.2939C8.88694 10.2939 7.41212 8.81912 7.41212 6.99999C7.41212 5.18087 8.88694 3.70605 10.7061 3.70605C12.5252 3.70605 14 5.18087 14 6.99999C13.986 8.79724 12.5352 10.2511 10.7406 10.2694H10.7389L10.7061 10.2939Z" fill="#2F4553"/>
</g>
<defs>
<clipPath id="clip0_49_603">
<rect width="14" height="14" fill="white"/>
</clipPath>
</defs>
</svg>
