<svg width="16" height="16" viewBox="0 0 16 16" fill="none" xmlns="http://www.w3.org/2000/svg">
	<path fill-rule="evenodd" clip-rule="evenodd" d="M5.66667 3.33335C5.66667 4.62218 6.71167 5.66668 8.00017 5.66668C9.28917 5.66668 10.3337 4.62168 10.3337 3.33335C10.3337 2.04418 9.28867 0.999847 8.00017 0.999847C6.71117 0.999847 5.66667 2.04435 5.66667 3.33335ZM7.00017 3.33385C7.00017 2.78118 7.44767 2.33385 8.00017 2.33385C8.55267 2.33385 9.00017 2.78118 9.00017 3.33385C9.00017 3.88618 8.55267 4.33385 8.00017 4.33385C7.44767 4.33385 7.00017 3.88618 7.00017 3.33385ZM14 15.0002C15.1045 15.0002 16 14.1047 16 13.0002C16 11.8957 15.1045 11.0002 14 11.0002C12.8955 11.0002 12 11.8957 12 13.0002C12 14.1047 12.8955 15.0002 14 15.0002ZM10 13.0002C10 14.1047 9.1045 15.0002 8 15.0002C6.8955 15.0002 6 14.1047 6 13.0002C6 11.8957 6.8955 11.0002 8 11.0002C9.1045 11.0002 10 11.8957 10 13.0002ZM2 15.0002C3.1045 15.0002 4 14.1047 4 13.0002C4 11.8957 3.1045 11.0002 2 11.0002C0.8955 11.0002 0 11.8957 0 13.0002C0 14.1047 0.8955 15.0002 2 15.0002ZM12.6667 8.33351C12.6667 9.43818 11.7712 10.3335 10.6667 10.3335C9.56217 10.3335 8.66667 9.43818 8.66667 8.33351C8.66667 7.22918 9.56217 6.33351 10.6667 6.33351C11.7712 6.33351 12.6667 7.22918 12.6667 8.33351ZM4.66667 10.3335C5.77117 10.3335 6.66667 9.43818 6.66667 8.33351C6.66667 7.22918 5.77117 6.33351 4.66667 6.33351C3.56217 6.33351 2.66667 7.22918 2.66667 8.33351C2.66667 9.43818 3.56217 10.3335 4.66667 10.3335Z" fill="#008A01" />
</svg>
