<svg width="16" height="16" viewBox="0 0 16 16" fill="none" xmlns="http://www.w3.org/2000/svg">
<g clip-path="url(#clip0_49_475)">
<path d="M15.9826 8.01741C15.9826 12.4261 12.4089 15.9999 8.00041 15.9999C3.59158 15.9999 0.0175781 12.4259 0.0175781 8.01741C0.0175781 3.60875 3.59174 0.0349121 8.00024 0.0349121C12.4087 0.0349121 15.9827 3.60875 15.9827 8.01741H15.9826Z" fill="#F7931A"/>
<path d="M11.5874 7.02991C11.7424 5.98491 10.9474 5.42241 9.8574 5.04741L10.2099 3.62991L9.3499 3.41491L8.9999 4.79491C8.7724 4.73741 8.5399 4.68491 8.3099 4.63241L8.6599 3.24991L7.7974 3.03491L7.4449 4.44991C7.2574 4.40741 7.0724 4.36491 6.8949 4.31991L5.7049 4.02241L5.4774 4.94241C5.4774 4.94241 6.1174 5.08991 6.1024 5.09741C6.22169 5.11202 6.33053 5.17268 6.4057 5.26645C6.48087 5.36021 6.51641 5.47964 6.50474 5.59925L6.5049 5.59758L6.1024 7.21258C6.1379 7.22075 6.16807 7.23025 6.19707 7.24158L6.1924 7.23991L6.1024 7.21741L5.5374 9.46741C5.52505 9.50711 5.50491 9.54395 5.47817 9.57578C5.45143 9.60762 5.41862 9.63381 5.38165 9.65283C5.34468 9.67185 5.30429 9.68332 5.26285 9.68657C5.2214 9.68981 5.17972 9.68477 5.14024 9.67175L5.1424 9.67241L4.5149 9.51741L4.0874 10.4999L5.2099 10.7774L5.8249 10.9374L5.4674 12.3699L6.3299 12.5849L6.6824 11.1674C6.9174 11.2299 7.1449 11.2899 7.3699 11.3449L7.0174 12.7574L7.8799 12.9724L8.2349 11.5424C9.7074 11.8199 10.8124 11.7074 11.2774 10.3774C11.6524 9.30741 11.2599 8.68991 10.4849 8.28741C11.0499 8.16741 11.4724 7.79491 11.5874 7.02991ZM9.6149 9.79241C9.3499 10.8649 7.5474 10.2924 6.9624 10.1399L7.4349 8.24991C8.0199 8.38741 9.8949 8.67741 9.6149 9.79241ZM9.8824 7.01491C9.6324 7.98991 8.1324 7.49241 7.6524 7.37241L8.0824 5.65241C8.5674 5.77241 10.1349 5.99991 9.8824 7.01491Z" fill="white"/>
</g>
<defs>
<clipPath id="clip0_49_475">
<rect width="16" height="16" fill="white"/>
</clipPath>
</defs>
</svg>
