<svg width="14" height="12" viewBox="0 0 14 12" fill="none" xmlns="http://www.w3.org/2000/svg">
<path fill-rule="evenodd" clip-rule="evenodd" d="M9.19833 0.884033C9.81411 0.884033 10.3341 1.29506 10.501 1.8671L11.2972 4.66535H2.68023L3.47648 1.8671L3.47867 1.85747C3.56121 1.57656 3.73248 1.32992 3.96686 1.15445C4.20124 0.978981 4.48614 0.884111 4.77892 0.884033H9.19833ZM13.4504 5.73088H0.538235C0.397365 5.73372 0.263223 5.79167 0.164602 5.8923C0.0659811 5.99293 0.0107422 6.12821 0.0107422 6.26911C0.0107422 6.41001 0.0659811 6.54529 0.164602 6.64592C0.263223 6.74655 0.397365 6.80451 0.538235 6.80735C2.4792 7.08538 4.72074 7.24419 6.99989 7.24419C9.27905 7.24419 11.5201 7.08538 13.7146 6.77803L13.5838 6.79291C13.7126 6.76296 13.8258 6.68668 13.902 6.57861C13.9781 6.47054 14.0118 6.33824 13.9967 6.20692C13.9815 6.07559 13.9186 5.95443 13.8199 5.86652C13.7211 5.77861 13.5935 5.73009 13.4613 5.73022L13.4504 5.73088ZM7.32452 8.42238H6.65733C5.27155 8.09097 3.66548 8.1555 1.94392 8.42238V8.96947L2.61111 9.09635C2.61111 9.09635 2.61111 11.1161 4.63083 11.1161C5.99211 11.1161 6.43486 9.89478 6.57945 9.09635H7.39342C7.53802 9.89478 7.98077 11.1161 9.34205 11.1161C11.3618 11.1161 11.3618 9.09635 11.3618 9.09635L12.029 8.96947V8.42238C10.3406 8.15113 8.74595 8.09753 7.32452 8.42238Z" fill="#B1BAD3"/>
</svg>
