<svg width="80" height="80" viewBox="0 0 80 80" fill="none" xmlns="http://www.w3.org/2000/svg">
<path d="M69.5298 21.2739H58.4108C57.0786 21.2739 55.9986 22.3539 55.9986 23.6862V77.5877C55.9986 78.92 57.0786 80 58.4108 80H69.5298C70.8621 80 71.9421 78.92 71.9421 77.5877V23.6862C71.9421 22.3539 70.8621 21.2739 69.5298 21.2739Z" fill="#263742"/>
<path d="M45.5615 36.9572H34.4424C33.1102 36.9572 32.0302 38.0372 32.0302 39.3695V77.5878C32.0302 78.92 33.1102 80 34.4424 80H45.5615C46.8937 80 47.9737 78.92 47.9737 77.5878V39.3695C47.9737 38.0372 46.8937 36.9572 45.5615 36.9572Z" fill="#263742"/>
<path d="M21.5892 52.2665H10.4702C9.13792 52.2665 8.05792 53.3465 8.05792 54.6787V77.5877C8.05792 78.92 9.13792 80 10.4702 80H21.5892C22.9215 80 24.0015 78.92 24.0015 77.5877V54.6787C24.0015 53.3465 22.9215 52.2665 21.5892 52.2665Z" fill="#263742"/>
<path d="M21.8054 54.9317C21.8054 51.7408 19.2187 49.1541 16.0278 49.1541C12.8369 49.1541 10.2501 51.7408 10.2501 54.9317V71.2492C10.2501 74.4401 12.8369 77.0269 16.0278 77.0269C19.2187 77.0269 21.8054 74.4401 21.8054 71.2492V54.9317Z" fill="#334552"/>
<path d="M45.7777 38.1194C45.7777 34.9284 43.1909 32.3417 40 32.3417C36.8091 32.3417 34.2224 34.9284 34.2224 38.1194V71.1209C34.2224 74.3118 36.8091 76.8986 40 76.8986C43.1909 76.8986 45.7777 74.3118 45.7777 71.1209V38.1194Z" fill="#334552"/>
<path d="M69.746 21.9485C69.746 18.7575 67.1593 16.1708 63.9684 16.1708C60.7775 16.1708 58.1907 18.7575 58.1907 21.9485V71.0219C58.1907 74.2128 60.7775 76.7995 63.9684 76.7995C67.1593 76.7995 69.746 74.2128 69.746 71.0219V21.9485Z" fill="#334552"/>
<path d="M16.0279 46.3862C19.2573 46.3862 21.8752 43.7683 21.8752 40.5389C21.8752 37.3095 19.2573 34.6917 16.0279 34.6917C12.7985 34.6917 10.1806 37.3095 10.1806 40.5389C10.1806 43.7683 12.7985 46.3862 16.0279 46.3862Z" fill="#3C8725"/>
<path d="M16.0277 42.0786C17.7507 42.0786 19.1475 40.6819 19.1475 38.9589C19.1475 37.2358 17.7507 35.8391 16.0277 35.8391C14.3047 35.8391 12.9079 37.2358 12.9079 38.9589C12.9079 40.6819 14.3047 42.0786 16.0277 42.0786Z" fill="#69E244"/>
<path d="M22.33 32.3417L17.1462 27.1579L33.5883 10.7158L39.9892 17.1167L57.1059 0L62.2933 5.18743L39.9892 27.4879L33.5883 21.0833L22.33 32.3417Z" fill="#334552"/>
</svg>
