<svg width="14" height="14" viewBox="0 0 14 14" fill="none" xmlns="http://www.w3.org/2000/svg">
<g clip-path="url(#clip0_49_2359)">
<path d="M14 7C14 10.866 10.866 14 7 14C3.13396 14 0 10.866 0 7C0 3.13396 3.13396 0 7 0C10.866 0 14 3.13396 14 7Z" fill="#26A17B"/>
<path d="M7.84097 7.60515V7.60427C7.79285 7.60777 7.54493 7.62265 6.99135 7.62265C6.54947 7.62265 6.23841 7.60952 6.12904 7.60427V7.60559C4.42804 7.53077 3.15841 7.23459 3.15841 6.88021C3.15841 6.52627 4.42804 6.23009 6.12904 6.15396V7.31071C6.24016 7.31859 6.55866 7.3374 6.99879 7.3374C7.52685 7.3374 7.79153 7.31552 7.84097 7.31115V6.15484C9.53847 6.23052 10.805 6.52671 10.805 6.88021C10.805 7.23459 9.53847 7.5299 7.84097 7.60515ZM7.84097 6.03452V4.9994H10.2096V3.4209H3.76041V4.9994H6.12904V6.03409C4.20404 6.12246 2.75635 6.50396 2.75635 6.96071C2.75635 7.41746 4.20404 7.79852 6.12904 7.88734V11.2045H7.84112V7.88646C9.76291 7.79809 11.2071 7.41702 11.2071 6.96071C11.2071 6.5044 9.76291 6.12334 7.84097 6.03452Z" fill="white"/>
</g>
<defs>
<clipPath id="clip0_49_2359">
<rect width="14" height="14" fill="white"/>
</clipPath>
</defs>
</svg>
