<svg width="16" height="16" viewBox="0 0 16 16" fill="none" xmlns="http://www.w3.org/2000/svg">
<g clip-path="url(#clip0_49_435)">
<path d="M15.8351 4.24667C15.8351 2.53333 14.8256 1.05333 13.374 0.386667V0H2.46103V0.386667C1.00948 1.05333 0 2.53333 0 4.24667C0 5.96 1.00948 7.44 2.46103 8.10667V9.09333C2.46103 10.46 4.04454 11.3067 6.00412 11.6333V13.24C4.36124 13.4533 3.21979 13.9267 3.21979 14.48V15.9933H12.6285V14.48C12.6285 13.9267 11.4804 13.4467 9.84412 13.24V11.6333C11.8037 11.3067 13.3872 10.46 13.3872 9.09333V8.10667C14.8388 7.44 15.8482 5.96 15.8482 4.24667H15.8351ZM1.31959 4.24667C1.31959 3.30667 1.76825 2.47333 2.46103 1.94V6.54667C1.77485 6.01333 1.31959 5.18667 1.31959 4.24V4.24667ZM13.374 6.55333V1.94C14.0602 2.47333 14.5155 3.3 14.5155 4.24667C14.5155 5.19333 14.0668 6.02 13.374 6.55333Z" fill="#F0B90B"/>
<path d="M7.09251 9.26663V4.51996L5.79931 5.8133L4.49292 4.4333L7.41581 1.54663H9.40838V9.26663H7.09251Z" fill="#554204"/>
</g>
<defs>
<clipPath id="clip0_49_435">
<rect width="16" height="16" fill="white"/>
</clipPath>
</defs>
</svg>
