<svg xmlns="http://www.w3.org/2000/svg" width="16" height="16" viewBox="0 0 16 16" fill="none">
	<g clip-path="url(#clip0_1280_1005)">
		<path d="M13.6818 3.75147H14.4618V2.09247H8.6635V0.652466H6.9975V2.09197H1.1865V3.75122H2.31275L0 9.36297C0 11.1222 1.426 12.5482 3.18525 12.5482C4.94475 12.5482 6.3705 11.1222 6.3705 9.36297L4.058 3.75147H6.9905V13.6877H4.66475V15.3472H10.956V13.6875H8.66325V3.75147H11.942L9.6295 9.36297C9.6295 11.1222 11.0553 12.5482 12.8145 12.5482C14.5743 12.5482 16 11.1222 16 9.36297L13.6818 3.75147ZM1.3335 9.36297L3.18625 4.89122L5.0255 9.36297H1.3335ZM10.9565 9.36297L12.7957 4.89122L14.6615 9.36297H10.9565Z" fill="#B1BAD3" />
	</g>
	<defs>
		<clipPath id="clip0_1280_1005">
			<rect width="16" height="16" fill="white" />
		</clipPath>
	</defs>
</svg>
