<svg width="14" height="14" viewBox="0 0 14 14" fill="none" xmlns="http://www.w3.org/2000/svg">
<path d="M6.59674 12.1028L3.49465 13.61C3.37122 13.6743 3.23249 13.7035 3.09359 13.6944C2.9547 13.6852 2.82099 13.6381 2.70708 13.5581C2.59316 13.4781 2.50341 13.3684 2.44764 13.2408C2.39187 13.1133 2.37222 12.9729 2.39084 12.835L2.3904 12.8389L2.86946 9.33364C2.88661 9.22114 2.87758 9.1062 2.84305 8.99776C2.80852 8.88933 2.74944 8.79032 2.6704 8.70845L2.67084 8.70889L0.211429 6.12064C0.116607 6.02166 0.0503204 5.89888 0.0195898 5.7653C-0.0111408 5.63172 -0.00517117 5.49232 0.0368665 5.36186C0.0789042 5.2314 0.155445 5.11473 0.258381 5.02422C0.361317 4.93371 0.486816 4.87273 0.621585 4.84773L0.626398 4.84686L4.13165 4.21598C4.24315 4.19678 4.34881 4.15242 4.44061 4.08628C4.53242 4.02014 4.60794 3.93395 4.66146 3.83426L4.66321 3.83033L6.34562 0.705046C6.40987 0.584107 6.50578 0.48291 6.62311 0.412282C6.74044 0.341653 6.87476 0.304252 7.01171 0.304077C7.29871 0.304077 7.54852 0.464858 7.67562 0.701108L7.6778 0.705046L9.33702 3.83033C9.38987 3.93036 9.46481 4.01704 9.55616 4.08378C9.6475 4.15053 9.75285 4.19559 9.86421 4.21555L9.86858 4.21598L13.3738 4.84686C13.5492 4.87838 13.708 4.97047 13.8224 5.10708C13.9368 5.24369 13.9996 5.41613 13.9999 5.59433C14 5.79051 13.9242 5.97913 13.7884 6.12064L13.7888 6.1202L11.3294 8.68483C11.2464 8.76973 11.185 8.87337 11.1506 8.98699C11.1161 9.1006 11.1094 9.22086 11.1312 9.33758L11.1303 9.3332L11.6094 12.8385C11.6273 12.9765 11.6068 13.1168 11.5504 13.2441C11.4939 13.3713 11.4035 13.4806 11.2891 13.5599C11.1748 13.6393 11.0408 13.6857 10.9018 13.694C10.7629 13.7024 10.6243 13.6724 10.5012 13.6074L7.38555 12.1024C7.26232 12.0439 7.12755 12.0138 6.99115 12.0142C6.84787 12.0142 6.71246 12.0468 6.59105 12.1045L6.59674 12.1019V12.1028Z" fill="white"/>
</svg>
