<svg width="16" height="12" viewBox="0 0 16 12" fill="none" xmlns="http://www.w3.org/2000/svg">
<path fill-rule="evenodd" clip-rule="evenodd" d="M9.46667 5.84668C8.85691 7.02078 8.5369 8.3237 8.53333 9.64668V10.48H5.38667C5.39317 9.17088 5.6772 7.878 6.22 6.68668C6.79495 5.411 7.5517 4.22535 8.46667 3.16668H3.8V0.726685H12V2.02002C11.0262 3.20508 10.1773 4.48742 9.46667 5.84668ZM13.8667 8.55335C13.3655 9.18813 13.0227 9.93312 12.8667 10.7267L12.7667 11.2267L10 10.72C10.2845 9.25971 11.0726 7.94557 12.2267 7.00668L10.2267 6.61335L11.0667 4.84002L16 5.81335L15.8467 6.58668C15.1239 7.17587 14.4607 7.83458 13.8667 8.55335ZM4.11333 10.1067C3.92011 9.32061 3.92011 8.49943 4.11333 7.71335C4.34123 6.80162 4.66527 5.91667 5.08 5.07335L4.89333 4.30668L0 5.48002V7.42668L2 6.95335C1.33371 8.29115 1.16363 9.82193 1.52 11.2734L4.23333 10.6067L4.11333 10.1067Z" fill="#B1BAD3"/>
</svg>
