<svg width="14" height="8" viewBox="0 0 14 8" fill="none" xmlns="http://www.w3.org/2000/svg">
<path d="M10.4444 0.00187578C8.41291 0.00187578 7.41453 1.54909 6.52706 2.92109C5.56959 4.39809 4.89234 5.29147 3.56716 5.29147C3.34173 5.2915 3.11851 5.24712 2.91023 5.16086C2.70196 5.07461 2.51272 4.94817 2.35332 4.78877C2.19392 4.62937 2.06748 4.44013 1.98123 4.23186C1.89498 4.02359 1.8506 3.80036 1.85063 3.57494C1.8506 3.34952 1.89498 3.12631 1.98123 2.91805C2.06749 2.70979 2.19393 2.52056 2.35333 2.36118C2.51274 2.2018 2.70198 2.07538 2.91025 1.98915C3.11852 1.90292 3.34174 1.85857 3.56716 1.85863C3.84586 1.84691 4.12399 1.89271 4.38423 1.99315C4.64447 2.0936 4.88125 2.24654 5.07981 2.44247L5.30163 2.10363C5.54094 1.73 5.81547 1.31569 6.13069 0.895251C5.41403 0.290629 4.49908 -0.0275747 3.56191 0.00187578H3.56716C1.59731 0.00187578 0 1.59941 0 3.56903C0 5.53888 1.59731 7.13641 3.56716 7.13641C5.99594 7.13641 7.15181 5.38509 8.07997 3.91969C8.90903 2.63519 9.46947 1.85294 10.4447 1.85294C10.8999 1.85294 11.3364 2.03376 11.6583 2.35563C11.9801 2.67751 12.161 3.11406 12.161 3.56925C12.161 3.79468 12.1166 4.0179 12.0304 4.22617C11.9441 4.43445 11.8177 4.62369 11.6583 4.78309C11.4989 4.94249 11.3096 5.06892 11.1014 5.15518C10.8931 5.24143 10.6699 5.28581 10.4444 5.28578C9.99049 5.30153 9.54439 5.16441 9.17766 4.89641L9.18356 4.90034C8.84928 5.42987 8.48047 5.93679 8.07953 6.41781L8.09747 6.39506C8.75364 6.87895 9.54799 7.13907 10.3633 7.13706C10.388 7.13706 10.4125 7.13706 10.4363 7.13641H10.4328C12.4027 7.13641 14 5.53888 14 3.56903C14 1.59941 12.4027 0.00187578 10.4328 0.00187578H10.4444Z" fill="#B1BAD3"/>
</svg>
