<svg width="16" height="16" viewBox="0 0 16 16" fill="none" xmlns="http://www.w3.org/2000/svg">
<g clip-path="url(#clip0_1_714)">
<path d="M8 0C3.5815 0 0 3.5815 0 8C0 12.4185 3.5815 16 8 16C12.4185 16 16 12.4185 16 8C16 3.5815 12.4185 0 8 0ZM9.31 12.92H6.69V7.67H9.31V12.92ZM8 6.14C7.69739 6.14 7.40159 6.05027 7.14998 5.88215C6.89837 5.71403 6.70227 5.47508 6.58646 5.19551C6.47066 4.91593 6.44036 4.6083 6.4994 4.31151C6.55843 4.01472 6.70415 3.7421 6.91813 3.52813C7.1321 3.31415 7.40472 3.16843 7.70151 3.1094C7.9983 3.05036 8.30593 3.08066 8.58551 3.19646C8.86508 3.31227 9.10403 3.50837 9.27215 3.75998C9.44027 4.01158 9.53 4.30739 9.53 4.61V4.62C9.53 5.02313 9.36986 5.40975 9.0848 5.6948C8.79975 5.97986 8.41313 6.14 8.01 6.14H7.9995H8Z" fill="#B1BAD3"/>
</g>
<defs>
<clipPath id="clip0_1_714">
<rect width="16" height="16" fill="white"/>
</clipPath>
</defs>
</svg>
