<svg width="14" height="14" viewBox="0 0 14 14" fill="none" xmlns="http://www.w3.org/2000/svg">
<path fill-rule="evenodd" clip-rule="evenodd" d="M4.9875 1.86963H13.0318C13.0318 1.87575 13.0375 1.88144 13.0375 1.88144H13.034C12.6626 1.90151 12.3124 2.06105 12.0535 2.32815C11.7945 2.59525 11.646 2.95024 11.6375 3.32213V10.5496L11.6371 10.5453C11.6504 10.7484 11.6219 10.9521 11.5534 11.1438C11.4848 11.3355 11.3776 11.511 11.2385 11.6596C11.0993 11.8082 10.9312 11.9266 10.7444 12.0076C10.5576 12.0886 10.3562 12.1303 10.1526 12.1303C9.94945 12.1303 9.74843 12.0887 9.56196 12.008C9.37549 11.9273 9.20754 11.8092 9.06845 11.6611C8.92936 11.513 8.82209 11.338 8.75325 11.1468C8.68441 10.9556 8.65546 10.7524 8.66819 10.5496V9.87282H3.5V3.35713C3.5 2.96262 3.65672 2.58427 3.93568 2.30531C4.21464 2.02635 4.59299 1.86963 4.9875 1.86963ZM4.80638 7.97144H8.19569V6.95644H4.80638V7.97144ZM4.80681 5.25894H10.2318V4.24394H4.80681V5.25894ZM13.1307 2.28963H13.1193C12.8888 2.28963 12.6676 2.38122 12.5046 2.54424C12.3416 2.70727 12.25 2.92839 12.25 3.15894V4.56463H14V3.15894C14 3.04478 13.9775 2.93174 13.9338 2.82627C13.8901 2.7208 13.8261 2.62497 13.7454 2.54424C13.6647 2.46352 13.5688 2.39949 13.4634 2.3558C13.3579 2.31211 13.2448 2.28963 13.1307 2.28963ZM8.05 10.5562H0C0 10.9507 0.156718 11.3291 0.435679 11.608C0.714639 11.887 1.09299 12.0437 1.4875 12.0437H8.93069C8.34138 12.0437 8.05 11.3787 8.05 10.5562Z" fill="#2F4553"/>
</svg>
