<svg width="14" height="14" viewBox="0 0 14 14" fill="none" xmlns="http://www.w3.org/2000/svg">
<g clip-path="url(#clip0_49_745)">
<path d="M13.3744 2.33374H0.623875C0.541967 2.33368 0.460851 2.34977 0.385161 2.38107C0.309472 2.41238 0.240693 2.45829 0.182755 2.51619C0.124817 2.57408 0.0788562 2.64283 0.0474982 2.7185C0.0161402 2.79417 2.08615e-08 2.87527 4.10297e-08 2.95718V11.0829C-2.87048e-05 11.1595 0.0150476 11.2354 0.0443673 11.3062C0.073687 11.3771 0.116675 11.4414 0.170876 11.4956C0.225076 11.5498 0.289426 11.5928 0.360247 11.6221C0.431069 11.6514 0.506974 11.6665 0.583625 11.6665H13.4164C13.493 11.6665 13.5689 11.6515 13.6397 11.6221C13.7105 11.5928 13.7748 11.5499 13.829 11.4957C13.8832 11.4415 13.9262 11.3772 13.9556 11.3064C13.9849 11.2356 14 11.1597 14 11.0831V2.9574C14 2.87547 13.9839 2.79434 13.9526 2.71865C13.9212 2.64296 13.8753 2.57418 13.8173 2.51626C13.7594 2.45834 13.6906 2.41241 13.6149 2.38109C13.5392 2.34977 13.4581 2.33368 13.3761 2.33374H13.3744ZM7.67506 3.89605H9.02847V5.06243H7.67506V3.89605ZM7.67506 6.41058H9.02847V7.57696H7.67506V6.41058ZM4.96891 3.89627H6.32231V5.06265H4.96891V3.89605V3.89627ZM4.96891 6.4108H6.32231V7.57718H4.96891V6.4108ZM2.26778 3.89627H3.62141V5.06265H2.26778V3.89605V3.89627ZM2.26778 6.4108H3.62141V7.57718H2.26778V6.4108ZM11.7296 10.1033H2.26844V8.93693H11.7294V10.1031L11.7296 10.1033ZM11.7296 7.58855H10.376V6.41605H11.7296V7.58855ZM11.7296 5.08102H10.376V3.91465H11.7296V5.08102Z" fill="#1475E1"/>
</g>
<defs>
<clipPath id="clip0_49_745">
<rect width="14" height="14" fill="white"/>
</clipPath>
</defs>
</svg>
