<svg xmlns="http://www.w3.org/2000/svg" width="14" height="14" viewBox="0 0 14 14" fill="none">
  <g clip-path="url(#clip0_1280_1366)">
    <path d="M12.2524 6.84508C12.1779 7.14171 12.0752 7.43054 11.9457 7.70761C11.8126 7.98992 11.6537 8.25933 11.471 8.51239C11.813 8.81311 12.0477 9.21703 12.1396 9.66303C12.2315 10.109 12.1757 10.5728 11.9805 10.9843C11.7409 11.4925 11.3093 11.8847 10.7806 12.0747C10.2518 12.2647 9.66929 12.2369 9.16103 11.9975L5.93665 10.4807C5.58457 10.3146 5.28554 10.054 5.07291 9.72797C4.86028 9.40189 4.74241 9.02316 4.73243 8.63401C4.72388 8.52802 4.72388 8.42151 4.73243 8.31551V8.13023C4.73921 8.08539 4.74884 8.04076 4.76131 7.99723C4.79412 7.88261 4.83481 7.77039 4.88293 7.66145C4.94134 7.5442 5.00915 7.43176 5.0855 7.32567L5.13756 7.26179C5.21514 7.16092 5.3024 7.06787 5.39809 6.98398C5.80059 6.63587 6.31935 6.45197 6.85125 6.46883C7.16373 6.46682 7.47256 6.53609 7.75425 6.67139L8.72703 7.12858C8.33497 7.45748 7.83763 7.63429 7.32593 7.62667H6.85125C6.67618 7.62758 6.50495 7.67807 6.35741 7.77231C6.20986 7.86654 6.09204 8.00066 6.01759 8.15911C5.92829 8.34838 5.90659 8.56256 5.95612 8.7659C6.00564 8.96924 6.12339 9.14946 6.28971 9.27648C6.62725 9.37054 6.97571 9.41911 7.32593 9.42129C8.20858 9.41474 9.063 9.10954 9.75006 8.55541C10.4371 8.00127 10.9163 7.23085 11.1096 6.3696C11.3029 5.50836 11.1989 4.60704 10.8146 3.81244C10.4303 3.01784 9.78821 2.37677 8.99303 1.99364L5.78025 0.476826C5.31156 0.222702 4.7959 0.0670239 4.26489 0.0193438C3.73388 -0.0283363 3.19873 0.0329872 2.69227 0.199551C2.18581 0.366116 1.71873 0.634408 1.31968 0.987966C0.920634 1.34152 0.598036 1.77289 0.371682 2.2556C0.145329 2.73831 0.0199942 3.26218 0.00336829 3.79506C-0.0132576 4.32795 0.0791761 4.85861 0.274998 5.35449C0.47082 5.85037 0.765899 6.30101 1.14213 6.67875C1.51836 7.0565 1.96781 7.35339 2.4629 7.5512L3.04193 7.81764C2.87487 8.67082 2.99708 9.55535 3.38924 10.3313C3.78139 11.1072 4.4211 11.7302 5.20712 12.1016L8.42581 13.6185C8.89042 13.8395 9.39416 13.9664 9.90803 13.992C10.4219 14.0175 10.9357 13.9412 11.42 13.7675C11.9043 13.5937 12.3494 13.3258 12.7297 12.9793C13.1101 12.6329 13.4181 12.2146 13.6362 11.7486C14.0302 10.9009 14.1073 9.94 13.8534 9.04034C13.5996 8.14067 13.0316 7.36181 12.2526 6.84508H12.2524ZM2.19668 3.11101C2.36849 2.74793 2.6397 2.441 2.97887 2.2258C3.31803 2.01061 3.71126 1.89598 4.11293 1.8952C4.42336 1.8955 4.72985 1.96476 5.01025 2.09798L8.25212 3.61479C8.59472 3.78832 8.88354 4.05194 9.08755 4.37731C9.29155 4.70269 9.40302 5.07751 9.40996 5.46148L8.49537 5.02726C7.68898 4.64904 6.77758 4.55765 5.91214 4.76822C5.0467 4.97879 4.27917 5.47869 3.73668 6.18511L3.15765 5.92458C2.65915 5.67675 2.27859 5.24221 2.09865 4.71538C1.91872 4.18856 1.95395 3.61201 2.19668 3.11101Z" fill="#fff"/>
  </g>
  <defs>
    <clipPath id="clip0_1280_1366">
      <rect width="14" height="14" fill="white"/>
    </clipPath>
  </defs>
</svg>