<svg width="16" height="16" viewBox="0 0 16 16" fill="none" xmlns="http://www.w3.org/2000/svg">
<path d="M14.4725 0H1.5275C1.12258 0.000661087 0.734443 0.161806 0.448125 0.448125C0.161806 0.734443 0.000661087 1.12258 0 1.5275L0 14.4725C0.000661087 14.8774 0.161806 15.2656 0.448125 15.5519C0.734443 15.8382 1.12258 15.9993 1.5275 16H14.4725C14.8774 15.9993 15.2656 15.8382 15.5519 15.5519C15.8382 15.2656 15.9993 14.8774 16 14.4725V1.5275C15.9993 1.12258 15.8382 0.734443 15.5519 0.448125C15.2656 0.161806 14.8774 0.000661087 14.4725 0ZM6.25 12.5225H2.7825C2.60579 12.5111 2.44001 12.433 2.31878 12.3039C2.19756 12.1749 2.12996 12.0045 2.12971 11.8274C2.12945 11.6504 2.19656 11.4798 2.31741 11.3504C2.43827 11.221 2.60382 11.1424 2.7805 11.1305H6.25C6.34398 11.1235 6.43841 11.1356 6.52758 11.1661C6.61676 11.1966 6.69883 11.2449 6.76884 11.308C6.83886 11.371 6.89537 11.4477 6.93496 11.5332C6.97456 11.6187 6.99642 11.7114 6.99922 11.8056C7.00203 11.8998 6.98572 11.9936 6.95129 12.0813C6.91685 12.169 6.865 12.2488 6.79886 12.316C6.73272 12.3831 6.65367 12.4362 6.56647 12.4719C6.47927 12.5077 6.38573 12.5254 6.2915 12.524C6.277 12.524 6.262 12.5235 6.248 12.5225H6.25ZM5.9125 6.25C5.48402 6.24977 5.06601 6.11763 4.71525 5.87154C4.3645 5.62544 4.09801 5.27733 3.952 4.8745L3.9475 4.86H2.7825C2.60572 4.84865 2.43988 4.77048 2.31861 4.64136C2.19734 4.51224 2.12972 4.34183 2.12947 4.16469C2.12921 3.98755 2.19634 3.81694 2.31724 3.68747C2.43814 3.558 2.60376 3.47936 2.7805 3.4675H3.9475C4.243 2.652 5.011 2.08 5.9125 2.08C6.46548 2.08 6.9958 2.29967 7.38682 2.69068C7.77783 3.0817 7.9975 3.61202 7.9975 4.165C7.9975 4.71798 7.77783 5.2483 7.38682 5.63932C6.9958 6.03033 6.46548 6.25 5.9125 6.25ZM13.2175 12.5225H12.0525C11.757 13.34 10.988 13.9135 10.0845 13.9135C9.53086 13.9135 8.9999 13.6936 8.60841 13.3021C8.21693 12.9106 7.997 12.3796 7.997 11.826C7.997 11.2724 8.21693 10.7414 8.60841 10.3499C8.9999 9.95843 9.53086 9.7385 10.0845 9.7385C10.5135 9.73855 10.9321 9.87069 11.2834 10.117C11.6347 10.3632 11.9017 10.7117 12.048 11.115L12.0525 11.1295H13.2175C13.3942 11.1409 13.56 11.219 13.6812 11.3481C13.8024 11.4771 13.87 11.6475 13.8703 11.8246C13.8705 12.0016 13.8034 12.1722 13.6826 12.3016C13.5617 12.431 13.3962 12.5096 13.2195 12.5215H13.2175V12.5225ZM13.2175 4.87H9.75C9.7375 4.871 9.723 4.871 9.7085 4.871C9.52674 4.86613 9.35407 4.79051 9.22723 4.66024C9.1004 4.52996 9.02943 4.35532 9.02943 4.1735C9.02943 3.99168 9.1004 3.81704 9.22723 3.68676C9.35407 3.55649 9.52674 3.48087 9.7085 3.476C9.723 3.476 9.738 3.4765 9.752 3.4775H9.75H13.2175C13.3942 3.48885 13.56 3.56699 13.6812 3.69606C13.8024 3.82514 13.87 3.99549 13.8703 4.17256C13.8705 4.34964 13.8034 4.52018 13.6826 4.64961C13.5617 4.77903 13.3962 4.85764 13.2195 4.8695H13.2175V4.87Z" fill="#B1BAD3"/>
</svg>
