<svg width="14" height="14" viewBox="0 0 14 14" fill="none" xmlns="http://www.w3.org/2000/svg">
<g clip-path="url(#clip0_49_607)">
<path d="M1.60988 9.27289C1.82863 6.47727 4.83185 3.74071 5.5312 2.71564C6.13888 1.79558 5.90745 0.702488 5.71276 0.221894C5.70387 0.193688 5.70247 0.163656 5.70869 0.134744C5.71491 0.105833 5.72854 0.0790339 5.74823 0.056976C5.76793 0.034918 5.79302 0.0183584 5.82105 0.00892114C5.84908 -0.000516096 5.87908 -0.0025069 5.9081 0.00314397H5.90723C8.94567 0.641456 9.09835 2.95189 9.0067 3.98571C8.91482 5.01952 9.09857 5.71668 9.76729 5.56596C10.4364 5.41502 10.2111 3.71883 10.2111 3.71883C10.2111 3.71883 13.2824 7.36671 12.1565 10.9536C11.5906 12.8291 10.1807 13.6201 8.99598 13.992C8.93473 14.0226 8.87348 13.9614 8.87348 13.8717C9.0266 13.2946 9.4221 12.8379 9.54242 12.1996C9.78742 11.1504 8.81463 10.1842 8.0932 9.63799C7.64213 9.30155 7.35273 8.76955 7.35273 8.16974C7.35273 8.14196 7.35317 8.11396 7.35448 8.08639V8.09033C7.35448 8.02908 7.2626 7.99846 7.23417 8.02908C6.77807 8.58025 6.29231 9.10617 5.77904 9.60452L5.77401 9.60933C4.65073 10.8553 4.07148 12.254 5.07467 13.8039C5.10529 13.8651 5.04404 13.9548 4.98498 13.9264C2.49123 13.2552 1.45938 11.369 1.61032 9.27289H1.60988Z" fill="#2F4553"/>
</g>
<defs>
<clipPath id="clip0_49_607">
<rect width="14" height="14" fill="white"/>
</clipPath>
</defs>
</svg>
