<svg width="14" height="14" viewBox="0 0 14 14" fill="none" xmlns="http://www.w3.org/2000/svg">
<g clip-path="url(#clip0_49_853)">
<path fill-rule="evenodd" clip-rule="evenodd" d="M6.98775 2.86117C4.93806 2.86117 3.241 4.37142 2.94613 6.36205L3.99569 6.36161L1.995 9.19661L0 6.36161H1.16681L1.16944 6.33449C1.50719 3.39842 4.00137 1.11817 7.028 1.11817C8.43179 1.11555 9.79 1.6163 10.8561 2.52955L9.68931 3.88274L9.69369 3.88667C8.94802 3.22452 7.98498 2.85955 6.98775 2.86117ZM12.0052 4.77567L14.0002 7.61067H12.8684L12.8662 7.63692C12.5416 10.587 10.0413 12.8817 7.00459 12.8817C5.58635 12.8844 4.21511 12.3734 3.14453 11.4432L4.31134 10.09C5.05991 10.7639 6.0319 11.1362 7.03916 11.1347C9.09672 11.1347 10.799 9.61224 11.0838 7.61067H10.0045L12.0052 4.77567Z" fill="#B1BAD3"/>
</g>
<defs>
<clipPath id="clip0_49_853">
<rect width="14" height="14" fill="white"/>
</clipPath>
</defs>
</svg>
