<svg width="20" height="21" viewBox="0 0 20 21" fill="none" xmlns="http://www.w3.org/2000/svg">
<g clip-path="url(#clip0_49_2420)">
<path fill-rule="evenodd" clip-rule="evenodd" d="M17 6.33329L10 2.16663L3 6.33329V14.6667L10 18.8333L17 14.6667V6.33329Z" fill="#636B6B"/>
<path fill-rule="evenodd" clip-rule="evenodd" d="M10 2.16663L3 6.33329V14.6667L10 18.8333L17 14.6667V6.33329L10 2.16663ZM16.5833 6.57017L10 2.65152L3.41667 6.57017V14.4298L10 18.3484L16.5833 14.4298V6.57017Z" fill="#FDE6CA"/>
<path d="M20 9L17.9167 9.58333V11.9167C19.1485 11.5718 20 10.449 20 9.16987V9Z" fill="#D1C3AF"/>
<path d="M0 9L2.08333 9.58333V11.9167C0.851554 11.5718 0 10.449 0 9.16987V9Z" fill="#D1C3AF"/>
<path d="M10.0001 14.5C11.8759 14.5 13.0835 13.5595 13.0835 12.2242C13.0835 11.0631 12.0518 10.4478 11.2546 10.3665C12.1221 10.2155 12.9662 9.57692 12.9662 8.6016C12.9662 7.31277 11.8407 6.5 10.0118 6.5C8.64013 6.5 7.65534 7.0225 7.02226 7.73077L7.85464 8.76415C8.40566 8.24165 9.08563 7.96299 9.83595 7.96299C10.6566 7.96299 11.2897 8.26488 11.2897 8.88026C11.2897 9.4492 10.7153 9.70464 9.84767 9.70464C9.55458 9.70464 9.01529 9.70464 8.87461 9.69303V11.1792C8.99184 11.1676 9.51941 11.156 9.84767 11.156C10.938 11.156 11.4187 11.4347 11.4187 12.0501C11.4187 12.6306 10.8911 13.037 9.94146 13.037C9.17942 13.037 8.32359 12.7119 7.7843 12.1546L6.91675 13.2576C7.49121 13.9543 8.55807 14.5 10.0001 14.5Z" fill="#FDE6CA"/>
</g>
<defs>
<clipPath id="clip0_49_2420">
<rect width="20" height="21" fill="white"/>
</clipPath>
</defs>
</svg>
