<svg width="20" height="21" viewBox="0 0 20 21" fill="none" xmlns="http://www.w3.org/2000/svg">
<g clip-path="url(#clip0_49_2365)">
<path fill-rule="evenodd" clip-rule="evenodd" d="M17 6.33342L10 2.16675L3 6.33342V14.6668L10 18.8334L17 14.6668V6.33342Z" fill="#5D6559"/>
<path fill-rule="evenodd" clip-rule="evenodd" d="M10 2.16675L3 6.33342V14.6668L10 18.8334L17 14.6668V6.33342L10 2.16675ZM16.5833 6.5703L10 2.65165L3.41667 6.5703V14.4299L10 18.3485L16.5833 14.4299V6.5703Z" fill="#E9D18C"/>
<path d="M9.25835 14.2765C9.25835 14.3941 9.3525 14.5 9.48195 14.5H10.7883C10.906 14.5 11.0001 14.3941 11.0001 14.2765V6.72353C11.0001 6.60588 10.906 6.5 10.7883 6.5H9.70555L7.98736 7.84118C7.95205 7.87647 7.91675 7.97059 7.91675 8.01765V8.75882C7.91675 8.87647 8.01089 8.98235 8.12858 8.98235H9.25835V14.2765Z" fill="#E9D18C"/>
<path d="M20 5.66675L17.9167 6.25009V8.58342C19.1485 8.23852 20 7.11578 20 5.83663V5.66675Z" fill="#CBC9B5"/>
<path d="M20 8.33325L17.9167 8.91659V11.2499C19.1485 10.905 20 9.78228 20 8.50313V8.33325Z" fill="#A1A498"/>
<path d="M20 11L17.9167 11.5833V13.9167C19.1485 13.5718 20 12.449 20 11.1699V11Z" fill="#5D6559"/>
<path d="M0 5.66675L2.08333 6.25009V8.58342C0.851554 8.23852 0 7.11578 0 5.83663V5.66675Z" fill="#CBC9B5"/>
<path d="M0 8.33325L2.08333 8.91659V11.2499C0.851554 10.905 0 9.78228 0 8.50313V8.33325Z" fill="#A1A498"/>
<path d="M0 11L2.08333 11.5833V13.9167C0.851554 13.5718 0 12.449 0 11.1699V11Z" fill="#5D6559"/>
</g>
<defs>
<clipPath id="clip0_49_2365">
<rect width="20" height="21" fill="white"/>
</clipPath>
</defs>
</svg>
