<svg width="20" height="21" viewBox="0 0 20 21" fill="none" xmlns="http://www.w3.org/2000/svg">
<g clip-path="url(#clip0_49_2399)">
<path fill-rule="evenodd" clip-rule="evenodd" d="M17 6.3333L10 2.16663L3 6.3333V14.6667L10 18.8333L17 14.6667V6.3333Z" fill="#55626F"/>
<path fill-rule="evenodd" clip-rule="evenodd" d="M10 2.16663L3 6.3333V14.6667L10 18.8333L17 14.6667V6.3333L10 2.16663ZM16.5833 6.57018L10 2.65153L3.41667 6.57018V14.4298L10 18.3484L16.5833 14.4298V6.57018Z" fill="#DEE1EF"/>
<path d="M7.41675 14.2797C7.41675 14.3957 7.51005 14.5 7.63834 14.5H12.3035C12.4202 14.5 12.5251 14.3957 12.5251 14.2797V13.2362C12.5251 13.1203 12.4202 13.0159 12.3035 13.0159H10.2509C10.799 12.2507 11.7554 11.0101 12.1286 10.3493C12.4085 9.80435 12.5835 9.45652 12.5835 8.84203C12.5835 7.55507 11.6038 6.5 9.93593 6.5C8.54805 6.5 7.60335 7.63623 7.60335 7.63623C7.52171 7.72899 7.53338 7.86812 7.61502 7.93768L8.32645 8.65652C8.41976 8.74928 8.55971 8.74928 8.65301 8.65652C8.87461 8.41304 9.30614 8.07681 9.78432 8.07681C10.4375 8.07681 10.8107 8.47101 10.8107 8.91159C10.8107 9.23623 10.6591 9.56087 10.5075 9.79275C9.81931 10.8362 8.0932 13.1667 7.41675 14.0478V14.2797Z" fill="#DEE1EF"/>
<path d="M20 7.66663L17.9167 8.24997V10.5833C19.1485 10.2384 20 9.11566 20 7.83651V7.66663Z" fill="#B7BDCA"/>
<path d="M20 10.3333L17.9167 10.9167V13.25C19.1485 12.9051 20 11.7824 20 10.5032V10.3333Z" fill="#9099A6"/>
<path d="M0 7.66663L2.08333 8.24997V10.5833C0.851554 10.2384 0 9.11566 0 7.83651V7.66663Z" fill="#B7BDCA"/>
<path d="M0 10.3333L2.08333 10.9167V13.25C0.851554 12.9051 0 11.7824 0 10.5032V10.3333Z" fill="#9099A6"/>
</g>
<defs>
<clipPath id="clip0_49_2399">
<rect width="20" height="21" fill="white"/>
</clipPath>
</defs>
</svg>
