<svg width="17" height="17" viewBox="0 0 17 17" fill="none" xmlns="http://www.w3.org/2000/svg">
<path d="M15.4079 0.5H1.54141C0.952415 0.5 0.474915 0.9775 0.474915 1.5665V15.5C0.474915 16.0525 0.922415 16.5 1.47491 16.5H15.4749C16.0274 16.5 16.4749 16.0525 16.4749 15.5V1.5665C16.4749 0.9775 15.9974 0.5 15.4084 0.5H15.4079ZM4.97441 13.06L2.97441 11.06L4.04091 9.9935L5.00741 10.967L7.44091 8.5005L8.50741 9.567L4.97441 13.06ZM4.97441 8.06L2.97441 6.06L4.00791 4.9665L4.97441 5.94L7.44091 3.4665L8.50741 4.533L4.97441 8.06ZM13.9744 11.7535H10.4744V10.247H13.9744V11.7535ZM13.9744 6.7535H10.4744V5.247H13.9744V6.7535Z" fill="#B1BAD3"/>
</svg>
