<svg width="14" height="14" viewBox="0 0 14 14" fill="none" xmlns="http://www.w3.org/2000/svg">
	<g clip-path="url(#clip0_1100_5)">
		<path d="M12.1274 7C12.1251 6.70759 12.1002 6.41579 12.0531 6.12719L12.0574 6.16L13.8424 4.8475L12.2849 2.1525L10.2609 3.03931C9.83357 2.68982 9.35348 2.41042 8.83854 2.21156L8.80266 2.19931L8.55744 0H5.44244L5.19744 2.19931C4.63876 2.41369 4.15619 2.69719 3.72963 3.04675L3.73882 3.03931L1.71473 2.1525L0.157227 4.8475L1.94223 6.16C1.89746 6.43692 1.87406 6.71687 1.87223 6.99738V7C1.87485 7.29881 1.90023 7.58931 1.9466 7.87281L1.94223 7.84L0.157227 9.1525L1.71473 11.8475L3.73904 10.9607C4.16633 11.3102 4.64641 11.5896 5.16135 11.7884L5.19723 11.8007L5.44223 14H8.55723L8.80223 11.8007C9.36091 11.5863 9.84348 11.3028 10.27 10.9532L10.2609 10.9607L12.2852 11.8475L13.8427 9.1525L12.0577 7.84C12.0997 7.58931 12.125 7.29881 12.1277 7.00263V7H12.1274ZM6.99994 8.89569C6.62503 8.8956 6.25856 8.78435 5.94688 8.57599C5.63519 8.36764 5.39228 8.07154 5.24887 7.72515C5.10546 7.37875 5.06798 6.9976 5.14117 6.6299C5.21437 6.2622 5.39495 5.92446 5.66008 5.65939C5.92522 5.39432 6.263 5.21382 6.63071 5.14071C6.99843 5.0676 7.37957 5.10516 7.72593 5.24865C8.0723 5.39215 8.36834 5.63512 8.57662 5.94686C8.7849 6.25859 8.89607 6.62509 8.89607 7C8.89257 8.04562 8.04601 8.89262 7.00038 8.89569H6.99994Z" fill="#fff" />
	</g>
	<defs>
		<clipPath id="clip0_1100_5">
			<rect width="14" height="14" fill="white" />
		</clipPath>
	</defs>
</svg>
