<svg width="14" height="14" viewBox="0 0 14 14" fill="none" xmlns="http://www.w3.org/2000/svg">
	<g clip-path="url(#clip0_1100_9)">
		<path d="M7.00022 3.50009L7.67703 4.76009C8.05809 5.4638 8.72987 5.96868 9.527 6.11655L9.54319 6.11918L10.9487 6.36987L9.96319 7.40237C9.48601 7.89361 9.21947 8.55174 9.22031 9.23659C9.22031 9.36521 9.2295 9.49165 9.24744 9.61546L9.24569 9.60146L9.43819 11.0131L8.225 10.4301C7.86734 10.2533 7.44559 10.1496 7.00022 10.1496C6.55484 10.1496 6.13309 10.2529 5.75881 10.4371L5.77522 10.4296L4.56225 11.0128L4.75475 9.60124C4.77094 9.49187 4.78012 9.36499 4.78012 9.23637C4.78121 8.55106 4.51447 7.89246 4.03681 7.40105L4.03769 7.40215L3.05222 6.34034L4.45769 6.08965C4.84847 6.01858 5.21836 5.86084 5.54016 5.62803C5.86197 5.39523 6.12751 5.09326 6.31728 4.74434L6.32428 4.73055L7.00109 3.49987L7.00022 3.50009ZM7.00022 0.303711H6.99891C6.71016 0.303711 6.45947 0.464711 6.33128 0.702273L6.32909 0.706211L4.66681 3.83259C4.61245 3.93287 4.53655 4.01988 4.44456 4.08735C4.35258 4.15483 4.2468 4.2011 4.13481 4.22284L4.13 4.22371L0.630437 4.85371C0.454267 4.88418 0.294479 4.97578 0.179171 5.11241C0.0638641 5.24905 0.000421441 5.42196 0 5.60074C0 5.80418 0.0800625 5.9888 0.210438 6.1253L0.21 6.12509L2.66547 8.68555C2.74949 8.7698 2.81188 8.87313 2.8473 8.98672C2.88273 9.10032 2.89014 9.22079 2.86891 9.33787L2.86978 9.33349L2.39159 12.8331C2.37658 12.9404 2.38477 13.0498 2.41561 13.1537C2.44646 13.2577 2.49924 13.3538 2.57039 13.4356C2.64155 13.5174 2.72942 13.583 2.82809 13.628C2.92676 13.6729 3.03392 13.6962 3.14234 13.6962H3.14409C3.26924 13.7006 3.3933 13.6717 3.50372 13.6127L3.49978 13.6144L6.62003 12.1094C6.74623 12.0477 6.88492 12.0158 7.02541 12.0162C7.1659 12.0165 7.30442 12.0492 7.43028 12.1116L7.42503 12.1094L10.4991 13.6144C10.6 13.6685 10.7128 13.6967 10.8272 13.6962H10.8318H10.8314C10.8388 13.6967 10.8476 13.6967 10.8563 13.6967C10.9652 13.6967 11.0727 13.6733 11.1717 13.628C11.2706 13.5828 11.3587 13.5168 11.4299 13.4345C11.501 13.3522 11.5537 13.2555 11.5842 13.151C11.6147 13.0466 11.6224 12.9368 11.6067 12.8291L11.6071 12.8331L11.1289 9.33349C11.1115 9.21982 11.1209 9.10365 11.1563 8.99426C11.1918 8.88486 11.2524 8.78529 11.3332 8.70349L13.7887 6.14302C13.8834 6.04422 13.9496 5.92163 13.9803 5.78825C14.0111 5.65486 14.0051 5.51566 13.9631 5.38538C13.9212 5.2551 13.8447 5.1386 13.7419 5.04824C13.6391 4.95788 13.5138 4.89701 13.3792 4.87209L13.3744 4.87143L9.87481 4.24143C9.76009 4.21932 9.65187 4.1715 9.55829 4.10156C9.46471 4.03162 9.38819 3.94138 9.3345 3.83762L9.33231 3.83324L7.66981 0.706867C7.60519 0.585367 7.50874 0.483727 7.39079 0.412827C7.27285 0.341927 7.13784 0.304436 7.00022 0.304367H6.99891L7.00022 0.30393V0.303711Z" fill="#fff" />
	</g>
	<defs>
		<clipPath id="clip0_1100_9">
			<rect width="14" height="14" fill="white" />
		</clipPath>
	</defs>
</svg>
