<svg width="68" height="25" viewBox="0 0 68 25" fill="none" xmlns="http://www.w3.org/2000/svg">
<path fill-rule="evenodd" clip-rule="evenodd" d="M30.5752 2.58592L30.5814 2.615C30.5814 2.58592 30.5794 2.57838 30.5752 2.58592ZM29.651 0.951137C29.298 0.677377 28.9009 0.471328 28.4783 0.342671C27.8861 0.160913 27.2754 0.0524705 26.6588 0.0195914C25.9584 1.53519 24.9069 3.71382 23.5041 6.55549C22.1016 9.39751 19.9271 14.2017 17.824 18.0485C17.5804 16.749 17.3579 15.4836 17.1564 14.2523C16.9546 13.0214 16.6824 10.9871 16.494 9.67428C16.2269 7.81442 15.9154 1.2936 15.7384 0.0174376C14.9825 -0.0394064 14.2229 0.0429857 13.4945 0.260824C12.7797 0.47621 12.2874 0.882213 12.0176 1.47883C11.6036 2.80777 10.4547 6.41656 7.64158 15.0029C6.25984 19.218 5.79616 21.5119 4.37924 21.9847C3.3018 22.3433 2.25644 22.2475 1.98527 21.2513C1.45845 19.3193 3.32457 17.7793 2.9706 17.5897C1.91489 17.0168 0.219551 18.9962 0.0125497 21.1091C-0.123036 22.4951 0.869534 23.7164 1.56506 24.3335C2.30716 24.9958 4.0853 25.1035 5.22794 24.9204C6.71835 24.6361 7.55567 24.0168 8.60517 21.3978C11.4059 14.3977 12.9646 6.75149 13.1095 6.2281C13.3527 10.2838 13.8837 15.3917 13.9582 16.2683C14.0327 17.145 14.4664 21.2664 14.5471 21.8619C15.7891 22.1591 16.7127 22.2539 17.3178 22.1462C17.9244 22.0385 18.1873 22.0385 18.888 21.2513C19.866 20.1496 20.9373 17.8848 22.3728 15.1483C23.9408 12.1577 27.0231 5.13286 27.0231 5.13286C27.0231 5.13286 24.1696 21.4925 24.3755 19.6714C24.241 20.8625 24.2006 21.7151 24.2545 22.2291C24.3352 23.0411 24.7261 23.5014 25.4271 23.6098C26.1282 23.7182 27.0045 23.6909 28.056 23.5279C27.8946 23.3125 27.7921 22.549 27.8946 21.681C28.4007 17.3948 29.0527 12.7425 29.8538 7.61088C30.125 5.87379 30.5224 2.69361 30.5783 2.58915C30.4655 2.04745 30.2337 1.42929 29.651 0.951137Z" fill="#1A2C38"/>
<path fill-rule="evenodd" clip-rule="evenodd" d="M39.5373 17.4777C39.5065 17.4767 39.4757 17.4821 39.4469 17.4938C39.4181 17.5055 39.3918 17.523 39.3697 17.5455C38.8977 17.9763 36.2647 19.9611 35.7078 20.2863C35.151 20.6115 34.6087 20.7752 34.0922 20.7752C33.6216 20.7752 33.2794 20.5842 33.0655 20.2023C32.8522 19.82 32.7456 19.3267 32.7456 18.7194V18.2811C33.4654 18.3059 34.1836 18.1965 34.8664 17.958C35.5154 17.739 36.1175 17.3912 36.6393 16.9338C37.1419 16.4882 37.5492 15.9379 37.8348 15.3184C38.1289 14.6778 38.2675 13.9719 38.2384 13.2626C38.2312 12.9712 38.1661 12.6846 38.0473 12.4207C37.9285 12.1568 37.7585 11.9213 37.5481 11.729C37.1113 11.3133 36.4661 11.1055 35.6126 11.1055C34.9171 11.1055 34.2216 11.3208 33.526 11.7516C32.7981 12.2076 32.1543 12.7952 31.6247 13.4866C30.4035 15.0755 29.6601 17.004 29.4874 19.0306C29.4184 20.1312 29.6651 21.0355 30.2275 21.7434C30.7884 22.4509 31.2801 22.8817 32.698 22.8709C34.116 22.8602 37.5957 21.7552 39.4038 19.0629L39.8075 17.8158C39.7444 17.5907 39.6512 17.4777 39.5373 17.4777ZM33.318 15.5015C33.4831 14.9838 33.6909 14.4818 33.939 14.0013C34.1448 13.5943 34.4055 13.2201 34.7132 12.8899C34.9933 12.5977 35.2904 12.4516 35.6043 12.4516C35.9866 12.4516 36.2112 12.6595 36.2781 13.0752C36.345 13.4909 36.2609 13.9626 36.0256 14.4903C35.7445 15.08 35.3553 15.6068 34.8798 16.041C34.322 16.5634 33.645 16.9285 32.9133 17.1018C33.0106 16.5587 33.1452 16.0238 33.318 15.5015Z" fill="#1A2C38"/>
<path fill-rule="evenodd" clip-rule="evenodd" d="M43.0315 9.21652C43.3186 9.26589 43.6134 9.21874 43.873 9.0819C44.118 8.94831 44.3304 8.75825 44.494 8.52621C44.6624 8.29121 44.7932 8.02935 44.8811 7.75082C44.9686 7.48487 45.014 7.20591 45.0156 6.92481C45.0156 6.47537 44.8866 6.14978 44.6285 5.94803C44.3786 5.74864 44.0827 5.62091 43.7705 5.57757C43.2999 5.53234 42.8566 5.71757 42.4405 6.13327C42.0271 6.54501 41.7806 7.10554 41.7512 7.7002C41.7268 7.88152 41.7412 8.06622 41.7934 8.24106C41.8457 8.4159 41.9345 8.57653 42.0534 8.71144C42.3042 9.00533 42.6549 9.18642 43.0315 9.21652ZM46.565 16.8326C46.4088 16.6753 46.2732 16.6172 46.1614 16.6635C46.13 16.6729 46.1013 16.6903 46.0779 16.7139C46.0544 16.7376 46.0369 16.7669 46.0268 16.7992C45.8043 17.3341 45.5456 17.852 45.2526 18.3489C44.9838 18.8089 44.674 19.2416 44.3274 19.6412C44.0404 19.9795 43.7053 20.2701 43.3338 20.5028C43.053 20.689 42.7247 20.7828 42.3919 20.772C42.2118 20.772 42.1276 20.5925 42.1394 20.2335C42.162 19.7806 42.2181 19.3302 42.307 18.8863C42.4085 18.3471 42.5375 17.7516 42.6941 17.0997C42.8507 16.4478 42.9967 15.8246 43.1319 15.2301C43.2665 14.6342 43.3786 14.1004 43.4683 13.6287C43.558 13.157 43.5804 12.8314 43.5356 12.6519C43.4238 12.2693 43.1209 11.9322 42.6268 11.6407C42.1426 11.3515 41.6022 11.1789 41.0454 11.1356C40.9652 11.7853 40.8358 12.4274 40.6583 13.0558C40.445 13.8649 40.2205 14.7074 39.9845 15.5833C39.7485 16.4592 39.5304 17.296 39.3303 18.0937C39.1282 18.8913 39.0274 19.5149 39.0281 19.9643C39.0391 20.2975 39.1318 20.6222 39.2972 20.9077C39.4788 21.2479 39.7052 21.5601 39.97 21.8349C40.2347 22.1123 40.5349 22.3504 40.8622 22.5425C41.1526 22.7231 41.4833 22.8219 41.8216 22.8289C42.7635 22.8289 43.6667 22.4075 44.5312 21.5646C45.3958 20.7217 46.1203 19.5705 46.7048 18.1109L46.565 16.8326Z" fill="#1A2C38"/>
<path fill-rule="evenodd" clip-rule="evenodd" d="M57.9335 10.4561C57.7724 9.95473 57.4976 9.50113 57.1324 9.1336C56.8031 8.81523 56.409 8.57817 55.9794 8.44005C55.5377 8.29971 55.0782 8.22928 54.6163 8.23113C53.9069 8.22599 53.2076 8.40633 52.5826 8.75559C52.0039 9.06824 51.475 9.4718 51.0145 9.95206C51.1822 9.16806 51.3219 8.46123 51.4337 7.83159C51.5455 7.20194 51.649 6.60748 51.7442 6.04819C51.8415 5.48818 51.9322 4.94218 52.0164 4.41018C52.1006 3.87817 52.1844 3.30596 52.2679 2.69355C52.2941 2.40654 52.2278 2.11862 52.0795 1.87508C51.9088 1.59023 51.6883 1.34113 51.4296 1.14061C51.1341 0.907055 50.8096 0.716144 50.4649 0.57307C50.1177 0.423237 49.7499 0.331287 49.3751 0.300606C49.431 0.384607 49.4168 0.692609 49.3326 1.22461C49.2485 1.75662 49.1229 2.42575 48.9559 3.23201C48.7323 4.38074 48.4525 5.66803 48.1165 7.09389C47.7805 8.51975 47.452 9.94704 47.1312 11.3758C46.8103 12.8038 46.5098 14.1679 46.2297 15.4681C45.9496 16.7683 45.7401 17.8668 45.6014 18.7635C45.4338 19.9122 45.6432 20.8707 46.2297 21.6389C46.8162 22.4071 47.7822 22.792 49.1277 22.7934C50.3834 22.8001 51.6192 22.466 52.713 21.8242C53.8113 21.1844 54.791 20.3455 55.6058 19.3472C56.4192 18.359 57.071 17.2384 57.5351 16.0303C57.9766 14.9254 58.2113 13.7429 58.2264 12.5464C58.2264 11.7121 58.1288 11.0154 57.9335 10.4561ZM54.0968 14.6561C53.8948 15.6381 53.5926 16.5948 53.1953 17.51C52.8421 18.3431 52.368 19.115 51.7897 19.7984C51.2453 20.4281 50.6654 20.7429 50.0499 20.7429C49.9413 20.7471 49.8331 20.7285 49.7316 20.6882C49.6301 20.6479 49.5374 20.5867 49.4592 20.5083C49.3809 20.4299 49.3187 20.3358 49.2761 20.2318C49.2336 20.1278 49.2116 20.0159 49.2115 19.9029C49.2251 19.4162 49.2812 18.9317 49.3792 18.4555C49.5064 17.788 49.6674 17.128 49.8615 16.4783C50.0685 15.7653 50.3131 15.0449 50.5953 14.3169C50.8492 13.6438 51.1505 12.9912 51.4968 12.3644C51.7787 11.8448 52.1238 11.3652 52.5236 10.9375C52.8865 10.5591 53.2501 10.3703 53.6145 10.371C53.9222 10.371 54.1316 10.5318 54.2427 10.8535C54.3639 11.2394 54.4206 11.6441 54.4104 12.0499C54.3932 12.9269 54.2881 13.7997 54.0968 14.6539V14.6561Z" fill="#1A2C38"/>
<path fill-rule="evenodd" clip-rule="evenodd" d="M67.2755 12.4753C66.7925 11.7574 65.9676 11.3984 64.8008 11.3984C63.9019 11.3917 63.0221 11.6676 62.2764 12.1899C61.5148 12.7163 60.853 13.3844 60.3244 14.1607C59.7863 14.9491 59.3675 15.8186 59.0824 16.7389C58.8055 17.5801 58.6577 18.4614 58.6446 19.3504C58.6446 20.4274 58.9754 21.3205 59.6372 22.0298C60.2989 22.7392 61.1686 23.0931 62.2464 23.0917C63.2124 23.0917 64.0539 22.8332 64.7708 22.3163C65.4906 21.7966 66.103 21.1319 66.5717 20.3617C67.0581 19.5663 67.4213 18.6963 67.6481 17.7835C67.8743 16.9209 67.9926 16.0316 68 15.1375C68 14.0814 67.7585 13.194 67.2755 12.4753ZM65.6599 16.1369C65.5091 16.9084 65.2951 17.665 65.0202 18.3984C64.7641 19.1021 64.4247 19.77 64.0101 20.3865C63.6174 20.9608 63.1741 21.248 62.6801 21.248C62.5988 21.251 62.5179 21.236 62.4426 21.2041C62.3673 21.1722 62.2994 21.124 62.2433 21.0628C62.1248 20.9282 62.0384 20.7667 61.9908 20.5911C61.9353 20.4041 61.8958 20.2124 61.8728 20.0181C61.852 19.856 61.8406 19.6928 61.8386 19.5292C61.8565 18.9586 61.9129 18.39 62.0073 17.8277C62.1228 17.0589 62.3029 16.3021 62.5455 15.5661C62.7674 14.8656 63.085 14.2018 63.4884 13.5953C63.8693 13.0332 64.3292 12.7521 64.8681 12.7521C65.0621 12.7382 65.2547 12.7953 65.4125 12.9136C65.5463 13.0247 65.6504 13.1697 65.7147 13.3347C65.7847 13.5124 65.83 13.6995 65.8493 13.8904C65.8705 14.0691 65.882 14.2488 65.8834 14.4289C65.8807 14.8108 65.8065 15.3784 65.6609 16.1315L65.6599 16.1369Z" fill="#1A2C38"/>
</svg>
