<svg width="14" height="14" viewBox="0 0 14 14" fill="none" xmlns="http://www.w3.org/2000/svg">
<path fill-rule="evenodd" clip-rule="evenodd" d="M0 4.55V9.45H3.5L7.7 12.25V1.75L3.5 4.55H0ZM9.1 2.1V3.85C10.8395 3.85 12.25 5.2605 12.25 7C12.25 8.7395 10.8395 10.15 9.1 10.15V11.9C11.8064 11.9 14 9.70638 14 7C14 4.29363 11.8064 2.1 9.1 2.1ZM9.09431 5.25C9.55844 5.25 10.0036 5.43437 10.3317 5.76256C10.6599 6.09075 10.8443 6.53587 10.8443 7C10.8443 7.46413 10.6599 7.90925 10.3317 8.23744C10.0036 8.56563 9.55844 8.75 9.09431 8.75V5.25Z" fill="#1475E1"/>
</svg>
